0 On ch=2 n=78 v=127
480 Off ch=2 n=78 v=64
480 On ch=2 n=78 v=127
960 Off ch=2 n=78 v=64
960 On ch=2 n=79 v=127
1440 Off ch=2 n=79 v=64
1440 On ch=2 n=81 v=127
1920 Off ch=2 n=81 v=64
1920 On ch=2 n=81 v=127
2400 Off ch=2 n=81 v=64
2400 On ch=2 n=79 v=127
2880 Off ch=2 n=79 v=64
2880 On ch=2 n=78 v=127
3360 Off ch=2 n=78 v=64
3360 On ch=2 n=76 v=127
3840 Off ch=2 n=76 v=64
3840 On ch=2 n=74 v=127
4320 Off ch=2 n=74 v=64
4320 On ch=2 n=74 v=127
4800 Off ch=2 n=74 v=64
4800 On ch=2 n=76 v=127
5280 Off ch=2 n=76 v=64
5280 On ch=2 n=78 v=127
5760 Off ch=2 n=78 v=64
5760 On ch=2 n=78 v=127
6480 Off ch=2 n=78 v=64
6480 On ch=2 n=76 v=127
6720 Off ch=2 n=76 v=64
6720 On ch=2 n=76 v=127
7680 Off ch=2 n=76 v=64
7680 On ch=2 n=78 v=127
8160 Off ch=2 n=78 v=64
8160 On ch=2 n=78 v=127
8640 Off ch=2 n=78 v=64
8640 On ch=2 n=79 v=127
9120 Off ch=2 n=79 v=64
9120 On ch=2 n=81 v=127
9600 Off ch=2 n=81 v=64
9600 On ch=2 n=81 v=127
10080 Off ch=2 n=81 v=64
10080 On ch=2 n=79 v=127
10560 Off ch=2 n=79 v=64
10560 On ch=2 n=78 v=127
11040 Off ch=2 n=78 v=64
11040 On ch=2 n=76 v=127
11520 Off ch=2 n=76 v=64
11520 On ch=2 n=74 v=127
12000 Off ch=2 n=74 v=64
12000 On ch=2 n=74 v=127
12480 Off ch=2 n=74 v=64
12480 On ch=2 n=76 v=127
12960 Off ch=2 n=76 v=64
12960 On ch=2 n=78 v=127
13440 Off ch=2 n=78 v=64
13440 On ch=2 n=76 v=127
14160 Off ch=2 n=76 v=64
14160 On ch=2 n=74 v=127
14400 Off ch=2 n=74 v=64
14400 On ch=2 n=74 v=127
15360 Off ch=2 n=74 v=64
15360 On ch=2 n=76 v=127
15840 Off ch=2 n=76 v=64
15840 On ch=2 n=76 v=127
16320 Off ch=2 n=76 v=64
16320 On ch=2 n=78 v=127
16800 Off ch=2 n=78 v=64
16800 On ch=2 n=74 v=127
17280 Off ch=2 n=74 v=64
17280 On ch=2 n=76 v=127
17760 Off ch=2 n=76 v=64
17760 On ch=2 n=78 v=127
18000 Off ch=2 n=78 v=64
18000 On ch=2 n=79 v=127
18240 Off ch=2 n=79 v=64
18240 On ch=2 n=78 v=127
18720 Off ch=2 n=78 v=64
18720 On ch=2 n=74 v=127
19200 Off ch=2 n=74 v=64
19200 On ch=2 n=76 v=127
19680 Off ch=2 n=76 v=64
19680 On ch=2 n=78 v=127
19920 Off ch=2 n=78 v=64
19920 On ch=2 n=79 v=127
20160 Off ch=2 n=79 v=64
20160 On ch=2 n=78 v=127
20640 Off ch=2 n=78 v=64
20640 On ch=2 n=76 v=127
21120 Off ch=2 n=76 v=64
21120 On ch=2 n=74 v=127
21600 Off ch=2 n=74 v=64
21600 On ch=2 n=76 v=127
22080 Off ch=2 n=76 v=64
22080 On ch=2 n=69 v=127
22560 Off ch=2 n=69 v=64
22560 On ch=2 n=78 v=127
23520 Off ch=2 n=78 v=64
23520 On ch=2 n=78 v=127
24000 Off ch=2 n=78 v=64
24000 On ch=2 n=79 v=127
24480 Off ch=2 n=79 v=64
24480 On ch=2 n=81 v=127
24960 Off ch=2 n=81 v=64
24960 On ch=2 n=81 v=127
25440 Off ch=2 n=81 v=64
25440 On ch=2 n=79 v=127
25920 Off ch=2 n=79 v=64
25920 On ch=2 n=78 v=127
26400 Off ch=2 n=78 v=64
26400 On ch=2 n=79 v=127
26640 Off ch=2 n=79 v=64
26640 On ch=2 n=76 v=127
26880 Off ch=2 n=76 v=64
26880 On ch=2 n=74 v=127
27360 Off ch=2 n=74 v=64
27360 On ch=2 n=74 v=127
27840 Off ch=2 n=74 v=64
27840 On ch=2 n=76 v=127
28320 Off ch=2 n=76 v=64
28320 On ch=2 n=78 v=127
28800 Off ch=2 n=78 v=64
28800 On ch=2 n=76 v=127
29520 Off ch=2 n=76 v=64
29520 On ch=2 n=74 v=127
29760 Off ch=2 n=74 v=64
29760 On ch=2 n=74 v=127
30720 Off ch=2 n=74 v=64
30720 On ch=2 n=90 v=127
31200 Off ch=2 n=90 v=64
31200 On ch=2 n=90 v=127
31680 Off ch=2 n=90 v=64
31680 On ch=2 n=91 v=127
32160 Off ch=2 n=91 v=64
32160 On ch=2 n=93 v=127
32640 Off ch=2 n=93 v=64
32640 On ch=2 n=93 v=127
33120 Off ch=2 n=93 v=64
33120 On ch=2 n=91 v=127
33600 Off ch=2 n=91 v=64
33600 On ch=2 n=90 v=127
34080 Off ch=2 n=90 v=64
34080 On ch=2 n=88 v=127
34560 Off ch=2 n=88 v=64
34560 On ch=2 n=86 v=127
35040 Off ch=2 n=86 v=64
35040 On ch=2 n=86 v=127
35520 Off ch=2 n=86 v=64
35520 On ch=2 n=88 v=127
36000 Off ch=2 n=88 v=64
36000 On ch=2 n=90 v=127
36480 Off ch=2 n=90 v=64
36480 On ch=2 n=90 v=127
37200 Off ch=2 n=90 v=64
37200 On ch=2 n=88 v=127
37440 Off ch=2 n=88 v=64
37440 On ch=2 n=88 v=127
38400 Off ch=2 n=88 v=64
38400 On ch=2 n=90 v=127
38880 Off ch=2 n=90 v=64
38880 On ch=2 n=90 v=127
39360 Off ch=2 n=90 v=64
39360 On ch=2 n=91 v=127
39840 Off ch=2 n=91 v=64
39840 On ch=2 n=93 v=127
40320 Off ch=2 n=93 v=64
40320 On ch=2 n=93 v=127
40800 Off ch=2 n=93 v=64
40800 On ch=2 n=91 v=127
41280 Off ch=2 n=91 v=64
41280 On ch=2 n=90 v=127
41760 Off ch=2 n=90 v=64
41760 On ch=2 n=88 v=127
42240 Off ch=2 n=88 v=64
42240 On ch=2 n=86 v=127
42720 Off ch=2 n=86 v=64
42720 On ch=2 n=86 v=127
43200 Off ch=2 n=86 v=64
43200 On ch=2 n=88 v=127
43680 Off ch=2 n=88 v=64
43680 On ch=2 n=90 v=127
44160 Off ch=2 n=90 v=64
44160 On ch=2 n=88 v=127
44880 Off ch=2 n=88 v=64
44880 On ch=2 n=86 v=127
45120 Off ch=2 n=86 v=64
45120 On ch=2 n=86 v=127
46080 Off ch=2 n=86 v=64
46080 On ch=2 n=88 v=127
46560 Off ch=2 n=88 v=64
46560 On ch=2 n=88 v=127
47040 Off ch=2 n=88 v=64
47040 On ch=2 n=90 v=127
47520 Off ch=2 n=90 v=64
47520 On ch=2 n=86 v=127
48000 Off ch=2 n=86 v=64
48000 On ch=2 n=88 v=127
48480 Off ch=2 n=88 v=64
48480 On ch=2 n=90 v=127
48720 Off ch=2 n=90 v=64
48720 On ch=2 n=91 v=127
48960 Off ch=2 n=91 v=64
48960 On ch=2 n=90 v=127
49440 Off ch=2 n=90 v=64
49440 On ch=2 n=86 v=127
49920 Off ch=2 n=86 v=64
49920 On ch=2 n=88 v=127
50400 Off ch=2 n=88 v=64
50400 On ch=2 n=90 v=127
50640 Off ch=2 n=90 v=64
50640 On ch=2 n=91 v=127
50880 Off ch=2 n=91 v=64
50880 On ch=2 n=90 v=127
51360 Off ch=2 n=90 v=64
51360 On ch=2 n=88 v=127
51840 Off ch=2 n=88 v=64
51840 On ch=2 n=86 v=127
52320 Off ch=2 n=86 v=64
52320 On ch=2 n=88 v=127
52800 Off ch=2 n=88 v=64
52800 On ch=2 n=81 v=127
53280 Off ch=2 n=81 v=64
53280 On ch=2 n=90 v=127
54240 Off ch=2 n=90 v=64
54240 On ch=2 n=90 v=127
54720 Off ch=2 n=90 v=64
54720 On ch=2 n=91 v=127
55200 Off ch=2 n=91 v=64
55200 On ch=2 n=93 v=127
55680 Off ch=2 n=93 v=64
55680 On ch=2 n=93 v=127
56160 Off ch=2 n=93 v=64
56160 On ch=2 n=91 v=127
56640 Off ch=2 n=91 v=64
56640 On ch=2 n=90 v=127
57120 Off ch=2 n=90 v=64
57120 On ch=2 n=91 v=127
57360 Off ch=2 n=91 v=64
57360 On ch=2 n=88 v=127
57600 Off ch=2 n=88 v=64
57600 On ch=2 n=86 v=127
58080 Off ch=2 n=86 v=64
58080 On ch=2 n=86 v=127
58560 Off ch=2 n=86 v=64
58560 On ch=2 n=88 v=127
59040 Off ch=2 n=88 v=64
59040 On ch=2 n=90 v=127
59520 Off ch=2 n=90 v=64
59520 On ch=2 n=88 v=127
60240 Off ch=2 n=88 v=64
60240 On ch=2 n=86 v=127
60480 Off ch=2 n=86 v=64
60480 On ch=2 n=86 v=127
61440 Off ch=2 n=86 v=64
61440 On ch=2 n=102 v=127
61920 Off ch=2 n=102 v=64
61920 On ch=2 n=102 v=127
62400 Off ch=2 n=102 v=64
62400 On ch=2 n=103 v=127
62880 Off ch=2 n=103 v=64
62880 On ch=2 n=105 v=127
63360 Off ch=2 n=105 v=64
63360 On ch=2 n=105 v=127
63840 Off ch=2 n=105 v=64
63840 On ch=2 n=103 v=127
64320 Off ch=2 n=103 v=64
64320 On ch=2 n=102 v=127
64800 Off ch=2 n=102 v=64
64800 On ch=2 n=100 v=127
65280 Off ch=2 n=100 v=64
65280 On ch=2 n=98 v=127
65760 Off ch=2 n=98 v=64
65760 On ch=2 n=98 v=127
66240 Off ch=2 n=98 v=64
66240 On ch=2 n=100 v=127
66720 Off ch=2 n=100 v=64
66720 On ch=2 n=102 v=127
67200 Off ch=2 n=102 v=64
67200 On ch=2 n=102 v=127
67920 Off ch=2 n=102 v=64
67920 On ch=2 n=100 v=127
68160 Off ch=2 n=100 v=64
68160 On ch=2 n=100 v=127
69120 Off ch=2 n=100 v=64
69120 On ch=2 n=102 v=127
69600 Off ch=2 n=102 v=64
69600 On ch=2 n=102 v=127
70080 Off ch=2 n=102 v=64
70080 On ch=2 n=103 v=127
70560 Off ch=2 n=103 v=64
70560 On ch=2 n=105 v=127
71040 Off ch=2 n=105 v=64
71040 On ch=2 n=105 v=127
71520 Off ch=2 n=105 v=64
71520 On ch=2 n=103 v=127
72000 Off ch=2 n=103 v=64
72000 On ch=2 n=102 v=127
72480 Off ch=2 n=102 v=64
72480 On ch=2 n=100 v=127
72960 Off ch=2 n=100 v=64
72960 On ch=2 n=98 v=127
73440 Off ch=2 n=98 v=64
73440 On ch=2 n=98 v=127
73920 Off ch=2 n=98 v=64
73920 On ch=2 n=100 v=127
74400 Off ch=2 n=100 v=64
74400 On ch=2 n=102 v=127
74880 Off ch=2 n=102 v=64
74880 On ch=2 n=100 v=127
75600 Off ch=2 n=100 v=64
75600 On ch=2 n=98 v=127
75840 Off ch=2 n=98 v=64
75840 On ch=2 n=98 v=127
76800 Off ch=2 n=98 v=64
76800 On ch=2 n=100 v=127
77280 Off ch=2 n=100 v=64
77280 On ch=2 n=100 v=127
77760 Off ch=2 n=100 v=64
77760 On ch=2 n=102 v=127
78240 Off ch=2 n=102 v=64
78240 On ch=2 n=98 v=127
78720 Off ch=2 n=98 v=64
78720 On ch=2 n=100 v=127
79200 Off ch=2 n=100 v=64
79200 On ch=2 n=102 v=127
79440 Off ch=2 n=102 v=64
79440 On ch=2 n=103 v=127
79680 Off ch=2 n=103 v=64
79680 On ch=2 n=102 v=127
80160 Off ch=2 n=102 v=64
80160 On ch=2 n=98 v=127
80640 Off ch=2 n=98 v=64
80640 On ch=2 n=100 v=127
81120 Off ch=2 n=100 v=64
81120 On ch=2 n=102 v=127
81360 Off ch=2 n=102 v=64
81360 On ch=2 n=103 v=127
81600 Off ch=2 n=103 v=64
81600 On ch=2 n=102 v=127
82080 Off ch=2 n=102 v=64
82080 On ch=2 n=100 v=127
82560 Off ch=2 n=100 v=64
82560 On ch=2 n=98 v=127
83040 Off ch=2 n=98 v=64
83040 On ch=2 n=100 v=127
83520 Off ch=2 n=100 v=64
83520 On ch=2 n=93 v=127
84000 Off ch=2 n=93 v=64
84000 On ch=2 n=102 v=127
84960 Off ch=2 n=102 v=64
84960 On ch=2 n=102 v=127
85440 Off ch=2 n=102 v=64
85440 On ch=2 n=103 v=127
85920 Off ch=2 n=103 v=64
85920 On ch=2 n=105 v=127
86400 Off ch=2 n=105 v=64
86400 On ch=2 n=105 v=127
86880 Off ch=2 n=105 v=64
86880 On ch=2 n=103 v=127
87360 Off ch=2 n=103 v=64
87360 On ch=2 n=102 v=127
87840 Off ch=2 n=102 v=64
87840 On ch=2 n=103 v=127
88080 Off ch=2 n=103 v=64
88080 On ch=2 n=100 v=127
88320 Off ch=2 n=100 v=64
88320 On ch=2 n=98 v=127
88800 Off ch=2 n=98 v=64
88800 On ch=2 n=98 v=127
89280 Off ch=2 n=98 v=64
89280 On ch=2 n=100 v=127
89760 Off ch=2 n=100 v=64
89760 On ch=2 n=102 v=127
90240 Off ch=2 n=102 v=64
90240 On ch=2 n=100 v=127
90960 Off ch=2 n=100 v=64
90960 On ch=2 n=98 v=127
91200 Off ch=2 n=98 v=64
91200 On ch=2 n=98 v=127
92160 Off ch=2 n=98 v=64
