480 On ch=1 n=82 v=127
480 On ch=1 n=70 v=127
480 On ch=1 n=69 v=127
480 On ch=1 n=74 v=127
480 On ch=1 n=57 v=127
480 On ch=1 n=77 v=127
480 On ch=1 n=62 v=127
480 On ch=1 n=65 v=127
719 On ch=1 n=69 v=0
719 On ch=1 n=57 v=0
719 On ch=1 n=62 v=0
719 On ch=1 n=65 v=0
720 On ch=1 n=45 v=127
720 On ch=1 n=41 v=127
779 On ch=1 n=45 v=0
779 On ch=1 n=41 v=0
780 On ch=1 n=53 v=127
839 On ch=1 n=53 v=0
840 On ch=1 n=41 v=127
840 On ch=1 n=45 v=127
899 On ch=1 n=41 v=0
899 On ch=1 n=45 v=0
900 On ch=1 n=53 v=127
959 On ch=1 n=53 v=0
960 On ch=1 n=45 v=127
960 On ch=1 n=41 v=127
1019 On ch=1 n=45 v=0
1019 On ch=1 n=41 v=0
1020 On ch=1 n=53 v=127
1079 On ch=1 n=82 v=0
1079 On ch=1 n=70 v=0
1079 On ch=1 n=53 v=0
1079 On ch=1 n=74 v=0
1079 On ch=1 n=77 v=0
1080 On ch=1 n=45 v=127
1080 On ch=1 n=81 v=127
1080 On ch=1 n=41 v=127
1080 On ch=1 n=69 v=127
1139 On ch=1 n=45 v=0
1139 On ch=1 n=81 v=0
1139 On ch=1 n=41 v=0
1139 On ch=1 n=69 v=0
1140 On ch=1 n=53 v=127
1199 On ch=1 n=53 v=0
1200 On ch=1 n=45 v=127
1200 On ch=1 n=41 v=127
1200 On ch=1 n=81 v=127
1200 On ch=1 n=69 v=127
1259 On ch=1 n=45 v=0
1259 On ch=1 n=41 v=0
1260 On ch=1 n=53 v=127
1310 On ch=1 n=81 v=0
1310 On ch=1 n=69 v=0
1319 On ch=1 n=53 v=0
1320 On ch=1 n=41 v=127
1320 On ch=1 n=45 v=127
1320 On ch=1 n=74 v=127
1320 On ch=1 n=86 v=127
1379 On ch=1 n=41 v=0
1379 On ch=1 n=45 v=0
1379 On ch=1 n=74 v=0
1379 On ch=1 n=86 v=0
1380 On ch=1 n=53 v=127
1439 On ch=1 n=53 v=0
1440 On ch=1 n=45 v=127
1440 On ch=1 n=41 v=127
1440 On ch=1 n=74 v=127
1440 On ch=1 n=86 v=127
1499 On ch=1 n=45 v=0
1499 On ch=1 n=41 v=0
1500 On ch=1 n=53 v=127
1550 On ch=1 n=74 v=0
1550 On ch=1 n=86 v=0
1559 On ch=1 n=53 v=0
1560 On ch=1 n=45 v=127
1560 On ch=1 n=41 v=127
1560 On ch=1 n=89 v=127
1560 On ch=1 n=77 v=127
1619 On ch=1 n=45 v=0
1619 On ch=1 n=41 v=0
1619 On ch=1 n=89 v=0
1619 On ch=1 n=77 v=0
1620 On ch=1 n=53 v=127
1679 On ch=1 n=53 v=0
1680 On ch=1 n=41 v=127
1680 On ch=1 n=45 v=127
1680 On ch=1 n=77 v=127
1680 On ch=1 n=89 v=127
1739 On ch=1 n=41 v=0
1739 On ch=1 n=45 v=0
1740 On ch=1 n=53 v=127
1790 On ch=1 n=77 v=0
1790 On ch=1 n=89 v=0
1799 On ch=1 n=53 v=0
1800 On ch=1 n=45 v=127
1800 On ch=1 n=41 v=127
1800 On ch=1 n=81 v=127
1800 On ch=1 n=93 v=127
1859 On ch=1 n=45 v=0
1859 On ch=1 n=41 v=0
1859 On ch=1 n=81 v=0
1859 On ch=1 n=93 v=0
1860 On ch=1 n=53 v=127
1914 Par ch=1 c=64 v=127
1919 On ch=1 n=53 v=0
1920 On ch=1 n=93 v=127
1920 On ch=1 n=81 v=127
1920 On ch=1 n=45 v=127
1920 On ch=1 n=41 v=127
1979 On ch=1 n=45 v=0
1979 On ch=1 n=41 v=0
1980 On ch=1 n=53 v=127
2030 On ch=1 n=93 v=0
2030 On ch=1 n=81 v=0
2039 On ch=1 n=53 v=0
2040 On ch=1 n=41 v=127
2040 On ch=1 n=74 v=127
2040 On ch=1 n=45 v=127
2040 On ch=1 n=86 v=127
2099 On ch=1 n=41 v=0
2099 On ch=1 n=74 v=0
2099 On ch=1 n=45 v=0
2099 On ch=1 n=86 v=0
2100 On ch=1 n=53 v=127
2159 On ch=1 n=53 v=0
2160 On ch=1 n=45 v=127
2160 On ch=1 n=41 v=127
2160 On ch=1 n=74 v=127
2160 On ch=1 n=86 v=127
2219 On ch=1 n=45 v=0
2219 On ch=1 n=41 v=0
2220 On ch=1 n=50 v=127
2270 On ch=1 n=74 v=0
2270 On ch=1 n=86 v=0
2279 On ch=1 n=50 v=0
2280 On ch=1 n=38 v=127
2280 On ch=1 n=77 v=127
2280 On ch=1 n=89 v=127
2339 On ch=1 n=38 v=0
2339 On ch=1 n=77 v=0
2339 On ch=1 n=89 v=0
2340 On ch=1 n=50 v=127
2399 On ch=1 n=50 v=0
2400 On ch=1 n=38 v=127
2400 On ch=1 n=89 v=127
2400 On ch=1 n=77 v=127
2459 On ch=1 n=38 v=0
2460 On ch=1 n=50 v=127
2510 On ch=1 n=89 v=0
2510 On ch=1 n=77 v=0
2519 On ch=1 n=50 v=0
2520 On ch=1 n=38 v=127
2520 On ch=1 n=69 v=127
2520 On ch=1 n=81 v=127
2579 On ch=1 n=38 v=0
2579 On ch=1 n=69 v=0
2579 On ch=1 n=81 v=0
2580 On ch=1 n=50 v=127
2639 On ch=1 n=50 v=0
2640 On ch=1 n=38 v=127
2640 On ch=1 n=69 v=127
2640 On ch=1 n=81 v=127
2699 On ch=1 n=38 v=0
2700 On ch=1 n=50 v=127
2750 On ch=1 n=69 v=0
2750 On ch=1 n=81 v=0
2759 On ch=1 n=50 v=0
2760 On ch=1 n=38 v=127
2760 On ch=1 n=86 v=127
2760 On ch=1 n=74 v=127
2819 On ch=1 n=38 v=0
2819 On ch=1 n=86 v=0
2819 On ch=1 n=74 v=0
2820 On ch=1 n=50 v=127
2879 On ch=1 n=50 v=0
2880 On ch=1 n=86 v=127
2880 On ch=1 n=74 v=127
2880 On ch=1 n=38 v=127
2939 On ch=1 n=38 v=0
2940 On ch=1 n=50 v=127
2990 On ch=1 n=86 v=0
2990 On ch=1 n=74 v=0
2999 On ch=1 n=50 v=0
3000 On ch=1 n=38 v=127
3000 On ch=1 n=65 v=127
3000 On ch=1 n=77 v=127
3059 On ch=1 n=38 v=0
3059 On ch=1 n=65 v=0
3059 On ch=1 n=77 v=0
3060 On ch=1 n=50 v=127
3119 On ch=1 n=50 v=0
3120 On ch=1 n=38 v=127
3120 On ch=1 n=65 v=127
3120 On ch=1 n=77 v=127
3179 On ch=1 n=38 v=0
3180 On ch=1 n=50 v=127
3230 On ch=1 n=65 v=0
3230 On ch=1 n=77 v=0
3239 On ch=1 n=50 v=0
3240 On ch=1 n=38 v=127
3240 On ch=1 n=69 v=127
3240 On ch=1 n=81 v=127
3299 On ch=1 n=38 v=0
3299 On ch=1 n=69 v=0
3299 On ch=1 n=81 v=0
3300 On ch=1 n=50 v=127
3359 On ch=1 n=50 v=0
3360 On ch=1 n=81 v=127
3360 On ch=1 n=69 v=127
3360 On ch=1 n=38 v=127
3419 On ch=1 n=38 v=0
3420 On ch=1 n=50 v=127
3470 On ch=1 n=81 v=0
3470 On ch=1 n=69 v=0
3479 On ch=1 n=50 v=0
3480 On ch=1 n=38 v=127
3480 On ch=1 n=74 v=127
3480 On ch=1 n=62 v=127
3539 On ch=1 n=38 v=0
3539 On ch=1 n=74 v=0
3539 On ch=1 n=62 v=0
3540 On ch=1 n=50 v=127
3599 On ch=1 n=50 v=0
3600 On ch=1 n=74 v=127
3600 On ch=1 n=38 v=127
3600 On ch=1 n=62 v=127
3660 On ch=1 n=74 v=0
3660 On ch=1 n=38 v=0
3660 On ch=1 n=62 v=0
3720 On ch=1 n=62 v=127
3720 On ch=1 n=50 v=127
3720 On ch=1 n=74 v=127
3720 On ch=1 n=77 v=127
3780 On ch=1 n=62 v=0
3780 On ch=1 n=50 v=0
3780 On ch=1 n=74 v=0
3780 On ch=1 n=77 v=0
3840 On ch=1 n=86 v=127
3840 On ch=1 n=77 v=127
3840 On ch=1 n=74 v=127
3840 On ch=1 n=62 v=127
3840 On ch=1 n=50 v=127
3900 On ch=1 n=86 v=0
3900 On ch=1 n=77 v=0
3900 On ch=1 n=74 v=0
3900 On ch=1 n=62 v=0
3900 On ch=1 n=50 v=0
3960 On ch=1 n=78 v=127
3960 On ch=1 n=86 v=127
3960 On ch=1 n=74 v=127
3960 On ch=1 n=60 v=127
3960 On ch=1 n=48 v=127
4020 On ch=1 n=78 v=0
4020 On ch=1 n=86 v=0
4020 On ch=1 n=74 v=0
4020 On ch=1 n=60 v=0
4020 On ch=1 n=48 v=0
4080 On ch=1 n=74 v=127
4080 On ch=1 n=78 v=127
4080 On ch=1 n=86 v=127
4080 On ch=1 n=60 v=127
4080 On ch=1 n=48 v=127
4140 On ch=1 n=74 v=0
4140 On ch=1 n=78 v=0
4140 On ch=1 n=86 v=0
4140 On ch=1 n=60 v=0
4140 On ch=1 n=48 v=0
4200 On ch=1 n=59 v=127
4200 On ch=1 n=79 v=127
4200 On ch=1 n=47 v=127
4200 On ch=1 n=74 v=127
4200 On ch=1 n=86 v=127
4232 Par ch=1 c=64 v=0
4260 On ch=1 n=59 v=0
4260 On ch=1 n=79 v=0
4260 On ch=1 n=47 v=0
4260 On ch=1 n=74 v=0
4260 On ch=1 n=86 v=0
4320 On ch=1 n=86 v=127
4320 On ch=1 n=74 v=127
4320 On ch=1 n=79 v=127
4320 On ch=1 n=59 v=127
4320 On ch=1 n=47 v=127
4380 On ch=1 n=86 v=0
4380 On ch=1 n=74 v=0
4380 On ch=1 n=79 v=0
4380 On ch=1 n=59 v=0
4380 On ch=1 n=47 v=0
4440 On ch=1 n=80 v=127
4440 On ch=1 n=86 v=127
4440 On ch=1 n=58 v=127
4440 On ch=1 n=74 v=127
4440 On ch=1 n=46 v=127
4500 On ch=1 n=80 v=0
4500 On ch=1 n=86 v=0
4500 On ch=1 n=58 v=0
4500 On ch=1 n=74 v=0
4500 On ch=1 n=46 v=0
4560 On ch=1 n=58 v=127
4560 On ch=1 n=80 v=127
4560 On ch=1 n=86 v=127
4560 On ch=1 n=74 v=127
4560 On ch=1 n=46 v=127
4620 On ch=1 n=58 v=0
4620 On ch=1 n=80 v=0
4620 On ch=1 n=86 v=0
4620 On ch=1 n=74 v=0
4620 On ch=1 n=46 v=0
4680 On ch=1 n=58 v=127
4680 On ch=1 n=80 v=127
4680 On ch=1 n=46 v=127
4680 On ch=1 n=74 v=127
4680 On ch=1 n=86 v=127
4740 On ch=1 n=58 v=0
4740 On ch=1 n=80 v=0
4740 On ch=1 n=46 v=0
4740 On ch=1 n=74 v=0
4740 On ch=1 n=86 v=0
4800 On ch=1 n=58 v=127
4800 On ch=1 n=80 v=127
4800 On ch=1 n=74 v=127
4800 On ch=1 n=46 v=127
4800 On ch=1 n=86 v=127
4860 On ch=1 n=58 v=0
4860 On ch=1 n=80 v=0
4860 On ch=1 n=74 v=0
4860 On ch=1 n=46 v=0
4860 On ch=1 n=86 v=0
4920 On ch=1 n=46 v=127
4920 On ch=1 n=34 v=127
4920 On ch=1 n=86 v=127
4920 On ch=1 n=89 v=127
4920 On ch=1 n=77 v=127
4980 On ch=1 n=46 v=0
4980 On ch=1 n=34 v=0
4980 On ch=1 n=86 v=0
4980 On ch=1 n=89 v=0
4980 On ch=1 n=77 v=0
5040 On ch=1 n=89 v=127
5040 On ch=1 n=86 v=127
5040 On ch=1 n=77 v=127
5040 On ch=1 n=46 v=127
5040 On ch=1 n=34 v=127
5159 On ch=1 n=89 v=0
5159 On ch=1 n=86 v=0
5159 On ch=1 n=77 v=0
5159 On ch=1 n=46 v=0
5159 On ch=1 n=34 v=0
5280 On ch=1 n=93 v=127
5280 On ch=1 n=33 v=127
5280 On ch=1 n=45 v=127
5280 On ch=1 n=81 v=127
5399 On ch=1 n=93 v=0
5399 On ch=1 n=33 v=0
5399 On ch=1 n=45 v=0
5399 On ch=1 n=81 v=0
5477 Par ch=1 c=64 v=127
5597 Par ch=1 c=64 v=0
5760 Tempo 750000
6240 On ch=1 n=57 v=110
6240 On ch=1 n=45 v=110
6315 On ch=1 n=57 v=0
6315 On ch=1 n=45 v=0
6480 On ch=1 n=64 v=110
6480 On ch=1 n=52 v=110
7439 On ch=1 n=64 v=0
7439 On ch=1 n=52 v=0
7440 On ch=1 n=62 v=110
7440 On ch=1 n=50 v=110
7559 On ch=1 n=62 v=0
7559 On ch=1 n=50 v=0
7560 On ch=1 n=61 v=110
7560 On ch=1 n=49 v=110
7679 On ch=1 n=61 v=0
7679 On ch=1 n=49 v=0
7680 On ch=1 n=62 v=110
7680 On ch=1 n=50 v=110
7799 On ch=1 n=62 v=0
7799 On ch=1 n=50 v=0
7800 On ch=1 n=52 v=110
7800 On ch=1 n=64 v=110
7919 On ch=1 n=52 v=0
7919 On ch=1 n=64 v=0
7920 On ch=1 n=64 v=110
7920 On ch=1 n=52 v=110
8279 On ch=1 n=64 v=0
8279 On ch=1 n=52 v=0
8280 On ch=1 n=55 v=110
8280 On ch=1 n=43 v=110
8355 On ch=1 n=55 v=0
8355 On ch=1 n=43 v=0
8400 On ch=1 n=57 v=110
8400 On ch=1 n=45 v=110
8475 On ch=1 n=57 v=0
8475 On ch=1 n=45 v=0
8520 On ch=1 n=46 v=110
8520 On ch=1 n=58 v=110
8595 On ch=1 n=46 v=0
8595 On ch=1 n=58 v=0
8640 On ch=1 n=58 v=110
8640 On ch=1 n=46 v=110
8759 On ch=1 n=58 v=0
8759 On ch=1 n=46 v=0
8760 On ch=1 n=40 v=110
8760 On ch=1 n=52 v=110
8879 On ch=1 n=40 v=0
8879 On ch=1 n=52 v=0
8880 On ch=1 n=41 v=110
8880 On ch=1 n=53 v=110
8999 On ch=1 n=41 v=0
8999 On ch=1 n=53 v=0
9000 On ch=1 n=55 v=110
9000 On ch=1 n=43 v=110
9119 On ch=1 n=55 v=0
9119 On ch=1 n=43 v=0
9120 On ch=1 n=49 v=110
9120 On ch=1 n=37 v=110
9195 On ch=1 n=49 v=0
9195 On ch=1 n=37 v=0
9240 On ch=1 n=38 v=110
9240 On ch=1 n=50 v=110
9315 On ch=1 n=38 v=0
9315 On ch=1 n=50 v=0
9360 On ch=1 n=52 v=110
9360 On ch=1 n=40 v=110
9479 On ch=1 n=52 v=0
9479 On ch=1 n=40 v=0
9480 On ch=1 n=31 v=110
9480 On ch=1 n=43 v=110
9599 On ch=1 n=31 v=0
9599 On ch=1 n=43 v=0
9600 On ch=1 n=31 v=110
9600 On ch=1 n=43 v=110
9959 On ch=1 n=31 v=0
9959 On ch=1 n=43 v=0
9960 On ch=1 n=33 v=110
9960 On ch=1 n=45 v=110
10079 On ch=1 n=33 v=0
10079 On ch=1 n=45 v=0
10080 On ch=1 n=46 v=110
10080 On ch=1 n=34 v=110
10319 On ch=1 n=46 v=0
10319 On ch=1 n=34 v=0
10320 On ch=1 n=58 v=127
10320 On ch=1 n=46 v=127
11039 On ch=1 n=58 v=0
11039 On ch=1 n=46 v=0
11040 On ch=1 n=57 v=110
11040 On ch=1 n=45 v=110
11399 On ch=1 n=57 v=0
11399 On ch=1 n=45 v=0
11400 On ch=1 n=40 v=85
11400 On ch=1 n=52 v=85
11519 On ch=1 n=40 v=0
11519 On ch=1 n=52 v=0
11520 On ch=1 n=55 v=77
11520 On ch=1 n=43 v=77
11759 On ch=1 n=55 v=0
11759 On ch=1 n=43 v=0
11760 On ch=1 n=53 v=60
11760 On ch=1 n=41 v=60
11999 On ch=1 n=53 v=0
11999 On ch=1 n=41 v=0
12000 Tempo 208333
12000 On ch=1 n=74 v=127
12000 On ch=1 n=62 v=127
12000 On ch=1 n=38 v=127
12059 On ch=1 n=38 v=0
12060 On ch=1 n=50 v=100
12119 On ch=1 n=50 v=0
12120 On ch=1 n=38 v=100
12179 On ch=1 n=38 v=0
12180 On ch=1 n=50 v=100
12202 Par ch=1 c=64 v=127
12239 On ch=1 n=50 v=0
12240 On ch=1 n=38 v=100
12299 On ch=1 n=38 v=0
12300 On ch=1 n=50 v=100
12359 On ch=1 n=50 v=0
12360 On ch=1 n=38 v=100
12419 On ch=1 n=38 v=0
12420 On ch=1 n=50 v=100
12479 On ch=1 n=50 v=0
12480 On ch=1 n=38 v=100
12539 On ch=1 n=38 v=0
12540 On ch=1 n=50 v=100
12599 On ch=1 n=50 v=0
12600 On ch=1 n=38 v=100
12659 On ch=1 n=38 v=0
12660 On ch=1 n=50 v=100
12719 On ch=1 n=74 v=0
12719 On ch=1 n=62 v=0
12719 On ch=1 n=50 v=0
12720 On ch=1 n=72 v=100
12720 On ch=1 n=81 v=100
12720 On ch=1 n=75 v=100
12720 On ch=1 n=78 v=100
12720 On ch=1 n=87 v=100
12720 On ch=1 n=63 v=100
12720 On ch=1 n=60 v=100
12720 On ch=1 n=69 v=100
12720 On ch=1 n=66 v=100
12959 On ch=1 n=63 v=0
12959 On ch=1 n=60 v=0
12959 On ch=1 n=69 v=0
12959 On ch=1 n=66 v=0
12960 On ch=1 n=30 v=100
12960 On ch=1 n=38 v=100
13019 On ch=1 n=30 v=0
13019 On ch=1 n=38 v=0
13020 On ch=1 n=42 v=100
13079 On ch=1 n=42 v=0
13080 On ch=1 n=38 v=100
13080 On ch=1 n=30 v=100
13139 On ch=1 n=38 v=0
13139 On ch=1 n=30 v=0
13140 On ch=1 n=42 v=100
13199 On ch=1 n=42 v=0
13200 On ch=1 n=38 v=100
13200 On ch=1 n=30 v=100
13259 On ch=1 n=38 v=0
13259 On ch=1 n=30 v=0
13260 On ch=1 n=42 v=100
13319 Par ch=1 c=64 v=0
13319 On ch=1 n=72 v=0
13319 On ch=1 n=81 v=0
13319 On ch=1 n=75 v=0
13319 On ch=1 n=78 v=0
13319 On ch=1 n=87 v=0
13319 On ch=1 n=42 v=0
13320 On ch=1 n=81 v=100
13320 On ch=1 n=38 v=100
13320 On ch=1 n=69 v=100
13320 On ch=1 n=30 v=100
13379 On ch=1 n=81 v=0
13379 On ch=1 n=38 v=0
13379 On ch=1 n=69 v=0
13379 On ch=1 n=30 v=0
13380 On ch=1 n=42 v=100
13439 On ch=1 n=42 v=0
13440 On ch=1 n=38 v=100
13440 On ch=1 n=81 v=127
13440 On ch=1 n=69 v=127
13440 On ch=1 n=30 v=100
13499 On ch=1 n=38 v=0
13499 On ch=1 n=81 v=0
13499 On ch=1 n=69 v=0
13499 On ch=1 n=30 v=0
13500 On ch=1 n=42 v=100
13550 Par ch=1 c=64 v=127
13559 On ch=1 n=42 v=0
13560 On ch=1 n=72 v=100
13560 On ch=1 n=84 v=100
13560 On ch=1 n=38 v=100
13560 On ch=1 n=30 v=100
13619 On ch=1 n=72 v=0
13619 On ch=1 n=84 v=0
13619 On ch=1 n=38 v=0
13619 On ch=1 n=30 v=0
13620 On ch=1 n=42 v=100
13679 On ch=1 n=42 v=0
13680 On ch=1 n=72 v=127
13680 On ch=1 n=38 v=100
13680 On ch=1 n=84 v=127
13680 On ch=1 n=30 v=100
13739 On ch=1 n=72 v=0
13739 On ch=1 n=38 v=0
13739 On ch=1 n=84 v=0
13739 On ch=1 n=30 v=0
13740 On ch=1 n=42 v=100
13799 On ch=1 n=42 v=0
13800 On ch=1 n=38 v=100
13800 On ch=1 n=78 v=100
13800 On ch=1 n=30 v=100
13800 On ch=1 n=90 v=100
13859 On ch=1 n=38 v=0
13859 On ch=1 n=78 v=0
13859 On ch=1 n=30 v=0
13859 On ch=1 n=90 v=0
13860 On ch=1 n=42 v=100
13919 On ch=1 n=42 v=0
13920 On ch=1 n=78 v=127
13920 On ch=1 n=90 v=127
13920 On ch=1 n=38 v=100
13920 On ch=1 n=30 v=100
13979 On ch=1 n=78 v=0
13979 On ch=1 n=90 v=0
13979 On ch=1 n=38 v=0
13979 On ch=1 n=30 v=0
13980 On ch=1 n=42 v=100
14039 On ch=1 n=42 v=0
14040 On ch=1 n=30 v=100
14040 On ch=1 n=38 v=100
14040 On ch=1 n=93 v=100
14040 On ch=1 n=81 v=100
14099 On ch=1 n=30 v=0
14099 On ch=1 n=38 v=0
14099 On ch=1 n=93 v=0
14099 On ch=1 n=81 v=0
14100 On ch=1 n=42 v=100
14159 On ch=1 n=42 v=0
14160 On ch=1 n=93 v=127
14160 On ch=1 n=81 v=127
14160 On ch=1 n=38 v=100
14160 On ch=1 n=30 v=100
14219 On ch=1 n=93 v=0
14219 On ch=1 n=81 v=0
14219 On ch=1 n=38 v=0
14219 On ch=1 n=30 v=0
14220 On ch=1 n=42 v=100
14279 On ch=1 n=42 v=0
14280 On ch=1 n=84 v=127
14280 On ch=1 n=38 v=100
14280 On ch=1 n=72 v=127
14280 On ch=1 n=30 v=100
14339 On ch=1 n=84 v=0
14339 On ch=1 n=38 v=0
14339 On ch=1 n=72 v=0
14339 On ch=1 n=30 v=0
14340 On ch=1 n=42 v=100
14399 On ch=1 n=42 v=0
14400 On ch=1 n=72 v=127
14400 On ch=1 n=38 v=100
14400 On ch=1 n=84 v=127
14400 On ch=1 n=30 v=100
14459 On ch=1 n=72 v=0
14459 On ch=1 n=38 v=0
14459 On ch=1 n=84 v=0
14459 On ch=1 n=30 v=0
14460 On ch=1 n=42 v=100
14519 On ch=1 n=42 v=0
14520 On ch=1 n=26 v=100
14520 On ch=1 n=75 v=100
14520 On ch=1 n=87 v=100
14579 On ch=1 n=26 v=0
14579 On ch=1 n=75 v=0
14579 On ch=1 n=87 v=0
14580 On ch=1 n=38 v=100
14639 On ch=1 n=38 v=0
14640 On ch=1 n=26 v=100
14640 On ch=1 n=75 v=127
14640 On ch=1 n=87 v=127
14699 On ch=1 n=26 v=0
14699 On ch=1 n=75 v=0
14699 On ch=1 n=87 v=0
14700 On ch=1 n=38 v=100
14759 On ch=1 n=38 v=0
14760 On ch=1 n=26 v=100
14760 On ch=1 n=81 v=100
14760 On ch=1 n=69 v=100
14819 On ch=1 n=26 v=0
14819 On ch=1 n=81 v=0
14819 On ch=1 n=69 v=0
14820 On ch=1 n=38 v=100
14879 On ch=1 n=38 v=0
14880 On ch=1 n=26 v=100
14880 On ch=1 n=81 v=127
14880 On ch=1 n=69 v=127
14939 On ch=1 n=26 v=0
14939 On ch=1 n=81 v=0
14939 On ch=1 n=69 v=0
14940 On ch=1 n=38 v=100
14999 On ch=1 n=38 v=0
15000 On ch=1 n=84 v=100
15000 On ch=1 n=26 v=100
15000 On ch=1 n=72 v=100
15059 On ch=1 n=84 v=0
15059 On ch=1 n=26 v=0
15059 On ch=1 n=72 v=0
15060 On ch=1 n=38 v=100
15119 On ch=1 n=38 v=0
15120 On ch=1 n=26 v=100
15120 On ch=1 n=84 v=127
15120 On ch=1 n=72 v=127
15179 On ch=1 n=26 v=0
15179 On ch=1 n=84 v=0
15179 On ch=1 n=72 v=0
15180 On ch=1 n=38 v=100
15239 On ch=1 n=38 v=0
15240 On ch=1 n=26 v=100
15240 On ch=1 n=66 v=100
15240 On ch=1 n=78 v=100
15299 On ch=1 n=26 v=0
15299 On ch=1 n=66 v=0
15299 On ch=1 n=78 v=0
15300 On ch=1 n=38 v=100
15359 On ch=1 n=38 v=0
15360 On ch=1 n=78 v=127
15360 On ch=1 n=26 v=100
15360 On ch=1 n=66 v=127
15419 On ch=1 n=78 v=0
15419 On ch=1 n=26 v=0
15419 On ch=1 n=66 v=0
15420 On ch=1 n=38 v=100
15479 On ch=1 n=38 v=0
15480 On ch=1 n=26 v=100
15480 On ch=1 n=69 v=100
15480 On ch=1 n=83 v=100
15480 On ch=1 n=81 v=100
15539 On ch=1 n=26 v=0
15539 On ch=1 n=69 v=0
15539 On ch=1 n=83 v=0
15539 On ch=1 n=81 v=0
15540 On ch=1 n=38 v=100
15560 Par ch=1 c=64 v=0
15599 On ch=1 n=38 v=0
15600 On ch=1 n=26 v=100
15600 On ch=1 n=81 v=127
15600 On ch=1 n=69 v=127
15659 On ch=1 n=26 v=0
15659 On ch=1 n=81 v=0
15659 On ch=1 n=69 v=0
15660 On ch=1 n=38 v=100
15719 On ch=1 n=38 v=0
15720 On ch=1 n=66 v=127
15720 On ch=1 n=26 v=100
15720 On ch=1 n=60 v=127
15720 On ch=1 n=54 v=127
15779 On ch=1 n=66 v=0
15779 On ch=1 n=26 v=0
15779 On ch=1 n=60 v=0
15779 On ch=1 n=54 v=0
15780 On ch=1 n=38 v=100
15839 On ch=1 n=38 v=0
15840 On ch=1 n=66 v=127
15840 On ch=1 n=54 v=127
15840 On ch=1 n=60 v=127
15840 On ch=1 n=38 v=127
15899 On ch=1 n=66 v=0
15899 On ch=1 n=54 v=0
15899 On ch=1 n=60 v=0
15899 On ch=1 n=38 v=0
15931 Par ch=1 c=64 v=127
15960 On ch=1 n=78 v=100
15960 On ch=1 n=48 v=100
15960 On ch=1 n=81 v=100
15960 On ch=1 n=51 v=100
15960 On ch=1 n=69 v=100
15960 On ch=1 n=60 v=100
16019 On ch=1 n=78 v=0
16019 On ch=1 n=48 v=0
16019 On ch=1 n=81 v=0
16019 On ch=1 n=51 v=0
16019 On ch=1 n=69 v=0
16019 On ch=1 n=60 v=0
16080 On ch=1 n=78 v=127
16080 On ch=1 n=81 v=127
16080 On ch=1 n=69 v=127
16080 On ch=1 n=60 v=127
16080 On ch=1 n=48 v=127
16080 On ch=1 n=51 v=127
16139 On ch=1 n=78 v=0
16139 On ch=1 n=81 v=0
16139 On ch=1 n=69 v=0
16139 On ch=1 n=60 v=0
16139 On ch=1 n=48 v=0
16139 On ch=1 n=51 v=0
16200 On ch=1 n=58 v=100
16200 On ch=1 n=70 v=100
16200 On ch=1 n=82 v=100
16200 On ch=1 n=79 v=100
16200 On ch=1 n=50 v=100
16200 On ch=1 n=46 v=100
16259 On ch=1 n=58 v=0
16259 On ch=1 n=70 v=0
16259 On ch=1 n=82 v=0
16259 On ch=1 n=79 v=0
16259 On ch=1 n=50 v=0
16259 On ch=1 n=46 v=0
16320 On ch=1 n=70 v=127
16320 On ch=1 n=82 v=127
16320 On ch=1 n=58 v=127
16320 On ch=1 n=79 v=127
16320 On ch=1 n=46 v=127
16320 On ch=1 n=50 v=127
16379 On ch=1 n=70 v=0
16379 On ch=1 n=82 v=0
16379 On ch=1 n=58 v=0
16379 On ch=1 n=79 v=0
16379 On ch=1 n=46 v=0
16379 On ch=1 n=50 v=0
16440 On ch=1 n=81 v=100
16440 On ch=1 n=84 v=100
16440 On ch=1 n=72 v=100
16440 On ch=1 n=45 v=100
16440 On ch=1 n=57 v=100
16440 On ch=1 n=48 v=100
16499 On ch=1 n=81 v=0
16499 On ch=1 n=84 v=0
16499 On ch=1 n=72 v=0
16499 On ch=1 n=45 v=0
16499 On ch=1 n=57 v=0
16499 On ch=1 n=48 v=0
16560 On ch=1 n=72 v=127
16560 On ch=1 n=81 v=127
16560 On ch=1 n=57 v=127
16560 On ch=1 n=45 v=127
16560 On ch=1 n=84 v=127
16560 On ch=1 n=48 v=127
16619 On ch=1 n=72 v=0
16619 On ch=1 n=81 v=0
16619 On ch=1 n=57 v=0
16619 On ch=1 n=45 v=0
16619 On ch=1 n=84 v=0
16619 On ch=1 n=48 v=0
16659 Par ch=1 c=64 v=0
16680 On ch=1 n=82 v=100
16680 On ch=1 n=86 v=100
16680 On ch=1 n=74 v=100
16680 On ch=1 n=46 v=100
16680 On ch=1 n=55 v=100
16680 On ch=1 n=43 v=100
16739 On ch=1 n=82 v=0
16739 On ch=1 n=86 v=0
16739 On ch=1 n=74 v=0
16739 On ch=1 n=46 v=0
16739 On ch=1 n=55 v=0
16739 On ch=1 n=43 v=0
16800 On ch=1 n=82 v=127
16800 On ch=1 n=86 v=127
16800 On ch=1 n=74 v=127
16800 On ch=1 n=55 v=127
16800 On ch=1 n=46 v=127
16800 On ch=1 n=43 v=127
16859 On ch=1 n=82 v=0
16859 On ch=1 n=86 v=0
16859 On ch=1 n=74 v=0
16859 On ch=1 n=55 v=0
16859 On ch=1 n=46 v=0
16859 On ch=1 n=43 v=0
16920 On ch=1 n=54 v=100
16920 On ch=1 n=75 v=100
16920 On ch=1 n=42 v=100
16920 On ch=1 n=84 v=100
16920 On ch=1 n=87 v=100
16920 On ch=1 n=81 v=100
16979 On ch=1 n=54 v=0
16979 On ch=1 n=75 v=0
16979 On ch=1 n=42 v=0
16979 On ch=1 n=84 v=0
16979 On ch=1 n=87 v=0
16979 On ch=1 n=81 v=0
17040 On ch=1 n=54 v=127
17040 On ch=1 n=42 v=127
17040 On ch=1 n=75 v=127
17040 On ch=1 n=87 v=127
17040 On ch=1 n=84 v=127
17040 On ch=1 n=81 v=127
17099 On ch=1 n=54 v=0
17099 On ch=1 n=42 v=0
17099 On ch=1 n=75 v=0
17099 On ch=1 n=87 v=0
17099 On ch=1 n=84 v=0
17099 On ch=1 n=81 v=0
17160 On ch=1 n=75 v=100
17160 On ch=1 n=87 v=100
17160 On ch=1 n=42 v=100
17160 On ch=1 n=81 v=100
17160 On ch=1 n=84 v=100
17160 On ch=1 n=30 v=100
17219 On ch=1 n=75 v=0
17219 On ch=1 n=87 v=0
17219 On ch=1 n=42 v=0
17219 On ch=1 n=81 v=0
17219 On ch=1 n=84 v=0
17219 On ch=1 n=30 v=0
17280 On ch=1 n=75 v=127
17280 On ch=1 n=42 v=127
17280 On ch=1 n=87 v=127
17280 On ch=1 n=84 v=127
17280 On ch=1 n=81 v=127
17280 On ch=1 n=30 v=127
17339 On ch=1 n=75 v=0
17339 On ch=1 n=42 v=0
17339 On ch=1 n=87 v=0
17339 On ch=1 n=84 v=0
17339 On ch=1 n=30 v=0
17400 On ch=1 n=54 v=100
17400 On ch=1 n=42 v=100
17459 On ch=1 n=54 v=0
17459 On ch=1 n=42 v=0
17520 On ch=1 n=45 v=100
17520 On ch=1 n=57 v=100
17579 On ch=1 n=45 v=0
17579 On ch=1 n=57 v=0
17880 On ch=1 n=75 v=100
17880 On ch=1 n=87 v=100
17880 On ch=1 n=81 v=100
17880 On ch=1 n=84 v=100
17880 On ch=1 n=41 v=100
17880 On ch=1 n=53 v=100
17939 On ch=1 n=75 v=0
17939 On ch=1 n=87 v=0
17939 On ch=1 n=81 v=0
17939 On ch=1 n=84 v=0
17939 On ch=1 n=41 v=0
17939 On ch=1 n=53 v=0
18000 On ch=1 n=75 v=100
18000 On ch=1 n=87 v=100
18000 On ch=1 n=84 v=100
18000 On ch=1 n=81 v=100
18000 On ch=1 n=29 v=100
18000 On ch=1 n=41 v=100
18039 On ch=1 n=81 v=0
18059 On ch=1 n=75 v=0
18059 On ch=1 n=87 v=0
18059 On ch=1 n=84 v=0
18059 On ch=1 n=81 v=0
18059 On ch=1 n=29 v=0
18059 On ch=1 n=41 v=0
18360 Tempo 625000
18360 On ch=1 n=53 v=100
18360 On ch=1 n=41 v=100
18479 On ch=1 n=53 v=0
18479 On ch=1 n=41 v=0
18480 On ch=1 n=60 v=100
18480 On ch=1 n=48 v=100
18599 On ch=1 n=60 v=0
18599 On ch=1 n=48 v=0
18600 On ch=1 n=60 v=100
18600 On ch=1 n=48 v=100
18719 On ch=1 n=60 v=0
18719 On ch=1 n=48 v=0
18720 On ch=1 n=63 v=100
18720 On ch=1 n=51 v=100
19070 On ch=1 n=63 v=0
19070 On ch=1 n=51 v=0
19080 On ch=1 n=51 v=100
19080 On ch=1 n=63 v=100
19199 On ch=1 n=51 v=0
19199 On ch=1 n=63 v=0
19200 On ch=1 n=60 v=100
19200 On ch=1 n=48 v=100
19319 On ch=1 n=60 v=0
19319 On ch=1 n=48 v=0
19320 On ch=1 n=46 v=100
19320 On ch=1 n=58 v=100
19439 On ch=1 n=46 v=0
19439 On ch=1 n=58 v=0
19440 On ch=1 n=46 v=100
19440 On ch=1 n=58 v=100
19559 On ch=1 n=46 v=0
19559 On ch=1 n=58 v=0
19560 On ch=1 n=45 v=100
19560 On ch=1 n=57 v=100
19679 On ch=1 n=45 v=0
19679 On ch=1 n=57 v=0
19680 On ch=1 n=45 v=100
19680 On ch=1 n=57 v=100
19799 On ch=1 n=45 v=0
19799 On ch=1 n=57 v=0
19800 On ch=1 n=45 v=100
19800 On ch=1 n=57 v=100
19919 On ch=1 n=45 v=0
19919 On ch=1 n=57 v=0
19920 On ch=1 n=58 v=100
19920 On ch=1 n=46 v=100
20039 On ch=1 n=58 v=0
20039 On ch=1 n=46 v=0
20040 On ch=1 n=60 v=100
20040 On ch=1 n=48 v=100
20159 On ch=1 n=60 v=0
20159 On ch=1 n=48 v=0
20160 On ch=1 n=60 v=100
20160 On ch=1 n=48 v=100
20279 On ch=1 n=60 v=0
20279 On ch=1 n=48 v=0
20280 On ch=1 n=41 v=100
20280 On ch=1 n=53 v=100
20399 On ch=1 n=41 v=0
20399 On ch=1 n=53 v=0
20520 On ch=1 n=51 v=100
20520 On ch=1 n=39 v=100
20639 On ch=1 n=51 v=0
20639 On ch=1 n=39 v=0
20640 On ch=1 n=51 v=100
20640 On ch=1 n=39 v=100
20759 On ch=1 n=51 v=0
20759 On ch=1 n=39 v=0
20760 On ch=1 n=50 v=100
20760 On ch=1 n=38 v=100
20879 On ch=1 n=50 v=0
20879 On ch=1 n=38 v=0
20880 On ch=1 n=36 v=100
20880 On ch=1 n=48 v=100
20999 On ch=1 n=36 v=0
20999 On ch=1 n=48 v=0
21000 On ch=1 n=46 v=100
21000 On ch=1 n=34 v=100
21119 On ch=1 n=46 v=0
21119 On ch=1 n=34 v=0
21120 On ch=1 n=46 v=100
21120 On ch=1 n=53 v=100
21120 On ch=1 n=86 v=100
21120 On ch=1 n=89 v=100
21120 On ch=1 n=77 v=100
21120 On ch=1 n=62 v=100
21239 On ch=1 n=46 v=0
21239 On ch=1 n=53 v=0
21239 On ch=1 n=86 v=0
21239 On ch=1 n=89 v=0
21239 On ch=1 n=77 v=0
21239 On ch=1 n=62 v=0
21360 On ch=1 n=46 v=100
21360 On ch=1 n=55 v=100
21360 On ch=1 n=86 v=100
21360 On ch=1 n=91 v=100
21360 On ch=1 n=79 v=100
21360 On ch=1 n=60 v=100
21479 On ch=1 n=46 v=0
21479 On ch=1 n=55 v=0
21479 On ch=1 n=86 v=0
21479 On ch=1 n=91 v=0
21479 On ch=1 n=79 v=0
21479 On ch=1 n=60 v=0
21600 TimeSig 2/4 24 8
21600 Tempo 789473
21600 On ch=1 n=37 v=80
21600 On ch=1 n=81 v=40
21600 On ch=1 n=88 v=40
21600 On ch=1 n=93 v=40
21640 On ch=1 n=52 v=40
21679 On ch=1 n=52 v=0
21680 On ch=1 n=45 v=40
21681 Par ch=1 c=64 v=127
21719 On ch=1 n=45 v=0
21720 On ch=1 n=52 v=40
21759 On ch=1 n=52 v=0
21760 On ch=1 n=45 v=40
21799 On ch=1 n=45 v=0
21800 On ch=1 n=52 v=40
21839 On ch=1 n=52 v=0
21840 On ch=1 n=45 v=40
21879 On ch=1 n=45 v=0
21880 On ch=1 n=52 v=40
21919 On ch=1 n=52 v=0
21920 On ch=1 n=45 v=40
21959 On ch=1 n=45 v=0
21960 On ch=1 n=52 v=40
21999 On ch=1 n=52 v=0
22000 On ch=1 n=45 v=40
22039 On ch=1 n=45 v=0
22040 On ch=1 n=52 v=40
22079 On ch=1 n=52 v=0
22080 On ch=1 n=45 v=40
22119 On ch=1 n=45 v=0
22120 On ch=1 n=52 v=40
22159 On ch=1 n=52 v=0
22160 On ch=1 n=45 v=40
22199 On ch=1 n=45 v=0
22200 On ch=1 n=52 v=40
22239 On ch=1 n=52 v=0
22240 On ch=1 n=45 v=40
22260 On ch=1 n=81 v=0
22260 On ch=1 n=88 v=0
22260 On ch=1 n=93 v=0
22279 On ch=1 n=45 v=0
22280 On ch=1 n=52 v=40
22319 On ch=1 n=52 v=0
22320 On ch=1 n=45 v=40
22359 On ch=1 n=45 v=0
22360 On ch=1 n=52 v=40
22399 On ch=1 n=52 v=0
22400 On ch=1 n=45 v=40
22439 On ch=1 n=45 v=0
22440 On ch=1 n=52 v=40
22479 On ch=1 n=52 v=0
22480 On ch=1 n=45 v=40
22519 On ch=1 n=45 v=0
22520 On ch=1 n=52 v=40
22530 On ch=1 n=76 v=40
22559 On ch=1 n=52 v=0
22559 On ch=1 n=76 v=0
22560 On ch=1 n=45 v=40
22560 On ch=1 n=69 v=40
22589 On ch=1 n=45 v=0
22600 On ch=1 n=52 v=40
22639 On ch=1 n=52 v=0
22640 On ch=1 n=45 v=40
22679 On ch=1 n=45 v=0
22680 On ch=1 n=52 v=40
22719 On ch=1 n=52 v=0
22720 On ch=1 n=45 v=40
22759 On ch=1 n=45 v=0
22760 On ch=1 n=52 v=40
22799 On ch=1 n=52 v=0
22799 On ch=1 n=69 v=0
22800 On ch=1 n=45 v=40
22839 On ch=1 n=45 v=0
22840 On ch=1 n=52 v=40
22879 On ch=1 n=52 v=0
22880 On ch=1 n=45 v=40
22919 On ch=1 n=45 v=0
22920 On ch=1 n=52 v=40
22959 On ch=1 n=52 v=0
22960 On ch=1 n=45 v=40
22999 On ch=1 n=45 v=0
23000 On ch=1 n=52 v=40
23010 On ch=1 n=69 v=40
23039 On ch=1 n=52 v=0
23039 On ch=1 n=69 v=0
23040 On ch=1 n=45 v=40
23040 On ch=1 n=64 v=40
23079 On ch=1 n=45 v=0
23080 On ch=1 n=52 v=40
23119 On ch=1 n=52 v=0
23120 On ch=1 n=45 v=40
23159 On ch=1 n=45 v=0
23160 On ch=1 n=52 v=40
23199 On ch=1 n=52 v=0
23200 On ch=1 n=45 v=40
23239 On ch=1 n=45 v=0
23240 On ch=1 n=52 v=40
23279 On ch=1 n=52 v=0
23279 On ch=1 n=64 v=0
23280 On ch=1 n=45 v=40
23319 On ch=1 n=45 v=0
23320 On ch=1 n=52 v=40
23359 On ch=1 n=52 v=0
23360 On ch=1 n=45 v=40
23399 On ch=1 n=45 v=0
23400 On ch=1 n=52 v=40
23439 On ch=1 n=52 v=0
23440 On ch=1 n=45 v=40
23440 Off ch=1 n=37 v=0
23479 On ch=1 n=45 v=0
23480 On ch=1 n=52 v=40
23490 On ch=1 n=64 v=40
23519 On ch=1 n=52 v=0
23519 On ch=1 n=64 v=0
23520 On ch=1 n=37 v=60
23520 On ch=1 n=45 v=40
23520 On ch=1 n=57 v=40
23559 On ch=1 n=45 v=0
23560 On ch=1 n=52 v=40
23599 On ch=1 n=52 v=0
23600 On ch=1 n=45 v=40
23639 On ch=1 n=45 v=0
23640 On ch=1 n=52 v=40
23679 On ch=1 n=52 v=0
23680 On ch=1 n=45 v=40
23719 On ch=1 n=45 v=0
23720 On ch=1 n=52 v=40
23759 On ch=1 n=52 v=0
23759 On ch=1 n=57 v=0
23760 On ch=1 n=45 v=40
23799 On ch=1 n=45 v=0
23800 On ch=1 n=52 v=40
23839 On ch=1 n=52 v=0
23840 On ch=1 n=45 v=40
23879 On ch=1 n=45 v=0
23880 On ch=1 n=52 v=40
23919 On ch=1 n=52 v=0
23920 On ch=1 n=45 v=40
23959 On ch=1 n=45 v=0
23960 On ch=1 n=52 v=40
23999 On ch=1 n=52 v=0
24000 On ch=1 n=45 v=40
24039 On ch=1 n=45 v=0
24040 On ch=1 n=52 v=40
24079 On ch=1 n=52 v=0
24080 On ch=1 n=45 v=40
24119 On ch=1 n=45 v=0
24120 On ch=1 n=52 v=40
24159 On ch=1 n=52 v=0
24160 On ch=1 n=45 v=40
24199 On ch=1 n=45 v=0
24200 On ch=1 n=52 v=40
24239 On ch=1 n=52 v=0
24240 On ch=1 n=45 v=40
24279 On ch=1 n=45 v=0
24280 On ch=1 n=52 v=40
24319 On ch=1 n=52 v=0
24320 On ch=1 n=45 v=40
24359 On ch=1 n=45 v=0
24360 On ch=1 n=52 v=40
24399 On ch=1 n=52 v=0
24400 On ch=1 n=45 v=40
24439 On ch=1 n=45 v=0
24440 On ch=1 n=52 v=40
24450 On ch=1 n=81 v=40
24479 On ch=1 n=52 v=0
24479 On ch=1 n=81 v=0
24480 On ch=1 n=45 v=40
24480 On ch=1 n=76 v=40
24519 On ch=1 n=45 v=0
24520 On ch=1 n=52 v=40
24559 On ch=1 n=52 v=0
24560 On ch=1 n=45 v=40
24599 On ch=1 n=45 v=0
24600 On ch=1 n=52 v=40
24639 On ch=1 n=52 v=0
24640 On ch=1 n=45 v=40
24679 On ch=1 n=45 v=0
24680 On ch=1 n=52 v=40
24719 On ch=1 n=52 v=0
24719 On ch=1 n=76 v=0
24720 On ch=1 n=45 v=40
24759 On ch=1 n=45 v=0
24760 On ch=1 n=52 v=40
24799 On ch=1 n=52 v=0
24800 On ch=1 n=45 v=40
24839 On ch=1 n=45 v=0
24840 On ch=1 n=52 v=40
24879 On ch=1 n=52 v=0
24880 On ch=1 n=45 v=40
24919 On ch=1 n=45 v=0
24920 On ch=1 n=52 v=40
24930 On ch=1 n=76 v=40
24959 On ch=1 n=52 v=0
24959 On ch=1 n=76 v=0
24960 On ch=1 n=45 v=40
24960 On ch=1 n=69 v=40
25000 On ch=1 n=52 v=40
25039 On ch=1 n=52 v=0
25040 On ch=1 n=45 v=40
25048 On ch=1 n=45 v=0
25059 On ch=1 n=45 v=0
25080 On ch=1 n=52 v=40
25119 On ch=1 n=52 v=0
25120 On ch=1 n=45 v=40
25159 On ch=1 n=45 v=0
25160 On ch=1 n=52 v=40
25199 On ch=1 n=52 v=0
25199 On ch=1 n=69 v=0
25200 On ch=1 n=45 v=40
25239 On ch=1 n=45 v=0
25240 On ch=1 n=52 v=40
25279 On ch=1 n=52 v=0
25280 On ch=1 n=45 v=40
25319 On ch=1 n=45 v=0
25320 On ch=1 n=52 v=40
25322 Par ch=1 c=64 v=0
25359 On ch=1 n=52 v=0
25360 On ch=1 n=45 v=40
25399 On ch=1 n=45 v=0
25400 Off ch=1 n=37 v=11
25410 On ch=1 n=69 v=127
25410 On ch=1 n=57 v=127
25410 On ch=1 n=45 v=127
25439 On ch=1 n=69 v=0
25439 On ch=1 n=57 v=0
25439 On ch=1 n=45 v=0
25440 TimeSig 3/4 24 8
25440 On ch=1 n=63 v=127
25440 On ch=1 n=57 v=127
25440 On ch=1 n=69 v=127
25440 On ch=1 n=60 v=127
25440 On ch=1 n=54 v=127
25440 On ch=1 n=42 v=127
25479 On ch=1 n=63 v=0
25479 On ch=1 n=57 v=0
25479 On ch=1 n=69 v=0
25479 On ch=1 n=60 v=0
25479 On ch=1 n=54 v=0
25479 On ch=1 n=42 v=0
25560 On ch=1 n=42 v=127
25560 On ch=1 n=54 v=127
25599 On ch=1 n=42 v=0
25599 On ch=1 n=54 v=0
25680 On ch=1 n=63 v=127
25680 On ch=1 n=51 v=127
25711 Par ch=1 c=64 v=127
26519 On ch=1 n=63 v=0
26519 On ch=1 n=51 v=0
26520 On ch=1 n=63 v=127
26520 On ch=1 n=51 v=127
26591 Par ch=1 c=64 v=0
26637 On ch=1 n=63 v=0
26637 On ch=1 n=51 v=0
26640 On ch=1 n=63 v=127
26640 On ch=1 n=51 v=127
26757 On ch=1 n=63 v=0
26757 On ch=1 n=51 v=0
26760 On ch=1 n=48 v=127
26760 On ch=1 n=60 v=127
26877 On ch=1 n=48 v=0
26877 On ch=1 n=60 v=0
26880 Tempo 714285
26880 On ch=1 n=58 v=127
26880 On ch=1 n=46 v=127
26997 On ch=1 n=58 v=0
26997 On ch=1 n=46 v=0
27000 Tempo 652173
27000 On ch=1 n=45 v=127
27000 On ch=1 n=57 v=127
27117 On ch=1 n=45 v=0
27117 On ch=1 n=57 v=0
27120 Tempo 600000
27120 On ch=1 n=48 v=127
27120 On ch=1 n=60 v=127
27237 On ch=1 n=48 v=0
27237 On ch=1 n=60 v=0
27240 Tempo 555555
27240 On ch=1 n=54 v=127
27240 On ch=1 n=42 v=127
27357 On ch=1 n=54 v=0
27357 On ch=1 n=42 v=0
27360 On ch=1 n=43 v=127
27360 On ch=1 n=55 v=127
27477 On ch=1 n=43 v=0
27477 On ch=1 n=55 v=0
27480 On ch=1 n=45 v=127
27480 On ch=1 n=57 v=127
27597 On ch=1 n=45 v=0
27597 On ch=1 n=57 v=0
27600 On ch=1 n=45 v=127
27600 On ch=1 n=57 v=127
27717 On ch=1 n=45 v=0
27717 On ch=1 n=57 v=0
27720 On ch=1 n=36 v=127
27720 On ch=1 n=48 v=127
27837 On ch=1 n=36 v=0
27837 On ch=1 n=48 v=0
27840 On ch=1 n=38 v=127
27840 On ch=1 n=50 v=127
27957 On ch=1 n=38 v=0
27957 On ch=1 n=50 v=0
27960 Tempo 600000
27960 On ch=1 n=39 v=127
27960 On ch=1 n=51 v=127
28199 On ch=1 n=39 v=0
28199 On ch=1 n=51 v=0
28200 Tempo 652173
28200 On ch=1 n=38 v=127
28200 On ch=1 n=50 v=127
28317 On ch=1 n=38 v=0
28317 On ch=1 n=50 v=0
28320 Tempo 697674
28320 On ch=1 n=38 v=127
28320 On ch=1 n=50 v=127
28679 On ch=1 n=38 v=0
28679 On ch=1 n=50 v=0
28680 On ch=1 n=36 v=127
28680 On ch=1 n=48 v=127
28790 On ch=1 n=36 v=0
28790 On ch=1 n=48 v=0
28800 On ch=1 n=48 v=127
28800 On ch=1 n=36 v=127
28917 On ch=1 n=48 v=0
28917 On ch=1 n=36 v=0
28920 On ch=1 n=35 v=127
28920 On ch=1 n=47 v=127
29037 On ch=1 n=35 v=0
29037 On ch=1 n=47 v=0
29040 On ch=1 n=35 v=127
29040 On ch=1 n=47 v=127
29157 On ch=1 n=35 v=0
29157 On ch=1 n=47 v=0
29160 On ch=1 n=41 v=127
29160 On ch=1 n=53 v=127
29277 On ch=1 n=41 v=0
29277 On ch=1 n=53 v=0
29280 On ch=1 n=53 v=127
29280 On ch=1 n=41 v=127
29397 On ch=1 n=53 v=0
29397 On ch=1 n=41 v=0
29400 On ch=1 n=40 v=127
29400 On ch=1 n=52 v=127
29639 On ch=1 n=40 v=0
29639 On ch=1 n=52 v=0
29640 On ch=1 n=38 v=127
29640 On ch=1 n=50 v=127
29757 On ch=1 n=38 v=0
29757 On ch=1 n=50 v=0
29760 On ch=1 n=38 v=127
29760 On ch=1 n=50 v=127
29877 On ch=1 n=38 v=0
29877 On ch=1 n=50 v=0
29880 On ch=1 n=47 v=123
29880 On ch=1 n=59 v=123
29997 On ch=1 n=47 v=0
29997 On ch=1 n=59 v=0
30000 On ch=1 n=59 v=119
30000 On ch=1 n=47 v=119
30117 On ch=1 n=59 v=0
30117 On ch=1 n=47 v=0
30120 On ch=1 n=59 v=114
30120 On ch=1 n=47 v=114
30237 On ch=1 n=59 v=0
30237 On ch=1 n=47 v=0
30240 On ch=1 n=47 v=110
30240 On ch=1 n=59 v=110
30357 On ch=1 n=47 v=0
30357 On ch=1 n=59 v=0
30360 On ch=1 n=60 v=105
30360 On ch=1 n=48 v=105
30477 On ch=1 n=60 v=0
30477 On ch=1 n=48 v=0
30480 On ch=1 n=50 v=101
30480 On ch=1 n=62 v=101
31199 On ch=1 n=50 v=0
31199 On ch=1 n=62 v=0
31200 On ch=1 n=60 v=75
31200 On ch=1 n=48 v=75
31679 On ch=1 n=60 v=0
31679 On ch=1 n=48 v=0
31680 On ch=1 n=59 v=57
31680 On ch=1 n=47 v=57
31919 On ch=1 n=59 v=0
31919 On ch=1 n=47 v=0
31920 On ch=1 n=62 v=48
31920 On ch=1 n=50 v=48
32159 On ch=1 n=62 v=0
32159 On ch=1 n=50 v=0
32160 On ch=1 n=60 v=39
32160 On ch=1 n=48 v=39
32639 On ch=1 n=60 v=0
32639 On ch=1 n=48 v=0
33360 TimeSig 3/4 24 8
33360 Tempo 208333
33360 On ch=1 n=56 v=60
33360 On ch=1 n=88 v=60
33360 On ch=1 n=76 v=60
33360 On ch=1 n=59 v=60
33479 On ch=1 n=56 v=0
33479 On ch=1 n=88 v=0
33479 On ch=1 n=76 v=0
33479 On ch=1 n=59 v=0
33600 On ch=1 n=57 v=60
33600 On ch=1 n=60 v=60
33719 On ch=1 n=57 v=0
33719 On ch=1 n=60 v=0
33720 On ch=1 n=64 v=60
33720 On ch=1 n=76 v=60
33839 On ch=1 n=64 v=0
33839 On ch=1 n=76 v=0
33840 On ch=1 n=76 v=60
33840 On ch=1 n=62 v=60
33840 On ch=1 n=64 v=60
33840 On ch=1 n=59 v=60
33959 On ch=1 n=76 v=0
33959 On ch=1 n=62 v=0
33959 On ch=1 n=64 v=0
33959 On ch=1 n=59 v=0
34080 On ch=1 n=81 v=60
34080 On ch=1 n=69 v=60
34080 On ch=1 n=64 v=60
34080 On ch=1 n=60 v=60
34199 On ch=1 n=81 v=0
34199 On ch=1 n=69 v=0
34199 On ch=1 n=64 v=0
34199 On ch=1 n=60 v=0
34320 On ch=1 n=71 v=60
34320 On ch=1 n=83 v=60
34320 On ch=1 n=62 v=60
34320 On ch=1 n=59 v=60
34439 On ch=1 n=71 v=0
34439 On ch=1 n=83 v=0
34439 On ch=1 n=62 v=0
34439 On ch=1 n=59 v=0
34560 On ch=1 n=84 v=60
34560 On ch=1 n=60 v=60
34560 On ch=1 n=72 v=60
34560 On ch=1 n=57 v=60
34679 On ch=1 n=84 v=0
34679 On ch=1 n=60 v=0
34679 On ch=1 n=72 v=0
34679 On ch=1 n=57 v=0
34800 On ch=1 n=80 v=60
34800 On ch=1 n=64 v=60
34800 On ch=1 n=76 v=60
34800 On ch=1 n=83 v=60
34800 On ch=1 n=74 v=60
34919 On ch=1 n=80 v=0
34919 On ch=1 n=64 v=0
34919 On ch=1 n=76 v=0
34919 On ch=1 n=83 v=0
34919 On ch=1 n=74 v=0
35040 On ch=1 n=84 v=60
35040 On ch=1 n=81 v=60
35159 On ch=1 n=84 v=0
35159 On ch=1 n=81 v=0
35160 On ch=1 n=64 v=60
35277 On ch=1 n=64 v=0
35280 On ch=1 n=86 v=60
35280 On ch=1 n=83 v=60
35280 On ch=1 n=64 v=60
35399 On ch=1 n=86 v=0
35399 On ch=1 n=83 v=0
35399 On ch=1 n=64 v=0
35520 On ch=1 n=69 v=60
35520 On ch=1 n=81 v=60
35520 On ch=1 n=84 v=60
35639 On ch=1 n=69 v=0
35639 On ch=1 n=81 v=0
35639 On ch=1 n=84 v=0
35760 On ch=1 n=80 v=60
35760 On ch=1 n=83 v=60
35760 On ch=1 n=71 v=60
35879 On ch=1 n=80 v=0
35879 On ch=1 n=83 v=0
35879 On ch=1 n=71 v=0
36000 On ch=1 n=81 v=60
36000 On ch=1 n=72 v=60
36119 On ch=1 n=81 v=0
36119 On ch=1 n=72 v=0
36240 On ch=1 n=82 v=60
36240 On ch=1 n=79 v=60
36240 On ch=1 n=70 v=60
36240 On ch=1 n=60 v=60
36359 On ch=1 n=82 v=0
36359 On ch=1 n=79 v=0
36359 On ch=1 n=70 v=0
36359 On ch=1 n=60 v=0
36480 On ch=1 n=77 v=60
36480 On ch=1 n=81 v=60
36480 On ch=1 n=69 v=60
36599 On ch=1 n=77 v=0
36599 On ch=1 n=81 v=0
36599 On ch=1 n=69 v=0
36600 On ch=1 n=48 v=60
36719 On ch=1 n=48 v=0
36720 On ch=1 n=67 v=60
36720 On ch=1 n=76 v=60
36720 On ch=1 n=48 v=60
36720 On ch=1 n=79 v=60
36839 On ch=1 n=67 v=0
36839 On ch=1 n=76 v=0
36839 On ch=1 n=48 v=0
36839 On ch=1 n=79 v=0
36960 On ch=1 n=77 v=60
36960 On ch=1 n=53 v=60
36960 On ch=1 n=81 v=60
36960 On ch=1 n=69 v=60
37079 On ch=1 n=77 v=0
37079 On ch=1 n=53 v=0
37079 On ch=1 n=81 v=0
37079 On ch=1 n=69 v=0
37200 On ch=1 n=82 v=60
37200 On ch=1 n=70 v=60
37200 On ch=1 n=55 v=60
37319 On ch=1 n=82 v=0
37319 On ch=1 n=70 v=0
37319 On ch=1 n=55 v=0
37440 On ch=1 n=57 v=60
37440 On ch=1 n=72 v=60
37440 On ch=1 n=84 v=60
37559 On ch=1 n=57 v=0
37559 On ch=1 n=72 v=0
37559 On ch=1 n=84 v=0
37680 On ch=1 n=84 v=60
37680 On ch=1 n=76 v=60
37680 On ch=1 n=88 v=60
37680 On ch=1 n=55 v=60
37680 On ch=1 n=48 v=60
37799 On ch=1 n=84 v=0
37799 On ch=1 n=76 v=0
37799 On ch=1 n=88 v=0
37799 On ch=1 n=55 v=0
37799 On ch=1 n=48 v=0
37920 On ch=1 n=57 v=60
37920 On ch=1 n=77 v=60
37920 On ch=1 n=89 v=60
38039 On ch=1 n=57 v=0
38039 On ch=1 n=77 v=0
38039 On ch=1 n=89 v=0
38160 On ch=1 n=58 v=60
38160 On ch=1 n=91 v=60
38160 On ch=1 n=79 v=60
38160 On ch=1 n=58 v=60
38279 On ch=1 n=58 v=0
38279 On ch=1 n=91 v=0
38279 On ch=1 n=79 v=0
38279 On ch=1 n=58 v=0
38400 TimeSig 4/4 24 8
38400 On ch=1 n=41 v=60
38400 On ch=1 n=89 v=60
38400 On ch=1 n=77 v=60
38400 On ch=1 n=84 v=60
38400 On ch=1 n=57 v=60
38519 On ch=1 n=41 v=0
38519 On ch=1 n=89 v=0
38519 On ch=1 n=77 v=0
38519 On ch=1 n=84 v=0
38519 On ch=1 n=57 v=0
38640 On ch=1 n=91 v=60
38640 On ch=1 n=55 v=60
38640 On ch=1 n=79 v=60
38759 On ch=1 n=91 v=0
38759 On ch=1 n=55 v=0
38759 On ch=1 n=79 v=0
38880 On ch=1 n=93 v=60
38880 On ch=1 n=81 v=60
38880 On ch=1 n=53 v=60
38999 On ch=1 n=93 v=0
38999 On ch=1 n=81 v=0
38999 On ch=1 n=53 v=0
39360 TimeSig 3/4 24 8
39360 Tempo 750000
39360 On ch=1 n=65 v=100
39360 On ch=1 n=53 v=100
39479 On ch=1 n=65 v=0
39479 On ch=1 n=53 v=0
39600 On ch=1 n=60 v=100
39600 On ch=1 n=48 v=100
39719 On ch=1 n=60 v=0
39719 On ch=1 n=48 v=0
40320 On ch=1 n=48 v=100
40320 On ch=1 n=60 v=100
40558 On ch=1 n=48 v=0
40558 On ch=1 n=60 v=0
40560 On ch=1 n=46 v=100
40560 On ch=1 n=58 v=100
40678 On ch=1 n=46 v=0
40678 On ch=1 n=58 v=0
40680 On ch=1 n=48 v=100
40680 On ch=1 n=60 v=100
40798 On ch=1 n=48 v=0
40798 On ch=1 n=60 v=0
40800 On ch=1 n=58 v=100
40800 On ch=1 n=46 v=100
40918 On ch=1 n=58 v=0
40918 On ch=1 n=46 v=0
40920 On ch=1 n=57 v=100
40920 On ch=1 n=45 v=100
41038 On ch=1 n=57 v=0
41038 On ch=1 n=45 v=0
41040 On ch=1 n=45 v=100
41040 On ch=1 n=57 v=100
41135 On ch=1 n=45 v=0
41135 On ch=1 n=57 v=0
41280 On ch=1 n=53 v=100
41280 On ch=1 n=41 v=100
41878 On ch=1 n=53 v=0
41878 On ch=1 n=41 v=0
41880 On ch=1 n=53 v=100
41880 On ch=1 n=41 v=100
41998 On ch=1 n=53 v=0
41998 On ch=1 n=41 v=0
42000 On ch=1 n=41 v=100
42000 On ch=1 n=53 v=100
42118 On ch=1 n=41 v=0
42118 On ch=1 n=53 v=0
42120 On ch=1 n=43 v=100
42120 On ch=1 n=55 v=100
42238 On ch=1 n=43 v=0
42238 On ch=1 n=55 v=0
42240 On ch=1 n=46 v=100
42240 On ch=1 n=58 v=100
42358 On ch=1 n=46 v=0
42358 On ch=1 n=58 v=0
42360 On ch=1 n=57 v=100
42360 On ch=1 n=45 v=100
42478 On ch=1 n=57 v=0
42478 On ch=1 n=45 v=0
42600 On ch=1 n=45 v=100
42600 On ch=1 n=57 v=100
42718 On ch=1 n=45 v=0
42718 On ch=1 n=57 v=0
42720 On ch=1 n=45 v=100
42720 On ch=1 n=57 v=100
42838 On ch=1 n=45 v=0
42838 On ch=1 n=57 v=0
42840 Tempo 789473
42840 On ch=1 n=46 v=100
42840 On ch=1 n=58 v=100
42958 On ch=1 n=46 v=0
42958 On ch=1 n=58 v=0
42960 Tempo 833333
42960 On ch=1 n=50 v=100
42960 On ch=1 n=62 v=100
43069 On ch=1 n=50 v=0
43069 On ch=1 n=62 v=0
43080 Tempo 882352
43080 On ch=1 n=60 v=92
43080 On ch=1 n=48 v=92
43189 On ch=1 n=60 v=0
43189 On ch=1 n=48 v=0
43200 Tempo 937500
43200 On ch=1 n=48 v=84
43200 On ch=1 n=60 v=84
43309 On ch=1 n=48 v=0
43309 On ch=1 n=60 v=0
43320 Tempo 937500
43320 On ch=1 n=48 v=75
43320 On ch=1 n=60 v=75
43429 On ch=1 n=48 v=0
43429 On ch=1 n=60 v=0
43440 On ch=1 n=48 v=67
43440 On ch=1 n=60 v=67
43549 On ch=1 n=48 v=0
43549 On ch=1 n=60 v=0
43560 On ch=1 n=50 v=59
43560 On ch=1 n=62 v=59
43669 On ch=1 n=50 v=0
43669 On ch=1 n=62 v=0
43680 On ch=1 n=63 v=50
43680 On ch=1 n=51 v=50
43920 On ch=1 n=63 v=0
43920 On ch=1 n=51 v=0
44400 TimeSig 4/4 24 8
44400 Tempo 1000000
44400 On ch=1 n=46 v=75
44400 On ch=1 n=86 v=75
44400 On ch=1 n=62 v=75
44400 On ch=1 n=74 v=75
44400 On ch=1 n=53 v=75
44504 Par ch=1 c=64 v=127
44638 On ch=1 n=53 v=0
44640 On ch=1 n=65 v=75
44841 Par ch=1 c=64 v=0
44878 On ch=1 n=46 v=0
44878 On ch=1 n=86 v=0
44878 On ch=1 n=62 v=0
44878 On ch=1 n=74 v=0
44880 On ch=1 n=81 v=75
44880 On ch=1 n=69 v=75
44880 On ch=1 n=51 v=75
44880 On ch=1 n=60 v=75
44928 Par ch=1 c=64 v=127
45110 On ch=1 n=65 v=0
45120 On ch=1 n=65 v=75
45277 Par ch=1 c=64 v=0
45358 On ch=1 n=81 v=0
45358 On ch=1 n=69 v=0
45358 On ch=1 n=51 v=0
45358 On ch=1 n=60 v=0
45360 On ch=1 n=82 v=75
45360 On ch=1 n=58 v=75
45360 On ch=1 n=70 v=75
45360 On ch=1 n=50 v=75
45407 Par ch=1 c=64 v=127
45590 On ch=1 n=65 v=0
45600 On ch=1 n=65 v=75
45754 Par ch=1 c=64 v=0
45838 On ch=1 n=82 v=0
45838 On ch=1 n=58 v=0
45838 On ch=1 n=70 v=0
45838 On ch=1 n=50 v=0
45840 On ch=1 n=65 v=75
45840 On ch=1 n=72 v=75
45840 On ch=1 n=77 v=75
45840 On ch=1 n=45 v=75
45840 On ch=1 n=53 v=75
45884 Par ch=1 c=64 v=127
46070 On ch=1 n=65 v=0
46080 On ch=1 n=60 v=75
46198 On ch=1 n=77 v=0
46198 On ch=1 n=65 v=0
46200 On ch=1 n=75 v=75
46200 On ch=1 n=63 v=75
46308 Par ch=1 c=64 v=0
46318 On ch=1 n=60 v=0
46318 On ch=1 n=72 v=0
46318 On ch=1 n=75 v=0
46318 On ch=1 n=45 v=0
46318 On ch=1 n=63 v=0
46318 On ch=1 n=53 v=0
46320 TimeSig 3/4 24 8
46320 Tempo 666666
46320 On ch=1 n=70 v=75
46320 On ch=1 n=74 v=75
46320 On ch=1 n=58 v=75
46320 On ch=1 n=46 v=75
46320 On ch=1 n=62 v=75
46320 On ch=1 n=53 v=75
46559 On ch=1 n=70 v=0
46559 On ch=1 n=74 v=0
46559 On ch=1 n=62 v=0
46559 On ch=1 n=53 v=0
47520 Off ch=1 n=46 v=22
47520 Off ch=1 n=58 v=69
47520 On ch=1 n=47 v=75
47520 On ch=1 n=59 v=75
47750 On ch=1 n=47 v=0
47750 On ch=1 n=59 v=0
47760 On ch=1 n=59 v=75
47760 On ch=1 n=47 v=75
48239 On ch=1 n=59 v=0
48239 On ch=1 n=47 v=0
48240 On ch=1 n=56 v=75
48240 On ch=1 n=44 v=75
48479 On ch=1 n=56 v=0
48479 On ch=1 n=44 v=0
48480 On ch=1 n=54 v=75
48480 On ch=1 n=42 v=75
48959 On ch=1 n=54 v=0
48959 On ch=1 n=42 v=0
48960 On ch=1 n=41 v=75
48960 On ch=1 n=53 v=75
49199 On ch=1 n=41 v=0
49199 On ch=1 n=53 v=0
49200 On ch=1 n=73 v=75
49200 On ch=1 n=68 v=75
49200 On ch=1 n=71 v=75
49304 Par ch=1 c=64 v=127
49680 On ch=1 n=41 v=75
49680 On ch=1 n=53 v=75
49919 On ch=1 n=41 v=0
49919 On ch=1 n=53 v=0
49920 On ch=1 n=56 v=75
49920 On ch=1 n=44 v=75
50398 On ch=1 n=56 v=0
50398 On ch=1 n=44 v=0
50400 On ch=1 n=61 v=75
50400 On ch=1 n=49 v=75
50511 Par ch=1 c=64 v=0
50630 On ch=1 n=61 v=0
50630 On ch=1 n=49 v=0
50640 Off ch=1 n=68 v=10
50640 Off ch=1 n=71 v=35
50640 Off ch=1 n=73 v=61
50640 On ch=1 n=61 v=75
50640 On ch=1 n=49 v=75
50640 On ch=1 n=66 v=75
50640 On ch=1 n=69 v=75
50640 On ch=1 n=73 v=75
50716 Par ch=1 c=64 v=127
50878 On ch=1 n=61 v=0
50878 On ch=1 n=49 v=0
50880 On ch=1 n=54 v=81
50880 On ch=1 n=42 v=81
51119 On ch=1 n=66 v=0
51119 On ch=1 n=69 v=0
51119 On ch=1 n=73 v=0
51120 On ch=1 n=78 v=87
51120 On ch=1 n=73 v=87
51120 On ch=1 n=69 v=87
51214 Par ch=1 c=64 v=0
51239 On ch=1 n=54 v=0
51239 On ch=1 n=42 v=0
51240 On ch=1 n=57 v=90
51240 On ch=1 n=45 v=90
51359 On ch=1 n=57 v=0
51359 On ch=1 n=45 v=0
51360 On ch=1 n=57 v=93
51360 On ch=1 n=45 v=93
51599 On ch=1 n=57 v=0
51599 On ch=1 n=45 v=0
51599 On ch=1 n=78 v=0
51599 On ch=1 n=73 v=0
51599 On ch=1 n=69 v=0
51600 On ch=1 n=75 v=99
51600 On ch=1 n=68 v=99
51600 On ch=1 n=48 v=99
51600 On ch=1 n=36 v=99
51719 On ch=1 n=75 v=0
51719 On ch=1 n=68 v=0
51719 On ch=1 n=48 v=0
51719 On ch=1 n=36 v=0
51720 On ch=1 n=63 v=102
51720 On ch=1 n=51 v=102
51839 On ch=1 n=63 v=0
51839 On ch=1 n=51 v=0
51840 On ch=1 n=51 v=105
51840 On ch=1 n=63 v=105
51959 On ch=1 n=51 v=0
51959 On ch=1 n=63 v=0
51960 On ch=1 n=49 v=108
51960 On ch=1 n=61 v=108
52070 On ch=1 n=49 v=0
52070 On ch=1 n=61 v=0
52080 On ch=1 n=61 v=111
52080 On ch=1 n=49 v=111
52197 On ch=1 n=61 v=0
52197 On ch=1 n=49 v=0
52200 On ch=1 n=48 v=114
52200 On ch=1 n=60 v=114
52317 On ch=1 n=48 v=0
52317 On ch=1 n=60 v=0
52320 On ch=1 n=60 v=117
52320 On ch=1 n=48 v=117
52437 On ch=1 n=60 v=0
52437 On ch=1 n=48 v=0
52440 On ch=1 n=63 v=120
52440 On ch=1 n=51 v=120
52557 On ch=1 n=63 v=0
52557 On ch=1 n=51 v=0
52560 On ch=1 n=51 v=123
52560 On ch=1 n=63 v=123
52677 On ch=1 n=51 v=0
52677 On ch=1 n=63 v=0
52680 On ch=1 n=64 v=127
52680 On ch=1 n=52 v=127
52797 On ch=1 n=64 v=0
52797 On ch=1 n=52 v=0
52800 On ch=1 n=66 v=127
52800 On ch=1 n=54 v=127
53150 On ch=1 n=66 v=0
53150 On ch=1 n=54 v=0
53160 On ch=1 n=51 v=127
53160 On ch=1 n=63 v=127
53279 On ch=1 n=51 v=0
53279 On ch=1 n=63 v=0
53280 On ch=1 n=48 v=127
53280 On ch=1 n=60 v=127
53399 On ch=1 n=48 v=0
53399 On ch=1 n=60 v=0
53400 On ch=1 n=61 v=127
53400 On ch=1 n=49 v=127
53519 On ch=1 n=61 v=0
53519 On ch=1 n=49 v=0
53520 On ch=1 n=49 v=127
53520 On ch=1 n=61 v=127
53758 On ch=1 n=49 v=0
53758 On ch=1 n=61 v=0
53760 On ch=1 n=56 v=127
53760 On ch=1 n=44 v=127
53998 On ch=1 n=56 v=0
53998 On ch=1 n=44 v=0
54000 On ch=1 n=73 v=60
54000 On ch=1 n=56 v=60
54000 On ch=1 n=76 v=60
54238 On ch=1 n=73 v=0
54240 On ch=1 n=59 v=60
54240 On ch=1 n=71 v=60
54480 On ch=1 n=64 v=60
54719 On ch=1 n=76 v=0
54720 On ch=1 n=74 v=60
54958 On ch=1 n=59 v=0
54958 On ch=1 n=56 v=0
54958 On ch=1 n=74 v=0
54958 On ch=1 n=71 v=0
54958 On ch=1 n=64 v=0
54960 TimeSig 4/4 24 8
54960 Tempo 375000
54960 On ch=1 n=69 v=60
54960 On ch=1 n=64 v=60
54960 On ch=1 n=73 v=60
54960 On ch=1 n=45 v=60
54960 On ch=1 n=57 v=60
55198 On ch=1 n=69 v=0
55198 On ch=1 n=64 v=0
55198 On ch=1 n=73 v=0
55200 On ch=1 n=73 v=60
55200 On ch=1 n=61 v=60
55200 On ch=1 n=52 v=60
55438 On ch=1 n=73 v=0
55438 On ch=1 n=61 v=0
55438 On ch=1 n=52 v=0
55440 On ch=1 n=54 v=60
55440 On ch=1 n=74 v=60
55440 On ch=1 n=62 v=60
55678 On ch=1 n=54 v=0
55678 On ch=1 n=74 v=0
55678 On ch=1 n=62 v=0
55680 On ch=1 n=76 v=60
55680 On ch=1 n=64 v=60
55680 On ch=1 n=55 v=60
55918 On ch=1 n=76 v=0
55918 On ch=1 n=64 v=0
55918 On ch=1 n=55 v=0
55920 On ch=1 n=76 v=60
55920 On ch=1 n=64 v=60
55920 On ch=1 n=55 v=60
56158 On ch=1 n=76 v=0
56158 On ch=1 n=64 v=0
56158 On ch=1 n=55 v=0
56160 On ch=1 n=54 v=60
56160 On ch=1 n=74 v=60
56160 On ch=1 n=62 v=60
56398 On ch=1 n=54 v=0
56398 On ch=1 n=74 v=0
56398 On ch=1 n=62 v=0
56400 On ch=1 n=73 v=60
56400 On ch=1 n=52 v=60
56400 On ch=1 n=61 v=60
56638 On ch=1 n=73 v=0
56638 On ch=1 n=52 v=0
56638 On ch=1 n=61 v=0
56640 On ch=1 n=71 v=60
56640 On ch=1 n=59 v=60
56640 On ch=1 n=50 v=60
56878 On ch=1 n=71 v=0
56878 On ch=1 n=59 v=0
56878 On ch=1 n=50 v=0
56880 Off ch=1 n=57 v=0
56880 Off ch=1 n=45 v=0
56880 On ch=1 n=76 v=60
56880 On ch=1 n=73 v=60
56880 On ch=1 n=64 v=60
56880 On ch=1 n=57 v=60
56880 On ch=1 n=45 v=60
57118 On ch=1 n=76 v=0
57118 On ch=1 n=73 v=0
57118 On ch=1 n=64 v=0
57120 On ch=1 n=73 v=60
57120 On ch=1 n=76 v=60
57120 On ch=1 n=64 v=60
57120 On ch=1 n=61 v=60
57358 On ch=1 n=73 v=0
57358 On ch=1 n=76 v=0
57358 On ch=1 n=64 v=0
57358 On ch=1 n=61 v=0
57360 On ch=1 n=66 v=60
57360 On ch=1 n=78 v=60
57360 On ch=1 n=74 v=60
57360 On ch=1 n=62 v=60
57598 On ch=1 n=66 v=0
57598 On ch=1 n=78 v=0
57598 On ch=1 n=74 v=0
57598 On ch=1 n=62 v=0
57600 On ch=1 n=76 v=60
57600 On ch=1 n=67 v=60
57600 On ch=1 n=79 v=60
57600 On ch=1 n=64 v=60
57838 On ch=1 n=76 v=0
57838 On ch=1 n=67 v=0
57838 On ch=1 n=79 v=0
57838 On ch=1 n=64 v=0
57840 On ch=1 n=64 v=60
57840 On ch=1 n=76 v=60
57840 On ch=1 n=67 v=60
57840 On ch=1 n=79 v=60
58078 On ch=1 n=64 v=0
58078 On ch=1 n=76 v=0
58078 On ch=1 n=67 v=0
58078 On ch=1 n=79 v=0
58080 On ch=1 n=66 v=60
58080 On ch=1 n=78 v=60
58080 On ch=1 n=74 v=60
58080 On ch=1 n=62 v=60
58200 Off ch=1 n=45 v=0
58200 Off ch=1 n=57 v=0
58318 On ch=1 n=66 v=0
58318 On ch=1 n=78 v=0
58318 On ch=1 n=74 v=0
58318 On ch=1 n=62 v=0
58320 On ch=1 n=67 v=60
58320 On ch=1 n=76 v=60
58320 On ch=1 n=73 v=60
58320 On ch=1 n=57 v=100
58320 On ch=1 n=45 v=100
58440 On ch=1 n=57 v=0
58440 On ch=1 n=45 v=0
58558 On ch=1 n=67 v=0
58558 On ch=1 n=76 v=0
58558 On ch=1 n=73 v=0
58560 On ch=1 n=66 v=60
58560 On ch=1 n=74 v=60
58798 On ch=1 n=66 v=0
58798 On ch=1 n=74 v=0
58800 TimeSig 3/4 24 8
58800 Tempo 750000
58800 On ch=1 n=73 v=110
58800 On ch=1 n=67 v=110
58800 On ch=1 n=69 v=110
58800 On ch=1 n=79 v=110
58800 On ch=1 n=64 v=110
58800 On ch=1 n=52 v=110
59038 On ch=1 n=73 v=0
59038 On ch=1 n=67 v=0
59038 On ch=1 n=69 v=0
59038 On ch=1 n=79 v=0
59038 On ch=1 n=64 v=0
59038 On ch=1 n=52 v=0
59040 On ch=1 n=73 v=110
59040 On ch=1 n=85 v=110
59040 On ch=1 n=81 v=110
59040 On ch=1 n=79 v=110
59240 On ch=1 n=73 v=0
59240 On ch=1 n=85 v=0
59240 On ch=1 n=81 v=0
59240 On ch=1 n=79 v=0
59280 On ch=1 n=50 v=110
59280 On ch=1 n=62 v=110
59398 On ch=1 n=50 v=0
59398 On ch=1 n=62 v=0
59400 On ch=1 n=64 v=110
59400 On ch=1 n=52 v=110
59518 On ch=1 n=64 v=0
59518 On ch=1 n=52 v=0
59520 On ch=1 n=62 v=110
59520 On ch=1 n=50 v=110
59638 On ch=1 n=62 v=0
59638 On ch=1 n=50 v=0
59640 On ch=1 n=61 v=110
59640 On ch=1 n=49 v=110
59758 On ch=1 n=61 v=0
59758 On ch=1 n=49 v=0
59760 On ch=1 n=81 v=110
59760 On ch=1 n=88 v=110
59760 On ch=1 n=76 v=110
59760 On ch=1 n=79 v=110
59880 On ch=1 n=81 v=0
59880 On ch=1 n=88 v=0
59880 On ch=1 n=76 v=0
59880 On ch=1 n=79 v=0
60120 On ch=1 n=64 v=110
60120 On ch=1 n=52 v=110
60238 On ch=1 n=64 v=0
60238 On ch=1 n=52 v=0
60240 On ch=1 n=64 v=110
60240 On ch=1 n=52 v=110
60478 On ch=1 n=64 v=0
60478 On ch=1 n=52 v=0
60480 On ch=1 n=85 v=110
60480 On ch=1 n=76 v=110
60480 On ch=1 n=81 v=110
60480 On ch=1 n=88 v=110
60480 On ch=1 n=55 v=110
60480 On ch=1 n=43 v=110
60830 On ch=1 n=85 v=0
60830 On ch=1 n=76 v=0
60830 On ch=1 n=81 v=0
60830 On ch=1 n=88 v=0
60830 On ch=1 n=55 v=0
60830 On ch=1 n=43 v=0
60840 On ch=1 n=45 v=110
60840 On ch=1 n=57 v=110
60958 On ch=1 n=45 v=0
60958 On ch=1 n=57 v=0
60960 On ch=1 n=55 v=110
60960 On ch=1 n=43 v=110
61199 On ch=1 n=55 v=0
61199 On ch=1 n=43 v=0
61200 On ch=1 n=54 v=110
61200 On ch=1 n=78 v=110
61200 On ch=1 n=42 v=110
61200 On ch=1 n=86 v=110
61200 On ch=1 n=74 v=110
61200 On ch=1 n=81 v=110
61263 Par ch=1 c=64 v=127
61300 On ch=1 n=78 v=0
61300 On ch=1 n=86 v=0
61300 On ch=1 n=74 v=0
61300 On ch=1 n=81 v=0
61320 On ch=1 n=74 v=110
61320 On ch=1 n=62 v=110
61439 On ch=1 n=54 v=0
61439 On ch=1 n=74 v=0
61439 On ch=1 n=42 v=0
61439 On ch=1 n=62 v=0
61440 On ch=1 n=62 v=110
61440 On ch=1 n=74 v=110
61440 On ch=1 n=45 v=110
61440 On ch=1 n=57 v=110
61559 On ch=1 n=62 v=0
61559 On ch=1 n=74 v=0
61560 On ch=1 n=74 v=110
61560 On ch=1 n=62 v=110
61619 On ch=1 n=45 v=0
61619 On ch=1 n=57 v=0
61620 On ch=1 n=50 v=110
61656 Par ch=1 c=64 v=0
61670 On ch=1 n=50 v=0
61679 On ch=1 n=74 v=0
61679 On ch=1 n=62 v=0
61680 On ch=1 n=62 v=110
61680 On ch=1 n=74 v=110
61680 On ch=1 n=50 v=110
61800 On ch=1 n=62 v=0
61800 On ch=1 n=74 v=0
62038 On ch=1 n=50 v=0
62040 On ch=1 n=52 v=110
62040 On ch=1 n=64 v=110
62160 On ch=1 n=66 v=110
62160 On ch=1 n=54 v=110
62160 On ch=1 n=52 v=0
62160 On ch=1 n=64 v=0
62280 On ch=1 n=64 v=110
62280 On ch=1 n=52 v=110
62280 On ch=1 n=66 v=0
62280 On ch=1 n=54 v=0
62399 On ch=1 n=64 v=0
62399 On ch=1 n=52 v=0
62400 On ch=1 n=64 v=110
62400 On ch=1 n=52 v=110
62520 On ch=1 n=50 v=110
62520 On ch=1 n=62 v=110
62520 On ch=1 n=64 v=0
62520 On ch=1 n=52 v=0
62639 On ch=1 n=50 v=0
62639 On ch=1 n=62 v=0
62640 On ch=1 n=50 v=110
62640 On ch=1 n=62 v=110
62759 On ch=1 n=50 v=0
62759 On ch=1 n=62 v=0
62760 On ch=1 n=61 v=110
62760 On ch=1 n=49 v=110
62879 On ch=1 n=61 v=0
62879 On ch=1 n=49 v=0
62880 On ch=1 n=50 v=110
62880 On ch=1 n=62 v=110
62999 On ch=1 n=50 v=0
62999 On ch=1 n=62 v=0
63000 On ch=1 n=57 v=110
63000 On ch=1 n=45 v=110
63119 On ch=1 n=57 v=0
63119 On ch=1 n=45 v=0
63120 On ch=1 n=55 v=110
63120 On ch=1 n=43 v=110
63239 On ch=1 n=55 v=0
63239 On ch=1 n=43 v=0
63240 On ch=1 n=54 v=110
63240 On ch=1 n=42 v=110
63359 On ch=1 n=54 v=0
63359 On ch=1 n=42 v=0
63360 On ch=1 n=54 v=110
63360 On ch=1 n=42 v=110
63479 On ch=1 n=54 v=0
63479 On ch=1 n=42 v=0
63480 On ch=1 n=40 v=110
63480 On ch=1 n=52 v=110
63599 On ch=1 n=40 v=0
63599 On ch=1 n=52 v=0
63600 On ch=1 n=50 v=110
63600 On ch=1 n=38 v=110
63719 On ch=1 n=50 v=0
63719 On ch=1 n=38 v=0
63720 On ch=1 n=36 v=110
63720 On ch=1 n=48 v=110
63839 On ch=1 n=36 v=0
63839 On ch=1 n=48 v=0
63840 On ch=1 n=48 v=110
63840 On ch=1 n=36 v=110
63959 On ch=1 n=48 v=0
63959 On ch=1 n=36 v=0
63960 On ch=1 n=47 v=110
63960 On ch=1 n=35 v=110
64079 On ch=1 n=47 v=0
64079 On ch=1 n=35 v=0
64080 On ch=1 n=74 v=110
64080 On ch=1 n=83 v=110
64080 On ch=1 n=71 v=110
64080 On ch=1 n=43 v=110
64080 On ch=1 n=55 v=110
64158 Par ch=1 c=64 v=127
64200 On ch=1 n=74 v=0
64200 On ch=1 n=83 v=0
64200 On ch=1 n=71 v=0
64320 On ch=1 n=83 v=110
64320 On ch=1 n=91 v=110
64320 On ch=1 n=79 v=110
64420 On ch=1 n=83 v=0
64420 On ch=1 n=91 v=0
64420 On ch=1 n=79 v=0
64704 Par ch=1 c=64 v=0
64919 On ch=1 n=43 v=0
64919 On ch=1 n=55 v=0
64920 On ch=1 n=52 v=110
64920 On ch=1 n=40 v=110
65038 On ch=1 n=52 v=0
65038 On ch=1 n=40 v=0
65040 On ch=1 n=37 v=110
65040 On ch=1 n=49 v=110
65158 On ch=1 n=37 v=0
65158 On ch=1 n=49 v=0
65160 On ch=1 n=50 v=110
65160 On ch=1 n=38 v=110
65278 On ch=1 n=50 v=0
65278 On ch=1 n=38 v=0
65280 On ch=1 n=50 v=110
65280 On ch=1 n=38 v=110
65518 On ch=1 n=50 v=0
65518 On ch=1 n=38 v=0
65520 On ch=1 n=33 v=110
65520 On ch=1 n=45 v=110
65758 On ch=1 n=33 v=0
65758 On ch=1 n=45 v=0
66000 TimeSig 4/4 24 8
66000 On ch=1 n=85 v=127
66000 On ch=1 n=81 v=127
66000 On ch=1 n=69 v=127
66000 On ch=1 n=61 v=127
66000 On ch=1 n=76 v=127
66000 On ch=1 n=57 v=127
66000 On ch=1 n=88 v=127
66000 On ch=1 n=64 v=127
66138 On ch=1 n=85 v=0
66138 On ch=1 n=81 v=0
66138 On ch=1 n=69 v=0
66138 On ch=1 n=61 v=0
66138 On ch=1 n=76 v=0
66138 On ch=1 n=57 v=0
66138 On ch=1 n=88 v=0
66138 On ch=1 n=64 v=0
66480 On ch=1 n=74 v=127
66480 On ch=1 n=90 v=127
66480 On ch=1 n=66 v=127
66480 On ch=1 n=78 v=127
66480 On ch=1 n=86 v=127
66480 On ch=1 n=62 v=127
66618 On ch=1 n=74 v=0
66618 On ch=1 n=90 v=0
66618 On ch=1 n=66 v=0
66618 On ch=1 n=78 v=0
66618 On ch=1 n=86 v=0
66618 On ch=1 n=62 v=0
66960 Tempo 375000
66960 TimeSig 4/4 24 8
66960 On ch=1 n=54 v=75
66960 On ch=1 n=42 v=75
67438 On ch=1 n=54 v=0
67438 On ch=1 n=42 v=0
67440 On ch=1 n=55 v=60
67440 On ch=1 n=43 v=60
67678 On ch=1 n=55 v=0
67678 On ch=1 n=43 v=0
67680 On ch=1 n=45 v=60
67680 On ch=1 n=57 v=60
67918 On ch=1 n=45 v=0
67918 On ch=1 n=57 v=0
67920 On ch=1 n=57 v=60
67920 On ch=1 n=45 v=60
68158 On ch=1 n=57 v=0
68158 On ch=1 n=45 v=0
68160 On ch=1 n=55 v=60
68160 On ch=1 n=43 v=60
68398 On ch=1 n=55 v=0
68398 On ch=1 n=43 v=0
68400 On ch=1 n=42 v=60
68400 On ch=1 n=54 v=60
68638 On ch=1 n=42 v=0
68638 On ch=1 n=54 v=0
68640 On ch=1 n=40 v=60
68640 On ch=1 n=52 v=60
68878 On ch=1 n=40 v=0
68878 On ch=1 n=52 v=0
68880 On ch=1 n=50 v=60
68880 On ch=1 n=38 v=60
69358 On ch=1 n=50 v=0
69358 On ch=1 n=38 v=0
69360 On ch=1 n=52 v=60
69360 On ch=1 n=40 v=60
69598 On ch=1 n=52 v=0
69598 On ch=1 n=40 v=0
69600 On ch=1 n=42 v=60
69600 On ch=1 n=54 v=60
69838 On ch=1 n=42 v=0
69838 On ch=1 n=54 v=0
69840 On ch=1 n=54 v=60
69840 On ch=1 n=42 v=60
70198 On ch=1 n=54 v=0
70198 On ch=1 n=42 v=0
70200 On ch=1 n=40 v=60
70200 On ch=1 n=52 v=60
70310 On ch=1 n=40 v=0
70310 On ch=1 n=52 v=0
70320 On ch=1 n=52 v=60
70320 On ch=1 n=40 v=60
70799 On ch=1 n=52 v=0
70799 On ch=1 n=40 v=0
70800 On ch=1 n=54 v=60
70800 On ch=1 n=42 v=60
71279 On ch=1 n=54 v=0
71279 On ch=1 n=42 v=0
71280 On ch=1 n=55 v=60
71280 On ch=1 n=43 v=60
71518 On ch=1 n=55 v=0
71518 On ch=1 n=43 v=0
71520 On ch=1 n=57 v=60
71520 On ch=1 n=45 v=60
71758 On ch=1 n=57 v=0
71758 On ch=1 n=45 v=0
71760 On ch=1 n=45 v=60
71760 On ch=1 n=57 v=60
71998 On ch=1 n=45 v=0
71998 On ch=1 n=57 v=0
72000 On ch=1 n=55 v=60
72000 On ch=1 n=43 v=60
72238 On ch=1 n=55 v=0
72238 On ch=1 n=43 v=0
72240 On ch=1 n=54 v=60
72240 On ch=1 n=42 v=60
72478 On ch=1 n=54 v=0
72478 On ch=1 n=42 v=0
72480 On ch=1 n=40 v=60
72480 On ch=1 n=52 v=60
72718 On ch=1 n=40 v=0
72718 On ch=1 n=52 v=0
72720 On ch=1 n=50 v=60
72720 On ch=1 n=38 v=60
73198 On ch=1 n=50 v=0
73198 On ch=1 n=38 v=0
73200 On ch=1 n=52 v=60
73200 On ch=1 n=40 v=60
73438 On ch=1 n=52 v=0
73438 On ch=1 n=40 v=0
73440 On ch=1 n=54 v=60
73440 On ch=1 n=42 v=60
73678 On ch=1 n=54 v=0
73678 On ch=1 n=42 v=0
73680 On ch=1 n=52 v=60
73680 On ch=1 n=40 v=60
74038 On ch=1 n=52 v=0
74038 On ch=1 n=40 v=0
74040 On ch=1 n=50 v=60
74040 On ch=1 n=38 v=60
74150 On ch=1 n=50 v=0
74150 On ch=1 n=38 v=0
74160 On ch=1 n=38 v=60
74160 On ch=1 n=50 v=60
74630 On ch=1 n=38 v=0
74630 On ch=1 n=50 v=0
74640 On ch=1 n=52 v=60
74640 On ch=1 n=40 v=60
75110 On ch=1 n=52 v=0
75110 On ch=1 n=40 v=0
75120 On ch=1 n=54 v=60
75120 On ch=1 n=42 v=60
75358 On ch=1 n=54 v=0
75358 On ch=1 n=42 v=0
75360 On ch=1 n=50 v=60
75360 On ch=1 n=38 v=60
75598 On ch=1 n=50 v=0
75598 On ch=1 n=38 v=0
75600 On ch=1 n=40 v=60
75600 On ch=1 n=52 v=60
75838 On ch=1 n=40 v=0
75838 On ch=1 n=52 v=0
75840 On ch=1 n=54 v=60
75840 On ch=1 n=42 v=60
75958 On ch=1 n=54 v=0
75958 On ch=1 n=42 v=0
75960 On ch=1 n=55 v=60
75960 On ch=1 n=43 v=60
76078 On ch=1 n=55 v=0
76078 On ch=1 n=43 v=0
76080 On ch=1 n=54 v=60
76080 On ch=1 n=42 v=60
76318 On ch=1 n=54 v=0
76318 On ch=1 n=42 v=0
76320 On ch=1 n=38 v=60
76320 On ch=1 n=50 v=60
76558 On ch=1 n=38 v=0
76558 On ch=1 n=50 v=0
76560 On ch=1 n=40 v=60
76560 On ch=1 n=52 v=60
76798 On ch=1 n=40 v=0
76798 On ch=1 n=52 v=0
76800 On ch=1 n=54 v=60
76800 On ch=1 n=42 v=60
76920 On ch=1 n=55 v=60
76920 On ch=1 n=43 v=60
77038 On ch=1 n=54 v=0
77038 On ch=1 n=42 v=0
77040 On ch=1 n=54 v=60
77040 On ch=1 n=42 v=60
77158 On ch=1 n=55 v=0
77158 On ch=1 n=43 v=0
77278 On ch=1 n=54 v=0
77278 On ch=1 n=42 v=0
77280 On ch=1 n=52 v=60
77280 On ch=1 n=40 v=60
77518 On ch=1 n=52 v=0
77518 On ch=1 n=40 v=0
77520 On ch=1 n=50 v=60
77520 On ch=1 n=38 v=60
77758 On ch=1 n=50 v=0
77758 On ch=1 n=38 v=0
77760 On ch=1 n=52 v=71
77760 On ch=1 n=40 v=71
77998 On ch=1 n=52 v=0
77998 On ch=1 n=40 v=0
78000 On ch=1 n=45 v=83
78000 On ch=1 n=33 v=83
78238 On ch=1 n=45 v=0
78238 On ch=1 n=33 v=0
78240 On ch=1 n=54 v=95
78240 On ch=1 n=42 v=95
78718 On ch=1 n=54 v=0
78718 On ch=1 n=42 v=0
78720 On ch=1 n=54 v=60
78720 On ch=1 n=42 v=60
78958 On ch=1 n=54 v=0
78958 On ch=1 n=42 v=0
78960 On ch=1 n=55 v=60
78960 On ch=1 n=43 v=60
79198 On ch=1 n=55 v=0
79198 On ch=1 n=43 v=0
79200 On ch=1 n=45 v=60
79200 On ch=1 n=57 v=60
79438 On ch=1 n=45 v=0
79438 On ch=1 n=57 v=0
79440 On ch=1 n=57 v=60
79440 On ch=1 n=45 v=60
79678 On ch=1 n=57 v=0
79678 On ch=1 n=45 v=0
79680 On ch=1 n=55 v=60
79680 On ch=1 n=43 v=60
79918 On ch=1 n=55 v=0
79918 On ch=1 n=43 v=0
79920 On ch=1 n=54 v=60
79920 On ch=1 n=42 v=60
80158 On ch=1 n=54 v=0
80158 On ch=1 n=42 v=0
80160 On ch=1 n=40 v=60
80160 On ch=1 n=52 v=60
80398 On ch=1 n=40 v=0
80398 On ch=1 n=52 v=0
80400 On ch=1 n=50 v=60
80400 On ch=1 n=38 v=60
80878 On ch=1 n=50 v=0
80878 On ch=1 n=38 v=0
80880 On ch=1 n=52 v=60
80880 On ch=1 n=40 v=60
81118 On ch=1 n=52 v=0
81118 On ch=1 n=40 v=0
81120 On ch=1 n=54 v=60
81120 On ch=1 n=42 v=60
81358 On ch=1 n=54 v=0
81358 On ch=1 n=42 v=0
81360 On ch=1 n=40 v=60
81360 On ch=1 n=52 v=60
81718 On ch=1 n=40 v=0
81718 On ch=1 n=52 v=0
81720 On ch=1 n=50 v=60
81720 On ch=1 n=38 v=60
81838 On ch=1 n=50 v=0
81838 On ch=1 n=38 v=0
81840 On ch=1 n=50 v=60
81840 On ch=1 n=38 v=60
82310 On ch=1 n=50 v=0
82310 On ch=1 n=38 v=0
82320 On ch=1 n=52 v=60
82320 On ch=1 n=40 v=60
82798 On ch=1 n=52 v=0
82798 On ch=1 n=40 v=0
82800 On ch=1 n=54 v=60
82800 On ch=1 n=42 v=60
83038 On ch=1 n=54 v=0
83038 On ch=1 n=42 v=0
83040 On ch=1 n=50 v=60
83040 On ch=1 n=38 v=60
83278 On ch=1 n=50 v=0
83278 On ch=1 n=38 v=0
83280 On ch=1 n=52 v=60
83280 On ch=1 n=40 v=60
83518 On ch=1 n=52 v=0
83518 On ch=1 n=40 v=0
83520 On ch=1 n=54 v=60
83520 On ch=1 n=42 v=60
83639 On ch=1 n=54 v=0
83639 On ch=1 n=42 v=0
83640 On ch=1 n=55 v=60
83640 On ch=1 n=43 v=60
83759 On ch=1 n=55 v=0
83759 On ch=1 n=43 v=0
83760 On ch=1 n=42 v=60
83760 On ch=1 n=54 v=60
83998 On ch=1 n=42 v=0
83998 On ch=1 n=54 v=0
84000 On ch=1 n=50 v=60
84000 On ch=1 n=38 v=60
84238 On ch=1 n=50 v=0
84238 On ch=1 n=38 v=0
84240 On ch=1 n=40 v=60
84240 On ch=1 n=52 v=60
84478 On ch=1 n=40 v=0
84478 On ch=1 n=52 v=0
84480 On ch=1 n=54 v=60
84480 On ch=1 n=42 v=60
84599 On ch=1 n=54 v=0
84599 On ch=1 n=42 v=0
84600 On ch=1 n=55 v=60
84600 On ch=1 n=43 v=60
84719 On ch=1 n=55 v=0
84719 On ch=1 n=43 v=0
84720 On ch=1 n=42 v=60
84720 On ch=1 n=54 v=60
84957 On ch=1 n=42 v=0
84957 On ch=1 n=54 v=0
84960 On ch=1 n=52 v=60
84960 On ch=1 n=40 v=60
85197 On ch=1 n=52 v=0
85197 On ch=1 n=40 v=0
85200 On ch=1 n=38 v=60
85200 On ch=1 n=50 v=60
85437 On ch=1 n=38 v=0
85437 On ch=1 n=50 v=0
85440 On ch=1 n=40 v=71
85440 On ch=1 n=52 v=71
85677 On ch=1 n=40 v=0
85677 On ch=1 n=52 v=0
85680 On ch=1 n=45 v=83
85680 On ch=1 n=33 v=83
85917 On ch=1 n=45 v=0
85917 On ch=1 n=33 v=0
85920 On ch=1 n=54 v=95
85920 On ch=1 n=42 v=95
86390 On ch=1 n=54 v=0
86390 On ch=1 n=42 v=0
86400 On ch=1 n=42 v=60
86400 On ch=1 n=54 v=60
86637 On ch=1 n=42 v=0
86637 On ch=1 n=54 v=0
86640 On ch=1 n=55 v=60
86640 On ch=1 n=43 v=60
86877 On ch=1 n=55 v=0
86877 On ch=1 n=43 v=0
86880 On ch=1 n=57 v=60
86880 On ch=1 n=45 v=60
87117 On ch=1 n=57 v=0
87117 On ch=1 n=45 v=0
87120 On ch=1 n=57 v=60
87120 On ch=1 n=45 v=60
87357 On ch=1 n=57 v=0
87357 On ch=1 n=45 v=0
87360 On ch=1 n=43 v=60
87360 On ch=1 n=55 v=60
87597 On ch=1 n=43 v=0
87597 On ch=1 n=55 v=0
87600 On ch=1 n=54 v=60
87600 On ch=1 n=42 v=60
87837 On ch=1 n=54 v=0
87837 On ch=1 n=42 v=0
87840 On ch=1 n=40 v=60
87840 On ch=1 n=52 v=60
88077 On ch=1 n=40 v=0
88077 On ch=1 n=52 v=0
88080 On ch=1 n=50 v=60
88080 On ch=1 n=38 v=60
88558 On ch=1 n=50 v=0
88558 On ch=1 n=38 v=0
88560 On ch=1 n=52 v=60
88560 On ch=1 n=40 v=60
88797 On ch=1 n=52 v=0
88797 On ch=1 n=40 v=0
88800 On ch=1 n=54 v=60
88800 On ch=1 n=42 v=60
89037 On ch=1 n=54 v=0
89037 On ch=1 n=42 v=0
89040 On ch=1 n=52 v=60
89040 On ch=1 n=40 v=60
89390 On ch=1 n=52 v=0
89390 On ch=1 n=40 v=0
89400 On ch=1 n=50 v=60
89400 On ch=1 n=38 v=75
89510 On ch=1 n=50 v=0
89510 On ch=1 n=38 v=0
89520 On ch=1 n=38 v=75
89520 On ch=1 n=50 v=75
89757 On ch=1 n=38 v=0
89757 On ch=1 n=50 v=0
89760 On ch=1 n=57 v=75
89760 On ch=1 n=45 v=75
89997 On ch=1 n=57 v=0
89997 On ch=1 n=45 v=0
90000 On ch=1 n=66 v=75
90000 On ch=1 n=45 v=75
90478 On ch=1 n=66 v=0
90478 On ch=1 n=45 v=0
90480 On ch=1 n=67 v=75
90480 On ch=1 n=38 v=75
90717 On ch=1 n=67 v=0
90720 On ch=1 n=69 v=75
90720 On ch=1 n=66 v=75
90940 On ch=1 n=69 v=0
90957 On ch=1 n=38 v=0
90957 On ch=1 n=66 v=0
90960 On ch=1 n=62 v=75
90960 On ch=1 n=69 v=75
90960 On ch=1 n=35 v=75
91197 On ch=1 n=69 v=0
91200 On ch=1 n=67 v=75
91318 On ch=1 n=62 v=0
91318 On ch=1 n=35 v=0
91320 On ch=1 n=37 v=75
91320 On ch=1 n=64 v=75
91438 On ch=1 n=37 v=0
91438 On ch=1 n=67 v=0
91438 On ch=1 n=64 v=0
91440 On ch=1 n=66 v=75
91440 On ch=1 n=38 v=75
91678 On ch=1 n=66 v=0
91678 On ch=1 n=38 v=0
91680 On ch=1 n=64 v=75
91680 On ch=1 n=59 v=75
91680 On ch=1 n=43 v=75
91918 On ch=1 n=64 v=0
91920 On ch=1 n=62 v=75
92158 On ch=1 n=59 v=0
92158 On ch=1 n=43 v=0
92160 On ch=1 n=57 v=75
92160 On ch=1 n=42 v=75
92398 On ch=1 n=62 v=0
92398 On ch=1 n=57 v=0
92398 On ch=1 n=42 v=0
92400 On ch=1 n=64 v=75
92400 On ch=1 n=40 v=75
92400 On ch=1 n=55 v=75
92638 On ch=1 n=64 v=0
92638 On ch=1 n=40 v=0
92638 On ch=1 n=55 v=0
92640 On ch=1 n=66 v=75
92640 On ch=1 n=38 v=75
92640 On ch=1 n=54 v=75
92870 On ch=1 n=66 v=0
92880 On ch=1 n=66 v=75
93110 On ch=1 n=38 v=0
93110 On ch=1 n=54 v=0
93118 On ch=1 n=66 v=0
93120 On ch=1 n=37 v=75
93120 On ch=1 n=57 v=75
93120 On ch=1 n=64 v=75
93358 On ch=1 n=37 v=0
93358 On ch=1 n=57 v=0
93358 On ch=1 n=64 v=0
93360 On ch=1 n=64 v=75
93360 On ch=1 n=62 v=75
93360 On ch=1 n=35 v=75
93598 On ch=1 n=62 v=0
93598 On ch=1 n=35 v=0
93600 On ch=1 n=61 v=75
93600 On ch=1 n=33 v=75
93838 On ch=1 n=64 v=0
93838 On ch=1 n=61 v=0
93838 On ch=1 n=33 v=0
93840 On ch=1 n=66 v=75
93840 On ch=1 n=45 v=75
94080 On ch=1 n=62 v=75
94318 On ch=1 n=66 v=0
94318 On ch=1 n=45 v=0
94320 On ch=1 n=67 v=75
94320 On ch=1 n=38 v=75
94558 On ch=1 n=67 v=0
94558 On ch=1 n=62 v=0
94560 On ch=1 n=69 v=75
94560 On ch=1 n=64 v=75
94679 On ch=1 n=64 v=0
94680 On ch=1 n=66 v=75
94798 On ch=1 n=69 v=0
94798 On ch=1 n=38 v=0
94798 On ch=1 n=66 v=0
94800 On ch=1 n=62 v=75
94800 On ch=1 n=69 v=75
94800 On ch=1 n=35 v=75
95038 On ch=1 n=69 v=0
95040 On ch=1 n=67 v=75
95158 On ch=1 n=62 v=0
95158 On ch=1 n=35 v=0
95160 On ch=1 n=37 v=75
95160 On ch=1 n=64 v=75
95278 On ch=1 n=37 v=0
95278 On ch=1 n=67 v=0
95278 On ch=1 n=64 v=0
95280 On ch=1 n=38 v=75
95280 On ch=1 n=66 v=75
95518 On ch=1 n=38 v=0
95518 On ch=1 n=66 v=0
95520 On ch=1 n=64 v=75
95520 On ch=1 n=59 v=75
95520 On ch=1 n=43 v=75
95758 On ch=1 n=64 v=0
95760 On ch=1 n=62 v=75
95998 On ch=1 n=59 v=0
95998 On ch=1 n=43 v=0
96000 On ch=1 n=42 v=75
96000 On ch=1 n=57 v=75
96118 On ch=1 n=42 v=0
96118 On ch=1 n=57 v=0
96120 On ch=1 n=55 v=75
96120 On ch=1 n=40 v=75
96238 On ch=1 n=62 v=0
96238 On ch=1 n=55 v=0
96238 On ch=1 n=40 v=0
96240 On ch=1 n=64 v=75
96240 On ch=1 n=54 v=75
96240 On ch=1 n=38 v=75
96358 On ch=1 n=38 v=0
96360 On ch=1 n=37 v=75
96478 On ch=1 n=64 v=0
96478 On ch=1 n=54 v=0
96478 On ch=1 n=37 v=0
96480 On ch=1 n=35 v=75
96480 On ch=1 n=66 v=75
96480 On ch=1 n=62 v=75
96598 On ch=1 n=35 v=0
96598 On ch=1 n=62 v=0
96600 On ch=1 n=61 v=75
96600 On ch=1 n=33 v=75
96718 On ch=1 n=61 v=0
96718 On ch=1 n=66 v=0
96718 On ch=1 n=33 v=0
96720 On ch=1 n=31 v=75
96720 On ch=1 n=64 v=75
96720 On ch=1 n=59 v=75
96958 On ch=1 n=31 v=0
96958 On ch=1 n=59 v=0
96960 On ch=1 n=61 v=75
96960 On ch=1 n=33 v=75
97078 On ch=1 n=64 v=0
97080 On ch=1 n=62 v=75
97190 On ch=1 n=62 v=0
97198 On ch=1 n=61 v=0
97198 On ch=1 n=33 v=0
97200 On ch=1 n=30 v=75
97200 On ch=1 n=62 v=75
97438 On ch=1 n=30 v=0
97440 On ch=1 n=42 v=75
97678 On ch=1 n=42 v=0
97678 On ch=1 n=62 v=0
97680 On ch=1 n=64 v=75
97680 On ch=1 n=43 v=75
98158 On ch=1 n=64 v=0
98158 On ch=1 n=43 v=0
98160 On ch=1 n=66 v=75
98160 On ch=1 n=45 v=75
98398 On ch=1 n=66 v=0
98398 On ch=1 n=45 v=0
98400 On ch=1 n=47 v=75
98400 On ch=1 n=62 v=75
98638 On ch=1 n=47 v=0
98638 On ch=1 n=62 v=0
98640 On ch=1 n=64 v=75
98640 On ch=1 n=57 v=75
98640 On ch=1 n=37 v=75
98878 On ch=1 n=64 v=0
98880 On ch=1 n=66 v=75
98998 On ch=1 n=66 v=0
99000 On ch=1 n=67 v=75
99118 On ch=1 n=67 v=0
99118 On ch=1 n=37 v=0
99120 On ch=1 n=66 v=75
99120 On ch=1 n=38 v=75
99358 On ch=1 n=66 v=0
99358 On ch=1 n=57 v=0
99358 On ch=1 n=38 v=0
99360 On ch=1 n=40 v=75
99360 On ch=1 n=55 v=75
99360 On ch=1 n=62 v=75
99478 On ch=1 n=40 v=0
99478 On ch=1 n=55 v=0
99480 On ch=1 n=42 v=75
99480 On ch=1 n=57 v=75
99598 On ch=1 n=42 v=0
99598 On ch=1 n=57 v=0
99598 On ch=1 n=62 v=0
99600 On ch=1 n=64 v=75
99600 On ch=1 n=43 v=75
99600 On ch=1 n=59 v=75
99838 On ch=1 n=64 v=0
99840 On ch=1 n=66 v=75
99958 On ch=1 n=66 v=0
99960 On ch=1 n=67 v=75
100078 On ch=1 n=67 v=0
100078 On ch=1 n=43 v=0
100078 On ch=1 n=59 v=0
100080 On ch=1 n=66 v=75
100080 On ch=1 n=61 v=75
100080 On ch=1 n=45 v=75
100318 On ch=1 n=66 v=0
100318 On ch=1 n=45 v=0
100320 On ch=1 n=46 v=75
100320 On ch=1 n=64 v=75
100558 On ch=1 n=46 v=0
100558 On ch=1 n=61 v=0
100558 On ch=1 n=64 v=0
100560 On ch=1 n=62 v=75
100560 On ch=1 n=47 v=75
100798 On ch=1 n=62 v=0
100798 On ch=1 n=47 v=0
100800 On ch=1 n=49 v=80
100800 On ch=1 n=64 v=80
101040 On ch=1 n=57 v=85
101278 On ch=1 n=49 v=0
101278 On ch=1 n=64 v=0
101278 On ch=1 n=57 v=0
101280 On ch=1 n=62 v=90
101280 On ch=1 n=66 v=90
101280 On ch=1 n=50 v=90
101520 On ch=1 n=45 v=75
101638 On ch=1 n=50 v=0
101640 On ch=1 n=57 v=75
101741 On ch=1 n=62 v=0
101758 On ch=1 n=66 v=0
101758 On ch=1 n=57 v=0
101760 On ch=1 n=66 v=75
101760 On ch=1 n=62 v=75
101998 On ch=1 n=66 v=0
102000 On ch=1 n=36 v=75
102000 On ch=1 n=67 v=75
102000 On ch=1 n=45 v=0
102118 On ch=1 n=62 v=0
102120 On ch=1 n=64 v=75
102238 On ch=1 n=64 v=0
102238 On ch=1 n=67 v=0
102240 On ch=1 n=66 v=75
102240 On ch=1 n=69 v=75
102470 On ch=1 n=69 v=0
102478 On ch=1 n=36 v=0
102480 On ch=1 n=35 v=75
102480 On ch=1 n=69 v=75
102598 On ch=1 n=66 v=0
102600 On ch=1 n=62 v=75
102718 On ch=1 n=62 v=0
102718 On ch=1 n=69 v=0
102720 On ch=1 n=67 v=75
102720 On ch=1 n=64 v=75
102838 On ch=1 n=35 v=0
102840 On ch=1 n=37 v=75
102958 On ch=1 n=37 v=0
102958 On ch=1 n=67 v=0
102958 On ch=1 n=64 v=0
102960 On ch=1 n=38 v=75
102960 On ch=1 n=66 v=75
103198 On ch=1 n=38 v=0
103198 On ch=1 n=66 v=0
103200 On ch=1 n=64 v=75
103200 On ch=1 n=43 v=75
103200 On ch=1 n=59 v=75
103420 On ch=1 n=64 v=0
103440 On ch=1 n=62 v=75
103678 On ch=1 n=43 v=0
103678 On ch=1 n=59 v=0
103680 On ch=1 n=42 v=75
103680 On ch=1 n=57 v=75
103798 On ch=1 n=42 v=0
103798 On ch=1 n=57 v=0
103800 On ch=1 n=40 v=75
103800 On ch=1 n=55 v=75
103918 On ch=1 n=62 v=0
103918 On ch=1 n=40 v=0
103918 On ch=1 n=55 v=0
103920 On ch=1 n=38 v=75
103920 On ch=1 n=64 v=75
103920 On ch=1 n=54 v=75
104038 On ch=1 n=38 v=0
104040 On ch=1 n=37 v=75
104158 On ch=1 n=37 v=0
104158 On ch=1 n=64 v=0
104158 On ch=1 n=54 v=0
104160 On ch=1 n=66 v=75
104160 On ch=1 n=35 v=75
104160 On ch=1 n=62 v=75
104278 On ch=1 n=35 v=0
104278 On ch=1 n=62 v=0
104280 On ch=1 n=61 v=75
104280 On ch=1 n=33 v=75
104398 On ch=1 n=66 v=0
104398 On ch=1 n=61 v=0
104398 On ch=1 n=33 v=0
104400 On ch=1 n=64 v=75
104400 On ch=1 n=59 v=75
104400 On ch=1 n=31 v=75
104638 On ch=1 n=59 v=0
104638 On ch=1 n=31 v=0
104640 On ch=1 n=61 v=75
104640 On ch=1 n=33 v=75
104758 On ch=1 n=64 v=0
104760 On ch=1 n=62 v=75
104878 On ch=1 n=62 v=0
104878 On ch=1 n=61 v=0
104878 On ch=1 n=33 v=0
104880 On ch=1 n=30 v=75
104880 On ch=1 n=62 v=75
105118 On ch=1 n=30 v=0
105120 On ch=1 n=42 v=75
105358 On ch=1 n=42 v=0
105358 On ch=1 n=62 v=0
105360 On ch=1 n=64 v=75
105360 On ch=1 n=43 v=75
105838 On ch=1 n=64 v=0
105838 On ch=1 n=43 v=0
105840 On ch=1 n=66 v=75
105840 On ch=1 n=45 v=75
106078 On ch=1 n=66 v=0
106078 On ch=1 n=45 v=0
106080 On ch=1 n=62 v=75
106080 On ch=1 n=47 v=75
106318 On ch=1 n=62 v=0
106318 On ch=1 n=47 v=0
106320 On ch=1 n=64 v=75
106320 On ch=1 n=57 v=75
106320 On ch=1 n=37 v=75
106558 On ch=1 n=64 v=0
106560 On ch=1 n=66 v=75
106678 On ch=1 n=66 v=0
106680 On ch=1 n=67 v=75
106798 On ch=1 n=67 v=0
106798 On ch=1 n=37 v=0
106800 On ch=1 n=38 v=75
106800 On ch=1 n=66 v=75
106918 On ch=1 n=57 v=0
106920 On ch=1 n=54 v=75
107038 On ch=1 n=38 v=0
107038 On ch=1 n=54 v=0
107038 On ch=1 n=66 v=0
107040 On ch=1 n=40 v=75
107040 On ch=1 n=62 v=75
107040 On ch=1 n=55 v=75
107158 On ch=1 n=40 v=0
107158 On ch=1 n=55 v=0
107160 On ch=1 n=42 v=75
107160 On ch=1 n=57 v=75
107278 On ch=1 n=42 v=0
107278 On ch=1 n=62 v=0
107278 On ch=1 n=57 v=0
107280 On ch=1 n=64 v=75
107280 On ch=1 n=59 v=75
107280 On ch=1 n=43 v=75
107518 On ch=1 n=64 v=0
107520 On ch=1 n=66 v=75
107638 On ch=1 n=66 v=0
107640 On ch=1 n=67 v=75
107758 On ch=1 n=67 v=0
107758 On ch=1 n=59 v=0
107758 On ch=1 n=43 v=0
107760 On ch=1 n=66 v=75
107760 On ch=1 n=45 v=75
107760 On ch=1 n=61 v=75
107998 On ch=1 n=66 v=0
107998 On ch=1 n=45 v=0
108000 On ch=1 n=46 v=75
108000 On ch=1 n=64 v=75
108238 On ch=1 n=46 v=0
108238 On ch=1 n=64 v=0
108238 On ch=1 n=61 v=0
108240 On ch=1 n=47 v=75
108240 On ch=1 n=62 v=75
108478 On ch=1 n=47 v=0
108478 On ch=1 n=62 v=0
108480 On ch=1 n=49 v=80
108480 On ch=1 n=64 v=80
108720 On ch=1 n=57 v=85
108958 On ch=1 n=49 v=0
108958 On ch=1 n=64 v=0
108958 On ch=1 n=57 v=0
108960 On ch=1 n=66 v=90
108960 On ch=1 n=62 v=90
108960 On ch=1 n=50 v=90
109198 On ch=1 n=50 v=0
109200 On ch=1 n=45 v=75
109318 On ch=1 n=62 v=0
109320 On ch=1 n=57 v=75
109438 On ch=1 n=66 v=0
109438 On ch=1 n=57 v=0
109440 On ch=1 n=66 v=75
109440 On ch=1 n=62 v=75
109678 On ch=1 n=66 v=0
109678 On ch=1 n=45 v=0
109680 On ch=1 n=36 v=75
109680 On ch=1 n=67 v=75
109798 On ch=1 n=62 v=0
109800 On ch=1 n=64 v=75
109918 On ch=1 n=64 v=0
109918 On ch=1 n=67 v=0
109920 On ch=1 n=66 v=75
109920 On ch=1 n=69 v=75
110158 On ch=1 n=36 v=0
110158 On ch=1 n=69 v=0
110160 On ch=1 n=35 v=75
110160 On ch=1 n=69 v=75
110279 On ch=1 n=66 v=0
110280 On ch=1 n=62 v=75
110398 On ch=1 n=62 v=0
110398 On ch=1 n=69 v=0
110400 On ch=1 n=67 v=75
110400 On ch=1 n=64 v=75
110519 On ch=1 n=35 v=0
110520 On ch=1 n=37 v=75
110638 On ch=1 n=37 v=0
110638 On ch=1 n=67 v=0
110638 On ch=1 n=64 v=0
110640 On ch=1 n=66 v=75
110640 On ch=1 n=38 v=75
110760 On ch=1 n=57 v=75
110878 On ch=1 n=66 v=0
110878 On ch=1 n=38 v=0
110878 On ch=1 n=57 v=0
110880 On ch=1 n=64 v=75
110880 On ch=1 n=59 v=75
110880 On ch=1 n=43 v=75
110998 On ch=1 n=59 v=0
111000 On ch=1 n=61 v=75
111118 On ch=1 n=64 v=0
111118 On ch=1 n=61 v=0
111118 On ch=1 n=43 v=0
111120 On ch=1 n=62 v=75
111240 On ch=1 n=59 v=75
111350 On ch=1 n=59 v=0
111360 On ch=1 n=42 v=75
111360 On ch=1 n=57 v=75
111470 On ch=1 n=42 v=0
111470 On ch=1 n=57 v=0
111480 On ch=1 n=40 v=75
111480 On ch=1 n=55 v=75
111590 On ch=1 n=62 v=0
111590 On ch=1 n=40 v=0
111590 On ch=1 n=55 v=0
111600 On ch=1 n=64 v=75
111600 On ch=1 n=54 v=75
111600 On ch=1 n=38 v=75
111710 On ch=1 n=38 v=0
111720 On ch=1 n=37 v=75
111830 On ch=1 n=64 v=0
111830 On ch=1 n=54 v=0
111830 On ch=1 n=37 v=0
111840 On ch=1 n=66 v=75
111840 On ch=1 n=62 v=75
111840 On ch=1 n=35 v=75
111950 On ch=1 n=62 v=0
111950 On ch=1 n=35 v=0
111960 On ch=1 n=33 v=75
111960 On ch=1 n=61 v=75
112070 On ch=1 n=66 v=0
112077 On ch=1 n=61 v=0
112080 On ch=1 n=59 v=75
112080 On ch=1 n=64 v=75
112080 On ch=1 n=31 v=75
112094 On ch=1 n=33 v=0
112310 On ch=1 n=59 v=0
112310 On ch=1 n=31 v=0
112320 On ch=1 n=61 v=75
112320 On ch=1 n=33 v=75
112430 On ch=1 n=64 v=0
112440 On ch=1 n=62 v=75
112550 On ch=1 n=61 v=0
112550 On ch=1 n=33 v=0
112550 On ch=1 n=62 v=0
112560 On ch=1 n=62 v=75
112560 On ch=1 n=30 v=75
112670 On ch=1 n=62 v=0
112670 On ch=1 n=30 v=0
112680 On ch=1 n=71 v=75
112680 On ch=1 n=57 v=75
112680 On ch=1 n=43 v=75
112790 On ch=1 n=71 v=0
112790 On ch=1 n=57 v=0
112790 On ch=1 n=43 v=0
112800 On ch=1 n=42 v=75
112800 On ch=1 n=69 v=75
112800 On ch=1 n=59 v=75
112910 On ch=1 n=42 v=0
112910 On ch=1 n=69 v=0
112910 On ch=1 n=59 v=0
112920 On ch=1 n=67 v=75
112920 On ch=1 n=61 v=75
112920 On ch=1 n=40 v=75
113030 On ch=1 n=67 v=0
113030 On ch=1 n=61 v=0
113030 On ch=1 n=40 v=0
113040 On ch=1 n=38 v=75
113040 On ch=1 n=57 v=75
113040 On ch=1 n=78 v=75
113040 On ch=1 n=66 v=75
113280 On ch=1 n=62 v=75
113510 On ch=1 n=38 v=0
113510 On ch=1 n=57 v=0
113510 On ch=1 n=78 v=0
113510 On ch=1 n=66 v=0
113510 On ch=1 n=62 v=0
113520 On ch=1 n=67 v=75
113520 On ch=1 n=79 v=75
113520 On ch=1 n=50 v=75
113520 On ch=1 n=64 v=75
113750 On ch=1 n=67 v=0
113750 On ch=1 n=79 v=0
113750 On ch=1 n=64 v=0
113760 On ch=1 n=81 v=75
113760 On ch=1 n=69 v=75
113760 On ch=1 n=66 v=75
113990 On ch=1 n=81 v=0
113990 On ch=1 n=69 v=0
113990 On ch=1 n=50 v=0
113990 On ch=1 n=66 v=0
114000 On ch=1 n=81 v=75
114000 On ch=1 n=69 v=75
114000 On ch=1 n=62 v=75
114000 On ch=1 n=59 v=75
114000 On ch=1 n=50 v=75
114230 On ch=1 n=81 v=0
114230 On ch=1 n=69 v=0
114240 On ch=1 n=79 v=75
114350 On ch=1 n=62 v=0
114350 On ch=1 n=59 v=0
114360 On ch=1 n=61 v=75
114360 On ch=1 n=64 v=75
114470 On ch=1 n=79 v=0
114470 On ch=1 n=61 v=0
114470 On ch=1 n=64 v=0
114480 On ch=1 n=66 v=75
114480 On ch=1 n=78 v=75
114480 On ch=1 n=62 v=75
114590 On ch=1 n=66 v=0
114590 On ch=1 n=62 v=0
114600 On ch=1 n=62 v=75
114710 On ch=1 n=62 v=0
114710 On ch=1 n=78 v=0
114720 On ch=1 n=67 v=75
114720 On ch=1 n=59 v=75
114720 On ch=1 n=76 v=75
114830 On ch=1 n=59 v=0
114840 On ch=1 n=61 v=75
114920 On ch=1 n=76 v=0
114950 On ch=1 n=61 v=0
114960 On ch=1 n=74 v=75
114960 On ch=1 n=62 v=75
114960 On ch=1 n=57 v=75
114999 On ch=1 n=50 v=0
115190 On ch=1 n=67 v=0
115190 On ch=1 n=62 v=0
115190 On ch=1 n=57 v=0
115200 On ch=1 n=66 v=75
115200 On ch=1 n=69 v=75
115200 On ch=1 n=50 v=75
115200 On ch=1 n=38 v=75
115430 On ch=1 n=66 v=0
115430 On ch=1 n=74 v=0
115430 On ch=1 n=50 v=0
115430 On ch=1 n=38 v=0
115440 On ch=1 n=76 v=75
115440 On ch=1 n=64 v=75
115440 On ch=1 n=37 v=75
115440 On ch=1 n=49 v=75
115660 On ch=1 n=69 v=0
115670 On ch=1 n=76 v=0
115670 On ch=1 n=64 v=0
115670 On ch=1 n=37 v=0
115670 On ch=1 n=49 v=0
115680 On ch=1 n=62 v=75
115680 On ch=1 n=69 v=75
115680 On ch=1 n=35 v=75
115680 On ch=1 n=47 v=75
115680 On ch=1 n=78 v=75
115779 On ch=1 n=78 v=0
115910 On ch=1 n=62 v=0
115910 On ch=1 n=69 v=0
115910 On ch=1 n=35 v=0
115910 On ch=1 n=47 v=0
115920 On ch=1 n=66 v=75
115920 On ch=1 n=78 v=75
115920 On ch=1 n=74 v=75
115920 On ch=1 n=33 v=75
115920 On ch=1 n=45 v=75
116150 On ch=1 n=74 v=0
116160 On ch=1 n=73 v=75
116270 On ch=1 n=66 v=0
116270 On ch=1 n=78 v=0
116280 On ch=1 n=76 v=75
116280 On ch=1 n=64 v=75
116390 On ch=1 n=76 v=0
116390 On ch=1 n=64 v=0
116390 On ch=1 n=73 v=0
116400 On ch=1 n=61 v=75
116400 On ch=1 n=71 v=75
116400 On ch=1 n=76 v=75
116510 On ch=1 n=61 v=0
116510 On ch=1 n=33 v=0
116510 On ch=1 n=45 v=0
116520 On ch=1 n=64 v=75
116520 On ch=1 n=43 v=75
116630 On ch=1 n=64 v=0
116630 On ch=1 n=71 v=0
116630 On ch=1 n=76 v=0
116630 On ch=1 n=43 v=0
116640 On ch=1 n=66 v=75
116640 On ch=1 n=42 v=75
116640 On ch=1 n=69 v=75
116750 On ch=1 n=66 v=0
116750 On ch=1 n=42 v=0
116760 On ch=1 n=40 v=75
116760 On ch=1 n=67 v=75
116870 On ch=1 n=40 v=0
116870 On ch=1 n=67 v=0
116870 On ch=1 n=69 v=0
116880 On ch=1 n=38 v=75
116880 On ch=1 n=78 v=75
116880 On ch=1 n=66 v=75
116880 On ch=1 n=57 v=75
117120 On ch=1 n=62 v=75
117350 On ch=1 n=38 v=0
117350 On ch=1 n=78 v=0
117350 On ch=1 n=66 v=0
117350 On ch=1 n=57 v=0
117350 On ch=1 n=62 v=0
117360 On ch=1 n=50 v=75
117360 On ch=1 n=79 v=75
117360 On ch=1 n=67 v=75
117360 On ch=1 n=64 v=75
117590 On ch=1 n=79 v=0
117590 On ch=1 n=67 v=0
117590 On ch=1 n=64 v=0
117600 On ch=1 n=81 v=75
117600 On ch=1 n=69 v=75
117600 On ch=1 n=66 v=75
117830 On ch=1 n=50 v=0
117830 On ch=1 n=81 v=0
117830 On ch=1 n=69 v=0
117830 On ch=1 n=66 v=0
117840 On ch=1 n=50 v=75
117840 On ch=1 n=81 v=75
117840 On ch=1 n=69 v=75
117840 On ch=1 n=62 v=75
117840 On ch=1 n=59 v=75
118070 On ch=1 n=81 v=0
118080 On ch=1 n=79 v=75
118190 On ch=1 n=62 v=0
118190 On ch=1 n=59 v=0
118200 On ch=1 n=61 v=75
118200 On ch=1 n=64 v=75
118310 On ch=1 n=79 v=0
118310 On ch=1 n=69 v=0
118310 On ch=1 n=61 v=0
118310 On ch=1 n=64 v=0
118320 On ch=1 n=66 v=75
118320 On ch=1 n=78 v=75
118320 On ch=1 n=62 v=75
118430 On ch=1 n=66 v=0
118440 On ch=1 n=69 v=75
118550 On ch=1 n=69 v=0
118550 On ch=1 n=78 v=0
118550 On ch=1 n=62 v=0
118560 On ch=1 n=67 v=75
118560 On ch=1 n=76 v=75
118560 On ch=1 n=71 v=75
118670 On ch=1 n=71 v=0
118680 On ch=1 n=73 v=75
118790 On ch=1 n=50 v=0
118790 On ch=1 n=76 v=0
118790 On ch=1 n=73 v=0
118800 On ch=1 n=74 v=75
118920 On ch=1 n=73 v=75
118920 On ch=1 n=64 v=75
119030 On ch=1 n=67 v=0
119030 On ch=1 n=73 v=0
119030 On ch=1 n=64 v=0
119040 On ch=1 n=66 v=75
119040 On ch=1 n=62 v=75
119040 On ch=1 n=71 v=75
119150 On ch=1 n=66 v=0
119150 On ch=1 n=62 v=0
119150 On ch=1 n=71 v=0
119160 On ch=1 n=69 v=75
119160 On ch=1 n=61 v=75
119160 On ch=1 n=64 v=75
119270 On ch=1 n=74 v=0
119270 On ch=1 n=69 v=0
119270 On ch=1 n=61 v=0
119270 On ch=1 n=64 v=0
119280 On ch=1 n=67 v=75
119280 On ch=1 n=76 v=75
119280 On ch=1 n=62 v=75
119280 On ch=1 n=59 v=75
119390 On ch=1 n=67 v=0
119390 On ch=1 n=62 v=0
119390 On ch=1 n=59 v=0
119400 On ch=1 n=61 v=75
119400 On ch=1 n=66 v=75
119400 On ch=1 n=57 v=75
119510 On ch=1 n=61 v=0
119510 On ch=1 n=76 v=0
119510 On ch=1 n=66 v=0
119510 On ch=1 n=57 v=0
119520 On ch=1 n=78 v=75
119520 On ch=1 n=64 v=75
119520 On ch=1 n=59 v=75
119520 On ch=1 n=55 v=75
119630 On ch=1 n=64 v=0
119630 On ch=1 n=59 v=0
119630 On ch=1 n=55 v=0
119640 On ch=1 n=54 v=75
119640 On ch=1 n=62 v=75
119640 On ch=1 n=57 v=75
119750 On ch=1 n=78 v=0
119750 On ch=1 n=54 v=0
119750 On ch=1 n=62 v=0
119750 On ch=1 n=57 v=0
119760 On ch=1 n=76 v=75
119760 On ch=1 n=62 v=75
119760 On ch=1 n=55 v=75
119760 On ch=1 n=45 v=75
119870 On ch=1 n=62 v=0
119880 On ch=1 n=61 v=75
119990 On ch=1 n=61 v=0
119990 On ch=1 n=55 v=0
120000 On ch=1 n=67 v=75
120000 On ch=1 n=57 v=75
120110 On ch=1 n=76 v=0
120110 On ch=1 n=67 v=0
120120 On ch=1 n=66 v=75
120120 On ch=1 n=74 v=75
120230 On ch=1 n=66 v=0
120230 On ch=1 n=74 v=0
120230 On ch=1 n=57 v=0
120230 On ch=1 n=45 v=0
120240 On ch=1 n=38 v=75
120240 On ch=1 n=74 v=75
120240 On ch=1 n=62 v=75
120240 On ch=1 n=54 v=75
120350 On ch=1 n=62 v=0
120360 On ch=1 n=66 v=75
120470 On ch=1 n=38 v=0
120470 On ch=1 n=66 v=0
120470 On ch=1 n=54 v=0
120480 On ch=1 n=45 v=75
120480 On ch=1 n=64 v=75
120590 On ch=1 n=64 v=0
120600 On ch=1 n=62 v=75
120636 On ch=1 n=62 v=0
120710 On ch=1 n=74 v=0
120720 On ch=1 n=61 v=75
120720 On ch=1 n=67 v=75
120720 On ch=1 n=76 v=75
120950 On ch=1 n=61 v=0
120960 On ch=1 n=64 v=75
121190 On ch=1 n=64 v=0
121190 On ch=1 n=67 v=0
121190 On ch=1 n=76 v=0
121200 On ch=1 n=78 v=75
121200 On ch=1 n=62 v=75
121200 On ch=1 n=69 v=75
121430 On ch=1 n=78 v=0
121430 On ch=1 n=62 v=0
121430 On ch=1 n=69 v=0
121440 On ch=1 n=59 v=75
121440 On ch=1 n=74 v=75
121479 On ch=1 n=45 v=0
121670 On ch=1 n=59 v=0
121670 On ch=1 n=74 v=0
121680 On ch=1 n=67 v=75
121680 On ch=1 n=45 v=75
121680 On ch=1 n=61 v=75
121680 On ch=1 n=76 v=75
121910 On ch=1 n=67 v=0
121910 On ch=1 n=76 v=0
121920 On ch=1 n=78 v=75
121920 On ch=1 n=66 v=75
122030 On ch=1 n=78 v=0
122030 On ch=1 n=66 v=0
122040 On ch=1 n=64 v=75
122040 On ch=1 n=79 v=75
122150 On ch=1 n=64 v=0
122150 On ch=1 n=61 v=0
122150 On ch=1 n=79 v=0
122160 On ch=1 n=78 v=75
122160 On ch=1 n=66 v=75
122160 On ch=1 n=62 v=75
122390 On ch=1 n=78 v=0
122390 On ch=1 n=66 v=0
122390 On ch=1 n=62 v=0
122400 On ch=1 n=74 v=75
122400 On ch=1 n=67 v=75
122400 On ch=1 n=64 v=75
122510 On ch=1 n=67 v=0
122510 On ch=1 n=64 v=0
122520 On ch=1 n=66 v=75
122520 On ch=1 n=69 v=75
122630 On ch=1 n=74 v=0
122639 On ch=1 n=45 v=0
122639 On ch=1 n=66 v=0
122639 On ch=1 n=69 v=0
122640 On ch=1 n=76 v=75
122640 On ch=1 n=71 v=75
122640 On ch=1 n=67 v=75
122640 On ch=1 n=57 v=75
122759 On ch=1 n=71 v=0
122760 On ch=1 n=73 v=75
122879 On ch=1 n=76 v=0
122879 On ch=1 n=73 v=0
122879 On ch=1 n=67 v=0
122880 On ch=1 n=66 v=75
122880 On ch=1 n=78 v=75
122880 On ch=1 n=74 v=75
122999 On ch=1 n=66 v=0
122999 On ch=1 n=78 v=0
122999 On ch=1 n=74 v=0
123000 On ch=1 n=64 v=75
123000 On ch=1 n=76 v=75
123000 On ch=1 n=79 v=75
123110 On ch=1 n=57 v=0
123119 On ch=1 n=64 v=0
123119 On ch=1 n=76 v=0
123119 On ch=1 n=79 v=0
123120 On ch=1 n=78 v=75
123120 On ch=1 n=74 v=75
123120 On ch=1 n=66 v=75
123230 On ch=1 n=66 v=0
123240 On ch=1 n=57 v=75
123350 On ch=1 n=78 v=0
123350 On ch=1 n=74 v=0
123350 On ch=1 n=57 v=0
123360 On ch=1 n=76 v=75
123360 On ch=1 n=73 v=75
123360 On ch=1 n=42 v=75
123360 On ch=1 n=58 v=75
123470 On ch=1 n=73 v=0
123480 On ch=1 n=64 v=75
123590 On ch=1 n=76 v=0
123590 On ch=1 n=64 v=0
123590 On ch=1 n=42 v=0
123590 On ch=1 n=58 v=0
123600 On ch=1 n=71 v=75
123600 On ch=1 n=59 v=75
123600 On ch=1 n=47 v=75
123600 On ch=1 n=74 v=75
123710 On ch=1 n=71 v=0
123720 On ch=1 n=62 v=78
123830 On ch=1 n=62 v=0
123830 On ch=1 n=59 v=0
123830 On ch=1 n=47 v=0
123830 On ch=1 n=74 v=0
123840 On ch=1 n=76 v=82
123840 On ch=1 n=43 v=82
123840 On ch=1 n=61 v=82
123840 On ch=1 n=58 v=82
123950 On ch=1 n=61 v=0
123960 On ch=1 n=70 v=85
124070 On ch=1 n=76 v=0
124070 On ch=1 n=70 v=0
124070 On ch=1 n=58 v=0
124080 On ch=1 n=69 v=89
124080 On ch=1 n=57 v=89
124200 On ch=1 n=64 v=92
124230 On ch=1 n=64 v=0
124310 On ch=1 n=69 v=0
124310 On ch=1 n=43 v=0
124310 On ch=1 n=57 v=0
124320 On ch=1 n=62 v=96
124320 On ch=1 n=69 v=96
124320 On ch=1 n=42 v=96
124320 On ch=1 n=78 v=96
124430 On ch=1 n=62 v=0
124430 On ch=1 n=69 v=0
124430 On ch=1 n=42 v=0
124440 On ch=1 n=67 v=100
124440 On ch=1 n=40 v=100
124550 On ch=1 n=67 v=0
124550 On ch=1 n=40 v=0
124560 On ch=1 n=66 v=75
124560 On ch=1 n=38 v=75
124560 On ch=1 n=57 v=75
124790 On ch=1 n=66 v=0
124790 On ch=1 n=38 v=0
124790 On ch=1 n=57 v=0
124790 On ch=1 n=78 v=0
124800 On ch=1 n=78 v=75
124800 On ch=1 n=74 v=75
124800 On ch=1 n=66 v=75
125030 On ch=1 n=78 v=0
125030 On ch=1 n=74 v=0
125030 On ch=1 n=66 v=0
125040 On ch=1 n=50 v=75
125040 On ch=1 n=67 v=75
125040 On ch=1 n=79 v=75
125040 On ch=1 n=60 v=75
125040 On ch=1 n=76 v=75
125270 On ch=1 n=67 v=0
125270 On ch=1 n=79 v=0
125270 On ch=1 n=76 v=0
125280 On ch=1 n=81 v=75
125280 On ch=1 n=78 v=75
125280 On ch=1 n=69 v=75
125510 On ch=1 n=81 v=0
125510 On ch=1 n=78 v=0
125510 On ch=1 n=60 v=0
125510 On ch=1 n=69 v=0
125520 On ch=1 n=74 v=75
125520 On ch=1 n=81 v=75
125520 On ch=1 n=59 v=75
125750 On ch=1 n=74 v=0
125750 On ch=1 n=81 v=0
125760 On ch=1 n=76 v=75
125760 On ch=1 n=79 v=75
125880 On ch=1 n=61 v=75
125990 On ch=1 n=50 v=0
125990 On ch=1 n=76 v=0
125990 On ch=1 n=79 v=0
125990 On ch=1 n=61 v=0
126000 On ch=1 n=50 v=75
126000 On ch=1 n=62 v=75
126000 On ch=1 n=78 v=75
126000 On ch=1 n=69 v=75
126230 On ch=1 n=62 v=0
126230 On ch=1 n=78 v=0
126230 On ch=1 n=69 v=0
126240 On ch=1 n=67 v=75
126240 On ch=1 n=76 v=75
126240 On ch=1 n=71 v=75
126350 On ch=1 n=71 v=0
126360 On ch=1 n=73 v=75
126470 On ch=1 n=67 v=0
126470 On ch=1 n=76 v=0
126470 On ch=1 n=59 v=0
126470 On ch=1 n=73 v=0
126480 On ch=1 n=50 v=75
126600 On ch=1 n=69 v=75
126710 On ch=1 n=50 v=0
126710 On ch=1 n=69 v=0
126720 On ch=1 n=71 v=75
126720 On ch=1 n=66 v=75
126720 On ch=1 n=62 v=75
126830 On ch=1 n=71 v=0
126830 On ch=1 n=66 v=0
126830 On ch=1 n=62 v=0
126840 On ch=1 n=61 v=75
126840 On ch=1 n=64 v=75
126840 On ch=1 n=69 v=75
126950 On ch=1 n=50 v=0
126950 On ch=1 n=61 v=0
126950 On ch=1 n=64 v=0
126950 On ch=1 n=69 v=0
126960 On ch=1 n=67 v=75
126960 On ch=1 n=76 v=75
126960 On ch=1 n=62 v=75
126960 On ch=1 n=59 v=75
127070 On ch=1 n=67 v=0
127070 On ch=1 n=62 v=0
127070 On ch=1 n=59 v=0
127080 On ch=1 n=61 v=75
127080 On ch=1 n=57 v=75
127080 On ch=1 n=66 v=75
127190 On ch=1 n=61 v=0
127190 On ch=1 n=76 v=0
127190 On ch=1 n=57 v=0
127190 On ch=1 n=66 v=0
127200 On ch=1 n=78 v=75
127200 On ch=1 n=64 v=75
127200 On ch=1 n=59 v=75
127200 On ch=1 n=55 v=75
127310 On ch=1 n=64 v=0
127310 On ch=1 n=59 v=0
127310 On ch=1 n=55 v=0
127320 On ch=1 n=54 v=75
127320 On ch=1 n=57 v=75
127320 On ch=1 n=62 v=75
127430 On ch=1 n=78 v=0
127430 On ch=1 n=54 v=0
127430 On ch=1 n=57 v=0
127430 On ch=1 n=62 v=0
127440 On ch=1 n=76 v=75
127440 On ch=1 n=45 v=75
127440 On ch=1 n=62 v=75
127440 On ch=1 n=55 v=75
127550 On ch=1 n=62 v=0
127560 On ch=1 n=61 v=75
127670 On ch=1 n=61 v=0
127670 On ch=1 n=55 v=0
127680 On ch=1 n=67 v=75
127680 On ch=1 n=57 v=75
127790 On ch=1 n=76 v=0
127790 On ch=1 n=67 v=0
127800 On ch=1 n=66 v=75
127800 On ch=1 n=74 v=75
127910 On ch=1 n=66 v=0
127910 On ch=1 n=45 v=0
127910 On ch=1 n=74 v=0
127910 On ch=1 n=57 v=0
127920 On ch=1 n=54 v=75
127920 On ch=1 n=38 v=75
127920 On ch=1 n=74 v=75
127920 On ch=1 n=62 v=75
128030 On ch=1 n=62 v=0
128040 On ch=1 n=66 v=75
128150 On ch=1 n=54 v=0
128150 On ch=1 n=38 v=0
128150 On ch=1 n=66 v=0
128160 On ch=1 n=64 v=75
128160 On ch=1 n=45 v=75
128270 On ch=1 n=64 v=0
128280 On ch=1 n=62 v=75
128390 On ch=1 n=62 v=0
128390 On ch=1 n=74 v=0
128400 On ch=1 n=67 v=75
128400 On ch=1 n=76 v=75
128400 On ch=1 n=61 v=75
128630 On ch=1 n=61 v=0
128640 On ch=1 n=64 v=75
128870 On ch=1 n=67 v=0
128870 On ch=1 n=76 v=0
128870 On ch=1 n=64 v=0
128880 On ch=1 n=78 v=76
128880 On ch=1 n=69 v=76
128880 On ch=1 n=62 v=76
129110 On ch=1 n=78 v=0
129110 On ch=1 n=69 v=0
129110 On ch=1 n=62 v=0
129120 On ch=1 n=74 v=77
129120 On ch=1 n=59 v=77
129159 On ch=1 n=45 v=0
129350 On ch=1 n=74 v=0
129350 On ch=1 n=59 v=0
129360 On ch=1 n=67 v=78
129360 On ch=1 n=76 v=78
129360 On ch=1 n=61 v=78
129360 On ch=1 n=45 v=78
129590 On ch=1 n=67 v=0
129590 On ch=1 n=76 v=0
129600 On ch=1 n=66 v=78
129600 On ch=1 n=78 v=78
129710 On ch=1 n=66 v=0
129710 On ch=1 n=78 v=0
129720 On ch=1 n=79 v=79
129720 On ch=1 n=64 v=79
129830 On ch=1 n=79 v=0
129830 On ch=1 n=64 v=0
129830 On ch=1 n=61 v=0
129840 On ch=1 n=62 v=79
129840 On ch=1 n=78 v=79
129840 On ch=1 n=66 v=79
130070 On ch=1 n=62 v=0
130070 On ch=1 n=78 v=0
130070 On ch=1 n=66 v=0
130080 On ch=1 n=67 v=80
130080 On ch=1 n=74 v=80
130080 On ch=1 n=64 v=80
130190 On ch=1 n=67 v=0
130190 On ch=1 n=64 v=0
130200 On ch=1 n=69 v=80
130200 On ch=1 n=66 v=80
130310 On ch=1 n=69 v=0
130310 On ch=1 n=74 v=0
130310 On ch=1 n=66 v=0
130310 On ch=1 n=45 v=0
130320 On ch=1 n=67 v=81
130320 On ch=1 n=76 v=81
130320 On ch=1 n=71 v=81
130320 On ch=1 n=57 v=81
130430 On ch=1 n=71 v=0
130440 On ch=1 n=73 v=81
130550 On ch=1 n=67 v=0
130550 On ch=1 n=76 v=0
130550 On ch=1 n=73 v=0
130560 On ch=1 n=66 v=82
130560 On ch=1 n=78 v=82
130560 On ch=1 n=74 v=82
130670 On ch=1 n=66 v=0
130670 On ch=1 n=78 v=0
130670 On ch=1 n=74 v=0
130680 On ch=1 n=79 v=82
130680 On ch=1 n=76 v=82
130680 On ch=1 n=64 v=82
130790 On ch=1 n=79 v=0
130790 On ch=1 n=76 v=0
130790 On ch=1 n=64 v=0
130790 On ch=1 n=57 v=0
130800 On ch=1 n=66 v=82
130800 On ch=1 n=78 v=82
130800 On ch=1 n=74 v=82
130910 On ch=1 n=66 v=0
130920 On ch=1 n=57 v=83
131030 On ch=1 n=57 v=0
131030 On ch=1 n=78 v=0
131030 On ch=1 n=74 v=0
131040 On ch=1 n=73 v=83
131040 On ch=1 n=58 v=83
131040 On ch=1 n=42 v=83
131040 On ch=1 n=76 v=83
131150 On ch=1 n=73 v=0
131160 On ch=1 n=64 v=84
131270 On ch=1 n=64 v=0
131270 On ch=1 n=58 v=0
131270 On ch=1 n=42 v=0
131270 On ch=1 n=76 v=0
131280 On ch=1 n=71 v=84
131280 On ch=1 n=74 v=84
131280 On ch=1 n=47 v=84
131280 On ch=1 n=59 v=84
131390 On ch=1 n=71 v=0
131400 On ch=1 n=62 v=84
131510 On ch=1 n=62 v=0
131510 On ch=1 n=74 v=0
131510 On ch=1 n=47 v=0
131510 On ch=1 n=59 v=0
131520 On ch=1 n=76 v=85
131520 On ch=1 n=61 v=85
131520 On ch=1 n=58 v=85
131520 On ch=1 n=43 v=85
131630 On ch=1 n=61 v=0
131640 On ch=1 n=70 v=85
131750 On ch=1 n=76 v=0
131750 On ch=1 n=70 v=0
131750 On ch=1 n=58 v=0
131760 On ch=1 n=69 v=86
131760 On ch=1 n=57 v=86
131880 On ch=1 n=64 v=86
131990 On ch=1 n=69 v=0
131990 On ch=1 n=57 v=0
131990 On ch=1 n=64 v=0
131990 On ch=1 n=43 v=0
132000 On ch=1 n=62 v=86
132000 On ch=1 n=42 v=86
132000 On ch=1 n=69 v=86
132000 On ch=1 n=78 v=86
132110 On ch=1 n=62 v=0
132110 On ch=1 n=42 v=0
132110 On ch=1 n=69 v=0
132120 On ch=1 n=40 v=87
132120 On ch=1 n=67 v=87
132157 On ch=1 n=40 v=0
132179 On ch=1 n=67 v=0
132240 On ch=1 n=66 v=87
132240 On ch=1 n=38 v=87
132240 On ch=1 n=57 v=87
132470 On ch=1 n=66 v=0
132470 On ch=1 n=78 v=0
132480 On ch=1 n=78 v=88
132480 On ch=1 n=74 v=88
132480 On ch=1 n=66 v=88
132710 On ch=1 n=78 v=0
132710 On ch=1 n=38 v=0
132710 On ch=1 n=57 v=0
132710 On ch=1 n=74 v=0
132710 On ch=1 n=66 v=0
132720 On ch=1 n=67 v=89
132720 On ch=1 n=76 v=89
132720 On ch=1 n=79 v=89
132720 On ch=1 n=50 v=89
132720 On ch=1 n=60 v=89
132950 On ch=1 n=67 v=0
132950 On ch=1 n=76 v=0
132950 On ch=1 n=79 v=0
132960 On ch=1 n=78 v=90
132960 On ch=1 n=81 v=90
132960 On ch=1 n=69 v=90
133190 On ch=1 n=78 v=0
133190 On ch=1 n=81 v=0
133190 On ch=1 n=69 v=0
133190 On ch=1 n=60 v=0
133200 On ch=1 n=81 v=90
133200 On ch=1 n=74 v=90
133200 On ch=1 n=59 v=90
133430 On ch=1 n=81 v=0
133430 On ch=1 n=74 v=0
133440 On ch=1 n=79 v=91
133440 On ch=1 n=76 v=91
133550 On ch=1 n=59 v=0
133560 On ch=1 n=61 v=92
133670 On ch=1 n=79 v=0
133670 On ch=1 n=76 v=0
133670 On ch=1 n=61 v=0
133670 On ch=1 n=50 v=0
133680 On ch=1 n=78 v=92
133680 On ch=1 n=69 v=92
133680 On ch=1 n=50 v=92
133680 On ch=1 n=62 v=92
133910 On ch=1 n=78 v=0
133910 On ch=1 n=69 v=0
133910 On ch=1 n=62 v=0
133920 On ch=1 n=67 v=93
133920 On ch=1 n=76 v=93
133920 On ch=1 n=71 v=93
134030 On ch=1 n=71 v=0
134040 On ch=1 n=73 v=93
134150 On ch=1 n=76 v=0
134150 On ch=1 n=73 v=0
134160 On ch=1 n=74 v=94
134280 On ch=1 n=69 v=94
134390 On ch=1 n=67 v=0
134390 On ch=1 n=50 v=0
134390 On ch=1 n=69 v=0
134400 On ch=1 n=66 v=94
134400 On ch=1 n=71 v=94
134400 On ch=1 n=62 v=94
134510 On ch=1 n=66 v=0
134510 On ch=1 n=71 v=0
134510 On ch=1 n=62 v=0
134520 On ch=1 n=69 v=95
134520 On ch=1 n=61 v=95
134520 On ch=1 n=64 v=95
134630 On ch=1 n=69 v=0
134630 On ch=1 n=74 v=0
134630 On ch=1 n=61 v=0
134630 On ch=1 n=64 v=0
134640 On ch=1 n=67 v=95
134640 On ch=1 n=62 v=95
134640 On ch=1 n=76 v=95
134640 On ch=1 n=59 v=95
134750 On ch=1 n=67 v=0
134750 On ch=1 n=62 v=0
134750 On ch=1 n=59 v=0
134760 On ch=1 n=66 v=96
134760 On ch=1 n=61 v=96
134760 On ch=1 n=57 v=96
134870 On ch=1 n=66 v=0
134870 On ch=1 n=61 v=0
134870 On ch=1 n=76 v=0
134870 On ch=1 n=57 v=0
134880 On ch=1 n=78 v=96
134880 On ch=1 n=64 v=96
134880 On ch=1 n=55 v=96
134880 On ch=1 n=59 v=96
134990 On ch=1 n=64 v=0
134990 On ch=1 n=55 v=0
134990 On ch=1 n=59 v=0
135000 On ch=1 n=54 v=96
135000 On ch=1 n=62 v=96
135000 On ch=1 n=57 v=96
135110 On ch=1 n=78 v=0
135110 On ch=1 n=54 v=0
135110 On ch=1 n=62 v=0
135110 On ch=1 n=57 v=0
135120 On ch=1 n=76 v=97
135120 On ch=1 n=62 v=97
135120 On ch=1 n=45 v=97
135120 On ch=1 n=55 v=97
135230 On ch=1 n=62 v=0
135240 On ch=1 n=61 v=97
135350 On ch=1 n=61 v=0
135350 On ch=1 n=55 v=0
135360 On ch=1 n=67 v=98
135360 On ch=1 n=57 v=98
135470 On ch=1 n=76 v=0
135470 On ch=1 n=67 v=0
135480 On ch=1 n=66 v=98
135480 On ch=1 n=74 v=98
135590 On ch=1 n=66 v=0
135590 On ch=1 n=74 v=0
135590 On ch=1 n=45 v=0
135590 On ch=1 n=57 v=0
135600 On ch=1 n=38 v=98
135600 On ch=1 n=74 v=98
135600 On ch=1 n=62 v=98
135600 On ch=1 n=54 v=98
135710 On ch=1 n=38 v=0
135710 On ch=1 n=62 v=0
135710 On ch=1 n=54 v=0
135720 On ch=1 n=59 v=99
135720 On ch=1 n=55 v=99
135720 On ch=1 n=71 v=99
135830 On ch=1 n=59 v=0
135830 On ch=1 n=55 v=0
135830 On ch=1 n=71 v=0
135840 On ch=1 n=54 v=99
135840 On ch=1 n=57 v=99
135840 On ch=1 n=69 v=99
135950 On ch=1 n=54 v=0
135950 On ch=1 n=57 v=0
135950 On ch=1 n=69 v=0
135960 On ch=1 n=52 v=100
135960 On ch=1 n=55 v=100
135960 On ch=1 n=67 v=100
136070 On ch=1 n=52 v=0
136070 On ch=1 n=74 v=0
136070 On ch=1 n=55 v=0
136070 On ch=1 n=67 v=0
136080 On ch=1 n=50 v=100
136080 On ch=1 n=57 v=100
136080 On ch=1 n=62 v=100
136080 On ch=1 n=78 v=100
136080 On ch=1 n=66 v=100
136080 On ch=1 n=86 v=100
136080 On ch=1 n=90 v=100
136172 Par ch=1 c=64 v=127
136310 On ch=1 n=50 v=0
136310 On ch=1 n=57 v=0
136310 On ch=1 n=62 v=0
136440 On ch=1 n=38 v=100
136440 On ch=1 n=50 v=100
136550 On ch=1 n=38 v=0
136550 On ch=1 n=50 v=0
136550 On ch=1 n=78 v=0
136550 On ch=1 n=66 v=0
136550 On ch=1 n=86 v=0
136550 On ch=1 n=90 v=0
136560 On ch=1 n=88 v=100
136560 On ch=1 n=91 v=100
136560 On ch=1 n=79 v=100
136560 On ch=1 n=50 v=100
136560 On ch=1 n=62 v=100
136790 On ch=1 n=88 v=0
136790 On ch=1 n=91 v=0
136790 On ch=1 n=79 v=0
136790 On ch=1 n=50 v=0
136790 On ch=1 n=62 v=0
136800 On ch=1 n=50 v=100
136800 On ch=1 n=90 v=100
136800 On ch=1 n=81 v=100
136800 On ch=1 n=93 v=100
136920 On ch=1 n=38 v=100
136920 On ch=1 n=50 v=100
136965 Par ch=1 c=64 v=0
137030 On ch=1 n=50 v=0
137030 On ch=1 n=90 v=0
137030 On ch=1 n=81 v=0
137030 On ch=1 n=93 v=0
137030 On ch=1 n=38 v=0
137030 On ch=1 n=50 v=0
137040 On ch=1 n=90 v=100
137040 On ch=1 n=57 v=100
137040 On ch=1 n=69 v=100
137040 On ch=1 n=81 v=100
137040 On ch=1 n=93 v=100
137151 Par ch=1 c=64 v=127
137270 On ch=1 n=90 v=0
137270 On ch=1 n=57 v=0
137270 On ch=1 n=69 v=0
137270 On ch=1 n=81 v=0
137270 On ch=1 n=93 v=0
137280 On ch=1 n=88 v=100
137280 On ch=1 n=91 v=100
137280 On ch=1 n=79 v=100
137400 On ch=1 n=45 v=100
137400 On ch=1 n=57 v=100
137510 On ch=1 n=88 v=0
137510 On ch=1 n=91 v=0
137510 On ch=1 n=79 v=0
137510 On ch=1 n=45 v=0
137510 On ch=1 n=57 v=0
137520 On ch=1 n=78 v=100
137520 On ch=1 n=69 v=100
137520 On ch=1 n=90 v=100
137520 On ch=1 n=57 v=100
137520 On ch=1 n=86 v=100
137630 On ch=1 n=78 v=0
137630 On ch=1 n=69 v=0
137630 On ch=1 n=90 v=0
137630 On ch=1 n=57 v=0
137630 On ch=1 n=86 v=0
137691 Par ch=1 c=64 v=0
137760 On ch=1 n=88 v=100
137760 On ch=1 n=76 v=100
137760 On ch=1 n=81 v=100
137870 On ch=1 n=88 v=0
137870 On ch=1 n=76 v=0
137870 On ch=1 n=81 v=0
137880 On ch=1 n=57 v=100
137880 On ch=1 n=45 v=100
137990 On ch=1 n=57 v=0
137990 On ch=1 n=45 v=0
138000 On ch=1 n=78 v=100
138000 On ch=1 n=74 v=100
138000 On ch=1 n=86 v=100
138000 On ch=1 n=38 v=100
138000 On ch=1 n=50 v=100
138060 Par ch=1 c=64 v=127
138230 On ch=1 n=78 v=0
138230 On ch=1 n=74 v=0
138230 On ch=1 n=86 v=0
138230 On ch=1 n=38 v=0
138230 On ch=1 n=50 v=0
138240 On ch=1 n=78 v=100
138240 On ch=1 n=86 v=100
138240 On ch=1 n=74 v=100
138240 On ch=1 n=62 v=100
138240 On ch=1 n=50 v=100
138240 On ch=1 n=57 v=100
138240 On ch=1 n=54 v=100
138470 On ch=1 n=78 v=0
138470 On ch=1 n=86 v=0
138470 On ch=1 n=74 v=0
138470 On ch=1 n=62 v=0
138470 On ch=1 n=50 v=0
138470 On ch=1 n=57 v=0
138470 On ch=1 n=54 v=0
138480 On ch=1 n=81 v=100
138480 On ch=1 n=64 v=100
138480 On ch=1 n=76 v=100
138480 On ch=1 n=88 v=100
138480 On ch=1 n=49 v=100
138480 On ch=1 n=57 v=100
138557 Par ch=1 c=64 v=0
138710 On ch=1 n=81 v=0
138710 On ch=1 n=64 v=0
138710 On ch=1 n=76 v=0
138710 On ch=1 n=88 v=0
138710 On ch=1 n=49 v=0
138710 On ch=1 n=57 v=0
138720 On ch=1 n=66 v=100
138720 On ch=1 n=78 v=100
138720 On ch=1 n=86 v=100
138720 On ch=1 n=50 v=100
138720 On ch=1 n=90 v=100
138720 On ch=1 n=57 v=100
138950 On ch=1 n=66 v=0
138950 On ch=1 n=78 v=0
138950 On ch=1 n=86 v=0
138950 On ch=1 n=50 v=0
138950 On ch=1 n=90 v=0
138950 On ch=1 n=57 v=0
138960 On ch=1 n=66 v=100
138960 On ch=1 n=78 v=100
138960 On ch=1 n=90 v=100
138960 On ch=1 n=86 v=100
138960 On ch=1 n=62 v=100
138960 On ch=1 n=57 v=100
139024 Par ch=1 c=64 v=127
139290 On ch=1 n=66 v=0
139290 On ch=1 n=78 v=0
139290 On ch=1 n=90 v=0
139290 On ch=1 n=86 v=0
139290 On ch=1 n=62 v=0
139290 On ch=1 n=57 v=0
139320 On ch=1 n=57 v=100
139320 On ch=1 n=85 v=100
139320 On ch=1 n=64 v=100
139320 On ch=1 n=88 v=100
139320 On ch=1 n=76 v=100
139320 On ch=1 n=61 v=100
139416 Par ch=1 c=64 v=0
139440 On ch=1 n=45 v=100
139440 On ch=1 n=85 v=100
139440 On ch=1 n=88 v=100
139440 On ch=1 n=76 v=100
139440 On ch=1 n=61 v=100
139440 On ch=1 n=57 v=100
139440 On ch=1 n=64 v=100
139532 Par ch=1 c=64 v=127
139859 Par ch=1 c=64 v=0
139910 On ch=1 n=45 v=0
139910 On ch=1 n=85 v=0
139910 On ch=1 n=88 v=0
139910 On ch=1 n=76 v=0
139910 On ch=1 n=61 v=0
139910 On ch=1 n=57 v=0
139910 On ch=1 n=64 v=0
139919 On ch=1 n=57 v=0
139919 On ch=1 n=85 v=0
139919 On ch=1 n=64 v=0
139919 On ch=1 n=88 v=0
139919 On ch=1 n=76 v=0
139919 On ch=1 n=61 v=0
139920 On ch=1 n=50 v=100
139920 On ch=1 n=57 v=100
139920 On ch=1 n=62 v=100
139920 On ch=1 n=78 v=100
139920 On ch=1 n=90 v=100
139920 On ch=1 n=86 v=100
139920 On ch=1 n=66 v=100
139941 Par ch=1 c=64 v=127
140150 On ch=1 n=50 v=0
140150 On ch=1 n=57 v=0
140150 On ch=1 n=62 v=0
140150 On ch=1 n=66 v=0
140280 On ch=1 n=38 v=100
140280 On ch=1 n=50 v=100
140390 On ch=1 n=38 v=0
140390 On ch=1 n=50 v=0
140390 On ch=1 n=78 v=0
140390 On ch=1 n=90 v=0
140390 On ch=1 n=86 v=0
140400 On ch=1 n=50 v=100
140400 On ch=1 n=62 v=100
140400 On ch=1 n=88 v=100
140400 On ch=1 n=91 v=100
140400 On ch=1 n=79 v=100
140630 On ch=1 n=50 v=0
140630 On ch=1 n=62 v=0
140630 On ch=1 n=88 v=0
140630 On ch=1 n=91 v=0
140630 On ch=1 n=79 v=0
140640 On ch=1 n=90 v=100
140640 On ch=1 n=81 v=100
140640 On ch=1 n=93 v=100
140661 Par ch=1 c=64 v=0
140760 On ch=1 n=38 v=100
140760 On ch=1 n=50 v=100
140870 On ch=1 n=90 v=0
140870 On ch=1 n=81 v=0
140870 On ch=1 n=93 v=0
140870 On ch=1 n=38 v=0
140870 On ch=1 n=50 v=0
140880 On ch=1 n=90 v=100
140880 On ch=1 n=93 v=100
140880 On ch=1 n=81 v=100
140880 On ch=1 n=57 v=100
140880 On ch=1 n=69 v=100
140948 Par ch=1 c=64 v=127
141000 On ch=1 n=57 v=0
141000 On ch=1 n=69 v=0
141110 On ch=1 n=90 v=0
141110 On ch=1 n=93 v=0
141110 On ch=1 n=81 v=0
141120 On ch=1 n=91 v=100
141120 On ch=1 n=79 v=100
141120 On ch=1 n=88 v=100
141240 On ch=1 n=57 v=100
141240 On ch=1 n=45 v=100
141350 On ch=1 n=91 v=0
141350 On ch=1 n=79 v=0
141350 On ch=1 n=88 v=0
141350 On ch=1 n=57 v=0
141350 On ch=1 n=45 v=0
141360 On ch=1 n=90 v=100
141360 On ch=1 n=78 v=100
141360 On ch=1 n=86 v=100
141360 On ch=1 n=57 v=100
141360 On ch=1 n=69 v=100
141386 Par ch=1 c=64 v=0
141480 On ch=1 n=90 v=0
141480 On ch=1 n=78 v=0
141480 On ch=1 n=86 v=0
141480 On ch=1 n=57 v=0
141480 On ch=1 n=69 v=0
141600 On ch=1 n=88 v=100
141600 On ch=1 n=76 v=100
141600 On ch=1 n=81 v=100
141720 On ch=1 n=57 v=100
141720 On ch=1 n=45 v=100
141720 On ch=1 n=88 v=0
141720 On ch=1 n=76 v=0
141720 On ch=1 n=81 v=0
141830 On ch=1 n=57 v=0
141830 On ch=1 n=45 v=0
141840 On ch=1 n=38 v=100
141840 On ch=1 n=86 v=100
141840 On ch=1 n=78 v=100
141840 On ch=1 n=74 v=100
141840 On ch=1 n=50 v=100
141914 Par ch=1 c=64 v=127
142070 On ch=1 n=38 v=0
142070 On ch=1 n=86 v=0
142070 On ch=1 n=78 v=0
142070 On ch=1 n=74 v=0
142070 On ch=1 n=50 v=0
142080 On ch=1 n=57 v=100
142080 On ch=1 n=78 v=100
142080 On ch=1 n=86 v=100
142080 On ch=1 n=62 v=100
142080 On ch=1 n=74 v=100
142080 On ch=1 n=50 v=100
142080 On ch=1 n=54 v=100
142310 On ch=1 n=57 v=0
142310 On ch=1 n=78 v=0
142310 On ch=1 n=86 v=0
142310 On ch=1 n=62 v=0
142310 On ch=1 n=74 v=0
142310 On ch=1 n=50 v=0
142310 On ch=1 n=54 v=0
142320 On ch=1 n=81 v=100
142320 On ch=1 n=76 v=100
142320 On ch=1 n=88 v=100
142320 On ch=1 n=49 v=100
142320 On ch=1 n=64 v=100
142320 On ch=1 n=57 v=100
142355 Par ch=1 c=64 v=0
142550 On ch=1 n=81 v=0
142550 On ch=1 n=76 v=0
142550 On ch=1 n=88 v=0
142550 On ch=1 n=49 v=0
142550 On ch=1 n=64 v=0
142550 On ch=1 n=57 v=0
142560 On ch=1 n=66 v=100
142560 On ch=1 n=50 v=100
142560 On ch=1 n=90 v=100
142560 On ch=1 n=57 v=100
142560 On ch=1 n=86 v=100
142560 On ch=1 n=78 v=100
142790 On ch=1 n=66 v=0
142790 On ch=1 n=50 v=0
142790 On ch=1 n=90 v=0
142790 On ch=1 n=57 v=0
142790 On ch=1 n=86 v=0
142790 On ch=1 n=78 v=0
142800 On ch=1 n=88 v=100
142800 On ch=1 n=81 v=100
142800 On ch=1 n=76 v=100
142800 On ch=1 n=61 v=100
142800 On ch=1 n=69 v=100
142800 On ch=1 n=64 v=100
142800 On ch=1 n=57 v=100
142889 Par ch=1 c=64 v=127
143150 On ch=1 n=88 v=0
143150 On ch=1 n=81 v=0
143150 On ch=1 n=76 v=0
143150 On ch=1 n=61 v=0
143150 On ch=1 n=69 v=0
143150 On ch=1 n=64 v=0
143150 On ch=1 n=57 v=0
143160 On ch=1 n=78 v=100
143160 On ch=1 n=86 v=100
143160 On ch=1 n=74 v=100
143160 On ch=1 n=50 v=100
143160 On ch=1 n=54 v=100
143160 On ch=1 n=62 v=100
143160 On ch=1 n=57 v=100
143219 Par ch=1 c=64 v=0
143270 On ch=1 n=78 v=0
143270 On ch=1 n=86 v=0
143270 On ch=1 n=74 v=0
143270 On ch=1 n=50 v=0
143270 On ch=1 n=54 v=0
143270 On ch=1 n=62 v=0
143270 On ch=1 n=57 v=0
143280 On ch=1 n=78 v=100
143280 On ch=1 n=86 v=100
143280 On ch=1 n=74 v=100
143280 On ch=1 n=62 v=100
143280 On ch=1 n=57 v=100
143280 On ch=1 n=50 v=100
143280 On ch=1 n=54 v=100
143357 Par ch=1 c=64 v=127
143510 On ch=1 n=78 v=0
143510 On ch=1 n=86 v=0
143510 On ch=1 n=74 v=0
143510 On ch=1 n=62 v=0
143510 On ch=1 n=57 v=0
143510 On ch=1 n=50 v=0
143510 On ch=1 n=54 v=0
143675 Par ch=1 c=64 v=0
143760 On ch=1 n=85 v=100
143760 On ch=1 n=76 v=100
143760 On ch=1 n=88 v=100
143760 On ch=1 n=81 v=100
143760 On ch=1 n=64 v=100
143760 On ch=1 n=57 v=100
143760 On ch=1 n=61 v=100
143875 Par ch=1 c=64 v=127
143990 On ch=1 n=64 v=0
143990 On ch=1 n=57 v=0
143990 On ch=1 n=61 v=0
144120 On ch=1 n=45 v=100
144120 On ch=1 n=33 v=100
144230 On ch=1 n=85 v=0
144230 On ch=1 n=76 v=0
144230 On ch=1 n=88 v=0
144230 On ch=1 n=81 v=0
144230 On ch=1 n=45 v=0
144230 On ch=1 n=33 v=0
144240 On ch=1 n=78 v=100
144240 On ch=1 n=90 v=100
144240 On ch=1 n=57 v=100
144240 On ch=1 n=86 v=100
144240 On ch=1 n=45 v=100
144250 Par ch=1 c=64 v=0
144360 On ch=1 n=57 v=0
144360 On ch=1 n=45 v=0
144470 On ch=1 n=78 v=0
144470 On ch=1 n=90 v=0
144470 On ch=1 n=86 v=0
144480 On ch=1 n=78 v=100
144480 On ch=1 n=81 v=100
144480 On ch=1 n=74 v=100
144480 On ch=1 n=86 v=100
144480 On ch=1 n=50 v=100
144480 On ch=1 n=57 v=100
144480 On ch=1 n=62 v=100
144480 On ch=1 n=54 v=100
144689 Par ch=1 c=64 v=127
144710 On ch=1 n=78 v=0
144710 On ch=1 n=81 v=0
144710 On ch=1 n=74 v=0
144710 On ch=1 n=86 v=0
144710 On ch=1 n=50 v=0
144710 On ch=1 n=57 v=0
144710 On ch=1 n=62 v=0
144710 On ch=1 n=54 v=0
144720 On ch=1 n=85 v=100
144720 On ch=1 n=81 v=100
144720 On ch=1 n=88 v=100
144720 On ch=1 n=76 v=100
144720 On ch=1 n=57 v=100
144720 On ch=1 n=61 v=100
144720 On ch=1 n=69 v=100
144720 On ch=1 n=64 v=100
144822 Par ch=1 c=64 v=0
144950 On ch=1 n=85 v=0
144950 On ch=1 n=81 v=0
144950 On ch=1 n=88 v=0
144950 On ch=1 n=76 v=0
144950 On ch=1 n=57 v=0
144950 On ch=1 n=61 v=0
144950 On ch=1 n=69 v=0
144950 On ch=1 n=64 v=0
144960 On ch=1 n=78 v=100
144960 On ch=1 n=90 v=100
144960 On ch=1 n=86 v=100
145070 On ch=1 n=78 v=0
145070 On ch=1 n=90 v=0
145070 On ch=1 n=86 v=0
145080 On ch=1 n=33 v=100
145080 On ch=1 n=91 v=100
145080 On ch=1 n=88 v=100
145080 On ch=1 n=79 v=100
145080 On ch=1 n=45 v=100
145190 On ch=1 n=33 v=0
145190 On ch=1 n=91 v=0
145190 On ch=1 n=88 v=0
145190 On ch=1 n=79 v=0
145190 On ch=1 n=45 v=0
145200 On ch=1 n=90 v=100
145200 On ch=1 n=86 v=100
145200 On ch=1 n=78 v=100
145200 On ch=1 n=45 v=100
145200 On ch=1 n=57 v=100
145370 On ch=1 n=90 v=0
145370 On ch=1 n=86 v=0
145370 On ch=1 n=78 v=0
145370 On ch=1 n=45 v=0
145370 On ch=1 n=57 v=0
145440 On ch=1 n=86 v=100
145440 On ch=1 n=74 v=100
145440 On ch=1 n=78 v=100
145440 On ch=1 n=81 v=100
145440 On ch=1 n=57 v=100
145440 On ch=1 n=62 v=100
145440 On ch=1 n=54 v=100
145440 On ch=1 n=50 v=100
145610 On ch=1 n=86 v=0
145610 On ch=1 n=74 v=0
145610 On ch=1 n=78 v=0
145610 On ch=1 n=81 v=0
145610 On ch=1 n=57 v=0
145610 On ch=1 n=62 v=0
145610 On ch=1 n=54 v=0
145610 On ch=1 n=50 v=0
145680 On ch=1 n=85 v=100
145680 On ch=1 n=76 v=100
145680 On ch=1 n=81 v=100
145680 On ch=1 n=88 v=100
145680 On ch=1 n=64 v=100
145680 On ch=1 n=69 v=100
145680 On ch=1 n=61 v=100
145680 On ch=1 n=57 v=100
145910 On ch=1 n=85 v=0
145910 On ch=1 n=76 v=0
145910 On ch=1 n=81 v=0
145910 On ch=1 n=88 v=0
145910 On ch=1 n=64 v=0
145910 On ch=1 n=69 v=0
145910 On ch=1 n=61 v=0
145910 On ch=1 n=57 v=0
145920 On ch=1 n=78 v=100
145920 On ch=1 n=90 v=100
145920 On ch=1 n=86 v=100
146030 On ch=1 n=78 v=0
146030 On ch=1 n=90 v=0
146030 On ch=1 n=86 v=0
146040 On ch=1 n=91 v=100
146040 On ch=1 n=88 v=100
146040 On ch=1 n=79 v=100
146040 On ch=1 n=45 v=100
146040 On ch=1 n=57 v=100
146150 On ch=1 n=91 v=0
146150 On ch=1 n=88 v=0
146150 On ch=1 n=79 v=0
146150 On ch=1 n=45 v=0
146150 On ch=1 n=57 v=0
146160 On ch=1 n=46 v=100
146160 On ch=1 n=85 v=100
146160 On ch=1 n=90 v=100
146160 On ch=1 n=58 v=100
146160 On ch=1 n=78 v=100
146270 On ch=1 n=46 v=0
146270 On ch=1 n=58 v=0
146390 On ch=1 n=85 v=0
146390 On ch=1 n=90 v=0
146390 On ch=1 n=78 v=0
146400 On ch=1 n=85 v=100
146400 On ch=1 n=54 v=100
146400 On ch=1 n=76 v=100
146400 On ch=1 n=42 v=100
146400 On ch=1 n=88 v=100
146510 On ch=1 n=54 v=0
146510 On ch=1 n=42 v=0
146630 On ch=1 n=85 v=0
146630 On ch=1 n=76 v=0
146630 On ch=1 n=88 v=0
146640 On ch=1 n=83 v=100
146640 On ch=1 n=86 v=100
146640 On ch=1 n=47 v=100
146640 On ch=1 n=59 v=100
146640 On ch=1 n=74 v=100
146732 Par ch=1 c=64 v=127
146760 On ch=1 n=83 v=0
146760 On ch=1 n=86 v=0
146760 On ch=1 n=47 v=0
146760 On ch=1 n=59 v=0
146760 On ch=1 n=74 v=0
146880 On ch=1 n=88 v=100
146880 On ch=1 n=80 v=100
146880 On ch=1 n=76 v=100
146880 On ch=1 n=40 v=100
146880 On ch=1 n=52 v=100
147000 On ch=1 n=88 v=0
147000 On ch=1 n=80 v=0
147000 On ch=1 n=76 v=0
147000 On ch=1 n=40 v=0
147000 On ch=1 n=52 v=0
147074 Par ch=1 c=64 v=0
147120 On ch=1 n=69 v=100
147120 On ch=1 n=81 v=100
147120 On ch=1 n=57 v=100
147120 On ch=1 n=45 v=100
147240 On ch=1 n=69 v=0
147240 On ch=1 n=81 v=0
147240 On ch=1 n=57 v=0
147240 On ch=1 n=45 v=0
147253 Par ch=1 c=64 v=127
147360 On ch=1 n=66 v=100
147360 On ch=1 n=90 v=100
147360 On ch=1 n=81 v=100
147360 On ch=1 n=78 v=100
147360 On ch=1 n=86 v=100
147360 On ch=1 n=62 v=100
147360 On ch=1 n=57 v=100
147429 Par ch=1 c=64 v=0
147444 On ch=1 n=62 v=0
147446 On ch=1 n=66 v=0
147452 On ch=1 n=57 v=0
147600 On ch=1 n=38 v=100
147600 On ch=1 n=50 v=100
147673 On ch=1 n=81 v=0
147698 On ch=1 n=86 v=0
147727 On ch=1 n=90 v=0
147729 On ch=1 n=78 v=0
147840 On ch=1 n=78 v=100
147840 On ch=1 n=90 v=100
147840 On ch=1 n=86 v=100
147902 On ch=1 n=38 v=0
147902 On ch=1 n=50 v=0
147954 On ch=1 n=86 v=0
147960 On ch=1 n=50 v=100
147960 On ch=1 n=38 v=100
147969 On ch=1 n=38 v=0
147974 On ch=1 n=50 v=0
147976 On ch=1 n=78 v=0
147976 On ch=1 n=90 v=0
148080 On ch=1 n=88 v=100
148080 On ch=1 n=50 v=100
148080 On ch=1 n=79 v=100
148080 On ch=1 n=91 v=100
148080 On ch=1 n=62 v=100
148186 On ch=1 n=62 v=0
148213 On ch=1 n=88 v=0
148218 On ch=1 n=79 v=0
148224 On ch=1 n=91 v=0
148320 On ch=1 n=90 v=100
148320 On ch=1 n=81 v=100
148320 On ch=1 n=93 v=100
148351 On ch=1 n=50 v=0
148440 On ch=1 n=38 v=100
148440 On ch=1 n=50 v=100
148451 On ch=1 n=90 v=0
148451 On ch=1 n=50 v=0
148454 On ch=1 n=38 v=0
148454 On ch=1 n=81 v=0
148454 On ch=1 n=93 v=0
148560 On ch=1 n=90 v=100
148560 On ch=1 n=81 v=100
148560 On ch=1 n=93 v=100
148560 On ch=1 n=57 v=100
148560 On ch=1 n=69 v=100
148648 On ch=1 n=69 v=0
148662 On ch=1 n=93 v=0
148672 On ch=1 n=90 v=0
148707 On ch=1 n=81 v=0
148789 On ch=1 n=57 v=0
148800 On ch=1 n=79 v=100
148800 On ch=1 n=91 v=100
148800 On ch=1 n=88 v=100
148857 On ch=1 n=88 v=0
148863 On ch=1 n=91 v=0
148886 On ch=1 n=79 v=0
148920 On ch=1 n=45 v=100
148920 On ch=1 n=57 v=100
148939 On ch=1 n=57 v=0
148943 On ch=1 n=45 v=0
149040 On ch=1 n=78 v=100
149040 On ch=1 n=90 v=100
149040 On ch=1 n=86 v=100
149040 On ch=1 n=57 v=100
149040 On ch=1 n=69 v=100
149123 On ch=1 n=69 v=0
149141 On ch=1 n=86 v=0
149157 Par ch=1 c=64 v=127
149157 On ch=1 n=90 v=0
149173 On ch=1 n=78 v=0
149223 On ch=1 n=57 v=0
149280 On ch=1 n=57 v=100
149280 On ch=1 n=88 v=100
149280 On ch=1 n=81 v=100
149280 On ch=1 n=76 v=100
149332 Par ch=1 c=64 v=0
149343 On ch=1 n=57 v=0
149375 On ch=1 n=88 v=0
149381 On ch=1 n=81 v=0
149400 On ch=1 n=57 v=100
149400 On ch=1 n=45 v=100
149403 On ch=1 n=76 v=0
149415 On ch=1 n=57 v=0
149425 On ch=1 n=45 v=0
149520 On ch=1 n=86 v=100
149520 On ch=1 n=78 v=100
149520 On ch=1 n=74 v=100
149520 On ch=1 n=50 v=100
149520 On ch=1 n=38 v=100
149572 On ch=1 n=38 v=0
149604 On ch=1 n=50 v=0
149627 On ch=1 n=86 v=0
149651 On ch=1 n=78 v=0
149651 On ch=1 n=74 v=0
149760 On ch=1 n=86 v=100
149760 On ch=1 n=78 v=100
149760 On ch=1 n=74 v=100
149760 On ch=1 n=54 v=100
149760 On ch=1 n=50 v=100
149760 On ch=1 n=62 v=100
149868 On ch=1 n=78 v=0
149868 On ch=1 n=50 v=0
149868 On ch=1 n=62 v=0
149879 On ch=1 n=74 v=0
149879 On ch=1 n=54 v=0
149881 On ch=1 n=86 v=0
150000 On ch=1 n=88 v=100
150000 On ch=1 n=49 v=100
150000 On ch=1 n=81 v=100
150000 On ch=1 n=64 v=100
150000 On ch=1 n=76 v=100
150000 On ch=1 n=57 v=100
150109 On ch=1 n=49 v=0
150113 On ch=1 n=88 v=0
150118 On ch=1 n=76 v=0
150120 On ch=1 n=64 v=0
150123 On ch=1 n=57 v=0
150125 On ch=1 n=81 v=0
150240 On ch=1 n=66 v=100
150240 On ch=1 n=50 v=100
150240 On ch=1 n=57 v=100
150240 On ch=1 n=78 v=100
150240 On ch=1 n=90 v=100
150240 On ch=1 n=86 v=100
150316 On ch=1 n=50 v=0
150325 On ch=1 n=57 v=0
150340 On ch=1 n=86 v=0
150349 On ch=1 n=90 v=0
150352 On ch=1 n=66 v=0
150360 On ch=1 n=78 v=0
150480 On ch=1 n=76 v=100
150480 On ch=1 n=81 v=100
150480 On ch=1 n=88 v=100
150480 On ch=1 n=61 v=100
150480 On ch=1 n=64 v=100
150480 On ch=1 n=69 v=100
150480 On ch=1 n=57 v=100
150706 On ch=1 n=64 v=0
150706 On ch=1 n=69 v=0
150712 On ch=1 n=88 v=0
150716 On ch=1 n=61 v=0
150716 On ch=1 n=57 v=0
150733 On ch=1 n=81 v=0
150742 On ch=1 n=76 v=0
150840 On ch=1 n=86 v=100
150840 On ch=1 n=78 v=100
150840 On ch=1 n=62 v=100
150840 On ch=1 n=81 v=100
150840 On ch=1 n=74 v=100
150840 On ch=1 n=50 v=100
150840 On ch=1 n=57 v=100
150840 On ch=1 n=54 v=100
150884 On ch=1 n=62 v=0
150886 On ch=1 n=54 v=0
150888 On ch=1 n=57 v=0
150891 On ch=1 n=50 v=0
150894 On ch=1 n=74 v=0
150897 On ch=1 n=86 v=0
150899 On ch=1 n=81 v=0
150902 On ch=1 n=78 v=0
150960 On ch=1 n=62 v=100
150960 On ch=1 n=57 v=100
150960 On ch=1 n=54 v=100
150960 On ch=1 n=50 v=100
150960 On ch=1 n=78 v=100
150960 On ch=1 n=81 v=100
150960 On ch=1 n=86 v=100
150960 On ch=1 n=74 v=100
150992 On ch=1 n=62 v=0
151004 On ch=1 n=54 v=0
151022 On ch=1 n=57 v=0
151080 On ch=1 n=93 v=100
151080 On ch=1 n=81 v=100
151080 On ch=1 n=90 v=100
151080 On ch=1 n=66 v=100
151080 On ch=1 n=69 v=100
151092 On ch=1 n=50 v=0
151121 On ch=1 n=93 v=0
151121 On ch=1 n=86 v=0
151125 On ch=1 n=81 v=0
151125 On ch=1 n=90 v=0
151125 On ch=1 n=66 v=0
151125 On ch=1 n=69 v=0
151162 On ch=1 n=81 v=0
151195 On ch=1 n=74 v=0
151200 On ch=1 n=91 v=100
151200 On ch=1 n=79 v=100
151200 On ch=1 n=88 v=100
151200 On ch=1 n=64 v=100
151200 On ch=1 n=67 v=100
151202 On ch=1 n=91 v=0
151242 On ch=1 n=88 v=0
151273 On ch=1 n=79 v=0
151320 On ch=1 n=90 v=100
151320 On ch=1 n=78 v=100
151320 On ch=1 n=66 v=100
151320 On ch=1 n=86 v=100
151320 On ch=1 n=62 v=100
151358 On ch=1 n=78 v=0
151358 On ch=1 n=66 v=0
151358 On ch=1 n=86 v=0
151358 On ch=1 n=62 v=0
151362 On ch=1 n=90 v=0
151440 On ch=1 n=85 v=100
151440 On ch=1 n=76 v=100
151440 On ch=1 n=88 v=100
151440 On ch=1 n=81 v=100
151440 On ch=1 n=64 v=100
151440 On ch=1 n=57 v=100
151440 On ch=1 n=61 v=100
151541 Par ch=1 c=64 v=127
151551 On ch=1 n=67 v=0
151574 On ch=1 n=78 v=0
151605 On ch=1 n=64 v=0
151670 On ch=1 n=64 v=0
151670 On ch=1 n=57 v=0
151670 On ch=1 n=61 v=0
151800 On ch=1 n=45 v=100
151800 On ch=1 n=33 v=100
151910 On ch=1 n=85 v=0
151910 On ch=1 n=76 v=0
151910 On ch=1 n=88 v=0
151910 On ch=1 n=45 v=0
151910 On ch=1 n=33 v=0
151910 On ch=1 n=81 v=0
151920 On ch=1 n=78 v=100
151920 On ch=1 n=90 v=100
151920 On ch=1 n=57 v=100
151920 On ch=1 n=86 v=100
151920 On ch=1 n=45 v=100
151920 Par ch=1 c=64 v=0
151995 Par ch=1 c=64 v=127
152040 On ch=1 n=57 v=0
152040 On ch=1 n=45 v=0
152150 On ch=1 n=78 v=0
152150 On ch=1 n=90 v=0
152150 On ch=1 n=86 v=0
152160 On ch=1 n=78 v=100
152160 On ch=1 n=81 v=100
152160 On ch=1 n=74 v=100
152160 On ch=1 n=86 v=100
152160 On ch=1 n=50 v=100
152160 On ch=1 n=57 v=100
152160 On ch=1 n=62 v=100
152160 On ch=1 n=54 v=100
152306 Par ch=1 c=64 v=0
152390 On ch=1 n=78 v=0
152390 On ch=1 n=81 v=0
152390 On ch=1 n=74 v=0
152390 On ch=1 n=86 v=0
152390 On ch=1 n=50 v=0
152390 On ch=1 n=57 v=0
152390 On ch=1 n=62 v=0
152390 On ch=1 n=54 v=0
152400 On ch=1 n=85 v=100
152400 On ch=1 n=81 v=100
152400 On ch=1 n=88 v=100
152400 On ch=1 n=76 v=100
152400 On ch=1 n=57 v=100
152400 On ch=1 n=61 v=100
152400 On ch=1 n=69 v=100
152400 On ch=1 n=64 v=100
152506 Par ch=1 c=64 v=127
152630 On ch=1 n=85 v=0
152630 On ch=1 n=81 v=0
152630 On ch=1 n=88 v=0
152630 On ch=1 n=76 v=0
152630 On ch=1 n=57 v=0
152630 On ch=1 n=61 v=0
152630 On ch=1 n=69 v=0
152630 On ch=1 n=64 v=0
152640 On ch=1 n=78 v=100
152640 On ch=1 n=90 v=100
152640 On ch=1 n=86 v=100
152750 On ch=1 n=78 v=0
152750 On ch=1 n=90 v=0
152750 On ch=1 n=86 v=0
152760 On ch=1 n=33 v=100
152760 On ch=1 n=91 v=100
152760 On ch=1 n=88 v=100
152760 On ch=1 n=79 v=100
152760 On ch=1 n=45 v=100
152806 Par ch=1 c=64 v=0
152870 On ch=1 n=33 v=0
152870 On ch=1 n=91 v=0
152870 On ch=1 n=88 v=0
152870 On ch=1 n=79 v=0
152870 On ch=1 n=45 v=0
152880 On ch=1 n=90 v=100
152880 On ch=1 n=86 v=100
152880 On ch=1 n=78 v=100
152880 On ch=1 n=45 v=100
152880 On ch=1 n=57 v=100
152976 Par ch=1 c=64 v=127
153050 On ch=1 n=90 v=0
153050 On ch=1 n=86 v=0
153050 On ch=1 n=78 v=0
153050 On ch=1 n=45 v=0
153050 On ch=1 n=57 v=0
153120 On ch=1 n=86 v=100
153120 On ch=1 n=74 v=100
153120 On ch=1 n=78 v=100
153120 On ch=1 n=81 v=100
153120 On ch=1 n=57 v=100
153120 On ch=1 n=62 v=100
153120 On ch=1 n=54 v=100
153120 On ch=1 n=50 v=100
153261 Par ch=1 c=64 v=0
153290 On ch=1 n=86 v=0
153290 On ch=1 n=74 v=0
153290 On ch=1 n=78 v=0
153290 On ch=1 n=81 v=0
153290 On ch=1 n=57 v=0
153290 On ch=1 n=62 v=0
153290 On ch=1 n=54 v=0
153290 On ch=1 n=50 v=0
153360 On ch=1 n=85 v=100
153360 On ch=1 n=76 v=100
153360 On ch=1 n=81 v=100
153360 On ch=1 n=88 v=100
153360 On ch=1 n=64 v=100
153360 On ch=1 n=69 v=100
153360 On ch=1 n=61 v=100
153360 On ch=1 n=57 v=100
153529 Par ch=1 c=64 v=127
153590 On ch=1 n=85 v=0
153590 On ch=1 n=76 v=0
153590 On ch=1 n=81 v=0
153590 On ch=1 n=88 v=0
153590 On ch=1 n=64 v=0
153590 On ch=1 n=69 v=0
153590 On ch=1 n=61 v=0
153590 On ch=1 n=57 v=0
153600 On ch=1 n=78 v=100
153600 On ch=1 n=90 v=100
153600 On ch=1 n=86 v=100
153710 On ch=1 n=78 v=0
153710 On ch=1 n=90 v=0
153710 On ch=1 n=86 v=0
153720 On ch=1 n=91 v=100
153720 On ch=1 n=88 v=100
153720 On ch=1 n=79 v=100
153720 On ch=1 n=45 v=100
153720 On ch=1 n=57 v=100
153811 Par ch=1 c=64 v=0
153830 On ch=1 n=91 v=0
153830 On ch=1 n=88 v=0
153830 On ch=1 n=79 v=0
153830 On ch=1 n=45 v=0
153830 On ch=1 n=57 v=0
153840 On ch=1 n=46 v=100
153840 On ch=1 n=85 v=100
153840 On ch=1 n=90 v=100
153840 On ch=1 n=58 v=100
153840 On ch=1 n=78 v=100
153950 On ch=1 n=46 v=0
153950 On ch=1 n=58 v=0
153968 Par ch=1 c=64 v=127
154070 On ch=1 n=85 v=0
154070 On ch=1 n=90 v=0
154070 On ch=1 n=78 v=0
154080 On ch=1 n=85 v=100
154080 On ch=1 n=54 v=100
154080 On ch=1 n=76 v=100
154080 On ch=1 n=42 v=100
154080 On ch=1 n=88 v=100
154190 On ch=1 n=54 v=0
154190 On ch=1 n=42 v=0
154214 Par ch=1 c=64 v=0
154310 On ch=1 n=85 v=0
154310 On ch=1 n=76 v=0
154310 On ch=1 n=88 v=0
154320 On ch=1 n=83 v=100
154320 On ch=1 n=86 v=100
154320 On ch=1 n=47 v=100
154320 On ch=1 n=59 v=100
154320 On ch=1 n=74 v=100
154419 Par ch=1 c=64 v=127
154440 On ch=1 n=83 v=0
154440 On ch=1 n=86 v=0
154440 On ch=1 n=47 v=0
154440 On ch=1 n=59 v=0
154440 On ch=1 n=74 v=0
154548 Par ch=1 c=64 v=0
154560 On ch=1 n=88 v=100
154560 On ch=1 n=80 v=100
154560 On ch=1 n=76 v=100
154560 On ch=1 n=40 v=100
154560 On ch=1 n=52 v=100
154680 On ch=1 n=88 v=0
154680 On ch=1 n=80 v=0
154680 On ch=1 n=76 v=0
154680 On ch=1 n=40 v=0
154680 On ch=1 n=52 v=0
154737 Par ch=1 c=64 v=127
154800 On ch=1 n=69 v=100
154800 On ch=1 n=81 v=100
154800 On ch=1 n=57 v=100
154800 On ch=1 n=45 v=100
154920 On ch=1 n=69 v=0
154920 On ch=1 n=81 v=0
154920 On ch=1 n=57 v=0
154920 On ch=1 n=45 v=0
154982 Par ch=1 c=64 v=0
155040 On ch=1 n=66 v=100
155040 On ch=1 n=90 v=100
155040 On ch=1 n=81 v=100
155040 On ch=1 n=78 v=100
155040 On ch=1 n=86 v=100
155040 On ch=1 n=62 v=100
155040 On ch=1 n=57 v=100
155124 On ch=1 n=62 v=0
155126 On ch=1 n=66 v=0
155132 On ch=1 n=57 v=0
155280 On ch=1 n=38 v=100
155280 On ch=1 n=50 v=100
155353 On ch=1 n=81 v=0
155378 On ch=1 n=86 v=0
155407 On ch=1 n=90 v=0
155409 On ch=1 n=78 v=0
155520 On ch=1 n=78 v=100
155520 On ch=1 n=90 v=100
155520 On ch=1 n=86 v=100
155582 On ch=1 n=38 v=0
155582 On ch=1 n=50 v=0
155634 On ch=1 n=86 v=0
155640 On ch=1 n=50 v=100
155640 On ch=1 n=38 v=100
155649 On ch=1 n=38 v=0
155654 On ch=1 n=50 v=0
155656 On ch=1 n=78 v=0
155656 On ch=1 n=90 v=0
155760 On ch=1 n=88 v=100
155760 On ch=1 n=50 v=100
155760 On ch=1 n=79 v=100
155760 On ch=1 n=91 v=100
155760 On ch=1 n=62 v=100
155866 On ch=1 n=62 v=0
155893 On ch=1 n=88 v=0
155898 On ch=1 n=79 v=0
155904 On ch=1 n=91 v=0
156000 On ch=1 n=90 v=100
156000 On ch=1 n=81 v=100
156000 On ch=1 n=93 v=100
156031 On ch=1 n=50 v=0
156120 On ch=1 n=38 v=100
156120 On ch=1 n=50 v=100
156131 On ch=1 n=90 v=0
156131 On ch=1 n=50 v=0
156134 On ch=1 n=38 v=0
156134 On ch=1 n=81 v=0
156134 On ch=1 n=93 v=0
156240 On ch=1 n=90 v=100
156240 On ch=1 n=81 v=100
156240 On ch=1 n=93 v=100
156240 On ch=1 n=57 v=100
156240 On ch=1 n=69 v=100
156313 Par ch=1 c=64 v=127
156328 On ch=1 n=69 v=0
156342 On ch=1 n=93 v=0
156352 On ch=1 n=90 v=0
156387 On ch=1 n=81 v=0
156469 On ch=1 n=57 v=0
156480 On ch=1 n=79 v=100
156480 On ch=1 n=91 v=100
156480 On ch=1 n=88 v=100
156537 On ch=1 n=88 v=0
156543 On ch=1 n=91 v=0
156566 On ch=1 n=79 v=0
156600 On ch=1 n=45 v=100
156600 On ch=1 n=57 v=100
156619 On ch=1 n=57 v=0
156623 On ch=1 n=45 v=0
156720 On ch=1 n=78 v=100
156720 On ch=1 n=90 v=100
156720 On ch=1 n=86 v=100
156720 On ch=1 n=57 v=100
156720 On ch=1 n=69 v=100
156803 On ch=1 n=69 v=0
156821 On ch=1 n=86 v=0
156837 On ch=1 n=90 v=0
156853 On ch=1 n=78 v=0
156869 Par ch=1 c=64 v=0
156903 On ch=1 n=57 v=0
156960 On ch=1 n=57 v=100
156960 On ch=1 n=88 v=100
156960 On ch=1 n=81 v=100
156960 On ch=1 n=76 v=100
157023 On ch=1 n=57 v=0
157055 On ch=1 n=88 v=0
157061 On ch=1 n=81 v=0
157080 On ch=1 n=57 v=100
157080 On ch=1 n=45 v=100
157083 On ch=1 n=76 v=0
157095 On ch=1 n=57 v=0
157105 On ch=1 n=45 v=0
157200 On ch=1 n=86 v=100
157200 On ch=1 n=78 v=100
157200 On ch=1 n=74 v=100
157200 On ch=1 n=50 v=100
157200 On ch=1 n=38 v=100
157243 Par ch=1 c=64 v=127
157252 On ch=1 n=38 v=0
157284 On ch=1 n=50 v=0
157307 On ch=1 n=86 v=0
157331 On ch=1 n=78 v=0
157331 On ch=1 n=74 v=0
157440 On ch=1 n=86 v=100
157440 On ch=1 n=78 v=100
157440 On ch=1 n=74 v=100
157440 On ch=1 n=54 v=100
157440 On ch=1 n=50 v=100
157440 On ch=1 n=62 v=100
157548 On ch=1 n=78 v=0
157548 On ch=1 n=50 v=0
157548 On ch=1 n=62 v=0
157559 On ch=1 n=74 v=0
157559 On ch=1 n=54 v=0
157561 On ch=1 n=86 v=0
157656 Par ch=1 c=64 v=0
157680 On ch=1 n=88 v=100
157680 On ch=1 n=49 v=100
157680 On ch=1 n=81 v=100
157680 On ch=1 n=64 v=100
157680 On ch=1 n=76 v=100
157680 On ch=1 n=57 v=100
157789 On ch=1 n=49 v=0
157793 On ch=1 n=88 v=0
157798 On ch=1 n=76 v=0
157800 On ch=1 n=64 v=0
157803 On ch=1 n=57 v=0
157805 On ch=1 n=81 v=0
157920 On ch=1 n=66 v=100
157920 On ch=1 n=50 v=100
157920 On ch=1 n=57 v=100
157920 On ch=1 n=78 v=100
157920 On ch=1 n=90 v=100
157920 On ch=1 n=86 v=100
157996 On ch=1 n=50 v=0
158005 On ch=1 n=57 v=0
158020 On ch=1 n=86 v=0
158029 On ch=1 n=90 v=0
158032 On ch=1 n=66 v=0
158040 On ch=1 n=78 v=0
158160 On ch=1 n=76 v=100
158160 On ch=1 n=81 v=100
158160 On ch=1 n=88 v=100
158160 On ch=1 n=61 v=100
158160 On ch=1 n=64 v=100
158160 On ch=1 n=69 v=100
158160 On ch=1 n=57 v=100
158263 Par ch=1 c=64 v=127
158386 On ch=1 n=64 v=0
158386 On ch=1 n=69 v=0
158392 On ch=1 n=88 v=0
158396 On ch=1 n=61 v=0
158396 On ch=1 n=57 v=0
158413 On ch=1 n=81 v=0
158422 On ch=1 n=76 v=0
158520 On ch=1 n=86 v=100
158520 On ch=1 n=78 v=100
158520 On ch=1 n=62 v=100
158520 On ch=1 n=81 v=100
158520 On ch=1 n=74 v=100
158520 On ch=1 n=50 v=100
158520 On ch=1 n=57 v=100
158520 On ch=1 n=54 v=100
158564 On ch=1 n=62 v=0
158566 On ch=1 n=54 v=0
158568 On ch=1 n=57 v=0
158571 On ch=1 n=50 v=0
158574 On ch=1 n=74 v=0
158577 On ch=1 n=86 v=0
158579 On ch=1 n=81 v=0
158582 On ch=1 n=78 v=0
158640 On ch=1 n=62 v=100
158640 On ch=1 n=57 v=100
158640 On ch=1 n=54 v=100
158640 On ch=1 n=50 v=100
158640 On ch=1 n=78 v=100
158640 On ch=1 n=81 v=100
158640 On ch=1 n=86 v=100
158640 On ch=1 n=74 v=100
158672 On ch=1 n=62 v=0
158684 On ch=1 n=54 v=0
158702 On ch=1 n=57 v=0
158726 Par ch=1 c=64 v=0
158760 On ch=1 n=45 v=100
158760 On ch=1 n=57 v=100
158772 On ch=1 n=50 v=0
158801 On ch=1 n=45 v=0
158801 On ch=1 n=86 v=0
158805 On ch=1 n=57 v=0
158842 On ch=1 n=81 v=0
158875 On ch=1 n=74 v=0
158880 On ch=1 n=78 v=100
158880 On ch=1 n=50 v=100
158880 On ch=1 n=62 v=100
158880 On ch=1 n=69 v=100
158880 On ch=1 n=81 v=100
158882 On ch=1 n=78 v=0
158922 On ch=1 n=62 v=0
158953 On ch=1 n=50 v=0
159000 On ch=1 n=38 v=100
159000 On ch=1 n=50 v=100
159038 On ch=1 n=50 v=0
159042 On ch=1 n=38 v=0
159083 Par ch=1 c=64 v=127
159120 On ch=1 n=76 v=100
159120 On ch=1 n=67 v=100
159120 On ch=1 n=50 v=100
159120 On ch=1 n=79 v=100
159120 On ch=1 n=62 v=100
159172 On ch=1 n=62 v=0
159231 On ch=1 n=81 v=0
159240 On ch=1 n=45 v=100
159240 On ch=1 n=57 v=100
159254 On ch=1 n=78 v=0
159285 On ch=1 n=69 v=0
159334 On ch=1 n=50 v=0
159360 On ch=1 n=62 v=100
159360 On ch=1 n=50 v=100
159373 On ch=1 n=57 v=0
159375 On ch=1 n=45 v=0
159401 Par ch=1 c=64 v=0
159406 On ch=1 n=62 v=0
159426 On ch=1 n=50 v=0
159480 On ch=1 n=38 v=100
159480 On ch=1 n=66 v=100
159480 On ch=1 n=50 v=100
159480 On ch=1 n=78 v=100
159480 On ch=1 n=74 v=100
159524 On ch=1 n=38 v=0
159534 On ch=1 n=50 v=0
159600 On ch=1 n=62 v=100
159600 On ch=1 n=50 v=100
159600 On ch=1 n=66 v=100
159600 On ch=1 n=78 v=100
159600 On ch=1 n=74 v=100
159667 On ch=1 n=62 v=0
159669 On ch=1 n=78 v=0
159676 On ch=1 n=74 v=0
159706 On ch=1 n=66 v=0
159720 On ch=1 n=45 v=100
159720 On ch=1 n=57 v=100
159745 Par ch=1 c=64 v=127
159747 On ch=1 n=50 v=0
159759 On ch=1 n=57 v=0
159766 On ch=1 n=45 v=0
159796 On ch=1 n=66 v=0
159810 On ch=1 n=74 v=0
159837 On ch=1 n=78 v=0
159840 On ch=1 n=86 v=100
159840 On ch=1 n=74 v=100
159840 On ch=1 n=83 v=100
159840 On ch=1 n=62 v=100
159840 On ch=1 n=50 v=100
159868 Par ch=1 c=64 v=0
159940 On ch=1 n=62 v=0
159940 On ch=1 n=50 v=0
159960 On ch=1 n=50 v=100
159960 On ch=1 n=38 v=100
159971 On ch=1 n=76 v=0
159987 On ch=1 n=79 v=0
159999 On ch=1 n=38 v=0
160004 On ch=1 n=50 v=0
160017 On ch=1 n=67 v=0
160070 On ch=1 n=86 v=0
160070 On ch=1 n=74 v=0
160070 On ch=1 n=83 v=0
160080 On ch=1 n=81 v=100
160080 On ch=1 n=84 v=100
160080 On ch=1 n=72 v=100
160080 On ch=1 n=43 v=100
160080 On ch=1 n=55 v=100
160148 On ch=1 n=43 v=0
160175 On ch=1 n=55 v=0
160200 On ch=1 n=50 v=100
160200 On ch=1 n=62 v=100
160208 Par ch=1 c=64 v=127
160252 On ch=1 n=62 v=0
160265 On ch=1 n=50 v=0
160320 On ch=1 n=62 v=100
160320 On ch=1 n=50 v=100
160377 On ch=1 n=62 v=0
160408 On ch=1 n=50 v=0
160440 On ch=1 n=31 v=100
160440 On ch=1 n=43 v=100
160440 On ch=1 n=71 v=100
160440 On ch=1 n=79 v=100
160440 On ch=1 n=83 v=100
160474 Par ch=1 c=64 v=0
160508 On ch=1 n=31 v=0
160543 On ch=1 n=43 v=0
160560 On ch=1 n=55 v=100
160560 On ch=1 n=43 v=100
160560 On ch=1 n=79 v=100
160560 On ch=1 n=83 v=100
160560 On ch=1 n=71 v=100
160594 On ch=1 n=81 v=0
160610 On ch=1 n=43 v=0
160621 On ch=1 n=84 v=0
160631 On ch=1 n=55 v=0
160631 On ch=1 n=83 v=0
160635 Par ch=1 c=64 v=127
160643 On ch=1 n=79 v=0
160658 On ch=1 n=71 v=0
160680 On ch=1 n=50 v=100
160680 On ch=1 n=62 v=100
160701 On ch=1 n=72 v=0
160731 On ch=1 n=62 v=0
160741 On ch=1 n=50 v=0
160800 On ch=1 n=74 v=100
160800 On ch=1 n=59 v=100
160800 On ch=1 n=86 v=100
160800 On ch=1 n=47 v=100
160860 On ch=1 n=83 v=100
160860 On ch=1 n=79 v=100
160879 On ch=1 n=59 v=0
160905 On ch=1 n=79 v=0
160913 On ch=1 n=83 v=0
160920 On ch=1 n=55 v=100
160920 On ch=1 n=43 v=100
160939 On ch=1 n=47 v=0
160949 Par ch=1 c=64 v=0
160970 On ch=1 n=74 v=0
161005 On ch=1 n=55 v=0
161005 On ch=1 n=43 v=0
161005 On ch=1 n=71 v=0
161010 On ch=1 n=86 v=0
161040 On ch=1 n=78 v=100
161040 On ch=1 n=55 v=100
161040 On ch=1 n=67 v=100
161040 On ch=1 n=69 v=100
161040 On ch=1 n=81 v=100
161043 On ch=1 n=83 v=0
161056 On ch=1 n=79 v=0
161081 On ch=1 n=67 v=0
161085 On ch=1 n=78 v=0
161090 On ch=1 n=55 v=0
161095 On ch=1 n=81 v=0
161100 On ch=1 n=76 v=100
161100 On ch=1 n=79 v=100
161140 Par ch=1 c=64 v=127
161145 On ch=1 n=76 v=0
161145 On ch=1 n=79 v=0
161145 On ch=1 n=69 v=0
161160 On ch=1 n=66 v=100
161160 On ch=1 n=54 v=100
161210 On ch=1 n=66 v=0
161216 On ch=1 n=54 v=0
161280 On ch=1 n=83 v=100
161280 On ch=1 n=79 v=100
161280 On ch=1 n=71 v=100
161280 On ch=1 n=52 v=100
161280 On ch=1 n=64 v=100
161320 On ch=1 n=79 v=0
161335 On ch=1 n=64 v=0
161340 On ch=1 n=76 v=100
161341 On ch=1 n=52 v=0
161359 On ch=1 n=71 v=0
161361 On ch=1 n=76 v=0
161367 On ch=1 n=83 v=0
161397 Par ch=1 c=64 v=0
161400 On ch=1 n=43 v=100
161400 On ch=1 n=55 v=100
161443 On ch=1 n=43 v=0
161456 On ch=1 n=55 v=0
161520 On ch=1 n=76 v=100
161520 On ch=1 n=67 v=100
161520 On ch=1 n=79 v=100
161520 On ch=1 n=57 v=100
161520 On ch=1 n=45 v=100
161531 Par ch=1 c=64 v=127
161566 On ch=1 n=45 v=0
161568 On ch=1 n=76 v=0
161577 On ch=1 n=57 v=0
161580 On ch=1 n=73 v=100
161580 On ch=1 n=59 v=100
161582 On ch=1 n=67 v=0
161586 On ch=1 n=79 v=0
161631 On ch=1 n=59 v=0
161640 On ch=1 n=47 v=100
161642 On ch=1 n=73 v=0
161687 On ch=1 n=47 v=0
161760 On ch=1 n=61 v=100
161760 On ch=1 n=49 v=100
161760 On ch=1 n=64 v=100
161760 On ch=1 n=73 v=100
161760 On ch=1 n=76 v=100
161779 On ch=1 n=61 v=0
161786 On ch=1 n=49 v=0
161793 On ch=1 n=64 v=0
161793 On ch=1 n=76 v=0
161796 On ch=1 n=73 v=0
161820 On ch=1 n=67 v=100
161820 On ch=1 n=73 v=100
161833 On ch=1 n=73 v=0
161846 On ch=1 n=67 v=0
161878 Par ch=1 c=64 v=0
161880 On ch=1 n=45 v=100
161880 On ch=1 n=33 v=100
161907 On ch=1 n=33 v=0
161919 On ch=1 n=45 v=0
162000 On ch=1 n=67 v=100
162000 On ch=1 n=57 v=100
162000 On ch=1 n=38 v=100
162000 On ch=1 n=62 v=100
162000 On ch=1 n=50 v=100
162052 On ch=1 n=67 v=0
162060 On ch=1 n=66 v=100
162060 On ch=1 n=52 v=100
162067 On ch=1 n=38 v=0
162071 On ch=1 n=57 v=0
162071 On ch=1 n=62 v=0
162081 On ch=1 n=50 v=0
162090 On ch=1 n=66 v=0
162113 Par ch=1 c=64 v=127
162117 On ch=1 n=52 v=0
162120 On ch=1 n=40 v=100
162173 On ch=1 n=40 v=0
162240 On ch=1 n=42 v=100
162240 On ch=1 n=54 v=100
162240 On ch=1 n=74 v=100
162240 On ch=1 n=62 v=100
162282 On ch=1 n=54 v=0
162290 On ch=1 n=42 v=0
162293 On ch=1 n=62 v=0
162298 On ch=1 n=74 v=0
162300 On ch=1 n=66 v=100
162300 On ch=1 n=69 v=100
162314 On ch=1 n=66 v=0
162314 On ch=1 n=69 v=0
162347 Par ch=1 c=64 v=0
162360 On ch=1 n=38 v=100
162360 On ch=1 n=50 v=100
162409 On ch=1 n=38 v=0
162413 On ch=1 n=50 v=0
162480 On ch=1 n=54 v=100
162480 On ch=1 n=42 v=100
162480 On ch=1 n=81 v=100
162480 On ch=1 n=69 v=100
162528 On ch=1 n=42 v=0
162530 On ch=1 n=81 v=0
162534 On ch=1 n=54 v=0
162540 On ch=1 n=78 v=100
162540 On ch=1 n=74 v=100
162542 On ch=1 n=69 v=0
162551 Par ch=1 c=64 v=127
162565 On ch=1 n=74 v=0
162574 On ch=1 n=78 v=0
162600 On ch=1 n=45 v=100
162600 On ch=1 n=57 v=100
162621 On ch=1 n=45 v=0
162629 On ch=1 n=57 v=0
162720 On ch=1 n=80 v=100
162720 On ch=1 n=50 v=100
162720 On ch=1 n=62 v=100
162720 On ch=1 n=74 v=100
162720 On ch=1 n=86 v=100
162732 On ch=1 n=80 v=0
162774 On ch=1 n=86 v=0
162779 On ch=1 n=74 v=0
162780 On ch=1 n=78 v=100
162780 On ch=1 n=81 v=100
162802 On ch=1 n=78 v=0
162802 On ch=1 n=81 v=0
162806 Par ch=1 c=64 v=0
162809 On ch=1 n=50 v=0
162814 On ch=1 n=62 v=0
162840 On ch=1 n=54 v=100
162840 On ch=1 n=66 v=100
162895 On ch=1 n=54 v=0
162909 On ch=1 n=66 v=0
162960 On ch=1 n=67 v=100
162960 On ch=1 n=55 v=100
162960 On ch=1 n=78 v=100
162960 On ch=1 n=81 v=100
162960 On ch=1 n=71 v=100
163012 On ch=1 n=78 v=0
163015 On ch=1 n=81 v=0
163020 On ch=1 n=58 v=100
163020 On ch=1 n=76 v=100
163020 On ch=1 n=79 v=100
163021 On ch=1 n=71 v=0
163029 On ch=1 n=58 v=0
163032 On ch=1 n=67 v=0
163035 Par ch=1 c=64 v=127
163038 On ch=1 n=55 v=0
163043 On ch=1 n=76 v=0
163043 On ch=1 n=79 v=0
163080 On ch=1 n=66 v=100
163080 On ch=1 n=54 v=100
163147 On ch=1 n=66 v=0
163154 On ch=1 n=54 v=0
163200 On ch=1 n=52 v=100
163200 On ch=1 n=64 v=100
163200 On ch=1 n=83 v=100
163200 On ch=1 n=79 v=100
163200 On ch=1 n=71 v=100
163237 On ch=1 n=79 v=0
163260 On ch=1 n=79 v=100
163260 On ch=1 n=76 v=100
163263 On ch=1 n=83 v=0
163263 On ch=1 n=71 v=0
163266 On ch=1 n=64 v=0
163283 On ch=1 n=52 v=0
163289 On ch=1 n=79 v=0
163289 On ch=1 n=76 v=0
163301 Par ch=1 c=64 v=0
163320 On ch=1 n=43 v=100
163320 On ch=1 n=55 v=100
163381 On ch=1 n=43 v=0
163395 On ch=1 n=55 v=0
163440 On ch=1 n=57 v=100
163440 On ch=1 n=45 v=100
163440 On ch=1 n=67 v=100
163440 On ch=1 n=79 v=100
163440 On ch=1 n=76 v=100
163474 On ch=1 n=76 v=0
163493 Par ch=1 c=64 v=127
163500 On ch=1 n=76 v=100
163500 On ch=1 n=73 v=100
163502 On ch=1 n=67 v=0
163502 On ch=1 n=79 v=0
163509 On ch=1 n=45 v=0
163524 On ch=1 n=57 v=0
163524 On ch=1 n=76 v=0
163532 On ch=1 n=73 v=0
163560 On ch=1 n=47 v=100
163560 On ch=1 n=59 v=100
163616 On ch=1 n=47 v=0
163621 On ch=1 n=59 v=0
163680 On ch=1 n=49 v=100
163680 On ch=1 n=61 v=100
163680 On ch=1 n=64 v=100
163680 On ch=1 n=73 v=100
163680 On ch=1 n=76 v=100
163717 On ch=1 n=61 v=0
163726 On ch=1 n=49 v=0
163733 On ch=1 n=64 v=0
163740 On ch=1 n=67 v=100
163741 On ch=1 n=76 v=0
163750 On ch=1 n=73 v=0
163756 On ch=1 n=67 v=0
163800 On ch=1 n=33 v=100
163800 On ch=1 n=45 v=100
163851 Par ch=1 c=64 v=0
163856 On ch=1 n=33 v=0
163864 On ch=1 n=45 v=0
163920 On ch=1 n=46 v=100
163920 On ch=1 n=34 v=100
163920 On ch=1 n=76 v=100
163920 On ch=1 n=79 v=100
163920 On ch=1 n=67 v=100
163955 On ch=1 n=34 v=0
163967 On ch=1 n=46 v=0
163979 On ch=1 n=76 v=0
163980 On ch=1 n=73 v=100
164032 Par ch=1 c=64 v=127
164040 On ch=1 n=46 v=100
164040 On ch=1 n=58 v=100
164087 On ch=1 n=46 v=0
164095 On ch=1 n=73 v=0
164097 On ch=1 n=58 v=0
164160 On ch=1 n=61 v=100
164160 On ch=1 n=49 v=100
164160 On ch=1 n=76 v=100
164193 On ch=1 n=61 v=0
164202 On ch=1 n=49 v=0
164202 On ch=1 n=76 v=0
164214 On ch=1 n=67 v=0
164218 On ch=1 n=79 v=0
164220 On ch=1 n=73 v=100
164233 On ch=1 n=73 v=0
164280 On ch=1 n=46 v=100
164280 On ch=1 n=66 v=100
164280 On ch=1 n=73 v=100
164280 On ch=1 n=34 v=100
164280 On ch=1 n=78 v=100
164302 Par ch=1 c=64 v=0
164351 On ch=1 n=73 v=0
164353 On ch=1 n=34 v=0
164353 On ch=1 n=78 v=0
164360 On ch=1 n=66 v=0
164363 On ch=1 n=46 v=0
164400 On ch=1 n=66 v=100
164400 On ch=1 n=78 v=100
164400 On ch=1 n=74 v=100
164400 On ch=1 n=35 v=100
164400 On ch=1 n=47 v=100
164434 On ch=1 n=35 v=0
164446 On ch=1 n=47 v=0
164456 Par ch=1 c=64 v=127
164460 On ch=1 n=71 v=100
164460 On ch=1 n=47 v=100
164469 On ch=1 n=74 v=0
164479 On ch=1 n=71 v=0
164491 On ch=1 n=47 v=0
164520 On ch=1 n=59 v=100
164561 On ch=1 n=59 v=0
164564 On ch=1 n=78 v=0
164585 On ch=1 n=66 v=0
164640 On ch=1 n=66 v=100
164640 On ch=1 n=78 v=100
164640 On ch=1 n=62 v=100
164640 On ch=1 n=50 v=100
164640 On ch=1 n=74 v=100
164660 On ch=1 n=62 v=0
164667 On ch=1 n=50 v=0
164700 On ch=1 n=71 v=100
164700 On ch=1 n=74 v=0
164727 On ch=1 n=71 v=0
164760 On ch=1 n=47 v=100
164760 On ch=1 n=35 v=100
164795 On ch=1 n=66 v=0
164800 On ch=1 n=78 v=0
164806 On ch=1 n=35 v=0
164811 Par ch=1 c=64 v=0
164825 On ch=1 n=47 v=0
164880 On ch=1 n=80 v=100
164880 On ch=1 n=81 v=100
164880 On ch=1 n=78 v=100
164880 On ch=1 n=69 v=100
164880 On ch=1 n=48 v=100
164880 On ch=1 n=36 v=100
164899 On ch=1 n=80 v=0
164917 On ch=1 n=36 v=0
164931 On ch=1 n=48 v=0
164934 On ch=1 n=78 v=0
164940 On ch=1 n=75 v=100
164968 Par ch=1 c=64 v=127
164970 On ch=1 n=75 v=0
165000 On ch=1 n=48 v=100
165000 On ch=1 n=60 v=100
165041 On ch=1 n=48 v=0
165052 On ch=1 n=60 v=0
165120 On ch=1 n=63 v=100
165120 On ch=1 n=51 v=100
165120 On ch=1 n=78 v=100
165146 On ch=1 n=63 v=0
165156 On ch=1 n=51 v=0
165170 On ch=1 n=78 v=0
165180 On ch=1 n=75 v=100
165182 On ch=1 n=81 v=0
165185 On ch=1 n=69 v=0
165191 On ch=1 n=75 v=0
165240 On ch=1 n=68 v=100
165240 On ch=1 n=75 v=100
165240 On ch=1 n=80 v=100
165240 On ch=1 n=36 v=100
165240 On ch=1 n=48 v=100
165299 On ch=1 n=36 v=0
165299 On ch=1 n=48 v=0
165305 Par ch=1 c=64 v=0
165309 On ch=1 n=75 v=0
165314 On ch=1 n=68 v=0
165314 On ch=1 n=80 v=0
165360 On ch=1 n=37 v=100
165360 On ch=1 n=49 v=100
165360 On ch=1 n=68 v=100
165360 On ch=1 n=80 v=100
165360 On ch=1 n=77 v=100
165407 On ch=1 n=37 v=0
165416 On ch=1 n=49 v=0
165420 On ch=1 n=73 v=100
165423 On ch=1 n=77 v=0
165452 Par ch=1 c=64 v=127
165480 On ch=1 n=49 v=100
165480 On ch=1 n=61 v=100
165517 On ch=1 n=49 v=0
165525 On ch=1 n=61 v=0
165558 On ch=1 n=80 v=0
165560 On ch=1 n=73 v=0
165566 On ch=1 n=68 v=0
165600 On ch=1 n=65 v=100
165600 On ch=1 n=80 v=100
165600 On ch=1 n=68 v=100
165600 On ch=1 n=53 v=100
165600 On ch=1 n=77 v=100
165642 On ch=1 n=65 v=0
165650 On ch=1 n=53 v=0
165660 On ch=1 n=73 v=100
165664 On ch=1 n=77 v=0
165720 On ch=1 n=37 v=100
165720 On ch=1 n=49 v=100
165777 On ch=1 n=68 v=0
165781 On ch=1 n=73 v=0
165781 On ch=1 n=49 v=0
165784 On ch=1 n=80 v=0
165795 On ch=1 n=37 v=0
165820 Par ch=1 c=64 v=0
165840 On ch=1 n=37 v=100
165840 On ch=1 n=83 v=100
165840 On ch=1 n=49 v=100
165840 On ch=1 n=79 v=100
165840 On ch=1 n=71 v=100
165883 On ch=1 n=37 v=0
165892 On ch=1 n=49 v=0
165900 On ch=1 n=76 v=100
165913 On ch=1 n=79 v=0
165957 Par ch=1 c=64 v=127
165960 On ch=1 n=61 v=100
165960 On ch=1 n=49 v=100
166002 On ch=1 n=49 v=0
166011 On ch=1 n=61 v=0
166080 On ch=1 n=52 v=100
166080 On ch=1 n=64 v=100
166080 On ch=1 n=79 v=100
166089 On ch=1 n=76 v=0
166120 On ch=1 n=64 v=0
166131 On ch=1 n=52 v=0
166140 On ch=1 n=76 v=100
166149 On ch=1 n=79 v=0
166200 On ch=1 n=49 v=100
166200 On ch=1 n=37 v=100
166200 On ch=1 n=82 v=100
166200 On ch=1 n=70 v=100
166200 On ch=1 n=83 v=0
166200 On ch=1 n=71 v=0
166218 On ch=1 n=76 v=0
166268 On ch=1 n=70 v=0
166271 On ch=1 n=37 v=0
166271 On ch=1 n=82 v=0
166274 On ch=1 n=49 v=0
166300 Par ch=1 c=64 v=0
166320 On ch=1 n=85 v=100
166320 On ch=1 n=38 v=100
166351 On ch=1 n=38 v=0
166380 On ch=1 n=78 v=100
166380 On ch=1 n=50 v=100
166380 On ch=1 n=73 v=100
166424 On ch=1 n=50 v=0
166440 On ch=1 n=62 v=100
166440 On ch=1 n=50 v=100
166446 Par ch=1 c=64 v=127
166473 On ch=1 n=50 v=0
166482 On ch=1 n=62 v=0
166560 On ch=1 n=66 v=100
166560 On ch=1 n=54 v=100
166560 On ch=1 n=80 v=100
166575 On ch=1 n=78 v=0
166591 On ch=1 n=66 v=0
166604 On ch=1 n=54 v=0
166619 On ch=1 n=80 v=0
166620 On ch=1 n=78 v=100
166631 On ch=1 n=85 v=0
166638 On ch=1 n=73 v=0
166641 On ch=1 n=78 v=0
166680 On ch=1 n=78 v=100
166680 On ch=1 n=83 v=100
166680 On ch=1 n=71 v=100
166680 On ch=1 n=51 v=100
166680 On ch=1 n=39 v=100
166725 On ch=1 n=71 v=0
166732 On ch=1 n=78 v=0
166732 On ch=1 n=83 v=0
166740 On ch=1 n=39 v=0
166749 On ch=1 n=51 v=0
166770 Par ch=1 c=64 v=0
166800 On ch=1 n=83 v=100
166800 On ch=1 n=74 v=100
166800 On ch=1 n=86 v=100
166800 On ch=1 n=40 v=100
166800 On ch=1 n=52 v=100
166832 On ch=1 n=40 v=0
166842 On ch=1 n=52 v=0
166860 On ch=1 n=80 v=100
166868 On ch=1 n=83 v=0
166920 On ch=1 n=64 v=100
166920 On ch=1 n=52 v=100
166949 Par ch=1 c=64 v=127
166958 On ch=1 n=52 v=0
166968 On ch=1 n=64 v=0
167004 On ch=1 n=74 v=0
167015 On ch=1 n=80 v=0
167040 On ch=1 n=74 v=100
167040 On ch=1 n=56 v=100
167040 On ch=1 n=83 v=100
167040 On ch=1 n=68 v=100
167084 On ch=1 n=68 v=0
167095 On ch=1 n=56 v=0
167100 On ch=1 n=80 v=100
167103 On ch=1 n=83 v=0
167116 On ch=1 n=80 v=0
167128 On ch=1 n=86 v=0
167134 On ch=1 n=74 v=0
167160 On ch=1 n=85 v=100
167160 On ch=1 n=80 v=100
167160 On ch=1 n=73 v=100
167160 On ch=1 n=53 v=100
167160 On ch=1 n=41 v=100
167197 Par ch=1 c=64 v=0
167219 On ch=1 n=80 v=0
167219 On ch=1 n=41 v=0
167224 On ch=1 n=53 v=0
167229 On ch=1 n=73 v=0
167232 On ch=1 n=85 v=0
167280 On ch=1 n=85 v=100
167280 On ch=1 n=88 v=100
167280 On ch=1 n=42 v=100
167280 On ch=1 n=54 v=100
167280 On ch=1 n=76 v=100
167336 On ch=1 n=42 v=0
167340 On ch=1 n=81 v=100
167343 On ch=1 n=54 v=0
167377 On ch=1 n=85 v=0
167400 On ch=1 n=66 v=100
167400 On ch=1 n=54 v=100
167436 On ch=1 n=54 v=0
167446 Par ch=1 c=64 v=127
167448 On ch=1 n=66 v=0
167510 On ch=1 n=88 v=0
167520 On ch=1 n=85 v=100
167520 On ch=1 n=57 v=100
167520 On ch=1 n=69 v=100
167520 On ch=1 n=76 v=100
167530 On ch=1 n=76 v=0
167536 On ch=1 n=81 v=0
167556 On ch=1 n=69 v=0
167570 On ch=1 n=57 v=0
167580 On ch=1 n=81 v=100
167585 On ch=1 n=85 v=0
167589 On ch=1 n=76 v=0
167602 On ch=1 n=81 v=0
167640 On ch=1 n=54 v=100
167640 On ch=1 n=42 v=100
167640 On ch=1 n=86 v=100
167640 On ch=1 n=81 v=100
167640 On ch=1 n=74 v=100
167700 On ch=1 n=86 v=0
167700 On ch=1 n=74 v=0
167712 On ch=1 n=81 v=0
167726 On ch=1 n=54 v=0
167726 On ch=1 n=42 v=0
167760 On ch=1 n=44 v=100
167760 On ch=1 n=56 v=100
167760 On ch=1 n=78 v=100
167760 On ch=1 n=90 v=100
167760 On ch=1 n=86 v=100
167766 Par ch=1 c=64 v=0
167820 On ch=1 n=83 v=100
167833 On ch=1 n=86 v=0
167843 On ch=1 n=44 v=0
167851 On ch=1 n=56 v=0
167880 On ch=1 n=68 v=100
167880 On ch=1 n=56 v=100
167920 On ch=1 n=56 v=0
167933 Par ch=1 c=64 v=127
167935 On ch=1 n=68 v=0
167960 On ch=1 n=83 v=0
168000 On ch=1 n=86 v=100
168000 On ch=1 n=71 v=100
168000 On ch=1 n=59 v=100
168030 On ch=1 n=71 v=0
168037 On ch=1 n=59 v=0
168056 On ch=1 n=86 v=0
168060 On ch=1 n=83 v=100
168087 On ch=1 n=83 v=0
168120 On ch=1 n=56 v=100
168120 On ch=1 n=44 v=100
168120 On ch=1 n=88 v=100
168120 On ch=1 n=76 v=100
168120 On ch=1 n=83 v=100
168120 On ch=1 n=78 v=0
168120 On ch=1 n=90 v=0
168240 On ch=1 n=59 v=100
168240 On ch=1 n=47 v=100
168244 Par ch=1 c=64 v=0
168278 On ch=1 n=44 v=0
168317 On ch=1 n=47 v=0
168325 On ch=1 n=56 v=0
168344 On ch=1 n=59 v=0
168360 On ch=1 n=86 v=100
168360 On ch=1 n=52 v=100
168360 On ch=1 n=74 v=100
168360 On ch=1 n=64 v=100
168420 On ch=1 n=86 v=0
168439 Par ch=1 c=64 v=127
168445 On ch=1 n=74 v=0
168460 On ch=1 n=64 v=0
168464 On ch=1 n=52 v=0
168480 On ch=1 n=56 v=100
168480 On ch=1 n=83 v=100
168480 On ch=1 n=71 v=100
168480 On ch=1 n=59 v=100
168480 On ch=1 n=64 v=100
168580 On ch=1 n=56 v=0
168598 On ch=1 n=88 v=0
168600 On ch=1 n=68 v=100
168600 On ch=1 n=56 v=100
168600 On ch=1 n=88 v=100
168600 On ch=1 n=76 v=100
168619 On ch=1 n=83 v=0
168625 On ch=1 n=64 v=0
168631 On ch=1 n=76 v=0
168635 On ch=1 n=83 v=0
168637 On ch=1 n=71 v=0
168701 On ch=1 n=76 v=0
168720 On ch=1 n=81 v=100
168720 On ch=1 n=57 v=100
168720 On ch=1 n=69 v=100
168720 On ch=1 n=88 v=100
168720 On ch=1 n=73 v=100
168720 Par ch=1 c=64 v=0
168746 On ch=1 n=88 v=0
168787 On ch=1 n=59 v=0
168787 On ch=1 n=56 v=0
168834 On ch=1 n=68 v=0
168840 On ch=1 n=64 v=100
168840 On ch=1 n=52 v=100
168840 On ch=1 n=86 v=100
168868 On ch=1 n=88 v=0
168874 On ch=1 n=69 v=0
168890 On ch=1 n=86 v=0
168895 On ch=1 n=73 v=0
168900 On ch=1 n=85 v=100
168911 On ch=1 n=57 v=0
168960 On ch=1 n=76 v=100
168960 On ch=1 n=83 v=100
168960 On ch=1 n=49 v=100
168960 On ch=1 n=67 v=100
168960 On ch=1 n=69 v=100
168960 On ch=1 n=61 v=100
168963 On ch=1 n=85 v=0
169041 On ch=1 n=64 v=0
169044 On ch=1 n=52 v=0
169080 On ch=1 n=81 v=100
169080 On ch=1 n=45 v=100
169080 On ch=1 n=57 v=100
169140 On ch=1 n=79 v=100
169142 On ch=1 n=83 v=0
169146 On ch=1 n=61 v=0
169166 On ch=1 n=49 v=0
169172 On ch=1 n=79 v=0
169200 On ch=1 n=62 v=100
169200 On ch=1 n=50 v=100
169200 On ch=1 n=78 v=100
169200 On ch=1 n=74 v=100
169200 On ch=1 n=69 v=100
169212 On ch=1 n=45 v=0
169232 On ch=1 n=57 v=0
169289 On ch=1 n=81 v=0
169320 On ch=1 n=66 v=100
169320 On ch=1 n=79 v=100
169320 On ch=1 n=54 v=100
169368 On ch=1 n=81 v=0
169376 On ch=1 n=50 v=0
169378 On ch=1 n=74 v=0
169380 On ch=1 n=81 v=100
169406 On ch=1 n=62 v=0
169420 On ch=1 n=78 v=0
169420 On ch=1 n=69 v=0
169429 On ch=1 n=81 v=0
169440 On ch=1 n=71 v=100
169440 On ch=1 n=50 v=100
169440 On ch=1 n=78 v=100
169440 On ch=1 n=62 v=100
169440 On ch=1 n=83 v=100
169515 On ch=1 n=66 v=0
169535 On ch=1 n=79 v=0
169540 On ch=1 n=54 v=0
169550 On ch=1 n=67 v=0
169554 On ch=1 n=69 v=0
169560 On ch=1 n=85 v=100
169560 On ch=1 n=47 v=100
169560 On ch=1 n=59 v=100
169571 On ch=1 n=76 v=0
169576 On ch=1 n=71 v=0
169589 On ch=1 n=78 v=0
169589 On ch=1 n=83 v=0
169611 On ch=1 n=62 v=0
169620 On ch=1 n=86 v=100
169626 On ch=1 n=50 v=0
169672 On ch=1 n=86 v=0
169680 On ch=1 n=61 v=100
169680 On ch=1 n=49 v=100
169680 On ch=1 n=93 v=100
169680 On ch=1 n=81 v=100
169753 On ch=1 n=47 v=0
169756 On ch=1 n=93 v=0
169770 On ch=1 n=85 v=0
169772 On ch=1 n=59 v=0
169800 On ch=1 n=78 v=100
169800 On ch=1 n=57 v=100
169800 On ch=1 n=45 v=100
169850 On ch=1 n=81 v=0
169860 On ch=1 n=80 v=100
169881 On ch=1 n=61 v=0
169900 On ch=1 n=49 v=0
169920 On ch=1 n=93 v=100
169920 On ch=1 n=55 v=100
169920 On ch=1 n=81 v=100
169920 On ch=1 n=43 v=100
169920 On ch=1 n=90 v=100
169942 On ch=1 n=90 v=0
169957 On ch=1 n=93 v=0
169960 On ch=1 n=80 v=0
169980 On ch=1 n=78 v=0
170038 On ch=1 n=81 v=0
170040 On ch=1 n=54 v=100
170040 On ch=1 n=42 v=100
170040 On ch=1 n=95 v=100
170069 On ch=1 n=57 v=0
170080 On ch=1 n=55 v=0
170082 On ch=1 n=45 v=0
170096 On ch=1 n=43 v=0
170100 On ch=1 n=97 v=100
170160 On ch=1 n=54 v=100
170160 On ch=1 n=42 v=100
170160 On ch=1 n=98 v=100
170160 On ch=1 n=86 v=100
170185 On ch=1 n=97 v=0
170262 On ch=1 n=95 v=0
170272 On ch=1 n=54 v=0
170280 On ch=1 n=87 v=100
170280 On ch=1 n=99 v=100
170280 On ch=1 n=53 v=100
170280 On ch=1 n=41 v=100
170315 On ch=1 n=86 v=0
170360 On ch=1 n=42 v=0
170361 Par ch=1 c=64 v=127
170373 On ch=1 n=54 v=0
170376 On ch=1 n=98 v=0
170400 On ch=1 n=100 v=100
170400 On ch=1 n=88 v=100
170400 On ch=1 n=52 v=100
170400 On ch=1 n=40 v=100
170400 On ch=1 n=53 v=100
170418 On ch=1 n=42 v=0
170453 On ch=1 n=53 v=0
170460 On ch=1 n=41 v=0
170466 On ch=1 n=100 v=0
170493 On ch=1 n=53 v=0
170500 On ch=1 n=88 v=0
170520 On ch=1 n=80 v=100
170520 On ch=1 n=52 v=100
170520 On ch=1 n=40 v=100
170520 On ch=1 n=92 v=100
170547 On ch=1 n=87 v=0
170563 On ch=1 n=99 v=0
170620 On ch=1 n=80 v=0
170627 On ch=1 n=40 v=0
170640 On ch=1 n=57 v=127
170640 On ch=1 n=45 v=127
170640 On ch=1 n=93 v=127
170640 On ch=1 n=81 v=127
170671 On ch=1 n=52 v=0
170685 Par ch=1 c=64 v=0
170690 On ch=1 n=93 v=0
170700 On ch=1 n=40 v=0
170728 On ch=1 n=81 v=0
170751 On ch=1 n=52 v=0
170760 On ch=1 n=69 v=127
170784 On ch=1 n=92 v=0
170819 On ch=1 n=69 v=0
170820 On ch=1 n=71 v=127
170879 On ch=1 n=71 v=0
170880 On ch=1 n=73 v=127
170880 On ch=1 n=61 v=127
170984 On ch=1 n=61 v=0
171000 On ch=1 n=61 v=127
171059 On ch=1 n=73 v=0
171060 On ch=1 n=74 v=127
171104 On ch=1 n=61 v=0
171110 On ch=1 n=45 v=0
171120 On ch=1 n=76 v=127
171120 On ch=1 n=64 v=127
171120 On ch=1 n=52 v=127
171120 On ch=1 n=40 v=127
171210 On ch=1 n=64 v=0
171234 On ch=1 n=74 v=0
171240 On ch=1 n=76 v=127
171261 On ch=1 n=76 v=0
171300 On ch=1 n=78 v=127
171301 Par ch=1 c=64 v=127
171326 On ch=1 n=78 v=0
171360 On ch=1 n=68 v=127
171360 On ch=1 n=80 v=127
171360 On ch=1 n=52 v=127
171360 On ch=1 n=40 v=127
171444 On ch=1 n=68 v=0
171480 On ch=1 n=88 v=127
171491 On ch=1 n=80 v=0
171520 On ch=1 n=90 v=127
171530 On ch=1 n=40 v=0
171559 On ch=1 n=52 v=0
171560 On ch=1 n=92 v=127
171600 On ch=1 n=81 v=127
171600 On ch=1 n=93 v=127
171600 On ch=1 n=45 v=127
171600 On ch=1 n=33 v=127
171606 On ch=1 n=57 v=0
171623 On ch=1 n=88 v=0
171623 On ch=1 n=90 v=0
171650 On ch=1 n=76 v=0
171683 On ch=1 n=92 v=0
171710 On ch=1 n=93 v=0
171720 On ch=1 n=57 v=127
171729 Par ch=1 c=64 v=0
171735 On ch=1 n=81 v=0
171780 On ch=1 n=59 v=127
171826 On ch=1 n=57 v=0
171836 On ch=1 n=40 v=0
171840 On ch=1 n=61 v=127
171840 On ch=1 n=49 v=127
171852 On ch=1 n=59 v=0
171867 On ch=1 n=52 v=0
171947 On ch=1 n=33 v=0
171950 On ch=1 n=61 v=0
171960 On ch=1 n=61 v=127
171997 On ch=1 n=45 v=0
172020 On ch=1 n=62 v=127
172053 On ch=1 n=62 v=0
172080 On ch=1 n=52 v=127
172080 On ch=1 n=64 v=127
172080 On ch=1 n=88 v=127
172080 On ch=1 n=76 v=127
172091 On ch=1 n=61 v=0
172102 On ch=1 n=49 v=0
172200 On ch=1 n=64 v=127
172219 On ch=1 n=52 v=0
172260 On ch=1 n=66 v=127
172269 On ch=1 n=64 v=0
172305 On ch=1 n=66 v=0
172320 On ch=1 n=88 v=127
172320 On ch=1 n=76 v=127
172320 On ch=1 n=56 v=127
172320 On ch=1 n=68 v=127
172343 On ch=1 n=64 v=0
172423 On ch=1 n=88 v=0
172432 On ch=1 n=56 v=0
172440 On ch=1 n=64 v=127
172480 On ch=1 n=66 v=127
172514 On ch=1 n=88 v=0
172514 On ch=1 n=68 v=0
172520 Tempo 750000
172520 On ch=1 n=68 v=127
172541 On ch=1 n=76 v=0
172560 On ch=1 n=76 v=60
172560 On ch=1 n=61 v=60
172560 On ch=1 n=64 v=60
172561 On ch=1 n=76 v=0
172568 On ch=1 n=68 v=0
172576 On ch=1 n=64 v=0
172582 On ch=1 n=66 v=0
172679 On ch=1 n=76 v=0
172680 On ch=1 n=73 v=60
172799 On ch=1 n=64 v=0
172799 On ch=1 n=73 v=0
172800 On ch=1 n=69 v=60
172910 On ch=1 n=61 v=0
172920 On ch=1 n=63 v=60
172920 On ch=1 n=71 v=60
173039 On ch=1 n=69 v=0
173039 On ch=1 n=63 v=0
173039 On ch=1 n=71 v=0
173040 On ch=1 n=64 v=60
173040 On ch=1 n=73 v=60
173279 On ch=1 n=73 v=0
173280 On ch=1 n=68 v=60
173280 On ch=1 n=71 v=60
173399 On ch=1 n=68 v=0
173400 On ch=1 n=67 v=60
173519 On ch=1 n=67 v=0
173519 On ch=1 n=71 v=0
173520 On ch=1 n=70 v=60
173520 On ch=1 n=78 v=60
173639 On ch=1 n=70 v=0
173639 On ch=1 n=78 v=0
173640 On ch=1 n=66 v=60
173640 On ch=1 n=74 v=60
173750 On ch=1 n=64 v=0
173759 On ch=1 n=66 v=0
173759 On ch=1 n=74 v=0
173760 On ch=1 n=62 v=60
173760 On ch=1 n=71 v=60
173879 On ch=1 n=62 v=0
173880 On ch=1 n=73 v=60
173880 On ch=1 n=64 v=60
173999 On ch=1 n=73 v=0
173999 On ch=1 n=71 v=0
173999 On ch=1 n=64 v=0
174000 On ch=1 n=74 v=60
174000 On ch=1 n=71 v=60
174000 On ch=1 n=66 v=60
174239 On ch=1 n=74 v=0
174239 On ch=1 n=71 v=0
174240 On ch=1 n=70 v=60
174240 On ch=1 n=73 v=60
174240 On ch=1 n=54 v=60
174359 On ch=1 n=70 v=0
174359 On ch=1 n=73 v=0
174360 On ch=1 n=70 v=60
174479 On ch=1 n=66 v=0
174479 On ch=1 n=54 v=0
174480 Tempo 1000000
174480 On ch=1 n=58 v=60
174480 On ch=1 n=54 v=60
174480 On ch=1 n=63 v=60
174599 On ch=1 n=70 v=0
174600 On ch=1 n=66 v=60
174719 On ch=1 n=63 v=0
174720 On ch=1 n=63 v=60
174839 On ch=1 n=58 v=0
174839 On ch=1 n=54 v=0
174839 On ch=1 n=63 v=0
174840 On ch=1 n=65 v=60
174840 On ch=1 n=56 v=60
174840 On ch=1 n=59 v=60
174959 On ch=1 n=65 v=0
174959 On ch=1 n=56 v=0
174959 On ch=1 n=59 v=0
174960 On ch=1 n=66 v=60
174960 On ch=1 n=58 v=60
174960 On ch=1 n=63 v=60
175060 On ch=1 n=66 v=0
175199 On ch=1 n=66 v=0
175199 On ch=1 n=58 v=0
175199 On ch=1 n=63 v=0
175200 On ch=1 n=65 v=60
175200 On ch=1 n=56 v=60
175200 On ch=1 n=62 v=60
175200 On ch=1 n=59 v=60
175319 On ch=1 n=65 v=0
175319 On ch=1 n=56 v=0
175319 On ch=1 n=62 v=0
175319 On ch=1 n=59 v=0
175320 Tempo 375000
175320 On ch=1 n=56 v=100
175320 On ch=1 n=76 v=100
175320 On ch=1 n=71 v=100
175320 On ch=1 n=44 v=100
175320 On ch=1 n=64 v=100
175320 On ch=1 n=74 v=100
175439 On ch=1 n=56 v=0
175439 On ch=1 n=76 v=0
175439 On ch=1 n=71 v=0
175439 On ch=1 n=44 v=0
175439 On ch=1 n=64 v=0
175439 On ch=1 n=74 v=0
175440 On ch=1 n=73 v=100
175440 On ch=1 n=64 v=100
175440 On ch=1 n=45 v=100
175440 On ch=1 n=76 v=100
175440 On ch=1 n=57 v=100
175558 On ch=1 n=73 v=0
175558 On ch=1 n=64 v=0
175558 On ch=1 n=45 v=0
175558 On ch=1 n=76 v=0
175558 On ch=1 n=57 v=0
175560 On ch=1 n=73 v=100
175560 On ch=1 n=49 v=100
175560 On ch=1 n=64 v=100
175560 On ch=1 n=61 v=100
175560 On ch=1 n=69 v=100
175678 On ch=1 n=73 v=0
175678 On ch=1 n=49 v=0
175678 On ch=1 n=64 v=0
175678 On ch=1 n=61 v=0
175678 On ch=1 n=69 v=0
175680 On ch=1 n=81 v=100
175680 On ch=1 n=54 v=100
175680 On ch=1 n=42 v=100
175680 On ch=1 n=69 v=100
175798 On ch=1 n=81 v=0
175798 On ch=1 n=54 v=0
175798 On ch=1 n=42 v=0
175798 On ch=1 n=69 v=0
175800 On ch=1 n=83 v=100
175800 On ch=1 n=71 v=100
175800 On ch=1 n=39 v=100
175800 On ch=1 n=51 v=100
175800 On ch=1 n=80 v=100
175918 On ch=1 n=83 v=0
175918 On ch=1 n=71 v=0
175918 On ch=1 n=39 v=0
175918 On ch=1 n=51 v=0
175918 On ch=1 n=80 v=0
175920 On ch=1 n=85 v=100
175920 On ch=1 n=81 v=100
175920 On ch=1 n=73 v=100
175920 On ch=1 n=52 v=100
175920 On ch=1 n=40 v=100
176038 On ch=1 n=85 v=0
176038 On ch=1 n=81 v=0
176038 On ch=1 n=73 v=0
176038 On ch=1 n=52 v=0
176038 On ch=1 n=40 v=0
176160 On ch=1 n=80 v=100
176160 On ch=1 n=83 v=100
176160 On ch=1 n=74 v=100
176160 On ch=1 n=71 v=100
176160 On ch=1 n=52 v=100
176160 On ch=1 n=56 v=100
176160 On ch=1 n=64 v=100
176160 On ch=1 n=59 v=100
176278 On ch=1 n=80 v=0
176278 On ch=1 n=83 v=0
176278 On ch=1 n=74 v=0
176278 On ch=1 n=71 v=0
176278 On ch=1 n=52 v=0
176278 On ch=1 n=56 v=0
176278 On ch=1 n=64 v=0
176278 On ch=1 n=59 v=0
176510 Par ch=1 c=64 v=127
176640 On ch=1 n=80 v=100
176640 On ch=1 n=68 v=100
176640 On ch=1 n=74 v=100
176640 On ch=1 n=56 v=100
176640 On ch=1 n=71 v=100
176640 On ch=1 n=64 v=100
176640 On ch=1 n=52 v=100
176640 On ch=1 n=59 v=100
176759 On ch=1 n=80 v=0
176759 On ch=1 n=68 v=0
176759 On ch=1 n=74 v=0
176759 On ch=1 n=56 v=0
176759 On ch=1 n=71 v=0
176759 On ch=1 n=64 v=0
176759 On ch=1 n=52 v=0
176759 On ch=1 n=59 v=0
177120 On ch=1 n=81 v=100
177120 On ch=1 n=69 v=100
177120 On ch=1 n=33 v=100
177120 On ch=1 n=73 v=100
177120 On ch=1 n=76 v=100
177180 On ch=1 n=45 v=100
177239 On ch=1 n=81 v=0
177239 On ch=1 n=69 v=0
177239 On ch=1 n=33 v=0
177239 On ch=1 n=73 v=0
177239 On ch=1 n=76 v=0
177239 On ch=1 n=45 v=0
177240 On ch=1 n=33 v=100
177299 On ch=1 n=33 v=0
177300 On ch=1 n=45 v=100
177302 Par ch=1 c=64 v=0
177359 On ch=1 n=45 v=0
177360 TimeSig 3/4 24 8
177360 Tempo 208333
177360 On ch=1 n=33 v=127
177414 Par ch=1 c=64 v=127
177419 On ch=1 n=33 v=0
177420 On ch=1 n=45 v=127
177479 On ch=1 n=45 v=0
177480 On ch=1 n=33 v=127
177539 On ch=1 n=33 v=0
177540 On ch=1 n=45 v=127
177599 On ch=1 n=45 v=0
177600 On ch=1 n=33 v=127
177659 On ch=1 n=33 v=0
177660 On ch=1 n=45 v=127
177719 On ch=1 n=45 v=0
177720 On ch=1 n=33 v=127
177779 On ch=1 n=33 v=0
177780 On ch=1 n=45 v=127
177839 On ch=1 n=45 v=0
177840 On ch=1 n=70 v=127
177840 On ch=1 n=82 v=127
177840 On ch=1 n=73 v=127
177840 On ch=1 n=76 v=127
177840 On ch=1 n=79 v=127
177840 On ch=1 n=57 v=127
177840 On ch=1 n=69 v=127
177840 On ch=1 n=65 v=127
177840 On ch=1 n=62 v=127
178079 On ch=1 n=57 v=0
178079 On ch=1 n=69 v=0
178079 On ch=1 n=65 v=0
178079 On ch=1 n=62 v=0
178080 On ch=1 n=33 v=127
178080 On ch=1 n=29 v=127
178139 On ch=1 n=33 v=0
178139 On ch=1 n=29 v=0
178140 On ch=1 n=41 v=127
178199 On ch=1 n=41 v=0
178200 On ch=1 n=29 v=127
178200 On ch=1 n=33 v=127
178259 On ch=1 n=29 v=0
178259 On ch=1 n=33 v=0
178260 On ch=1 n=41 v=127
178319 On ch=1 n=41 v=0
178320 On ch=1 n=33 v=127
178320 On ch=1 n=29 v=127
178379 On ch=1 n=33 v=0
178379 On ch=1 n=29 v=0
178380 On ch=1 n=41 v=127
178439 On ch=1 n=70 v=0
178439 On ch=1 n=82 v=0
178439 On ch=1 n=73 v=0
178439 On ch=1 n=76 v=0
178439 On ch=1 n=79 v=0
178439 On ch=1 n=41 v=0
178440 On ch=1 n=29 v=127
178440 On ch=1 n=81 v=127
178440 On ch=1 n=33 v=127
178440 On ch=1 n=69 v=127
178440 On ch=1 n=77 v=127
178440 On ch=1 n=74 v=127
178499 On ch=1 n=29 v=0
178499 On ch=1 n=81 v=0
178499 On ch=1 n=33 v=0
178499 On ch=1 n=69 v=0
178499 On ch=1 n=77 v=0
178499 On ch=1 n=74 v=0
178500 On ch=1 n=41 v=127
178560 On ch=1 n=33 v=127
178560 On ch=1 n=81 v=127
178560 On ch=1 n=29 v=127
178560 On ch=1 n=69 v=127
178560 On ch=1 n=77 v=127
178560 On ch=1 n=74 v=127
178579 On ch=1 n=41 v=0
178619 On ch=1 n=33 v=0
178619 On ch=1 n=81 v=0
178619 On ch=1 n=29 v=0
178619 On ch=1 n=69 v=0
178619 On ch=1 n=77 v=0
178619 On ch=1 n=74 v=0
178620 On ch=1 n=41 v=127
178679 On ch=1 n=41 v=0
178680 On ch=1 n=33 v=127
178680 On ch=1 n=74 v=127
178680 On ch=1 n=86 v=127
178680 On ch=1 n=29 v=127
178739 On ch=1 n=33 v=0
178739 On ch=1 n=74 v=0
178739 On ch=1 n=86 v=0
178739 On ch=1 n=29 v=0
178740 On ch=1 n=41 v=127
178799 On ch=1 n=41 v=0
178800 On ch=1 n=29 v=127
178800 On ch=1 n=74 v=127
178800 On ch=1 n=86 v=127
178800 On ch=1 n=33 v=127
178859 On ch=1 n=29 v=0
178859 On ch=1 n=74 v=0
178859 On ch=1 n=86 v=0
178859 On ch=1 n=33 v=0
178860 On ch=1 n=41 v=127
178919 On ch=1 n=41 v=0
178920 On ch=1 n=33 v=127
178920 On ch=1 n=89 v=127
178920 On ch=1 n=77 v=127
178920 On ch=1 n=29 v=127
178979 On ch=1 n=33 v=0
178979 On ch=1 n=89 v=0
178979 On ch=1 n=77 v=0
178979 On ch=1 n=29 v=0
178980 On ch=1 n=41 v=127
179039 On ch=1 n=41 v=0
179040 On ch=1 n=89 v=127
179040 On ch=1 n=33 v=127
179040 On ch=1 n=77 v=127
179040 On ch=1 n=29 v=127
179099 On ch=1 n=89 v=0
179099 On ch=1 n=33 v=0
179099 On ch=1 n=77 v=0
179099 On ch=1 n=29 v=0
179100 On ch=1 n=41 v=127
179159 On ch=1 n=41 v=0
179160 On ch=1 n=33 v=127
179160 On ch=1 n=29 v=127
179160 On ch=1 n=81 v=127
179160 On ch=1 n=93 v=127
179219 On ch=1 n=33 v=0
179219 On ch=1 n=29 v=0
179219 On ch=1 n=81 v=0
179219 On ch=1 n=93 v=0
179220 On ch=1 n=41 v=127
179279 On ch=1 n=41 v=0
179280 On ch=1 n=93 v=127
179280 On ch=1 n=33 v=127
179280 On ch=1 n=29 v=127
179280 On ch=1 n=81 v=127
179339 On ch=1 n=93 v=0
179339 On ch=1 n=33 v=0
179339 On ch=1 n=29 v=0
179339 On ch=1 n=81 v=0
179340 On ch=1 n=41 v=127
179399 On ch=1 n=41 v=0
179400 On ch=1 n=33 v=127
179400 On ch=1 n=74 v=127
179400 On ch=1 n=86 v=127
179400 On ch=1 n=29 v=127
179459 On ch=1 n=33 v=0
179459 On ch=1 n=74 v=0
179459 On ch=1 n=86 v=0
179459 On ch=1 n=29 v=0
179460 On ch=1 n=41 v=127
179519 On ch=1 n=41 v=0
179520 On ch=1 n=74 v=127
179520 On ch=1 n=86 v=127
179520 On ch=1 n=29 v=127
179520 On ch=1 n=33 v=127
179579 On ch=1 n=74 v=0
179579 On ch=1 n=86 v=0
179579 On ch=1 n=29 v=0
179579 On ch=1 n=33 v=0
179580 On ch=1 n=41 v=127
179639 On ch=1 n=41 v=0
179640 On ch=1 n=26 v=127
179640 On ch=1 n=89 v=127
179640 On ch=1 n=77 v=127
179699 On ch=1 n=26 v=0
179699 On ch=1 n=89 v=0
179699 On ch=1 n=77 v=0
179700 On ch=1 n=38 v=127
179759 On ch=1 n=38 v=0
179760 On ch=1 n=26 v=127
179760 On ch=1 n=89 v=127
179760 On ch=1 n=77 v=127
179819 On ch=1 n=26 v=0
179819 On ch=1 n=89 v=0
179819 On ch=1 n=77 v=0
179820 On ch=1 n=38 v=127
179879 On ch=1 n=38 v=0
179880 On ch=1 n=81 v=127
179880 On ch=1 n=69 v=127
179880 On ch=1 n=26 v=127
179939 On ch=1 n=81 v=0
179939 On ch=1 n=69 v=0
179939 On ch=1 n=26 v=0
179940 On ch=1 n=38 v=127
179999 On ch=1 n=38 v=0
180000 On ch=1 n=26 v=127
180000 On ch=1 n=69 v=127
180000 On ch=1 n=81 v=127
180059 On ch=1 n=26 v=0
180059 On ch=1 n=69 v=0
180059 On ch=1 n=81 v=0
180060 On ch=1 n=38 v=127
180119 On ch=1 n=38 v=0
180120 On ch=1 n=26 v=127
180120 On ch=1 n=86 v=127
180120 On ch=1 n=74 v=127
180179 On ch=1 n=26 v=0
180179 On ch=1 n=86 v=0
180179 On ch=1 n=74 v=0
180180 On ch=1 n=38 v=127
180239 On ch=1 n=38 v=0
180240 On ch=1 n=26 v=127
180240 On ch=1 n=86 v=127
180240 On ch=1 n=74 v=127
180299 On ch=1 n=26 v=0
180299 On ch=1 n=86 v=0
180299 On ch=1 n=74 v=0
180300 On ch=1 n=38 v=127
180359 On ch=1 n=38 v=0
180360 On ch=1 n=26 v=127
180360 On ch=1 n=65 v=127
180360 On ch=1 n=77 v=127
180419 On ch=1 n=26 v=0
180419 On ch=1 n=65 v=0
180419 On ch=1 n=77 v=0
180420 On ch=1 n=38 v=127
180479 On ch=1 n=38 v=0
180480 On ch=1 n=77 v=127
180480 On ch=1 n=65 v=127
180480 On ch=1 n=26 v=127
180539 On ch=1 n=77 v=0
180539 On ch=1 n=65 v=0
180539 On ch=1 n=26 v=0
180540 On ch=1 n=38 v=127
180599 On ch=1 n=38 v=0
180600 On ch=1 n=26 v=127
180600 On ch=1 n=81 v=127
180600 On ch=1 n=69 v=127
180659 On ch=1 n=26 v=0
180659 On ch=1 n=81 v=0
180659 On ch=1 n=69 v=0
180660 On ch=1 n=38 v=127
180719 On ch=1 n=38 v=0
180720 On ch=1 n=26 v=127
180720 On ch=1 n=81 v=127
180720 On ch=1 n=69 v=127
180779 On ch=1 n=26 v=0
180779 On ch=1 n=81 v=0
180779 On ch=1 n=69 v=0
180780 On ch=1 n=38 v=127
180839 On ch=1 n=38 v=0
180840 On ch=1 n=74 v=127
180840 On ch=1 n=26 v=127
180840 On ch=1 n=62 v=127
180899 On ch=1 n=74 v=0
180899 On ch=1 n=26 v=0
180899 On ch=1 n=62 v=0
180900 On ch=1 n=38 v=127
180959 On ch=1 n=38 v=0
180960 On ch=1 n=74 v=127
180960 On ch=1 n=62 v=127
181019 On ch=1 n=74 v=0
181019 On ch=1 n=62 v=0
181045 Par ch=1 c=64 v=0
181080 On ch=1 n=77 v=127
181080 On ch=1 n=74 v=127
181080 On ch=1 n=65 v=127
181080 On ch=1 n=50 v=127
181080 On ch=1 n=62 v=127
181139 On ch=1 n=77 v=0
181139 On ch=1 n=74 v=0
181139 On ch=1 n=65 v=0
181139 On ch=1 n=50 v=0
181139 On ch=1 n=62 v=0
181200 On ch=1 n=74 v=127
181200 On ch=1 n=65 v=127
181200 On ch=1 n=77 v=127
181200 On ch=1 n=50 v=127
181200 On ch=1 n=62 v=127
181259 On ch=1 n=74 v=0
181259 On ch=1 n=65 v=0
181259 On ch=1 n=77 v=0
181259 On ch=1 n=50 v=0
181259 On ch=1 n=62 v=0
181320 On ch=1 n=78 v=127
181320 On ch=1 n=66 v=127
181320 On ch=1 n=74 v=127
181320 On ch=1 n=60 v=127
181320 On ch=1 n=48 v=127
181379 On ch=1 n=78 v=0
181379 On ch=1 n=66 v=0
181379 On ch=1 n=74 v=0
181379 On ch=1 n=60 v=0
181379 On ch=1 n=48 v=0
181440 On ch=1 n=74 v=127
181440 On ch=1 n=78 v=127
181440 On ch=1 n=60 v=127
181440 On ch=1 n=66 v=127
181440 On ch=1 n=48 v=127
181499 On ch=1 n=74 v=0
181499 On ch=1 n=78 v=0
181499 On ch=1 n=60 v=0
181499 On ch=1 n=66 v=0
181499 On ch=1 n=48 v=0
181560 On ch=1 n=74 v=127
181560 On ch=1 n=79 v=127
181560 On ch=1 n=59 v=127
181560 On ch=1 n=67 v=127
181560 On ch=1 n=47 v=127
181619 On ch=1 n=74 v=0
181619 On ch=1 n=79 v=0
181619 On ch=1 n=59 v=0
181619 On ch=1 n=67 v=0
181619 On ch=1 n=47 v=0
181680 On ch=1 n=67 v=127
181680 On ch=1 n=79 v=127
181680 On ch=1 n=74 v=127
181680 On ch=1 n=47 v=127
181680 On ch=1 n=59 v=127
181739 On ch=1 n=67 v=0
181739 On ch=1 n=79 v=0
181739 On ch=1 n=74 v=0
181739 On ch=1 n=47 v=0
181739 On ch=1 n=59 v=0
181800 On ch=1 n=58 v=127
181800 On ch=1 n=80 v=127
181800 On ch=1 n=74 v=127
181800 On ch=1 n=68 v=127
181800 On ch=1 n=46 v=127
181859 On ch=1 n=58 v=0
181859 On ch=1 n=80 v=0
181859 On ch=1 n=74 v=0
181859 On ch=1 n=68 v=0
181859 On ch=1 n=46 v=0
181920 On ch=1 n=58 v=127
181920 On ch=1 n=80 v=127
181920 On ch=1 n=74 v=127
181920 On ch=1 n=68 v=127
181920 On ch=1 n=46 v=127
181979 On ch=1 n=58 v=0
181979 On ch=1 n=80 v=0
181979 On ch=1 n=74 v=0
181979 On ch=1 n=68 v=0
181979 On ch=1 n=46 v=0
182040 On ch=1 n=74 v=127
182040 On ch=1 n=80 v=127
182040 On ch=1 n=86 v=127
182040 On ch=1 n=46 v=127
182040 On ch=1 n=34 v=127
182099 On ch=1 n=74 v=0
182099 On ch=1 n=80 v=0
182099 On ch=1 n=86 v=0
182099 On ch=1 n=46 v=0
182099 On ch=1 n=34 v=0
182160 On ch=1 n=80 v=127
182160 On ch=1 n=74 v=127
182160 On ch=1 n=86 v=127
182160 On ch=1 n=46 v=127
182160 On ch=1 n=34 v=127
182219 On ch=1 n=80 v=0
182219 On ch=1 n=74 v=0
182219 On ch=1 n=86 v=0
182219 On ch=1 n=46 v=0
182219 On ch=1 n=34 v=0
182280 On ch=1 n=80 v=127
182280 On ch=1 n=89 v=127
182280 On ch=1 n=77 v=127
182280 On ch=1 n=86 v=127
182280 On ch=1 n=46 v=127
182280 On ch=1 n=34 v=127
182339 On ch=1 n=80 v=0
182339 On ch=1 n=89 v=0
182339 On ch=1 n=77 v=0
182339 On ch=1 n=86 v=0
182339 On ch=1 n=46 v=0
182339 On ch=1 n=34 v=0
182400 On ch=1 n=80 v=127
182400 On ch=1 n=46 v=127
182400 On ch=1 n=77 v=127
182400 On ch=1 n=89 v=127
182400 On ch=1 n=34 v=127
182400 On ch=1 n=86 v=127
182459 On ch=1 n=80 v=0
182459 On ch=1 n=46 v=0
182459 On ch=1 n=77 v=0
182459 On ch=1 n=89 v=0
182459 On ch=1 n=34 v=0
182459 On ch=1 n=86 v=0
182640 On ch=1 n=93 v=127
182640 On ch=1 n=81 v=127
182640 On ch=1 n=33 v=127
182640 On ch=1 n=45 v=127
182699 On ch=1 n=93 v=0
182699 On ch=1 n=81 v=0
182699 On ch=1 n=33 v=0
182699 On ch=1 n=45 v=0
183600 Tempo 985221
183600 On ch=1 n=57 v=100
183839 On ch=1 n=57 v=0
183840 On ch=1 n=57 v=100
183900 On ch=1 n=64 v=100
183915 On ch=1 n=57 v=0
184800 On ch=1 n=62 v=100
184800 On ch=1 n=64 v=0
184919 On ch=1 n=62 v=0
184920 On ch=1 n=61 v=100
185039 On ch=1 n=61 v=0
185040 On ch=1 n=62 v=100
185159 On ch=1 n=62 v=0
185160 On ch=1 n=64 v=100
185279 On ch=1 n=64 v=0
185280 On ch=1 n=64 v=100
185519 On ch=1 n=64 v=0
185520 On ch=1 n=55 v=100
185759 On ch=1 n=55 v=0
185880 On ch=1 n=55 v=100
185999 On ch=1 n=55 v=0
186000 On ch=1 n=58 v=100
186479 On ch=1 n=58 v=0
186480 On ch=1 n=57 v=100
186599 On ch=1 n=57 v=0
186600 On ch=1 n=52 v=100
186719 On ch=1 n=52 v=0
186720 On ch=1 n=55 v=100
186959 On ch=1 n=55 v=0
186960 On ch=1 n=57 v=60
186960 On ch=1 n=62 v=60
186960 On ch=1 n=65 v=60
186960 On ch=1 n=50 v=60
186960 On ch=1 n=53 v=100
187199 On ch=1 n=57 v=0
187199 On ch=1 n=62 v=0
187199 On ch=1 n=65 v=0
187199 On ch=1 n=50 v=0
187199 On ch=1 n=53 v=0
187200 On ch=1 n=66 v=60
187200 On ch=1 n=63 v=60
187200 On ch=1 n=57 v=60
187200 On ch=1 n=48 v=60
187679 On ch=1 n=66 v=0
187679 On ch=1 n=63 v=0
187679 On ch=1 n=57 v=0
187679 On ch=1 n=48 v=0
187680 On ch=1 n=62 v=60
187680 On ch=1 n=59 v=60
187680 On ch=1 n=67 v=60
187680 On ch=1 n=47 v=60
187919 On ch=1 n=62 v=0
187919 On ch=1 n=59 v=0
187919 On ch=1 n=47 v=0
187920 On ch=1 n=68 v=60
187920 On ch=1 n=59 v=60
187920 On ch=1 n=62 v=60
187920 On ch=1 n=41 v=60
187920 On ch=1 n=53 v=60
187973 On ch=1 n=67 v=0
188394 On ch=1 n=41 v=0
188399 On ch=1 n=68 v=0
188399 On ch=1 n=59 v=0
188399 On ch=1 n=62 v=0
188399 On ch=1 n=53 v=0
188400 On ch=1 n=74 v=60
188400 On ch=1 n=68 v=60
188400 On ch=1 n=59 v=60
188400 On ch=1 n=52 v=60
188400 On ch=1 n=40 v=60
188493 Par ch=1 c=64 v=127
188879 On ch=1 n=52 v=0
188879 On ch=1 n=40 v=0
188880 On ch=1 n=56 v=60
189359 On ch=1 n=59 v=0
189359 On ch=1 n=56 v=0
189360 On ch=1 n=56 v=60
189599 On ch=1 n=56 v=0
189840 On ch=1 n=62 v=100
190199 On ch=1 n=62 v=0
190200 On ch=1 n=59 v=100
190319 On ch=1 n=59 v=0
190320 On ch=1 n=59 v=100
190559 On ch=1 n=59 v=0
190560 On ch=1 n=56 v=100
190679 On ch=1 n=56 v=0
190680 On ch=1 n=57 v=100
190799 On ch=1 n=57 v=0
190800 On ch=1 n=59 v=100
190919 On ch=1 n=59 v=0
190920 On ch=1 n=61 v=100
191039 On ch=1 n=61 v=0
191040 On ch=1 n=64 v=100
191159 On ch=1 n=64 v=0
191160 On ch=1 n=62 v=100
191279 On ch=1 n=62 v=0
191280 On ch=1 n=61 v=100
191399 On ch=1 n=61 v=0
191400 On ch=1 n=62 v=100
191519 On ch=1 n=62 v=0
191520 On ch=1 n=59 v=100
191639 On ch=1 n=59 v=0
191640 On ch=1 n=56 v=100
191759 On ch=1 n=56 v=0
191760 On ch=1 n=52 v=100
191879 On ch=1 n=52 v=0
191880 On ch=1 n=50 v=100
191880 Off ch=1 n=74 v=78
191880 Off ch=1 n=68 v=22
191922 Par ch=1 c=64 v=0
191999 On ch=1 n=50 v=0
192000 On ch=1 n=50 v=100
192239 On ch=1 n=50 v=0
192240 On ch=1 n=54 v=100
192359 On ch=1 n=54 v=0
192360 On ch=1 n=52 v=100
192479 On ch=1 n=52 v=0
192480 On ch=1 n=50 v=100
192719 On ch=1 n=50 v=0
192720 On ch=1 n=49 v=100
192959 On ch=1 n=49 v=0
192960 On ch=1 n=69 v=100
192960 On ch=1 n=64 v=100
192960 On ch=1 n=73 v=100
192960 On ch=1 n=76 v=100
192960 On ch=1 n=55 v=100
192960 On ch=1 n=43 v=100
193199 On ch=1 n=69 v=0
193199 On ch=1 n=64 v=0
193199 On ch=1 n=73 v=0
193199 On ch=1 n=76 v=0
193199 On ch=1 n=55 v=0
193199 On ch=1 n=43 v=0
193200 On ch=1 n=54 v=100
193200 On ch=1 n=74 v=100
193200 On ch=1 n=81 v=100
193200 On ch=1 n=69 v=100
193200 On ch=1 n=42 v=100
193250 Par ch=1 c=64 v=127
193319 On ch=1 n=54 v=0
193319 On ch=1 n=74 v=0
193319 On ch=1 n=81 v=0
193319 On ch=1 n=69 v=0
193319 On ch=1 n=42 v=0
193320 On ch=1 n=74 v=100
193320 On ch=1 n=81 v=100
193320 On ch=1 n=69 v=100
193320 On ch=1 n=54 v=100
193320 On ch=1 n=42 v=100
193439 On ch=1 n=74 v=0
193439 On ch=1 n=81 v=0
193439 On ch=1 n=69 v=0
193439 On ch=1 n=54 v=0
193439 On ch=1 n=42 v=0
193440 On ch=1 n=78 v=100
193440 On ch=1 n=74 v=100
193440 On ch=1 n=86 v=100
193440 On ch=1 n=81 v=100
193440 On ch=1 n=62 v=100
193440 On ch=1 n=57 v=100
193440 On ch=1 n=54 v=100
193560 On ch=1 n=78 v=0
193560 On ch=1 n=74 v=0
193560 On ch=1 n=86 v=0
193560 On ch=1 n=81 v=0
193560 On ch=1 n=62 v=0
193560 On ch=1 n=57 v=0
193560 On ch=1 n=54 v=0
193680 On ch=1 n=57 v=100
193720 Par ch=1 c=64 v=0
193800 On ch=1 n=57 v=0
193920 On ch=1 n=62 v=100
194279 On ch=1 n=62 v=0
194280 On ch=1 n=64 v=100
194399 On ch=1 n=64 v=0
194400 On ch=1 n=66 v=100
194519 On ch=1 n=66 v=0
194520 On ch=1 n=64 v=100
194639 On ch=1 n=64 v=0
194640 On ch=1 n=64 v=100
194759 On ch=1 n=64 v=0
194760 On ch=1 n=62 v=100
194830 On ch=1 n=62 v=0
194880 On ch=1 n=62 v=100
194999 On ch=1 n=62 v=0
195000 On ch=1 n=61 v=100
195119 On ch=1 n=61 v=0
195120 On ch=1 n=62 v=100
195239 On ch=1 n=62 v=0
195240 On ch=1 n=57 v=100
195359 On ch=1 n=57 v=0
195360 On ch=1 n=55 v=100
195479 On ch=1 n=55 v=0
195480 On ch=1 n=54 v=100
195599 On ch=1 n=54 v=0
195600 On ch=1 n=54 v=100
195719 On ch=1 n=54 v=0
195720 On ch=1 n=52 v=100
195839 On ch=1 n=52 v=0
195840 On ch=1 n=50 v=100
195959 On ch=1 n=50 v=0
195960 On ch=1 n=48 v=100
196030 On ch=1 n=48 v=0
196080 On ch=1 n=48 v=100
196199 On ch=1 n=48 v=0
196200 On ch=1 n=47 v=100
196319 On ch=1 n=47 v=0
196320 On ch=1 n=43 v=60
196320 On ch=1 n=62 v=60
196320 On ch=1 n=71 v=60
196320 On ch=1 n=74 v=60
196320 On ch=1 n=55 v=100
196440 On ch=1 n=43 v=0
196440 On ch=1 n=62 v=0
196440 On ch=1 n=71 v=0
196440 On ch=1 n=74 v=0
196560 On ch=1 n=83 v=100
196560 On ch=1 n=71 v=100
196560 On ch=1 n=74 v=100
196560 On ch=1 n=79 v=100
196679 On ch=1 n=83 v=0
196679 On ch=1 n=71 v=0
196679 On ch=1 n=74 v=0
196679 On ch=1 n=79 v=0
197159 On ch=1 n=55 v=0
197160 On ch=1 n=52 v=100
197279 On ch=1 n=52 v=0
197280 On ch=1 n=49 v=100
197399 On ch=1 n=49 v=0
197400 On ch=1 n=50 v=100
197519 On ch=1 n=50 v=0
197520 On ch=1 n=50 v=100
197639 On ch=1 n=50 v=0
197640 On ch=1 n=45 v=100
197759 On ch=1 n=45 v=0
197760 On ch=1 n=45 v=100
197999 On ch=1 n=45 v=0
198000 On ch=1 n=52 v=100
198000 On ch=1 n=57 v=100
198000 On ch=1 n=61 v=100
198000 On ch=1 n=85 v=100
198000 On ch=1 n=73 v=100
198000 On ch=1 n=76 v=100
198000 On ch=1 n=81 v=100
198230 On ch=1 n=52 v=0
198230 On ch=1 n=57 v=0
198230 On ch=1 n=61 v=0
198230 On ch=1 n=85 v=0
198230 On ch=1 n=73 v=0
198230 On ch=1 n=76 v=0
198230 On ch=1 n=81 v=0
198240 Tempo 372902
198240 TimeSig 4/4 24 8
198240 On ch=1 n=73 v=70
198240 On ch=1 n=45 v=70
198240 On ch=1 n=64 v=70
198240 On ch=1 n=57 v=70
198479 On ch=1 n=73 v=0
198479 On ch=1 n=64 v=0
198480 On ch=1 n=73 v=70
198480 On ch=1 n=64 v=70
198719 On ch=1 n=73 v=0
198719 On ch=1 n=64 v=0
198720 On ch=1 n=66 v=70
198720 On ch=1 n=74 v=70
198959 On ch=1 n=66 v=0
198959 On ch=1 n=74 v=0
198960 On ch=1 n=67 v=70
198960 On ch=1 n=76 v=70
199199 On ch=1 n=67 v=0
199199 On ch=1 n=45 v=0
199199 On ch=1 n=76 v=0
199199 On ch=1 n=57 v=0
199200 On ch=1 n=64 v=100
199200 On ch=1 n=67 v=70
199200 On ch=1 n=76 v=70
199439 On ch=1 n=64 v=0
199439 On ch=1 n=67 v=0
199439 On ch=1 n=76 v=0
199440 On ch=1 n=66 v=70
199440 On ch=1 n=74 v=70
199440 On ch=1 n=62 v=100
199679 On ch=1 n=66 v=0
199679 On ch=1 n=74 v=0
199679 On ch=1 n=62 v=0
199680 On ch=1 n=73 v=70
199680 On ch=1 n=64 v=70
199680 On ch=1 n=45 v=100
199680 On ch=1 n=57 v=70
199919 On ch=1 n=73 v=0
199919 On ch=1 n=64 v=0
199919 On ch=1 n=45 v=0
199919 On ch=1 n=57 v=0
199920 On ch=1 n=62 v=70
199920 On ch=1 n=71 v=70
199920 On ch=1 n=57 v=70
199920 On ch=1 n=45 v=100
200159 On ch=1 n=62 v=0
200159 On ch=1 n=71 v=0
200159 On ch=1 n=57 v=0
200159 On ch=1 n=45 v=0
200160 On ch=1 n=73 v=70
200160 On ch=1 n=76 v=70
200160 On ch=1 n=64 v=70
200160 On ch=1 n=61 v=70
200160 On ch=1 n=57 v=70
200399 On ch=1 n=73 v=0
200399 On ch=1 n=76 v=0
200399 On ch=1 n=64 v=0
200399 On ch=1 n=61 v=0
200400 On ch=1 n=61 v=70
200400 On ch=1 n=76 v=70
200400 On ch=1 n=73 v=70
200400 On ch=1 n=64 v=70
200639 On ch=1 n=61 v=0
200639 On ch=1 n=76 v=0
200639 On ch=1 n=73 v=0
200639 On ch=1 n=64 v=0
200640 On ch=1 n=66 v=70
200640 On ch=1 n=78 v=70
200640 On ch=1 n=74 v=70
200640 On ch=1 n=62 v=70
200879 On ch=1 n=66 v=0
200879 On ch=1 n=78 v=0
200879 On ch=1 n=74 v=0
200879 On ch=1 n=62 v=0
200880 On ch=1 n=64 v=70
200880 On ch=1 n=67 v=70
200880 On ch=1 n=79 v=70
200880 On ch=1 n=76 v=70
201119 On ch=1 n=64 v=0
201119 On ch=1 n=67 v=0
201119 On ch=1 n=79 v=0
201119 On ch=1 n=76 v=0
201119 On ch=1 n=57 v=0
201120 On ch=1 n=67 v=70
201120 On ch=1 n=76 v=70
201120 On ch=1 n=79 v=70
201120 On ch=1 n=64 v=100
201359 On ch=1 n=67 v=0
201359 On ch=1 n=76 v=0
201359 On ch=1 n=79 v=0
201359 On ch=1 n=64 v=0
201360 On ch=1 n=66 v=70
201360 On ch=1 n=78 v=70
201360 On ch=1 n=74 v=70
201360 On ch=1 n=62 v=100
201599 On ch=1 n=66 v=0
201599 On ch=1 n=78 v=0
201599 On ch=1 n=74 v=0
201600 On ch=1 n=76 v=70
201600 On ch=1 n=45 v=100
201600 On ch=1 n=64 v=70
201600 On ch=1 n=67 v=70
201839 On ch=1 n=76 v=0
201839 On ch=1 n=45 v=0
201839 On ch=1 n=64 v=0
201839 On ch=1 n=62 v=0
201839 On ch=1 n=67 v=0
201840 On ch=1 n=66 v=70
201840 On ch=1 n=62 v=70
201840 On ch=1 n=74 v=70
201840 On ch=1 n=45 v=100
201840 On ch=1 n=57 v=70
201959 On ch=1 n=57 v=0
201960 On ch=1 n=55 v=70
202079 On ch=1 n=66 v=0
202079 On ch=1 n=62 v=0
202079 On ch=1 n=74 v=0
202079 On ch=1 n=45 v=0
202080 On ch=1 n=54 v=70
202080 On ch=1 n=42 v=70
202080 On ch=1 n=69 v=70
202080 On ch=1 n=62 v=70
202080 On ch=1 n=74 v=70
202199 On ch=1 n=55 v=0
202319 On ch=1 n=54 v=0
202319 On ch=1 n=42 v=0
202319 On ch=1 n=69 v=0
202319 On ch=1 n=62 v=0
202319 On ch=1 n=74 v=0
202320 On ch=1 n=54 v=70
202320 On ch=1 n=42 v=70
202380 On ch=1 n=42 v=0
202440 On ch=1 n=74 v=70
202559 On ch=1 n=54 v=0
202559 On ch=1 n=74 v=0
202560 On ch=1 n=69 v=70
202560 On ch=1 n=55 v=70
202560 On ch=1 n=43 v=70
202620 On ch=1 n=43 v=0
202799 On ch=1 n=69 v=0
202799 On ch=1 n=55 v=0
202800 On ch=1 n=57 v=70
202800 On ch=1 n=45 v=70
202860 On ch=1 n=45 v=0
203039 On ch=1 n=57 v=0
203040 Tempo 375000
203040 TimeSig 4/4 24 8
203040 On ch=1 n=71 v=63
203040 On ch=1 n=57 v=90
203040 On ch=1 n=45 v=63
203090 On ch=1 n=45 v=0
203270 On ch=1 n=71 v=0
203270 On ch=1 n=57 v=0
203280 On ch=1 n=69 v=63
203280 On ch=1 n=55 v=90
203280 On ch=1 n=43 v=63
203330 On ch=1 n=43 v=0
203400 On ch=1 n=71 v=63
203510 On ch=1 n=55 v=0
203510 On ch=1 n=71 v=0
203520 On ch=1 n=73 v=63
203520 On ch=1 n=54 v=90
203520 On ch=1 n=42 v=63
203570 On ch=1 n=42 v=0
203750 On ch=1 n=69 v=0
203750 On ch=1 n=73 v=0
203750 On ch=1 n=54 v=0
203760 On ch=1 n=69 v=63
203760 On ch=1 n=67 v=63
203760 On ch=1 n=52 v=90
203760 On ch=1 n=40 v=63
203810 On ch=1 n=40 v=0
203880 On ch=1 n=73 v=63
203990 On ch=1 n=69 v=0
203990 On ch=1 n=67 v=0
203990 On ch=1 n=52 v=0
203990 On ch=1 n=73 v=0
204000 On ch=1 n=74 v=63
204000 On ch=1 n=69 v=63
204000 On ch=1 n=66 v=63
204000 On ch=1 n=50 v=90
204000 On ch=1 n=38 v=63
204050 On ch=1 n=38 v=0
204230 On ch=1 n=74 v=0
204230 On ch=1 n=69 v=0
204230 On ch=1 n=66 v=0
204230 On ch=1 n=50 v=0
204240 On ch=1 n=69 v=63
204240 On ch=1 n=66 v=63
204240 On ch=1 n=50 v=90
204240 On ch=1 n=38 v=63
204290 On ch=1 n=38 v=0
204360 On ch=1 n=74 v=63
204470 On ch=1 n=69 v=0
204470 On ch=1 n=66 v=0
204470 On ch=1 n=50 v=0
204470 On ch=1 n=74 v=0
204480 On ch=1 n=74 v=63
204480 On ch=1 n=69 v=63
204480 On ch=1 n=67 v=63
204480 On ch=1 n=52 v=90
204480 On ch=1 n=40 v=63
204530 On ch=1 n=40 v=0
204710 On ch=1 n=74 v=0
204710 On ch=1 n=69 v=0
204710 On ch=1 n=67 v=0
204710 On ch=1 n=52 v=0
204720 On ch=1 n=69 v=63
204720 On ch=1 n=54 v=90
204720 On ch=1 n=40 v=63
204770 On ch=1 n=40 v=0
204840 On ch=1 n=74 v=63
204950 On ch=1 n=69 v=0
204950 On ch=1 n=54 v=0
204950 On ch=1 n=74 v=0
204960 On ch=1 n=74 v=63
204960 On ch=1 n=69 v=63
204960 On ch=1 n=54 v=90
204960 On ch=1 n=42 v=63
205010 On ch=1 n=42 v=0
205190 On ch=1 n=74 v=0
205310 On ch=1 n=69 v=0
205310 On ch=1 n=54 v=0
205320 On ch=1 n=74 v=63
205320 On ch=1 n=67 v=63
205320 On ch=1 n=52 v=90
205430 On ch=1 n=74 v=0
205430 On ch=1 n=67 v=0
205430 On ch=1 n=52 v=0
205440 On ch=1 n=73 v=63
205440 On ch=1 n=69 v=63
205440 On ch=1 n=67 v=63
205440 On ch=1 n=52 v=90
205440 On ch=1 n=40 v=63
205490 On ch=1 n=40 v=0
205670 On ch=1 n=73 v=0
205670 On ch=1 n=69 v=0
205670 On ch=1 n=67 v=0
205680 On ch=1 n=79 v=63
205790 On ch=1 n=79 v=0
205800 On ch=1 n=73 v=63
205910 On ch=1 n=73 v=0
205910 On ch=1 n=52 v=0
205920 On ch=1 n=74 v=63
205920 On ch=1 n=69 v=63
205920 On ch=1 n=62 v=63
205920 On ch=1 n=54 v=90
205920 On ch=1 n=42 v=63
205970 On ch=1 n=42 v=0
206150 On ch=1 n=74 v=0
206150 On ch=1 n=69 v=0
206150 On ch=1 n=62 v=0
206150 On ch=1 n=54 v=0
206160 On ch=1 n=62 v=63
206160 On ch=1 n=54 v=90
206160 On ch=1 n=42 v=63
206210 On ch=1 n=42 v=0
206280 On ch=1 n=74 v=63
206390 On ch=1 n=62 v=0
206390 On ch=1 n=54 v=0
206390 On ch=1 n=74 v=0
206400 On ch=1 n=69 v=63
206400 On ch=1 n=64 v=63
206400 On ch=1 n=55 v=90
206400 On ch=1 n=43 v=63
206450 On ch=1 n=43 v=0
206630 On ch=1 n=69 v=0
206630 On ch=1 n=64 v=0
206630 On ch=1 n=55 v=0
206640 On ch=1 n=66 v=63
206640 On ch=1 n=57 v=90
206640 On ch=1 n=45 v=63
206690 On ch=1 n=45 v=0
206760 On ch=1 n=69 v=63
206870 On ch=1 n=66 v=0
206870 On ch=1 n=57 v=0
206870 On ch=1 n=69 v=0
206880 On ch=1 n=71 v=63
206880 On ch=1 n=66 v=63
206880 On ch=1 n=57 v=90
206880 On ch=1 n=45 v=63
206930 On ch=1 n=45 v=0
207110 On ch=1 n=71 v=0
207110 On ch=1 n=66 v=0
207110 On ch=1 n=57 v=0
207120 On ch=1 n=64 v=63
207120 On ch=1 n=55 v=90
207120 On ch=1 n=43 v=63
207170 On ch=1 n=43 v=0
207240 On ch=1 n=71 v=63
207350 On ch=1 n=64 v=0
207350 On ch=1 n=55 v=0
207350 On ch=1 n=71 v=0
207360 On ch=1 n=71 v=63
207360 On ch=1 n=69 v=63
207360 On ch=1 n=62 v=63
207360 On ch=1 n=54 v=90
207360 On ch=1 n=42 v=63
207410 On ch=1 n=42 v=0
207590 On ch=1 n=71 v=0
207590 On ch=1 n=69 v=0
207590 On ch=1 n=62 v=0
207590 On ch=1 n=54 v=0
207600 On ch=1 n=69 v=63
207600 On ch=1 n=67 v=63
207600 On ch=1 n=52 v=90
207600 On ch=1 n=40 v=63
207650 On ch=1 n=40 v=0
207720 On ch=1 n=73 v=63
207830 On ch=1 n=69 v=0
207830 On ch=1 n=67 v=0
207830 On ch=1 n=52 v=0
207830 On ch=1 n=73 v=0
207840 On ch=1 n=74 v=63
207840 On ch=1 n=69 v=63
207840 On ch=1 n=66 v=63
207840 On ch=1 n=50 v=90
207840 On ch=1 n=38 v=63
207890 On ch=1 n=38 v=0
208070 On ch=1 n=74 v=0
208070 On ch=1 n=69 v=0
208070 On ch=1 n=66 v=0
208070 On ch=1 n=50 v=0
208080 On ch=1 n=78 v=63
208080 On ch=1 n=50 v=90
208080 On ch=1 n=38 v=63
208130 On ch=1 n=38 v=0
208200 On ch=1 n=69 v=63
208200 On ch=1 n=66 v=63
208310 On ch=1 n=78 v=0
208310 On ch=1 n=50 v=0
208310 On ch=1 n=69 v=0
208310 On ch=1 n=66 v=0
208320 On ch=1 n=76 v=63
208320 On ch=1 n=69 v=63
208320 On ch=1 n=67 v=63
208320 On ch=1 n=52 v=90
208320 On ch=1 n=40 v=63
208370 On ch=1 n=40 v=0
208550 On ch=1 n=76 v=0
208550 On ch=1 n=69 v=0
208550 On ch=1 n=67 v=0
208550 On ch=1 n=52 v=0
208560 On ch=1 n=74 v=63
208560 On ch=1 n=54 v=90
208560 On ch=1 n=42 v=63
208610 On ch=1 n=42 v=0
208680 On ch=1 n=69 v=63
208790 On ch=1 n=74 v=0
208790 On ch=1 n=54 v=0
208790 On ch=1 n=69 v=0
208800 On ch=1 n=73 v=63
208800 On ch=1 n=69 v=63
208800 On ch=1 n=67 v=63
208800 On ch=1 n=52 v=90
208800 On ch=1 n=40 v=63
208820 On ch=1 n=40 v=0
209030 On ch=1 n=69 v=0
209030 On ch=1 n=67 v=0
209150 On ch=1 n=73 v=0
209150 On ch=1 n=52 v=0
209160 On ch=1 n=74 v=63
209160 On ch=1 n=66 v=63
209160 On ch=1 n=50 v=90
209250 On ch=1 n=38 v=63
209270 On ch=1 n=74 v=0
209270 On ch=1 n=66 v=0
209270 On ch=1 n=50 v=0
209270 On ch=1 n=38 v=0
209280 On ch=1 n=74 v=63
209280 On ch=1 n=69 v=63
209280 On ch=1 n=66 v=63
209280 On ch=1 n=50 v=90
209390 On ch=1 n=74 v=0
209390 On ch=1 n=50 v=0
209400 On ch=1 n=74 v=63
209400 On ch=1 n=66 v=90
209510 On ch=1 n=74 v=0
209510 On ch=1 n=69 v=0
209510 On ch=1 n=66 v=0
209510 On ch=1 n=66 v=0
209520 On ch=1 n=76 v=63
209520 On ch=1 n=64 v=90
209630 On ch=1 n=76 v=0
209630 On ch=1 n=64 v=0
209640 On ch=1 n=78 v=63
209640 On ch=1 n=62 v=90
209750 On ch=1 n=78 v=0
209750 On ch=1 n=62 v=0
209760 On ch=1 n=79 v=63
209760 On ch=1 n=73 v=63
209760 On ch=1 n=69 v=63
209760 On ch=1 n=52 v=90
209760 On ch=1 n=40 v=63
209810 On ch=1 n=40 v=0
209990 On ch=1 n=79 v=0
209990 On ch=1 n=73 v=0
209990 On ch=1 n=69 v=0
209990 On ch=1 n=52 v=0
210000 On ch=1 n=73 v=63
210000 On ch=1 n=52 v=90
210000 On ch=1 n=40 v=63
210050 On ch=1 n=40 v=0
210120 On ch=1 n=69 v=63
210120 On ch=1 n=61 v=63
210230 On ch=1 n=73 v=0
210230 On ch=1 n=52 v=0
210230 On ch=1 n=69 v=0
210230 On ch=1 n=61 v=0
210240 On ch=1 n=74 v=63
210240 On ch=1 n=69 v=63
210240 On ch=1 n=62 v=63
210240 On ch=1 n=54 v=90
210240 On ch=1 n=42 v=63
210290 On ch=1 n=42 v=0
210470 On ch=1 n=74 v=0
210470 On ch=1 n=69 v=0
210470 On ch=1 n=62 v=0
210470 On ch=1 n=54 v=0
210480 On ch=1 n=78 v=63
210480 On ch=1 n=50 v=90
210480 On ch=1 n=38 v=63
210530 On ch=1 n=38 v=0
210600 On ch=1 n=69 v=63
210600 On ch=1 n=66 v=63
210710 On ch=1 n=78 v=0
210710 On ch=1 n=50 v=0
210710 On ch=1 n=69 v=0
210710 On ch=1 n=66 v=0
210720 On ch=1 n=79 v=63
210720 On ch=1 n=69 v=63
210720 On ch=1 n=67 v=63
210720 On ch=1 n=52 v=90
210720 On ch=1 n=40 v=63
210770 On ch=1 n=40 v=0
210830 On ch=1 n=79 v=0
210840 On ch=1 n=73 v=63
210950 On ch=1 n=73 v=0
210950 On ch=1 n=69 v=0
210950 On ch=1 n=67 v=0
210950 On ch=1 n=52 v=0
210960 On ch=1 n=74 v=63
210960 On ch=1 n=54 v=90
210960 On ch=1 n=42 v=63
211070 On ch=1 n=74 v=0
211070 On ch=1 n=54 v=0
211070 On ch=1 n=42 v=0
211080 On ch=1 n=76 v=63
211080 On ch=1 n=69 v=63
211080 On ch=1 n=64 v=63
211080 On ch=1 n=55 v=90
211080 On ch=1 n=43 v=63
211190 On ch=1 n=76 v=0
211190 On ch=1 n=69 v=0
211190 On ch=1 n=64 v=0
211190 On ch=1 n=55 v=0
211190 On ch=1 n=43 v=0
211200 On ch=1 n=74 v=63
211200 On ch=1 n=69 v=63
211200 On ch=1 n=62 v=63
211200 On ch=1 n=54 v=90
211200 On ch=1 n=42 v=63
211250 On ch=1 n=42 v=0
211430 On ch=1 n=74 v=0
211430 On ch=1 n=69 v=0
211430 On ch=1 n=62 v=0
211430 On ch=1 n=54 v=0
211440 On ch=1 n=76 v=63
211440 On ch=1 n=50 v=90
211440 On ch=1 n=38 v=63
211490 On ch=1 n=38 v=0
211550 On ch=1 n=76 v=0
211560 On ch=1 n=78 v=63
211560 On ch=1 n=69 v=63
211560 On ch=1 n=66 v=63
211670 On ch=1 n=78 v=0
211670 On ch=1 n=50 v=0
211670 On ch=1 n=69 v=0
211670 On ch=1 n=66 v=0
211680 On ch=1 n=79 v=63
211680 On ch=1 n=69 v=63
211680 On ch=1 n=67 v=63
211680 On ch=1 n=52 v=90
211680 On ch=1 n=40 v=63
211730 On ch=1 n=40 v=0
211790 On ch=1 n=79 v=0
211800 On ch=1 n=73 v=63
211910 On ch=1 n=73 v=0
211910 On ch=1 n=69 v=0
211910 On ch=1 n=67 v=0
211910 On ch=1 n=52 v=0
211920 On ch=1 n=74 v=63
211920 On ch=1 n=54 v=90
211920 On ch=1 n=42 v=63
212030 On ch=1 n=74 v=0
212030 On ch=1 n=54 v=0
212030 On ch=1 n=42 v=0
212040 On ch=1 n=76 v=63
212040 On ch=1 n=69 v=63
212040 On ch=1 n=64 v=63
212040 On ch=1 n=55 v=90
212040 On ch=1 n=43 v=63
212150 On ch=1 n=76 v=0
212150 On ch=1 n=69 v=0
212150 On ch=1 n=64 v=0
212150 On ch=1 n=55 v=0
212150 On ch=1 n=43 v=0
212160 On ch=1 n=74 v=63
212160 On ch=1 n=69 v=63
212160 On ch=1 n=62 v=63
212160 On ch=1 n=54 v=90
212160 On ch=1 n=42 v=63
212210 On ch=1 n=42 v=0
212390 On ch=1 n=74 v=0
212390 On ch=1 n=69 v=0
212390 On ch=1 n=62 v=0
212390 On ch=1 n=54 v=0
212400 On ch=1 n=79 v=63
212400 On ch=1 n=52 v=90
212400 On ch=1 n=38 v=63
212450 On ch=1 n=38 v=0
212520 On ch=1 n=69 v=63
212520 On ch=1 n=67 v=63
212630 On ch=1 n=52 v=0
212630 On ch=1 n=69 v=0
212630 On ch=1 n=67 v=0
212640 On ch=1 n=69 v=63
212640 On ch=1 n=67 v=63
212640 On ch=1 n=50 v=90
212640 On ch=1 n=38 v=63
212690 On ch=1 n=38 v=0
212750 On ch=1 n=79 v=0
212750 On ch=1 n=69 v=0
212750 On ch=1 n=67 v=0
212760 On ch=1 n=78 v=63
212760 On ch=1 n=66 v=63
212870 On ch=1 n=78 v=0
212870 On ch=1 n=66 v=0
212870 On ch=1 n=50 v=0
212880 On ch=1 n=79 v=63
212880 On ch=1 n=69 v=63
212880 On ch=1 n=67 v=63
212880 On ch=1 n=52 v=90
212880 On ch=1 n=40 v=63
212930 On ch=1 n=40 v=0
212990 On ch=1 n=79 v=0
212990 On ch=1 n=69 v=0
212990 On ch=1 n=67 v=0
213000 On ch=1 n=76 v=63
213000 On ch=1 n=64 v=63
213110 On ch=1 n=76 v=0
213110 On ch=1 n=64 v=0
213110 On ch=1 n=52 v=0
213120 On ch=1 n=74 v=63
213120 On ch=1 n=69 v=63
213120 On ch=1 n=62 v=63
213120 On ch=1 n=45 v=90
213120 On ch=1 n=33 v=63
213170 On ch=1 n=33 v=0
213230 On ch=1 n=74 v=0
213230 On ch=1 n=69 v=0
213230 On ch=1 n=62 v=0
213240 On ch=1 n=73 v=63
213240 On ch=1 n=61 v=63
213350 On ch=1 n=73 v=0
213350 On ch=1 n=61 v=0
213350 On ch=1 n=45 v=0
213360 On ch=1 n=76 v=63
213360 On ch=1 n=69 v=63
213360 On ch=1 n=64 v=63
213360 On ch=1 n=54 v=90
213360 On ch=1 n=42 v=63
213410 On ch=1 n=42 v=0
213470 On ch=1 n=76 v=0
213470 On ch=1 n=69 v=0
213470 On ch=1 n=64 v=0
213480 On ch=1 n=74 v=63
213480 On ch=1 n=62 v=63
213590 On ch=1 n=74 v=0
213590 On ch=1 n=62 v=0
213600 On ch=1 n=81 v=63
213600 On ch=1 n=69 v=63
213600 On ch=1 n=74 v=63
213600 On ch=1 n=42 v=63
213650 On ch=1 n=42 v=0
213830 On ch=1 n=81 v=0
213830 On ch=1 n=69 v=0
213830 On ch=1 n=74 v=0
213839 On ch=1 n=54 v=0
213840 On ch=1 n=75 v=63
213840 On ch=1 n=63 v=63
213840 On ch=1 n=54 v=90
213960 On ch=1 n=81 v=63
213960 On ch=1 n=69 v=63
214070 On ch=1 n=75 v=0
214070 On ch=1 n=63 v=0
214070 On ch=1 n=54 v=0
214070 On ch=1 n=81 v=0
214070 On ch=1 n=69 v=0
214080 On ch=1 n=81 v=63
214080 On ch=1 n=69 v=63
214080 On ch=1 n=76 v=63
214080 On ch=1 n=64 v=63
214080 On ch=1 n=55 v=90
214310 On ch=1 n=81 v=0
214310 On ch=1 n=69 v=0
214310 On ch=1 n=76 v=0
214310 On ch=1 n=64 v=0
214310 On ch=1 n=55 v=0
214320 On ch=1 n=78 v=63
214320 On ch=1 n=66 v=63
214320 On ch=1 n=57 v=90
214440 On ch=1 n=81 v=63
214440 On ch=1 n=69 v=63
214550 On ch=1 n=78 v=0
214550 On ch=1 n=66 v=0
214550 On ch=1 n=57 v=0
214550 On ch=1 n=81 v=0
214550 On ch=1 n=69 v=0
214560 On ch=1 n=83 v=63
214560 On ch=1 n=71 v=63
214560 On ch=1 n=78 v=63
214560 On ch=1 n=66 v=63
214560 On ch=1 n=57 v=90
214790 On ch=1 n=83 v=0
214790 On ch=1 n=71 v=0
214790 On ch=1 n=78 v=0
214790 On ch=1 n=66 v=0
214790 On ch=1 n=57 v=0
214800 On ch=1 n=76 v=63
214800 On ch=1 n=64 v=63
214800 On ch=1 n=55 v=90
214920 On ch=1 n=83 v=63
214920 On ch=1 n=71 v=63
215030 On ch=1 n=76 v=0
215030 On ch=1 n=64 v=0
215030 On ch=1 n=55 v=0
215030 On ch=1 n=83 v=0
215030 On ch=1 n=71 v=0
215040 On ch=1 n=83 v=63
215040 On ch=1 n=71 v=63
215040 On ch=1 n=57 v=63
215040 On ch=1 n=54 v=90
215270 On ch=1 n=83 v=0
215270 On ch=1 n=71 v=0
215270 On ch=1 n=57 v=0
215270 On ch=1 n=54 v=0
215280 On ch=1 n=59 v=63
215280 On ch=1 n=55 v=90
215390 On ch=1 n=59 v=0
215390 On ch=1 n=55 v=0
215400 On ch=1 n=81 v=63
215400 On ch=1 n=85 v=63
215400 On ch=1 n=73 v=63
215400 On ch=1 n=55 v=63
215400 On ch=1 n=52 v=90
215510 On ch=1 n=81 v=0
215510 On ch=1 n=85 v=0
215510 On ch=1 n=73 v=0
215510 On ch=1 n=55 v=0
215510 On ch=1 n=52 v=0
215520 On ch=1 n=86 v=63
215520 On ch=1 n=74 v=63
215520 On ch=1 n=54 v=63
215520 On ch=1 n=50 v=90
215630 On ch=1 n=86 v=0
215630 On ch=1 n=74 v=0
215640 On ch=1 n=81 v=63
215750 On ch=1 n=81 v=0
215750 On ch=1 n=54 v=0
215750 On ch=1 n=50 v=0
215760 On ch=1 n=83 v=63
215760 On ch=1 n=54 v=63
215760 On ch=1 n=50 v=90
215870 On ch=1 n=83 v=0
215880 On ch=1 n=81 v=63
215880 On ch=1 n=69 v=63
215990 On ch=1 n=81 v=0
215990 On ch=1 n=54 v=0
215990 On ch=1 n=50 v=0
215990 On ch=1 n=69 v=0
216000 On ch=1 n=79 v=63
216000 On ch=1 n=69 v=63
216000 On ch=1 n=55 v=63
216000 On ch=1 n=52 v=90
216110 On ch=1 n=79 v=0
216110 On ch=1 n=69 v=0
216120 On ch=1 n=78 v=63
216230 On ch=1 n=78 v=0
216230 On ch=1 n=55 v=0
216230 On ch=1 n=52 v=0
216240 On ch=1 n=76 v=63
216240 On ch=1 n=69 v=63
216240 On ch=1 n=57 v=63
216240 On ch=1 n=54 v=90
216350 On ch=1 n=76 v=0
216350 On ch=1 n=69 v=0
216360 On ch=1 n=74 v=63
216360 On ch=1 n=62 v=63
216470 On ch=1 n=74 v=0
216470 On ch=1 n=62 v=0
216470 On ch=1 n=57 v=0
216470 On ch=1 n=54 v=0
216480 On ch=1 n=79 v=63
216480 On ch=1 n=69 v=63
216480 On ch=1 n=61 v=63
216480 On ch=1 n=52 v=90
216710 On ch=1 n=69 v=0
216710 On ch=1 n=61 v=0
216720 On ch=1 n=73 v=63
216720 On ch=1 n=57 v=63
216830 On ch=1 n=79 v=0
216830 On ch=1 n=73 v=0
216830 On ch=1 n=52 v=0
216840 On ch=1 n=78 v=63
216840 On ch=1 n=74 v=63
216840 On ch=1 n=50 v=90
216950 On ch=1 n=78 v=0
216950 On ch=1 n=74 v=0
216950 On ch=1 n=57 v=0
216950 On ch=1 n=50 v=0
216960 On ch=1 n=78 v=63
216960 On ch=1 n=74 v=63
216960 On ch=1 n=66 v=63
216960 On ch=1 n=62 v=63
216960 On ch=1 n=57 v=90
216960 On ch=1 n=50 v=90
217070 On ch=1 n=78 v=0
217070 On ch=1 n=74 v=0
217070 On ch=1 n=66 v=0
217070 On ch=1 n=62 v=0
217070 On ch=1 n=57 v=0
217070 On ch=1 n=50 v=0
217080 On ch=1 n=74 v=63
217080 On ch=1 n=66 v=63
217080 On ch=1 n=62 v=63
217190 On ch=1 n=74 v=0
217190 On ch=1 n=66 v=0
217190 On ch=1 n=62 v=0
217200 On ch=1 n=76 v=63
217200 On ch=1 n=67 v=63
217200 On ch=1 n=64 v=63
217310 On ch=1 n=76 v=0
217310 On ch=1 n=67 v=0
217310 On ch=1 n=64 v=0
217320 On ch=1 n=78 v=63
217320 On ch=1 n=69 v=63
217320 On ch=1 n=66 v=63
217430 On ch=1 n=78 v=0
217430 On ch=1 n=69 v=0
217430 On ch=1 n=66 v=0
217440 On ch=1 n=79 v=63
217440 On ch=1 n=67 v=63
217440 On ch=1 n=52 v=90
217440 On ch=1 n=40 v=90
217496 Par ch=1 c=64 v=127
217560 On ch=1 n=57 v=63
217560 On ch=1 n=45 v=63
217670 On ch=1 n=79 v=0
217670 On ch=1 n=67 v=0
217670 On ch=1 n=52 v=0
217670 On ch=1 n=40 v=0
217670 On ch=1 n=57 v=0
217670 On ch=1 n=45 v=0
217680 On ch=1 n=73 v=63
217680 On ch=1 n=61 v=63
217680 On ch=1 n=52 v=90
217680 On ch=1 n=40 v=90
217800 On ch=1 n=69 v=63
217800 On ch=1 n=57 v=63
217800 On ch=1 n=45 v=63
217855 Par ch=1 c=64 v=0
217910 On ch=1 n=73 v=0
217910 On ch=1 n=61 v=0
217910 On ch=1 n=52 v=0
217910 On ch=1 n=40 v=0
217910 On ch=1 n=69 v=0
217910 On ch=1 n=57 v=0
217910 On ch=1 n=45 v=0
217920 On ch=1 n=74 v=63
217920 On ch=1 n=62 v=63
217920 On ch=1 n=69 v=63
217920 On ch=1 n=54 v=90
217920 On ch=1 n=42 v=90
217938 Par ch=1 c=64 v=127
218040 On ch=1 n=57 v=63
218040 On ch=1 n=45 v=63
218150 On ch=1 n=74 v=0
218150 On ch=1 n=62 v=0
218150 On ch=1 n=69 v=0
218150 On ch=1 n=54 v=0
218150 On ch=1 n=42 v=0
218150 On ch=1 n=57 v=0
218150 On ch=1 n=45 v=0
218160 On ch=1 n=76 v=63
218160 On ch=1 n=64 v=63
218160 On ch=1 n=50 v=90
218160 On ch=1 n=38 v=90
218270 On ch=1 n=76 v=0
218270 On ch=1 n=64 v=0
218280 On ch=1 n=78 v=63
218280 On ch=1 n=66 v=63
218280 On ch=1 n=69 v=63
218280 On ch=1 n=57 v=63
218280 On ch=1 n=45 v=63
218366 Par ch=1 c=64 v=0
218390 On ch=1 n=78 v=0
218390 On ch=1 n=66 v=0
218390 On ch=1 n=50 v=0
218390 On ch=1 n=38 v=0
218390 On ch=1 n=69 v=0
218390 On ch=1 n=57 v=0
218390 On ch=1 n=45 v=0
218400 On ch=1 n=79 v=63
218400 On ch=1 n=67 v=63
218400 On ch=1 n=69 v=63
218400 On ch=1 n=52 v=90
218400 On ch=1 n=40 v=90
218469 Par ch=1 c=64 v=127
218510 On ch=1 n=79 v=0
218510 On ch=1 n=67 v=0
218520 On ch=1 n=73 v=63
218520 On ch=1 n=61 v=63
218520 On ch=1 n=57 v=63
218520 On ch=1 n=45 v=63
218630 On ch=1 n=73 v=0
218630 On ch=1 n=61 v=0
218630 On ch=1 n=69 v=0
218630 On ch=1 n=52 v=0
218630 On ch=1 n=40 v=0
218630 On ch=1 n=57 v=0
218630 On ch=1 n=45 v=0
218640 On ch=1 n=74 v=63
218640 On ch=1 n=62 v=63
218640 On ch=1 n=54 v=90
218640 On ch=1 n=42 v=90
218750 On ch=1 n=74 v=0
218750 On ch=1 n=62 v=0
218760 On ch=1 n=76 v=63
218760 On ch=1 n=64 v=63
218760 On ch=1 n=69 v=63
218760 On ch=1 n=55 v=63
218760 On ch=1 n=43 v=63
218867 Par ch=1 c=64 v=0
218870 On ch=1 n=76 v=0
218870 On ch=1 n=64 v=0
218870 On ch=1 n=54 v=0
218870 On ch=1 n=42 v=0
218870 On ch=1 n=69 v=0
218870 On ch=1 n=55 v=0
218870 On ch=1 n=43 v=0
218880 On ch=1 n=74 v=63
218880 On ch=1 n=62 v=63
218880 On ch=1 n=69 v=63
218880 On ch=1 n=54 v=90
218880 On ch=1 n=42 v=90
218973 Par ch=1 c=64 v=127
219000 On ch=1 n=57 v=63
219000 On ch=1 n=45 v=63
219110 On ch=1 n=74 v=0
219110 On ch=1 n=62 v=0
219110 On ch=1 n=69 v=0
219110 On ch=1 n=54 v=0
219110 On ch=1 n=42 v=0
219110 On ch=1 n=57 v=0
219110 On ch=1 n=45 v=0
219120 On ch=1 n=76 v=63
219120 On ch=1 n=64 v=63
219120 On ch=1 n=50 v=90
219120 On ch=1 n=38 v=90
219230 On ch=1 n=76 v=0
219230 On ch=1 n=64 v=0
219240 On ch=1 n=78 v=63
219240 On ch=1 n=66 v=63
219240 On ch=1 n=69 v=63
219240 On ch=1 n=57 v=63
219240 On ch=1 n=45 v=63
219249 Par ch=1 c=64 v=0
219350 On ch=1 n=78 v=0
219350 On ch=1 n=66 v=0
219350 On ch=1 n=50 v=0
219350 On ch=1 n=38 v=0
219350 On ch=1 n=69 v=0
219350 On ch=1 n=57 v=0
219350 On ch=1 n=45 v=0
219360 On ch=1 n=79 v=63
219360 On ch=1 n=67 v=63
219360 On ch=1 n=69 v=63
219360 On ch=1 n=52 v=90
219360 On ch=1 n=40 v=90
219470 On ch=1 n=79 v=0
219470 On ch=1 n=67 v=0
219480 On ch=1 n=73 v=63
219480 On ch=1 n=61 v=63
219480 On ch=1 n=57 v=63
219480 On ch=1 n=45 v=63
219525 Par ch=1 c=64 v=127
219590 On ch=1 n=73 v=0
219590 On ch=1 n=61 v=0
219590 On ch=1 n=69 v=0
219590 On ch=1 n=52 v=0
219590 On ch=1 n=40 v=0
219590 On ch=1 n=57 v=0
219590 On ch=1 n=45 v=0
219600 On ch=1 n=74 v=63
219600 On ch=1 n=62 v=63
219600 On ch=1 n=54 v=90
219600 On ch=1 n=42 v=90
219710 On ch=1 n=74 v=0
219710 On ch=1 n=62 v=0
219720 On ch=1 n=76 v=63
219720 On ch=1 n=64 v=63
219720 On ch=1 n=69 v=63
219720 On ch=1 n=55 v=63
219720 On ch=1 n=43 v=63
219830 On ch=1 n=76 v=0
219830 On ch=1 n=64 v=0
219830 On ch=1 n=54 v=0
219830 On ch=1 n=42 v=0
219830 On ch=1 n=69 v=0
219830 On ch=1 n=55 v=0
219830 On ch=1 n=43 v=0
219840 On ch=1 n=74 v=63
219840 On ch=1 n=62 v=63
219840 On ch=1 n=69 v=63
219840 On ch=1 n=54 v=90
219840 On ch=1 n=42 v=90
219950 On ch=1 n=74 v=0
219950 On ch=1 n=62 v=0
219960 On ch=1 n=76 v=63
219960 On ch=1 n=64 v=63
219960 On ch=1 n=57 v=63
219960 On ch=1 n=45 v=63
220070 On ch=1 n=76 v=0
220070 On ch=1 n=64 v=0
220070 On ch=1 n=69 v=0
220070 On ch=1 n=54 v=0
220070 On ch=1 n=42 v=0
220070 On ch=1 n=57 v=0
220070 On ch=1 n=45 v=0
220080 On ch=1 n=78 v=63
220080 On ch=1 n=66 v=63
220080 On ch=1 n=52 v=90
220080 On ch=1 n=40 v=90
220122 Par ch=1 c=64 v=0
220190 On ch=1 n=78 v=0
220190 On ch=1 n=66 v=0
220200 On ch=1 n=79 v=63
220200 On ch=1 n=67 v=63
220200 On ch=1 n=57 v=63
220200 On ch=1 n=45 v=63
220310 On ch=1 n=52 v=0
220310 On ch=1 n=40 v=0
220310 On ch=1 n=57 v=0
220310 On ch=1 n=45 v=0
220320 On ch=1 n=50 v=90
220320 On ch=1 n=38 v=90
220430 On ch=1 n=79 v=0
220430 On ch=1 n=67 v=0
220440 On ch=1 n=78 v=63
220440 On ch=1 n=66 v=63
220440 On ch=1 n=57 v=63
220440 On ch=1 n=45 v=63
220550 On ch=1 n=78 v=0
220550 On ch=1 n=66 v=0
220550 On ch=1 n=50 v=0
220550 On ch=1 n=38 v=0
220550 On ch=1 n=57 v=0
220550 On ch=1 n=45 v=0
220560 On ch=1 n=79 v=63
220560 On ch=1 n=67 v=63
220560 On ch=1 n=52 v=90
220560 On ch=1 n=40 v=90
220670 On ch=1 n=79 v=0
220670 On ch=1 n=67 v=0
220680 On ch=1 n=88 v=63
220680 On ch=1 n=76 v=63
220680 On ch=1 n=57 v=63
220680 On ch=1 n=45 v=63
220790 On ch=1 n=88 v=0
220790 On ch=1 n=76 v=0
220790 On ch=1 n=52 v=0
220790 On ch=1 n=40 v=0
220790 On ch=1 n=57 v=0
220790 On ch=1 n=45 v=0
220800 On ch=1 n=86 v=63
220800 On ch=1 n=74 v=63
220800 On ch=1 n=45 v=90
220800 On ch=1 n=33 v=90
220910 On ch=1 n=86 v=0
220910 On ch=1 n=74 v=0
220920 On ch=1 n=85 v=63
220920 On ch=1 n=73 v=63
221030 On ch=1 n=85 v=0
221030 On ch=1 n=73 v=0
221030 On ch=1 n=45 v=0
221030 On ch=1 n=33 v=0
221040 On ch=1 n=88 v=63
221040 On ch=1 n=76 v=63
221040 On ch=1 n=81 v=63
221040 On ch=1 n=54 v=90
221040 On ch=1 n=42 v=90
221138 Par ch=1 c=64 v=127
221150 On ch=1 n=88 v=0
221150 On ch=1 n=76 v=0
221160 On ch=1 n=86 v=63
221160 On ch=1 n=74 v=63
221270 On ch=1 n=86 v=0
221270 On ch=1 n=74 v=0
221270 On ch=1 n=81 v=0
221280 On ch=1 n=81 v=63
221280 On ch=1 n=69 v=63
221280 On ch=1 n=74 v=63
221400 On ch=1 n=62 v=63
221501 Par ch=1 c=64 v=0
221510 On ch=1 n=81 v=0
221510 On ch=1 n=69 v=0
221510 On ch=1 n=74 v=0
221510 On ch=1 n=54 v=0
221510 On ch=1 n=42 v=0
221510 On ch=1 n=62 v=0
221520 On ch=1 n=75 v=63
221520 On ch=1 n=54 v=90
221520 On ch=1 n=42 v=90
221640 On ch=1 n=81 v=63
221640 On ch=1 n=69 v=63
221640 On ch=1 n=63 v=63
221750 On ch=1 n=75 v=0
221750 On ch=1 n=54 v=0
221750 On ch=1 n=42 v=0
221750 On ch=1 n=81 v=0
221750 On ch=1 n=69 v=0
221750 On ch=1 n=63 v=0
221760 On ch=1 n=81 v=63
221760 On ch=1 n=69 v=63
221760 On ch=1 n=76 v=63
221760 On ch=1 n=55 v=90
221760 On ch=1 n=43 v=90
221880 On ch=1 n=64 v=63
221990 On ch=1 n=81 v=0
221990 On ch=1 n=69 v=0
221990 On ch=1 n=76 v=0
221990 On ch=1 n=55 v=0
221990 On ch=1 n=43 v=0
221990 On ch=1 n=64 v=0
222000 On ch=1 n=78 v=63
222000 On ch=1 n=57 v=90
222000 On ch=1 n=45 v=90
222120 On ch=1 n=81 v=63
222120 On ch=1 n=69 v=63
222120 On ch=1 n=66 v=63
222230 On ch=1 n=78 v=0
222230 On ch=1 n=57 v=0
222230 On ch=1 n=45 v=0
222230 On ch=1 n=81 v=0
222230 On ch=1 n=69 v=0
222230 On ch=1 n=66 v=0
222240 On ch=1 n=83 v=63
222240 On ch=1 n=71 v=63
222240 On ch=1 n=78 v=63
222240 On ch=1 n=57 v=90
222240 On ch=1 n=45 v=90
222360 On ch=1 n=66 v=63
222470 On ch=1 n=83 v=0
222470 On ch=1 n=71 v=0
222470 On ch=1 n=78 v=0
222470 On ch=1 n=57 v=0
222470 On ch=1 n=45 v=0
222470 On ch=1 n=66 v=0
222480 On ch=1 n=76 v=63
222480 On ch=1 n=55 v=90
222480 On ch=1 n=43 v=90
222600 On ch=1 n=83 v=63
222600 On ch=1 n=71 v=63
222600 On ch=1 n=64 v=63
222710 On ch=1 n=76 v=0
222710 On ch=1 n=55 v=0
222710 On ch=1 n=43 v=0
222710 On ch=1 n=83 v=0
222710 On ch=1 n=71 v=0
222710 On ch=1 n=64 v=0
222720 On ch=1 n=81 v=63
222720 On ch=1 n=83 v=63
222720 On ch=1 n=71 v=63
222720 On ch=1 n=54 v=90
222720 On ch=1 n=42 v=90
222840 On ch=1 n=57 v=63
222840 On ch=1 n=45 v=63
222950 On ch=1 n=81 v=0
222950 On ch=1 n=83 v=0
222950 On ch=1 n=71 v=0
222950 On ch=1 n=54 v=0
222950 On ch=1 n=42 v=0
222950 On ch=1 n=57 v=0
222950 On ch=1 n=45 v=0
222960 On ch=1 n=55 v=90
222960 On ch=1 n=43 v=90
223070 On ch=1 n=55 v=0
223070 On ch=1 n=43 v=0
223080 On ch=1 n=79 v=63
223080 On ch=1 n=85 v=63
223080 On ch=1 n=73 v=63
223080 On ch=1 n=52 v=90
223080 On ch=1 n=40 v=90
223190 On ch=1 n=79 v=0
223190 On ch=1 n=85 v=0
223190 On ch=1 n=73 v=0
223190 On ch=1 n=52 v=0
223190 On ch=1 n=40 v=0
223200 On ch=1 n=78 v=63
223200 On ch=1 n=86 v=63
223200 On ch=1 n=74 v=63
223200 On ch=1 n=50 v=90
223200 On ch=1 n=38 v=90
223292 Par ch=1 c=64 v=127
223310 On ch=1 n=78 v=0
223310 On ch=1 n=86 v=0
223310 On ch=1 n=74 v=0
223320 On ch=1 n=93 v=63
223320 On ch=1 n=81 v=63
223320 On ch=1 n=62 v=63
223320 On ch=1 n=54 v=63
223430 On ch=1 n=93 v=0
223430 On ch=1 n=81 v=0
223430 On ch=1 n=62 v=0
223430 On ch=1 n=50 v=0
223430 On ch=1 n=38 v=0
223430 On ch=1 n=54 v=0
223440 On ch=1 n=95 v=63
223440 On ch=1 n=83 v=63
223440 On ch=1 n=50 v=90
223440 On ch=1 n=38 v=90
223550 On ch=1 n=95 v=0
223550 On ch=1 n=83 v=0
223560 On ch=1 n=93 v=63
223560 On ch=1 n=81 v=63
223560 On ch=1 n=62 v=63
223560 On ch=1 n=54 v=63
223670 On ch=1 n=93 v=0
223670 On ch=1 n=81 v=0
223670 On ch=1 n=50 v=0
223670 On ch=1 n=38 v=0
223670 On ch=1 n=62 v=0
223670 On ch=1 n=54 v=0
223680 On ch=1 n=91 v=63
223680 On ch=1 n=79 v=63
223680 On ch=1 n=52 v=90
223680 On ch=1 n=40 v=90
223757 Par ch=1 c=64 v=0
223790 On ch=1 n=91 v=0
223790 On ch=1 n=79 v=0
223800 On ch=1 n=90 v=63
223800 On ch=1 n=78 v=63
223800 On ch=1 n=62 v=63
223800 On ch=1 n=55 v=63
223910 On ch=1 n=90 v=0
223910 On ch=1 n=78 v=0
223910 On ch=1 n=52 v=0
223910 On ch=1 n=40 v=0
223910 On ch=1 n=62 v=0
223910 On ch=1 n=55 v=0
223920 On ch=1 n=88 v=63
223920 On ch=1 n=76 v=63
223920 On ch=1 n=54 v=90
223920 On ch=1 n=42 v=90
224030 On ch=1 n=88 v=0
224030 On ch=1 n=76 v=0
224040 On ch=1 n=86 v=63
224040 On ch=1 n=74 v=63
224040 On ch=1 n=62 v=63
224040 On ch=1 n=57 v=63
224150 On ch=1 n=86 v=0
224150 On ch=1 n=74 v=0
224150 On ch=1 n=54 v=0
224150 On ch=1 n=42 v=0
224150 On ch=1 n=62 v=0
224150 On ch=1 n=57 v=0
224160 On ch=1 n=79 v=63
224160 On ch=1 n=67 v=63
224160 On ch=1 n=52 v=90
224160 On ch=1 n=40 v=90
224280 On ch=1 n=61 v=63
224280 On ch=1 n=57 v=63
224280 Par ch=1 c=64 v=127
224390 On ch=1 n=52 v=0
224390 On ch=1 n=40 v=0
224390 On ch=1 n=61 v=0
224390 On ch=1 n=57 v=0
224400 On ch=1 n=73 v=63
224400 On ch=1 n=52 v=90
224400 On ch=1 n=40 v=90
224415 Par ch=1 c=64 v=0
224510 On ch=1 n=79 v=0
224510 On ch=1 n=67 v=0
224510 On ch=1 n=73 v=0
224510 On ch=1 n=52 v=0
224510 On ch=1 n=40 v=0
224520 On ch=1 n=78 v=63
224520 On ch=1 n=66 v=63
224520 On ch=1 n=74 v=63
224520 On ch=1 n=50 v=90
224520 On ch=1 n=38 v=90
224630 On ch=1 n=78 v=0
224630 On ch=1 n=66 v=0
224630 On ch=1 n=74 v=0
224630 On ch=1 n=50 v=0
224630 On ch=1 n=38 v=0
224640 On ch=1 n=74 v=63
224640 On ch=1 n=78 v=63
224640 On ch=1 n=66 v=63
224640 On ch=1 n=50 v=90
224640 On ch=1 n=38 v=90
224760 On ch=1 n=62 v=100
224760 On ch=1 n=54 v=100
224870 On ch=1 n=74 v=0
224870 On ch=1 n=78 v=0
224870 On ch=1 n=66 v=0
224870 On ch=1 n=50 v=0
224870 On ch=1 n=38 v=0
224870 On ch=1 n=62 v=0
224870 On ch=1 n=54 v=0
224880 On ch=1 n=57 v=90
224880 On ch=1 n=45 v=90
225000 On ch=1 n=74 v=100
225000 On ch=1 n=78 v=100
225000 On ch=1 n=66 v=100
225110 On ch=1 n=57 v=0
225110 On ch=1 n=45 v=0
225110 On ch=1 n=74 v=0
225110 On ch=1 n=78 v=0
225110 On ch=1 n=66 v=0
225120 On ch=1 n=73 v=100
225120 On ch=1 n=76 v=100
225120 On ch=1 n=81 v=100
225120 On ch=1 n=69 v=100
225120 On ch=1 n=55 v=90
225120 On ch=1 n=43 v=90
225240 On ch=1 n=64 v=100
225240 On ch=1 n=61 v=100
225350 On ch=1 n=73 v=0
225350 On ch=1 n=76 v=0
225350 On ch=1 n=81 v=0
225350 On ch=1 n=69 v=0
225350 On ch=1 n=64 v=0
225350 On ch=1 n=61 v=0
225360 On ch=1 n=64 v=100
225360 On ch=1 n=69 v=100
225360 On ch=1 n=61 v=100
225470 On ch=1 n=64 v=0
225470 On ch=1 n=69 v=0
225470 On ch=1 n=61 v=0
225470 On ch=1 n=55 v=0
225470 On ch=1 n=43 v=0
225480 On ch=1 n=74 v=100
225480 On ch=1 n=78 v=100
225480 On ch=1 n=81 v=100
225480 On ch=1 n=69 v=100
225480 On ch=1 n=54 v=90
225480 On ch=1 n=42 v=90
225590 On ch=1 n=74 v=0
225590 On ch=1 n=78 v=0
225590 On ch=1 n=81 v=0
225590 On ch=1 n=69 v=0
225590 On ch=1 n=54 v=0
225590 On ch=1 n=42 v=0
225600 On ch=1 n=74 v=100
225600 On ch=1 n=78 v=100
225600 On ch=1 n=81 v=100
225600 On ch=1 n=69 v=100
225600 On ch=1 n=54 v=90
225600 On ch=1 n=42 v=90
225710 On ch=1 n=54 v=0
225710 On ch=1 n=42 v=0
225720 On ch=1 n=66 v=100
225720 On ch=1 n=62 v=100
225830 On ch=1 n=74 v=0
225830 On ch=1 n=78 v=0
225830 On ch=1 n=81 v=0
225830 On ch=1 n=69 v=0
225830 On ch=1 n=66 v=0
225830 On ch=1 n=62 v=0
225840 On ch=1 n=69 v=100
225840 On ch=1 n=66 v=100
225840 On ch=1 n=62 v=90
225840 On ch=1 n=50 v=90
225950 On ch=1 n=69 v=0
225950 On ch=1 n=66 v=0
225950 On ch=1 n=62 v=0
225950 On ch=1 n=50 v=0
225960 On ch=1 n=78 v=100
225960 On ch=1 n=81 v=100
225960 On ch=1 n=86 v=100
225960 On ch=1 n=74 v=100
226070 On ch=1 n=78 v=0
226070 On ch=1 n=81 v=0
226070 On ch=1 n=86 v=0
226070 On ch=1 n=74 v=0
226080 On ch=1 n=78 v=100
226080 On ch=1 n=81 v=100
226080 On ch=1 n=86 v=100
226080 On ch=1 n=74 v=100
226080 On ch=1 n=60 v=90
226080 On ch=1 n=48 v=90
226088 Par ch=1 c=64 v=127
226200 On ch=1 n=69 v=100
226200 On ch=1 n=66 v=100
226310 On ch=1 n=78 v=0
226310 On ch=1 n=81 v=0
226310 On ch=1 n=86 v=0
226310 On ch=1 n=74 v=0
226310 On ch=1 n=69 v=0
226310 On ch=1 n=66 v=0
226320 On ch=1 n=69 v=100
226320 On ch=1 n=74 v=100
226320 On ch=1 n=66 v=100
226430 On ch=1 n=69 v=0
226430 On ch=1 n=74 v=0
226430 On ch=1 n=66 v=0
226430 On ch=1 n=60 v=0
226430 On ch=1 n=48 v=0
226440 On ch=1 n=79 v=100
226440 On ch=1 n=83 v=100
226440 On ch=1 n=86 v=100
226440 On ch=1 n=74 v=100
226440 On ch=1 n=59 v=90
226440 On ch=1 n=47 v=90
226491 Par ch=1 c=64 v=0
226550 On ch=1 n=79 v=0
226550 On ch=1 n=83 v=0
226550 On ch=1 n=86 v=0
226550 On ch=1 n=74 v=0
226550 On ch=1 n=59 v=0
226550 On ch=1 n=47 v=0
226560 On ch=1 n=79 v=100
226560 On ch=1 n=83 v=100
226560 On ch=1 n=86 v=100
226560 On ch=1 n=74 v=100
226560 On ch=1 n=59 v=90
226560 On ch=1 n=47 v=90
226670 On ch=1 n=59 v=0
226670 On ch=1 n=47 v=0
226680 On ch=1 n=74 v=100
226680 On ch=1 n=67 v=100
226790 On ch=1 n=79 v=0
226790 On ch=1 n=83 v=0
226790 On ch=1 n=86 v=0
226790 On ch=1 n=74 v=0
226790 On ch=1 n=74 v=0
226790 On ch=1 n=67 v=0
226796 Par ch=1 c=64 v=127
226800 On ch=1 n=76 v=100
226800 On ch=1 n=71 v=100
226800 On ch=1 n=67 v=90
226800 On ch=1 n=55 v=90
226844 Par ch=1 c=64 v=0
226910 On ch=1 n=76 v=0
226910 On ch=1 n=71 v=0
226910 On ch=1 n=67 v=0
226910 On ch=1 n=55 v=0
226920 On ch=1 n=88 v=100
226920 On ch=1 n=91 v=100
226920 On ch=1 n=79 v=100
226920 On ch=1 n=64 v=90
226920 On ch=1 n=52 v=90
227030 On ch=1 n=88 v=0
227030 On ch=1 n=91 v=0
227030 On ch=1 n=79 v=0
227030 On ch=1 n=64 v=0
227030 On ch=1 n=52 v=0
227040 On ch=1 n=88 v=100
227040 On ch=1 n=91 v=100
227040 On ch=1 n=79 v=100
227040 On ch=1 n=62 v=100
227040 On ch=1 n=50 v=90
227064 Par ch=1 c=64 v=127
227150 On ch=1 n=62 v=0
227150 On ch=1 n=50 v=0
227160 On ch=1 n=69 v=100
227160 On ch=1 n=76 v=100
227160 On ch=1 n=67 v=100
227160 On ch=1 n=61 v=100
227160 On ch=1 n=49 v=90
227270 On ch=1 n=88 v=0
227270 On ch=1 n=91 v=0
227270 On ch=1 n=79 v=0
227270 On ch=1 n=69 v=0
227270 On ch=1 n=76 v=0
227270 On ch=1 n=67 v=0
227270 On ch=1 n=61 v=0
227270 On ch=1 n=49 v=0
227280 On ch=1 n=69 v=100
227280 On ch=1 n=76 v=100
227280 On ch=1 n=67 v=100
227280 On ch=1 n=64 v=100
227280 On ch=1 n=52 v=90
227390 On ch=1 n=69 v=0
227390 On ch=1 n=76 v=0
227390 On ch=1 n=67 v=0
227390 On ch=1 n=64 v=0
227390 On ch=1 n=52 v=0
227397 Par ch=1 c=64 v=0
227400 On ch=1 n=88 v=100
227400 On ch=1 n=91 v=100
227400 On ch=1 n=79 v=100
227400 On ch=1 n=61 v=100
227400 On ch=1 n=49 v=90
227502 Par ch=1 c=64 v=127
227510 On ch=1 n=88 v=0
227510 On ch=1 n=91 v=0
227510 On ch=1 n=79 v=0
227510 On ch=1 n=61 v=0
227510 On ch=1 n=49 v=0
227520 On ch=1 n=88 v=100
227520 On ch=1 n=91 v=100
227520 On ch=1 n=79 v=100
227520 On ch=1 n=59 v=100
227520 On ch=1 n=47 v=90
227630 On ch=1 n=59 v=0
227630 On ch=1 n=47 v=0
227640 On ch=1 n=69 v=100
227640 On ch=1 n=76 v=100
227640 On ch=1 n=67 v=100
227640 On ch=1 n=57 v=100
227640 On ch=1 n=45 v=90
227750 On ch=1 n=88 v=0
227750 On ch=1 n=91 v=0
227750 On ch=1 n=79 v=0
227750 On ch=1 n=69 v=0
227750 On ch=1 n=76 v=0
227750 On ch=1 n=67 v=0
227750 On ch=1 n=57 v=0
227750 On ch=1 n=45 v=0
227760 On ch=1 n=69 v=100
227760 On ch=1 n=76 v=100
227760 On ch=1 n=67 v=100
227760 On ch=1 n=59 v=100
227760 On ch=1 n=47 v=90
227833 Par ch=1 c=64 v=0
227870 On ch=1 n=69 v=0
227870 On ch=1 n=76 v=0
227870 On ch=1 n=67 v=0
227870 On ch=1 n=59 v=0
227870 On ch=1 n=47 v=0
227880 On ch=1 n=88 v=100
227880 On ch=1 n=91 v=100
227880 On ch=1 n=79 v=100
227880 On ch=1 n=61 v=100
227880 On ch=1 n=49 v=90
227990 On ch=1 n=88 v=0
227990 On ch=1 n=91 v=0
227990 On ch=1 n=79 v=0
227990 On ch=1 n=61 v=0
227990 On ch=1 n=49 v=0
228000 On ch=1 n=86 v=100
228000 On ch=1 n=90 v=100
228000 On ch=1 n=78 v=100
228000 On ch=1 n=62 v=100
228000 On ch=1 n=50 v=90
228110 On ch=1 n=62 v=0
228110 On ch=1 n=50 v=0
228120 On ch=1 n=78 v=100
228120 On ch=1 n=74 v=100
228120 On ch=1 n=66 v=100
228120 On ch=1 n=54 v=90
228230 On ch=1 n=86 v=0
228230 On ch=1 n=90 v=0
228230 On ch=1 n=78 v=0
228230 On ch=1 n=78 v=0
228230 On ch=1 n=74 v=0
228230 On ch=1 n=66 v=0
228230 On ch=1 n=54 v=0
228240 On ch=1 n=81 v=100
228240 On ch=1 n=69 v=100
228240 On ch=1 n=64 v=100
228240 On ch=1 n=52 v=90
228350 On ch=1 n=81 v=0
228350 On ch=1 n=69 v=0
228350 On ch=1 n=64 v=0
228350 On ch=1 n=52 v=0
228360 On ch=1 n=93 v=100
228360 On ch=1 n=81 v=100
228360 On ch=1 n=61 v=100
228360 On ch=1 n=49 v=90
228470 On ch=1 n=93 v=0
228470 On ch=1 n=81 v=0
228470 On ch=1 n=61 v=0
228470 On ch=1 n=49 v=0
228480 On ch=1 n=86 v=100
228480 On ch=1 n=74 v=100
228480 On ch=1 n=62 v=100
228480 On ch=1 n=50 v=90
228590 On ch=1 n=62 v=0
228590 On ch=1 n=50 v=0
228600 On ch=1 n=69 v=63
228600 On ch=1 n=66 v=63
228710 On ch=1 n=86 v=0
228710 On ch=1 n=74 v=0
228710 On ch=1 n=69 v=0
228710 On ch=1 n=66 v=0
228720 On ch=1 n=67 v=63
228720 On ch=1 n=64 v=63
228830 On ch=1 n=67 v=0
228830 On ch=1 n=64 v=0
228840 On ch=1 n=64 v=63
228840 On ch=1 n=57 v=63
228950 On ch=1 n=64 v=0
228950 On ch=1 n=57 v=0
228960 On ch=1 n=66 v=63
228960 On ch=1 n=62 v=63
228960 On ch=1 n=50 v=63
229190 On ch=1 n=66 v=0
229190 On ch=1 n=62 v=0
229200 On ch=1 n=66 v=63
229200 On ch=1 n=62 v=63
229430 On ch=1 n=66 v=0
229430 On ch=1 n=62 v=0
229440 On ch=1 n=67 v=63
229440 On ch=1 n=64 v=63
229670 On ch=1 n=67 v=0
229670 On ch=1 n=64 v=0
229670 On ch=1 n=50 v=0
229680 On ch=1 n=69 v=63
229680 On ch=1 n=66 v=63
229680 On ch=1 n=49 v=63
229790 On ch=1 n=49 v=0
229800 On ch=1 n=47 v=63
229910 On ch=1 n=69 v=0
229910 On ch=1 n=66 v=0
229910 On ch=1 n=47 v=0
229920 On ch=1 n=69 v=63
229920 On ch=1 n=66 v=63
229920 On ch=1 n=45 v=63
230030 On ch=1 n=45 v=0
230040 On ch=1 n=47 v=63
230150 On ch=1 n=69 v=0
230150 On ch=1 n=66 v=0
230150 On ch=1 n=47 v=0
230160 On ch=1 n=67 v=63
230160 On ch=1 n=64 v=63
230160 On ch=1 n=49 v=63
230270 On ch=1 n=49 v=0
230280 On ch=1 n=50 v=63
230390 On ch=1 n=67 v=0
230390 On ch=1 n=64 v=0
230390 On ch=1 n=50 v=0
230400 On ch=1 n=66 v=63
230400 On ch=1 n=62 v=63
230400 On ch=1 n=52 v=63
230510 On ch=1 n=52 v=0
230520 On ch=1 n=54 v=63
230630 On ch=1 n=66 v=0
230630 On ch=1 n=62 v=0
230630 On ch=1 n=54 v=0
230640 On ch=1 n=64 v=63
230640 On ch=1 n=61 v=63
230640 On ch=1 n=55 v=63
230750 On ch=1 n=55 v=0
230760 On ch=1 n=52 v=63
230870 On ch=1 n=64 v=0
230870 On ch=1 n=61 v=0
230870 On ch=1 n=52 v=0
230880 On ch=1 n=74 v=63
230880 On ch=1 n=66 v=63
230880 On ch=1 n=62 v=63
230880 On ch=1 n=57 v=63
231110 On ch=1 n=66 v=0
231110 On ch=1 n=62 v=0
231110 On ch=1 n=57 v=0
231120 On ch=1 n=66 v=63
231120 On ch=1 n=62 v=63
231120 On ch=1 n=57 v=63
231350 On ch=1 n=66 v=0
231350 On ch=1 n=62 v=0
231350 On ch=1 n=57 v=0
231360 On ch=1 n=67 v=63
231360 On ch=1 n=64 v=63
231360 On ch=1 n=57 v=63
231470 On ch=1 n=67 v=0
231480 On ch=1 n=66 v=63
231590 On ch=1 n=74 v=0
231590 On ch=1 n=66 v=0
231590 On ch=1 n=64 v=0
231590 On ch=1 n=57 v=0
231600 On ch=1 n=73 v=63
231600 On ch=1 n=64 v=63
231600 On ch=1 n=66 v=63
231600 On ch=1 n=57 v=63
231710 On ch=1 n=73 v=0
231710 On ch=1 n=64 v=0
231720 On ch=1 n=71 v=63
231720 On ch=1 n=62 v=63
231830 On ch=1 n=71 v=0
231830 On ch=1 n=62 v=0
231830 On ch=1 n=66 v=0
231830 On ch=1 n=57 v=0
231840 On ch=1 n=69 v=63
231840 On ch=1 n=66 v=63
231840 On ch=1 n=62 v=63
231840 On ch=1 n=57 v=90
231950 On ch=1 n=69 v=0
231960 On ch=1 n=74 v=63
232070 On ch=1 n=74 v=0
232080 On ch=1 n=78 v=63
232190 On ch=1 n=78 v=0
232190 On ch=1 n=66 v=0
232190 On ch=1 n=62 v=0
232200 On ch=1 n=76 v=63
232200 On ch=1 n=64 v=63
232200 On ch=1 n=61 v=63
232310 On ch=1 n=76 v=0
232310 On ch=1 n=64 v=0
232310 On ch=1 n=61 v=0
232310 On ch=1 n=57 v=0
232320 On ch=1 n=76 v=63
232320 On ch=1 n=69 v=63
232320 On ch=1 n=61 v=63
232320 On ch=1 n=45 v=90
232430 On ch=1 n=76 v=0
232440 On ch=1 n=81 v=63
232550 On ch=1 n=81 v=0
232550 On ch=1 n=69 v=0
232550 On ch=1 n=61 v=0
232550 On ch=1 n=45 v=0
232560 On ch=1 n=79 v=63
232560 On ch=1 n=69 v=63
232560 On ch=1 n=47 v=90
232670 On ch=1 n=79 v=0
232670 On ch=1 n=69 v=0
232670 On ch=1 n=47 v=0
232680 On ch=1 n=76 v=63
232680 On ch=1 n=67 v=63
232680 On ch=1 n=49 v=90
232790 On ch=1 n=76 v=0
232790 On ch=1 n=67 v=0
232790 On ch=1 n=49 v=0
232800 On ch=1 n=74 v=63
232800 On ch=1 n=66 v=63
232800 On ch=1 n=57 v=63
232800 On ch=1 n=50 v=90
233030 On ch=1 n=74 v=0
233030 On ch=1 n=66 v=0
233030 On ch=1 n=57 v=0
233040 On ch=1 n=66 v=63
233040 On ch=1 n=74 v=63
233040 On ch=1 n=62 v=63
233270 On ch=1 n=66 v=0
233270 On ch=1 n=74 v=0
233270 On ch=1 n=62 v=0
233280 On ch=1 n=67 v=63
233280 On ch=1 n=76 v=63
233280 On ch=1 n=64 v=63
233510 On ch=1 n=67 v=0
233510 On ch=1 n=76 v=0
233510 On ch=1 n=64 v=0
233510 On ch=1 n=50 v=0
233520 On ch=1 n=78 v=63
233520 On ch=1 n=69 v=63
233520 On ch=1 n=66 v=63
233520 On ch=1 n=49 v=90
233630 On ch=1 n=66 v=0
233630 On ch=1 n=49 v=0
233640 On ch=1 n=62 v=63
233640 On ch=1 n=47 v=90
233750 On ch=1 n=78 v=0
233750 On ch=1 n=69 v=0
233750 On ch=1 n=62 v=0
233750 On ch=1 n=47 v=0
233760 On ch=1 n=78 v=63
233760 On ch=1 n=69 v=63
233760 On ch=1 n=61 v=90
233760 On ch=1 n=45 v=90
233870 On ch=1 n=61 v=0
233870 On ch=1 n=45 v=0
233880 On ch=1 n=62 v=90
233880 On ch=1 n=47 v=90
233990 On ch=1 n=78 v=0
233990 On ch=1 n=69 v=0
233990 On ch=1 n=62 v=0
233990 On ch=1 n=47 v=0
234000 On ch=1 n=76 v=63
234000 On ch=1 n=64 v=90
234000 On ch=1 n=49 v=90
234110 On ch=1 n=64 v=0
234110 On ch=1 n=49 v=0
234120 On ch=1 n=66 v=90
234120 On ch=1 n=50 v=90
234230 On ch=1 n=76 v=0
234230 On ch=1 n=66 v=0
234230 On ch=1 n=50 v=0
234240 On ch=1 n=74 v=63
234240 On ch=1 n=67 v=90
234240 On ch=1 n=52 v=90
234350 On ch=1 n=67 v=0
234350 On ch=1 n=52 v=0
234360 On ch=1 n=57 v=90
234360 On ch=1 n=54 v=90
234470 On ch=1 n=74 v=0
234470 On ch=1 n=57 v=0
234470 On ch=1 n=54 v=0
234480 On ch=1 n=73 v=63
234480 On ch=1 n=64 v=63
234480 On ch=1 n=59 v=90
234480 On ch=1 n=55 v=90
234590 On ch=1 n=59 v=0
234590 On ch=1 n=55 v=0
234600 On ch=1 n=55 v=90
234600 On ch=1 n=52 v=90
234710 On ch=1 n=73 v=0
234710 On ch=1 n=64 v=0
234710 On ch=1 n=55 v=0
234710 On ch=1 n=52 v=0
234720 On ch=1 n=74 v=63
234720 On ch=1 n=62 v=63
234720 On ch=1 n=57 v=63
234720 On ch=1 n=54 v=63
234950 On ch=1 n=74 v=0
234950 On ch=1 n=62 v=0
234950 On ch=1 n=57 v=0
234950 On ch=1 n=54 v=0
234960 On ch=1 n=74 v=63
234960 On ch=1 n=66 v=63
234960 On ch=1 n=62 v=63
234960 On ch=1 n=57 v=63
235190 On ch=1 n=74 v=0
235190 On ch=1 n=66 v=0
235200 On ch=1 n=76 v=63
235200 On ch=1 n=67 v=63
235430 On ch=1 n=76 v=0
235430 On ch=1 n=67 v=0
235430 On ch=1 n=62 v=0
235430 On ch=1 n=57 v=0
235440 On ch=1 n=78 v=63
235440 On ch=1 n=69 v=63
235440 On ch=1 n=61 v=63
235550 On ch=1 n=61 v=0
235560 On ch=1 n=59 v=63
235670 On ch=1 n=78 v=0
235670 On ch=1 n=69 v=0
235670 On ch=1 n=59 v=0
235680 On ch=1 n=76 v=63
235680 On ch=1 n=67 v=63
235680 On ch=1 n=61 v=63
235680 On ch=1 n=57 v=90
235790 On ch=1 n=61 v=0
235800 On ch=1 n=64 v=63
235910 On ch=1 n=64 v=0
235910 On ch=1 n=57 v=0
235920 On ch=1 n=61 v=63
235920 On ch=1 n=57 v=90
236030 On ch=1 n=76 v=0
236030 On ch=1 n=67 v=0
236030 On ch=1 n=61 v=0
236040 On ch=1 n=74 v=63
236040 On ch=1 n=66 v=63
236040 On ch=1 n=62 v=63
236150 On ch=1 n=74 v=0
236150 On ch=1 n=66 v=0
236150 On ch=1 n=62 v=0
236150 On ch=1 n=57 v=0
236160 On ch=1 n=74 v=63
236160 On ch=1 n=66 v=63
236160 On ch=1 n=62 v=63
236160 On ch=1 n=50 v=90
236270 On ch=1 n=66 v=0
236270 On ch=1 n=62 v=0
236280 On ch=1 n=69 v=63
236280 On ch=1 n=66 v=63
236390 On ch=1 n=74 v=0
236390 On ch=1 n=69 v=0
236390 On ch=1 n=66 v=0
236390 On ch=1 n=50 v=0
236400 On ch=1 n=73 v=63
236400 On ch=1 n=67 v=63
236400 On ch=1 n=64 v=63
236400 On ch=1 n=57 v=90
236510 On ch=1 n=73 v=0
236510 On ch=1 n=67 v=0
236510 On ch=1 n=64 v=0
236520 On ch=1 n=74 v=63
236520 On ch=1 n=66 v=63
236520 On ch=1 n=62 v=63
236630 On ch=1 n=74 v=0
236630 On ch=1 n=66 v=0
236630 On ch=1 n=62 v=0
236630 On ch=1 n=57 v=0
236640 On ch=1 n=69 v=63
236640 On ch=1 n=76 v=63
236640 On ch=1 n=64 v=63
236640 On ch=1 n=61 v=90
236640 On ch=1 n=57 v=90
236750 On ch=1 n=61 v=0
236750 On ch=1 n=57 v=0
236760 On ch=1 n=45 v=90
236870 On ch=1 n=69 v=0
236870 On ch=1 n=76 v=0
236870 On ch=1 n=64 v=0
236870 On ch=1 n=45 v=0
236880 On ch=1 n=69 v=63
236880 On ch=1 n=73 v=63
236880 On ch=1 n=76 v=63
236880 On ch=1 n=64 v=63
236880 On ch=1 n=52 v=90
236930 On ch=1 n=52 v=0
237000 On ch=1 n=49 v=90
237110 On ch=1 n=69 v=0
237110 On ch=1 n=73 v=0
237110 On ch=1 n=76 v=0
237110 On ch=1 n=64 v=0
237110 On ch=1 n=49 v=0
237120 On ch=1 n=69 v=63
237120 On ch=1 n=74 v=63
237120 On ch=1 n=78 v=63
237120 On ch=1 n=66 v=63
237120 On ch=1 n=57 v=90
237170 On ch=1 n=57 v=0
237240 On ch=1 n=57 v=90
237350 On ch=1 n=69 v=0
237350 On ch=1 n=74 v=0
237350 On ch=1 n=78 v=0
237350 On ch=1 n=66 v=0
237350 On ch=1 n=57 v=0
237360 On ch=1 n=74 v=63
237360 On ch=1 n=66 v=63
237360 On ch=1 n=62 v=90
237410 On ch=1 n=62 v=0
237470 On ch=1 n=66 v=0
237480 On ch=1 n=69 v=63
237480 On ch=1 n=66 v=90
237480 On ch=1 n=57 v=90
237590 On ch=1 n=74 v=0
237590 On ch=1 n=69 v=0
237590 On ch=1 n=66 v=0
237590 On ch=1 n=57 v=0
237600 On ch=1 n=69 v=63
237600 On ch=1 n=73 v=63
237600 On ch=1 n=76 v=63
237600 On ch=1 n=64 v=63
237600 On ch=1 n=61 v=90
237600 On ch=1 n=57 v=90
237650 On ch=1 n=61 v=0
237650 On ch=1 n=57 v=0
237720 On ch=1 n=45 v=90
237830 On ch=1 n=69 v=0
237830 On ch=1 n=73 v=0
237830 On ch=1 n=76 v=0
237830 On ch=1 n=64 v=0
237830 On ch=1 n=45 v=0
237840 On ch=1 n=74 v=63
237840 On ch=1 n=78 v=63
237840 On ch=1 n=66 v=63
237840 On ch=1 n=57 v=90
237890 On ch=1 n=57 v=0
237950 On ch=1 n=74 v=0
237950 On ch=1 n=78 v=0
237950 On ch=1 n=66 v=0
237960 On ch=1 n=76 v=63
237960 On ch=1 n=79 v=63
237960 On ch=1 n=67 v=63
237960 On ch=1 n=45 v=90
238070 On ch=1 n=76 v=0
238070 On ch=1 n=79 v=0
238070 On ch=1 n=67 v=0
238070 On ch=1 n=45 v=0
238080 On ch=1 n=78 v=63
238080 On ch=1 n=74 v=63
238080 On ch=1 n=66 v=63
238080 On ch=1 n=57 v=90
238130 On ch=1 n=57 v=0
238190 On ch=1 n=66 v=0
238200 On ch=1 n=69 v=63
238200 On ch=1 n=66 v=90
238310 On ch=1 n=78 v=0
238310 On ch=1 n=74 v=0
238310 On ch=1 n=69 v=0
238310 On ch=1 n=66 v=0
238320 On ch=1 n=74 v=63
238320 On ch=1 n=67 v=63
238320 On ch=1 n=64 v=90
238370 On ch=1 n=64 v=0
238430 On ch=1 n=67 v=0
238440 On ch=1 n=66 v=63
238440 On ch=1 n=62 v=90
238440 On ch=1 n=57 v=90
238550 On ch=1 n=74 v=0
238550 On ch=1 n=66 v=0
238550 On ch=1 n=62 v=0
238550 On ch=1 n=57 v=0
238560 On ch=1 n=73 v=63
238560 On ch=1 n=76 v=63
238560 On ch=1 n=64 v=63
238560 On ch=1 n=61 v=63
238560 On ch=1 n=57 v=63
238610 On ch=1 n=61 v=0
238610 On ch=1 n=57 v=0
238680 On ch=1 n=45 v=63
238790 On ch=1 n=73 v=0
238790 On ch=1 n=76 v=0
238790 On ch=1 n=64 v=0
238790 On ch=1 n=45 v=0
238800 On ch=1 n=74 v=63
238800 On ch=1 n=78 v=63
238800 On ch=1 n=66 v=63
238800 On ch=1 n=57 v=63
238850 On ch=1 n=57 v=0
238910 On ch=1 n=74 v=0
238910 On ch=1 n=78 v=0
238910 On ch=1 n=66 v=0
238920 On ch=1 n=76 v=63
238920 On ch=1 n=79 v=63
238920 On ch=1 n=67 v=63
238920 On ch=1 n=61 v=63
239030 On ch=1 n=76 v=0
239030 On ch=1 n=79 v=0
239030 On ch=1 n=67 v=0
239030 On ch=1 n=61 v=0
239040 On ch=1 n=73 v=63
239040 On ch=1 n=78 v=63
239040 On ch=1 n=66 v=63
239040 On ch=1 n=58 v=63
239090 On ch=1 n=58 v=0
239160 On ch=1 n=46 v=63
239270 On ch=1 n=73 v=0
239270 On ch=1 n=78 v=0
239270 On ch=1 n=66 v=0
239270 On ch=1 n=46 v=0
239280 On ch=1 n=73 v=63
239280 On ch=1 n=76 v=63
239280 On ch=1 n=64 v=63
239280 On ch=1 n=42 v=63
239330 On ch=1 n=42 v=0
239400 On ch=1 n=54 v=63
239510 On ch=1 n=73 v=0
239510 On ch=1 n=76 v=0
239510 On ch=1 n=64 v=0
239510 On ch=1 n=54 v=0
239520 On ch=1 n=71 v=63
239520 On ch=1 n=74 v=63
239520 On ch=1 n=62 v=63
239520 On ch=1 n=59 v=63
239570 On ch=1 n=59 v=0
239640 On ch=1 n=47 v=63
239750 On ch=1 n=71 v=0
239750 On ch=1 n=74 v=0
239750 On ch=1 n=62 v=0
239750 On ch=1 n=47 v=0
239760 On ch=1 n=68 v=63
239760 On ch=1 n=76 v=63
239760 On ch=1 n=64 v=63
239760 On ch=1 n=40 v=63
239810 On ch=1 n=40 v=0
239880 On ch=1 n=52 v=63
239990 On ch=1 n=68 v=0
239990 On ch=1 n=76 v=0
239990 On ch=1 n=64 v=0
239990 On ch=1 n=52 v=0
240000 On ch=1 n=69 v=63
240000 On ch=1 n=61 v=63
240000 On ch=1 n=57 v=63
240050 On ch=1 n=57 v=0
240120 On ch=1 n=57 v=63
240230 On ch=1 n=69 v=0
240230 On ch=1 n=61 v=0
240230 On ch=1 n=57 v=0
240240 On ch=1 n=74 v=63
240240 On ch=1 n=78 v=63
240240 On ch=1 n=66 v=63
240240 On ch=1 n=45 v=63
240290 On ch=1 n=45 v=0
240360 On ch=1 n=45 v=63
240470 On ch=1 n=45 v=0
240480 On ch=1 n=50 v=90
240710 On ch=1 n=74 v=0
240710 On ch=1 n=78 v=0
240710 On ch=1 n=66 v=0
240720 On ch=1 n=74 v=63
240720 On ch=1 n=78 v=63
240720 On ch=1 n=66 v=63
240950 On ch=1 n=74 v=0
240950 On ch=1 n=78 v=0
240950 On ch=1 n=66 v=0
240960 On ch=1 n=76 v=63
240960 On ch=1 n=79 v=63
240960 On ch=1 n=67 v=63
241190 On ch=1 n=76 v=0
241190 On ch=1 n=79 v=0
241190 On ch=1 n=67 v=0
241190 On ch=1 n=50 v=0
241200 On ch=1 n=78 v=63
241200 On ch=1 n=81 v=63
241200 On ch=1 n=69 v=63
241200 On ch=1 n=49 v=90
241310 On ch=1 n=49 v=0
241320 On ch=1 n=47 v=90
241430 On ch=1 n=78 v=0
241430 On ch=1 n=81 v=0
241430 On ch=1 n=69 v=0
241430 On ch=1 n=47 v=0
241440 On ch=1 n=78 v=63
241440 On ch=1 n=81 v=63
241440 On ch=1 n=69 v=63
241440 On ch=1 n=45 v=90
241550 On ch=1 n=45 v=0
241560 On ch=1 n=47 v=90
241670 On ch=1 n=78 v=0
241670 On ch=1 n=81 v=0
241670 On ch=1 n=69 v=0
241670 On ch=1 n=47 v=0
241680 On ch=1 n=76 v=63
241680 On ch=1 n=79 v=63
241680 On ch=1 n=67 v=63
241680 On ch=1 n=49 v=90
241790 On ch=1 n=49 v=0
241800 On ch=1 n=50 v=90
241910 On ch=1 n=76 v=0
241910 On ch=1 n=79 v=0
241910 On ch=1 n=67 v=0
241910 On ch=1 n=50 v=0
241920 On ch=1 n=74 v=63
241920 On ch=1 n=78 v=63
241920 On ch=1 n=66 v=63
241920 On ch=1 n=52 v=90
242030 On ch=1 n=52 v=0
242040 On ch=1 n=54 v=90
242150 On ch=1 n=74 v=0
242150 On ch=1 n=78 v=0
242150 On ch=1 n=66 v=0
242150 On ch=1 n=54 v=0
242160 On ch=1 n=73 v=63
242160 On ch=1 n=76 v=63
242160 On ch=1 n=64 v=63
242160 On ch=1 n=55 v=90
242270 On ch=1 n=55 v=0
242280 On ch=1 n=52 v=90
242390 On ch=1 n=73 v=0
242390 On ch=1 n=76 v=0
242390 On ch=1 n=64 v=0
242390 On ch=1 n=52 v=0
242400 On ch=1 n=69 v=63
242400 On ch=1 n=74 v=63
242400 On ch=1 n=62 v=63
242400 On ch=1 n=54 v=90
242630 On ch=1 n=69 v=0
242630 On ch=1 n=74 v=0
242630 On ch=1 n=62 v=0
242630 On ch=1 n=54 v=0
242640 On ch=1 n=86 v=63
242640 On ch=1 n=74 v=63
242640 On ch=1 n=62 v=63
242640 On ch=1 n=54 v=63
242640 On ch=1 n=50 v=90
242810 On ch=1 n=50 v=0
242820 On ch=1 n=45 v=90
242870 On ch=1 n=62 v=0
242870 On ch=1 n=54 v=0
242870 On ch=1 n=45 v=0
242880 On ch=1 n=64 v=63
242880 On ch=1 n=55 v=63
243110 On ch=1 n=86 v=0
243110 On ch=1 n=74 v=0
243110 On ch=1 n=64 v=0
243110 On ch=1 n=55 v=0
243120 On ch=1 n=85 v=63
243120 On ch=1 n=73 v=63
243120 On ch=1 n=66 v=63
243120 On ch=1 n=57 v=63
243230 On ch=1 n=85 v=0
243230 On ch=1 n=73 v=0
243240 On ch=1 n=83 v=63
243240 On ch=1 n=71 v=63
243300 On ch=1 n=45 v=90
243350 On ch=1 n=83 v=0
243350 On ch=1 n=71 v=0
243350 On ch=1 n=66 v=0
243350 On ch=1 n=57 v=0
243350 On ch=1 n=45 v=0
243360 On ch=1 n=85 v=63
243360 On ch=1 n=73 v=63
243360 On ch=1 n=64 v=90
243360 On ch=1 n=55 v=90
243470 On ch=1 n=85 v=0
243470 On ch=1 n=73 v=0
243480 On ch=1 n=88 v=63
243480 On ch=1 n=76 v=63
243590 On ch=1 n=88 v=0
243590 On ch=1 n=76 v=0
243600 On ch=1 n=91 v=63
243600 On ch=1 n=79 v=63
243710 On ch=1 n=91 v=0
243710 On ch=1 n=79 v=0
243710 On ch=1 n=64 v=0
243710 On ch=1 n=55 v=0
243720 On ch=1 n=90 v=63
243720 On ch=1 n=78 v=63
243720 On ch=1 n=57 v=90
243720 On ch=1 n=62 v=90
243720 On ch=1 n=50 v=90
243830 On ch=1 n=90 v=0
243830 On ch=1 n=78 v=0
243830 On ch=1 n=57 v=0
243830 On ch=1 n=62 v=0
243830 On ch=1 n=50 v=0
243840 On ch=1 n=90 v=63
243840 On ch=1 n=78 v=63
243840 On ch=1 n=57 v=90
243840 On ch=1 n=62 v=90
243840 On ch=1 n=50 v=90
243950 On ch=1 n=90 v=0
243950 On ch=1 n=78 v=0
243960 On ch=1 n=86 v=75
243960 On ch=1 n=74 v=75
244070 On ch=1 n=86 v=0
244070 On ch=1 n=74 v=0
244070 On ch=1 n=57 v=0
244070 On ch=1 n=62 v=0
244070 On ch=1 n=50 v=0
244080 On ch=1 n=85 v=87
244080 On ch=1 n=73 v=87
244080 On ch=1 n=57 v=90
244080 On ch=1 n=45 v=90
244190 On ch=1 n=85 v=0
244190 On ch=1 n=73 v=0
244200 On ch=1 n=86 v=100
244200 On ch=1 n=74 v=100
244310 On ch=1 n=86 v=0
244310 On ch=1 n=74 v=0
244320 On ch=1 n=81 v=100
244320 On ch=1 n=85 v=100
244320 On ch=1 n=88 v=100
244320 On ch=1 n=76 v=100
244430 On ch=1 n=57 v=0
244430 On ch=1 n=45 v=0
244440 On ch=1 n=45 v=100
244440 On ch=1 n=33 v=100
244550 On ch=1 n=81 v=0
244550 On ch=1 n=85 v=0
244550 On ch=1 n=45 v=0
244550 On ch=1 n=33 v=0
244550 On ch=1 n=88 v=0
244550 On ch=1 n=76 v=0
244560 On ch=1 n=69 v=100
244560 On ch=1 n=73 v=100
244560 On ch=1 n=76 v=100
244560 On ch=1 n=64 v=100
244560 On ch=1 n=52 v=100
244560 On ch=1 n=40 v=100
244610 On ch=1 n=52 v=0
244610 On ch=1 n=40 v=0
244680 On ch=1 n=49 v=100
244680 On ch=1 n=37 v=100
244790 On ch=1 n=69 v=0
244790 On ch=1 n=73 v=0
244790 On ch=1 n=76 v=0
244790 On ch=1 n=64 v=0
244790 On ch=1 n=49 v=0
244790 On ch=1 n=37 v=0
244800 On ch=1 n=69 v=100
244800 On ch=1 n=74 v=100
244800 On ch=1 n=78 v=100
244800 On ch=1 n=66 v=100
244800 On ch=1 n=57 v=100
244800 On ch=1 n=45 v=100
244850 On ch=1 n=57 v=0
244850 On ch=1 n=45 v=0
244920 On ch=1 n=81 v=100
244920 On ch=1 n=69 v=100
245030 On ch=1 n=69 v=0
245030 On ch=1 n=74 v=0
245030 On ch=1 n=78 v=0
245030 On ch=1 n=66 v=0
245030 On ch=1 n=81 v=0
245030 On ch=1 n=69 v=0
245040 On ch=1 n=57 v=100
245040 On ch=1 n=62 v=100
245040 On ch=1 n=54 v=100
245040 On ch=1 n=90 v=100
245040 On ch=1 n=78 v=100
245090 On ch=1 n=90 v=0
245090 On ch=1 n=78 v=0
245160 On ch=1 n=86 v=100
245160 On ch=1 n=74 v=100
245270 On ch=1 n=57 v=0
245270 On ch=1 n=62 v=0
245270 On ch=1 n=54 v=0
245270 On ch=1 n=86 v=0
245270 On ch=1 n=74 v=0
245280 On ch=1 n=91 v=100
245280 On ch=1 n=79 v=100
245280 On ch=1 n=61 v=100
245280 On ch=1 n=64 v=100
245280 On ch=1 n=57 v=100
245308 Par ch=1 c=64 v=127
245330 On ch=1 n=91 v=0
245330 On ch=1 n=79 v=0
245400 On ch=1 n=33 v=100
245510 On ch=1 n=33 v=0
245510 On ch=1 n=61 v=0
245510 On ch=1 n=64 v=0
245510 On ch=1 n=57 v=0
245520 On ch=1 n=74 v=100
245520 On ch=1 n=78 v=100
245520 On ch=1 n=66 v=100
245520 On ch=1 n=45 v=100
245570 On ch=1 n=45 v=0
245607 Par ch=1 c=64 v=0
245630 On ch=1 n=74 v=0
245630 On ch=1 n=78 v=0
245630 On ch=1 n=66 v=0
245640 On ch=1 n=76 v=100
245640 On ch=1 n=79 v=100
245640 On ch=1 n=67 v=100
245640 On ch=1 n=45 v=100
245707 Par ch=1 c=64 v=127
245750 On ch=1 n=76 v=0
245750 On ch=1 n=79 v=0
245750 On ch=1 n=67 v=0
245750 On ch=1 n=45 v=0
245760 On ch=1 n=74 v=100
245760 On ch=1 n=78 v=100
245760 On ch=1 n=66 v=100
245760 On ch=1 n=57 v=100
245810 On ch=1 n=57 v=0
245880 On ch=1 n=81 v=100
245880 On ch=1 n=69 v=100
245990 On ch=1 n=74 v=0
245990 On ch=1 n=78 v=0
245990 On ch=1 n=66 v=0
245990 On ch=1 n=81 v=0
245990 On ch=1 n=69 v=0
246000 On ch=1 n=86 v=100
246000 On ch=1 n=74 v=100
246000 On ch=1 n=67 v=100
246000 On ch=1 n=64 v=100
246000 On ch=1 n=57 v=100
246050 On ch=1 n=86 v=0
246050 On ch=1 n=74 v=0
246074 Par ch=1 c=64 v=0
246110 On ch=1 n=67 v=0
246110 On ch=1 n=64 v=0
246120 On ch=1 n=90 v=100
246120 On ch=1 n=78 v=100
246120 On ch=1 n=66 v=100
246120 On ch=1 n=62 v=100
246178 Par ch=1 c=64 v=127
246230 On ch=1 n=90 v=0
246230 On ch=1 n=78 v=0
246230 On ch=1 n=66 v=0
246230 On ch=1 n=62 v=0
246230 On ch=1 n=57 v=0
246240 On ch=1 n=91 v=100
246240 On ch=1 n=79 v=100
246240 On ch=1 n=61 v=100
246240 On ch=1 n=64 v=100
246240 On ch=1 n=57 v=100
246290 On ch=1 n=91 v=0
246290 On ch=1 n=79 v=0
246350 On ch=1 n=61 v=0
246350 On ch=1 n=64 v=0
246350 On ch=1 n=57 v=0
246360 On ch=1 n=33 v=100
246470 On ch=1 n=33 v=0
246480 On ch=1 n=73 v=100
246480 On ch=1 n=78 v=100
246480 On ch=1 n=66 v=100
246480 On ch=1 n=45 v=100
246530 On ch=1 n=45 v=0
246558 Par ch=1 c=64 v=0
246590 On ch=1 n=73 v=0
246590 On ch=1 n=78 v=0
246590 On ch=1 n=66 v=0
246600 On ch=1 n=76 v=100
246600 On ch=1 n=79 v=100
246600 On ch=1 n=67 v=100
246600 On ch=1 n=57 v=100
246600 On ch=1 n=45 v=100
246638 Par ch=1 c=64 v=127
246710 On ch=1 n=76 v=0
246710 On ch=1 n=79 v=0
246710 On ch=1 n=67 v=0
246710 On ch=1 n=57 v=0
246710 On ch=1 n=45 v=0
246720 On ch=1 n=73 v=100
246720 On ch=1 n=78 v=100
246720 On ch=1 n=66 v=100
246720 On ch=1 n=58 v=100
246720 On ch=1 n=46 v=100
246770 On ch=1 n=58 v=0
246770 On ch=1 n=46 v=0
246840 On ch=1 n=61 v=100
246840 On ch=1 n=49 v=100
246950 On ch=1 n=73 v=0
246950 On ch=1 n=78 v=0
246950 On ch=1 n=66 v=0
246950 On ch=1 n=61 v=0
246950 On ch=1 n=49 v=0
246960 On ch=1 n=76 v=100
246960 On ch=1 n=64 v=100
246960 On ch=1 n=70 v=100
246960 On ch=1 n=54 v=100
246960 On ch=1 n=42 v=100
246960 Par ch=1 c=64 v=0
247010 On ch=1 n=54 v=0
247010 On ch=1 n=42 v=0
247070 On ch=1 n=70 v=0
247080 On ch=1 n=73 v=100
247080 On ch=1 n=58 v=100
247080 On ch=1 n=46 v=100
247190 On ch=1 n=76 v=0
247190 On ch=1 n=64 v=0
247190 On ch=1 n=73 v=0
247190 On ch=1 n=58 v=0
247190 On ch=1 n=46 v=0
247200 On ch=1 n=74 v=100
247200 On ch=1 n=62 v=100
247200 On ch=1 n=66 v=100
247200 On ch=1 n=59 v=100
247200 On ch=1 n=47 v=100
247250 On ch=1 n=59 v=0
247250 On ch=1 n=47 v=0
247307 Par ch=1 c=64 v=127
247310 On ch=1 n=66 v=0
247320 On ch=1 n=71 v=100
247320 On ch=1 n=62 v=100
247320 On ch=1 n=50 v=100
247430 On ch=1 n=74 v=0
247430 On ch=1 n=62 v=0
247430 On ch=1 n=71 v=0
247430 On ch=1 n=62 v=0
247430 On ch=1 n=50 v=0
247440 On ch=1 n=76 v=100
247440 On ch=1 n=68 v=100
247440 On ch=1 n=62 v=100
247440 On ch=1 n=52 v=100
247440 On ch=1 n=40 v=100
247440 Par ch=1 c=64 v=0
247490 On ch=1 n=52 v=0
247490 On ch=1 n=40 v=0
247550 On ch=1 n=68 v=0
247550 On ch=1 n=62 v=0
247560 On ch=1 n=71 v=100
247560 On ch=1 n=64 v=100
247560 On ch=1 n=56 v=100
247560 On ch=1 n=44 v=100
247603 Par ch=1 c=64 v=127
247670 On ch=1 n=76 v=0
247670 On ch=1 n=71 v=0
247670 On ch=1 n=64 v=0
247670 On ch=1 n=56 v=0
247670 On ch=1 n=44 v=0
247680 On ch=1 n=64 v=100
247680 On ch=1 n=69 v=100
247680 On ch=1 n=61 v=100
247680 On ch=1 n=57 v=100
247680 On ch=1 n=45 v=100
247692 Par ch=1 c=64 v=0
247730 On ch=1 n=57 v=0
247730 On ch=1 n=45 v=0
247790 On ch=1 n=64 v=0
247790 On ch=1 n=69 v=0
247790 On ch=1 n=61 v=0
247800 On ch=1 n=45 v=100
247819 Par ch=1 c=64 v=127
247910 On ch=1 n=45 v=0
247920 On ch=1 n=74 v=100
247920 On ch=1 n=78 v=100
247920 On ch=1 n=66 v=100
247920 On ch=1 n=33 v=100
247944 Par ch=1 c=64 v=0
248030 On ch=1 n=33 v=0
248040 On ch=1 n=45 v=100
248040 On ch=1 n=33 v=100
248150 On ch=1 n=45 v=0
248150 On ch=1 n=33 v=0
248160 On ch=1 n=50 v=100
248160 On ch=1 n=38 v=100
248365 Par ch=1 c=64 v=127
248390 On ch=1 n=74 v=0
248390 On ch=1 n=78 v=0
248390 On ch=1 n=66 v=0
248400 On ch=1 n=74 v=100
248400 On ch=1 n=78 v=100
248400 On ch=1 n=66 v=100
248630 On ch=1 n=74 v=0
248630 On ch=1 n=78 v=0
248630 On ch=1 n=66 v=0
248640 On ch=1 n=76 v=100
248640 On ch=1 n=79 v=100
248640 On ch=1 n=67 v=100
248745 Par ch=1 c=64 v=0
248870 On ch=1 n=76 v=0
248870 On ch=1 n=79 v=0
248870 On ch=1 n=67 v=0
248870 On ch=1 n=50 v=0
248870 On ch=1 n=38 v=0
248880 On ch=1 n=78 v=100
248880 On ch=1 n=81 v=100
248880 On ch=1 n=69 v=100
248880 On ch=1 n=49 v=100
248880 On ch=1 n=37 v=100
248990 On ch=1 n=49 v=0
248990 On ch=1 n=37 v=0
249000 On ch=1 n=47 v=100
249000 On ch=1 n=35 v=100
249110 On ch=1 n=78 v=0
249110 On ch=1 n=81 v=0
249110 On ch=1 n=69 v=0
249110 On ch=1 n=47 v=0
249110 On ch=1 n=35 v=0
249120 On ch=1 n=78 v=100
249120 On ch=1 n=81 v=100
249120 On ch=1 n=69 v=100
249120 On ch=1 n=45 v=100
249120 On ch=1 n=33 v=100
249230 On ch=1 n=45 v=0
249230 On ch=1 n=33 v=0
249240 On ch=1 n=47 v=95
249240 On ch=1 n=35 v=95
249350 On ch=1 n=78 v=0
249350 On ch=1 n=81 v=0
249350 On ch=1 n=69 v=0
249350 On ch=1 n=47 v=0
249350 On ch=1 n=35 v=0
249360 On ch=1 n=76 v=88
249360 On ch=1 n=79 v=88
249360 On ch=1 n=67 v=88
249360 On ch=1 n=49 v=90
249360 On ch=1 n=37 v=90
249470 On ch=1 n=49 v=0
249470 On ch=1 n=37 v=0
249480 On ch=1 n=50 v=85
249480 On ch=1 n=38 v=85
249590 On ch=1 n=76 v=0
249590 On ch=1 n=79 v=0
249590 On ch=1 n=67 v=0
249590 On ch=1 n=50 v=0
249590 On ch=1 n=38 v=0
249600 On ch=1 n=74 v=76
249600 On ch=1 n=78 v=76
249600 On ch=1 n=66 v=76
249600 On ch=1 n=52 v=79
249600 On ch=1 n=40 v=79
249710 On ch=1 n=52 v=0
249710 On ch=1 n=40 v=0
249720 On ch=1 n=54 v=74
249720 On ch=1 n=42 v=74
249830 On ch=1 n=74 v=0
249830 On ch=1 n=78 v=0
249830 On ch=1 n=66 v=0
249830 On ch=1 n=54 v=0
249830 On ch=1 n=42 v=0
249840 On ch=1 n=69 v=63
249840 On ch=1 n=73 v=63
249840 On ch=1 n=76 v=63
249840 On ch=1 n=64 v=63
249840 On ch=1 n=55 v=69
249840 On ch=1 n=43 v=69
249950 On ch=1 n=55 v=0
249950 On ch=1 n=43 v=0
249960 On ch=1 n=52 v=63
249960 On ch=1 n=40 v=63
250070 On ch=1 n=69 v=0
250070 On ch=1 n=73 v=0
250070 On ch=1 n=76 v=0
250070 On ch=1 n=64 v=0
250070 On ch=1 n=52 v=0
250070 On ch=1 n=40 v=0
250080 On ch=1 n=69 v=63
250080 On ch=1 n=74 v=63
250080 On ch=1 n=62 v=63
250080 On ch=1 n=54 v=63
250080 On ch=1 n=42 v=63
250200 On ch=1 n=54 v=63
250310 On ch=1 n=69 v=0
250310 On ch=1 n=74 v=0
250310 On ch=1 n=62 v=0
250310 On ch=1 n=54 v=0
250310 On ch=1 n=42 v=0
250310 On ch=1 n=54 v=0
250320 On ch=1 n=66 v=63
250320 On ch=1 n=74 v=63
250320 On ch=1 n=62 v=63
250320 On ch=1 n=57 v=63
250430 On ch=1 n=57 v=0
250440 On ch=1 n=42 v=63
250550 On ch=1 n=66 v=0
250550 On ch=1 n=74 v=0
250550 On ch=1 n=62 v=0
250550 On ch=1 n=42 v=0
250560 On ch=1 n=67 v=63
250560 On ch=1 n=76 v=63
250560 On ch=1 n=64 v=63
250560 On ch=1 n=38 v=63
250670 On ch=1 n=38 v=0
250680 On ch=1 n=50 v=63
250790 On ch=1 n=67 v=0
250790 On ch=1 n=76 v=0
250790 On ch=1 n=64 v=0
250790 On ch=1 n=50 v=0
250800 On ch=1 n=69 v=63
250800 On ch=1 n=78 v=63
250800 On ch=1 n=66 v=63
250800 On ch=1 n=57 v=63
250910 On ch=1 n=57 v=0
250920 On ch=1 n=38 v=63
251030 On ch=1 n=69 v=0
251030 On ch=1 n=78 v=0
251030 On ch=1 n=66 v=0
251030 On ch=1 n=38 v=0
251040 On ch=1 n=67 v=63
251040 On ch=1 n=76 v=63
251040 On ch=1 n=64 v=63
251040 On ch=1 n=45 v=63
251150 On ch=1 n=45 v=0
251160 On ch=1 n=57 v=63
251270 On ch=1 n=57 v=0
251280 On ch=1 n=61 v=63
251390 On ch=1 n=67 v=0
251390 On ch=1 n=76 v=0
251390 On ch=1 n=64 v=0
251390 On ch=1 n=61 v=0
251400 On ch=1 n=66 v=63
251400 On ch=1 n=74 v=63
251400 On ch=1 n=62 v=63
251400 On ch=1 n=45 v=63
251510 On ch=1 n=66 v=0
251510 On ch=1 n=74 v=0
251510 On ch=1 n=62 v=0
251510 On ch=1 n=45 v=0
251520 On ch=1 n=66 v=63
251520 On ch=1 n=74 v=63
251520 On ch=1 n=62 v=63
251520 On ch=1 n=38 v=63
251630 On ch=1 n=38 v=0
251640 On ch=1 n=57 v=63
251750 On ch=1 n=66 v=0
251750 On ch=1 n=74 v=0
251750 On ch=1 n=62 v=0
251750 On ch=1 n=57 v=0
251760 On ch=1 n=78 v=63
251760 On ch=1 n=81 v=63
251760 On ch=1 n=69 v=63
251760 On ch=1 n=62 v=63
251870 On ch=1 n=62 v=0
251880 On ch=1 n=57 v=63
251990 On ch=1 n=78 v=0
251990 On ch=1 n=81 v=0
251990 On ch=1 n=69 v=0
251990 On ch=1 n=57 v=0
252000 On ch=1 n=76 v=63
252000 On ch=1 n=79 v=63
252000 On ch=1 n=67 v=63
252000 On ch=1 n=50 v=63
252110 On ch=1 n=50 v=0
252120 On ch=1 n=57 v=63
252230 On ch=1 n=57 v=0
252240 On ch=1 n=62 v=63
252350 On ch=1 n=76 v=0
252350 On ch=1 n=79 v=0
252350 On ch=1 n=67 v=0
252350 On ch=1 n=62 v=0
252360 On ch=1 n=74 v=63
252360 On ch=1 n=78 v=63
252360 On ch=1 n=66 v=63
252360 On ch=1 n=57 v=63
252470 On ch=1 n=74 v=0
252470 On ch=1 n=78 v=0
252470 On ch=1 n=66 v=0
252470 On ch=1 n=57 v=0
252480 On ch=1 n=74 v=63
252480 On ch=1 n=78 v=63
252480 On ch=1 n=66 v=63
252480 On ch=1 n=50 v=63
252590 On ch=1 n=50 v=0
252600 On ch=1 n=57 v=63
252710 On ch=1 n=74 v=0
252710 On ch=1 n=78 v=0
252710 On ch=1 n=66 v=0
252710 On ch=1 n=57 v=0
252720 On ch=1 n=83 v=63
252720 On ch=1 n=86 v=63
252720 On ch=1 n=74 v=63
252720 On ch=1 n=62 v=63
252830 On ch=1 n=62 v=0
252840 On ch=1 n=50 v=63
252950 On ch=1 n=83 v=0
252950 On ch=1 n=86 v=0
252950 On ch=1 n=74 v=0
252950 On ch=1 n=50 v=0
252960 On ch=1 n=78 v=63
252960 On ch=1 n=81 v=63
252960 On ch=1 n=84 v=63
252960 On ch=1 n=72 v=63
252960 On ch=1 n=55 v=63
253070 On ch=1 n=55 v=0
253080 On ch=1 n=62 v=63
253190 On ch=1 n=62 v=0
253200 On ch=1 n=67 v=63
253310 On ch=1 n=78 v=0
253310 On ch=1 n=81 v=0
253310 On ch=1 n=84 v=0
253310 On ch=1 n=72 v=0
253310 On ch=1 n=67 v=0
253320 On ch=1 n=79 v=63
253320 On ch=1 n=83 v=63
253320 On ch=1 n=71 v=63
253320 On ch=1 n=62 v=63
253430 On ch=1 n=79 v=0
253430 On ch=1 n=83 v=0
253430 On ch=1 n=71 v=0
253430 On ch=1 n=62 v=0
253440 On ch=1 n=79 v=63
253440 On ch=1 n=83 v=63
253440 On ch=1 n=71 v=63
253440 On ch=1 n=55 v=63
253550 On ch=1 n=55 v=0
253560 On ch=1 n=67 v=63
253670 On ch=1 n=79 v=0
253670 On ch=1 n=83 v=0
253670 On ch=1 n=71 v=0
253670 On ch=1 n=67 v=0
253680 On ch=1 n=83 v=63
253680 On ch=1 n=91 v=63
253680 On ch=1 n=79 v=63
253680 On ch=1 n=71 v=63
253790 On ch=1 n=83 v=0
253790 On ch=1 n=91 v=0
253790 On ch=1 n=79 v=0
253790 On ch=1 n=71 v=0
253800 On ch=1 n=79 v=63
253800 On ch=1 n=88 v=63
253800 On ch=1 n=76 v=63
253800 On ch=1 n=55 v=63
253910 On ch=1 n=79 v=0
253910 On ch=1 n=88 v=0
253910 On ch=1 n=76 v=0
253910 On ch=1 n=55 v=0
253920 On ch=1 n=78 v=63
253920 On ch=1 n=86 v=63
253920 On ch=1 n=74 v=63
253920 On ch=1 n=57 v=63
254030 On ch=1 n=78 v=0
254030 On ch=1 n=86 v=0
254030 On ch=1 n=74 v=0
254030 On ch=1 n=57 v=0
254040 On ch=1 n=85 v=63
254040 On ch=1 n=73 v=63
254040 On ch=1 n=64 v=63
254150 On ch=1 n=85 v=0
254150 On ch=1 n=73 v=0
254150 On ch=1 n=64 v=0
254160 On ch=1 n=79 v=63
254160 On ch=1 n=88 v=63
254160 On ch=1 n=76 v=63
254160 On ch=1 n=67 v=63
254270 On ch=1 n=79 v=0
254270 On ch=1 n=88 v=0
254270 On ch=1 n=76 v=0
254270 On ch=1 n=67 v=0
254280 On ch=1 n=76 v=63
254280 On ch=1 n=85 v=63
254280 On ch=1 n=73 v=63
254280 On ch=1 n=57 v=63
254390 On ch=1 n=76 v=0
254390 On ch=1 n=85 v=0
254390 On ch=1 n=73 v=0
254390 On ch=1 n=57 v=0
254400 On ch=1 n=74 v=63
254400 On ch=1 n=83 v=63
254400 On ch=1 n=71 v=63
254400 On ch=1 n=45 v=63
254510 On ch=1 n=74 v=0
254510 On ch=1 n=83 v=0
254510 On ch=1 n=71 v=0
254510 On ch=1 n=45 v=0
254520 On ch=1 n=73 v=63
254520 On ch=1 n=81 v=63
254520 On ch=1 n=69 v=63
254520 On ch=1 n=57 v=63
254630 On ch=1 n=73 v=0
254630 On ch=1 n=81 v=0
254630 On ch=1 n=69 v=0
254630 On ch=1 n=57 v=0
254640 On ch=1 n=74 v=63
254640 On ch=1 n=83 v=63
254640 On ch=1 n=71 v=63
254640 On ch=1 n=69 v=63
254750 On ch=1 n=74 v=0
254750 On ch=1 n=83 v=0
254750 On ch=1 n=71 v=0
254750 On ch=1 n=69 v=0
254760 On ch=1 n=76 v=63
254760 On ch=1 n=85 v=63
254760 On ch=1 n=73 v=63
254760 On ch=1 n=57 v=63
254870 On ch=1 n=76 v=0
254870 On ch=1 n=85 v=0
254870 On ch=1 n=73 v=0
254870 On ch=1 n=57 v=0
254880 On ch=1 n=78 v=63
254880 On ch=1 n=86 v=63
254880 On ch=1 n=74 v=63
254880 On ch=1 n=66 v=63
254880 On ch=1 n=69 v=63
254880 On ch=1 n=62 v=63
254990 On ch=1 n=78 v=0
254990 On ch=1 n=86 v=0
254990 On ch=1 n=74 v=0
254990 On ch=1 n=66 v=0
254990 On ch=1 n=69 v=0
254990 On ch=1 n=62 v=0
255000 On ch=1 n=81 v=63
255000 On ch=1 n=90 v=63
255000 On ch=1 n=78 v=63
255110 On ch=1 n=81 v=0
255110 On ch=1 n=90 v=0
255110 On ch=1 n=78 v=0
255120 On ch=1 n=79 v=63
255120 On ch=1 n=88 v=63
255120 On ch=1 n=76 v=63
255120 On ch=1 n=61 v=63
255120 On ch=1 n=64 v=63
255120 On ch=1 n=69 v=63
255120 On ch=1 n=57 v=63
255230 On ch=1 n=79 v=0
255230 On ch=1 n=88 v=0
255230 On ch=1 n=76 v=0
255230 On ch=1 n=61 v=0
255230 On ch=1 n=64 v=0
255230 On ch=1 n=69 v=0
255230 On ch=1 n=57 v=0
255240 On ch=1 n=76 v=63
255240 On ch=1 n=85 v=63
255240 On ch=1 n=73 v=63
255350 On ch=1 n=76 v=0
255350 On ch=1 n=85 v=0
255350 On ch=1 n=73 v=0
255360 On ch=1 n=78 v=63
255360 On ch=1 n=86 v=63
255360 On ch=1 n=74 v=63
255360 On ch=1 n=66 v=63
255360 On ch=1 n=69 v=63
255360 On ch=1 n=62 v=63
255470 On ch=1 n=78 v=0
255470 On ch=1 n=86 v=0
255470 On ch=1 n=74 v=0
255470 On ch=1 n=66 v=0
255470 On ch=1 n=69 v=0
255470 On ch=1 n=62 v=0
255480 On ch=1 n=57 v=63
255480 On ch=1 n=54 v=63
255590 On ch=1 n=57 v=0
255590 On ch=1 n=54 v=0
255600 On ch=1 n=59 v=63
255600 On ch=1 n=55 v=63
255600 On ch=1 n=38 v=63
255710 On ch=1 n=59 v=0
255710 On ch=1 n=55 v=0
255720 On ch=1 n=61 v=63
255720 On ch=1 n=52 v=63
255830 On ch=1 n=61 v=0
255830 On ch=1 n=52 v=0
255830 On ch=1 n=38 v=0
255840 On ch=1 n=62 v=63
255840 On ch=1 n=54 v=63
255840 On ch=1 n=38 v=63
255950 On ch=1 n=62 v=0
255950 On ch=1 n=54 v=0
255950 On ch=1 n=38 v=0
255960 On ch=1 n=64 v=63
255960 On ch=1 n=55 v=63
256070 On ch=1 n=64 v=0
256070 On ch=1 n=55 v=0
256080 On ch=1 n=52 v=63
256080 On ch=1 n=38 v=63
256110 On ch=1 n=52 v=0
256120 On ch=1 n=61 v=63
256150 On ch=1 n=61 v=0
256160 On ch=1 n=52 v=63
256190 On ch=1 n=52 v=0
256190 On ch=1 n=38 v=0
256200 On ch=1 n=62 v=63
256200 On ch=1 n=54 v=63
256310 On ch=1 n=62 v=0
256310 On ch=1 n=54 v=0
256320 On ch=1 n=64 v=63
256320 On ch=1 n=55 v=63
256320 On ch=1 n=38 v=63
256430 On ch=1 n=64 v=0
256430 On ch=1 n=55 v=0
256430 On ch=1 n=38 v=0
256440 On ch=1 n=66 v=63
256440 On ch=1 n=57 v=63
256550 On ch=1 n=66 v=0
256550 On ch=1 n=57 v=0
256560 On ch=1 n=59 v=63
256560 On ch=1 n=38 v=63
256590 On ch=1 n=59 v=0
256600 On ch=1 n=67 v=63
256630 On ch=1 n=67 v=0
256640 On ch=1 n=59 v=63
256670 On ch=1 n=59 v=0
256670 On ch=1 n=38 v=0
256680 On ch=1 n=66 v=63
256680 On ch=1 n=57 v=63
256790 On ch=1 n=66 v=0
256790 On ch=1 n=57 v=0
256800 On ch=1 n=66 v=63
256800 On ch=1 n=57 v=63
256800 On ch=1 n=38 v=63
256910 On ch=1 n=66 v=0
256910 On ch=1 n=57 v=0
256910 On ch=1 n=38 v=0
256920 On ch=1 n=64 v=63
256920 On ch=1 n=55 v=63
257030 On ch=1 n=64 v=0
257030 On ch=1 n=55 v=0
257040 On ch=1 n=59 v=63
257040 On ch=1 n=38 v=63
257070 On ch=1 n=59 v=0
257080 On ch=1 n=67 v=63
257110 On ch=1 n=67 v=0
257120 On ch=1 n=59 v=63
257150 On ch=1 n=59 v=0
257150 On ch=1 n=38 v=0
257160 On ch=1 n=64 v=63
257160 On ch=1 n=55 v=63
257270 On ch=1 n=64 v=0
257270 On ch=1 n=55 v=0
257280 On ch=1 n=62 v=63
257280 On ch=1 n=54 v=63
257280 On ch=1 n=38 v=63
257390 On ch=1 n=62 v=0
257390 On ch=1 n=54 v=0
257390 On ch=1 n=38 v=0
257400 On ch=1 n=61 v=63
257400 On ch=1 n=52 v=63
257510 On ch=1 n=61 v=0
257510 On ch=1 n=52 v=0
257520 On ch=1 n=55 v=63
257520 On ch=1 n=38 v=63
257550 On ch=1 n=55 v=0
257560 On ch=1 n=64 v=63
257590 On ch=1 n=64 v=0
257600 On ch=1 n=57 v=63
257630 On ch=1 n=57 v=0
257630 On ch=1 n=38 v=0
257640 On ch=1 n=55 v=63
257640 On ch=1 n=52 v=63
257750 On ch=1 n=55 v=0
257750 On ch=1 n=52 v=0
257760 On ch=1 n=54 v=63
257760 On ch=1 n=50 v=63
257760 On ch=1 n=38 v=63
257870 On ch=1 n=54 v=0
257870 On ch=1 n=50 v=0
257870 On ch=1 n=38 v=0
257880 On ch=1 n=55 v=63
257880 On ch=1 n=52 v=63
257990 On ch=1 n=55 v=0
257990 On ch=1 n=52 v=0
258000 On ch=1 n=54 v=63
258000 On ch=1 n=38 v=63
258030 On ch=1 n=54 v=0
258040 On ch=1 n=57 v=63
258070 On ch=1 n=57 v=0
258080 On ch=1 n=54 v=63
258110 On ch=1 n=54 v=0
258110 On ch=1 n=38 v=0
258120 On ch=1 n=59 v=63
258120 On ch=1 n=55 v=63
258230 On ch=1 n=59 v=0
258230 On ch=1 n=55 v=0
258240 On ch=1 n=61 v=63
258240 On ch=1 n=57 v=63
258240 On ch=1 n=38 v=63
258350 On ch=1 n=61 v=0
258350 On ch=1 n=57 v=0
258350 On ch=1 n=38 v=0
258360 On ch=1 n=62 v=63
258360 On ch=1 n=59 v=63
258470 On ch=1 n=62 v=0
258470 On ch=1 n=59 v=0
258480 On ch=1 n=61 v=63
258480 On ch=1 n=38 v=63
258510 On ch=1 n=61 v=0
258520 On ch=1 n=64 v=63
258550 On ch=1 n=64 v=0
258560 On ch=1 n=61 v=63
258590 On ch=1 n=61 v=0
258590 On ch=1 n=38 v=0
258600 On ch=1 n=66 v=63
258600 On ch=1 n=62 v=63
258710 On ch=1 n=66 v=0
258710 On ch=1 n=62 v=0
258720 On ch=1 n=66 v=63
258720 On ch=1 n=62 v=63
258720 On ch=1 n=38 v=63
258830 On ch=1 n=66 v=0
258830 On ch=1 n=62 v=0
258830 On ch=1 n=38 v=0
258840 On ch=1 n=64 v=63
258840 On ch=1 n=61 v=63
258950 On ch=1 n=64 v=0
258950 On ch=1 n=61 v=0
258960 On ch=1 n=64 v=63
258960 On ch=1 n=38 v=63
258990 On ch=1 n=64 v=0
259000 On ch=1 n=67 v=63
259030 On ch=1 n=67 v=0
259040 On ch=1 n=64 v=63
259070 On ch=1 n=64 v=0
259070 On ch=1 n=38 v=0
259080 On ch=1 n=66 v=63
259080 On ch=1 n=62 v=63
259190 On ch=1 n=66 v=0
259190 On ch=1 n=62 v=0
259200 On ch=1 n=64 v=63
259200 On ch=1 n=61 v=63
259200 On ch=1 n=67 v=63
259200 On ch=1 n=38 v=63
259310 On ch=1 n=67 v=0
259310 On ch=1 n=38 v=0
259320 On ch=1 n=66 v=63
259430 On ch=1 n=64 v=0
259430 On ch=1 n=61 v=0
259430 On ch=1 n=66 v=0
259440 On ch=1 n=64 v=63
259440 On ch=1 n=61 v=63
259440 On ch=1 n=38 v=63
259470 On ch=1 n=64 v=0
259470 On ch=1 n=61 v=0
259480 On ch=1 n=69 v=63
259510 On ch=1 n=69 v=0
259520 On ch=1 n=64 v=63
259520 On ch=1 n=61 v=63
259550 On ch=1 n=64 v=0
259550 On ch=1 n=61 v=0
259550 On ch=1 n=38 v=0
259560 On ch=1 n=67 v=63
259670 On ch=1 n=67 v=0
259680 On ch=1 n=66 v=63
259680 On ch=1 n=62 v=63
259680 On ch=1 n=38 v=63
259790 On ch=1 n=66 v=0
259800 On ch=1 n=67 v=63
259910 On ch=1 n=67 v=0
259910 On ch=1 n=62 v=0
259910 On ch=1 n=38 v=0
259920 On ch=1 n=68 v=63
259920 On ch=1 n=66 v=63
259920 On ch=1 n=62 v=63
259920 On ch=1 n=54 v=63
259950 On ch=1 n=54 v=0
259960 On ch=1 n=55 v=63
259990 On ch=1 n=55 v=0
260000 On ch=1 n=54 v=63
260030 On ch=1 n=68 v=0
260030 On ch=1 n=54 v=0
260040 On ch=1 n=69 v=63
260040 On ch=1 n=52 v=63
260070 On ch=1 n=52 v=0
260080 On ch=1 n=54 v=63
260110 On ch=1 n=54 v=0
260150 On ch=1 n=69 v=0
260150 On ch=1 n=66 v=0
260150 On ch=1 n=62 v=0
260160 On ch=1 n=68 v=63
260160 On ch=1 n=66 v=63
260160 On ch=1 n=62 v=63
260160 On ch=1 n=38 v=63
260270 On ch=1 n=68 v=0
260280 On ch=1 n=69 v=63
260390 On ch=1 n=69 v=0
260390 On ch=1 n=66 v=0
260390 On ch=1 n=62 v=0
260390 On ch=1 n=38 v=0
260400 On ch=1 n=71 v=63
260400 On ch=1 n=66 v=63
260400 On ch=1 n=62 v=63
260430 On ch=1 n=62 v=0
260440 On ch=1 n=64 v=63
260470 On ch=1 n=64 v=0
260480 On ch=1 n=62 v=63
260510 On ch=1 n=71 v=0
260510 On ch=1 n=62 v=0
260520 On ch=1 n=69 v=63
260520 On ch=1 n=61 v=63
260550 On ch=1 n=61 v=0
260560 On ch=1 n=62 v=63
260590 On ch=1 n=62 v=0
260630 On ch=1 n=69 v=0
260630 On ch=1 n=66 v=0
260640 On ch=1 n=69 v=63
260640 On ch=1 n=62 v=63
260640 On ch=1 n=59 v=63
260640 On ch=1 n=38 v=63
260750 On ch=1 n=69 v=0
260760 On ch=1 n=67 v=63
260870 On ch=1 n=67 v=0
260870 On ch=1 n=62 v=0
260870 On ch=1 n=59 v=0
260870 On ch=1 n=38 v=0
260880 On ch=1 n=71 v=63
260880 On ch=1 n=62 v=63
260880 On ch=1 n=59 v=63
260910 On ch=1 n=59 v=0
260920 On ch=1 n=61 v=63
260950 On ch=1 n=61 v=0
260960 On ch=1 n=59 v=63
260990 On ch=1 n=71 v=0
260990 On ch=1 n=59 v=0
261000 On ch=1 n=67 v=63
261000 On ch=1 n=57 v=63
261030 On ch=1 n=57 v=0
261040 On ch=1 n=59 v=63
261070 On ch=1 n=59 v=0
261110 On ch=1 n=67 v=0
261110 On ch=1 n=62 v=0
261120 On ch=1 n=66 v=63
261120 On ch=1 n=61 v=63
261120 On ch=1 n=38 v=63
261230 On ch=1 n=66 v=0
261240 On ch=1 n=64 v=63
261350 On ch=1 n=64 v=0
261350 On ch=1 n=61 v=0
261350 On ch=1 n=38 v=0
261360 On ch=1 n=67 v=63
261360 On ch=1 n=61 v=63
261360 On ch=1 n=55 v=63
261390 On ch=1 n=55 v=0
261400 On ch=1 n=57 v=63
261430 On ch=1 n=57 v=0
261440 On ch=1 n=55 v=63
261470 On ch=1 n=67 v=0
261470 On ch=1 n=55 v=0
261480 On ch=1 n=64 v=63
261480 On ch=1 n=54 v=63
261510 On ch=1 n=54 v=0
261520 On ch=1 n=55 v=63
261550 On ch=1 n=55 v=0
261590 On ch=1 n=64 v=0
261590 On ch=1 n=61 v=0
261600 On ch=1 n=66 v=63
261600 On ch=1 n=62 v=63
261600 On ch=1 n=38 v=63
261710 On ch=1 n=66 v=0
261710 On ch=1 n=62 v=0
261720 On ch=1 n=64 v=63
261720 On ch=1 n=61 v=63
261830 On ch=1 n=64 v=0
261830 On ch=1 n=61 v=0
261830 On ch=1 n=38 v=0
261840 On ch=1 n=66 v=63
261840 On ch=1 n=62 v=63
261840 On ch=1 n=59 v=63
261870 On ch=1 n=59 v=0
261880 On ch=1 n=61 v=63
261910 On ch=1 n=61 v=0
261920 On ch=1 n=59 v=63
261950 On ch=1 n=66 v=0
261950 On ch=1 n=62 v=0
261950 On ch=1 n=59 v=0
261960 On ch=1 n=67 v=63
261960 On ch=1 n=61 v=63
261960 On ch=1 n=57 v=63
262070 On ch=1 n=67 v=0
262070 On ch=1 n=61 v=0
262070 On ch=1 n=57 v=0
262080 On ch=1 n=69 v=63
262080 On ch=1 n=59 v=63
262080 On ch=1 n=55 v=63
262190 On ch=1 n=69 v=0
262190 On ch=1 n=59 v=0
262190 On ch=1 n=55 v=0
262200 On ch=1 n=71 v=63
262200 On ch=1 n=57 v=63
262200 On ch=1 n=54 v=63
262310 On ch=1 n=71 v=0
262310 On ch=1 n=57 v=0
262310 On ch=1 n=54 v=0
262320 On ch=1 n=73 v=63
262320 On ch=1 n=55 v=63
262320 On ch=1 n=52 v=63
262350 On ch=1 n=55 v=0
262350 On ch=1 n=52 v=0
262360 On ch=1 n=57 v=63
262390 On ch=1 n=57 v=0
262400 On ch=1 n=55 v=63
262430 On ch=1 n=73 v=0
262430 On ch=1 n=55 v=0
262440 On ch=1 n=74 v=63
262440 On ch=1 n=54 v=63
262440 On ch=1 n=50 v=63
262550 On ch=1 n=74 v=0
262550 On ch=1 n=54 v=0
262550 On ch=1 n=50 v=0
262560 On ch=1 n=69 v=63
262560 On ch=1 n=74 v=63
262560 On ch=1 n=66 v=63
262560 On ch=1 n=38 v=63
262670 On ch=1 n=69 v=0
262670 On ch=1 n=74 v=0
262670 On ch=1 n=66 v=0
262680 On ch=1 n=67 v=63
262680 On ch=1 n=73 v=63
262680 On ch=1 n=64 v=63
262790 On ch=1 n=67 v=0
262790 On ch=1 n=73 v=0
262790 On ch=1 n=64 v=0
262790 On ch=1 n=38 v=0
262800 On ch=1 n=66 v=63
262800 On ch=1 n=71 v=63
262800 On ch=1 n=62 v=63
262800 On ch=1 n=57 v=63
262830 On ch=1 n=57 v=0
262840 On ch=1 n=59 v=63
262870 On ch=1 n=59 v=0
262880 On ch=1 n=57 v=63
262910 On ch=1 n=66 v=0
262910 On ch=1 n=71 v=0
262910 On ch=1 n=62 v=0
262910 On ch=1 n=57 v=0
262920 On ch=1 n=67 v=63
262920 On ch=1 n=73 v=63
262920 On ch=1 n=64 v=63
262920 On ch=1 n=56 v=63
262950 On ch=1 n=56 v=0
262960 On ch=1 n=57 v=63
262990 On ch=1 n=57 v=0
263030 On ch=1 n=67 v=0
263030 On ch=1 n=73 v=0
263030 On ch=1 n=64 v=0
263040 On ch=1 n=74 v=63
263040 On ch=1 n=66 v=63
263040 On ch=1 n=38 v=63
263150 On ch=1 n=74 v=0
263160 On ch=1 n=69 v=63
263270 On ch=1 n=69 v=0
263270 On ch=1 n=66 v=0
263270 On ch=1 n=38 v=0
263280 On ch=1 n=73 v=63
263280 On ch=1 n=76 v=63
263280 On ch=1 n=67 v=63
263280 On ch=1 n=62 v=63
263310 On ch=1 n=62 v=0
263320 On ch=1 n=64 v=63
263350 On ch=1 n=64 v=0
263360 On ch=1 n=62 v=63
263390 On ch=1 n=73 v=0
263390 On ch=1 n=76 v=0
263390 On ch=1 n=67 v=0
263390 On ch=1 n=62 v=0
263400 On ch=1 n=74 v=63
263400 On ch=1 n=78 v=63
263400 On ch=1 n=66 v=63
263400 On ch=1 n=61 v=63
263430 On ch=1 n=61 v=0
263440 On ch=1 n=62 v=63
263470 On ch=1 n=62 v=0
263510 On ch=1 n=74 v=0
263510 On ch=1 n=78 v=0
263510 On ch=1 n=66 v=0
263520 On ch=1 n=78 v=63
263520 On ch=1 n=74 v=63
263520 On ch=1 n=69 v=63
263520 On ch=1 n=45 v=63
263630 On ch=1 n=78 v=0
263630 On ch=1 n=74 v=0
263640 On ch=1 n=76 v=63
263640 On ch=1 n=73 v=63
263750 On ch=1 n=76 v=0
263750 On ch=1 n=73 v=0
263750 On ch=1 n=69 v=0
263750 On ch=1 n=45 v=0
263760 On ch=1 n=74 v=63
263760 On ch=1 n=71 v=63
263760 On ch=1 n=69 v=63
263760 On ch=1 n=57 v=63
263790 On ch=1 n=57 v=0
263800 On ch=1 n=59 v=63
263830 On ch=1 n=59 v=0
263840 On ch=1 n=57 v=63
263870 On ch=1 n=74 v=0
263870 On ch=1 n=71 v=0
263870 On ch=1 n=57 v=0
263880 On ch=1 n=76 v=63
263880 On ch=1 n=73 v=63
263880 On ch=1 n=56 v=63
263910 On ch=1 n=56 v=0
263920 On ch=1 n=57 v=63
263950 On ch=1 n=57 v=0
263990 On ch=1 n=76 v=0
263990 On ch=1 n=73 v=0
263990 On ch=1 n=69 v=0
264000 On ch=1 n=79 v=63
264000 On ch=1 n=76 v=63
264000 On ch=1 n=69 v=63
264000 On ch=1 n=45 v=63
264110 On ch=1 n=79 v=0
264110 On ch=1 n=76 v=0
264120 On ch=1 n=78 v=63
264120 On ch=1 n=74 v=63
264230 On ch=1 n=78 v=0
264230 On ch=1 n=74 v=0
264230 On ch=1 n=69 v=0
264230 On ch=1 n=45 v=0
264240 On ch=1 n=76 v=63
264240 On ch=1 n=67 v=63
264240 On ch=1 n=69 v=63
264240 On ch=1 n=61 v=63
264270 On ch=1 n=61 v=0
264280 On ch=1 n=59 v=63
264310 On ch=1 n=59 v=0
264320 On ch=1 n=61 v=63
264350 On ch=1 n=76 v=0
264350 On ch=1 n=67 v=0
264350 On ch=1 n=61 v=0
264360 On ch=1 n=74 v=63
264360 On ch=1 n=66 v=63
264360 On ch=1 n=62 v=63
264470 On ch=1 n=74 v=0
264470 On ch=1 n=66 v=0
264470 On ch=1 n=69 v=0
264470 On ch=1 n=62 v=0
264480 On ch=1 n=78 v=63
264480 On ch=1 n=74 v=63
264480 On ch=1 n=69 v=63
264480 On ch=1 n=45 v=63
264590 On ch=1 n=78 v=0
264590 On ch=1 n=74 v=0
264600 On ch=1 n=76 v=63
264600 On ch=1 n=73 v=63
264710 On ch=1 n=76 v=0
264710 On ch=1 n=73 v=0
264710 On ch=1 n=69 v=0
264710 On ch=1 n=45 v=0
264720 On ch=1 n=74 v=63
264720 On ch=1 n=71 v=63
264720 On ch=1 n=69 v=63
264720 On ch=1 n=57 v=63
264750 On ch=1 n=57 v=0
264760 On ch=1 n=59 v=63
264790 On ch=1 n=59 v=0
264800 On ch=1 n=57 v=63
264830 On ch=1 n=74 v=0
264830 On ch=1 n=71 v=0
264830 On ch=1 n=57 v=0
264840 On ch=1 n=76 v=63
264840 On ch=1 n=73 v=63
264840 On ch=1 n=56 v=63
264870 On ch=1 n=56 v=0
264880 On ch=1 n=57 v=63
264910 On ch=1 n=57 v=0
264950 On ch=1 n=76 v=0
264950 On ch=1 n=73 v=0
264950 On ch=1 n=69 v=0
264960 On ch=1 n=79 v=63
264960 On ch=1 n=76 v=63
264960 On ch=1 n=69 v=63
264960 On ch=1 n=45 v=63
265070 On ch=1 n=79 v=0
265070 On ch=1 n=76 v=0
265080 On ch=1 n=78 v=63
265080 On ch=1 n=74 v=63
265190 On ch=1 n=78 v=0
265190 On ch=1 n=74 v=0
265190 On ch=1 n=69 v=0
265190 On ch=1 n=45 v=0
265200 On ch=1 n=76 v=63
265200 On ch=1 n=67 v=63
265200 On ch=1 n=69 v=63
265200 On ch=1 n=61 v=63
265230 On ch=1 n=61 v=0
265240 On ch=1 n=59 v=63
265270 On ch=1 n=59 v=0
265280 On ch=1 n=61 v=63
265310 On ch=1 n=76 v=0
265310 On ch=1 n=67 v=0
265310 On ch=1 n=61 v=0
265320 On ch=1 n=74 v=63
265320 On ch=1 n=66 v=63
265320 On ch=1 n=62 v=63
265430 On ch=1 n=74 v=0
265430 On ch=1 n=66 v=0
265430 On ch=1 n=69 v=0
265430 On ch=1 n=62 v=0
265440 On ch=1 n=74 v=63
265440 On ch=1 n=78 v=63
265440 On ch=1 n=69 v=63
265440 On ch=1 n=45 v=63
265550 On ch=1 n=74 v=0
265550 On ch=1 n=78 v=0
265550 On ch=1 n=69 v=0
265560 On ch=1 n=73 v=63
265560 On ch=1 n=76 v=63
265560 On ch=1 n=67 v=63
265670 On ch=1 n=73 v=0
265670 On ch=1 n=76 v=0
265670 On ch=1 n=67 v=0
265670 On ch=1 n=45 v=0
265680 On ch=1 n=71 v=63
265680 On ch=1 n=74 v=63
265680 On ch=1 n=66 v=63
265680 On ch=1 n=57 v=63
265710 On ch=1 n=57 v=0
265720 On ch=1 n=59 v=63
265750 On ch=1 n=59 v=0
265760 On ch=1 n=57 v=63
265790 On ch=1 n=71 v=0
265790 On ch=1 n=74 v=0
265790 On ch=1 n=66 v=0
265790 On ch=1 n=57 v=0
265800 On ch=1 n=73 v=63
265800 On ch=1 n=76 v=63
265800 On ch=1 n=67 v=63
265800 On ch=1 n=56 v=63
265830 On ch=1 n=56 v=0
265840 On ch=1 n=57 v=63
265870 On ch=1 n=57 v=0
265910 On ch=1 n=73 v=0
265910 On ch=1 n=76 v=0
265910 On ch=1 n=67 v=0
265920 On ch=1 n=76 v=63
265920 On ch=1 n=79 v=63
265920 On ch=1 n=67 v=63
265920 On ch=1 n=45 v=63
266030 On ch=1 n=76 v=0
266030 On ch=1 n=79 v=0
266030 On ch=1 n=67 v=0
266040 On ch=1 n=74 v=63
266040 On ch=1 n=78 v=63
266040 On ch=1 n=69 v=63
266150 On ch=1 n=74 v=0
266150 On ch=1 n=78 v=0
266150 On ch=1 n=69 v=0
266150 On ch=1 n=45 v=0
266160 On ch=1 n=74 v=63
266160 On ch=1 n=78 v=63
266160 On ch=1 n=69 v=63
266160 On ch=1 n=66 v=63
266190 On ch=1 n=66 v=0
266200 On ch=1 n=64 v=63
266230 On ch=1 n=64 v=0
266240 On ch=1 n=66 v=63
266270 On ch=1 n=74 v=0
266270 On ch=1 n=78 v=0
266270 On ch=1 n=69 v=0
266270 On ch=1 n=66 v=0
266280 On ch=1 n=73 v=63
266280 On ch=1 n=76 v=63
266280 On ch=1 n=70 v=63
266280 On ch=1 n=67 v=63
266390 On ch=1 n=73 v=0
266390 On ch=1 n=76 v=0
266390 On ch=1 n=70 v=0
266390 On ch=1 n=67 v=0
266400 On ch=1 n=70 v=63
266400 On ch=1 n=73 v=63
266400 On ch=1 n=76 v=63
266400 On ch=1 n=67 v=63
266400 On ch=1 n=45 v=63
266510 On ch=1 n=70 v=0
266510 On ch=1 n=73 v=0
266510 On ch=1 n=76 v=0
266510 On ch=1 n=67 v=0
266520 On ch=1 n=71 v=64
266520 On ch=1 n=74 v=64
266520 On ch=1 n=66 v=64
266630 On ch=1 n=71 v=0
266630 On ch=1 n=74 v=0
266630 On ch=1 n=66 v=0
266630 On ch=1 n=45 v=0
266640 On ch=1 n=74 v=66
266640 On ch=1 n=66 v=66
266640 On ch=1 n=59 v=63
266670 On ch=1 n=59 v=0
266680 On ch=1 n=61 v=63
266710 On ch=1 n=61 v=0
266720 On ch=1 n=59 v=64
266750 On ch=1 n=74 v=0
266750 On ch=1 n=66 v=0
266750 On ch=1 n=59 v=0
266760 On ch=1 n=76 v=68
266760 On ch=1 n=64 v=68
266760 On ch=1 n=56 v=65
266870 On ch=1 n=76 v=0
266870 On ch=1 n=64 v=0
266870 On ch=1 n=56 v=0
266880 On ch=1 n=69 v=70
266880 On ch=1 n=57 v=67
266880 On ch=1 n=45 v=67
267110 On ch=1 n=69 v=0
267110 On ch=1 n=57 v=0
267110 On ch=1 n=45 v=0
267120 On ch=1 n=69 v=74
267120 On ch=1 n=74 v=74
267120 On ch=1 n=78 v=74
267120 On ch=1 n=66 v=74
267120 On ch=1 n=54 v=71
267120 On ch=1 n=57 v=71
267120 On ch=1 n=62 v=71
267120 On ch=1 n=50 v=71
267264 Par ch=1 c=64 v=127
267350 On ch=1 n=54 v=0
267350 On ch=1 n=57 v=0
267350 On ch=1 n=62 v=0
267350 On ch=1 n=50 v=0
267360 On ch=1 n=45 v=77
267360 On ch=1 n=38 v=77
267470 On ch=1 n=69 v=0
267470 On ch=1 n=74 v=0
267470 On ch=1 n=78 v=0
267470 On ch=1 n=66 v=0
267480 On ch=1 n=76 v=79
267480 On ch=1 n=79 v=79
267480 On ch=1 n=67 v=79
267590 On ch=1 n=76 v=0
267590 On ch=1 n=79 v=0
267590 On ch=1 n=67 v=0
267590 On ch=1 n=45 v=0
267590 On ch=1 n=38 v=0
267600 On ch=1 n=73 v=81
267600 On ch=1 n=76 v=81
267600 On ch=1 n=64 v=81
267600 On ch=1 n=59 v=79
267600 On ch=1 n=50 v=81
267630 On ch=1 n=59 v=0
267640 On ch=1 n=57 v=80
267670 On ch=1 n=57 v=0
267680 On ch=1 n=56 v=80
267710 On ch=1 n=73 v=0
267710 On ch=1 n=76 v=0
267710 On ch=1 n=64 v=0
267710 On ch=1 n=56 v=0
267720 On ch=1 n=74 v=83
267720 On ch=1 n=78 v=83
267720 On ch=1 n=66 v=83
267720 On ch=1 n=57 v=81
267764 Par ch=1 c=64 v=0
267830 On ch=1 n=74 v=0
267830 On ch=1 n=78 v=0
267830 On ch=1 n=66 v=0
267830 On ch=1 n=57 v=0
267830 On ch=1 n=50 v=0
267840 On ch=1 n=76 v=85
267840 On ch=1 n=79 v=85
267840 On ch=1 n=67 v=85
267840 On ch=1 n=59 v=83
267840 On ch=1 n=50 v=85
267870 On ch=1 n=59 v=0
267880 On ch=1 n=57 v=84
267910 On ch=1 n=57 v=0
267920 On ch=1 n=56 v=84
267950 On ch=1 n=76 v=0
267950 On ch=1 n=79 v=0
267950 On ch=1 n=67 v=0
267950 On ch=1 n=56 v=0
267960 On ch=1 n=78 v=87
267960 On ch=1 n=81 v=87
267960 On ch=1 n=69 v=87
267960 On ch=1 n=57 v=85
268070 On ch=1 n=78 v=0
268070 On ch=1 n=81 v=0
268070 On ch=1 n=69 v=0
268070 On ch=1 n=57 v=0
268070 On ch=1 n=50 v=0
268080 On ch=1 n=79 v=88
268080 On ch=1 n=83 v=88
268080 On ch=1 n=71 v=88
268080 On ch=1 n=59 v=87
268080 On ch=1 n=50 v=88
268110 On ch=1 n=59 v=0
268120 On ch=1 n=57 v=88
268150 On ch=1 n=57 v=0
268160 On ch=1 n=56 v=89
268190 On ch=1 n=79 v=0
268190 On ch=1 n=83 v=0
268190 On ch=1 n=71 v=0
268190 On ch=1 n=56 v=0
268200 On ch=1 n=78 v=90
268200 On ch=1 n=81 v=90
268200 On ch=1 n=69 v=90
268200 On ch=1 n=57 v=89
268310 On ch=1 n=78 v=0
268310 On ch=1 n=81 v=0
268310 On ch=1 n=69 v=0
268310 On ch=1 n=57 v=0
268310 On ch=1 n=50 v=0
268320 On ch=1 n=78 v=92
268320 On ch=1 n=81 v=92
268320 On ch=1 n=69 v=92
268320 On ch=1 n=60 v=91
268320 On ch=1 n=50 v=92
268350 On ch=1 n=60 v=0
268360 On ch=1 n=59 v=92
268390 On ch=1 n=59 v=0
268400 On ch=1 n=57 v=93
268430 On ch=1 n=78 v=0
268430 On ch=1 n=81 v=0
268430 On ch=1 n=69 v=0
268430 On ch=1 n=57 v=0
268440 On ch=1 n=76 v=94
268440 On ch=1 n=79 v=94
268440 On ch=1 n=67 v=94
268440 On ch=1 n=59 v=93
268550 On ch=1 n=76 v=0
268550 On ch=1 n=79 v=0
268550 On ch=1 n=67 v=0
268550 On ch=1 n=59 v=0
268550 On ch=1 n=50 v=0
268560 On ch=1 n=79 v=96
268560 On ch=1 n=83 v=96
268560 On ch=1 n=71 v=96
268560 On ch=1 n=60 v=95
268560 On ch=1 n=50 v=96
268590 On ch=1 n=60 v=0
268600 On ch=1 n=59 v=96
268630 On ch=1 n=59 v=0
268640 On ch=1 n=57 v=97
268670 On ch=1 n=79 v=0
268670 On ch=1 n=83 v=0
268670 On ch=1 n=71 v=0
268670 On ch=1 n=57 v=0
268680 On ch=1 n=76 v=98
268680 On ch=1 n=79 v=98
268680 On ch=1 n=67 v=98
268680 On ch=1 n=59 v=97
268790 On ch=1 n=76 v=0
268790 On ch=1 n=79 v=0
268790 On ch=1 n=67 v=0
268790 On ch=1 n=59 v=0
268790 On ch=1 n=50 v=0
268800 On ch=1 n=74 v=100
268800 On ch=1 n=78 v=100
268800 On ch=1 n=66 v=100
268800 On ch=1 n=57 v=100
268800 On ch=1 n=50 v=100
268830 On ch=1 n=57 v=0
268840 On ch=1 n=55 v=100
268870 On ch=1 n=55 v=0
268880 On ch=1 n=54 v=100
268910 On ch=1 n=74 v=0
268910 On ch=1 n=78 v=0
268910 On ch=1 n=66 v=0
268910 On ch=1 n=54 v=0
268920 On ch=1 n=73 v=100
268920 On ch=1 n=76 v=100
268920 On ch=1 n=64 v=100
268920 On ch=1 n=55 v=100
269030 On ch=1 n=73 v=0
269030 On ch=1 n=76 v=0
269030 On ch=1 n=64 v=0
269030 On ch=1 n=55 v=0
269030 On ch=1 n=50 v=0
269040 On ch=1 n=76 v=100
269040 On ch=1 n=79 v=100
269040 On ch=1 n=67 v=100
269040 On ch=1 n=62 v=100
269040 On ch=1 n=50 v=100
269070 On ch=1 n=62 v=0
269080 On ch=1 n=61 v=100
269110 On ch=1 n=61 v=0
269120 On ch=1 n=59 v=100
269150 On ch=1 n=76 v=0
269150 On ch=1 n=79 v=0
269150 On ch=1 n=67 v=0
269150 On ch=1 n=59 v=0
269160 On ch=1 n=73 v=100
269160 On ch=1 n=76 v=100
269160 On ch=1 n=64 v=100
269160 On ch=1 n=61 v=100
269270 On ch=1 n=73 v=0
269270 On ch=1 n=76 v=0
269270 On ch=1 n=64 v=0
269270 On ch=1 n=61 v=0
269270 On ch=1 n=50 v=0
269280 On ch=1 n=73 v=100
269280 On ch=1 n=76 v=100
269280 On ch=1 n=67 v=100
269280 On ch=1 n=64 v=100
269280 On ch=1 n=50 v=100
269310 On ch=1 n=64 v=0
269320 On ch=1 n=62 v=100
269350 On ch=1 n=62 v=0
269360 On ch=1 n=61 v=100
269390 On ch=1 n=73 v=0
269390 On ch=1 n=76 v=0
269390 On ch=1 n=67 v=0
269390 On ch=1 n=61 v=0
269400 On ch=1 n=69 v=100
269400 On ch=1 n=74 v=100
269400 On ch=1 n=66 v=100
269400 On ch=1 n=64 v=100
269510 On ch=1 n=69 v=0
269510 On ch=1 n=74 v=0
269510 On ch=1 n=66 v=0
269510 On ch=1 n=64 v=0
269510 On ch=1 n=50 v=0
269520 On ch=1 n=67 v=100
269520 On ch=1 n=73 v=100
269520 On ch=1 n=64 v=100
269520 On ch=1 n=59 v=100
269520 On ch=1 n=50 v=100
269550 On ch=1 n=59 v=0
269560 On ch=1 n=57 v=100
269590 On ch=1 n=57 v=0
269600 On ch=1 n=56 v=100
269630 On ch=1 n=67 v=0
269630 On ch=1 n=73 v=0
269630 On ch=1 n=64 v=0
269630 On ch=1 n=56 v=0
269640 On ch=1 n=69 v=100
269640 On ch=1 n=74 v=100
269640 On ch=1 n=66 v=100
269640 On ch=1 n=57 v=100
269750 On ch=1 n=69 v=0
269750 On ch=1 n=74 v=0
269750 On ch=1 n=66 v=0
269750 On ch=1 n=57 v=0
269750 On ch=1 n=50 v=0
269760 On ch=1 n=78 v=100
269760 On ch=1 n=66 v=100
269760 On ch=1 n=62 v=100
269760 On ch=1 n=50 v=100
269870 On ch=1 n=78 v=0
269870 On ch=1 n=66 v=0
269870 On ch=1 n=62 v=0
269880 On ch=1 n=76 v=100
269880 On ch=1 n=67 v=100
269880 On ch=1 n=64 v=100
269990 On ch=1 n=76 v=0
270000 On ch=1 n=79 v=100
270110 On ch=1 n=79 v=0
270110 On ch=1 n=67 v=0
270110 On ch=1 n=64 v=0
270110 On ch=1 n=50 v=0
270120 On ch=1 n=78 v=100
270120 On ch=1 n=69 v=100
270120 On ch=1 n=66 v=100
270120 On ch=1 n=62 v=100
270230 On ch=1 n=78 v=0
270230 On ch=1 n=69 v=0
270230 On ch=1 n=66 v=0
270230 On ch=1 n=62 v=0
270240 On ch=1 n=74 v=100
270240 On ch=1 n=78 v=100
270240 On ch=1 n=69 v=100
270240 On ch=1 n=66 v=100
270240 On ch=1 n=62 v=100
270350 On ch=1 n=74 v=0
270350 On ch=1 n=78 v=0
270350 On ch=1 n=69 v=0
270350 On ch=1 n=66 v=0
270350 On ch=1 n=62 v=0
270360 On ch=1 n=69 v=100
270360 On ch=1 n=73 v=100
270360 On ch=1 n=76 v=100
270360 On ch=1 n=67 v=100
270360 On ch=1 n=61 v=100
270360 On ch=1 n=64 v=100
270360 On ch=1 n=57 v=100
270590 On ch=1 n=69 v=0
270590 On ch=1 n=73 v=0
270590 On ch=1 n=76 v=0
270590 On ch=1 n=67 v=0
270590 On ch=1 n=61 v=0
270590 On ch=1 n=64 v=0
270590 On ch=1 n=57 v=0
270600 On ch=1 n=69 v=100
270600 On ch=1 n=74 v=100
270600 On ch=1 n=66 v=100
270600 On ch=1 n=57 v=100
270600 On ch=1 n=62 v=100
270600 On ch=1 n=50 v=100
270710 On ch=1 n=69 v=0
270710 On ch=1 n=74 v=0
270710 On ch=1 n=66 v=0
270710 On ch=1 n=57 v=0
270710 On ch=1 n=62 v=0
270710 On ch=1 n=50 v=0
270720 On ch=1 n=69 v=100
270720 On ch=1 n=74 v=100
270720 On ch=1 n=66 v=100
270720 On ch=1 n=57 v=100
270720 On ch=1 n=62 v=100
270720 On ch=1 n=50 v=100
270950 On ch=1 n=69 v=0
270950 On ch=1 n=74 v=0
270950 On ch=1 n=66 v=0
270950 On ch=1 n=57 v=0
270950 On ch=1 n=62 v=0
270950 On ch=1 n=50 v=0
270960 On ch=1 n=69 v=100
270960 On ch=1 n=79 v=100
270960 On ch=1 n=57 v=100
270960 On ch=1 n=67 v=100
270960 On ch=1 n=64 v=100
270990 On ch=1 n=79 v=0
271000 On ch=1 n=78 v=100
271030 On ch=1 n=78 v=0
271040 On ch=1 n=76 v=100
271070 On ch=1 n=69 v=0
271070 On ch=1 n=76 v=0
271070 On ch=1 n=67 v=0
271070 On ch=1 n=64 v=0
271080 On ch=1 n=78 v=100
271080 On ch=1 n=66 v=100
271080 On ch=1 n=62 v=100
271130 On ch=1 n=57 v=0
271140 On ch=1 n=45 v=100
271190 On ch=1 n=78 v=0
271190 On ch=1 n=66 v=0
271190 On ch=1 n=45 v=0
271190 On ch=1 n=62 v=0
271200 On ch=1 n=78 v=100
271200 On ch=1 n=69 v=100
271200 On ch=1 n=66 v=100
271200 On ch=1 n=62 v=100
271200 On ch=1 n=57 v=100
271230 On ch=1 n=78 v=0
271240 On ch=1 n=76 v=100
271270 On ch=1 n=76 v=0
271280 On ch=1 n=74 v=100
271310 On ch=1 n=74 v=0
271310 On ch=1 n=69 v=0
271310 On ch=1 n=66 v=0
271310 On ch=1 n=62 v=0
271320 On ch=1 n=76 v=100
271320 On ch=1 n=64 v=100
271320 On ch=1 n=61 v=100
271430 On ch=1 n=76 v=0
271430 On ch=1 n=64 v=0
271430 On ch=1 n=61 v=0
271430 On ch=1 n=57 v=0
271440 On ch=1 n=90 v=100
271440 On ch=1 n=81 v=100
271440 On ch=1 n=62 v=100
271440 On ch=1 n=59 v=100
271440 On ch=1 n=57 v=100
271470 On ch=1 n=90 v=0
271480 On ch=1 n=88 v=100
271510 On ch=1 n=88 v=0
271520 On ch=1 n=86 v=100
271550 On ch=1 n=86 v=0
271550 On ch=1 n=81 v=0
271550 On ch=1 n=62 v=0
271550 On ch=1 n=59 v=0
271560 On ch=1 n=88 v=100
271560 On ch=1 n=64 v=100
271560 On ch=1 n=61 v=100
271670 On ch=1 n=88 v=0
271670 On ch=1 n=64 v=0
271670 On ch=1 n=61 v=0
271670 On ch=1 n=57 v=0
271680 On ch=1 n=79 v=100
271680 On ch=1 n=69 v=100
271680 On ch=1 n=67 v=100
271680 On ch=1 n=64 v=100
271680 On ch=1 n=57 v=100
271710 On ch=1 n=79 v=0
271720 On ch=1 n=78 v=100
271750 On ch=1 n=78 v=0
271760 On ch=1 n=76 v=100
271790 On ch=1 n=76 v=0
271790 On ch=1 n=69 v=0
271790 On ch=1 n=67 v=0
271790 On ch=1 n=64 v=0
271800 On ch=1 n=78 v=100
271800 On ch=1 n=66 v=100
271800 On ch=1 n=62 v=100
271910 On ch=1 n=78 v=0
271910 On ch=1 n=66 v=0
271910 On ch=1 n=62 v=0
271910 On ch=1 n=57 v=0
271920 On ch=1 n=91 v=100
271920 On ch=1 n=81 v=100
271920 On ch=1 n=64 v=100
271920 On ch=1 n=57 v=100
271950 On ch=1 n=91 v=0
271960 On ch=1 n=90 v=100
271990 On ch=1 n=90 v=0
272000 On ch=1 n=88 v=100
272030 On ch=1 n=88 v=0
272030 On ch=1 n=81 v=0
272030 On ch=1 n=64 v=0
272040 On ch=1 n=90 v=100
272040 On ch=1 n=62 v=100
272090 On ch=1 n=57 v=0
272100 On ch=1 n=45 v=100
272150 On ch=1 n=90 v=0
272150 On ch=1 n=62 v=0
272150 On ch=1 n=45 v=0
272160 On ch=1 n=78 v=100
272160 On ch=1 n=69 v=100
272160 On ch=1 n=66 v=100
272160 On ch=1 n=62 v=100
272160 On ch=1 n=57 v=100
272190 On ch=1 n=78 v=0
272200 On ch=1 n=76 v=100
272230 On ch=1 n=76 v=0
272240 On ch=1 n=74 v=100
272270 On ch=1 n=74 v=0
272270 On ch=1 n=69 v=0
272270 On ch=1 n=66 v=0
272270 On ch=1 n=62 v=0
272280 On ch=1 n=76 v=100
272280 On ch=1 n=64 v=100
272280 On ch=1 n=61 v=100
272390 On ch=1 n=76 v=0
272390 On ch=1 n=64 v=0
272390 On ch=1 n=61 v=0
272390 On ch=1 n=57 v=0
272400 On ch=1 n=90 v=100
272400 On ch=1 n=81 v=100
272400 On ch=1 n=62 v=100
272400 On ch=1 n=59 v=100
272400 On ch=1 n=57 v=100
272430 On ch=1 n=90 v=0
272440 On ch=1 n=88 v=100
272470 On ch=1 n=88 v=0
272480 On ch=1 n=86 v=100
272510 On ch=1 n=86 v=0
272510 On ch=1 n=81 v=0
272510 On ch=1 n=62 v=0
272510 On ch=1 n=59 v=0
272520 On ch=1 n=88 v=100
272520 On ch=1 n=64 v=100
272520 On ch=1 n=61 v=100
272630 On ch=1 n=88 v=0
272630 On ch=1 n=64 v=0
272630 On ch=1 n=61 v=0
272630 On ch=1 n=57 v=0
272640 On ch=1 n=79 v=100
272640 On ch=1 n=69 v=100
272640 On ch=1 n=67 v=100
272640 On ch=1 n=64 v=100
272640 On ch=1 n=57 v=100
272670 On ch=1 n=79 v=0
272680 On ch=1 n=78 v=100
272710 On ch=1 n=78 v=0
272720 On ch=1 n=76 v=100
272750 On ch=1 n=76 v=0
272750 On ch=1 n=69 v=0
272750 On ch=1 n=67 v=0
272750 On ch=1 n=64 v=0
272760 On ch=1 n=78 v=100
272760 On ch=1 n=66 v=100
272760 On ch=1 n=62 v=100
272870 On ch=1 n=78 v=0
272870 On ch=1 n=66 v=0
272870 On ch=1 n=62 v=0
272870 On ch=1 n=57 v=0
272880 On ch=1 n=91 v=100
272880 On ch=1 n=81 v=100
272880 On ch=1 n=64 v=100
272880 On ch=1 n=57 v=100
272910 On ch=1 n=91 v=0
272920 On ch=1 n=90 v=100
272950 On ch=1 n=90 v=0
272960 On ch=1 n=88 v=100
272990 On ch=1 n=88 v=0
272990 On ch=1 n=81 v=0
272990 On ch=1 n=64 v=0
273000 On ch=1 n=90 v=100
273000 On ch=1 n=62 v=100
273110 On ch=1 n=90 v=0
273110 On ch=1 n=62 v=0
273110 On ch=1 n=57 v=0
273120 On ch=1 n=78 v=100
273120 On ch=1 n=69 v=100
273120 On ch=1 n=66 v=100
273120 On ch=1 n=62 v=100
273120 On ch=1 n=57 v=100
273150 On ch=1 n=78 v=0
273160 On ch=1 n=76 v=100
273190 On ch=1 n=76 v=0
273200 On ch=1 n=74 v=100
273230 On ch=1 n=74 v=0
273230 On ch=1 n=69 v=0
273230 On ch=1 n=66 v=0
273230 On ch=1 n=62 v=0
273240 On ch=1 n=76 v=100
273240 On ch=1 n=64 v=100
273240 On ch=1 n=61 v=100
273350 On ch=1 n=76 v=0
273350 On ch=1 n=64 v=0
273350 On ch=1 n=61 v=0
273350 On ch=1 n=57 v=0
273360 On ch=1 n=90 v=100
273360 On ch=1 n=81 v=100
273360 On ch=1 n=62 v=100
273360 On ch=1 n=59 v=100
273360 On ch=1 n=57 v=100
273390 On ch=1 n=90 v=0
273400 On ch=1 n=88 v=100
273430 On ch=1 n=88 v=0
273440 On ch=1 n=86 v=100
273470 On ch=1 n=86 v=0
273470 On ch=1 n=81 v=0
273470 On ch=1 n=62 v=0
273470 On ch=1 n=59 v=0
273480 On ch=1 n=88 v=100
273480 On ch=1 n=64 v=100
273480 On ch=1 n=61 v=100
273590 On ch=1 n=88 v=0
273590 On ch=1 n=64 v=0
273590 On ch=1 n=61 v=0
273590 On ch=1 n=57 v=0
273600 On ch=1 n=79 v=100
273600 On ch=1 n=69 v=100
273600 On ch=1 n=67 v=100
273600 On ch=1 n=64 v=100
273600 On ch=1 n=57 v=100
273630 On ch=1 n=79 v=0
273640 On ch=1 n=78 v=100
273670 On ch=1 n=78 v=0
273680 On ch=1 n=76 v=100
273710 On ch=1 n=76 v=0
273710 On ch=1 n=69 v=0
273710 On ch=1 n=67 v=0
273710 On ch=1 n=64 v=0
273720 On ch=1 n=78 v=100
273720 On ch=1 n=66 v=100
273720 On ch=1 n=62 v=100
273830 On ch=1 n=78 v=0
273830 On ch=1 n=66 v=0
273830 On ch=1 n=62 v=0
273830 On ch=1 n=57 v=0
273840 On ch=1 n=91 v=100
273840 On ch=1 n=81 v=100
273840 On ch=1 n=66 v=100
273840 On ch=1 n=62 v=100
273840 On ch=1 n=57 v=100
273870 On ch=1 n=91 v=0
273880 On ch=1 n=90 v=100
273910 On ch=1 n=90 v=0
273920 On ch=1 n=88 v=100
273950 On ch=1 n=88 v=0
273950 On ch=1 n=81 v=0
273950 On ch=1 n=66 v=0
273950 On ch=1 n=62 v=0
273960 On ch=1 n=90 v=100
273960 On ch=1 n=64 v=100
273960 On ch=1 n=61 v=100
274070 On ch=1 n=90 v=0
274070 On ch=1 n=64 v=0
274070 On ch=1 n=61 v=0
274070 On ch=1 n=57 v=0
274080 On ch=1 n=76 v=100
274080 On ch=1 n=66 v=100
274080 On ch=1 n=64 v=100
274080 On ch=1 n=61 v=100
274080 On ch=1 n=57 v=100
274110 On ch=1 n=76 v=0
274120 On ch=1 n=74 v=100
274150 On ch=1 n=74 v=0
274160 On ch=1 n=73 v=100
274190 On ch=1 n=73 v=0
274190 On ch=1 n=66 v=0
274190 On ch=1 n=64 v=0
274190 On ch=1 n=61 v=0
274200 On ch=1 n=74 v=100
274200 On ch=1 n=62 v=100
274200 On ch=1 n=59 v=100
274310 On ch=1 n=74 v=0
274310 On ch=1 n=62 v=0
274310 On ch=1 n=59 v=0
274310 On ch=1 n=57 v=0
274320 On ch=1 n=88 v=100
274320 On ch=1 n=76 v=100
274320 On ch=1 n=62 v=100
274320 On ch=1 n=59 v=100
274320 On ch=1 n=68 v=100
274320 On ch=1 n=57 v=100
274350 On ch=1 n=88 v=0
274360 On ch=1 n=86 v=100
274390 On ch=1 n=86 v=0
274400 On ch=1 n=85 v=100
274430 On ch=1 n=85 v=0
274430 On ch=1 n=76 v=0
274430 On ch=1 n=62 v=0
274440 On ch=1 n=86 v=100
274440 On ch=1 n=64 v=100
274550 On ch=1 n=86 v=0
274550 On ch=1 n=64 v=0
274550 On ch=1 n=59 v=0
274550 On ch=1 n=68 v=0
274550 On ch=1 n=57 v=0
274560 On ch=1 n=78 v=100
274560 On ch=1 n=69 v=100
274560 On ch=1 n=61 v=100
274560 On ch=1 n=57 v=100
274590 On ch=1 n=78 v=0
274600 On ch=1 n=76 v=100
274630 On ch=1 n=76 v=0
274640 On ch=1 n=74 v=100
274670 On ch=1 n=74 v=0
274670 On ch=1 n=69 v=0
274680 On ch=1 n=76 v=100
274680 On ch=1 n=67 v=100
274790 On ch=1 n=76 v=0
274790 On ch=1 n=67 v=0
274790 On ch=1 n=61 v=0
274790 On ch=1 n=57 v=0
274800 On ch=1 n=83 v=100
274800 On ch=1 n=78 v=100
274800 On ch=1 n=74 v=100
274800 On ch=1 n=57 v=100
274800 On ch=1 n=62 v=100
274800 On ch=1 n=66 v=100
274800 On ch=1 n=50 v=100
274830 On ch=1 n=83 v=0
274840 On ch=1 n=81 v=100
274870 On ch=1 n=81 v=0
274880 On ch=1 n=80 v=100
274901 Par ch=1 c=64 v=127
274910 On ch=1 n=80 v=0
274910 On ch=1 n=78 v=0
274910 On ch=1 n=74 v=0
274920 On ch=1 n=81 v=100
275030 On ch=1 n=81 v=0
275040 On ch=1 n=79 v=100
275040 On ch=1 n=69 v=100
275070 On ch=1 n=79 v=0
275080 On ch=1 n=78 v=100
275110 On ch=1 n=78 v=0
275120 On ch=1 n=76 v=100
275150 On ch=1 n=76 v=0
275150 On ch=1 n=69 v=0
275160 On ch=1 n=78 v=100
275160 On ch=1 n=67 v=100
275160 On ch=1 n=64 v=100
275270 On ch=1 n=78 v=0
275270 On ch=1 n=67 v=0
275270 On ch=1 n=64 v=0
275270 On ch=1 n=57 v=0
275270 On ch=1 n=62 v=0
275270 On ch=1 n=66 v=0
275270 On ch=1 n=50 v=0
275280 On ch=1 n=91 v=100
275280 On ch=1 n=81 v=100
275280 On ch=1 n=64 v=100
275280 On ch=1 n=61 v=100
275310 On ch=1 n=91 v=0
275316 Par ch=1 c=64 v=0
275320 On ch=1 n=90 v=100
275350 On ch=1 n=90 v=0
275360 On ch=1 n=88 v=100
275390 On ch=1 n=88 v=0
275390 On ch=1 n=81 v=0
275390 On ch=1 n=64 v=0
275390 On ch=1 n=61 v=0
275400 On ch=1 n=90 v=100
275400 On ch=1 n=66 v=100
275400 On ch=1 n=62 v=100
275510 On ch=1 n=90 v=0
275510 On ch=1 n=66 v=0
275510 On ch=1 n=62 v=0
275520 On ch=1 n=88 v=100
275520 On ch=1 n=74 v=100
275520 On ch=1 n=67 v=100
275520 On ch=1 n=64 v=100
275550 On ch=1 n=88 v=0
275560 On ch=1 n=86 v=100
275590 On ch=1 n=86 v=0
275600 On ch=1 n=85 v=100
275630 On ch=1 n=85 v=0
275630 On ch=1 n=74 v=0
275630 On ch=1 n=67 v=0
275630 On ch=1 n=64 v=0
275640 On ch=1 n=86 v=100
275640 On ch=1 n=69 v=100
275640 On ch=1 n=66 v=100
275750 On ch=1 n=86 v=0
275750 On ch=1 n=69 v=0
275750 On ch=1 n=66 v=0
275760 On ch=1 n=100 v=100
275760 On ch=1 n=86 v=100
275760 On ch=1 n=71 v=100
275760 On ch=1 n=67 v=100
275760 On ch=1 n=62 v=100
275790 On ch=1 n=100 v=0
275800 On ch=1 n=98 v=100
275830 On ch=1 n=98 v=0
275840 On ch=1 n=97 v=100
275870 On ch=1 n=97 v=0
275870 On ch=1 n=86 v=0
275870 On ch=1 n=71 v=0
275870 On ch=1 n=67 v=0
275880 On ch=1 n=98 v=100
275880 On ch=1 n=69 v=100
275880 On ch=1 n=66 v=100
275990 On ch=1 n=98 v=0
275990 On ch=1 n=69 v=0
275990 On ch=1 n=66 v=0
275990 On ch=1 n=62 v=0
276000 On ch=1 n=84 v=100
276000 On ch=1 n=74 v=100
276000 On ch=1 n=69 v=100
276000 On ch=1 n=57 v=100
276030 On ch=1 n=84 v=0
276040 On ch=1 n=83 v=100
276070 On ch=1 n=83 v=0
276080 On ch=1 n=81 v=100
276110 On ch=1 n=81 v=0
276110 On ch=1 n=74 v=0
276110 On ch=1 n=69 v=0
276110 On ch=1 n=57 v=0
276120 On ch=1 n=83 v=100
276120 On ch=1 n=67 v=100
276120 On ch=1 n=55 v=100
276230 On ch=1 n=83 v=0
276230 On ch=1 n=67 v=0
276230 On ch=1 n=55 v=0
276240 On ch=1 n=96 v=100
276240 On ch=1 n=86 v=100
276240 On ch=1 n=71 v=100
276240 On ch=1 n=59 v=100
276270 On ch=1 n=96 v=0
276280 On ch=1 n=95 v=100
276310 On ch=1 n=95 v=0
276320 On ch=1 n=93 v=100
276350 On ch=1 n=93 v=0
276350 On ch=1 n=86 v=0
276350 On ch=1 n=71 v=0
276350 On ch=1 n=59 v=0
276360 On ch=1 n=95 v=100
276360 On ch=1 n=67 v=100
276360 On ch=1 n=55 v=100
276470 On ch=1 n=95 v=0
276470 On ch=1 n=67 v=0
276470 On ch=1 n=55 v=0
276480 On ch=1 n=81 v=100
276480 On ch=1 n=73 v=100
276480 On ch=1 n=69 v=100
276480 On ch=1 n=66 v=100
276480 On ch=1 n=54 v=100
276510 On ch=1 n=81 v=0
276520 On ch=1 n=79 v=100
276550 On ch=1 n=79 v=0
276560 On ch=1 n=78 v=100
276590 On ch=1 n=78 v=0
276590 On ch=1 n=73 v=0
276590 On ch=1 n=69 v=0
276590 On ch=1 n=66 v=0
276590 On ch=1 n=54 v=0
276600 On ch=1 n=79 v=100
276600 On ch=1 n=64 v=100
276600 On ch=1 n=52 v=100
276710 On ch=1 n=79 v=0
276710 On ch=1 n=64 v=0
276710 On ch=1 n=52 v=0
276720 On ch=1 n=93 v=100
276720 On ch=1 n=85 v=100
276720 On ch=1 n=81 v=100
276720 On ch=1 n=67 v=100
276720 On ch=1 n=55 v=100
276750 On ch=1 n=93 v=0
276760 On ch=1 n=91 v=100
276790 On ch=1 n=91 v=0
276800 On ch=1 n=90 v=100
276830 On ch=1 n=90 v=0
276830 On ch=1 n=85 v=0
276830 On ch=1 n=81 v=0
276830 On ch=1 n=67 v=0
276830 On ch=1 n=55 v=0
276840 On ch=1 n=91 v=100
276840 On ch=1 n=64 v=100
276840 On ch=1 n=52 v=100
276950 On ch=1 n=91 v=0
276950 On ch=1 n=64 v=0
276950 On ch=1 n=52 v=0
276960 On ch=1 n=79 v=100
276960 On ch=1 n=69 v=100
276960 On ch=1 n=64 v=100
276960 On ch=1 n=52 v=100
276990 On ch=1 n=79 v=0
277000 On ch=1 n=78 v=100
277030 On ch=1 n=78 v=0
277040 On ch=1 n=76 v=100
277070 On ch=1 n=76 v=0
277070 On ch=1 n=69 v=0
277070 On ch=1 n=64 v=0
277070 On ch=1 n=52 v=0
277080 On ch=1 n=78 v=100
277080 On ch=1 n=62 v=100
277080 On ch=1 n=50 v=100
277190 On ch=1 n=78 v=0
277190 On ch=1 n=62 v=0
277190 On ch=1 n=50 v=0
277200 On ch=1 n=91 v=100
277200 On ch=1 n=81 v=100
277200 On ch=1 n=61 v=100
277200 On ch=1 n=49 v=100
277230 On ch=1 n=91 v=0
277240 On ch=1 n=90 v=100
277270 On ch=1 n=90 v=0
277280 On ch=1 n=88 v=100
277310 On ch=1 n=88 v=0
277310 On ch=1 n=81 v=0
277310 On ch=1 n=61 v=0
277310 On ch=1 n=49 v=0
277320 On ch=1 n=90 v=100
277320 On ch=1 n=62 v=100
277320 On ch=1 n=50 v=100
277430 On ch=1 n=90 v=0
277430 On ch=1 n=62 v=0
277430 On ch=1 n=50 v=0
277440 On ch=1 n=74 v=100
277440 On ch=1 n=78 v=100
277440 On ch=1 n=66 v=100
277440 On ch=1 n=57 v=100
277440 On ch=1 n=50 v=100
277440 On ch=1 n=62 v=100
277550 On ch=1 n=74 v=0
277550 On ch=1 n=78 v=0
277550 On ch=1 n=66 v=0
277550 On ch=1 n=62 v=0
277560 On ch=1 n=73 v=100
277560 On ch=1 n=76 v=100
277560 On ch=1 n=64 v=100
277560 On ch=1 n=61 v=100
277670 On ch=1 n=73 v=0
277670 On ch=1 n=76 v=0
277670 On ch=1 n=64 v=0
277670 On ch=1 n=57 v=0
277670 On ch=1 n=50 v=0
277670 On ch=1 n=61 v=0
277680 On ch=1 n=76 v=127
277680 On ch=1 n=79 v=127
277680 On ch=1 n=67 v=127
277680 On ch=1 n=64 v=127
277790 On ch=1 n=76 v=0
277790 On ch=1 n=79 v=0
277790 On ch=1 n=67 v=0
277790 On ch=1 n=64 v=0
277800 On ch=1 n=74 v=127
277800 On ch=1 n=78 v=127
277800 On ch=1 n=66 v=127
277800 On ch=1 n=62 v=127
277910 On ch=1 n=74 v=0
277910 On ch=1 n=78 v=0
277910 On ch=1 n=66 v=0
277910 On ch=1 n=62 v=0
277920 On ch=1 n=74 v=127
277920 On ch=1 n=78 v=127
277920 On ch=1 n=69 v=127
277920 On ch=1 n=66 v=127
277920 On ch=1 n=62 v=127
278030 On ch=1 n=74 v=0
278030 On ch=1 n=78 v=0
278030 On ch=1 n=69 v=0
278030 On ch=1 n=66 v=0
278030 On ch=1 n=62 v=0
278040 On ch=1 n=69 v=127
278040 On ch=1 n=73 v=127
278040 On ch=1 n=76 v=127
278040 On ch=1 n=67 v=127
278040 On ch=1 n=61 v=127
278040 On ch=1 n=64 v=127
278040 On ch=1 n=57 v=127
278270 On ch=1 n=69 v=0
278270 On ch=1 n=73 v=0
278270 On ch=1 n=76 v=0
278270 On ch=1 n=67 v=0
278270 On ch=1 n=61 v=0
278270 On ch=1 n=64 v=0
278270 On ch=1 n=57 v=0
278280 On ch=1 n=69 v=127
278280 On ch=1 n=74 v=127
278280 On ch=1 n=66 v=127
278280 On ch=1 n=57 v=127
278280 On ch=1 n=62 v=127
278280 On ch=1 n=50 v=127
278390 On ch=1 n=69 v=0
278390 On ch=1 n=74 v=0
278390 On ch=1 n=66 v=0
278390 On ch=1 n=57 v=0
278390 On ch=1 n=62 v=0
278390 On ch=1 n=50 v=0
278400 On ch=1 n=69 v=127
278400 On ch=1 n=74 v=127
278400 On ch=1 n=66 v=127
278400 On ch=1 n=57 v=127
278400 On ch=1 n=62 v=127
278400 On ch=1 n=50 v=127
278510 On ch=1 n=69 v=0
278510 On ch=1 n=74 v=0
278510 On ch=1 n=66 v=0
278510 On ch=1 n=57 v=0
278510 On ch=1 n=62 v=0
278510 On ch=1 n=50 v=0
278520 On ch=1 n=50 v=127
278570 On ch=1 n=50 v=0
278580 On ch=1 n=49 v=127
278630 On ch=1 n=49 v=0
278640 On ch=1 n=78 v=127
278640 On ch=1 n=81 v=127
278640 On ch=1 n=69 v=127
278640 On ch=1 n=50 v=127
278640 On ch=1 n=38 v=127
278690 On ch=1 n=50 v=0
278700 On ch=1 n=52 v=127
278750 On ch=1 n=52 v=0
278760 On ch=1 n=54 v=127
278810 On ch=1 n=54 v=0
278820 On ch=1 n=55 v=127
278858 Par ch=1 c=64 v=127
278870 On ch=1 n=78 v=0
278870 On ch=1 n=81 v=0
278870 On ch=1 n=69 v=0
278870 On ch=1 n=55 v=0
278870 On ch=1 n=38 v=0
278880 On ch=1 n=76 v=127
278880 On ch=1 n=79 v=127
278880 On ch=1 n=67 v=127
278880 On ch=1 n=57 v=127
278880 On ch=1 n=50 v=127
279230 On ch=1 n=76 v=0
279230 On ch=1 n=79 v=0
279230 On ch=1 n=67 v=0
279240 On ch=1 n=74 v=127
279240 On ch=1 n=78 v=127
279240 On ch=1 n=66 v=127
279265 Par ch=1 c=64 v=0
279290 On ch=1 n=57 v=0
279290 On ch=1 n=50 v=0
279300 On ch=1 n=38 v=127
279350 On ch=1 n=74 v=0
279350 On ch=1 n=78 v=0
279350 On ch=1 n=66 v=0
279350 On ch=1 n=38 v=0
279360 On ch=1 n=74 v=127
279360 On ch=1 n=78 v=127
279360 On ch=1 n=66 v=127
279360 On ch=1 n=57 v=127
279360 On ch=1 n=50 v=127
279483 Par ch=1 c=64 v=127
279590 On ch=1 n=74 v=0
279590 On ch=1 n=78 v=0
279590 On ch=1 n=66 v=0
279600 On ch=1 n=86 v=127
279600 On ch=1 n=74 v=127
279788 Par ch=1 c=64 v=0
279830 On ch=1 n=86 v=0
279830 On ch=1 n=74 v=0
279830 On ch=1 n=57 v=0
279830 On ch=1 n=50 v=0
279840 On ch=1 n=81 v=127
279840 On ch=1 n=84 v=127
279840 On ch=1 n=72 v=127
279840 On ch=1 n=50 v=127
279840 On ch=1 n=55 v=127
279840 On ch=1 n=62 v=127
279840 On ch=1 n=43 v=127
279867 Par ch=1 c=64 v=127
280190 On ch=1 n=81 v=0
280190 On ch=1 n=84 v=0
280190 On ch=1 n=72 v=0
280200 On ch=1 n=79 v=127
280200 On ch=1 n=83 v=127
280200 On ch=1 n=71 v=127
280260 Par ch=1 c=64 v=0
280310 On ch=1 n=79 v=0
280310 On ch=1 n=83 v=0
280310 On ch=1 n=71 v=0
280310 On ch=1 n=50 v=0
280310 On ch=1 n=55 v=0
280310 On ch=1 n=62 v=0
280310 On ch=1 n=43 v=0
280320 On ch=1 n=79 v=127
280320 On ch=1 n=83 v=127
280320 On ch=1 n=71 v=127
280320 On ch=1 n=50 v=127
280320 On ch=1 n=55 v=127
280320 On ch=1 n=62 v=127
280320 On ch=1 n=43 v=127
280439 Par ch=1 c=64 v=127
280550 On ch=1 n=79 v=0
280550 On ch=1 n=83 v=0
280550 On ch=1 n=71 v=0
280560 On ch=1 n=79 v=127
280560 On ch=1 n=91 v=127
280560 On ch=1 n=67 v=127
280670 On ch=1 n=79 v=0
280670 On ch=1 n=91 v=0
280670 On ch=1 n=67 v=0
280680 On ch=1 n=76 v=127
280680 On ch=1 n=88 v=127
280680 On ch=1 n=64 v=127
280770 Par ch=1 c=64 v=0
280790 On ch=1 n=76 v=0
280790 On ch=1 n=88 v=0
280790 On ch=1 n=64 v=0
280790 On ch=1 n=50 v=0
280790 On ch=1 n=55 v=0
280790 On ch=1 n=62 v=0
280790 On ch=1 n=43 v=0
280800 On ch=1 n=86 v=127
280800 On ch=1 n=74 v=127
280800 On ch=1 n=62 v=127
280800 On ch=1 n=52 v=127
280800 On ch=1 n=55 v=127
280800 On ch=1 n=45 v=127
280910 On ch=1 n=86 v=0
280910 On ch=1 n=74 v=0
280910 On ch=1 n=62 v=0
280920 On ch=1 n=85 v=127
280920 On ch=1 n=73 v=127
280920 On ch=1 n=61 v=127
281030 On ch=1 n=85 v=0
281030 On ch=1 n=73 v=0
281030 On ch=1 n=61 v=0
281040 On ch=1 n=88 v=127
281040 On ch=1 n=76 v=127
281040 On ch=1 n=64 v=127
281150 On ch=1 n=88 v=0
281150 On ch=1 n=76 v=0
281150 On ch=1 n=64 v=0
281160 On ch=1 n=85 v=127
281160 On ch=1 n=73 v=127
281160 On ch=1 n=61 v=127
281270 On ch=1 n=85 v=0
281270 On ch=1 n=73 v=0
281270 On ch=1 n=61 v=0
281270 On ch=1 n=52 v=0
281270 On ch=1 n=55 v=0
281270 On ch=1 n=45 v=0
281280 On ch=1 n=83 v=127
281280 On ch=1 n=71 v=127
281280 On ch=1 n=59 v=127
281280 On ch=1 n=52 v=127
281280 On ch=1 n=55 v=127
281280 On ch=1 n=45 v=127
281390 On ch=1 n=83 v=0
281390 On ch=1 n=71 v=0
281390 On ch=1 n=59 v=0
281400 On ch=1 n=81 v=127
281400 On ch=1 n=69 v=127
281400 On ch=1 n=57 v=127
281510 On ch=1 n=81 v=0
281510 On ch=1 n=69 v=0
281510 On ch=1 n=57 v=0
281520 On ch=1 n=83 v=127
281520 On ch=1 n=71 v=127
281520 On ch=1 n=59 v=127
281630 On ch=1 n=83 v=0
281630 On ch=1 n=71 v=0
281630 On ch=1 n=59 v=0
281640 On ch=1 n=85 v=127
281640 On ch=1 n=73 v=127
281640 On ch=1 n=61 v=127
281750 On ch=1 n=85 v=0
281750 On ch=1 n=73 v=0
281750 On ch=1 n=61 v=0
281750 On ch=1 n=52 v=0
281750 On ch=1 n=55 v=0
281750 On ch=1 n=45 v=0
281760 On ch=1 n=88 v=127
281760 On ch=1 n=76 v=127
281760 On ch=1 n=64 v=127
281760 On ch=1 n=54 v=127
281760 On ch=1 n=50 v=127
281870 On ch=1 n=88 v=0
281870 On ch=1 n=76 v=0
281870 On ch=1 n=64 v=0
281880 On ch=1 n=86 v=127
281880 On ch=1 n=74 v=127
281880 On ch=1 n=62 v=127
281990 On ch=1 n=86 v=0
281990 On ch=1 n=74 v=0
281990 On ch=1 n=62 v=0
282000 On ch=1 n=90 v=127
282000 On ch=1 n=78 v=127
282000 On ch=1 n=66 v=127
282110 On ch=1 n=90 v=0
282110 On ch=1 n=78 v=0
282110 On ch=1 n=66 v=0
282120 On ch=1 n=86 v=127
282120 On ch=1 n=74 v=127
282120 On ch=1 n=62 v=127
282230 On ch=1 n=86 v=0
282230 On ch=1 n=74 v=0
282230 On ch=1 n=62 v=0
282240 On ch=1 n=85 v=127
282240 On ch=1 n=73 v=127
282240 On ch=1 n=61 v=127
282350 On ch=1 n=85 v=0
282350 On ch=1 n=73 v=0
282350 On ch=1 n=61 v=0
282360 On ch=1 n=83 v=127
282360 On ch=1 n=71 v=127
282360 On ch=1 n=59 v=127
282470 On ch=1 n=83 v=0
282470 On ch=1 n=71 v=0
282470 On ch=1 n=59 v=0
282480 On ch=1 n=86 v=127
282480 On ch=1 n=74 v=127
282480 On ch=1 n=62 v=127
282590 On ch=1 n=86 v=0
282590 On ch=1 n=74 v=0
282590 On ch=1 n=62 v=0
282600 On ch=1 n=83 v=127
282600 On ch=1 n=71 v=127
282600 On ch=1 n=59 v=127
282710 On ch=1 n=83 v=0
282710 On ch=1 n=71 v=0
282710 On ch=1 n=59 v=0
282710 On ch=1 n=54 v=0
282710 On ch=1 n=50 v=0
282720 On ch=1 n=81 v=127
282720 On ch=1 n=69 v=127
282720 On ch=1 n=57 v=127
282720 On ch=1 n=59 v=127
282720 On ch=1 n=64 v=127
282720 On ch=1 n=52 v=127
282830 On ch=1 n=81 v=0
282830 On ch=1 n=69 v=0
282830 On ch=1 n=57 v=0
282840 On ch=1 n=80 v=127
282840 On ch=1 n=68 v=127
282840 On ch=1 n=56 v=127
282950 On ch=1 n=80 v=0
282950 On ch=1 n=68 v=0
282950 On ch=1 n=56 v=0
282960 On ch=1 n=83 v=127
282960 On ch=1 n=71 v=127
282960 On ch=1 n=59 v=127
283070 On ch=1 n=83 v=0
283070 On ch=1 n=71 v=0
283070 On ch=1 n=59 v=0
283070 On ch=1 n=59 v=0
283070 On ch=1 n=64 v=0
283070 On ch=1 n=52 v=0
283080 On ch=1 n=80 v=127
283080 On ch=1 n=68 v=127
283080 On ch=1 n=56 v=127
283140 On ch=1 n=40 v=127
283190 On ch=1 n=80 v=0
283190 On ch=1 n=68 v=0
283190 On ch=1 n=56 v=0
283190 On ch=1 n=40 v=0
283200 On ch=1 n=78 v=127
283200 On ch=1 n=66 v=127
283200 On ch=1 n=54 v=127
283200 On ch=1 n=56 v=127
283200 On ch=1 n=59 v=127
283200 On ch=1 n=52 v=127
283310 On ch=1 n=78 v=0
283310 On ch=1 n=66 v=0
283310 On ch=1 n=54 v=0
283320 On ch=1 n=76 v=127
283320 On ch=1 n=64 v=127
283320 On ch=1 n=52 v=127
283430 On ch=1 n=76 v=0
283430 On ch=1 n=64 v=0
283430 On ch=1 n=52 v=0
283440 On ch=1 n=78 v=127
283440 On ch=1 n=66 v=127
283440 On ch=1 n=54 v=127
283550 On ch=1 n=78 v=0
283550 On ch=1 n=66 v=0
283550 On ch=1 n=54 v=0
283560 On ch=1 n=80 v=127
283560 On ch=1 n=68 v=127
283560 On ch=1 n=56 v=127
283670 On ch=1 n=80 v=0
283670 On ch=1 n=68 v=0
283670 On ch=1 n=56 v=0
283670 On ch=1 n=56 v=0
283670 On ch=1 n=59 v=0
283670 On ch=1 n=52 v=0
283680 On ch=1 n=81 v=127
283680 On ch=1 n=69 v=127
283680 On ch=1 n=57 v=127
283680 On ch=1 n=45 v=127
283687 Par ch=1 c=64 v=127
283730 On ch=1 n=69 v=0
283730 On ch=1 n=57 v=0
283730 On ch=1 n=45 v=0
283740 On ch=1 n=71 v=127
283740 On ch=1 n=59 v=127
283790 On ch=1 n=71 v=0
283790 On ch=1 n=59 v=0
283800 On ch=1 n=69 v=127
283800 On ch=1 n=57 v=127
283850 On ch=1 n=69 v=0
283850 On ch=1 n=57 v=0
283860 On ch=1 n=68 v=127
283860 On ch=1 n=56 v=127
283910 On ch=1 n=68 v=0
283910 On ch=1 n=56 v=0
283920 On ch=1 n=66 v=127
283920 On ch=1 n=54 v=127
283970 On ch=1 n=66 v=0
283970 On ch=1 n=54 v=0
283980 On ch=1 n=68 v=127
283980 On ch=1 n=56 v=127
284030 On ch=1 n=68 v=0
284030 On ch=1 n=56 v=0
284040 On ch=1 n=66 v=127
284040 On ch=1 n=54 v=127
284090 On ch=1 n=66 v=0
284090 On ch=1 n=54 v=0
284100 On ch=1 n=64 v=127
284100 On ch=1 n=52 v=127
284150 On ch=1 n=64 v=0
284150 On ch=1 n=52 v=0
284160 On ch=1 n=62 v=127
284160 On ch=1 n=50 v=127
284210 On ch=1 n=62 v=0
284210 On ch=1 n=50 v=0
284220 On ch=1 n=64 v=127
284220 On ch=1 n=52 v=127
284270 On ch=1 n=64 v=0
284270 On ch=1 n=52 v=0
284280 On ch=1 n=62 v=127
284280 On ch=1 n=50 v=127
284330 On ch=1 n=62 v=0
284330 On ch=1 n=50 v=0
284340 On ch=1 n=61 v=127
284340 On ch=1 n=49 v=127
284390 On ch=1 n=61 v=0
284390 On ch=1 n=49 v=0
284400 On ch=1 n=59 v=127
284400 On ch=1 n=47 v=127
284450 On ch=1 n=59 v=0
284450 On ch=1 n=47 v=0
284460 On ch=1 n=61 v=127
284460 On ch=1 n=49 v=127
284510 On ch=1 n=61 v=0
284510 On ch=1 n=49 v=0
284520 On ch=1 n=59 v=127
284520 On ch=1 n=47 v=127
284570 On ch=1 n=59 v=0
284570 On ch=1 n=47 v=0
284575 Par ch=1 c=64 v=0
284580 On ch=1 n=57 v=127
284580 On ch=1 n=45 v=127
284630 On ch=1 n=57 v=0
284630 On ch=1 n=45 v=0
284640 On ch=1 n=52 v=127
284640 On ch=1 n=40 v=127
284644 Par ch=1 c=64 v=127
284750 On ch=1 n=81 v=0
284760 On ch=1 n=80 v=127
284760 On ch=1 n=68 v=127
284870 On ch=1 n=80 v=0
284870 On ch=1 n=68 v=0
284880 On ch=1 n=83 v=127
284880 On ch=1 n=71 v=127
284990 On ch=1 n=83 v=0
284990 On ch=1 n=71 v=0
285000 On ch=1 n=80 v=127
285000 On ch=1 n=68 v=127
285110 On ch=1 n=52 v=0
285110 On ch=1 n=40 v=0
285110 On ch=1 n=80 v=0
285110 On ch=1 n=68 v=0
285120 On ch=1 n=78 v=127
285120 On ch=1 n=66 v=127
285120 On ch=1 n=56 v=127
285120 On ch=1 n=59 v=127
285120 On ch=1 n=52 v=127
285230 On ch=1 n=78 v=0
285230 On ch=1 n=66 v=0
285240 On ch=1 n=76 v=127
285240 On ch=1 n=64 v=127
285350 On ch=1 n=76 v=0
285350 On ch=1 n=64 v=0
285360 On ch=1 n=78 v=127
285360 On ch=1 n=66 v=127
285470 On ch=1 n=78 v=0
285470 On ch=1 n=66 v=0
285472 Par ch=1 c=64 v=0
285480 On ch=1 n=80 v=127
285480 On ch=1 n=68 v=127
285590 On ch=1 n=80 v=0
285590 On ch=1 n=68 v=0
285590 On ch=1 n=56 v=0
285590 On ch=1 n=59 v=0
285590 On ch=1 n=52 v=0
285600 On ch=1 n=81 v=127
285600 On ch=1 n=69 v=127
285600 On ch=1 n=57 v=127
285600 On ch=1 n=45 v=127
285650 On ch=1 n=69 v=0
285650 On ch=1 n=57 v=0
285650 On ch=1 n=45 v=0
285660 On ch=1 n=71 v=127
285660 On ch=1 n=59 v=127
285700 Par ch=1 c=64 v=127
285710 On ch=1 n=71 v=0
285710 On ch=1 n=59 v=0
285720 On ch=1 n=69 v=127
285720 On ch=1 n=57 v=127
285770 On ch=1 n=69 v=0
285770 On ch=1 n=57 v=0
285780 On ch=1 n=68 v=127
285780 On ch=1 n=56 v=127
285830 On ch=1 n=68 v=0
285830 On ch=1 n=56 v=0
285840 On ch=1 n=66 v=127
285840 On ch=1 n=54 v=127
285890 On ch=1 n=66 v=0
285890 On ch=1 n=54 v=0
285900 On ch=1 n=68 v=127
285900 On ch=1 n=56 v=127
285950 On ch=1 n=68 v=0
285950 On ch=1 n=56 v=0
285960 On ch=1 n=66 v=127
285960 On ch=1 n=54 v=127
286010 On ch=1 n=66 v=0
286010 On ch=1 n=54 v=0
286020 On ch=1 n=64 v=127
286020 On ch=1 n=52 v=127
286070 On ch=1 n=64 v=0
286070 On ch=1 n=52 v=0
286080 On ch=1 n=62 v=127
286080 On ch=1 n=50 v=127
286130 On ch=1 n=62 v=0
286130 On ch=1 n=50 v=0
286140 On ch=1 n=64 v=127
286140 On ch=1 n=52 v=127
286190 On ch=1 n=64 v=0
286190 On ch=1 n=52 v=0
286200 On ch=1 n=62 v=127
286200 On ch=1 n=50 v=127
286250 On ch=1 n=62 v=0
286250 On ch=1 n=50 v=0
286260 On ch=1 n=61 v=127
286260 On ch=1 n=49 v=127
286310 On ch=1 n=61 v=0
286310 On ch=1 n=49 v=0
286320 On ch=1 n=59 v=127
286320 On ch=1 n=47 v=127
286370 On ch=1 n=59 v=0
286370 On ch=1 n=47 v=0
286380 On ch=1 n=61 v=127
286380 On ch=1 n=49 v=127
286430 On ch=1 n=61 v=0
286430 On ch=1 n=49 v=0
286440 On ch=1 n=59 v=127
286440 On ch=1 n=47 v=127
286473 Par ch=1 c=64 v=0
286490 On ch=1 n=59 v=0
286490 On ch=1 n=47 v=0
286500 On ch=1 n=57 v=127
286500 On ch=1 n=45 v=127
286550 On ch=1 n=81 v=0
286550 On ch=1 n=57 v=0
286550 On ch=1 n=45 v=0
286554 Par ch=1 c=64 v=127
286560 On ch=1 n=69 v=127
286560 On ch=1 n=57 v=127
286560 On ch=1 n=33 v=127
286580 On ch=1 n=33 v=0
286590 On ch=1 n=45 v=127
286610 On ch=1 n=45 v=0
286620 On ch=1 n=33 v=127
286640 On ch=1 n=33 v=0
286650 On ch=1 n=45 v=127
286670 On ch=1 n=45 v=0
286680 On ch=1 n=33 v=127
286700 On ch=1 n=33 v=0
286710 On ch=1 n=45 v=127
286730 On ch=1 n=45 v=0
286740 On ch=1 n=33 v=127
286760 On ch=1 n=33 v=0
286770 On ch=1 n=45 v=127
286790 On ch=1 n=45 v=0
286800 On ch=1 n=33 v=127
286820 On ch=1 n=33 v=0
286830 On ch=1 n=45 v=127
286850 On ch=1 n=45 v=0
286860 On ch=1 n=33 v=127
286880 On ch=1 n=33 v=0
286890 On ch=1 n=45 v=127
286910 On ch=1 n=45 v=0
286920 On ch=1 n=33 v=127
286940 On ch=1 n=33 v=0
286950 On ch=1 n=45 v=127
286970 On ch=1 n=45 v=0
286980 On ch=1 n=33 v=127
287000 On ch=1 n=33 v=0
287010 On ch=1 n=45 v=127
287030 On ch=1 n=69 v=0
287030 On ch=1 n=57 v=0
287030 On ch=1 n=45 v=0
287040 On ch=1 n=69 v=127
287040 On ch=1 n=57 v=127
287040 On ch=1 n=33 v=127
287060 On ch=1 n=33 v=0
287070 On ch=1 n=45 v=127
287090 On ch=1 n=45 v=0
287100 On ch=1 n=33 v=127
287120 On ch=1 n=33 v=0
287130 On ch=1 n=45 v=127
287150 On ch=1 n=45 v=0
287160 On ch=1 n=33 v=127
287180 On ch=1 n=33 v=0
287190 On ch=1 n=45 v=127
287210 On ch=1 n=45 v=0
287220 On ch=1 n=33 v=127
287240 On ch=1 n=33 v=0
287250 On ch=1 n=45 v=127
287270 On ch=1 n=45 v=0
287280 On ch=1 n=33 v=127
287300 On ch=1 n=33 v=0
287310 On ch=1 n=45 v=127
287330 On ch=1 n=45 v=0
287340 On ch=1 n=33 v=127
287360 On ch=1 n=33 v=0
287370 On ch=1 n=45 v=127
287390 On ch=1 n=45 v=0
287400 On ch=1 n=33 v=127
287420 On ch=1 n=33 v=0
287430 On ch=1 n=45 v=127
287450 On ch=1 n=45 v=0
287460 On ch=1 n=33 v=127
287480 On ch=1 n=33 v=0
287490 On ch=1 n=45 v=127
287505 Par ch=1 c=64 v=0
287510 On ch=1 n=69 v=0
287510 On ch=1 n=57 v=0
287510 On ch=1 n=45 v=0
287520 On ch=1 n=65 v=127
287520 On ch=1 n=69 v=127
287520 On ch=1 n=57 v=127
287520 On ch=1 n=29 v=127
287540 On ch=1 n=29 v=0
287550 On ch=1 n=41 v=127
287570 On ch=1 n=41 v=0
287580 On ch=1 n=29 v=127
287583 Par ch=1 c=64 v=127
287600 On ch=1 n=29 v=0
287610 On ch=1 n=41 v=127
287630 On ch=1 n=41 v=0
287640 On ch=1 n=29 v=127
287660 On ch=1 n=29 v=0
287670 On ch=1 n=41 v=127
287690 On ch=1 n=41 v=0
287700 On ch=1 n=29 v=127
287720 On ch=1 n=29 v=0
287730 On ch=1 n=41 v=127
287750 On ch=1 n=41 v=0
287760 On ch=1 n=29 v=127
287780 On ch=1 n=29 v=0
287790 On ch=1 n=41 v=127
287810 On ch=1 n=41 v=0
287820 On ch=1 n=29 v=127
287840 On ch=1 n=29 v=0
287850 On ch=1 n=41 v=127
287870 On ch=1 n=41 v=0
287880 On ch=1 n=29 v=127
287900 On ch=1 n=29 v=0
287910 On ch=1 n=41 v=127
287930 On ch=1 n=41 v=0
287940 On ch=1 n=29 v=127
287960 On ch=1 n=29 v=0
287970 On ch=1 n=41 v=127
287990 On ch=1 n=41 v=0
288000 On ch=1 n=29 v=127
288020 On ch=1 n=29 v=0
288030 On ch=1 n=41 v=127
288050 On ch=1 n=41 v=0
288060 On ch=1 n=29 v=127
288080 On ch=1 n=29 v=0
288090 On ch=1 n=41 v=127
288110 On ch=1 n=41 v=0
288120 On ch=1 n=29 v=127
288140 On ch=1 n=29 v=0
288150 On ch=1 n=41 v=127
288170 On ch=1 n=41 v=0
288180 On ch=1 n=29 v=127
288200 On ch=1 n=29 v=0
288210 On ch=1 n=41 v=127
288230 On ch=1 n=41 v=0
288240 On ch=1 n=29 v=127
288260 On ch=1 n=29 v=0
288270 On ch=1 n=41 v=127
288290 On ch=1 n=41 v=0
288300 On ch=1 n=29 v=127
288320 On ch=1 n=29 v=0
288330 On ch=1 n=41 v=127
288350 On ch=1 n=41 v=0
288360 On ch=1 n=29 v=127
288380 On ch=1 n=29 v=0
288390 On ch=1 n=41 v=127
288410 On ch=1 n=41 v=0
288420 On ch=1 n=29 v=127
288450 On ch=1 n=41 v=127
288699 Par ch=1 c=64 v=0
289180 Par ch=1 c=64 v=127
289440 Off ch=1 n=65 v=127
289440 Off ch=1 n=69 v=127
289440 Off ch=1 n=57 v=127
290370 Off ch=1 n=29 v=0
290370 Off ch=1 n=41 v=0
290370 Par ch=1 c=64 v=0
290400 Tempo 476190
290400 TimeSig 3/4 24 8
290400 Tempo 476190
290760 On ch=1 n=46 v=40
290760 On ch=1 n=34 v=40
291110 On ch=1 n=46 v=0
291110 On ch=1 n=34 v=0
292200 On ch=1 n=46 v=40
292200 On ch=1 n=34 v=40
292550 On ch=1 n=46 v=0
292550 On ch=1 n=34 v=0
293640 On ch=1 n=46 v=40
293640 On ch=1 n=34 v=40
293990 On ch=1 n=46 v=0
293990 On ch=1 n=34 v=0
294360 On ch=1 n=46 v=40
294360 On ch=1 n=34 v=40
294710 On ch=1 n=46 v=0
294710 On ch=1 n=34 v=0
295080 On ch=1 n=46 v=40
295080 On ch=1 n=34 v=40
295430 On ch=1 n=46 v=0
295430 On ch=1 n=34 v=0
295800 On ch=1 n=46 v=40
295800 On ch=1 n=34 v=40
296150 On ch=1 n=46 v=0
296150 On ch=1 n=34 v=0
296520 On ch=1 n=74 v=40
296520 On ch=1 n=62 v=40
296520 On ch=1 n=46 v=40
296520 On ch=1 n=34 v=40
296870 On ch=1 n=74 v=0
296870 On ch=1 n=62 v=0
296870 On ch=1 n=46 v=0
296870 On ch=1 n=34 v=0
297240 On ch=1 n=74 v=40
297240 On ch=1 n=62 v=40
297240 On ch=1 n=46 v=40
297240 On ch=1 n=34 v=40
297590 On ch=1 n=74 v=0
297590 On ch=1 n=62 v=0
297590 On ch=1 n=46 v=0
297590 On ch=1 n=34 v=0
297960 On ch=1 n=74 v=40
297960 On ch=1 n=62 v=40
297960 On ch=1 n=46 v=40
297960 On ch=1 n=34 v=40
298310 On ch=1 n=74 v=0
298310 On ch=1 n=62 v=0
298310 On ch=1 n=46 v=0
298310 On ch=1 n=34 v=0
298680 On ch=1 n=74 v=40
298680 On ch=1 n=62 v=40
298680 On ch=1 n=46 v=40
298680 On ch=1 n=34 v=40
299030 On ch=1 n=74 v=0
299030 On ch=1 n=62 v=0
299030 On ch=1 n=46 v=0
299030 On ch=1 n=34 v=0
299040 On ch=1 n=46 v=40
299040 On ch=1 n=34 v=40
299270 On ch=1 n=46 v=0
299270 On ch=1 n=34 v=0
299280 On ch=1 n=82 v=40
299280 On ch=1 n=86 v=40
299280 On ch=1 n=74 v=40
299390 On ch=1 n=82 v=0
299390 On ch=1 n=86 v=0
299390 On ch=1 n=74 v=0
299400 On ch=1 n=82 v=40
299400 On ch=1 n=86 v=40
299400 On ch=1 n=74 v=40
299400 On ch=1 n=58 v=40
299630 On ch=1 n=58 v=0
299760 On ch=1 n=46 v=40
299990 On ch=1 n=82 v=0
299990 On ch=1 n=86 v=0
299990 On ch=1 n=74 v=0
299990 On ch=1 n=46 v=0
300000 On ch=1 n=84 v=40
300000 On ch=1 n=87 v=40
300000 On ch=1 n=75 v=40
300110 On ch=1 n=84 v=0
300110 On ch=1 n=87 v=0
300110 On ch=1 n=75 v=0
300120 On ch=1 n=86 v=40
300120 On ch=1 n=89 v=40
300120 On ch=1 n=77 v=40
300120 On ch=1 n=58 v=40
300350 On ch=1 n=58 v=0
300480 On ch=1 n=53 v=40
300710 On ch=1 n=86 v=0
300710 On ch=1 n=89 v=0
300710 On ch=1 n=77 v=0
300710 On ch=1 n=53 v=0
300720 On ch=1 n=86 v=40
300720 On ch=1 n=89 v=40
300720 On ch=1 n=77 v=40
300830 On ch=1 n=86 v=0
300830 On ch=1 n=89 v=0
300830 On ch=1 n=77 v=0
300840 On ch=1 n=84 v=40
300840 On ch=1 n=87 v=40
300840 On ch=1 n=75 v=40
300840 On ch=1 n=65 v=40
301070 On ch=1 n=65 v=0
301200 On ch=1 n=53 v=40
301430 On ch=1 n=84 v=0
301430 On ch=1 n=87 v=0
301430 On ch=1 n=75 v=0
301430 On ch=1 n=53 v=0
301440 On ch=1 n=82 v=40
301440 On ch=1 n=86 v=40
301440 On ch=1 n=74 v=40
301550 On ch=1 n=82 v=0
301550 On ch=1 n=86 v=0
301550 On ch=1 n=74 v=0
301560 On ch=1 n=81 v=40
301560 On ch=1 n=84 v=40
301560 On ch=1 n=72 v=40
301560 On ch=1 n=65 v=40
301790 On ch=1 n=65 v=0
301920 On ch=1 n=46 v=40
302150 On ch=1 n=81 v=0
302150 On ch=1 n=84 v=0
302150 On ch=1 n=72 v=0
302150 On ch=1 n=46 v=0
302160 On ch=1 n=74 v=40
302160 On ch=1 n=82 v=40
302160 On ch=1 n=70 v=40
302270 On ch=1 n=74 v=0
302270 On ch=1 n=82 v=0
302270 On ch=1 n=70 v=0
302280 On ch=1 n=74 v=40
302280 On ch=1 n=82 v=40
302280 On ch=1 n=70 v=40
302280 On ch=1 n=58 v=40
302510 On ch=1 n=58 v=0
302640 On ch=1 n=46 v=40
302870 On ch=1 n=74 v=0
302870 On ch=1 n=82 v=0
302870 On ch=1 n=70 v=0
302870 On ch=1 n=46 v=0
302880 On ch=1 n=77 v=40
302880 On ch=1 n=84 v=40
302880 On ch=1 n=72 v=40
302990 On ch=1 n=77 v=0
302990 On ch=1 n=84 v=0
302990 On ch=1 n=72 v=0
303000 On ch=1 n=82 v=40
303000 On ch=1 n=86 v=40
303000 On ch=1 n=74 v=40
303000 On ch=1 n=58 v=40
303230 On ch=1 n=58 v=0
303360 On ch=1 n=41 v=40
303590 On ch=1 n=82 v=0
303590 On ch=1 n=86 v=0
303590 On ch=1 n=74 v=0
303590 On ch=1 n=41 v=0
303600 On ch=1 n=82 v=40
303600 On ch=1 n=86 v=40
303600 On ch=1 n=74 v=40
303710 On ch=1 n=82 v=0
303710 On ch=1 n=86 v=0
303710 On ch=1 n=74 v=0
303720 On ch=1 n=81 v=40
303720 On ch=1 n=84 v=40
303720 On ch=1 n=72 v=40
303720 On ch=1 n=53 v=40
303950 On ch=1 n=53 v=0
304080 On ch=1 n=53 v=40
304310 On ch=1 n=81 v=0
304310 On ch=1 n=84 v=0
304310 On ch=1 n=72 v=0
304310 On ch=1 n=53 v=0
304320 On ch=1 n=77 v=40
304320 On ch=1 n=82 v=40
304320 On ch=1 n=74 v=40
304430 On ch=1 n=77 v=0
304430 On ch=1 n=82 v=0
304430 On ch=1 n=74 v=0
304440 On ch=1 n=81 v=40
304440 On ch=1 n=84 v=40
304440 On ch=1 n=72 v=40
304440 On ch=1 n=65 v=40
304670 On ch=1 n=65 v=0
304800 On ch=1 n=46 v=40
305030 On ch=1 n=81 v=0
305030 On ch=1 n=84 v=0
305030 On ch=1 n=72 v=0
305030 On ch=1 n=46 v=0
305040 On ch=1 n=82 v=40
305040 On ch=1 n=86 v=40
305040 On ch=1 n=74 v=40
305150 On ch=1 n=82 v=0
305150 On ch=1 n=86 v=0
305150 On ch=1 n=74 v=0
305160 On ch=1 n=82 v=40
305160 On ch=1 n=86 v=40
305160 On ch=1 n=74 v=40
305160 On ch=1 n=58 v=40
305390 On ch=1 n=58 v=0
305520 On ch=1 n=46 v=40
305750 On ch=1 n=82 v=0
305750 On ch=1 n=86 v=0
305750 On ch=1 n=74 v=0
305750 On ch=1 n=46 v=0
305760 On ch=1 n=84 v=40
305760 On ch=1 n=87 v=40
305760 On ch=1 n=75 v=40
305870 On ch=1 n=84 v=0
305870 On ch=1 n=87 v=0
305870 On ch=1 n=75 v=0
305880 On ch=1 n=86 v=40
305880 On ch=1 n=89 v=40
305880 On ch=1 n=77 v=40
305880 On ch=1 n=58 v=40
306110 On ch=1 n=58 v=0
306240 On ch=1 n=53 v=40
306470 On ch=1 n=86 v=0
306470 On ch=1 n=89 v=0
306470 On ch=1 n=77 v=0
306470 On ch=1 n=53 v=0
306480 On ch=1 n=86 v=40
306480 On ch=1 n=89 v=40
306480 On ch=1 n=77 v=40
306590 On ch=1 n=86 v=0
306590 On ch=1 n=89 v=0
306590 On ch=1 n=77 v=0
306600 On ch=1 n=84 v=40
306600 On ch=1 n=87 v=40
306600 On ch=1 n=75 v=40
306600 On ch=1 n=57 v=40
306830 On ch=1 n=57 v=0
306840 On ch=1 n=60 v=40
306950 On ch=1 n=60 v=0
306960 On ch=1 n=65 v=40
307190 On ch=1 n=84 v=0
307190 On ch=1 n=87 v=0
307190 On ch=1 n=75 v=0
307190 On ch=1 n=65 v=0
307200 On ch=1 n=82 v=40
307200 On ch=1 n=86 v=40
307200 On ch=1 n=74 v=40
307200 On ch=1 n=53 v=40
307310 On ch=1 n=82 v=0
307310 On ch=1 n=86 v=0
307310 On ch=1 n=74 v=0
307310 On ch=1 n=53 v=0
307320 On ch=1 n=77 v=40
307320 On ch=1 n=84 v=40
307320 On ch=1 n=72 v=40
307320 On ch=1 n=55 v=40
307550 On ch=1 n=55 v=0
307560 On ch=1 n=57 v=40
307670 On ch=1 n=57 v=0
307680 On ch=1 n=46 v=40
307910 On ch=1 n=77 v=0
307910 On ch=1 n=84 v=0
307910 On ch=1 n=72 v=0
307910 On ch=1 n=46 v=0
307920 On ch=1 n=74 v=40
307920 On ch=1 n=82 v=40
307920 On ch=1 n=70 v=40
308030 On ch=1 n=74 v=0
308030 On ch=1 n=82 v=0
308030 On ch=1 n=70 v=0
308040 On ch=1 n=74 v=40
308040 On ch=1 n=82 v=40
308040 On ch=1 n=70 v=40
308040 On ch=1 n=58 v=40
308270 On ch=1 n=58 v=0
308400 On ch=1 n=46 v=40
308630 On ch=1 n=74 v=0
308630 On ch=1 n=82 v=0
308630 On ch=1 n=70 v=0
308630 On ch=1 n=46 v=0
308640 On ch=1 n=77 v=40
308640 On ch=1 n=84 v=40
308640 On ch=1 n=72 v=40
308750 On ch=1 n=77 v=0
308750 On ch=1 n=84 v=0
308750 On ch=1 n=72 v=0
308760 On ch=1 n=82 v=40
308760 On ch=1 n=86 v=40
308760 On ch=1 n=74 v=40
308760 On ch=1 n=58 v=40
308990 On ch=1 n=58 v=0
309120 On ch=1 n=53 v=40
309350 On ch=1 n=82 v=0
309350 On ch=1 n=86 v=0
309350 On ch=1 n=74 v=0
309350 On ch=1 n=53 v=0
309360 On ch=1 n=77 v=40
309360 On ch=1 n=84 v=40
309360 On ch=1 n=72 v=40
309470 On ch=1 n=77 v=0
309470 On ch=1 n=84 v=0
309470 On ch=1 n=72 v=0
309480 On ch=1 n=77 v=40
309480 On ch=1 n=84 v=40
309480 On ch=1 n=72 v=40
309480 On ch=1 n=65 v=40
309710 On ch=1 n=77 v=0
309710 On ch=1 n=84 v=0
309710 On ch=1 n=72 v=0
309710 On ch=1 n=65 v=0
309720 On ch=1 n=74 v=40
309720 On ch=1 n=82 v=40
309720 On ch=1 n=70 v=40
309830 On ch=1 n=74 v=0
309830 On ch=1 n=82 v=0
309830 On ch=1 n=70 v=0
309840 On ch=1 n=74 v=40
309840 On ch=1 n=82 v=40
309840 On ch=1 n=70 v=40
309840 On ch=1 n=58 v=40
310070 On ch=1 n=74 v=0
310070 On ch=1 n=82 v=0
310070 On ch=1 n=70 v=0
310070 On ch=1 n=58 v=0
310080 On ch=1 n=72 v=40
310080 On ch=1 n=65 v=40
310190 On ch=1 n=72 v=0
310190 On ch=1 n=65 v=0
310200 On ch=1 n=72 v=40
310200 On ch=1 n=65 v=40
310430 On ch=1 n=72 v=0
310430 On ch=1 n=65 v=0
310440 On ch=1 n=70 v=40
310440 On ch=1 n=62 v=40
310550 On ch=1 n=70 v=0
310550 On ch=1 n=62 v=0
310560 On ch=1 n=72 v=40
310560 On ch=1 n=65 v=40
310790 On ch=1 n=72 v=0
310790 On ch=1 n=65 v=0
310800 On ch=1 n=81 v=40
310800 On ch=1 n=84 v=40
310800 On ch=1 n=72 v=40
310910 On ch=1 n=81 v=0
310910 On ch=1 n=84 v=0
310910 On ch=1 n=72 v=0
310920 On ch=1 n=81 v=40
310920 On ch=1 n=84 v=40
310920 On ch=1 n=72 v=40
310920 On ch=1 n=65 v=40
311150 On ch=1 n=65 v=0
311280 On ch=1 n=53 v=40
311510 On ch=1 n=53 v=0
311630 On ch=1 n=81 v=0
311630 On ch=1 n=84 v=0
311630 On ch=1 n=72 v=0
311640 On ch=1 n=82 v=40
311640 On ch=1 n=86 v=40
311640 On ch=1 n=74 v=40
311640 On ch=1 n=46 v=40
311870 On ch=1 n=82 v=0
311870 On ch=1 n=86 v=0
311870 On ch=1 n=74 v=0
311870 On ch=1 n=46 v=0
311880 On ch=1 n=77 v=40
311880 On ch=1 n=82 v=40
311880 On ch=1 n=74 v=40
311990 On ch=1 n=77 v=0
311990 On ch=1 n=82 v=0
311990 On ch=1 n=74 v=0
312000 On ch=1 n=81 v=40
312000 On ch=1 n=84 v=40
312000 On ch=1 n=72 v=40
312000 On ch=1 n=53 v=40
312000 On ch=1 n=41 v=40
312230 On ch=1 n=81 v=0
312230 On ch=1 n=84 v=0
312230 On ch=1 n=72 v=0
312230 On ch=1 n=53 v=0
312230 On ch=1 n=41 v=0
312240 On ch=1 n=81 v=40
312240 On ch=1 n=84 v=40
312240 On ch=1 n=72 v=40
312350 On ch=1 n=81 v=0
312350 On ch=1 n=84 v=0
312350 On ch=1 n=72 v=0
312360 On ch=1 n=81 v=40
312360 On ch=1 n=84 v=40
312360 On ch=1 n=72 v=40
312360 On ch=1 n=65 v=40
312590 On ch=1 n=65 v=0
312710 On ch=1 n=72 v=0
312720 On ch=1 n=53 v=40
312830 On ch=1 n=81 v=0
312830 On ch=1 n=84 v=0
312840 On ch=1 n=86 v=40
312840 On ch=1 n=82 v=40
312950 On ch=1 n=86 v=0
312950 On ch=1 n=82 v=0
312950 On ch=1 n=53 v=0
312960 On ch=1 n=84 v=40
312960 On ch=1 n=87 v=40
312960 On ch=1 n=81 v=40
313070 On ch=1 n=84 v=0
313070 On ch=1 n=87 v=0
313070 On ch=1 n=81 v=0
313080 On ch=1 n=86 v=40
313080 On ch=1 n=82 v=40
313080 On ch=1 n=46 v=40
313310 On ch=1 n=86 v=0
313310 On ch=1 n=82 v=0
313310 On ch=1 n=46 v=0
313320 On ch=1 n=82 v=40
313320 On ch=1 n=74 v=40
313430 On ch=1 n=82 v=0
313430 On ch=1 n=74 v=0
313440 On ch=1 n=84 v=40
313440 On ch=1 n=81 v=40
313440 On ch=1 n=41 v=40
313550 On ch=1 n=84 v=0
313550 On ch=1 n=81 v=0
313560 On ch=1 n=86 v=40
313560 On ch=1 n=82 v=40
313670 On ch=1 n=86 v=0
313670 On ch=1 n=82 v=0
313670 On ch=1 n=41 v=0
313680 On ch=1 n=84 v=40
313680 On ch=1 n=87 v=40
313680 On ch=1 n=81 v=40
313790 On ch=1 n=84 v=0
313790 On ch=1 n=87 v=0
313790 On ch=1 n=81 v=0
313800 On ch=1 n=86 v=40
313800 On ch=1 n=82 v=40
313800 On ch=1 n=46 v=40
314030 On ch=1 n=86 v=0
314030 On ch=1 n=82 v=0
314030 On ch=1 n=46 v=0
314040 On ch=1 n=82 v=40
314040 On ch=1 n=74 v=40
314150 On ch=1 n=82 v=0
314150 On ch=1 n=74 v=0
314160 On ch=1 n=84 v=40
314160 On ch=1 n=81 v=40
314160 On ch=1 n=53 v=40
314270 On ch=1 n=84 v=0
314270 On ch=1 n=81 v=0
314280 On ch=1 n=86 v=40
314280 On ch=1 n=82 v=40
314390 On ch=1 n=86 v=0
314390 On ch=1 n=82 v=0
314390 On ch=1 n=53 v=0
314400 On ch=1 n=84 v=40
314400 On ch=1 n=87 v=40
314400 On ch=1 n=81 v=40
314510 On ch=1 n=84 v=0
314510 On ch=1 n=87 v=0
314510 On ch=1 n=81 v=0
314520 On ch=1 n=86 v=40
314520 On ch=1 n=82 v=40
314520 On ch=1 n=65 v=40
314750 On ch=1 n=86 v=0
314750 On ch=1 n=82 v=0
314750 On ch=1 n=65 v=0
314760 On ch=1 n=84 v=40
314760 On ch=1 n=81 v=40
314880 On ch=1 n=48 v=40
314990 On ch=1 n=84 v=0
314990 On ch=1 n=81 v=0
315000 On ch=1 n=82 v=40
315000 On ch=1 n=79 v=40
315110 On ch=1 n=82 v=0
315110 On ch=1 n=79 v=0
315110 On ch=1 n=48 v=0
315120 On ch=1 n=81 v=40
315120 On ch=1 n=77 v=40
315230 On ch=1 n=81 v=0
315230 On ch=1 n=77 v=0
315240 On ch=1 n=82 v=40
315240 On ch=1 n=79 v=40
315240 On ch=1 n=60 v=40
315470 On ch=1 n=82 v=0
315470 On ch=1 n=79 v=0
315470 On ch=1 n=60 v=0
315480 On ch=1 n=84 v=40
315480 On ch=1 n=76 v=40
315590 On ch=1 n=84 v=0
315590 On ch=1 n=76 v=0
315600 On ch=1 n=77 v=40
315600 On ch=1 n=77 v=40
315600 On ch=1 n=65 v=40
315600 On ch=1 n=63 v=40
315710 On ch=1 n=77 v=0
315710 On ch=1 n=65 v=0
315720 On ch=1 n=79 v=40
315720 On ch=1 n=67 v=40
315830 On ch=1 n=79 v=0
315830 On ch=1 n=67 v=0
315840 On ch=1 n=81 v=40
315840 On ch=1 n=69 v=40
315950 On ch=1 n=77 v=0
315950 On ch=1 n=81 v=0
315950 On ch=1 n=69 v=0
315950 On ch=1 n=63 v=0
315960 On ch=1 n=82 v=40
315960 On ch=1 n=77 v=40
315960 On ch=1 n=70 v=40
315960 On ch=1 n=62 v=40
316070 On ch=1 n=82 v=0
316080 On ch=1 n=84 v=40
316190 On ch=1 n=84 v=0
316190 On ch=1 n=62 v=0
316200 On ch=1 n=86 v=40
316200 On ch=1 n=60 v=40
316310 On ch=1 n=86 v=0
316310 On ch=1 n=77 v=0
316310 On ch=1 n=70 v=0
316310 On ch=1 n=60 v=0
316320 On ch=1 n=86 v=40
316320 On ch=1 n=74 v=40
316320 On ch=1 n=58 v=40
316550 On ch=1 n=86 v=0
316550 On ch=1 n=74 v=0
316550 On ch=1 n=58 v=0
316560 On ch=1 n=82 v=40
316560 On ch=1 n=86 v=40
316560 On ch=1 n=74 v=40
316670 On ch=1 n=82 v=0
316670 On ch=1 n=86 v=0
316670 On ch=1 n=74 v=0
316680 On ch=1 n=82 v=40
316680 On ch=1 n=86 v=40
316680 On ch=1 n=74 v=40
316680 On ch=1 n=70 v=40
316910 On ch=1 n=70 v=0
317040 On ch=1 n=56 v=40
317270 On ch=1 n=82 v=0
317270 On ch=1 n=86 v=0
317270 On ch=1 n=74 v=0
317280 On ch=1 n=84 v=40
317280 On ch=1 n=87 v=40
317280 On ch=1 n=75 v=40
317390 On ch=1 n=84 v=0
317390 On ch=1 n=87 v=0
317390 On ch=1 n=75 v=0
317390 On ch=1 n=56 v=0
317400 On ch=1 n=86 v=40
317400 On ch=1 n=89 v=40
317400 On ch=1 n=77 v=40
317400 On ch=1 n=58 v=40
317400 On ch=1 n=56 v=40
317750 On ch=1 n=86 v=0
317750 On ch=1 n=58 v=0
317750 On ch=1 n=56 v=0
317760 On ch=1 n=82 v=40
317760 On ch=1 n=55 v=40
317990 On ch=1 n=82 v=0
317990 On ch=1 n=89 v=0
317990 On ch=1 n=77 v=0
317990 On ch=1 n=55 v=0
318000 On ch=1 n=82 v=40
318000 On ch=1 n=89 v=40
318000 On ch=1 n=77 v=40
318110 On ch=1 n=82 v=0
318110 On ch=1 n=89 v=0
318110 On ch=1 n=77 v=0
318120 On ch=1 n=82 v=40
318120 On ch=1 n=87 v=40
318120 On ch=1 n=75 v=40
318120 On ch=1 n=70 v=40
318120 On ch=1 n=63 v=40
318350 On ch=1 n=70 v=0
318350 On ch=1 n=63 v=0
318360 On ch=1 n=65 v=40
318470 On ch=1 n=65 v=0
318480 On ch=1 n=67 v=40
318480 On ch=1 n=51 v=40
318710 On ch=1 n=82 v=0
318710 On ch=1 n=87 v=0
318710 On ch=1 n=75 v=0
318710 On ch=1 n=67 v=0
318710 On ch=1 n=51 v=0
318720 On ch=1 n=79 v=40
318720 On ch=1 n=86 v=40
318720 On ch=1 n=74 v=40
318830 On ch=1 n=79 v=0
318830 On ch=1 n=86 v=0
318830 On ch=1 n=74 v=0
318840 On ch=1 n=79 v=40
318840 On ch=1 n=84 v=40
318840 On ch=1 n=72 v=40
318840 On ch=1 n=67 v=40
318840 On ch=1 n=52 v=40
319070 On ch=1 n=67 v=0
319070 On ch=1 n=52 v=0
319190 On ch=1 n=79 v=0
319200 On ch=1 n=75 v=40
319200 On ch=1 n=53 v=40
319430 On ch=1 n=75 v=0
319430 On ch=1 n=84 v=0
319430 On ch=1 n=72 v=0
319430 On ch=1 n=53 v=0
319440 On ch=1 n=74 v=40
319440 On ch=1 n=82 v=40
319440 On ch=1 n=70 v=40
319550 On ch=1 n=74 v=0
319550 On ch=1 n=82 v=0
319550 On ch=1 n=70 v=0
319560 On ch=1 n=74 v=40
319560 On ch=1 n=82 v=40
319560 On ch=1 n=70 v=40
319560 On ch=1 n=65 v=40
319790 On ch=1 n=65 v=0
319920 On ch=1 n=41 v=40
320150 On ch=1 n=74 v=0
320150 On ch=1 n=82 v=0
320150 On ch=1 n=70 v=0
320150 On ch=1 n=41 v=0
320160 On ch=1 n=77 v=40
320160 On ch=1 n=84 v=40
320160 On ch=1 n=72 v=40
320270 On ch=1 n=77 v=0
320270 On ch=1 n=84 v=0
320270 On ch=1 n=72 v=0
320280 On ch=1 n=82 v=40
320280 On ch=1 n=86 v=40
320280 On ch=1 n=74 v=40
320280 On ch=1 n=53 v=40
320510 On ch=1 n=53 v=0
320640 On ch=1 n=53 v=40
320870 On ch=1 n=82 v=0
320870 On ch=1 n=86 v=0
320870 On ch=1 n=74 v=0
320870 On ch=1 n=53 v=0
320880 On ch=1 n=77 v=40
320880 On ch=1 n=84 v=40
320880 On ch=1 n=72 v=40
320990 On ch=1 n=77 v=0
320990 On ch=1 n=84 v=0
320990 On ch=1 n=72 v=0
321000 On ch=1 n=77 v=40
321000 On ch=1 n=84 v=40
321000 On ch=1 n=72 v=40
321000 On ch=1 n=65 v=40
321230 On ch=1 n=77 v=0
321230 On ch=1 n=84 v=0
321230 On ch=1 n=72 v=0
321230 On ch=1 n=65 v=0
321240 On ch=1 n=74 v=40
321240 On ch=1 n=82 v=40
321240 On ch=1 n=70 v=40
321350 On ch=1 n=74 v=0
321350 On ch=1 n=82 v=0
321350 On ch=1 n=70 v=0
321360 On ch=1 n=74 v=40
321360 On ch=1 n=82 v=40
321360 On ch=1 n=70 v=40
321360 On ch=1 n=58 v=40
321590 On ch=1 n=74 v=0
321590 On ch=1 n=82 v=0
321590 On ch=1 n=70 v=0
321590 On ch=1 n=58 v=0
321600 On ch=1 n=72 v=40
321600 On ch=1 n=65 v=40
321710 On ch=1 n=72 v=0
321710 On ch=1 n=65 v=0
321720 On ch=1 n=72 v=40
321720 On ch=1 n=65 v=40
321950 On ch=1 n=72 v=0
321950 On ch=1 n=65 v=0
321960 On ch=1 n=70 v=40
321960 On ch=1 n=62 v=40
322070 On ch=1 n=70 v=0
322070 On ch=1 n=62 v=0
322080 On ch=1 n=70 v=40
322080 On ch=1 n=62 v=40
322310 On ch=1 n=70 v=0
322310 On ch=1 n=62 v=0
322320 On ch=1 n=82 v=40
322320 On ch=1 n=86 v=40
322320 On ch=1 n=74 v=40
322430 On ch=1 n=82 v=0
322430 On ch=1 n=86 v=0
322430 On ch=1 n=74 v=0
322440 On ch=1 n=82 v=40
322440 On ch=1 n=86 v=40
322440 On ch=1 n=74 v=40
322800 On ch=1 n=58 v=40
322800 On ch=1 n=62 v=40
322800 On ch=1 n=46 v=40
323030 On ch=1 n=82 v=0
323030 On ch=1 n=86 v=0
323030 On ch=1 n=74 v=0
323040 On ch=1 n=84 v=40
323040 On ch=1 n=87 v=40
323040 On ch=1 n=75 v=40
323150 On ch=1 n=84 v=0
323150 On ch=1 n=87 v=0
323150 On ch=1 n=75 v=0
323160 On ch=1 n=86 v=40
323160 On ch=1 n=89 v=40
323160 On ch=1 n=77 v=40
323510 On ch=1 n=58 v=0
323510 On ch=1 n=62 v=0
323510 On ch=1 n=46 v=0
323520 On ch=1 n=65 v=40
323520 On ch=1 n=53 v=40
323750 On ch=1 n=86 v=0
323750 On ch=1 n=89 v=0
323750 On ch=1 n=77 v=0
323760 On ch=1 n=86 v=40
323760 On ch=1 n=89 v=40
323760 On ch=1 n=77 v=40
323870 On ch=1 n=86 v=0
323870 On ch=1 n=89 v=0
323870 On ch=1 n=77 v=0
323880 On ch=1 n=84 v=40
323880 On ch=1 n=87 v=40
323880 On ch=1 n=75 v=40
324230 On ch=1 n=65 v=0
324230 On ch=1 n=53 v=0
324240 On ch=1 n=53 v=40
324240 On ch=1 n=41 v=40
324470 On ch=1 n=84 v=0
324470 On ch=1 n=87 v=0
324470 On ch=1 n=75 v=0
324470 On ch=1 n=41 v=0
324480 On ch=1 n=82 v=40
324480 On ch=1 n=86 v=40
324480 On ch=1 n=74 v=40
324590 On ch=1 n=82 v=0
324590 On ch=1 n=86 v=0
324590 On ch=1 n=74 v=0
324590 On ch=1 n=53 v=0
324600 On ch=1 n=77 v=40
324600 On ch=1 n=84 v=40
324600 On ch=1 n=72 v=40
324600 On ch=1 n=55 v=40
324830 On ch=1 n=55 v=0
324840 On ch=1 n=57 v=40
324950 On ch=1 n=57 v=0
324960 On ch=1 n=58 v=40
324960 On ch=1 n=46 v=40
325190 On ch=1 n=77 v=0
325190 On ch=1 n=84 v=0
325190 On ch=1 n=72 v=0
325190 On ch=1 n=46 v=0
325200 On ch=1 n=74 v=40
325200 On ch=1 n=82 v=40
325200 On ch=1 n=70 v=40
325310 On ch=1 n=74 v=0
325310 On ch=1 n=82 v=0
325310 On ch=1 n=70 v=0
325310 On ch=1 n=58 v=0
325320 On ch=1 n=74 v=40
325320 On ch=1 n=82 v=40
325320 On ch=1 n=70 v=40
325320 On ch=1 n=58 v=40
325670 On ch=1 n=58 v=0
325680 On ch=1 n=58 v=40
325910 On ch=1 n=74 v=0
325910 On ch=1 n=82 v=0
325910 On ch=1 n=70 v=0
325910 On ch=1 n=58 v=0
325920 On ch=1 n=77 v=40
325920 On ch=1 n=84 v=40
325920 On ch=1 n=72 v=40
325920 On ch=1 n=60 v=40
326030 On ch=1 n=77 v=0
326030 On ch=1 n=84 v=0
326030 On ch=1 n=72 v=0
326030 On ch=1 n=60 v=0
326040 On ch=1 n=82 v=40
326040 On ch=1 n=86 v=40
326040 On ch=1 n=74 v=40
326040 On ch=1 n=62 v=40
326040 On ch=1 n=58 v=40
326390 On ch=1 n=62 v=0
326390 On ch=1 n=58 v=0
326400 On ch=1 n=62 v=40
326400 On ch=1 n=58 v=40
326400 On ch=1 n=41 v=40
326630 On ch=1 n=82 v=0
326630 On ch=1 n=86 v=0
326630 On ch=1 n=74 v=0
326630 On ch=1 n=41 v=0
326640 On ch=1 n=82 v=40
326640 On ch=1 n=86 v=40
326640 On ch=1 n=74 v=40
326750 On ch=1 n=82 v=0
326750 On ch=1 n=86 v=0
326750 On ch=1 n=74 v=0
326750 On ch=1 n=62 v=0
326750 On ch=1 n=58 v=0
326760 On ch=1 n=81 v=40
326760 On ch=1 n=84 v=40
326760 On ch=1 n=72 v=40
326760 On ch=1 n=60 v=40
326760 On ch=1 n=57 v=40
327110 On ch=1 n=60 v=0
327110 On ch=1 n=57 v=0
327120 On ch=1 n=60 v=40
327120 On ch=1 n=41 v=40
327350 On ch=1 n=81 v=0
327350 On ch=1 n=84 v=0
327350 On ch=1 n=72 v=0
327350 On ch=1 n=60 v=0
327350 On ch=1 n=41 v=0
327360 On ch=1 n=77 v=40
327360 On ch=1 n=82 v=40
327360 On ch=1 n=74 v=40
327360 On ch=1 n=58 v=40
327470 On ch=1 n=77 v=0
327470 On ch=1 n=82 v=0
327470 On ch=1 n=74 v=0
327470 On ch=1 n=58 v=0
327480 On ch=1 n=81 v=40
327480 On ch=1 n=84 v=40
327480 On ch=1 n=72 v=40
327480 On ch=1 n=60 v=40
327710 On ch=1 n=60 v=0
327720 On ch=1 n=53 v=40
327830 On ch=1 n=53 v=0
327840 On ch=1 n=62 v=40
327840 On ch=1 n=46 v=53
328070 On ch=1 n=81 v=0
328070 On ch=1 n=84 v=0
328070 On ch=1 n=72 v=0
328070 On ch=1 n=62 v=0
328070 On ch=1 n=46 v=0
328080 On ch=1 n=82 v=40
328080 On ch=1 n=86 v=40
328080 On ch=1 n=74 v=40
328190 On ch=1 n=82 v=0
328190 On ch=1 n=86 v=0
328190 On ch=1 n=74 v=0
328200 On ch=1 n=82 v=63
328200 On ch=1 n=86 v=63
328200 On ch=1 n=74 v=63
328200 On ch=1 n=58 v=63
328430 On ch=1 n=58 v=0
328560 On ch=1 n=62 v=63
328560 On ch=1 n=46 v=63
328790 On ch=1 n=82 v=0
328790 On ch=1 n=86 v=0
328790 On ch=1 n=74 v=0
328790 On ch=1 n=62 v=0
328790 On ch=1 n=46 v=0
328800 On ch=1 n=84 v=63
328800 On ch=1 n=87 v=63
328800 On ch=1 n=75 v=63
328910 On ch=1 n=84 v=0
328910 On ch=1 n=87 v=0
328910 On ch=1 n=75 v=0
328920 On ch=1 n=86 v=63
328920 On ch=1 n=89 v=63
328920 On ch=1 n=77 v=63
328920 On ch=1 n=58 v=63
329150 On ch=1 n=58 v=0
329280 On ch=1 n=65 v=63
329280 On ch=1 n=53 v=63
329510 On ch=1 n=86 v=0
329510 On ch=1 n=89 v=0
329510 On ch=1 n=77 v=0
329510 On ch=1 n=65 v=0
329510 On ch=1 n=53 v=0
329520 On ch=1 n=86 v=63
329520 On ch=1 n=89 v=63
329520 On ch=1 n=77 v=63
329520 On ch=1 n=53 v=63
329630 On ch=1 n=86 v=0
329630 On ch=1 n=89 v=0
329630 On ch=1 n=77 v=0
329630 On ch=1 n=53 v=0
329640 On ch=1 n=84 v=63
329640 On ch=1 n=87 v=63
329640 On ch=1 n=75 v=63
329640 On ch=1 n=57 v=63
329870 On ch=1 n=57 v=0
329880 On ch=1 n=60 v=63
329990 On ch=1 n=60 v=0
330000 On ch=1 n=65 v=63
330230 On ch=1 n=84 v=0
330230 On ch=1 n=87 v=0
330230 On ch=1 n=75 v=0
330230 On ch=1 n=65 v=0
330240 On ch=1 n=82 v=63
330240 On ch=1 n=86 v=63
330240 On ch=1 n=74 v=63
330240 On ch=1 n=53 v=63
330350 On ch=1 n=82 v=0
330350 On ch=1 n=86 v=0
330350 On ch=1 n=74 v=0
330350 On ch=1 n=53 v=0
330360 On ch=1 n=77 v=63
330360 On ch=1 n=84 v=63
330360 On ch=1 n=72 v=63
330360 On ch=1 n=55 v=63
330590 On ch=1 n=55 v=0
330600 On ch=1 n=57 v=63
330710 On ch=1 n=57 v=0
330720 On ch=1 n=58 v=63
330720 On ch=1 n=46 v=63
330950 On ch=1 n=77 v=0
330950 On ch=1 n=84 v=0
330950 On ch=1 n=72 v=0
330950 On ch=1 n=58 v=0
330950 On ch=1 n=46 v=0
330960 On ch=1 n=74 v=63
330960 On ch=1 n=82 v=63
330960 On ch=1 n=70 v=63
331070 On ch=1 n=74 v=0
331070 On ch=1 n=82 v=0
331070 On ch=1 n=70 v=0
331080 On ch=1 n=74 v=63
331080 On ch=1 n=82 v=63
331080 On ch=1 n=70 v=63
331080 On ch=1 n=53 v=63
331310 On ch=1 n=53 v=0
331440 On ch=1 n=62 v=63
331440 On ch=1 n=46 v=63
331670 On ch=1 n=74 v=0
331670 On ch=1 n=82 v=0
331670 On ch=1 n=70 v=0
331670 On ch=1 n=62 v=0
331670 On ch=1 n=46 v=0
331680 On ch=1 n=77 v=63
331680 On ch=1 n=84 v=63
331680 On ch=1 n=72 v=63
331790 On ch=1 n=77 v=0
331790 On ch=1 n=84 v=0
331790 On ch=1 n=72 v=0
331800 On ch=1 n=82 v=63
331800 On ch=1 n=86 v=63
331800 On ch=1 n=74 v=63
331800 On ch=1 n=58 v=63
332030 On ch=1 n=58 v=0
332160 On ch=1 n=65 v=63
332160 On ch=1 n=53 v=63
332390 On ch=1 n=82 v=0
332390 On ch=1 n=86 v=0
332390 On ch=1 n=74 v=0
332390 On ch=1 n=65 v=0
332390 On ch=1 n=53 v=0
332400 On ch=1 n=77 v=63
332400 On ch=1 n=84 v=63
332400 On ch=1 n=72 v=63
332510 On ch=1 n=77 v=0
332510 On ch=1 n=84 v=0
332510 On ch=1 n=72 v=0
332520 On ch=1 n=77 v=63
332520 On ch=1 n=84 v=63
332520 On ch=1 n=72 v=63
332520 On ch=1 n=63 v=63
332520 On ch=1 n=53 v=63
332750 On ch=1 n=77 v=0
332750 On ch=1 n=84 v=0
332750 On ch=1 n=72 v=0
332750 On ch=1 n=63 v=0
332750 On ch=1 n=53 v=0
332760 On ch=1 n=74 v=63
332760 On ch=1 n=82 v=63
332760 On ch=1 n=70 v=63
332760 On ch=1 n=62 v=63
332870 On ch=1 n=74 v=0
332870 On ch=1 n=82 v=0
332870 On ch=1 n=70 v=0
332870 On ch=1 n=62 v=0
332880 On ch=1 n=74 v=63
332880 On ch=1 n=82 v=63
332880 On ch=1 n=70 v=63
332880 On ch=1 n=62 v=63
332880 On ch=1 n=58 v=63
333110 On ch=1 n=74 v=0
333110 On ch=1 n=82 v=0
333110 On ch=1 n=70 v=0
333110 On ch=1 n=62 v=0
333110 On ch=1 n=58 v=0
333120 On ch=1 n=72 v=63
333120 On ch=1 n=65 v=63
333230 On ch=1 n=72 v=0
333230 On ch=1 n=65 v=0
333240 On ch=1 n=72 v=63
333240 On ch=1 n=65 v=63
333470 On ch=1 n=72 v=0
333470 On ch=1 n=65 v=0
333480 On ch=1 n=70 v=63
333480 On ch=1 n=62 v=63
333590 On ch=1 n=70 v=0
333590 On ch=1 n=62 v=0
333600 On ch=1 n=72 v=63
333600 On ch=1 n=65 v=63
333600 On ch=1 n=60 v=63
333600 On ch=1 n=53 v=63
333830 On ch=1 n=72 v=0
333830 On ch=1 n=65 v=0
333830 On ch=1 n=60 v=0
333830 On ch=1 n=53 v=0
333840 On ch=1 n=77 v=63
333840 On ch=1 n=84 v=63
333840 On ch=1 n=72 v=63
333950 On ch=1 n=77 v=0
333950 On ch=1 n=84 v=0
333950 On ch=1 n=72 v=0
333960 On ch=1 n=77 v=63
333960 On ch=1 n=84 v=63
333960 On ch=1 n=72 v=63
333960 On ch=1 n=53 v=63
333960 On ch=1 n=41 v=63
334190 On ch=1 n=53 v=0
334190 On ch=1 n=41 v=0
334320 On ch=1 n=60 v=63
334320 On ch=1 n=53 v=63
334550 On ch=1 n=53 v=0
334670 On ch=1 n=77 v=0
334670 On ch=1 n=84 v=0
334670 On ch=1 n=72 v=0
334670 On ch=1 n=60 v=0
334680 On ch=1 n=82 v=63
334680 On ch=1 n=86 v=63
334680 On ch=1 n=74 v=63
334680 On ch=1 n=62 v=63
334680 On ch=1 n=46 v=63
334910 On ch=1 n=82 v=0
334910 On ch=1 n=86 v=0
334910 On ch=1 n=74 v=0
334910 On ch=1 n=62 v=0
334910 On ch=1 n=46 v=0
334920 On ch=1 n=77 v=63
334920 On ch=1 n=82 v=63
334920 On ch=1 n=74 v=63
334920 On ch=1 n=58 v=63
335030 On ch=1 n=77 v=0
335030 On ch=1 n=82 v=0
335030 On ch=1 n=74 v=0
335030 On ch=1 n=58 v=0
335040 On ch=1 n=81 v=63
335040 On ch=1 n=84 v=63
335040 On ch=1 n=72 v=63
335040 On ch=1 n=60 v=63
335040 On ch=1 n=53 v=63
335270 On ch=1 n=81 v=0
335270 On ch=1 n=84 v=0
335270 On ch=1 n=72 v=0
335270 On ch=1 n=60 v=0
335270 On ch=1 n=53 v=0
335280 On ch=1 n=81 v=63
335280 On ch=1 n=84 v=63
335280 On ch=1 n=72 v=63
335390 On ch=1 n=81 v=0
335390 On ch=1 n=84 v=0
335390 On ch=1 n=72 v=0
335400 On ch=1 n=81 v=63
335400 On ch=1 n=84 v=63
335400 On ch=1 n=72 v=63
335400 On ch=1 n=53 v=63
335400 On ch=1 n=41 v=63
335630 On ch=1 n=53 v=0
335630 On ch=1 n=41 v=0
335750 On ch=1 n=72 v=0
335760 On ch=1 n=65 v=63
335760 On ch=1 n=53 v=63
335870 On ch=1 n=81 v=0
335870 On ch=1 n=84 v=0
335880 On ch=1 n=86 v=63
335880 On ch=1 n=82 v=63
335990 On ch=1 n=86 v=0
335990 On ch=1 n=82 v=0
335990 On ch=1 n=53 v=0
336000 On ch=1 n=84 v=63
336000 On ch=1 n=87 v=63
336000 On ch=1 n=81 v=63
336110 On ch=1 n=84 v=0
336110 On ch=1 n=87 v=0
336110 On ch=1 n=81 v=0
336120 On ch=1 n=86 v=63
336120 On ch=1 n=82 v=63
336120 On ch=1 n=58 v=63
336350 On ch=1 n=86 v=0
336350 On ch=1 n=82 v=0
336350 On ch=1 n=58 v=0
336360 On ch=1 n=82 v=63
336360 On ch=1 n=74 v=63
336470 On ch=1 n=82 v=0
336470 On ch=1 n=74 v=0
336470 On ch=1 n=65 v=0
336480 On ch=1 n=84 v=63
336480 On ch=1 n=81 v=63
336480 On ch=1 n=65 v=63
336480 On ch=1 n=53 v=63
336590 On ch=1 n=84 v=0
336590 On ch=1 n=81 v=0
336600 On ch=1 n=86 v=63
336600 On ch=1 n=82 v=63
336710 On ch=1 n=86 v=0
336710 On ch=1 n=82 v=0
336710 On ch=1 n=65 v=0
336710 On ch=1 n=53 v=0
336720 On ch=1 n=84 v=63
336720 On ch=1 n=87 v=63
336720 On ch=1 n=81 v=63
336830 On ch=1 n=84 v=0
336830 On ch=1 n=87 v=0
336830 On ch=1 n=81 v=0
336840 On ch=1 n=86 v=63
336840 On ch=1 n=82 v=63
336840 On ch=1 n=53 v=63
336840 On ch=1 n=46 v=63
337070 On ch=1 n=86 v=0
337070 On ch=1 n=82 v=0
337070 On ch=1 n=53 v=0
337070 On ch=1 n=46 v=0
337080 On ch=1 n=70 v=63
337080 On ch=1 n=62 v=63
337190 On ch=1 n=70 v=0
337190 On ch=1 n=62 v=0
337200 On ch=1 n=72 v=63
337200 On ch=1 n=69 v=63
337200 On ch=1 n=65 v=63
337200 On ch=1 n=53 v=63
337310 On ch=1 n=72 v=0
337310 On ch=1 n=69 v=0
337320 On ch=1 n=74 v=63
337320 On ch=1 n=70 v=63
337430 On ch=1 n=74 v=0
337430 On ch=1 n=70 v=0
337430 On ch=1 n=53 v=0
337440 On ch=1 n=72 v=63
337440 On ch=1 n=75 v=63
337440 On ch=1 n=69 v=63
337550 On ch=1 n=72 v=0
337550 On ch=1 n=75 v=0
337550 On ch=1 n=65 v=0
337550 On ch=1 n=69 v=0
337560 On ch=1 n=74 v=63
337560 On ch=1 n=70 v=63
337560 On ch=1 n=62 v=63
337560 On ch=1 n=53 v=63
337790 On ch=1 n=74 v=0
337790 On ch=1 n=70 v=0
337790 On ch=1 n=62 v=0
337790 On ch=1 n=53 v=0
337800 On ch=1 n=72 v=63
337800 On ch=1 n=69 v=63
337800 On ch=1 n=60 v=63
337910 On ch=1 n=60 v=0
337920 On ch=1 n=58 v=63
337920 On ch=1 n=48 v=63
338030 On ch=1 n=72 v=0
338030 On ch=1 n=69 v=0
338040 On ch=1 n=70 v=63
338040 On ch=1 n=67 v=63
338150 On ch=1 n=70 v=0
338150 On ch=1 n=67 v=0
338150 On ch=1 n=58 v=0
338150 On ch=1 n=48 v=0
338160 On ch=1 n=69 v=63
338160 On ch=1 n=65 v=63
338160 On ch=1 n=57 v=63
338270 On ch=1 n=69 v=0
338270 On ch=1 n=65 v=0
338270 On ch=1 n=57 v=0
338280 On ch=1 n=70 v=63
338280 On ch=1 n=67 v=63
338280 On ch=1 n=58 v=63
338280 On ch=1 n=48 v=63
338510 On ch=1 n=70 v=0
338510 On ch=1 n=67 v=0
338510 On ch=1 n=58 v=0
338510 On ch=1 n=48 v=0
338520 On ch=1 n=72 v=63
338520 On ch=1 n=64 v=63
338520 On ch=1 n=60 v=63
338630 On ch=1 n=72 v=0
338630 On ch=1 n=64 v=0
338630 On ch=1 n=60 v=0
338640 On ch=1 n=65 v=63
338640 On ch=1 n=63 v=63
338640 On ch=1 n=51 v=63
338750 On ch=1 n=65 v=0
338760 On ch=1 n=67 v=63
338870 On ch=1 n=67 v=0
338880 On ch=1 n=69 v=63
338990 On ch=1 n=69 v=0
338990 On ch=1 n=63 v=0
338990 On ch=1 n=51 v=0
339000 On ch=1 n=70 v=63
339000 On ch=1 n=65 v=63
339000 On ch=1 n=62 v=63
339000 On ch=1 n=50 v=63
339110 On ch=1 n=70 v=0
339120 On ch=1 n=72 v=63
339230 On ch=1 n=72 v=0
339230 On ch=1 n=62 v=0
339230 On ch=1 n=50 v=0
339240 On ch=1 n=74 v=63
339240 On ch=1 n=60 v=63
339240 On ch=1 n=48 v=63
339350 On ch=1 n=74 v=0
339350 On ch=1 n=65 v=0
339350 On ch=1 n=60 v=0
339350 On ch=1 n=48 v=0
339360 On ch=1 n=70 v=63
339360 On ch=1 n=74 v=63
339360 On ch=1 n=65 v=63
339360 On ch=1 n=62 v=63
339360 On ch=1 n=46 v=63
339590 On ch=1 n=70 v=0
339590 On ch=1 n=74 v=0
339590 On ch=1 n=65 v=0
339590 On ch=1 n=46 v=0
339600 On ch=1 n=82 v=63
339600 On ch=1 n=86 v=63
339600 On ch=1 n=74 v=63
339710 On ch=1 n=82 v=0
339710 On ch=1 n=86 v=0
339710 On ch=1 n=74 v=0
339710 On ch=1 n=62 v=0
339720 On ch=1 n=82 v=63
339720 On ch=1 n=86 v=63
339720 On ch=1 n=74 v=63
339720 On ch=1 n=58 v=63
339950 On ch=1 n=58 v=0
340080 On ch=1 n=62 v=63
340080 On ch=1 n=44 v=63
340310 On ch=1 n=82 v=0
340310 On ch=1 n=86 v=0
340310 On ch=1 n=74 v=0
340320 On ch=1 n=84 v=63
340320 On ch=1 n=87 v=63
340320 On ch=1 n=75 v=63
340430 On ch=1 n=84 v=0
340430 On ch=1 n=87 v=0
340430 On ch=1 n=75 v=0
340430 On ch=1 n=62 v=0
340430 On ch=1 n=44 v=0
340440 On ch=1 n=86 v=63
340440 On ch=1 n=89 v=63
340440 On ch=1 n=77 v=63
340440 On ch=1 n=60 v=63
340440 On ch=1 n=56 v=63
340670 On ch=1 n=60 v=0
340670 On ch=1 n=56 v=0
340680 On ch=1 n=58 v=63
340790 On ch=1 n=86 v=0
340790 On ch=1 n=58 v=0
340800 On ch=1 n=82 v=75
340800 On ch=1 n=63 v=75
340800 On ch=1 n=55 v=75
341030 On ch=1 n=82 v=0
341030 On ch=1 n=89 v=0
341030 On ch=1 n=77 v=0
341030 On ch=1 n=55 v=0
341040 On ch=1 n=82 v=75
341040 On ch=1 n=89 v=75
341040 On ch=1 n=77 v=75
341150 On ch=1 n=82 v=0
341150 On ch=1 n=89 v=0
341150 On ch=1 n=77 v=0
341150 On ch=1 n=63 v=0
341160 On ch=1 n=82 v=75
341160 On ch=1 n=87 v=75
341160 On ch=1 n=75 v=75
341160 On ch=1 n=63 v=75
341160 On ch=1 n=55 v=75
341390 On ch=1 n=63 v=0
341390 On ch=1 n=55 v=0
341400 On ch=1 n=65 v=75
341510 On ch=1 n=82 v=0
341510 On ch=1 n=65 v=0
341520 On ch=1 n=79 v=75
341520 On ch=1 n=67 v=75
341520 On ch=1 n=51 v=75
341750 On ch=1 n=79 v=0
341750 On ch=1 n=87 v=0
341750 On ch=1 n=75 v=0
341750 On ch=1 n=51 v=0
341760 On ch=1 n=79 v=75
341760 On ch=1 n=86 v=75
341760 On ch=1 n=74 v=75
341870 On ch=1 n=79 v=0
341870 On ch=1 n=86 v=0
341870 On ch=1 n=74 v=0
341870 On ch=1 n=67 v=0
341880 On ch=1 n=79 v=75
341880 On ch=1 n=84 v=75
341880 On ch=1 n=72 v=75
341880 On ch=1 n=67 v=75
341880 On ch=1 n=52 v=75
342110 On ch=1 n=52 v=0
342230 On ch=1 n=79 v=0
342230 On ch=1 n=67 v=0
342240 On ch=1 n=75 v=75
342240 On ch=1 n=53 v=75
342240 On ch=1 n=53 v=75
342470 On ch=1 n=75 v=0
342470 On ch=1 n=84 v=0
342470 On ch=1 n=72 v=0
342470 On ch=1 n=53 v=0
342480 On ch=1 n=74 v=75
342480 On ch=1 n=82 v=75
342480 On ch=1 n=70 v=75
342590 On ch=1 n=74 v=0
342590 On ch=1 n=82 v=0
342590 On ch=1 n=70 v=0
342590 On ch=1 n=53 v=0
342600 On ch=1 n=74 v=75
342600 On ch=1 n=82 v=75
342600 On ch=1 n=70 v=75
342600 On ch=1 n=53 v=75
342600 On ch=1 n=53 v=75
342830 On ch=1 n=53 v=0
342950 On ch=1 n=53 v=0
342960 On ch=1 n=65 v=75
342960 On ch=1 n=53 v=75
343190 On ch=1 n=74 v=0
343190 On ch=1 n=82 v=0
343190 On ch=1 n=70 v=0
343190 On ch=1 n=53 v=0
343200 On ch=1 n=77 v=75
343200 On ch=1 n=84 v=75
343200 On ch=1 n=72 v=75
343310 On ch=1 n=77 v=0
343310 On ch=1 n=84 v=0
343310 On ch=1 n=72 v=0
343320 On ch=1 n=82 v=75
343320 On ch=1 n=86 v=75
343320 On ch=1 n=74 v=75
343320 On ch=1 n=41 v=75
343550 On ch=1 n=41 v=0
343680 On ch=1 n=53 v=75
343910 On ch=1 n=82 v=0
343910 On ch=1 n=86 v=0
343910 On ch=1 n=74 v=0
343910 On ch=1 n=53 v=0
343920 On ch=1 n=77 v=75
343920 On ch=1 n=84 v=75
343920 On ch=1 n=72 v=75
344030 On ch=1 n=65 v=0
344030 On ch=1 n=77 v=0
344030 On ch=1 n=84 v=0
344030 On ch=1 n=72 v=0
344040 On ch=1 n=77 v=75
344040 On ch=1 n=84 v=75
344040 On ch=1 n=72 v=75
344040 On ch=1 n=63 v=75
344040 On ch=1 n=53 v=75
344270 On ch=1 n=77 v=0
344270 On ch=1 n=84 v=0
344270 On ch=1 n=72 v=0
344270 On ch=1 n=63 v=0
344270 On ch=1 n=53 v=0
344280 On ch=1 n=74 v=75
344280 On ch=1 n=82 v=75
344280 On ch=1 n=70 v=75
344280 On ch=1 n=62 v=75
344390 On ch=1 n=74 v=0
344390 On ch=1 n=82 v=0
344390 On ch=1 n=70 v=0
344390 On ch=1 n=62 v=0
344400 On ch=1 n=74 v=75
344400 On ch=1 n=82 v=75
344400 On ch=1 n=70 v=75
344400 On ch=1 n=62 v=75
344400 On ch=1 n=58 v=75
344630 On ch=1 n=74 v=0
344630 On ch=1 n=82 v=0
344630 On ch=1 n=70 v=0
344630 On ch=1 n=62 v=0
344630 On ch=1 n=58 v=0
344640 On ch=1 n=72 v=75
344640 On ch=1 n=65 v=75
344640 On ch=1 n=60 v=75
344640 On ch=1 n=57 v=75
344750 On ch=1 n=72 v=0
344750 On ch=1 n=65 v=0
344750 On ch=1 n=60 v=0
344750 On ch=1 n=57 v=0
344760 On ch=1 n=72 v=75
344760 On ch=1 n=65 v=75
344760 On ch=1 n=57 v=75
344760 On ch=1 n=60 v=75
344760 On ch=1 n=53 v=75
344990 On ch=1 n=72 v=0
344990 On ch=1 n=65 v=0
344990 On ch=1 n=57 v=0
344990 On ch=1 n=60 v=0
344990 On ch=1 n=53 v=0
345000 On ch=1 n=70 v=75
345000 On ch=1 n=62 v=75
345000 On ch=1 n=58 v=75
345110 On ch=1 n=70 v=0
345110 On ch=1 n=62 v=0
345110 On ch=1 n=58 v=0
345120 On ch=1 n=72 v=75
345120 On ch=1 n=65 v=75
345120 On ch=1 n=57 v=75
345120 On ch=1 n=60 v=75
345120 On ch=1 n=53 v=75
345350 On ch=1 n=72 v=0
345350 On ch=1 n=65 v=0
345350 On ch=1 n=57 v=0
345350 On ch=1 n=60 v=0
345350 On ch=1 n=53 v=0
345360 On ch=1 n=77 v=75
345360 On ch=1 n=84 v=75
345360 On ch=1 n=72 v=75
345470 On ch=1 n=77 v=0
345470 On ch=1 n=84 v=0
345470 On ch=1 n=72 v=0
345480 On ch=1 n=77 v=75
345480 On ch=1 n=84 v=75
345480 On ch=1 n=72 v=75
345480 On ch=1 n=53 v=75
345480 On ch=1 n=41 v=75
345710 On ch=1 n=53 v=0
345710 On ch=1 n=41 v=0
345840 On ch=1 n=60 v=75
345840 On ch=1 n=53 v=75
346070 On ch=1 n=53 v=0
346190 On ch=1 n=77 v=0
346190 On ch=1 n=84 v=0
346190 On ch=1 n=72 v=0
346190 On ch=1 n=60 v=0
346200 On ch=1 n=82 v=75
346200 On ch=1 n=86 v=75
346200 On ch=1 n=74 v=75
346200 On ch=1 n=62 v=75
346200 On ch=1 n=46 v=75
346430 On ch=1 n=82 v=0
346430 On ch=1 n=86 v=0
346430 On ch=1 n=74 v=0
346430 On ch=1 n=62 v=0
346430 On ch=1 n=46 v=0
346440 On ch=1 n=77 v=75
346440 On ch=1 n=82 v=75
346440 On ch=1 n=74 v=75
346440 On ch=1 n=58 v=75
346550 On ch=1 n=77 v=0
346550 On ch=1 n=82 v=0
346550 On ch=1 n=74 v=0
346550 On ch=1 n=58 v=0
346560 On ch=1 n=81 v=75
346560 On ch=1 n=84 v=75
346560 On ch=1 n=72 v=75
346560 On ch=1 n=60 v=75
346560 On ch=1 n=53 v=75
346790 On ch=1 n=81 v=0
346790 On ch=1 n=84 v=0
346790 On ch=1 n=72 v=0
346790 On ch=1 n=60 v=0
346790 On ch=1 n=53 v=0
346800 On ch=1 n=81 v=75
346800 On ch=1 n=84 v=75
346800 On ch=1 n=72 v=75
346910 On ch=1 n=81 v=0
346910 On ch=1 n=84 v=0
346910 On ch=1 n=72 v=0
346920 On ch=1 n=81 v=75
346920 On ch=1 n=84 v=75
346920 On ch=1 n=72 v=75
346920 On ch=1 n=53 v=75
346920 On ch=1 n=41 v=75
347150 On ch=1 n=53 v=0
347150 On ch=1 n=41 v=0
347270 On ch=1 n=72 v=0
347280 On ch=1 n=65 v=75
347280 On ch=1 n=53 v=75
347390 On ch=1 n=81 v=0
347390 On ch=1 n=84 v=0
347400 On ch=1 n=86 v=75
347400 On ch=1 n=82 v=75
347510 On ch=1 n=86 v=0
347510 On ch=1 n=82 v=0
347510 On ch=1 n=53 v=0
347520 On ch=1 n=84 v=75
347520 On ch=1 n=87 v=75
347520 On ch=1 n=81 v=75
347630 On ch=1 n=84 v=0
347630 On ch=1 n=87 v=0
347630 On ch=1 n=81 v=0
347640 On ch=1 n=86 v=75
347640 On ch=1 n=82 v=75
347640 On ch=1 n=58 v=75
347870 On ch=1 n=86 v=0
347870 On ch=1 n=82 v=0
347870 On ch=1 n=58 v=0
347880 On ch=1 n=82 v=75
347880 On ch=1 n=74 v=75
347990 On ch=1 n=82 v=0
347990 On ch=1 n=74 v=0
347990 On ch=1 n=65 v=0
348000 On ch=1 n=84 v=90
348000 On ch=1 n=81 v=90
348000 On ch=1 n=57 v=90
348000 On ch=1 n=60 v=90
348000 On ch=1 n=65 v=90
348000 On ch=1 n=53 v=90
348110 On ch=1 n=84 v=0
348110 On ch=1 n=81 v=0
348120 On ch=1 n=86 v=90
348120 On ch=1 n=82 v=90
348230 On ch=1 n=86 v=0
348230 On ch=1 n=82 v=0
348230 On ch=1 n=57 v=0
348230 On ch=1 n=60 v=0
348230 On ch=1 n=65 v=0
348230 On ch=1 n=53 v=0
348240 On ch=1 n=84 v=90
348240 On ch=1 n=87 v=90
348240 On ch=1 n=81 v=90
348350 On ch=1 n=84 v=0
348350 On ch=1 n=87 v=0
348350 On ch=1 n=81 v=0
348360 On ch=1 n=86 v=90
348360 On ch=1 n=82 v=90
348360 On ch=1 n=62 v=90
348360 On ch=1 n=65 v=90
348360 On ch=1 n=58 v=90
348590 On ch=1 n=86 v=0
348590 On ch=1 n=82 v=0
348590 On ch=1 n=62 v=0
348590 On ch=1 n=65 v=0
348590 On ch=1 n=58 v=0
348600 On ch=1 n=70 v=90
348710 On ch=1 n=70 v=0
348720 On ch=1 n=72 v=90
348720 On ch=1 n=69 v=90
348720 On ch=1 n=57 v=90
348720 On ch=1 n=60 v=90
348720 On ch=1 n=65 v=90
348720 On ch=1 n=53 v=90
348830 On ch=1 n=72 v=0
348830 On ch=1 n=69 v=0
348840 On ch=1 n=74 v=90
348840 On ch=1 n=70 v=90
348950 On ch=1 n=74 v=0
348950 On ch=1 n=70 v=0
348950 On ch=1 n=57 v=0
348950 On ch=1 n=60 v=0
348950 On ch=1 n=65 v=0
348950 On ch=1 n=53 v=0
348960 On ch=1 n=72 v=90
348960 On ch=1 n=75 v=90
348960 On ch=1 n=69 v=90
349070 On ch=1 n=72 v=0
349070 On ch=1 n=75 v=0
349070 On ch=1 n=69 v=0
349080 On ch=1 n=74 v=90
349080 On ch=1 n=70 v=90
349080 On ch=1 n=62 v=90
349080 On ch=1 n=58 v=90
349080 On ch=1 n=53 v=90
349310 On ch=1 n=74 v=0
349310 On ch=1 n=70 v=0
349310 On ch=1 n=62 v=0
349310 On ch=1 n=58 v=0
349310 On ch=1 n=53 v=0
349320 On ch=1 n=72 v=90
349320 On ch=1 n=69 v=90
349320 On ch=1 n=60 v=90
349320 On ch=1 n=57 v=90
349430 On ch=1 n=60 v=0
349430 On ch=1 n=57 v=0
349440 On ch=1 n=58 v=90
349440 On ch=1 n=55 v=90
349440 On ch=1 n=48 v=90
349550 On ch=1 n=72 v=0
349550 On ch=1 n=69 v=0
349560 On ch=1 n=70 v=90
349560 On ch=1 n=67 v=90
349670 On ch=1 n=70 v=0
349670 On ch=1 n=67 v=0
349670 On ch=1 n=58 v=0
349670 On ch=1 n=55 v=0
349670 On ch=1 n=48 v=0
349680 On ch=1 n=69 v=90
349680 On ch=1 n=65 v=90
349680 On ch=1 n=57 v=90
349680 On ch=1 n=53 v=90
349790 On ch=1 n=69 v=0
349790 On ch=1 n=65 v=0
349790 On ch=1 n=57 v=0
349790 On ch=1 n=53 v=0
349800 On ch=1 n=70 v=90
349800 On ch=1 n=67 v=90
349800 On ch=1 n=58 v=90
349800 On ch=1 n=55 v=90
349800 On ch=1 n=48 v=90
350030 On ch=1 n=70 v=0
350030 On ch=1 n=67 v=0
350030 On ch=1 n=58 v=0
350030 On ch=1 n=55 v=0
350030 On ch=1 n=48 v=0
350040 On ch=1 n=72 v=90
350040 On ch=1 n=64 v=90
350040 On ch=1 n=60 v=90
350150 On ch=1 n=72 v=0
350150 On ch=1 n=64 v=0
350150 On ch=1 n=60 v=0
350160 On ch=1 n=77 v=90
350160 On ch=1 n=65 v=90
350160 On ch=1 n=63 v=90
350160 On ch=1 n=51 v=90
350270 On ch=1 n=77 v=0
350270 On ch=1 n=65 v=0
350280 On ch=1 n=79 v=90
350280 On ch=1 n=67 v=90
350390 On ch=1 n=79 v=0
350390 On ch=1 n=67 v=0
350400 On ch=1 n=81 v=90
350400 On ch=1 n=69 v=90
350510 On ch=1 n=81 v=0
350510 On ch=1 n=69 v=0
350510 On ch=1 n=63 v=0
350510 On ch=1 n=51 v=0
350520 On ch=1 n=82 v=90
350520 On ch=1 n=70 v=90
350520 On ch=1 n=62 v=90
350520 On ch=1 n=50 v=90
350630 On ch=1 n=82 v=0
350630 On ch=1 n=70 v=0
350640 On ch=1 n=84 v=90
350640 On ch=1 n=72 v=90
350750 On ch=1 n=84 v=0
350750 On ch=1 n=72 v=0
350750 On ch=1 n=62 v=0
350750 On ch=1 n=50 v=0
350760 On ch=1 n=86 v=90
350760 On ch=1 n=74 v=90
350760 On ch=1 n=60 v=90
350760 On ch=1 n=48 v=90
350870 On ch=1 n=86 v=0
350870 On ch=1 n=74 v=0
350870 On ch=1 n=60 v=0
350870 On ch=1 n=48 v=0
350880 On ch=1 n=86 v=90
350880 On ch=1 n=74 v=90
350880 On ch=1 n=58 v=90
350880 On ch=1 n=46 v=90
351110 On ch=1 n=86 v=0
351110 On ch=1 n=74 v=0
351110 On ch=1 n=58 v=0
351110 On ch=1 n=46 v=0
351120 On ch=1 n=82 v=90
351120 On ch=1 n=86 v=90
351120 On ch=1 n=74 v=90
351120 On ch=1 n=58 v=90
351230 On ch=1 n=82 v=0
351230 On ch=1 n=86 v=0
351230 On ch=1 n=74 v=0
351230 On ch=1 n=58 v=0
351240 On ch=1 n=82 v=90
351240 On ch=1 n=86 v=90
351240 On ch=1 n=74 v=90
351240 On ch=1 n=60 v=90
351470 On ch=1 n=60 v=0
351480 On ch=1 n=58 v=90
351590 On ch=1 n=58 v=0
351600 On ch=1 n=60 v=90
351600 On ch=1 n=44 v=90
351830 On ch=1 n=82 v=0
351830 On ch=1 n=86 v=0
351830 On ch=1 n=74 v=0
351830 On ch=1 n=60 v=0
351830 On ch=1 n=44 v=0
351840 On ch=1 n=84 v=90
351840 On ch=1 n=87 v=90
351840 On ch=1 n=75 v=90
351840 On ch=1 n=58 v=90
351950 On ch=1 n=84 v=0
351950 On ch=1 n=87 v=0
351950 On ch=1 n=75 v=0
351950 On ch=1 n=58 v=0
351960 On ch=1 n=86 v=90
351960 On ch=1 n=89 v=90
351960 On ch=1 n=77 v=90
351960 On ch=1 n=62 v=90
351960 On ch=1 n=56 v=90
352190 On ch=1 n=62 v=0
352190 On ch=1 n=56 v=0
352200 On ch=1 n=58 v=90
352310 On ch=1 n=86 v=0
352310 On ch=1 n=58 v=0
352320 On ch=1 n=82 v=90
352320 On ch=1 n=63 v=90
352320 On ch=1 n=55 v=90
352550 On ch=1 n=82 v=0
352550 On ch=1 n=89 v=0
352550 On ch=1 n=77 v=0
352550 On ch=1 n=63 v=0
352550 On ch=1 n=55 v=0
352560 On ch=1 n=89 v=90
352560 On ch=1 n=77 v=90
352560 On ch=1 n=58 v=90
352670 On ch=1 n=89 v=0
352670 On ch=1 n=77 v=0
352670 On ch=1 n=58 v=0
352680 On ch=1 n=87 v=90
352680 On ch=1 n=75 v=90
352680 On ch=1 n=60 v=90
352680 On ch=1 n=55 v=90
352910 On ch=1 n=60 v=0
352910 On ch=1 n=55 v=0
352920 On ch=1 n=62 v=90
352920 On ch=1 n=53 v=90
353030 On ch=1 n=62 v=0
353030 On ch=1 n=53 v=0
353040 On ch=1 n=79 v=90
353040 On ch=1 n=63 v=90
353040 On ch=1 n=51 v=90
353270 On ch=1 n=87 v=0
353270 On ch=1 n=75 v=0
353270 On ch=1 n=79 v=0
353270 On ch=1 n=63 v=0
353270 On ch=1 n=51 v=0
353280 On ch=1 n=79 v=90
353280 On ch=1 n=86 v=90
353280 On ch=1 n=74 v=90
353280 On ch=1 n=65 v=90
353390 On ch=1 n=79 v=0
353390 On ch=1 n=86 v=0
353390 On ch=1 n=74 v=0
353390 On ch=1 n=65 v=0
353400 On ch=1 n=79 v=90
353400 On ch=1 n=84 v=90
353400 On ch=1 n=72 v=90
353400 On ch=1 n=67 v=90
353400 On ch=1 n=52 v=90
353630 On ch=1 n=67 v=0
353630 On ch=1 n=52 v=0
353750 On ch=1 n=79 v=0
353760 On ch=1 n=75 v=90
353760 On ch=1 n=53 v=90
353760 On ch=1 n=41 v=90
353990 On ch=1 n=75 v=0
353990 On ch=1 n=84 v=0
353990 On ch=1 n=72 v=0
353990 On ch=1 n=41 v=0
354000 On ch=1 n=74 v=90
354000 On ch=1 n=82 v=90
354000 On ch=1 n=70 v=90
354110 On ch=1 n=74 v=0
354110 On ch=1 n=82 v=0
354110 On ch=1 n=70 v=0
354110 On ch=1 n=53 v=0
354120 On ch=1 n=74 v=90
354120 On ch=1 n=82 v=90
354120 On ch=1 n=70 v=90
354120 On ch=1 n=55 v=90
354350 On ch=1 n=55 v=0
354360 On ch=1 n=57 v=90
354470 On ch=1 n=57 v=0
354480 On ch=1 n=58 v=90
354480 On ch=1 n=53 v=90
354710 On ch=1 n=74 v=0
354710 On ch=1 n=82 v=0
354710 On ch=1 n=70 v=0
354710 On ch=1 n=58 v=0
354710 On ch=1 n=53 v=0
354720 On ch=1 n=77 v=90
354720 On ch=1 n=84 v=90
354720 On ch=1 n=72 v=90
354720 On ch=1 n=60 v=90
354830 On ch=1 n=77 v=0
354830 On ch=1 n=84 v=0
354830 On ch=1 n=72 v=0
354830 On ch=1 n=60 v=0
354840 On ch=1 n=82 v=90
354840 On ch=1 n=86 v=90
354840 On ch=1 n=74 v=90
354840 On ch=1 n=62 v=90
354840 On ch=1 n=53 v=90
355070 On ch=1 n=62 v=0
355070 On ch=1 n=53 v=0
355080 On ch=1 n=63 v=90
355190 On ch=1 n=63 v=0
355200 On ch=1 n=53 v=90
355200 On ch=1 n=53 v=90
355430 On ch=1 n=82 v=0
355430 On ch=1 n=86 v=0
355430 On ch=1 n=74 v=0
355430 On ch=1 n=53 v=0
355440 On ch=1 n=77 v=90
355440 On ch=1 n=84 v=90
355440 On ch=1 n=72 v=90
355550 On ch=1 n=77 v=0
355550 On ch=1 n=84 v=0
355550 On ch=1 n=72 v=0
355550 On ch=1 n=53 v=0
355560 On ch=1 n=77 v=90
355560 On ch=1 n=84 v=90
355560 On ch=1 n=72 v=90
355560 On ch=1 n=53 v=90
355560 On ch=1 n=53 v=90
355790 On ch=1 n=77 v=0
355790 On ch=1 n=84 v=0
355790 On ch=1 n=72 v=0
355790 On ch=1 n=53 v=0
355800 On ch=1 n=74 v=90
355800 On ch=1 n=82 v=90
355800 On ch=1 n=70 v=90
355910 On ch=1 n=74 v=0
355910 On ch=1 n=82 v=0
355910 On ch=1 n=70 v=0
355910 On ch=1 n=53 v=0
355920 On ch=1 n=74 v=90
355920 On ch=1 n=82 v=90
355920 On ch=1 n=70 v=90
355920 On ch=1 n=62 v=90
355920 On ch=1 n=65 v=90
355920 On ch=1 n=58 v=90
356150 On ch=1 n=74 v=0
356150 On ch=1 n=82 v=0
356150 On ch=1 n=70 v=0
356150 On ch=1 n=62 v=0
356150 On ch=1 n=65 v=0
356150 On ch=1 n=58 v=0
356160 On ch=1 n=69 v=90
356160 On ch=1 n=72 v=90
356160 On ch=1 n=77 v=90
356160 On ch=1 n=65 v=90
356160 On ch=1 n=60 v=90
356160 On ch=1 n=63 v=90
356160 On ch=1 n=53 v=90
356270 On ch=1 n=69 v=0
356270 On ch=1 n=72 v=0
356270 On ch=1 n=77 v=0
356270 On ch=1 n=65 v=0
356270 On ch=1 n=60 v=0
356270 On ch=1 n=63 v=0
356270 On ch=1 n=53 v=0
356280 On ch=1 n=77 v=90
356280 On ch=1 n=65 v=90
356280 On ch=1 n=72 v=90
356280 On ch=1 n=69 v=90
356280 On ch=1 n=60 v=90
356280 On ch=1 n=63 v=90
356280 On ch=1 n=53 v=90
356510 On ch=1 n=72 v=0
356510 On ch=1 n=69 v=0
356510 On ch=1 n=60 v=0
356510 On ch=1 n=63 v=0
356510 On ch=1 n=53 v=0
356520 On ch=1 n=70 v=90
356520 On ch=1 n=65 v=90
356520 On ch=1 n=62 v=90
356520 On ch=1 n=58 v=90
356630 On ch=1 n=70 v=0
356630 On ch=1 n=65 v=0
356630 On ch=1 n=62 v=0
356630 On ch=1 n=58 v=0
356640 On ch=1 n=70 v=110
356640 On ch=1 n=70 v=110
356640 On ch=1 n=65 v=110
356640 On ch=1 n=62 v=110
356640 On ch=1 n=58 v=110
356755 Par ch=1 c=64 v=127
356870 On ch=1 n=77 v=0
356870 On ch=1 n=65 v=0
356870 On ch=1 n=70 v=0
356870 On ch=1 n=70 v=0
356870 On ch=1 n=65 v=0
356870 On ch=1 n=62 v=0
356870 On ch=1 n=58 v=0
356880 On ch=1 n=72 v=110
356880 On ch=1 n=75 v=110
356880 On ch=1 n=63 v=110
356990 On ch=1 n=72 v=0
356990 On ch=1 n=75 v=0
356990 On ch=1 n=63 v=0
357000 On ch=1 n=70 v=110
357000 On ch=1 n=74 v=110
357000 On ch=1 n=62 v=110
357000 On ch=1 n=53 v=110
357000 On ch=1 n=58 v=110
357000 On ch=1 n=46 v=110
357230 On ch=1 n=53 v=0
357230 On ch=1 n=58 v=0
357230 On ch=1 n=46 v=0
357360 On ch=1 n=46 v=110
357360 On ch=1 n=34 v=110
357517 Par ch=1 c=64 v=0
357590 On ch=1 n=70 v=0
357590 On ch=1 n=74 v=0
357590 On ch=1 n=62 v=0
357590 On ch=1 n=46 v=0
357590 On ch=1 n=34 v=0
357600 On ch=1 n=74 v=110
357600 On ch=1 n=82 v=110
357600 On ch=1 n=70 v=110
357710 On ch=1 n=74 v=0
357710 On ch=1 n=82 v=0
357710 On ch=1 n=70 v=0
357720 On ch=1 n=74 v=110
357720 On ch=1 n=82 v=110
357720 On ch=1 n=70 v=110
357720 On ch=1 n=58 v=110
357720 On ch=1 n=62 v=110
357720 On ch=1 n=53 v=110
357815 Par ch=1 c=64 v=127
357950 On ch=1 n=58 v=0
357950 On ch=1 n=62 v=0
357950 On ch=1 n=53 v=0
358070 On ch=1 n=74 v=0
358080 On ch=1 n=79 v=110
358080 On ch=1 n=51 v=110
358080 On ch=1 n=39 v=110
358239 Par ch=1 c=64 v=0
358310 On ch=1 n=79 v=0
358310 On ch=1 n=82 v=0
358310 On ch=1 n=70 v=0
358310 On ch=1 n=51 v=0
358310 On ch=1 n=39 v=0
358318 Par ch=1 c=64 v=127
358320 On ch=1 n=77 v=110
358320 On ch=1 n=80 v=110
358320 On ch=1 n=68 v=110
358430 On ch=1 n=77 v=0
358430 On ch=1 n=80 v=0
358430 On ch=1 n=68 v=0
358440 On ch=1 n=75 v=110
358440 On ch=1 n=79 v=110
358440 On ch=1 n=67 v=110
358440 On ch=1 n=58 v=110
358440 On ch=1 n=63 v=110
358440 On ch=1 n=51 v=110
358670 On ch=1 n=58 v=0
358670 On ch=1 n=63 v=0
358670 On ch=1 n=51 v=0
358707 Par ch=1 c=64 v=0
358744 Par ch=1 c=64 v=127
358790 On ch=1 n=67 v=0
358800 On ch=1 n=67 v=110
358800 On ch=1 n=51 v=110
359030 On ch=1 n=75 v=0
359030 On ch=1 n=79 v=0
359030 On ch=1 n=51 v=0
359040 On ch=1 n=87 v=110
359040 On ch=1 n=75 v=110
359076 Par ch=1 c=64 v=0
359141 Par ch=1 c=64 v=127
359150 On ch=1 n=87 v=0
359150 On ch=1 n=75 v=0
359160 On ch=1 n=87 v=110
359160 On ch=1 n=75 v=110
359160 Par ch=1 c=64 v=0
359333 Par ch=1 c=64 v=127
359390 On ch=1 n=87 v=0
359390 On ch=1 n=75 v=0
359390 On ch=1 n=67 v=0
359400 On ch=1 n=84 v=110
359400 On ch=1 n=72 v=110
359400 On ch=1 n=63 v=110
359510 On ch=1 n=84 v=0
359510 On ch=1 n=72 v=0
359510 On ch=1 n=63 v=0
359520 On ch=1 n=84 v=110
359520 On ch=1 n=72 v=110
359520 On ch=1 n=63 v=110
359520 On ch=1 n=41 v=110
359630 On ch=1 n=84 v=0
359630 On ch=1 n=63 v=0
359640 On ch=1 n=82 v=110
359640 On ch=1 n=62 v=110
359740 Par ch=1 c=64 v=0
359750 On ch=1 n=82 v=0
359750 On ch=1 n=72 v=0
359750 On ch=1 n=62 v=0
359750 On ch=1 n=41 v=0
359760 On ch=1 n=81 v=110
359760 On ch=1 n=60 v=110
359814 Par ch=1 c=64 v=127
359870 On ch=1 n=81 v=0
359870 On ch=1 n=60 v=0
359880 On ch=1 n=84 v=110
359880 On ch=1 n=72 v=110
359880 On ch=1 n=63 v=110
360110 On ch=1 n=84 v=0
360110 On ch=1 n=72 v=0
360110 On ch=1 n=63 v=0
360120 On ch=1 n=81 v=110
360120 On ch=1 n=60 v=110
360210 Par ch=1 c=64 v=0
360230 On ch=1 n=81 v=0
360230 On ch=1 n=60 v=0
360240 On ch=1 n=81 v=110
360240 On ch=1 n=69 v=110
360240 On ch=1 n=60 v=110
360240 On ch=1 n=53 v=110
360332 Par ch=1 c=64 v=127
360350 On ch=1 n=81 v=0
360350 On ch=1 n=60 v=0
360360 On ch=1 n=79 v=110
360360 On ch=1 n=58 v=110
360470 On ch=1 n=79 v=0
360470 On ch=1 n=69 v=0
360470 On ch=1 n=58 v=0
360470 On ch=1 n=53 v=0
360480 On ch=1 n=77 v=110
360480 On ch=1 n=57 v=110
360590 On ch=1 n=77 v=0
360590 On ch=1 n=57 v=0
360600 On ch=1 n=79 v=110
360600 On ch=1 n=67 v=110
360600 On ch=1 n=58 v=110
360830 On ch=1 n=79 v=0
360830 On ch=1 n=67 v=0
360830 On ch=1 n=58 v=0
360840 On ch=1 n=81 v=110
360840 On ch=1 n=69 v=110
360840 On ch=1 n=60 v=110
360854 Par ch=1 c=64 v=0
360950 On ch=1 n=81 v=0
360950 On ch=1 n=69 v=0
360950 On ch=1 n=60 v=0
360960 On ch=1 n=82 v=110
360960 On ch=1 n=70 v=110
360960 On ch=1 n=62 v=110
360960 On ch=1 n=58 v=110
361070 On ch=1 n=82 v=0
361070 On ch=1 n=70 v=0
361070 On ch=1 n=62 v=0
361080 On ch=1 n=84 v=110
361080 On ch=1 n=72 v=110
361080 On ch=1 n=63 v=110
361190 On ch=1 n=84 v=0
361190 On ch=1 n=72 v=0
361190 On ch=1 n=63 v=0
361190 On ch=1 n=58 v=0
361200 On ch=1 n=86 v=110
361200 On ch=1 n=74 v=110
361200 On ch=1 n=65 v=110
361310 On ch=1 n=74 v=0
361310 On ch=1 n=65 v=0
361320 On ch=1 n=77 v=110
361320 On ch=1 n=67 v=110
361320 On ch=1 n=53 v=110
361430 On ch=1 n=86 v=0
361430 On ch=1 n=77 v=0
361440 On ch=1 n=84 v=110
361440 On ch=1 n=75 v=110
361550 On ch=1 n=84 v=0
361550 On ch=1 n=75 v=0
361550 On ch=1 n=67 v=0
361550 On ch=1 n=53 v=0
361560 On ch=1 n=81 v=110
361560 On ch=1 n=72 v=110
361560 On ch=1 n=69 v=110
361670 On ch=1 n=81 v=0
361670 On ch=1 n=72 v=0
361670 On ch=1 n=69 v=0
361680 On ch=1 n=82 v=110
361680 On ch=1 n=74 v=110
361680 On ch=1 n=70 v=110
361680 On ch=1 n=58 v=110
361790 On ch=1 n=82 v=0
361790 On ch=1 n=74 v=0
361800 On ch=1 n=84 v=110
361800 On ch=1 n=75 v=110
361910 On ch=1 n=84 v=0
361910 On ch=1 n=75 v=0
361910 On ch=1 n=70 v=0
361910 On ch=1 n=58 v=0
361920 On ch=1 n=86 v=110
361920 On ch=1 n=77 v=110
361920 On ch=1 n=65 v=110
362030 On ch=1 n=65 v=0
362040 On ch=1 n=67 v=110
362040 On ch=1 n=53 v=110
362150 On ch=1 n=86 v=0
362150 On ch=1 n=77 v=0
362160 On ch=1 n=84 v=110
362160 On ch=1 n=75 v=110
362270 On ch=1 n=84 v=0
362270 On ch=1 n=75 v=0
362270 On ch=1 n=67 v=0
362270 On ch=1 n=53 v=0
362280 On ch=1 n=81 v=110
362280 On ch=1 n=72 v=110
362280 On ch=1 n=69 v=110
362390 On ch=1 n=81 v=0
362390 On ch=1 n=72 v=0
362390 On ch=1 n=69 v=0
362400 On ch=1 n=82 v=110
362400 On ch=1 n=70 v=110
362400 On ch=1 n=50 v=110
362400 On ch=1 n=46 v=110
362510 On ch=1 n=50 v=0
362514 Par ch=1 c=64 v=127
362520 On ch=1 n=50 v=110
362630 On ch=1 n=82 v=0
362630 On ch=1 n=70 v=0
362630 On ch=1 n=50 v=0
362630 On ch=1 n=46 v=0
362640 On ch=1 n=58 v=110
362640 On ch=1 n=50 v=110
362750 On ch=1 n=58 v=0
362750 On ch=1 n=50 v=0
362760 On ch=1 n=58 v=110
362760 On ch=1 n=50 v=110
362870 On ch=1 n=50 v=0
362880 On ch=1 n=51 v=110
362990 On ch=1 n=51 v=0
363000 On ch=1 n=53 v=110
363110 On ch=1 n=53 v=0
363120 On ch=1 n=53 v=110
363153 Par ch=1 c=64 v=0
363230 On ch=1 n=53 v=0
363240 On ch=1 n=55 v=110
363350 On ch=1 n=58 v=0
363350 On ch=1 n=55 v=0
363360 On ch=1 n=60 v=110
363360 On ch=1 n=53 v=110
363470 On ch=1 n=60 v=0
363470 On ch=1 n=53 v=0
363480 On ch=1 n=60 v=110
363480 On ch=1 n=51 v=110
363590 On ch=1 n=51 v=0
363600 On ch=1 n=50 v=110
363710 On ch=1 n=50 v=0
363720 On ch=1 n=48 v=110
363830 On ch=1 n=48 v=0
363840 On ch=1 n=46 v=110
363950 On ch=1 n=46 v=0
363960 On ch=1 n=45 v=110
364070 On ch=1 n=60 v=0
364070 On ch=1 n=45 v=0
364080 On ch=1 n=62 v=110
364080 On ch=1 n=46 v=110
364190 On ch=1 n=62 v=0
364190 On ch=1 n=46 v=0
364200 On ch=1 n=67 v=110
364200 On ch=1 n=47 v=110
364310 On ch=1 n=47 v=0
364320 On ch=1 n=48 v=110
364430 On ch=1 n=67 v=0
364430 On ch=1 n=48 v=0
364440 On ch=1 n=65 v=110
364440 On ch=1 n=50 v=110
364550 On ch=1 n=65 v=0
364550 On ch=1 n=50 v=0
364560 On ch=1 n=63 v=110
364560 On ch=1 n=48 v=110
364670 On ch=1 n=48 v=0
364680 On ch=1 n=41 v=110
364790 On ch=1 n=63 v=0
364790 On ch=1 n=41 v=0
364800 On ch=1 n=41 v=110
364910 On ch=1 n=41 v=0
364920 On ch=1 n=62 v=110
364920 On ch=1 n=46 v=110
365030 On ch=1 n=46 v=0
365040 On ch=1 n=58 v=110
365150 On ch=1 n=62 v=0
365150 On ch=1 n=58 v=0
365160 On ch=1 n=58 v=110
365270 On ch=1 n=58 v=0
365280 On ch=1 n=81 v=110
365280 On ch=1 n=69 v=110
365280 On ch=1 n=60 v=110
365280 On ch=1 n=53 v=110
365381 Par ch=1 c=64 v=127
365390 On ch=1 n=81 v=0
365390 On ch=1 n=69 v=0
365400 On ch=1 n=81 v=110
365400 On ch=1 n=69 v=110
365510 On ch=1 n=81 v=0
365510 On ch=1 n=69 v=0
365510 On ch=1 n=60 v=0
365510 On ch=1 n=53 v=0
365520 On ch=1 n=81 v=110
365520 On ch=1 n=69 v=110
365520 On ch=1 n=57 v=110
365520 On ch=1 n=65 v=110
365520 On ch=1 n=53 v=110
365630 On ch=1 n=81 v=0
365630 On ch=1 n=69 v=0
365630 On ch=1 n=57 v=0
365630 On ch=1 n=65 v=0
365630 On ch=1 n=53 v=0
365640 On ch=1 n=81 v=110
365640 On ch=1 n=69 v=110
365640 On ch=1 n=57 v=110
365640 On ch=1 n=65 v=110
365640 On ch=1 n=53 v=110
365750 On ch=1 n=81 v=0
365750 On ch=1 n=69 v=0
365760 On ch=1 n=82 v=110
365760 On ch=1 n=70 v=110
365870 On ch=1 n=82 v=0
365870 On ch=1 n=70 v=0
365880 On ch=1 n=84 v=110
365880 On ch=1 n=72 v=110
365972 Par ch=1 c=64 v=0
365990 On ch=1 n=84 v=0
365990 On ch=1 n=72 v=0
365990 On ch=1 n=57 v=0
365990 On ch=1 n=65 v=0
365990 On ch=1 n=53 v=0
366000 On ch=1 n=84 v=110
366000 On ch=1 n=72 v=110
366110 On ch=1 n=84 v=0
366110 On ch=1 n=72 v=0
366120 On ch=1 n=86 v=110
366120 On ch=1 n=74 v=110
366230 On ch=1 n=86 v=0
366230 On ch=1 n=74 v=0
366240 On ch=1 n=84 v=110
366240 On ch=1 n=72 v=110
366240 On ch=1 n=58 v=110
366240 On ch=1 n=65 v=110
366240 On ch=1 n=55 v=110
366350 On ch=1 n=84 v=0
366350 On ch=1 n=72 v=0
366350 On ch=1 n=58 v=0
366350 On ch=1 n=65 v=0
366350 On ch=1 n=55 v=0
366360 On ch=1 n=82 v=110
366360 On ch=1 n=70 v=110
366360 On ch=1 n=58 v=110
366360 On ch=1 n=65 v=110
366360 On ch=1 n=55 v=110
366470 On ch=1 n=82 v=0
366470 On ch=1 n=70 v=0
366480 On ch=1 n=81 v=110
366590 On ch=1 n=81 v=0
366600 On ch=1 n=79 v=110
366710 On ch=1 n=79 v=0
366720 On ch=1 n=77 v=110
366830 On ch=1 n=77 v=0
366840 On ch=1 n=76 v=110
366950 On ch=1 n=76 v=0
366950 On ch=1 n=58 v=0
366950 On ch=1 n=65 v=0
366950 On ch=1 n=55 v=0
366960 On ch=1 n=77 v=110
366960 On ch=1 n=69 v=110
366960 On ch=1 n=60 v=110
366960 On ch=1 n=57 v=110
367070 On ch=1 n=77 v=0
367070 On ch=1 n=69 v=0
367070 On ch=1 n=60 v=0
367070 On ch=1 n=57 v=0
367080 On ch=1 n=77 v=110
367080 On ch=1 n=69 v=110
367080 On ch=1 n=65 v=110
367080 On ch=1 n=62 v=110
367190 On ch=1 n=77 v=0
367190 On ch=1 n=69 v=0
367200 On ch=1 n=79 v=110
367310 On ch=1 n=79 v=0
367310 On ch=1 n=65 v=0
367310 On ch=1 n=62 v=0
367320 On ch=1 n=81 v=110
367320 On ch=1 n=69 v=110
367320 On ch=1 n=65 v=110
367320 On ch=1 n=60 v=110
367430 On ch=1 n=81 v=0
367430 On ch=1 n=69 v=0
367430 On ch=1 n=65 v=0
367430 On ch=1 n=60 v=0
367440 On ch=1 n=79 v=110
367440 On ch=1 n=67 v=110
367440 On ch=1 n=64 v=110
367440 On ch=1 n=58 v=110
367550 On ch=1 n=79 v=0
367550 On ch=1 n=67 v=0
367560 On ch=1 n=72 v=110
367670 On ch=1 n=72 v=0
367670 On ch=1 n=64 v=0
367670 On ch=1 n=58 v=0
367680 On ch=1 n=72 v=110
367790 On ch=1 n=72 v=0
367800 On ch=1 n=77 v=110
367800 On ch=1 n=72 v=110
367800 On ch=1 n=60 v=110
367800 On ch=1 n=65 v=110
367800 On ch=1 n=57 v=110
367910 On ch=1 n=77 v=0
367910 On ch=1 n=72 v=0
367920 On ch=1 n=65 v=110
368030 On ch=1 n=65 v=0
368030 On ch=1 n=60 v=0
368030 On ch=1 n=65 v=0
368030 On ch=1 n=57 v=0
368040 On ch=1 n=65 v=110
368150 On ch=1 n=65 v=0
368160 On ch=1 n=77 v=110
368160 On ch=1 n=65 v=110
368160 On ch=1 n=58 v=110
368160 On ch=1 n=57 v=110
368270 On ch=1 n=77 v=0
368270 On ch=1 n=65 v=0
368280 On ch=1 n=70 v=110
368390 On ch=1 n=70 v=0
368390 On ch=1 n=58 v=0
368390 On ch=1 n=57 v=0
368400 On ch=1 n=70 v=110
368510 On ch=1 n=70 v=0
368520 On ch=1 n=75 v=110
368520 On ch=1 n=70 v=110
368520 On ch=1 n=58 v=110
368520 On ch=1 n=63 v=110
368520 On ch=1 n=55 v=110
368630 On ch=1 n=75 v=0
368630 On ch=1 n=70 v=0
368640 On ch=1 n=63 v=110
368750 On ch=1 n=63 v=0
368750 On ch=1 n=58 v=0
368750 On ch=1 n=63 v=0
368750 On ch=1 n=55 v=0
368760 On ch=1 n=63 v=110
368870 On ch=1 n=63 v=0
368880 On ch=1 n=75 v=110
368880 On ch=1 n=63 v=110
368880 On ch=1 n=57 v=110
368880 On ch=1 n=55 v=110
368990 On ch=1 n=75 v=0
368990 On ch=1 n=63 v=0
369000 On ch=1 n=69 v=110
369110 On ch=1 n=69 v=0
369110 On ch=1 n=57 v=0
369110 On ch=1 n=55 v=0
369120 On ch=1 n=69 v=110
369230 On ch=1 n=69 v=0
369240 On ch=1 n=74 v=110
369240 On ch=1 n=69 v=110
369240 On ch=1 n=57 v=110
369240 On ch=1 n=62 v=110
369240 On ch=1 n=54 v=110
369350 On ch=1 n=74 v=0
369350 On ch=1 n=69 v=0
369360 On ch=1 n=62 v=110
369470 On ch=1 n=62 v=0
369470 On ch=1 n=57 v=0
369470 On ch=1 n=62 v=0
369470 On ch=1 n=54 v=0
369480 On ch=1 n=62 v=110
369590 On ch=1 n=62 v=0
369600 On ch=1 n=74 v=110
369600 On ch=1 n=71 v=110
369600 On ch=1 n=62 v=110
369600 On ch=1 n=55 v=110
369710 On ch=1 n=74 v=0
369710 On ch=1 n=71 v=0
369710 On ch=1 n=62 v=0
369710 On ch=1 n=55 v=0
369720 On ch=1 n=71 v=110
369726 Par ch=1 c=64 v=127
369830 On ch=1 n=71 v=0
369840 On ch=1 n=83 v=110
369840 On ch=1 n=79 v=110
369840 On ch=1 n=71 v=110
369950 On ch=1 n=83 v=0
369950 On ch=1 n=79 v=0
369950 On ch=1 n=71 v=0
369960 On ch=1 n=83 v=110
369960 On ch=1 n=79 v=110
369960 On ch=1 n=71 v=110
370070 On ch=1 n=71 v=0
370080 On ch=1 n=72 v=110
370190 On ch=1 n=72 v=0
370200 On ch=1 n=74 v=110
370257 Par ch=1 c=64 v=0
370310 On ch=1 n=83 v=0
370310 On ch=1 n=79 v=0
370310 On ch=1 n=74 v=0
370320 On ch=1 n=74 v=110
370430 On ch=1 n=74 v=0
370440 On ch=1 n=76 v=110
370550 On ch=1 n=76 v=0
370560 On ch=1 n=84 v=110
370560 On ch=1 n=81 v=110
370560 On ch=1 n=74 v=110
370670 On ch=1 n=84 v=0
370670 On ch=1 n=81 v=0
370670 On ch=1 n=74 v=0
370680 On ch=1 n=84 v=110
370680 On ch=1 n=81 v=110
370680 On ch=1 n=72 v=110
370790 On ch=1 n=72 v=0
370800 On ch=1 n=71 v=110
370910 On ch=1 n=71 v=0
370920 On ch=1 n=69 v=110
371030 On ch=1 n=84 v=0
371030 On ch=1 n=81 v=0
371030 On ch=1 n=69 v=0
371040 On ch=1 n=67 v=110
371150 On ch=1 n=67 v=0
371160 On ch=1 n=69 v=110
371270 On ch=1 n=69 v=0
371280 On ch=1 n=86 v=110
371280 On ch=1 n=79 v=110
371280 On ch=1 n=71 v=110
371390 On ch=1 n=86 v=0
371390 On ch=1 n=79 v=0
371390 On ch=1 n=71 v=0
371400 On ch=1 n=86 v=110
371400 On ch=1 n=79 v=110
371400 On ch=1 n=76 v=110
371510 On ch=1 n=86 v=0
371520 On ch=1 n=84 v=110
371520 On ch=1 n=67 v=110
371630 On ch=1 n=84 v=0
371630 On ch=1 n=79 v=0
371630 On ch=1 n=76 v=0
371630 On ch=1 n=67 v=0
371640 On ch=1 n=83 v=110
371640 On ch=1 n=74 v=110
371750 On ch=1 n=83 v=0
371750 On ch=1 n=74 v=0
371760 On ch=1 n=86 v=110
371760 On ch=1 n=81 v=110
371760 On ch=1 n=72 v=110
371760 On ch=1 n=72 v=110
371870 On ch=1 n=86 v=0
371870 On ch=1 n=72 v=0
371880 On ch=1 n=88 v=110
371880 On ch=1 n=62 v=110
371990 On ch=1 n=88 v=0
371990 On ch=1 n=81 v=0
371990 On ch=1 n=72 v=0
371990 On ch=1 n=62 v=0
372000 On ch=1 n=90 v=110
372000 On ch=1 n=62 v=110
372110 On ch=1 n=90 v=0
372110 On ch=1 n=62 v=0
372120 On ch=1 n=91 v=110
372120 On ch=1 n=79 v=110
372120 On ch=1 n=71 v=110
372120 On ch=1 n=71 v=110
372230 On ch=1 n=71 v=0
372240 On ch=1 n=67 v=110
372350 On ch=1 n=91 v=0
372350 On ch=1 n=79 v=0
372350 On ch=1 n=71 v=0
372350 On ch=1 n=67 v=0
372360 On ch=1 n=86 v=110
372360 On ch=1 n=67 v=110
372470 On ch=1 n=86 v=0
372470 On ch=1 n=67 v=0
372480 On ch=1 n=91 v=110
372480 On ch=1 n=71 v=110
372590 On ch=1 n=71 v=0
372600 On ch=1 n=67 v=110
372710 On ch=1 n=91 v=0
372710 On ch=1 n=67 v=0
372720 On ch=1 n=86 v=110
372720 On ch=1 n=67 v=110
372720 On ch=1 n=67 v=110
372830 On ch=1 n=86 v=0
372830 On ch=1 n=67 v=0
372830 On ch=1 n=67 v=0
372840 On ch=1 n=91 v=110
372840 On ch=1 n=71 v=110
372840 On ch=1 n=74 v=110
372950 On ch=1 n=74 v=0
372960 On ch=1 n=67 v=110
373070 On ch=1 n=91 v=0
373070 On ch=1 n=71 v=0
373070 On ch=1 n=67 v=0
373080 On ch=1 n=89 v=110
373080 On ch=1 n=67 v=110
373080 On ch=1 n=67 v=110
373190 On ch=1 n=89 v=0
373190 On ch=1 n=67 v=0
373190 On ch=1 n=67 v=0
373200 On ch=1 n=87 v=110
373200 On ch=1 n=84 v=110
373200 On ch=1 n=75 v=110
373310 On ch=1 n=87 v=0
373310 On ch=1 n=84 v=0
373320 On ch=1 n=87 v=110
373320 On ch=1 n=84 v=110
373430 On ch=1 n=87 v=0
373430 On ch=1 n=84 v=0
373430 On ch=1 n=75 v=0
373440 On ch=1 n=87 v=110
373440 On ch=1 n=84 v=110
373440 On ch=1 n=72 v=110
373550 On ch=1 n=87 v=0
373550 On ch=1 n=84 v=0
373550 On ch=1 n=72 v=0
373560 On ch=1 n=86 v=110
373560 On ch=1 n=83 v=110
373560 On ch=1 n=79 v=110
373670 On ch=1 n=86 v=0
373670 On ch=1 n=83 v=0
373680 On ch=1 n=86 v=110
373680 On ch=1 n=83 v=110
373790 On ch=1 n=86 v=0
373790 On ch=1 n=83 v=0
373790 On ch=1 n=79 v=0
373800 On ch=1 n=86 v=110
373800 On ch=1 n=83 v=110
373800 On ch=1 n=77 v=110
373910 On ch=1 n=86 v=0
373910 On ch=1 n=83 v=0
373910 On ch=1 n=77 v=0
373920 On ch=1 n=83 v=110
373920 On ch=1 n=86 v=110
373920 On ch=1 n=77 v=110
374030 On ch=1 n=83 v=0
374030 On ch=1 n=86 v=0
374030 On ch=1 n=77 v=0
374040 On ch=1 n=83 v=110
374040 On ch=1 n=86 v=110
374040 On ch=1 n=77 v=110
374150 On ch=1 n=83 v=0
374150 On ch=1 n=86 v=0
374150 On ch=1 n=77 v=0
374160 On ch=1 n=83 v=110
374160 On ch=1 n=86 v=110
374160 On ch=1 n=77 v=110
374160 On ch=1 n=62 v=110
374270 On ch=1 n=83 v=0
374270 On ch=1 n=86 v=0
374270 On ch=1 n=77 v=0
374270 On ch=1 n=62 v=0
374280 On ch=1 n=84 v=110
374280 On ch=1 n=75 v=110
374280 On ch=1 n=68 v=110
374390 On ch=1 n=84 v=0
374390 On ch=1 n=75 v=0
374400 On ch=1 n=84 v=110
374400 On ch=1 n=75 v=110
374510 On ch=1 n=84 v=0
374510 On ch=1 n=75 v=0
374510 On ch=1 n=68 v=0
374520 On ch=1 n=84 v=110
374520 On ch=1 n=75 v=110
374520 On ch=1 n=67 v=110
374630 On ch=1 n=84 v=0
374630 On ch=1 n=75 v=0
374630 On ch=1 n=67 v=0
374640 On ch=1 n=84 v=110
374640 On ch=1 n=74 v=110
374640 On ch=1 n=65 v=110
374750 On ch=1 n=84 v=0
374750 On ch=1 n=74 v=0
374760 On ch=1 n=84 v=110
374760 On ch=1 n=74 v=110
374870 On ch=1 n=84 v=0
374870 On ch=1 n=74 v=0
374870 On ch=1 n=65 v=0
374880 On ch=1 n=84 v=110
374880 On ch=1 n=74 v=110
374880 On ch=1 n=65 v=110
374990 On ch=1 n=84 v=0
374990 On ch=1 n=74 v=0
374990 On ch=1 n=65 v=0
375000 On ch=1 n=83 v=110
375000 On ch=1 n=74 v=110
375000 On ch=1 n=67 v=110
375110 On ch=1 n=83 v=0
375110 On ch=1 n=74 v=0
375120 On ch=1 n=83 v=110
375120 On ch=1 n=74 v=110
375230 On ch=1 n=83 v=0
375230 On ch=1 n=74 v=0
375230 On ch=1 n=67 v=0
375240 On ch=1 n=83 v=110
375240 On ch=1 n=74 v=110
375240 On ch=1 n=55 v=110
375350 On ch=1 n=83 v=0
375350 On ch=1 n=74 v=0
375350 On ch=1 n=55 v=0
375360 On ch=1 n=63 v=110
375360 On ch=1 n=60 v=110
375470 On ch=1 n=63 v=0
375470 On ch=1 n=60 v=0
375480 On ch=1 n=63 v=110
375480 On ch=1 n=60 v=110
375480 Par ch=1 c=64 v=127
375590 On ch=1 n=63 v=0
375590 On ch=1 n=60 v=0
375600 On ch=1 n=84 v=110
375600 On ch=1 n=72 v=110
375600 On ch=1 n=63 v=110
375600 On ch=1 n=60 v=110
375710 On ch=1 n=84 v=0
375710 On ch=1 n=72 v=0
375710 On ch=1 n=63 v=0
375710 On ch=1 n=60 v=0
375720 On ch=1 n=84 v=110
375720 On ch=1 n=72 v=110
375720 On ch=1 n=63 v=110
375720 On ch=1 n=60 v=110
375830 On ch=1 n=63 v=0
375830 On ch=1 n=60 v=0
375840 On ch=1 n=65 v=110
375840 On ch=1 n=62 v=110
375950 On ch=1 n=65 v=0
375950 On ch=1 n=62 v=0
375960 On ch=1 n=67 v=110
375960 On ch=1 n=63 v=110
375970 Par ch=1 c=64 v=0
376070 On ch=1 n=67 v=0
376070 On ch=1 n=63 v=0
376080 On ch=1 n=67 v=110
376080 On ch=1 n=63 v=110
376190 On ch=1 n=67 v=0
376190 On ch=1 n=63 v=0
376200 On ch=1 n=68 v=110
376200 On ch=1 n=65 v=110
376310 On ch=1 n=84 v=0
376310 On ch=1 n=72 v=0
376310 On ch=1 n=68 v=0
376310 On ch=1 n=65 v=0
376320 On ch=1 n=86 v=110
376320 On ch=1 n=74 v=110
376320 On ch=1 n=67 v=110
376320 On ch=1 n=63 v=110
376430 On ch=1 n=86 v=0
376430 On ch=1 n=74 v=0
376430 On ch=1 n=67 v=0
376430 On ch=1 n=63 v=0
376440 On ch=1 n=86 v=110
376440 On ch=1 n=74 v=110
376440 On ch=1 n=65 v=110
376440 On ch=1 n=62 v=110
376550 On ch=1 n=65 v=0
376550 On ch=1 n=62 v=0
376560 On ch=1 n=63 v=110
376560 On ch=1 n=60 v=110
376670 On ch=1 n=63 v=0
376670 On ch=1 n=60 v=0
376680 On ch=1 n=62 v=110
376680 On ch=1 n=59 v=110
376790 On ch=1 n=62 v=0
376790 On ch=1 n=59 v=0
376800 On ch=1 n=63 v=110
376800 On ch=1 n=60 v=110
376910 On ch=1 n=63 v=0
376910 On ch=1 n=60 v=0
376920 On ch=1 n=65 v=110
376920 On ch=1 n=59 v=110
377030 On ch=1 n=86 v=0
377030 On ch=1 n=74 v=0
377030 On ch=1 n=65 v=0
377030 On ch=1 n=59 v=0
377040 On ch=1 n=87 v=110
377040 On ch=1 n=75 v=110
377040 On ch=1 n=63 v=110
377040 On ch=1 n=60 v=110
377150 On ch=1 n=87 v=0
377150 On ch=1 n=75 v=0
377150 On ch=1 n=63 v=0
377150 On ch=1 n=60 v=0
377160 On ch=1 n=92 v=110
377160 On ch=1 n=80 v=110
377160 On ch=1 n=63 v=110
377160 On ch=1 n=60 v=110
377270 On ch=1 n=63 v=0
377270 On ch=1 n=60 v=0
377280 On ch=1 n=65 v=110
377280 On ch=1 n=62 v=110
377390 On ch=1 n=92 v=0
377390 On ch=1 n=80 v=0
377390 On ch=1 n=65 v=0
377390 On ch=1 n=62 v=0
377400 On ch=1 n=91 v=110
377400 On ch=1 n=79 v=110
377400 On ch=1 n=67 v=110
377400 On ch=1 n=63 v=110
377510 On ch=1 n=91 v=0
377510 On ch=1 n=79 v=0
377510 On ch=1 n=67 v=0
377510 On ch=1 n=63 v=0
377520 On ch=1 n=89 v=110
377520 On ch=1 n=77 v=110
377520 On ch=1 n=67 v=110
377520 On ch=1 n=62 v=110
377640 On ch=1 n=86 v=110
377640 On ch=1 n=83 v=110
377750 On ch=1 n=89 v=0
377750 On ch=1 n=77 v=0
377750 On ch=1 n=67 v=0
377750 On ch=1 n=62 v=0
377750 On ch=1 n=86 v=0
377750 On ch=1 n=83 v=0
377760 On ch=1 n=86 v=110
377760 On ch=1 n=83 v=110
377760 On ch=1 n=55 v=110
377870 On ch=1 n=86 v=0
377870 On ch=1 n=83 v=0
377870 On ch=1 n=55 v=0
377880 On ch=1 n=87 v=110
377880 On ch=1 n=75 v=110
377880 On ch=1 n=60 v=110
377880 On ch=1 n=48 v=110
378000 On ch=1 n=84 v=110
378000 On ch=1 n=79 v=110
378110 On ch=1 n=87 v=0
378110 On ch=1 n=75 v=0
378110 On ch=1 n=60 v=0
378110 On ch=1 n=48 v=0
378110 On ch=1 n=84 v=0
378110 On ch=1 n=79 v=0
378120 On ch=1 n=84 v=110
378120 On ch=1 n=79 v=110
378120 On ch=1 n=63 v=110
378120 On ch=1 n=60 v=110
378230 On ch=1 n=84 v=0
378230 On ch=1 n=79 v=0
378230 On ch=1 n=63 v=0
378230 On ch=1 n=60 v=0
378240 On ch=1 n=82 v=110
378240 On ch=1 n=77 v=110
378240 On ch=1 n=65 v=110
378240 On ch=1 n=62 v=110
378339 Par ch=1 c=64 v=127
378350 On ch=1 n=65 v=0
378350 On ch=1 n=62 v=0
378360 On ch=1 n=70 v=110
378470 On ch=1 n=82 v=0
378470 On ch=1 n=77 v=0
378470 On ch=1 n=70 v=0
378480 On ch=1 n=89 v=110
378480 On ch=1 n=77 v=110
378480 On ch=1 n=70 v=110
378590 On ch=1 n=89 v=0
378590 On ch=1 n=77 v=0
378590 On ch=1 n=70 v=0
378600 On ch=1 n=94 v=110
378600 On ch=1 n=82 v=110
378600 On ch=1 n=62 v=110
378600 On ch=1 n=58 v=110
378710 On ch=1 n=62 v=0
378710 On ch=1 n=58 v=0
378720 On ch=1 n=70 v=110
378830 On ch=1 n=94 v=0
378830 On ch=1 n=82 v=0
378830 On ch=1 n=70 v=0
378840 On ch=1 n=92 v=110
378840 On ch=1 n=80 v=110
378840 On ch=1 n=70 v=110
378950 On ch=1 n=92 v=0
378950 On ch=1 n=80 v=0
378950 On ch=1 n=70 v=0
378954 Par ch=1 c=64 v=0
378960 On ch=1 n=91 v=110
378960 On ch=1 n=79 v=110
378960 On ch=1 n=63 v=110
378960 On ch=1 n=58 v=110
379080 On ch=1 n=82 v=110
379190 On ch=1 n=91 v=0
379190 On ch=1 n=79 v=0
379190 On ch=1 n=63 v=0
379190 On ch=1 n=58 v=0
379190 On ch=1 n=82 v=0
379200 On ch=1 n=86 v=110
379200 On ch=1 n=74 v=110
379200 On ch=1 n=53 v=110
379200 On ch=1 n=41 v=110
379310 On ch=1 n=86 v=0
379310 On ch=1 n=74 v=0
379310 On ch=1 n=53 v=0
379310 On ch=1 n=41 v=0
379320 On ch=1 n=91 v=110
379320 On ch=1 n=79 v=110
379320 On ch=1 n=58 v=110
379320 On ch=1 n=46 v=110
379440 On ch=1 n=86 v=110
379440 On ch=1 n=82 v=110
379550 On ch=1 n=91 v=0
379550 On ch=1 n=79 v=0
379550 On ch=1 n=58 v=0
379550 On ch=1 n=46 v=0
379550 On ch=1 n=86 v=0
379550 On ch=1 n=82 v=0
379560 On ch=1 n=89 v=110
379560 On ch=1 n=77 v=110
379560 On ch=1 n=56 v=110
379560 On ch=1 n=44 v=110
379670 On ch=1 n=89 v=0
379670 On ch=1 n=77 v=0
379670 On ch=1 n=56 v=0
379670 On ch=1 n=44 v=0
379680 On ch=1 n=87 v=110
379680 On ch=1 n=75 v=110
379680 On ch=1 n=55 v=110
379680 On ch=1 n=43 v=110
379771 Par ch=1 c=64 v=127
379790 On ch=1 n=55 v=0
379790 On ch=1 n=43 v=0
379800 On ch=1 n=56 v=110
379800 On ch=1 n=44 v=110
379910 On ch=1 n=87 v=0
379910 On ch=1 n=75 v=0
379910 On ch=1 n=56 v=0
379910 On ch=1 n=44 v=0
379920 On ch=1 n=67 v=110
379920 On ch=1 n=70 v=110
379920 On ch=1 n=75 v=110
379920 On ch=1 n=63 v=110
379920 On ch=1 n=58 v=110
379920 On ch=1 n=46 v=110
380030 On ch=1 n=67 v=0
380030 On ch=1 n=70 v=0
380030 On ch=1 n=75 v=0
380030 On ch=1 n=63 v=0
380030 On ch=1 n=58 v=0
380030 On ch=1 n=46 v=0
380040 On ch=1 n=67 v=110
380040 On ch=1 n=70 v=110
380040 On ch=1 n=75 v=110
380040 On ch=1 n=63 v=110
380040 On ch=1 n=58 v=110
380040 On ch=1 n=46 v=110
380150 On ch=1 n=58 v=0
380150 On ch=1 n=46 v=0
380160 On ch=1 n=58 v=110
380160 On ch=1 n=46 v=110
380270 On ch=1 n=58 v=0
380270 On ch=1 n=46 v=0
380280 On ch=1 n=58 v=110
380280 On ch=1 n=46 v=110
380369 Par ch=1 c=64 v=0
380390 On ch=1 n=58 v=0
380390 On ch=1 n=46 v=0
380400 On ch=1 n=58 v=110
380400 On ch=1 n=46 v=110
380510 On ch=1 n=58 v=0
380510 On ch=1 n=46 v=0
380520 On ch=1 n=60 v=110
380520 On ch=1 n=48 v=110
380630 On ch=1 n=67 v=0
380630 On ch=1 n=70 v=0
380630 On ch=1 n=75 v=0
380630 On ch=1 n=63 v=0
380630 On ch=1 n=60 v=0
380630 On ch=1 n=48 v=0
380640 On ch=1 n=68 v=110
380640 On ch=1 n=74 v=110
380640 On ch=1 n=77 v=110
380640 On ch=1 n=65 v=110
380640 On ch=1 n=58 v=110
380640 On ch=1 n=46 v=110
380750 On ch=1 n=68 v=0
380750 On ch=1 n=74 v=0
380750 On ch=1 n=77 v=0
380750 On ch=1 n=65 v=0
380750 On ch=1 n=58 v=0
380750 On ch=1 n=46 v=0
380760 On ch=1 n=74 v=110
380760 On ch=1 n=77 v=110
380760 On ch=1 n=65 v=110
380760 On ch=1 n=68 v=110
380760 On ch=1 n=56 v=110
380760 On ch=1 n=44 v=110
380870 On ch=1 n=56 v=0
380870 On ch=1 n=44 v=0
380880 On ch=1 n=55 v=110
380880 On ch=1 n=43 v=110
380990 On ch=1 n=68 v=0
380990 On ch=1 n=55 v=0
380990 On ch=1 n=43 v=0
381000 On ch=1 n=70 v=110
381000 On ch=1 n=53 v=110
381000 On ch=1 n=41 v=110
381110 On ch=1 n=74 v=0
381110 On ch=1 n=65 v=0
381110 On ch=1 n=70 v=0
381110 On ch=1 n=53 v=0
381110 On ch=1 n=41 v=0
381120 On ch=1 n=70 v=110
381120 On ch=1 n=67 v=110
381120 On ch=1 n=70 v=110
381120 On ch=1 n=67 v=110
381120 On ch=1 n=51 v=110
381120 On ch=1 n=39 v=110
381230 On ch=1 n=51 v=0
381240 On ch=1 n=53 v=110
381350 On ch=1 n=70 v=0
381350 On ch=1 n=77 v=0
381350 On ch=1 n=67 v=0
381350 On ch=1 n=70 v=0
381350 On ch=1 n=67 v=0
381350 On ch=1 n=53 v=0
381350 On ch=1 n=39 v=0
381360 On ch=1 n=79 v=110
381360 On ch=1 n=51 v=110
381470 On ch=1 n=79 v=0
381470 On ch=1 n=51 v=0
381480 On ch=1 n=84 v=110
381480 On ch=1 n=72 v=110
381480 On ch=1 n=52 v=110
381480 On ch=1 n=40 v=110
381590 On ch=1 n=52 v=0
381600 On ch=1 n=53 v=110
381710 On ch=1 n=84 v=0
381710 On ch=1 n=72 v=0
381710 On ch=1 n=53 v=0
381710 On ch=1 n=40 v=0
381720 On ch=1 n=82 v=110
381720 On ch=1 n=70 v=110
381720 On ch=1 n=55 v=110
381830 On ch=1 n=82 v=0
381830 On ch=1 n=70 v=0
381830 On ch=1 n=55 v=0
381840 On ch=1 n=80 v=110
381840 On ch=1 n=68 v=110
381840 On ch=1 n=53 v=110
381840 On ch=1 n=41 v=110
381950 On ch=1 n=53 v=0
381960 On ch=1 n=60 v=110
382070 On ch=1 n=80 v=0
382070 On ch=1 n=68 v=0
382070 On ch=1 n=60 v=0
382070 On ch=1 n=41 v=0
382080 On ch=1 n=72 v=110
382080 On ch=1 n=60 v=110
382190 On ch=1 n=72 v=0
382190 On ch=1 n=60 v=0
382200 On ch=1 n=79 v=110
382200 On ch=1 n=67 v=110
382200 On ch=1 n=77 v=110
382200 On ch=1 n=65 v=110
382320 On ch=1 n=60 v=110
382430 On ch=1 n=79 v=0
382430 On ch=1 n=67 v=0
382430 On ch=1 n=77 v=0
382430 On ch=1 n=65 v=0
382430 On ch=1 n=60 v=0
382440 On ch=1 n=76 v=110
382440 On ch=1 n=64 v=110
382550 On ch=1 n=76 v=0
382550 On ch=1 n=64 v=0
382560 On ch=1 n=77 v=110
382560 On ch=1 n=68 v=110
382560 On ch=1 n=65 v=110
382560 On ch=1 n=60 v=110
382680 On ch=1 n=53 v=110
382790 On ch=1 n=77 v=0
382790 On ch=1 n=68 v=0
382790 On ch=1 n=65 v=0
382790 On ch=1 n=60 v=0
382790 On ch=1 n=53 v=0
382800 On ch=1 n=80 v=110
382800 On ch=1 n=73 v=110
382800 On ch=1 n=61 v=110
382800 On ch=1 n=65 v=110
382910 On ch=1 n=80 v=0
382910 On ch=1 n=73 v=0
382910 On ch=1 n=61 v=0
382910 On ch=1 n=65 v=0
382920 On ch=1 n=85 v=110
382920 On ch=1 n=73 v=110
382920 On ch=1 n=61 v=110
382920 On ch=1 n=65 v=110
383030 On ch=1 n=65 v=0
383040 On ch=1 n=53 v=110
383150 On ch=1 n=85 v=0
383150 On ch=1 n=73 v=0
383150 On ch=1 n=61 v=0
383150 On ch=1 n=53 v=0
383160 On ch=1 n=84 v=110
383160 On ch=1 n=72 v=110
383160 On ch=1 n=53 v=110
383270 On ch=1 n=84 v=0
383270 On ch=1 n=72 v=0
383270 On ch=1 n=53 v=0
383280 On ch=1 n=82 v=110
383280 On ch=1 n=70 v=110
383400 On ch=1 n=77 v=110
383400 On ch=1 n=73 v=110
383510 On ch=1 n=82 v=0
383510 On ch=1 n=70 v=0
383510 On ch=1 n=77 v=0
383510 On ch=1 n=73 v=0
383520 On ch=1 n=77 v=110
383520 On ch=1 n=73 v=110
383520 On ch=1 n=56 v=110
383520 On ch=1 n=53 v=110
383630 On ch=1 n=77 v=0
383630 On ch=1 n=73 v=0
383630 On ch=1 n=56 v=0
383630 On ch=1 n=53 v=0
383640 On ch=1 n=80 v=110
383640 On ch=1 n=68 v=110
383640 On ch=1 n=61 v=110
383640 On ch=1 n=56 v=110
383640 On ch=1 n=53 v=110
383760 On ch=1 n=77 v=110
383760 On ch=1 n=73 v=110
383870 On ch=1 n=80 v=0
383870 On ch=1 n=68 v=0
383870 On ch=1 n=61 v=0
383870 On ch=1 n=56 v=0
383870 On ch=1 n=53 v=0
383870 On ch=1 n=77 v=0
383870 On ch=1 n=73 v=0
383880 On ch=1 n=77 v=110
383880 On ch=1 n=73 v=110
383880 On ch=1 n=60 v=110
383990 On ch=1 n=77 v=0
383990 On ch=1 n=73 v=0
383990 On ch=1 n=60 v=0
384000 On ch=1 n=58 v=110
384000 On ch=1 n=55 v=110
384110 On ch=1 n=58 v=0
384120 On ch=1 n=63 v=110
384230 On ch=1 n=63 v=0
384230 On ch=1 n=55 v=0
384240 On ch=1 n=82 v=110
384240 On ch=1 n=70 v=110
384240 On ch=1 n=63 v=110
384350 On ch=1 n=82 v=0
384350 On ch=1 n=70 v=0
384350 On ch=1 n=63 v=0
384360 On ch=1 n=87 v=110
384360 On ch=1 n=75 v=110
384360 On ch=1 n=67 v=110
384360 On ch=1 n=63 v=110
384470 On ch=1 n=67 v=0
384480 On ch=1 n=55 v=110
384590 On ch=1 n=87 v=0
384590 On ch=1 n=75 v=0
384590 On ch=1 n=55 v=0
384590 On ch=1 n=63 v=0
384600 On ch=1 n=85 v=110
384600 On ch=1 n=73 v=110
384600 On ch=1 n=55 v=110
384710 On ch=1 n=85 v=0
384710 On ch=1 n=73 v=0
384710 On ch=1 n=55 v=0
384720 On ch=1 n=84 v=110
384720 On ch=1 n=72 v=110
384720 On ch=1 n=63 v=110
384720 On ch=1 n=68 v=110
384720 On ch=1 n=56 v=110
384840 On ch=1 n=80 v=110
384840 On ch=1 n=75 v=110
384950 On ch=1 n=84 v=0
384950 On ch=1 n=72 v=0
384950 On ch=1 n=63 v=0
384950 On ch=1 n=68 v=0
384950 On ch=1 n=56 v=0
384950 On ch=1 n=80 v=0
384950 On ch=1 n=75 v=0
384960 On ch=1 n=80 v=110
384960 On ch=1 n=75 v=110
385070 On ch=1 n=80 v=0
385070 On ch=1 n=75 v=0
385080 On ch=1 n=82 v=110
385080 On ch=1 n=70 v=110
385080 On ch=1 n=63 v=110
385080 On ch=1 n=68 v=110
385200 On ch=1 n=80 v=110
385200 On ch=1 n=75 v=110
385310 On ch=1 n=82 v=0
385310 On ch=1 n=70 v=0
385310 On ch=1 n=63 v=0
385310 On ch=1 n=68 v=0
385310 On ch=1 n=80 v=0
385310 On ch=1 n=75 v=0
385320 On ch=1 n=79 v=110
385320 On ch=1 n=75 v=110
385320 On ch=1 n=67 v=110
385430 On ch=1 n=79 v=0
385430 On ch=1 n=75 v=0
385430 On ch=1 n=67 v=0
385440 On ch=1 n=78 v=110
385440 On ch=1 n=81 v=110
385440 On ch=1 n=72 v=110
385440 On ch=1 n=66 v=110
385440 On ch=1 n=69 v=110
385440 On ch=1 n=63 v=110
385550 On ch=1 n=66 v=0
385550 On ch=1 n=69 v=0
385550 On ch=1 n=63 v=0
385560 On ch=1 n=63 v=110
385560 On ch=1 n=51 v=110
385670 On ch=1 n=78 v=0
385670 On ch=1 n=81 v=0
385670 On ch=1 n=72 v=0
385670 On ch=1 n=63 v=0
385670 On ch=1 n=51 v=0
385680 On ch=1 n=72 v=110
385680 On ch=1 n=78 v=110
385680 On ch=1 n=81 v=110
385680 On ch=1 n=69 v=110
385680 On ch=1 n=63 v=110
385680 On ch=1 n=51 v=110
385790 On ch=1 n=72 v=0
385790 On ch=1 n=78 v=0
385790 On ch=1 n=81 v=0
385790 On ch=1 n=69 v=0
385790 On ch=1 n=63 v=0
385790 On ch=1 n=51 v=0
385800 On ch=1 n=72 v=110
385800 On ch=1 n=78 v=110
385800 On ch=1 n=81 v=110
385800 On ch=1 n=69 v=110
385800 On ch=1 n=63 v=110
385800 On ch=1 n=51 v=110
385910 On ch=1 n=63 v=0
385910 On ch=1 n=51 v=0
385920 On ch=1 n=65 v=110
385920 On ch=1 n=53 v=110
386030 On ch=1 n=65 v=0
386030 On ch=1 n=53 v=0
386040 On ch=1 n=66 v=110
386040 On ch=1 n=54 v=110
386150 On ch=1 n=72 v=0
386150 On ch=1 n=78 v=0
386150 On ch=1 n=81 v=0
386150 On ch=1 n=69 v=0
386150 On ch=1 n=66 v=0
386150 On ch=1 n=54 v=0
386160 On ch=1 n=54 v=110
386160 On ch=1 n=42 v=110
386267 Par ch=1 c=64 v=127
386270 On ch=1 n=54 v=0
386270 On ch=1 n=42 v=0
386280 On ch=1 n=54 v=110
386280 On ch=1 n=42 v=110
386390 On ch=1 n=54 v=0
386390 On ch=1 n=42 v=0
386400 On ch=1 n=63 v=110
386400 On ch=1 n=66 v=110
386400 On ch=1 n=69 v=110
386400 On ch=1 n=60 v=110
386400 On ch=1 n=54 v=110
386400 On ch=1 n=42 v=110
386510 On ch=1 n=63 v=0
386510 On ch=1 n=66 v=0
386510 On ch=1 n=69 v=0
386510 On ch=1 n=60 v=0
386510 On ch=1 n=54 v=0
386510 On ch=1 n=42 v=0
386520 On ch=1 n=63 v=110
386520 On ch=1 n=66 v=110
386520 On ch=1 n=69 v=110
386520 On ch=1 n=60 v=110
386520 On ch=1 n=54 v=110
386520 On ch=1 n=42 v=110
386630 On ch=1 n=54 v=0
386630 On ch=1 n=42 v=0
386640 On ch=1 n=53 v=110
386640 On ch=1 n=41 v=110
386750 On ch=1 n=53 v=0
386750 On ch=1 n=41 v=0
386760 On ch=1 n=51 v=110
386760 On ch=1 n=39 v=110
386870 On ch=1 n=63 v=0
386870 On ch=1 n=66 v=0
386870 On ch=1 n=69 v=0
386870 On ch=1 n=60 v=0
386870 On ch=1 n=51 v=0
386870 On ch=1 n=39 v=0
386880 On ch=1 n=61 v=110
386880 On ch=1 n=49 v=110
386909 Par ch=1 c=64 v=0
386990 On ch=1 n=61 v=0
386990 On ch=1 n=49 v=0
387000 On ch=1 n=61 v=110
387000 On ch=1 n=49 v=110
387015 Par ch=1 c=64 v=127
387110 On ch=1 n=61 v=0
387110 On ch=1 n=49 v=0
387120 On ch=1 n=73 v=110
387120 On ch=1 n=77 v=110
387120 On ch=1 n=82 v=110
387120 On ch=1 n=70 v=110
387120 On ch=1 n=61 v=110
387120 On ch=1 n=49 v=110
387230 On ch=1 n=73 v=0
387230 On ch=1 n=77 v=0
387230 On ch=1 n=82 v=0
387230 On ch=1 n=70 v=0
387230 On ch=1 n=61 v=0
387230 On ch=1 n=49 v=0
387240 On ch=1 n=73 v=110
387240 On ch=1 n=77 v=110
387240 On ch=1 n=82 v=110
387240 On ch=1 n=70 v=110
387240 On ch=1 n=61 v=110
387240 On ch=1 n=49 v=110
387350 On ch=1 n=61 v=0
387350 On ch=1 n=49 v=0
387360 On ch=1 n=63 v=110
387360 On ch=1 n=51 v=110
387470 On ch=1 n=63 v=0
387470 On ch=1 n=51 v=0
387480 On ch=1 n=65 v=110
387480 On ch=1 n=53 v=110
387561 Par ch=1 c=64 v=0
387590 On ch=1 n=73 v=0
387590 On ch=1 n=77 v=0
387590 On ch=1 n=82 v=0
387590 On ch=1 n=70 v=0
387590 On ch=1 n=65 v=0
387590 On ch=1 n=53 v=0
387600 On ch=1 n=53 v=110
387600 On ch=1 n=41 v=110
387710 On ch=1 n=53 v=0
387710 On ch=1 n=41 v=0
387720 On ch=1 n=53 v=110
387720 On ch=1 n=41 v=110
387723 Par ch=1 c=64 v=127
387830 On ch=1 n=53 v=0
387830 On ch=1 n=41 v=0
387840 On ch=1 n=65 v=110
387840 On ch=1 n=70 v=110
387840 On ch=1 n=61 v=110
387840 On ch=1 n=53 v=110
387840 On ch=1 n=41 v=110
387950 On ch=1 n=65 v=0
387950 On ch=1 n=70 v=0
387950 On ch=1 n=61 v=0
387950 On ch=1 n=53 v=0
387950 On ch=1 n=41 v=0
387960 On ch=1 n=65 v=110
387960 On ch=1 n=70 v=110
387960 On ch=1 n=61 v=110
387960 On ch=1 n=53 v=110
387960 On ch=1 n=41 v=110
388070 On ch=1 n=53 v=0
388070 On ch=1 n=41 v=0
388080 On ch=1 n=51 v=110
388080 On ch=1 n=39 v=110
388190 On ch=1 n=51 v=0
388190 On ch=1 n=39 v=0
388200 On ch=1 n=49 v=110
388200 On ch=1 n=37 v=110
388303 Par ch=1 c=64 v=0
388310 On ch=1 n=65 v=0
388310 On ch=1 n=70 v=0
388310 On ch=1 n=61 v=0
388310 On ch=1 n=49 v=0
388310 On ch=1 n=37 v=0
388320 On ch=1 n=87 v=110
388320 On ch=1 n=75 v=110
388320 On ch=1 n=48 v=110
388320 On ch=1 n=36 v=110
388430 On ch=1 n=87 v=0
388430 On ch=1 n=75 v=0
388440 On ch=1 n=87 v=110
388440 On ch=1 n=75 v=110
388486 Par ch=1 c=64 v=127
388550 On ch=1 n=87 v=0
388550 On ch=1 n=75 v=0
388550 On ch=1 n=48 v=0
388550 On ch=1 n=36 v=0
388560 On ch=1 n=87 v=110
388560 On ch=1 n=75 v=110
388560 On ch=1 n=63 v=110
388560 On ch=1 n=66 v=110
388560 On ch=1 n=58 v=110
388670 On ch=1 n=87 v=0
388670 On ch=1 n=75 v=0
388670 On ch=1 n=63 v=0
388670 On ch=1 n=66 v=0
388670 On ch=1 n=58 v=0
388680 On ch=1 n=87 v=110
388680 On ch=1 n=75 v=110
388680 On ch=1 n=63 v=110
388680 On ch=1 n=66 v=110
388680 On ch=1 n=58 v=110
388790 On ch=1 n=87 v=0
388790 On ch=1 n=75 v=0
388800 On ch=1 n=89 v=110
388800 On ch=1 n=77 v=110
388910 On ch=1 n=89 v=0
388910 On ch=1 n=77 v=0
388920 On ch=1 n=90 v=110
388920 On ch=1 n=78 v=110
389030 On ch=1 n=90 v=0
389030 On ch=1 n=78 v=0
389030 On ch=1 n=63 v=0
389030 On ch=1 n=66 v=0
389030 On ch=1 n=58 v=0
389036 Par ch=1 c=64 v=0
389040 On ch=1 n=90 v=110
389040 On ch=1 n=78 v=110
389040 On ch=1 n=51 v=110
389040 On ch=1 n=39 v=110
389150 On ch=1 n=90 v=0
389150 On ch=1 n=78 v=0
389160 On ch=1 n=90 v=110
389160 On ch=1 n=78 v=110
389270 On ch=1 n=90 v=0
389270 On ch=1 n=78 v=0
389270 On ch=1 n=51 v=0
389270 On ch=1 n=39 v=0
389280 On ch=1 n=90 v=110
389280 On ch=1 n=78 v=110
389280 On ch=1 n=60 v=110
389280 On ch=1 n=58 v=110
389390 On ch=1 n=90 v=0
389390 On ch=1 n=78 v=0
389390 On ch=1 n=60 v=0
389390 On ch=1 n=58 v=0
389400 On ch=1 n=90 v=110
389400 On ch=1 n=78 v=110
389400 On ch=1 n=53 v=110
389400 On ch=1 n=41 v=110
389510 On ch=1 n=90 v=0
389510 On ch=1 n=78 v=0
389520 On ch=1 n=89 v=110
389520 On ch=1 n=77 v=110
389630 On ch=1 n=89 v=0
389630 On ch=1 n=77 v=0
389630 On ch=1 n=53 v=0
389630 On ch=1 n=41 v=0
389640 On ch=1 n=87 v=110
389640 On ch=1 n=75 v=110
389640 On ch=1 n=60 v=110
389640 On ch=1 n=65 v=110
389640 On ch=1 n=57 v=110
389750 On ch=1 n=87 v=0
389750 On ch=1 n=75 v=0
389750 On ch=1 n=60 v=0
389750 On ch=1 n=65 v=0
389750 On ch=1 n=57 v=0
389760 On ch=1 n=85 v=110
389760 On ch=1 n=73 v=110
389760 On ch=1 n=58 v=110
389760 On ch=1 n=61 v=110
389760 On ch=1 n=65 v=110
389760 On ch=1 n=53 v=110
389870 On ch=1 n=85 v=0
389870 On ch=1 n=73 v=0
389880 On ch=1 n=70 v=110
389880 On ch=1 n=61 v=110
389908 Par ch=1 c=64 v=127
389990 On ch=1 n=70 v=0
389990 On ch=1 n=61 v=0
389990 On ch=1 n=58 v=0
389990 On ch=1 n=61 v=0
389990 On ch=1 n=65 v=0
389990 On ch=1 n=53 v=0
390000 On ch=1 n=70 v=110
390000 On ch=1 n=61 v=110
390000 On ch=1 n=46 v=110
390000 On ch=1 n=34 v=110
390110 On ch=1 n=70 v=0
390110 On ch=1 n=61 v=0
390110 On ch=1 n=46 v=0
390110 On ch=1 n=34 v=0
390120 On ch=1 n=70 v=110
390120 On ch=1 n=61 v=110
390120 On ch=1 n=46 v=110
390120 On ch=1 n=34 v=110
390230 On ch=1 n=70 v=0
390230 On ch=1 n=61 v=0
390240 On ch=1 n=72 v=110
390240 On ch=1 n=63 v=110
390350 On ch=1 n=72 v=0
390350 On ch=1 n=63 v=0
390360 On ch=1 n=73 v=110
390360 On ch=1 n=65 v=110
390470 On ch=1 n=73 v=0
390470 On ch=1 n=65 v=0
390480 On ch=1 n=73 v=110
390480 On ch=1 n=65 v=110
390590 On ch=1 n=73 v=0
390590 On ch=1 n=65 v=0
390600 On ch=1 n=75 v=110
390600 On ch=1 n=66 v=110
390617 Par ch=1 c=64 v=0
390710 On ch=1 n=75 v=0
390710 On ch=1 n=66 v=0
390710 On ch=1 n=46 v=0
390710 On ch=1 n=34 v=0
390720 On ch=1 n=73 v=110
390720 On ch=1 n=65 v=110
390720 On ch=1 n=48 v=110
390720 On ch=1 n=36 v=110
390830 On ch=1 n=73 v=0
390830 On ch=1 n=65 v=0
390830 On ch=1 n=48 v=0
390830 On ch=1 n=36 v=0
390840 On ch=1 n=72 v=110
390840 On ch=1 n=63 v=110
390840 On ch=1 n=48 v=110
390840 On ch=1 n=36 v=110
390950 On ch=1 n=72 v=0
390950 On ch=1 n=63 v=0
390960 On ch=1 n=70 v=110
390960 On ch=1 n=61 v=110
391070 On ch=1 n=70 v=0
391070 On ch=1 n=61 v=0
391080 On ch=1 n=68 v=110
391080 On ch=1 n=60 v=110
391190 On ch=1 n=68 v=0
391190 On ch=1 n=60 v=0
391200 On ch=1 n=70 v=110
391200 On ch=1 n=61 v=110
391310 On ch=1 n=70 v=0
391310 On ch=1 n=61 v=0
391320 On ch=1 n=72 v=110
391320 On ch=1 n=63 v=110
391430 On ch=1 n=72 v=0
391430 On ch=1 n=63 v=0
391430 On ch=1 n=48 v=0
391430 On ch=1 n=36 v=0
391440 On ch=1 n=70 v=110
391440 On ch=1 n=65 v=110
391440 On ch=1 n=49 v=110
391440 On ch=1 n=37 v=110
391550 On ch=1 n=70 v=0
391550 On ch=1 n=65 v=0
391550 On ch=1 n=49 v=0
391550 On ch=1 n=37 v=0
391560 On ch=1 n=70 v=110
391560 On ch=1 n=54 v=110
391560 On ch=1 n=42 v=110
391680 On ch=1 n=72 v=110
391790 On ch=1 n=70 v=0
391790 On ch=1 n=54 v=0
391790 On ch=1 n=42 v=0
391790 On ch=1 n=72 v=0
391800 On ch=1 n=68 v=110
391800 On ch=1 n=53 v=110
391800 On ch=1 n=41 v=110
391910 On ch=1 n=68 v=0
391910 On ch=1 n=53 v=0
391910 On ch=1 n=41 v=0
391920 On ch=1 n=75 v=110
391920 On ch=1 n=71 v=110
391920 On ch=1 n=66 v=110
391920 On ch=1 n=51 v=110
391920 On ch=1 n=39 v=110
392030 On ch=1 n=75 v=0
392040 On ch=1 n=73 v=110
392150 On ch=1 n=73 v=0
392150 On ch=1 n=71 v=0
392150 On ch=1 n=66 v=0
392150 On ch=1 n=51 v=0
392150 On ch=1 n=39 v=0
392160 On ch=1 n=71 v=110
392160 On ch=1 n=63 v=110
392160 On ch=1 n=51 v=110
392270 On ch=1 n=71 v=0
392270 On ch=1 n=63 v=0
392270 On ch=1 n=51 v=0
392280 On ch=1 n=75 v=110
392280 On ch=1 n=71 v=110
392280 On ch=1 n=68 v=110
392280 On ch=1 n=56 v=110
392390 On ch=1 n=75 v=0
392400 On ch=1 n=77 v=110
392400 On ch=1 n=73 v=110
392510 On ch=1 n=77 v=0
392510 On ch=1 n=71 v=0
392510 On ch=1 n=68 v=0
392510 On ch=1 n=56 v=0
392510 On ch=1 n=73 v=0
392520 On ch=1 n=78 v=110
392520 On ch=1 n=75 v=110
392520 On ch=1 n=70 v=110
392520 On ch=1 n=66 v=110
392520 On ch=1 n=54 v=110
392630 On ch=1 n=78 v=0
392630 On ch=1 n=75 v=0
392630 On ch=1 n=70 v=0
392630 On ch=1 n=66 v=0
392630 On ch=1 n=54 v=0
392640 On ch=1 n=77 v=110
392640 On ch=1 n=80 v=110
392640 On ch=1 n=68 v=110
392640 On ch=1 n=65 v=110
392640 On ch=1 n=53 v=110
392750 On ch=1 n=77 v=0
392760 On ch=1 n=75 v=110
392870 On ch=1 n=75 v=0
392870 On ch=1 n=80 v=0
392870 On ch=1 n=68 v=0
392870 On ch=1 n=65 v=0
392870 On ch=1 n=53 v=0
392880 On ch=1 n=72 v=110
392880 On ch=1 n=53 v=110
392880 On ch=1 n=41 v=110
392990 On ch=1 n=72 v=0
392990 On ch=1 n=53 v=0
392990 On ch=1 n=41 v=0
393000 On ch=1 n=77 v=110
393000 On ch=1 n=73 v=110
393000 On ch=1 n=58 v=110
393000 On ch=1 n=46 v=110
393110 On ch=1 n=77 v=0
393120 On ch=1 n=78 v=110
393120 On ch=1 n=75 v=110
393230 On ch=1 n=78 v=0
393230 On ch=1 n=73 v=0
393230 On ch=1 n=58 v=0
393230 On ch=1 n=46 v=0
393230 On ch=1 n=75 v=0
393240 On ch=1 n=80 v=110
393240 On ch=1 n=77 v=110
393240 On ch=1 n=71 v=110
393240 On ch=1 n=56 v=110
393240 On ch=1 n=44 v=110
393350 On ch=1 n=80 v=0
393350 On ch=1 n=77 v=0
393350 On ch=1 n=71 v=0
393350 On ch=1 n=56 v=0
393350 On ch=1 n=44 v=0
393360 On ch=1 n=75 v=110
393360 On ch=1 n=82 v=110
393360 On ch=1 n=70 v=110
393360 On ch=1 n=54 v=110
393360 On ch=1 n=42 v=110
393470 On ch=1 n=75 v=0
393480 On ch=1 n=77 v=110
393590 On ch=1 n=77 v=0
393590 On ch=1 n=82 v=0
393590 On ch=1 n=70 v=0
393590 On ch=1 n=54 v=0
393590 On ch=1 n=42 v=0
393600 On ch=1 n=74 v=110
393600 On ch=1 n=66 v=110
393600 On ch=1 n=54 v=110
393710 On ch=1 n=74 v=0
393710 On ch=1 n=66 v=0
393710 On ch=1 n=54 v=0
393720 On ch=1 n=78 v=110
393720 On ch=1 n=75 v=110
393720 On ch=1 n=71 v=110
393720 On ch=1 n=59 v=110
393830 On ch=1 n=78 v=0
393840 On ch=1 n=80 v=110
393840 On ch=1 n=77 v=110
393950 On ch=1 n=80 v=0
393950 On ch=1 n=75 v=0
393950 On ch=1 n=71 v=0
393950 On ch=1 n=59 v=0
393950 On ch=1 n=77 v=0
393960 On ch=1 n=82 v=110
393960 On ch=1 n=78 v=110
393960 On ch=1 n=73 v=110
393960 On ch=1 n=70 v=110
393960 On ch=1 n=58 v=110
394070 On ch=1 n=82 v=0
394070 On ch=1 n=78 v=0
394070 On ch=1 n=73 v=0
394070 On ch=1 n=70 v=0
394070 On ch=1 n=58 v=0
394080 On ch=1 n=83 v=110
394080 On ch=1 n=77 v=110
394080 On ch=1 n=71 v=110
394080 On ch=1 n=68 v=110
394080 On ch=1 n=56 v=110
394190 On ch=1 n=83 v=0
394190 On ch=1 n=77 v=0
394200 On ch=1 n=82 v=110
394310 On ch=1 n=82 v=0
394310 On ch=1 n=71 v=0
394310 On ch=1 n=68 v=0
394310 On ch=1 n=56 v=0
394320 On ch=1 n=78 v=110
394320 On ch=1 n=75 v=110
394320 On ch=1 n=56 v=110
394320 On ch=1 n=44 v=110
394430 On ch=1 n=78 v=0
394430 On ch=1 n=75 v=0
394430 On ch=1 n=56 v=0
394430 On ch=1 n=44 v=0
394440 On ch=1 n=80 v=110
394440 On ch=1 n=77 v=110
394440 On ch=1 n=61 v=110
394440 On ch=1 n=49 v=110
394550 On ch=1 n=80 v=0
394550 On ch=1 n=77 v=0
394560 On ch=1 n=82 v=110
394560 On ch=1 n=78 v=110
394670 On ch=1 n=82 v=0
394670 On ch=1 n=78 v=0
394670 On ch=1 n=61 v=0
394670 On ch=1 n=49 v=0
394680 On ch=1 n=83 v=110
394680 On ch=1 n=80 v=110
394680 On ch=1 n=59 v=110
394680 On ch=1 n=47 v=110
394790 On ch=1 n=83 v=0
394790 On ch=1 n=80 v=0
394790 On ch=1 n=59 v=0
394790 On ch=1 n=47 v=0
394800 On ch=1 n=85 v=110
394800 On ch=1 n=78 v=110
394800 On ch=1 n=58 v=110
394800 On ch=1 n=46 v=110
394910 On ch=1 n=85 v=0
394910 On ch=1 n=78 v=0
394910 On ch=1 n=58 v=0
394910 On ch=1 n=46 v=0
394920 On ch=1 n=83 v=110
394920 On ch=1 n=77 v=110
394920 On ch=1 n=56 v=110
394920 On ch=1 n=44 v=110
395030 On ch=1 n=83 v=0
395030 On ch=1 n=77 v=0
395030 On ch=1 n=56 v=0
395030 On ch=1 n=44 v=0
395040 On ch=1 n=82 v=110
395040 On ch=1 n=78 v=110
395040 On ch=1 n=54 v=110
395040 On ch=1 n=42 v=110
395150 On ch=1 n=82 v=0
395150 On ch=1 n=78 v=0
395150 On ch=1 n=54 v=0
395150 On ch=1 n=42 v=0
395160 On ch=1 n=82 v=110
395160 On ch=1 n=70 v=110
395160 On ch=1 n=61 v=110
395160 On ch=1 n=49 v=110
395270 On ch=1 n=82 v=0
395270 On ch=1 n=70 v=0
395270 On ch=1 n=61 v=0
395270 On ch=1 n=49 v=0
395280 On ch=1 n=80 v=110
395280 On ch=1 n=70 v=110
395280 On ch=1 n=61 v=110
395280 On ch=1 n=49 v=110
395390 On ch=1 n=80 v=0
395390 On ch=1 n=70 v=0
395390 On ch=1 n=61 v=0
395390 On ch=1 n=49 v=0
395400 On ch=1 n=78 v=110
395400 On ch=1 n=70 v=110
395400 On ch=1 n=61 v=110
395400 On ch=1 n=49 v=110
395510 On ch=1 n=78 v=0
395510 On ch=1 n=70 v=0
395510 On ch=1 n=61 v=0
395510 On ch=1 n=49 v=0
395520 On ch=1 n=78 v=110
395520 On ch=1 n=70 v=110
395520 On ch=1 n=66 v=110
395520 On ch=1 n=54 v=110
395630 On ch=1 n=78 v=0
395630 On ch=1 n=70 v=0
395640 On ch=1 n=80 v=110
395640 On ch=1 n=71 v=110
395750 On ch=1 n=80 v=0
395750 On ch=1 n=71 v=0
395750 On ch=1 n=66 v=0
395750 On ch=1 n=54 v=0
395760 On ch=1 n=82 v=110
395760 On ch=1 n=73 v=110
395870 On ch=1 n=82 v=0
395870 On ch=1 n=73 v=0
395880 On ch=1 n=78 v=110
395880 On ch=1 n=73 v=110
395880 On ch=1 n=58 v=110
395990 On ch=1 n=78 v=0
395990 On ch=1 n=73 v=0
395990 On ch=1 n=58 v=0
396000 On ch=1 n=75 v=110
396000 On ch=1 n=58 v=110
396110 On ch=1 n=75 v=0
396110 On ch=1 n=58 v=0
396120 On ch=1 n=73 v=110
396120 On ch=1 n=58 v=110
396230 On ch=1 n=73 v=0
396230 On ch=1 n=58 v=0
396240 On ch=1 n=71 v=110
396240 On ch=1 n=58 v=110
396350 On ch=1 n=71 v=0
396350 On ch=1 n=58 v=0
396360 On ch=1 n=70 v=110
396360 On ch=1 n=59 v=110
396470 On ch=1 n=70 v=0
396470 On ch=1 n=59 v=0
396480 On ch=1 n=77 v=110
396480 On ch=1 n=68 v=110
396480 On ch=1 n=61 v=110
396590 On ch=1 n=77 v=0
396590 On ch=1 n=68 v=0
396590 On ch=1 n=61 v=0
396600 On ch=1 n=78 v=110
396600 On ch=1 n=70 v=110
396600 On ch=1 n=61 v=110
396710 On ch=1 n=78 v=0
396710 On ch=1 n=70 v=0
396710 On ch=1 n=61 v=0
396720 On ch=1 n=78 v=110
396720 On ch=1 n=70 v=110
396720 On ch=1 n=63 v=110
396830 On ch=1 n=78 v=0
396830 On ch=1 n=70 v=0
396830 On ch=1 n=63 v=0
396840 On ch=1 n=78 v=110
396840 On ch=1 n=70 v=110
396840 On ch=1 n=61 v=110
396950 On ch=1 n=78 v=0
396950 On ch=1 n=70 v=0
396950 On ch=1 n=61 v=0
396960 On ch=1 n=78 v=110
396960 On ch=1 n=70 v=110
396960 On ch=1 n=59 v=110
397070 On ch=1 n=78 v=0
397070 On ch=1 n=70 v=0
397070 On ch=1 n=59 v=0
397080 On ch=1 n=80 v=110
397080 On ch=1 n=71 v=110
397080 On ch=1 n=58 v=110
397190 On ch=1 n=80 v=0
397190 On ch=1 n=71 v=0
397190 On ch=1 n=58 v=0
397200 On ch=1 n=82 v=110
397200 On ch=1 n=73 v=110
397200 On ch=1 n=56 v=110
397310 On ch=1 n=82 v=0
397310 On ch=1 n=73 v=0
397310 On ch=1 n=56 v=0
397320 On ch=1 n=82 v=110
397320 On ch=1 n=73 v=110
397320 On ch=1 n=54 v=110
397430 On ch=1 n=82 v=0
397430 On ch=1 n=73 v=0
397430 On ch=1 n=54 v=0
397440 On ch=1 n=83 v=110
397440 On ch=1 n=75 v=110
397440 On ch=1 n=54 v=110
397550 On ch=1 n=83 v=0
397550 On ch=1 n=75 v=0
397550 On ch=1 n=54 v=0
397560 On ch=1 n=82 v=110
397560 On ch=1 n=73 v=110
397560 On ch=1 n=54 v=110
397670 On ch=1 n=82 v=0
397670 On ch=1 n=73 v=0
397670 On ch=1 n=54 v=0
397680 On ch=1 n=80 v=110
397680 On ch=1 n=71 v=110
397680 On ch=1 n=54 v=110
397790 On ch=1 n=80 v=0
397790 On ch=1 n=71 v=0
397790 On ch=1 n=54 v=0
397800 On ch=1 n=78 v=110
397800 On ch=1 n=70 v=110
397800 On ch=1 n=56 v=110
397910 On ch=1 n=78 v=0
397910 On ch=1 n=70 v=0
397910 On ch=1 n=56 v=0
397920 On ch=1 n=77 v=110
397920 On ch=1 n=68 v=110
397920 On ch=1 n=58 v=110
398030 On ch=1 n=77 v=0
398030 On ch=1 n=68 v=0
398030 On ch=1 n=58 v=0
398040 On ch=1 n=87 v=110
398040 On ch=1 n=75 v=110
398040 On ch=1 n=66 v=110
398040 On ch=1 n=58 v=110
398150 On ch=1 n=87 v=0
398150 On ch=1 n=75 v=0
398150 On ch=1 n=66 v=0
398150 On ch=1 n=58 v=0
398160 On ch=1 n=87 v=110
398160 On ch=1 n=78 v=110
398160 On ch=1 n=59 v=110
398270 On ch=1 n=87 v=0
398270 On ch=1 n=78 v=0
398270 On ch=1 n=59 v=0
398280 On ch=1 n=87 v=110
398280 On ch=1 n=78 v=110
398280 On ch=1 n=58 v=110
398390 On ch=1 n=87 v=0
398390 On ch=1 n=78 v=0
398390 On ch=1 n=58 v=0
398400 On ch=1 n=87 v=110
398400 On ch=1 n=66 v=110
398400 On ch=1 n=56 v=110
398510 On ch=1 n=87 v=0
398510 On ch=1 n=66 v=0
398510 On ch=1 n=56 v=0
398520 On ch=1 n=89 v=110
398520 On ch=1 n=68 v=110
398520 On ch=1 n=54 v=110
398630 On ch=1 n=89 v=0
398630 On ch=1 n=68 v=0
398630 On ch=1 n=54 v=0
398640 On ch=1 n=90 v=110
398640 On ch=1 n=70 v=110
398640 On ch=1 n=53 v=110
398750 On ch=1 n=90 v=0
398750 On ch=1 n=70 v=0
398750 On ch=1 n=53 v=0
398760 On ch=1 n=90 v=110
398760 On ch=1 n=70 v=110
398760 On ch=1 n=63 v=110
398760 On ch=1 n=51 v=110
398870 On ch=1 n=90 v=0
398870 On ch=1 n=70 v=0
398870 On ch=1 n=63 v=0
398880 On ch=1 n=92 v=110
398880 On ch=1 n=71 v=110
398880 On ch=1 n=63 v=110
398990 On ch=1 n=92 v=0
398990 On ch=1 n=71 v=0
398990 On ch=1 n=63 v=0
398990 On ch=1 n=51 v=0
399000 On ch=1 n=90 v=110
399000 On ch=1 n=70 v=110
399000 On ch=1 n=63 v=110
399110 On ch=1 n=90 v=0
399110 On ch=1 n=70 v=0
399110 On ch=1 n=63 v=0
399120 On ch=1 n=89 v=110
399120 On ch=1 n=80 v=110
399120 On ch=1 n=63 v=110
399230 On ch=1 n=89 v=0
399230 On ch=1 n=80 v=0
399230 On ch=1 n=63 v=0
399240 On ch=1 n=87 v=110
399240 On ch=1 n=78 v=110
399240 On ch=1 n=65 v=110
399350 On ch=1 n=87 v=0
399350 On ch=1 n=78 v=0
399350 On ch=1 n=65 v=0
399360 On ch=1 n=85 v=110
399360 On ch=1 n=77 v=110
399360 On ch=1 n=66 v=110
399470 On ch=1 n=85 v=0
399470 On ch=1 n=77 v=0
399470 On ch=1 n=66 v=0
399480 On ch=1 n=84 v=110
399480 On ch=1 n=75 v=110
399480 On ch=1 n=68 v=110
399590 On ch=1 n=84 v=0
399590 On ch=1 n=75 v=0
399590 On ch=1 n=68 v=0
399600 On ch=1 n=90 v=110
399600 On ch=1 n=82 v=110
399600 On ch=1 n=60 v=110
399710 On ch=1 n=90 v=0
399710 On ch=1 n=82 v=0
399710 On ch=1 n=60 v=0
399720 On ch=1 n=89 v=110
399720 On ch=1 n=80 v=110
399720 On ch=1 n=61 v=110
399830 On ch=1 n=89 v=0
399830 On ch=1 n=80 v=0
399830 On ch=1 n=61 v=0
399840 On ch=1 n=87 v=110
399840 On ch=1 n=78 v=110
399840 On ch=1 n=61 v=110
399950 On ch=1 n=87 v=0
399950 On ch=1 n=78 v=0
399950 On ch=1 n=61 v=0
399960 On ch=1 n=85 v=110
399960 On ch=1 n=77 v=110
399960 On ch=1 n=63 v=110
400070 On ch=1 n=85 v=0
400070 On ch=1 n=77 v=0
400070 On ch=1 n=63 v=0
400080 On ch=1 n=84 v=110
400080 On ch=1 n=75 v=110
400080 On ch=1 n=65 v=110
400190 On ch=1 n=84 v=0
400190 On ch=1 n=75 v=0
400190 On ch=1 n=65 v=0
400200 On ch=1 n=82 v=110
400200 On ch=1 n=73 v=110
400200 On ch=1 n=66 v=110
400310 On ch=1 n=82 v=0
400310 On ch=1 n=73 v=0
400310 On ch=1 n=66 v=0
400320 On ch=1 n=89 v=110
400320 On ch=1 n=80 v=110
400320 On ch=1 n=58 v=110
400430 On ch=1 n=89 v=0
400430 On ch=1 n=80 v=0
400430 On ch=1 n=58 v=0
400440 On ch=1 n=87 v=110
400440 On ch=1 n=78 v=110
400440 On ch=1 n=60 v=110
400550 On ch=1 n=87 v=0
400550 On ch=1 n=78 v=0
400550 On ch=1 n=60 v=0
400560 On ch=1 n=85 v=110
400560 On ch=1 n=77 v=110
400560 On ch=1 n=60 v=110
400670 On ch=1 n=85 v=0
400670 On ch=1 n=77 v=0
400670 On ch=1 n=60 v=0
400680 On ch=1 n=84 v=110
400680 On ch=1 n=75 v=110
400680 On ch=1 n=61 v=110
400790 On ch=1 n=84 v=0
400790 On ch=1 n=75 v=0
400790 On ch=1 n=61 v=0
400800 On ch=1 n=82 v=110
400800 On ch=1 n=73 v=110
400800 On ch=1 n=63 v=110
400910 On ch=1 n=82 v=0
400910 On ch=1 n=73 v=0
400910 On ch=1 n=63 v=0
400920 On ch=1 n=81 v=110
400920 On ch=1 n=72 v=110
400920 On ch=1 n=65 v=110
401030 On ch=1 n=81 v=0
401030 On ch=1 n=72 v=0
401030 On ch=1 n=65 v=0
401040 On ch=1 n=85 v=110
401040 On ch=1 n=77 v=110
401040 On ch=1 n=55 v=110
401150 On ch=1 n=85 v=0
401150 On ch=1 n=77 v=0
401150 On ch=1 n=55 v=0
401160 On ch=1 n=84 v=110
401160 On ch=1 n=75 v=110
401160 On ch=1 n=57 v=110
401270 On ch=1 n=84 v=0
401270 On ch=1 n=75 v=0
401270 On ch=1 n=57 v=0
401280 On ch=1 n=82 v=110
401280 On ch=1 n=73 v=110
401280 On ch=1 n=61 v=110
401280 On ch=1 n=58 v=110
401390 On ch=1 n=61 v=0
401390 On ch=1 n=58 v=0
401400 On ch=1 n=61 v=110
401400 On ch=1 n=58 v=110
401510 On ch=1 n=82 v=0
401510 On ch=1 n=73 v=0
401510 On ch=1 n=61 v=0
401510 On ch=1 n=58 v=0
401520 On ch=1 n=61 v=110
401520 On ch=1 n=58 v=110
401630 On ch=1 n=61 v=0
401630 On ch=1 n=58 v=0
401640 On ch=1 n=82 v=110
401640 On ch=1 n=70 v=110
401640 On ch=1 n=61 v=110
401640 On ch=1 n=58 v=110
401650 Par ch=1 c=64 v=127
401683 Par ch=1 c=64 v=0
401750 On ch=1 n=82 v=0
401750 On ch=1 n=70 v=0
401750 On ch=1 n=61 v=0
401750 On ch=1 n=58 v=0
401760 On ch=1 n=82 v=110
401760 On ch=1 n=70 v=110
401760 On ch=1 n=63 v=110
401760 On ch=1 n=60 v=110
401870 On ch=1 n=82 v=0
401870 On ch=1 n=70 v=0
401870 On ch=1 n=63 v=0
401870 On ch=1 n=60 v=0
401880 On ch=1 n=82 v=110
401880 On ch=1 n=70 v=110
401880 On ch=1 n=65 v=110
401880 On ch=1 n=61 v=110
401990 On ch=1 n=82 v=0
401990 On ch=1 n=70 v=0
401990 On ch=1 n=65 v=0
401990 On ch=1 n=61 v=0
402000 On ch=1 n=82 v=110
402000 On ch=1 n=70 v=110
402000 On ch=1 n=65 v=110
402000 On ch=1 n=61 v=110
402110 On ch=1 n=82 v=0
402110 On ch=1 n=70 v=0
402110 On ch=1 n=65 v=0
402110 On ch=1 n=61 v=0
402120 On ch=1 n=84 v=110
402120 On ch=1 n=72 v=110
402120 On ch=1 n=63 v=110
402120 On ch=1 n=60 v=110
402230 On ch=1 n=84 v=0
402230 On ch=1 n=72 v=0
402230 On ch=1 n=63 v=0
402230 On ch=1 n=60 v=0
402240 On ch=1 n=85 v=110
402240 On ch=1 n=73 v=110
402240 On ch=1 n=61 v=110
402240 On ch=1 n=58 v=110
402350 On ch=1 n=85 v=0
402350 On ch=1 n=73 v=0
402350 On ch=1 n=61 v=0
402350 On ch=1 n=58 v=0
402360 On ch=1 n=85 v=110
402360 On ch=1 n=73 v=110
402360 On ch=1 n=58 v=110
402360 On ch=1 n=46 v=110
402470 On ch=1 n=85 v=0
402470 On ch=1 n=73 v=0
402470 On ch=1 n=58 v=0
402470 On ch=1 n=46 v=0
402480 On ch=1 n=84 v=110
402480 On ch=1 n=72 v=110
402480 On ch=1 n=60 v=110
402480 On ch=1 n=48 v=110
402590 On ch=1 n=84 v=0
402590 On ch=1 n=72 v=0
402590 On ch=1 n=60 v=0
402590 On ch=1 n=48 v=0
402600 On ch=1 n=82 v=110
402600 On ch=1 n=70 v=110
402600 On ch=1 n=61 v=110
402600 On ch=1 n=49 v=110
402710 On ch=1 n=82 v=0
402710 On ch=1 n=70 v=0
402710 On ch=1 n=61 v=0
402710 On ch=1 n=49 v=0
402720 On ch=1 n=73 v=110
402720 On ch=1 n=82 v=110
402720 On ch=1 n=70 v=110
402720 On ch=1 n=58 v=110
402720 On ch=1 n=46 v=110
402830 On ch=1 n=73 v=0
402830 On ch=1 n=82 v=0
402830 On ch=1 n=70 v=0
402830 On ch=1 n=58 v=0
402830 On ch=1 n=46 v=0
402840 On ch=1 n=73 v=110
402840 On ch=1 n=82 v=110
402840 On ch=1 n=70 v=110
402840 On ch=1 n=56 v=110
402840 On ch=1 n=44 v=110
402950 On ch=1 n=73 v=0
402950 On ch=1 n=82 v=0
402950 On ch=1 n=70 v=0
402950 On ch=1 n=56 v=0
402950 On ch=1 n=44 v=0
402960 On ch=1 n=73 v=110
402960 On ch=1 n=82 v=110
402960 On ch=1 n=70 v=110
402960 On ch=1 n=54 v=110
402960 On ch=1 n=42 v=110
403070 On ch=1 n=73 v=0
403070 On ch=1 n=82 v=0
403070 On ch=1 n=70 v=0
403070 On ch=1 n=54 v=0
403070 On ch=1 n=42 v=0
403080 On ch=1 n=82 v=110
403080 On ch=1 n=70 v=110
403080 On ch=1 n=61 v=110
403080 On ch=1 n=58 v=110
403190 On ch=1 n=82 v=0
403190 On ch=1 n=70 v=0
403190 On ch=1 n=61 v=0
403190 On ch=1 n=58 v=0
403200 On ch=1 n=82 v=110
403200 On ch=1 n=70 v=110
403200 On ch=1 n=63 v=110
403200 On ch=1 n=59 v=110
403310 On ch=1 n=82 v=0
403310 On ch=1 n=70 v=0
403310 On ch=1 n=63 v=0
403310 On ch=1 n=59 v=0
403320 On ch=1 n=82 v=110
403320 On ch=1 n=70 v=110
403320 On ch=1 n=64 v=110
403320 On ch=1 n=61 v=110
403430 On ch=1 n=82 v=0
403430 On ch=1 n=70 v=0
403430 On ch=1 n=64 v=0
403430 On ch=1 n=61 v=0
403440 On ch=1 n=82 v=110
403440 On ch=1 n=70 v=110
403440 On ch=1 n=64 v=110
403440 On ch=1 n=61 v=110
403550 On ch=1 n=82 v=0
403550 On ch=1 n=70 v=0
403550 On ch=1 n=64 v=0
403550 On ch=1 n=61 v=0
403560 On ch=1 n=84 v=110
403560 On ch=1 n=72 v=110
403560 On ch=1 n=63 v=110
403560 On ch=1 n=60 v=110
403670 On ch=1 n=84 v=0
403670 On ch=1 n=72 v=0
403670 On ch=1 n=63 v=0
403670 On ch=1 n=60 v=0
403680 On ch=1 n=85 v=110
403680 On ch=1 n=73 v=110
403680 On ch=1 n=61 v=110
403680 On ch=1 n=58 v=110
403790 On ch=1 n=85 v=0
403790 On ch=1 n=73 v=0
403790 On ch=1 n=61 v=0
403790 On ch=1 n=58 v=0
403800 On ch=1 n=76 v=110
403800 On ch=1 n=85 v=110
403800 On ch=1 n=73 v=110
403800 On ch=1 n=54 v=110
403800 On ch=1 n=42 v=110
403910 On ch=1 n=76 v=0
403910 On ch=1 n=85 v=0
403910 On ch=1 n=73 v=0
403910 On ch=1 n=54 v=0
403910 On ch=1 n=42 v=0
403920 On ch=1 n=84 v=110
403920 On ch=1 n=72 v=110
403920 On ch=1 n=54 v=110
403920 On ch=1 n=42 v=110
404030 On ch=1 n=84 v=0
404030 On ch=1 n=72 v=0
404030 On ch=1 n=54 v=0
404030 On ch=1 n=42 v=0
404040 On ch=1 n=82 v=110
404040 On ch=1 n=70 v=110
404040 On ch=1 n=54 v=110
404040 On ch=1 n=42 v=110
404150 On ch=1 n=82 v=0
404150 On ch=1 n=70 v=0
404150 On ch=1 n=54 v=0
404150 On ch=1 n=42 v=0
404160 On ch=1 n=73 v=110
404160 On ch=1 n=82 v=110
404160 On ch=1 n=70 v=110
404160 On ch=1 n=55 v=110
404160 On ch=1 n=43 v=110
404270 On ch=1 n=73 v=0
404270 On ch=1 n=82 v=0
404270 On ch=1 n=70 v=0
404270 On ch=1 n=55 v=0
404270 On ch=1 n=43 v=0
404280 On ch=1 n=73 v=110
404280 On ch=1 n=64 v=110
404280 On ch=1 n=58 v=110
404280 On ch=1 n=55 v=110
404286 Par ch=1 c=64 v=127
404390 On ch=1 n=73 v=0
404390 On ch=1 n=64 v=0
404390 On ch=1 n=58 v=0
404390 On ch=1 n=55 v=0
404400 On ch=1 n=73 v=110
404400 On ch=1 n=64 v=110
404400 On ch=1 n=58 v=110
404400 On ch=1 n=55 v=110
404510 On ch=1 n=73 v=0
404510 On ch=1 n=64 v=0
404510 On ch=1 n=58 v=0
404510 On ch=1 n=55 v=0
404520 On ch=1 n=73 v=110
404520 On ch=1 n=64 v=110
404520 On ch=1 n=58 v=110
404520 On ch=1 n=55 v=110
404630 On ch=1 n=73 v=0
404630 On ch=1 n=64 v=0
404630 On ch=1 n=58 v=0
404630 On ch=1 n=55 v=0
404640 On ch=1 n=74 v=110
404640 On ch=1 n=66 v=110
404640 On ch=1 n=54 v=110
404750 On ch=1 n=74 v=0
404750 On ch=1 n=66 v=0
404750 On ch=1 n=54 v=0
404760 On ch=1 n=76 v=110
404760 On ch=1 n=67 v=110
404760 On ch=1 n=52 v=110
404841 Par ch=1 c=64 v=0
404870 On ch=1 n=76 v=0
404870 On ch=1 n=67 v=0
404870 On ch=1 n=52 v=0
404880 On ch=1 n=76 v=110
404880 On ch=1 n=73 v=110
404880 On ch=1 n=52 v=110
404990 On ch=1 n=76 v=0
404990 On ch=1 n=73 v=0
404990 On ch=1 n=52 v=0
405000 On ch=1 n=78 v=110
405000 On ch=1 n=74 v=110
405000 On ch=1 n=50 v=110
405110 On ch=1 n=78 v=0
405110 On ch=1 n=74 v=0
405110 On ch=1 n=50 v=0
405120 On ch=1 n=79 v=110
405120 On ch=1 n=76 v=110
405120 On ch=1 n=49 v=110
405230 On ch=1 n=79 v=0
405230 On ch=1 n=76 v=0
405230 On ch=1 n=49 v=0
405240 On ch=1 n=73 v=110
405240 On ch=1 n=76 v=110
405240 On ch=1 n=67 v=110
405240 On ch=1 n=54 v=110
405350 On ch=1 n=73 v=0
405350 On ch=1 n=76 v=0
405350 On ch=1 n=67 v=0
405350 On ch=1 n=54 v=0
405360 On ch=1 n=71 v=110
405360 On ch=1 n=74 v=110
405360 On ch=1 n=66 v=110
405360 On ch=1 n=42 v=110
405470 On ch=1 n=71 v=0
405470 On ch=1 n=74 v=0
405470 On ch=1 n=66 v=0
405470 On ch=1 n=42 v=0
405480 On ch=1 n=70 v=110
405480 On ch=1 n=73 v=110
405480 On ch=1 n=64 v=110
405480 On ch=1 n=54 v=110
405590 On ch=1 n=70 v=0
405590 On ch=1 n=73 v=0
405590 On ch=1 n=64 v=0
405590 On ch=1 n=54 v=0
405600 On ch=1 n=66 v=110
405600 On ch=1 n=71 v=110
405600 On ch=1 n=62 v=110
405600 On ch=1 n=59 v=110
405600 On ch=1 n=50 v=110
405710 On ch=1 n=59 v=0
405710 On ch=1 n=50 v=0
405720 On ch=1 n=59 v=110
405720 On ch=1 n=50 v=110
405739 Par ch=1 c=64 v=127
405830 On ch=1 n=66 v=0
405830 On ch=1 n=71 v=0
405830 On ch=1 n=62 v=0
405830 On ch=1 n=59 v=0
405830 On ch=1 n=50 v=0
405840 On ch=1 n=83 v=110
405840 On ch=1 n=71 v=110
405840 On ch=1 n=59 v=110
405840 On ch=1 n=50 v=110
405950 On ch=1 n=83 v=0
405950 On ch=1 n=71 v=0
405950 On ch=1 n=59 v=0
405950 On ch=1 n=50 v=0
405960 On ch=1 n=83 v=110
405960 On ch=1 n=71 v=110
405960 On ch=1 n=59 v=110
405960 On ch=1 n=50 v=110
406070 On ch=1 n=59 v=0
406070 On ch=1 n=50 v=0
406080 On ch=1 n=61 v=110
406080 On ch=1 n=52 v=110
406190 On ch=1 n=61 v=0
406190 On ch=1 n=52 v=0
406200 On ch=1 n=62 v=110
406200 On ch=1 n=54 v=110
406257 Par ch=1 c=64 v=0
406310 On ch=1 n=83 v=0
406310 On ch=1 n=71 v=0
406310 On ch=1 n=62 v=0
406310 On ch=1 n=54 v=0
406320 On ch=1 n=62 v=110
406320 On ch=1 n=54 v=110
406430 On ch=1 n=62 v=0
406430 On ch=1 n=54 v=0
406440 On ch=1 n=64 v=110
406440 On ch=1 n=55 v=110
406550 On ch=1 n=64 v=0
406550 On ch=1 n=55 v=0
406560 On ch=1 n=85 v=110
406560 On ch=1 n=73 v=110
406560 On ch=1 n=62 v=110
406560 On ch=1 n=54 v=110
406670 On ch=1 n=85 v=0
406670 On ch=1 n=73 v=0
406670 On ch=1 n=62 v=0
406670 On ch=1 n=54 v=0
406680 On ch=1 n=85 v=110
406680 On ch=1 n=73 v=110
406680 On ch=1 n=61 v=110
406680 On ch=1 n=52 v=110
406790 On ch=1 n=61 v=0
406790 On ch=1 n=52 v=0
406800 On ch=1 n=59 v=110
406800 On ch=1 n=50 v=110
406910 On ch=1 n=59 v=0
406910 On ch=1 n=50 v=0
406920 On ch=1 n=58 v=110
406920 On ch=1 n=49 v=110
407030 On ch=1 n=85 v=0
407030 On ch=1 n=73 v=0
407030 On ch=1 n=58 v=0
407030 On ch=1 n=49 v=0
407040 On ch=1 n=87 v=110
407040 On ch=1 n=75 v=110
407040 On ch=1 n=57 v=110
407040 On ch=1 n=49 v=110
407150 On ch=1 n=87 v=0
407150 On ch=1 n=75 v=0
407150 On ch=1 n=57 v=0
407150 On ch=1 n=49 v=0
407160 On ch=1 n=88 v=110
407160 On ch=1 n=76 v=110
407160 On ch=1 n=47 v=110
407270 On ch=1 n=88 v=0
407270 On ch=1 n=76 v=0
407270 On ch=1 n=47 v=0
407280 On ch=1 n=90 v=110
407280 On ch=1 n=78 v=110
407280 On ch=1 n=64 v=110
407280 On ch=1 n=52 v=110
407390 On ch=1 n=90 v=0
407390 On ch=1 n=78 v=0
407390 On ch=1 n=64 v=0
407390 On ch=1 n=52 v=0
407400 On ch=1 n=91 v=110
407400 On ch=1 n=83 v=110
407400 On ch=1 n=79 v=110
407400 On ch=1 n=64 v=110
407400 On ch=1 n=52 v=110
407510 On ch=1 n=91 v=0
407510 On ch=1 n=83 v=0
407510 On ch=1 n=79 v=0
407520 On ch=1 n=91 v=110
407520 On ch=1 n=83 v=110
407520 On ch=1 n=79 v=110
407592 Par ch=1 c=64 v=127
407630 On ch=1 n=91 v=0
407630 On ch=1 n=83 v=0
407630 On ch=1 n=79 v=0
407640 On ch=1 n=91 v=110
407640 On ch=1 n=83 v=110
407640 On ch=1 n=79 v=110
407750 On ch=1 n=91 v=0
407750 On ch=1 n=83 v=0
407750 On ch=1 n=79 v=0
407760 On ch=1 n=91 v=110
407760 On ch=1 n=83 v=110
407760 On ch=1 n=79 v=110
407870 On ch=1 n=91 v=0
407870 On ch=1 n=83 v=0
407870 On ch=1 n=79 v=0
407880 On ch=1 n=93 v=110
407880 On ch=1 n=84 v=110
407880 On ch=1 n=81 v=110
407990 On ch=1 n=93 v=0
407990 On ch=1 n=84 v=0
407990 On ch=1 n=81 v=0
407990 On ch=1 n=64 v=0
407990 On ch=1 n=52 v=0
408000 On ch=1 n=91 v=110
408000 On ch=1 n=83 v=110
408000 On ch=1 n=79 v=110
408000 On ch=1 n=66 v=110
408000 On ch=1 n=54 v=110
408062 Par ch=1 c=64 v=0
408110 On ch=1 n=91 v=0
408110 On ch=1 n=83 v=0
408110 On ch=1 n=79 v=0
408110 On ch=1 n=66 v=0
408110 On ch=1 n=54 v=0
408120 On ch=1 n=90 v=110
408120 On ch=1 n=81 v=110
408120 On ch=1 n=78 v=110
408120 On ch=1 n=66 v=110
408120 On ch=1 n=54 v=110
408230 On ch=1 n=90 v=0
408230 On ch=1 n=81 v=0
408230 On ch=1 n=78 v=0
408240 On ch=1 n=88 v=110
408240 On ch=1 n=76 v=110
408350 On ch=1 n=88 v=0
408350 On ch=1 n=76 v=0
408360 On ch=1 n=87 v=110
408360 On ch=1 n=75 v=110
408470 On ch=1 n=87 v=0
408470 On ch=1 n=75 v=0
408470 On ch=1 n=66 v=0
408470 On ch=1 n=54 v=0
408480 On ch=1 n=84 v=110
408480 On ch=1 n=93 v=110
408480 On ch=1 n=81 v=110
408480 On ch=1 n=51 v=110
408480 On ch=1 n=54 v=110
408480 On ch=1 n=42 v=110
408590 On ch=1 n=84 v=0
408590 On ch=1 n=93 v=0
408590 On ch=1 n=81 v=0
408590 On ch=1 n=51 v=0
408590 On ch=1 n=54 v=0
408590 On ch=1 n=42 v=0
408600 On ch=1 n=84 v=110
408600 On ch=1 n=93 v=110
408600 On ch=1 n=81 v=110
408600 On ch=1 n=51 v=110
408600 On ch=1 n=54 v=110
408600 On ch=1 n=42 v=110
408684 Par ch=1 c=64 v=127
408710 On ch=1 n=84 v=0
408710 On ch=1 n=93 v=0
408710 On ch=1 n=81 v=0
408710 On ch=1 n=51 v=0
408710 On ch=1 n=54 v=0
408710 On ch=1 n=42 v=0
408720 On ch=1 n=84 v=110
408720 On ch=1 n=93 v=110
408720 On ch=1 n=81 v=110
408720 On ch=1 n=51 v=110
408720 On ch=1 n=54 v=110
408720 On ch=1 n=42 v=110
408830 On ch=1 n=84 v=0
408830 On ch=1 n=93 v=0
408830 On ch=1 n=81 v=0
408830 On ch=1 n=51 v=0
408830 On ch=1 n=54 v=0
408830 On ch=1 n=42 v=0
408840 On ch=1 n=84 v=110
408840 On ch=1 n=93 v=110
408840 On ch=1 n=81 v=110
408840 On ch=1 n=51 v=110
408840 On ch=1 n=54 v=110
408840 On ch=1 n=42 v=110
408950 On ch=1 n=84 v=0
408950 On ch=1 n=93 v=0
408950 On ch=1 n=81 v=0
408950 On ch=1 n=51 v=0
408950 On ch=1 n=54 v=0
408950 On ch=1 n=42 v=0
408960 On ch=1 n=83 v=110
408960 On ch=1 n=91 v=110
408960 On ch=1 n=79 v=110
408960 On ch=1 n=55 v=110
408960 On ch=1 n=43 v=110
409070 On ch=1 n=83 v=0
409070 On ch=1 n=91 v=0
409070 On ch=1 n=79 v=0
409070 On ch=1 n=55 v=0
409070 On ch=1 n=43 v=0
409080 On ch=1 n=81 v=110
409080 On ch=1 n=90 v=110
409080 On ch=1 n=78 v=110
409080 On ch=1 n=57 v=110
409080 On ch=1 n=45 v=110
409104 Par ch=1 c=64 v=0
409190 On ch=1 n=81 v=0
409190 On ch=1 n=90 v=0
409190 On ch=1 n=78 v=0
409190 On ch=1 n=57 v=0
409190 On ch=1 n=45 v=0
409200 On ch=1 n=78 v=110
409200 On ch=1 n=87 v=110
409200 On ch=1 n=75 v=110
409200 On ch=1 n=57 v=110
409200 On ch=1 n=45 v=110
409310 On ch=1 n=78 v=0
409310 On ch=1 n=87 v=0
409310 On ch=1 n=75 v=0
409310 On ch=1 n=57 v=0
409310 On ch=1 n=45 v=0
409320 On ch=1 n=59 v=110
409320 On ch=1 n=47 v=110
409430 On ch=1 n=59 v=0
409430 On ch=1 n=47 v=0
409440 On ch=1 n=79 v=110
409440 On ch=1 n=88 v=110
409440 On ch=1 n=76 v=110
409440 On ch=1 n=57 v=110
409440 On ch=1 n=45 v=110
409550 On ch=1 n=79 v=0
409550 On ch=1 n=88 v=0
409550 On ch=1 n=76 v=0
409550 On ch=1 n=57 v=0
409550 On ch=1 n=45 v=0
409560 On ch=1 n=79 v=110
409560 On ch=1 n=88 v=110
409560 On ch=1 n=76 v=110
409560 On ch=1 n=55 v=110
409560 On ch=1 n=43 v=110
409670 On ch=1 n=55 v=0
409670 On ch=1 n=43 v=0
409680 On ch=1 n=54 v=110
409680 On ch=1 n=42 v=110
409790 On ch=1 n=54 v=0
409790 On ch=1 n=42 v=0
409800 On ch=1 n=52 v=110
409800 On ch=1 n=40 v=110
409910 On ch=1 n=52 v=0
409910 On ch=1 n=40 v=0
409920 On ch=1 n=52 v=110
409920 On ch=1 n=40 v=110
410030 On ch=1 n=52 v=0
410030 On ch=1 n=40 v=0
410150 On ch=1 n=79 v=0
410150 On ch=1 n=88 v=0
410150 On ch=1 n=76 v=0
410160 On ch=1 n=83 v=110
410160 On ch=1 n=90 v=110
410160 On ch=1 n=78 v=110
410160 On ch=1 n=51 v=110
410160 On ch=1 n=39 v=110
410270 On ch=1 n=83 v=0
410270 On ch=1 n=90 v=0
410270 On ch=1 n=78 v=0
410270 On ch=1 n=51 v=0
410270 On ch=1 n=39 v=0
410280 On ch=1 n=83 v=110
410280 On ch=1 n=90 v=110
410280 On ch=1 n=78 v=110
410280 On ch=1 n=51 v=110
410280 On ch=1 n=39 v=110
410390 On ch=1 n=83 v=0
410390 On ch=1 n=90 v=0
410390 On ch=1 n=78 v=0
410400 On ch=1 n=91 v=110
410400 On ch=1 n=79 v=110
410403 Par ch=1 c=64 v=127
410510 On ch=1 n=91 v=0
410510 On ch=1 n=79 v=0
410520 On ch=1 n=93 v=110
410520 On ch=1 n=81 v=110
410630 On ch=1 n=93 v=0
410630 On ch=1 n=81 v=0
410640 On ch=1 n=93 v=110
410640 On ch=1 n=81 v=110
410750 On ch=1 n=93 v=0
410750 On ch=1 n=81 v=0
410760 On ch=1 n=95 v=110
410760 On ch=1 n=83 v=110
410838 Par ch=1 c=64 v=0
410870 On ch=1 n=95 v=0
410870 On ch=1 n=83 v=0
410870 On ch=1 n=51 v=0
410870 On ch=1 n=39 v=0
410880 On ch=1 n=93 v=110
410880 On ch=1 n=81 v=110
410880 On ch=1 n=66 v=110
410880 On ch=1 n=71 v=110
410880 On ch=1 n=63 v=110
410990 On ch=1 n=93 v=0
410990 On ch=1 n=81 v=0
410990 On ch=1 n=66 v=0
410990 On ch=1 n=71 v=0
410990 On ch=1 n=63 v=0
411000 On ch=1 n=91 v=110
411000 On ch=1 n=79 v=110
411000 On ch=1 n=67 v=110
411000 On ch=1 n=71 v=110
411000 On ch=1 n=64 v=110
411110 Par ch=1 c=64 v=127
411110 On ch=1 n=91 v=0
411110 On ch=1 n=79 v=0
411120 On ch=1 n=90 v=110
411120 On ch=1 n=78 v=110
411230 On ch=1 n=90 v=0
411230 On ch=1 n=78 v=0
411230 On ch=1 n=67 v=0
411230 On ch=1 n=71 v=0
411230 On ch=1 n=64 v=0
411240 On ch=1 n=88 v=110
411240 On ch=1 n=76 v=110
411240 On ch=1 n=64 v=110
411240 On ch=1 n=52 v=110
411350 On ch=1 n=88 v=0
411350 On ch=1 n=76 v=0
411350 On ch=1 n=64 v=0
411350 On ch=1 n=52 v=0
411360 On ch=1 n=91 v=110
411360 On ch=1 n=79 v=110
411360 On ch=1 n=61 v=110
411360 On ch=1 n=49 v=110
411433 Par ch=1 c=64 v=0
411470 On ch=1 n=91 v=0
411470 On ch=1 n=79 v=0
411480 On ch=1 n=93 v=110
411480 On ch=1 n=81 v=110
411544 Par ch=1 c=64 v=127
411590 On ch=1 n=93 v=0
411590 On ch=1 n=81 v=0
411590 On ch=1 n=61 v=0
411590 On ch=1 n=49 v=0
411600 On ch=1 n=91 v=110
411600 On ch=1 n=79 v=110
411600 On ch=1 n=64 v=110
411600 On ch=1 n=69 v=110
411600 On ch=1 n=61 v=110
411710 On ch=1 n=91 v=0
411710 On ch=1 n=79 v=0
411710 On ch=1 n=64 v=0
411710 On ch=1 n=69 v=0
411710 On ch=1 n=61 v=0
411720 On ch=1 n=90 v=110
411720 On ch=1 n=78 v=110
411720 On ch=1 n=66 v=110
411720 On ch=1 n=69 v=110
411720 On ch=1 n=62 v=110
411736 Par ch=1 c=64 v=0
411830 On ch=1 n=90 v=0
411830 On ch=1 n=78 v=0
411840 On ch=1 n=88 v=110
411840 On ch=1 n=76 v=110
411864 Par ch=1 c=64 v=127
411950 On ch=1 n=88 v=0
411950 On ch=1 n=76 v=0
411950 On ch=1 n=66 v=0
411950 On ch=1 n=69 v=0
411950 On ch=1 n=62 v=0
411960 On ch=1 n=86 v=110
411960 On ch=1 n=74 v=110
411960 On ch=1 n=62 v=110
411960 On ch=1 n=50 v=110
412044 Par ch=1 c=64 v=0
412070 On ch=1 n=86 v=0
412070 On ch=1 n=74 v=0
412070 On ch=1 n=62 v=0
412070 On ch=1 n=50 v=0
412080 On ch=1 n=90 v=110
412080 On ch=1 n=78 v=110
412080 On ch=1 n=59 v=110
412080 On ch=1 n=47 v=110
412170 Par ch=1 c=64 v=127
412190 On ch=1 n=90 v=0
412190 On ch=1 n=78 v=0
412200 On ch=1 n=91 v=110
412200 On ch=1 n=79 v=110
412310 On ch=1 n=91 v=0
412310 On ch=1 n=79 v=0
412310 On ch=1 n=59 v=0
412310 On ch=1 n=47 v=0
412320 On ch=1 n=90 v=110
412320 On ch=1 n=78 v=110
412320 On ch=1 n=62 v=110
412320 On ch=1 n=67 v=110
412320 On ch=1 n=59 v=110
412409 Par ch=1 c=64 v=0
412430 On ch=1 n=90 v=0
412430 On ch=1 n=78 v=0
412430 On ch=1 n=62 v=0
412430 On ch=1 n=67 v=0
412430 On ch=1 n=59 v=0
412440 On ch=1 n=88 v=110
412440 On ch=1 n=76 v=110
412440 On ch=1 n=64 v=110
412440 On ch=1 n=67 v=110
412440 On ch=1 n=61 v=110
412536 Par ch=1 c=64 v=127
412550 On ch=1 n=88 v=0
412550 On ch=1 n=76 v=0
412560 On ch=1 n=86 v=110
412560 On ch=1 n=74 v=110
412670 On ch=1 n=86 v=0
412670 On ch=1 n=74 v=0
412670 On ch=1 n=64 v=0
412670 On ch=1 n=67 v=0
412670 On ch=1 n=61 v=0
412680 On ch=1 n=85 v=110
412680 On ch=1 n=73 v=110
412680 On ch=1 n=61 v=110
412680 On ch=1 n=49 v=110
412786 Par ch=1 c=64 v=0
412790 On ch=1 n=85 v=0
412790 On ch=1 n=73 v=0
412790 On ch=1 n=61 v=0
412790 On ch=1 n=49 v=0
412800 On ch=1 n=88 v=110
412800 On ch=1 n=76 v=110
412800 On ch=1 n=58 v=110
412800 On ch=1 n=46 v=110
412910 On ch=1 n=88 v=0
412910 On ch=1 n=76 v=0
412920 On ch=1 n=90 v=110
412920 On ch=1 n=78 v=110
412964 Par ch=1 c=64 v=127
413030 On ch=1 n=90 v=0
413030 On ch=1 n=78 v=0
413030 On ch=1 n=58 v=0
413030 On ch=1 n=46 v=0
413040 On ch=1 n=88 v=110
413040 On ch=1 n=76 v=110
413040 On ch=1 n=61 v=110
413040 On ch=1 n=66 v=110
413040 On ch=1 n=58 v=110
413150 On ch=1 n=88 v=0
413150 On ch=1 n=76 v=0
413150 On ch=1 n=61 v=0
413150 On ch=1 n=66 v=0
413150 On ch=1 n=58 v=0
413153 Par ch=1 c=64 v=0
413160 On ch=1 n=86 v=110
413160 On ch=1 n=74 v=110
413160 On ch=1 n=62 v=110
413160 On ch=1 n=66 v=110
413160 On ch=1 n=59 v=110
413270 On ch=1 n=86 v=0
413270 On ch=1 n=74 v=0
413274 Par ch=1 c=64 v=127
413280 On ch=1 n=85 v=110
413280 On ch=1 n=73 v=110
413390 On ch=1 n=85 v=0
413390 On ch=1 n=73 v=0
413390 On ch=1 n=62 v=0
413390 On ch=1 n=66 v=0
413390 On ch=1 n=59 v=0
413400 On ch=1 n=83 v=110
413400 On ch=1 n=71 v=110
413400 On ch=1 n=59 v=110
413400 On ch=1 n=47 v=110
413493 Par ch=1 c=64 v=0
413510 On ch=1 n=83 v=0
413510 On ch=1 n=71 v=0
413510 On ch=1 n=59 v=0
413510 On ch=1 n=47 v=0
413520 On ch=1 n=85 v=127
413520 On ch=1 n=79 v=127
413520 On ch=1 n=73 v=127
413520 On ch=1 n=64 v=127
413520 On ch=1 n=58 v=127
413520 On ch=1 n=52 v=127
413630 On ch=1 n=85 v=0
413630 On ch=1 n=79 v=0
413630 On ch=1 n=73 v=0
413630 On ch=1 n=64 v=0
413630 On ch=1 n=58 v=0
413630 On ch=1 n=52 v=0
413640 On ch=1 n=86 v=127
413640 On ch=1 n=74 v=127
413640 On ch=1 n=66 v=127
413640 On ch=1 n=54 v=127
413750 On ch=1 n=86 v=0
413750 On ch=1 n=74 v=0
413750 On ch=1 n=66 v=0
413750 On ch=1 n=54 v=0
413760 On ch=1 n=85 v=127
413760 On ch=1 n=73 v=127
413760 On ch=1 n=64 v=127
413760 On ch=1 n=52 v=127
413870 On ch=1 n=85 v=0
413870 On ch=1 n=73 v=0
413870 On ch=1 n=64 v=0
413870 On ch=1 n=52 v=0
413880 On ch=1 n=83 v=127
413880 On ch=1 n=78 v=127
413880 On ch=1 n=71 v=127
413880 On ch=1 n=62 v=127
413880 On ch=1 n=50 v=127
413990 On ch=1 n=83 v=0
413990 On ch=1 n=78 v=0
413990 On ch=1 n=71 v=0
413990 On ch=1 n=62 v=0
413990 On ch=1 n=50 v=0
414000 On ch=1 n=82 v=127
414000 On ch=1 n=70 v=127
414000 On ch=1 n=61 v=127
414000 On ch=1 n=49 v=127
414110 On ch=1 n=82 v=0
414110 On ch=1 n=70 v=0
414110 On ch=1 n=61 v=0
414110 On ch=1 n=49 v=0
414120 On ch=1 n=80 v=127
414120 On ch=1 n=68 v=127
414120 On ch=1 n=59 v=127
414120 On ch=1 n=47 v=127
414230 On ch=1 n=80 v=0
414230 On ch=1 n=68 v=0
414230 On ch=1 n=59 v=0
414230 On ch=1 n=47 v=0
414240 On ch=1 n=78 v=127
414240 On ch=1 n=66 v=127
414240 On ch=1 n=58 v=127
414240 On ch=1 n=46 v=127
414332 Par ch=1 c=64 v=127
414350 On ch=1 n=58 v=0
414350 On ch=1 n=46 v=0
414360 On ch=1 n=59 v=127
414360 On ch=1 n=47 v=127
414470 On ch=1 n=78 v=0
414470 On ch=1 n=66 v=0
414470 On ch=1 n=59 v=0
414470 On ch=1 n=47 v=0
414480 On ch=1 n=82 v=127
414480 On ch=1 n=90 v=127
414480 On ch=1 n=78 v=127
414480 On ch=1 n=61 v=127
414480 On ch=1 n=49 v=127
414590 On ch=1 n=82 v=0
414590 On ch=1 n=90 v=0
414590 On ch=1 n=78 v=0
414590 On ch=1 n=61 v=0
414590 On ch=1 n=49 v=0
414600 On ch=1 n=82 v=127
414600 On ch=1 n=90 v=127
414600 On ch=1 n=78 v=127
414600 On ch=1 n=61 v=127
414600 On ch=1 n=49 v=127
414710 On ch=1 n=61 v=0
414710 On ch=1 n=49 v=0
414720 On ch=1 n=61 v=127
414720 On ch=1 n=49 v=127
414820 Par ch=1 c=64 v=0
414830 On ch=1 n=61 v=0
414830 On ch=1 n=49 v=0
414840 On ch=1 n=61 v=127
414840 On ch=1 n=49 v=127
414950 On ch=1 n=82 v=0
414950 On ch=1 n=90 v=0
414950 On ch=1 n=78 v=0
414950 On ch=1 n=61 v=0
414950 On ch=1 n=49 v=0
414960 On ch=1 n=61 v=127
414960 On ch=1 n=49 v=127
415070 On ch=1 n=61 v=0
415070 On ch=1 n=49 v=0
415080 On ch=1 n=62 v=127
415080 On ch=1 n=50 v=127
415190 On ch=1 n=62 v=0
415190 On ch=1 n=50 v=0
415200 On ch=1 n=82 v=127
415200 On ch=1 n=90 v=127
415200 On ch=1 n=78 v=127
415200 On ch=1 n=61 v=127
415200 On ch=1 n=49 v=127
415310 On ch=1 n=82 v=0
415310 On ch=1 n=90 v=0
415310 On ch=1 n=78 v=0
415310 On ch=1 n=61 v=0
415310 On ch=1 n=49 v=0
415320 On ch=1 n=83 v=127
415320 On ch=1 n=92 v=127
415320 On ch=1 n=80 v=127
415320 On ch=1 n=59 v=127
415320 On ch=1 n=47 v=127
415430 On ch=1 n=59 v=0
415430 On ch=1 n=47 v=0
415440 On ch=1 n=58 v=127
415440 On ch=1 n=46 v=127
415550 On ch=1 n=58 v=0
415550 On ch=1 n=46 v=0
415560 On ch=1 n=56 v=127
415560 On ch=1 n=44 v=127
415670 On ch=1 n=83 v=0
415670 On ch=1 n=92 v=0
415670 On ch=1 n=80 v=0
415670 On ch=1 n=56 v=0
415670 On ch=1 n=44 v=0
415680 On ch=1 n=71 v=127
415680 On ch=1 n=59 v=127
415756 Par ch=1 c=64 v=127
415790 On ch=1 n=71 v=0
415790 On ch=1 n=59 v=0
415800 On ch=1 n=73 v=127
415800 On ch=1 n=61 v=127
415910 On ch=1 n=73 v=0
415910 On ch=1 n=61 v=0
415920 On ch=1 n=74 v=127
415920 On ch=1 n=62 v=127
415920 On ch=1 n=47 v=127
415920 On ch=1 n=53 v=127
415920 On ch=1 n=44 v=127
416030 On ch=1 n=74 v=0
416030 On ch=1 n=62 v=0
416030 On ch=1 n=47 v=0
416030 On ch=1 n=53 v=0
416030 On ch=1 n=44 v=0
416040 On ch=1 n=74 v=127
416040 On ch=1 n=62 v=127
416040 On ch=1 n=47 v=127
416040 On ch=1 n=53 v=127
416040 On ch=1 n=44 v=127
416150 On ch=1 n=74 v=0
416150 On ch=1 n=62 v=0
416160 On ch=1 n=74 v=127
416160 On ch=1 n=62 v=127
416270 On ch=1 n=74 v=0
416270 On ch=1 n=62 v=0
416280 On ch=1 n=74 v=127
416280 On ch=1 n=62 v=127
416390 Par ch=1 c=64 v=0
416390 On ch=1 n=74 v=0
416390 On ch=1 n=62 v=0
416400 On ch=1 n=74 v=127
416400 On ch=1 n=62 v=127
416510 On ch=1 n=74 v=0
416510 On ch=1 n=62 v=0
416520 On ch=1 n=76 v=127
416520 On ch=1 n=64 v=127
416630 On ch=1 n=76 v=0
416630 On ch=1 n=64 v=0
416630 On ch=1 n=47 v=0
416630 On ch=1 n=53 v=0
416630 On ch=1 n=44 v=0
416640 On ch=1 n=74 v=127
416640 On ch=1 n=62 v=127
416640 On ch=1 n=47 v=127
416640 On ch=1 n=53 v=127
416640 On ch=1 n=44 v=127
416750 On ch=1 n=74 v=0
416750 On ch=1 n=62 v=0
416750 On ch=1 n=47 v=0
416750 On ch=1 n=53 v=0
416750 On ch=1 n=44 v=0
416760 On ch=1 n=73 v=127
416760 On ch=1 n=61 v=127
416760 On ch=1 n=49 v=127
416760 On ch=1 n=54 v=127
416760 On ch=1 n=46 v=127
416870 On ch=1 n=73 v=0
416870 On ch=1 n=61 v=0
416880 On ch=1 n=71 v=127
416880 On ch=1 n=59 v=127
416990 On ch=1 n=71 v=0
416990 On ch=1 n=59 v=0
416990 On ch=1 n=49 v=0
416990 On ch=1 n=54 v=0
416990 On ch=1 n=46 v=0
417000 On ch=1 n=70 v=127
417000 On ch=1 n=58 v=127
417110 On ch=1 n=70 v=0
417110 On ch=1 n=58 v=0
417120 On ch=1 n=73 v=127
417120 On ch=1 n=61 v=127
417120 On ch=1 n=42 v=127
417120 On ch=1 n=30 v=127
417224 Par ch=1 c=64 v=127
417230 On ch=1 n=73 v=0
417230 On ch=1 n=61 v=0
417240 On ch=1 n=74 v=127
417240 On ch=1 n=62 v=127
417350 On ch=1 n=74 v=0
417350 On ch=1 n=62 v=0
417350 On ch=1 n=42 v=0
417350 On ch=1 n=30 v=0
417360 On ch=1 n=76 v=127
417360 On ch=1 n=64 v=127
417360 On ch=1 n=61 v=127
417360 On ch=1 n=54 v=127
417470 On ch=1 n=76 v=0
417470 On ch=1 n=64 v=0
417470 On ch=1 n=61 v=0
417470 On ch=1 n=54 v=0
417480 On ch=1 n=76 v=127
417480 On ch=1 n=64 v=127
417480 On ch=1 n=61 v=127
417480 On ch=1 n=54 v=127
417590 On ch=1 n=76 v=0
417590 On ch=1 n=64 v=0
417600 On ch=1 n=76 v=127
417600 On ch=1 n=64 v=127
417710 On ch=1 n=76 v=0
417710 On ch=1 n=64 v=0
417720 On ch=1 n=76 v=127
417720 On ch=1 n=64 v=127
417830 On ch=1 n=76 v=0
417830 On ch=1 n=64 v=0
417840 On ch=1 n=76 v=127
417840 On ch=1 n=64 v=127
417904 Par ch=1 c=64 v=0
417950 On ch=1 n=76 v=0
417950 On ch=1 n=64 v=0
417950 On ch=1 n=61 v=0
417950 On ch=1 n=54 v=0
417960 On ch=1 n=66 v=127
417960 On ch=1 n=62 v=127
418070 On ch=1 n=66 v=0
418070 On ch=1 n=62 v=0
418080 On ch=1 n=76 v=127
418080 On ch=1 n=64 v=127
418080 On ch=1 n=61 v=127
418080 On ch=1 n=54 v=127
418190 On ch=1 n=76 v=0
418190 On ch=1 n=64 v=0
418190 On ch=1 n=61 v=0
418190 On ch=1 n=54 v=0
418200 On ch=1 n=77 v=127
418200 On ch=1 n=65 v=127
418200 On ch=1 n=74 v=127
418200 On ch=1 n=56 v=127
418200 On ch=1 n=59 v=127
418310 On ch=1 n=74 v=0
418310 On ch=1 n=59 v=0
418320 On ch=1 n=73 v=127
418320 On ch=1 n=58 v=127
418430 On ch=1 n=77 v=0
418430 On ch=1 n=65 v=0
418430 On ch=1 n=73 v=0
418430 On ch=1 n=56 v=0
418430 On ch=1 n=58 v=0
418440 On ch=1 n=71 v=127
418440 On ch=1 n=56 v=127
418550 On ch=1 n=71 v=0
418550 On ch=1 n=56 v=0
418560 On ch=1 n=59 v=127
418560 On ch=1 n=47 v=127
418670 On ch=1 n=59 v=0
418670 On ch=1 n=47 v=0
418673 Par ch=1 c=64 v=127
418680 On ch=1 n=61 v=127
418680 On ch=1 n=49 v=127
418790 On ch=1 n=61 v=0
418790 On ch=1 n=49 v=0
418800 On ch=1 n=71 v=127
418800 On ch=1 n=77 v=127
418800 On ch=1 n=80 v=127
418800 On ch=1 n=68 v=127
418800 On ch=1 n=62 v=127
418800 On ch=1 n=50 v=127
418910 On ch=1 n=71 v=0
418910 On ch=1 n=77 v=0
418910 On ch=1 n=80 v=0
418910 On ch=1 n=68 v=0
418910 On ch=1 n=62 v=0
418910 On ch=1 n=50 v=0
418920 On ch=1 n=71 v=127
418920 On ch=1 n=77 v=127
418920 On ch=1 n=80 v=127
418920 On ch=1 n=68 v=127
418920 On ch=1 n=62 v=127
418920 On ch=1 n=50 v=127
419030 On ch=1 n=62 v=0
419030 On ch=1 n=50 v=0
419040 On ch=1 n=62 v=127
419040 On ch=1 n=50 v=127
419150 On ch=1 n=62 v=0
419150 On ch=1 n=50 v=0
419160 On ch=1 n=62 v=127
419160 On ch=1 n=50 v=127
419270 On ch=1 n=71 v=0
419270 On ch=1 n=77 v=0
419270 On ch=1 n=80 v=0
419270 On ch=1 n=68 v=0
419270 On ch=1 n=62 v=0
419270 On ch=1 n=50 v=0
419280 On ch=1 n=62 v=127
419280 On ch=1 n=50 v=127
419304 Par ch=1 c=64 v=0
419390 On ch=1 n=62 v=0
419390 On ch=1 n=50 v=0
419400 On ch=1 n=64 v=127
419400 On ch=1 n=52 v=127
419510 On ch=1 n=64 v=0
419510 On ch=1 n=52 v=0
419520 On ch=1 n=71 v=127
419520 On ch=1 n=80 v=127
419520 On ch=1 n=68 v=127
419520 On ch=1 n=62 v=127
419520 On ch=1 n=50 v=127
419630 On ch=1 n=71 v=0
419630 On ch=1 n=80 v=0
419630 On ch=1 n=68 v=0
419630 On ch=1 n=62 v=0
419630 On ch=1 n=50 v=0
419640 On ch=1 n=73 v=127
419640 On ch=1 n=82 v=127
419640 On ch=1 n=70 v=127
419640 On ch=1 n=61 v=127
419640 On ch=1 n=49 v=127
419750 On ch=1 n=61 v=0
419750 On ch=1 n=49 v=0
419760 On ch=1 n=62 v=127
419760 On ch=1 n=50 v=127
419870 On ch=1 n=73 v=0
419870 On ch=1 n=82 v=0
419870 On ch=1 n=70 v=0
419870 On ch=1 n=62 v=0
419870 On ch=1 n=50 v=0
419880 On ch=1 n=70 v=127
419880 On ch=1 n=64 v=127
419880 On ch=1 n=61 v=127
419880 On ch=1 n=49 v=127
419990 On ch=1 n=70 v=0
419990 On ch=1 n=64 v=0
419990 On ch=1 n=61 v=0
419990 On ch=1 n=49 v=0
420000 On ch=1 n=70 v=127
420000 On ch=1 n=67 v=127
420000 On ch=1 n=64 v=127
420000 On ch=1 n=52 v=127
420110 On ch=1 n=64 v=0
420110 On ch=1 n=52 v=0
420120 On ch=1 n=66 v=127
420120 On ch=1 n=54 v=127
420230 On ch=1 n=70 v=0
420230 On ch=1 n=67 v=0
420230 On ch=1 n=66 v=0
420230 On ch=1 n=54 v=0
420240 On ch=1 n=73 v=127
420240 On ch=1 n=82 v=127
420240 On ch=1 n=70 v=127
420240 On ch=1 n=64 v=127
420240 On ch=1 n=52 v=127
420350 On ch=1 n=73 v=0
420350 On ch=1 n=82 v=0
420350 On ch=1 n=70 v=0
420350 On ch=1 n=64 v=0
420350 On ch=1 n=52 v=0
420360 On ch=1 n=74 v=127
420360 On ch=1 n=83 v=127
420360 On ch=1 n=71 v=127
420360 On ch=1 n=62 v=127
420360 On ch=1 n=50 v=127
420470 On ch=1 n=62 v=0
420470 On ch=1 n=50 v=0
420480 On ch=1 n=64 v=127
420480 On ch=1 n=52 v=127
420590 On ch=1 n=74 v=0
420590 On ch=1 n=83 v=0
420590 On ch=1 n=71 v=0
420590 On ch=1 n=64 v=0
420590 On ch=1 n=52 v=0
420600 On ch=1 n=71 v=127
420600 On ch=1 n=66 v=127
420600 On ch=1 n=62 v=127
420600 On ch=1 n=50 v=127
420710 On ch=1 n=71 v=0
420710 On ch=1 n=66 v=0
420710 On ch=1 n=62 v=0
420710 On ch=1 n=50 v=0
420720 On ch=1 n=71 v=127
420720 On ch=1 n=69 v=127
420720 On ch=1 n=66 v=127
420720 On ch=1 n=54 v=127
420830 On ch=1 n=66 v=0
420830 On ch=1 n=54 v=0
420840 On ch=1 n=67 v=127
420840 On ch=1 n=55 v=127
420950 On ch=1 n=71 v=0
420950 On ch=1 n=69 v=0
420950 On ch=1 n=67 v=0
420950 On ch=1 n=55 v=0
420960 On ch=1 n=74 v=127
420960 On ch=1 n=83 v=127
420960 On ch=1 n=71 v=127
420960 On ch=1 n=66 v=127
420960 On ch=1 n=54 v=127
421070 On ch=1 n=74 v=0
421070 On ch=1 n=83 v=0
421070 On ch=1 n=71 v=0
421070 On ch=1 n=66 v=0
421070 On ch=1 n=54 v=0
421080 On ch=1 n=76 v=127
421080 On ch=1 n=85 v=127
421080 On ch=1 n=73 v=127
421080 On ch=1 n=64 v=127
421080 On ch=1 n=52 v=127
421190 On ch=1 n=64 v=0
421190 On ch=1 n=52 v=0
421200 On ch=1 n=66 v=127
421200 On ch=1 n=54 v=127
421310 On ch=1 n=76 v=0
421310 On ch=1 n=85 v=0
421310 On ch=1 n=73 v=0
421310 On ch=1 n=66 v=0
421310 On ch=1 n=54 v=0
421320 On ch=1 n=73 v=127
421320 On ch=1 n=67 v=127
421320 On ch=1 n=64 v=127
421320 On ch=1 n=52 v=127
421430 On ch=1 n=73 v=0
421430 On ch=1 n=67 v=0
421430 On ch=1 n=64 v=0
421430 On ch=1 n=52 v=0
421440 On ch=1 n=69 v=127
421440 On ch=1 n=73 v=127
421440 On ch=1 n=64 v=127
421440 On ch=1 n=55 v=127
421440 On ch=1 n=43 v=127
421550 On ch=1 n=55 v=0
421550 On ch=1 n=43 v=0
421560 On ch=1 n=57 v=127
421560 On ch=1 n=45 v=127
421670 On ch=1 n=69 v=0
421670 On ch=1 n=73 v=0
421670 On ch=1 n=64 v=0
421670 On ch=1 n=57 v=0
421670 On ch=1 n=45 v=0
421680 On ch=1 n=76 v=127
421680 On ch=1 n=85 v=127
421680 On ch=1 n=73 v=127
421680 On ch=1 n=55 v=127
421680 On ch=1 n=43 v=127
421790 On ch=1 n=76 v=0
421790 On ch=1 n=85 v=0
421790 On ch=1 n=73 v=0
421790 On ch=1 n=55 v=0
421790 On ch=1 n=43 v=0
421800 On ch=1 n=78 v=127
421800 On ch=1 n=86 v=127
421800 On ch=1 n=74 v=127
421800 On ch=1 n=54 v=127
421800 On ch=1 n=42 v=127
421910 On ch=1 n=54 v=0
421910 On ch=1 n=42 v=0
421920 On ch=1 n=55 v=127
421920 On ch=1 n=43 v=127
422030 On ch=1 n=78 v=0
422030 On ch=1 n=86 v=0
422030 On ch=1 n=74 v=0
422030 On ch=1 n=55 v=0
422030 On ch=1 n=43 v=0
422040 On ch=1 n=69 v=127
422040 On ch=1 n=74 v=127
422040 On ch=1 n=66 v=127
422040 On ch=1 n=54 v=127
422040 On ch=1 n=42 v=127
422150 On ch=1 n=69 v=0
422150 On ch=1 n=74 v=0
422150 On ch=1 n=66 v=0
422150 On ch=1 n=54 v=0
422150 On ch=1 n=42 v=0
422160 On ch=1 n=71 v=127
422160 On ch=1 n=75 v=127
422160 On ch=1 n=66 v=127
422160 On ch=1 n=57 v=127
422160 On ch=1 n=45 v=127
422270 On ch=1 n=57 v=0
422270 On ch=1 n=45 v=0
422280 On ch=1 n=59 v=127
422280 On ch=1 n=47 v=127
422390 On ch=1 n=71 v=0
422390 On ch=1 n=75 v=0
422390 On ch=1 n=66 v=0
422390 On ch=1 n=59 v=0
422390 On ch=1 n=47 v=0
422400 On ch=1 n=78 v=127
422400 On ch=1 n=87 v=127
422400 On ch=1 n=75 v=127
422400 On ch=1 n=57 v=127
422400 On ch=1 n=45 v=127
422510 On ch=1 n=78 v=0
422510 On ch=1 n=87 v=0
422510 On ch=1 n=75 v=0
422510 On ch=1 n=57 v=0
422510 On ch=1 n=45 v=0
422520 On ch=1 n=79 v=127
422520 On ch=1 n=88 v=127
422520 On ch=1 n=76 v=127
422520 On ch=1 n=55 v=127
422520 On ch=1 n=43 v=127
422630 On ch=1 n=55 v=0
422630 On ch=1 n=43 v=0
422640 On ch=1 n=57 v=127
422640 On ch=1 n=45 v=127
422750 On ch=1 n=79 v=0
422750 On ch=1 n=88 v=0
422750 On ch=1 n=76 v=0
422750 On ch=1 n=57 v=0
422750 On ch=1 n=45 v=0
422760 On ch=1 n=71 v=127
422760 On ch=1 n=76 v=127
422760 On ch=1 n=64 v=127
422760 On ch=1 n=55 v=127
422760 On ch=1 n=43 v=127
422870 On ch=1 n=71 v=0
422870 On ch=1 n=76 v=0
422870 On ch=1 n=64 v=0
422870 On ch=1 n=55 v=0
422870 On ch=1 n=43 v=0
422880 On ch=1 n=71 v=127
422880 On ch=1 n=76 v=127
422880 On ch=1 n=64 v=127
422880 On ch=1 n=59 v=127
422880 On ch=1 n=55 v=127
422990 On ch=1 n=59 v=0
422990 On ch=1 n=55 v=0
423000 On ch=1 n=61 v=127
423000 On ch=1 n=57 v=127
423110 On ch=1 n=71 v=0
423110 On ch=1 n=76 v=0
423110 On ch=1 n=64 v=0
423110 On ch=1 n=61 v=0
423110 On ch=1 n=57 v=0
423120 On ch=1 n=88 v=127
423120 On ch=1 n=76 v=127
423120 On ch=1 n=59 v=127
423120 On ch=1 n=55 v=127
423230 On ch=1 n=88 v=0
423230 On ch=1 n=76 v=0
423230 On ch=1 n=59 v=0
423230 On ch=1 n=55 v=0
423240 On ch=1 n=89 v=127
423240 On ch=1 n=77 v=127
423240 On ch=1 n=59 v=127
423240 On ch=1 n=55 v=127
423350 On ch=1 n=59 v=0
423350 On ch=1 n=55 v=0
423360 On ch=1 n=61 v=127
423360 On ch=1 n=57 v=127
423470 On ch=1 n=89 v=0
423470 On ch=1 n=77 v=0
423470 On ch=1 n=61 v=0
423470 On ch=1 n=57 v=0
423480 On ch=1 n=71 v=127
423480 On ch=1 n=77 v=127
423480 On ch=1 n=65 v=127
423480 On ch=1 n=59 v=127
423480 On ch=1 n=55 v=127
423590 On ch=1 n=71 v=0
423590 On ch=1 n=77 v=0
423590 On ch=1 n=65 v=0
423590 On ch=1 n=59 v=0
423590 On ch=1 n=55 v=0
423600 On ch=1 n=71 v=127
423600 On ch=1 n=77 v=127
423600 On ch=1 n=65 v=127
423600 On ch=1 n=47 v=127
423600 On ch=1 n=43 v=127
423710 On ch=1 n=47 v=0
423710 On ch=1 n=43 v=0
423720 On ch=1 n=49 v=127
423720 On ch=1 n=45 v=127
423830 On ch=1 n=71 v=0
423830 On ch=1 n=77 v=0
423830 On ch=1 n=65 v=0
423830 On ch=1 n=49 v=0
423830 On ch=1 n=45 v=0
423840 On ch=1 n=89 v=127
423840 On ch=1 n=77 v=127
423840 On ch=1 n=47 v=127
423840 On ch=1 n=43 v=127
423950 On ch=1 n=89 v=0
423950 On ch=1 n=77 v=0
423950 On ch=1 n=47 v=0
423950 On ch=1 n=43 v=0
423960 On ch=1 n=90 v=127
423960 On ch=1 n=78 v=127
423960 On ch=1 n=46 v=127
423960 On ch=1 n=42 v=127
424070 On ch=1 n=46 v=0
424070 On ch=1 n=42 v=0
424080 On ch=1 n=47 v=127
424080 On ch=1 n=44 v=127
424190 On ch=1 n=90 v=0
424190 On ch=1 n=78 v=0
424190 On ch=1 n=47 v=0
424190 On ch=1 n=44 v=0
424200 On ch=1 n=78 v=127
424200 On ch=1 n=66 v=127
424200 On ch=1 n=46 v=127
424200 On ch=1 n=42 v=127
424310 On ch=1 n=78 v=0
424310 On ch=1 n=66 v=0
424310 On ch=1 n=46 v=0
424310 On ch=1 n=42 v=0
424320 On ch=1 n=78 v=127
424320 On ch=1 n=66 v=127
424320 On ch=1 n=42 v=127
424320 On ch=1 n=30 v=127
424430 Par ch=1 c=64 v=127
424550 On ch=1 n=78 v=0
424550 On ch=1 n=66 v=0
424550 On ch=1 n=42 v=0
424550 On ch=1 n=30 v=0
424560 On ch=1 n=90 v=127
424560 On ch=1 n=78 v=127
424560 On ch=1 n=54 v=127
424560 On ch=1 n=42 v=127
424670 On ch=1 n=90 v=0
424670 On ch=1 n=78 v=0
424670 On ch=1 n=54 v=0
424670 On ch=1 n=42 v=0
424680 On ch=1 n=90 v=127
424680 On ch=1 n=78 v=127
424680 On ch=1 n=66 v=127
424680 On ch=1 n=54 v=127
425270 On ch=1 n=90 v=0
425270 On ch=1 n=78 v=0
425270 On ch=1 n=66 v=0
425270 On ch=1 n=54 v=0
425280 On ch=1 n=90 v=127
425280 On ch=1 n=78 v=127
425280 On ch=1 n=66 v=127
425280 On ch=1 n=54 v=127
425390 On ch=1 n=90 v=0
425390 On ch=1 n=78 v=0
425390 On ch=1 n=66 v=0
425390 On ch=1 n=54 v=0
425400 On ch=1 n=90 v=127
425400 On ch=1 n=78 v=127
425400 On ch=1 n=54 v=127
425400 On ch=1 n=42 v=127
425990 On ch=1 n=90 v=0
425990 On ch=1 n=78 v=0
425990 On ch=1 n=54 v=0
425990 On ch=1 n=42 v=0
426000 On ch=1 n=90 v=127
426000 On ch=1 n=78 v=127
426000 On ch=1 n=42 v=127
426000 On ch=1 n=30 v=127
426110 On ch=1 n=90 v=0
426110 On ch=1 n=78 v=0
426110 On ch=1 n=42 v=0
426110 On ch=1 n=30 v=0
426120 On ch=1 n=90 v=127
426120 On ch=1 n=78 v=127
426120 On ch=1 n=42 v=127
426120 On ch=1 n=30 v=127
426710 On ch=1 n=90 v=0
426710 On ch=1 n=78 v=0
426710 On ch=1 n=42 v=0
426710 On ch=1 n=30 v=0
426720 On ch=1 n=90 v=127
426720 On ch=1 n=78 v=127
426720 On ch=1 n=42 v=127
426720 On ch=1 n=30 v=127
426830 On ch=1 n=90 v=0
426830 On ch=1 n=78 v=0
426830 On ch=1 n=42 v=0
426830 On ch=1 n=30 v=0
426840 On ch=1 n=90 v=127
426840 On ch=1 n=78 v=127
426840 On ch=1 n=54 v=127
426840 On ch=1 n=42 v=127
427430 On ch=1 n=90 v=0
427430 On ch=1 n=78 v=0
427430 On ch=1 n=54 v=0
427430 On ch=1 n=42 v=0
427440 On ch=1 n=90 v=127
427440 On ch=1 n=78 v=127
427440 On ch=1 n=54 v=127
427440 On ch=1 n=42 v=127
427550 On ch=1 n=90 v=0
427550 On ch=1 n=78 v=0
427550 On ch=1 n=54 v=0
427550 On ch=1 n=42 v=0
427560 On ch=1 n=90 v=127
427560 On ch=1 n=78 v=127
427560 On ch=1 n=66 v=127
427560 On ch=1 n=54 v=127
428150 On ch=1 n=90 v=0
428150 On ch=1 n=78 v=0
428150 On ch=1 n=66 v=0
428150 On ch=1 n=54 v=0
428160 On ch=1 n=90 v=127
428160 On ch=1 n=78 v=127
428160 On ch=1 n=66 v=127
428160 On ch=1 n=54 v=127
428270 On ch=1 n=90 v=0
428270 On ch=1 n=78 v=0
428270 On ch=1 n=66 v=0
428270 On ch=1 n=54 v=0
428280 On ch=1 n=90 v=127
428280 On ch=1 n=78 v=127
428280 On ch=1 n=54 v=127
428280 On ch=1 n=42 v=127
428870 On ch=1 n=90 v=0
428870 On ch=1 n=78 v=0
428870 On ch=1 n=54 v=0
428870 On ch=1 n=42 v=0
428880 On ch=1 n=90 v=127
428880 On ch=1 n=78 v=127
428880 On ch=1 n=54 v=127
428880 On ch=1 n=42 v=127
428990 On ch=1 n=90 v=0
428990 On ch=1 n=78 v=0
428990 On ch=1 n=54 v=0
428990 On ch=1 n=42 v=0
429000 On ch=1 n=90 v=127
429000 On ch=1 n=78 v=127
429000 On ch=1 n=42 v=127
429000 On ch=1 n=30 v=127
429590 On ch=1 n=90 v=0
429590 On ch=1 n=78 v=0
429590 On ch=1 n=42 v=0
429590 On ch=1 n=30 v=0
429600 On ch=1 n=90 v=63
429600 On ch=1 n=78 v=127
429600 On ch=1 n=42 v=127
429600 On ch=1 n=30 v=63
429710 On ch=1 n=90 v=0
429710 On ch=1 n=78 v=0
429710 On ch=1 n=42 v=0
429710 On ch=1 n=30 v=0
429720 On ch=1 n=90 v=63
429720 On ch=1 n=78 v=127
429720 On ch=1 n=54 v=127
429720 On ch=1 n=42 v=63
430310 On ch=1 n=90 v=0
430310 On ch=1 n=78 v=0
430310 On ch=1 n=54 v=0
430310 On ch=1 n=42 v=0
430320 On ch=1 n=66 v=127
430320 On ch=1 n=54 v=127
430343 Par ch=1 c=64 v=0
430430 On ch=1 n=66 v=0
430430 On ch=1 n=54 v=0
430440 On ch=1 n=66 v=123
430440 On ch=1 n=54 v=123
430464 Par ch=1 c=64 v=127
431030 On ch=1 n=66 v=0
431030 On ch=1 n=54 v=0
431040 On ch=1 n=66 v=100
431040 On ch=1 n=54 v=100
431150 On ch=1 n=66 v=0
431150 On ch=1 n=54 v=0
431160 On ch=1 n=66 v=95
431160 On ch=1 n=54 v=95
431750 On ch=1 n=66 v=0
431750 On ch=1 n=54 v=0
431760 On ch=1 n=66 v=73
431760 On ch=1 n=54 v=73
431870 On ch=1 n=66 v=0
431870 On ch=1 n=54 v=0
431880 On ch=1 n=66 v=68
431880 On ch=1 n=54 v=68
432470 On ch=1 n=66 v=0
432470 On ch=1 n=54 v=0
432480 On ch=1 n=66 v=45
432480 On ch=1 n=54 v=45
432590 On ch=1 n=66 v=0
432590 On ch=1 n=54 v=0
432600 On ch=1 n=66 v=40
432600 On ch=1 n=54 v=40
432950 On ch=1 n=66 v=0
432950 On ch=1 n=54 v=0
432960 On ch=1 n=66 v=45
432960 On ch=1 n=71 v=45
432960 On ch=1 n=75 v=45
432960 On ch=1 n=63 v=45
432960 On ch=1 n=59 v=45
432960 On ch=1 n=54 v=45
432960 On ch=1 n=47 v=45
433079 Par ch=1 c=64 v=0
433670 On ch=1 n=66 v=0
433670 On ch=1 n=71 v=0
433670 On ch=1 n=75 v=0
433670 On ch=1 n=63 v=0
433670 On ch=1 n=59 v=0
433680 On ch=1 n=73 v=45
433680 On ch=1 n=76 v=45
433680 On ch=1 n=64 v=45
433680 On ch=1 n=61 v=45
434030 On ch=1 n=73 v=0
434030 On ch=1 n=76 v=0
434030 On ch=1 n=64 v=0
434030 On ch=1 n=61 v=0
434040 On ch=1 n=75 v=45
434040 On ch=1 n=78 v=45
434040 On ch=1 n=66 v=45
434040 On ch=1 n=63 v=45
434381 Par ch=1 c=64 v=127
434390 On ch=1 n=47 v=0
434390 On ch=1 n=75 v=0
434390 On ch=1 n=78 v=0
434390 On ch=1 n=63 v=0
434630 On ch=1 n=54 v=0
434630 On ch=1 n=66 v=0
434640 On ch=1 n=66 v=63
434640 On ch=1 n=54 v=63
434750 On ch=1 n=66 v=0
434750 On ch=1 n=54 v=0
434760 On ch=1 n=66 v=63
434760 On ch=1 n=54 v=63
435350 On ch=1 n=66 v=0
435350 On ch=1 n=54 v=0
435360 On ch=1 n=66 v=63
435360 On ch=1 n=54 v=63
435470 On ch=1 n=66 v=0
435470 On ch=1 n=54 v=0
435480 On ch=1 n=66 v=63
435480 On ch=1 n=54 v=63
436070 On ch=1 n=66 v=0
436070 On ch=1 n=54 v=0
436080 On ch=1 n=66 v=63
436080 On ch=1 n=54 v=63
436190 On ch=1 n=66 v=0
436190 On ch=1 n=54 v=0
436200 On ch=1 n=66 v=63
436200 On ch=1 n=54 v=63
436790 On ch=1 n=66 v=0
436790 On ch=1 n=54 v=0
436800 On ch=1 n=66 v=63
436800 On ch=1 n=54 v=63
436910 On ch=1 n=66 v=0
436910 On ch=1 n=54 v=0
436920 On ch=1 n=66 v=63
436920 On ch=1 n=54 v=63
437270 On ch=1 n=66 v=0
437270 On ch=1 n=54 v=0
437280 On ch=1 n=66 v=45
437280 On ch=1 n=71 v=45
437280 On ch=1 n=74 v=45
437280 On ch=1 n=62 v=45
437280 On ch=1 n=59 v=45
437280 On ch=1 n=54 v=45
437280 On ch=1 n=47 v=45
437923 Par ch=1 c=64 v=0
437990 On ch=1 n=66 v=0
437990 On ch=1 n=71 v=0
437990 On ch=1 n=74 v=0
437990 On ch=1 n=62 v=0
437990 On ch=1 n=59 v=0
438000 On ch=1 n=73 v=45
438000 On ch=1 n=76 v=45
438000 On ch=1 n=64 v=45
438000 On ch=1 n=61 v=45
438350 On ch=1 n=73 v=0
438350 On ch=1 n=76 v=0
438350 On ch=1 n=64 v=0
438350 On ch=1 n=61 v=0
438360 On ch=1 n=74 v=45
438360 On ch=1 n=78 v=45
438360 On ch=1 n=66 v=45
438360 On ch=1 n=62 v=45
438710 On ch=1 n=47 v=0
438710 On ch=1 n=74 v=0
438710 On ch=1 n=78 v=0
438710 On ch=1 n=62 v=0
438748 Par ch=1 c=64 v=127
438950 On ch=1 n=54 v=0
438950 On ch=1 n=66 v=0
438960 On ch=1 n=66 v=63
438960 On ch=1 n=54 v=63
439070 On ch=1 n=66 v=0
439070 On ch=1 n=54 v=0
439080 On ch=1 n=66 v=63
439080 On ch=1 n=54 v=63
439670 On ch=1 n=66 v=0
439670 On ch=1 n=54 v=0
439680 On ch=1 n=66 v=63
439680 On ch=1 n=54 v=63
439790 On ch=1 n=66 v=0
439790 On ch=1 n=54 v=0
439800 On ch=1 n=66 v=63
439800 On ch=1 n=54 v=63
440390 On ch=1 n=66 v=0
440390 On ch=1 n=54 v=0
440400 On ch=1 n=66 v=63
440400 On ch=1 n=54 v=63
440510 On ch=1 n=66 v=0
440510 On ch=1 n=54 v=0
440520 On ch=1 n=66 v=63
440520 On ch=1 n=54 v=63
441110 On ch=1 n=66 v=0
441110 On ch=1 n=54 v=0
441120 On ch=1 n=66 v=63
441120 On ch=1 n=54 v=63
441230 On ch=1 n=66 v=0
441230 On ch=1 n=54 v=0
441240 On ch=1 n=66 v=63
441240 On ch=1 n=54 v=63
441414 Par ch=1 c=64 v=0
441590 On ch=1 n=66 v=0
441590 On ch=1 n=54 v=0
441600 On ch=1 n=74 v=63
441600 On ch=1 n=78 v=63
441600 On ch=1 n=66 v=63
441600 On ch=1 n=57 v=63
441600 On ch=1 n=45 v=63
441760 Par ch=1 c=64 v=127
442310 On ch=1 n=74 v=0
442310 On ch=1 n=78 v=0
442310 On ch=1 n=66 v=0
442320 On ch=1 n=76 v=101
442320 On ch=1 n=79 v=101
442320 On ch=1 n=67 v=101
442465 Par ch=1 c=64 v=0
442670 On ch=1 n=45 v=0
442670 On ch=1 n=57 v=0
442670 On ch=1 n=76 v=0
442670 On ch=1 n=79 v=0
442670 On ch=1 n=67 v=0
442680 On ch=1 n=78 v=120
442680 On ch=1 n=81 v=120
442680 On ch=1 n=69 v=120
442680 On ch=1 n=45 v=109
442680 On ch=1 n=33 v=109
442790 On ch=1 n=45 v=0
442790 On ch=1 n=33 v=0
442800 On ch=1 n=47 v=114
442800 On ch=1 n=35 v=114
442910 On ch=1 n=47 v=0
442910 On ch=1 n=35 v=0
442920 On ch=1 n=49 v=120
442920 On ch=1 n=37 v=120
443030 On ch=1 n=78 v=0
443030 On ch=1 n=81 v=0
443030 On ch=1 n=69 v=0
443030 On ch=1 n=49 v=0
443030 On ch=1 n=37 v=0
443040 On ch=1 n=86 v=120
443040 On ch=1 n=90 v=120
443040 On ch=1 n=78 v=120
443040 On ch=1 n=50 v=120
443040 On ch=1 n=38 v=120
443150 On ch=1 n=50 v=0
443150 On ch=1 n=38 v=0
443160 On ch=1 n=62 v=120
443160 On ch=1 n=50 v=120
443213 Par ch=1 c=64 v=127
443270 On ch=1 n=62 v=0
443270 On ch=1 n=50 v=0
443280 On ch=1 n=61 v=120
443280 On ch=1 n=49 v=120
443390 On ch=1 n=86 v=0
443390 On ch=1 n=90 v=0
443390 On ch=1 n=78 v=0
443390 On ch=1 n=61 v=0
443390 On ch=1 n=49 v=0
443400 On ch=1 n=86 v=120
443400 On ch=1 n=90 v=120
443400 On ch=1 n=78 v=120
443400 On ch=1 n=59 v=120
443400 On ch=1 n=47 v=120
443510 On ch=1 n=59 v=0
443510 On ch=1 n=47 v=0
443520 On ch=1 n=57 v=120
443520 On ch=1 n=45 v=120
443630 On ch=1 n=57 v=0
443630 On ch=1 n=45 v=0
443640 On ch=1 n=55 v=120
443640 On ch=1 n=43 v=120
443750 On ch=1 n=86 v=0
443750 On ch=1 n=90 v=0
443750 On ch=1 n=78 v=0
443750 On ch=1 n=55 v=0
443750 On ch=1 n=43 v=0
443760 On ch=1 n=88 v=120
443760 On ch=1 n=91 v=120
443760 On ch=1 n=79 v=120
443760 On ch=1 n=54 v=120
443760 On ch=1 n=42 v=120
443870 On ch=1 n=54 v=0
443870 On ch=1 n=42 v=0
443880 On ch=1 n=52 v=120
443880 On ch=1 n=40 v=120
443990 On ch=1 n=52 v=0
443990 On ch=1 n=40 v=0
444000 On ch=1 n=50 v=120
444000 On ch=1 n=38 v=120
444092 Par ch=1 c=64 v=0
444110 On ch=1 n=88 v=0
444110 On ch=1 n=91 v=0
444110 On ch=1 n=79 v=0
444110 On ch=1 n=50 v=0
444110 On ch=1 n=38 v=0
444120 On ch=1 n=90 v=120
444120 On ch=1 n=93 v=120
444120 On ch=1 n=81 v=120
444120 On ch=1 n=49 v=120
444120 On ch=1 n=37 v=120
444230 On ch=1 n=49 v=0
444230 On ch=1 n=37 v=0
444240 On ch=1 n=47 v=120
444240 On ch=1 n=35 v=120
444350 On ch=1 n=47 v=0
444350 On ch=1 n=35 v=0
444360 On ch=1 n=45 v=120
444360 On ch=1 n=33 v=120
444470 On ch=1 n=90 v=0
444470 On ch=1 n=93 v=0
444470 On ch=1 n=81 v=0
444470 On ch=1 n=45 v=0
444470 On ch=1 n=33 v=0
444480 On ch=1 n=90 v=120
444480 On ch=1 n=93 v=120
444480 On ch=1 n=81 v=120
444599 Par ch=1 c=64 v=127
444600 On ch=1 n=45 v=120
444600 On ch=1 n=33 v=120
444710 On ch=1 n=45 v=0
444710 On ch=1 n=33 v=0
444720 On ch=1 n=47 v=120
444720 On ch=1 n=35 v=120
444830 On ch=1 n=90 v=0
444830 On ch=1 n=93 v=0
444830 On ch=1 n=81 v=0
444830 On ch=1 n=47 v=0
444830 On ch=1 n=35 v=0
444840 On ch=1 n=81 v=120
444840 On ch=1 n=88 v=120
444840 On ch=1 n=91 v=120
444840 On ch=1 n=79 v=120
444840 On ch=1 n=49 v=120
444840 On ch=1 n=37 v=120
444950 On ch=1 n=49 v=0
444950 On ch=1 n=37 v=0
444960 On ch=1 n=50 v=120
444960 On ch=1 n=38 v=120
445070 On ch=1 n=50 v=0
445070 On ch=1 n=38 v=0
445080 On ch=1 n=52 v=120
445080 On ch=1 n=40 v=120
445190 On ch=1 n=81 v=0
445190 On ch=1 n=88 v=0
445190 On ch=1 n=91 v=0
445190 On ch=1 n=79 v=0
445190 On ch=1 n=52 v=0
445190 On ch=1 n=40 v=0
445200 On ch=1 n=81 v=120
445200 On ch=1 n=86 v=120
445200 On ch=1 n=90 v=120
445200 On ch=1 n=78 v=120
445200 On ch=1 n=54 v=120
445200 On ch=1 n=42 v=120
445223 Par ch=1 c=64 v=0
445310 On ch=1 n=54 v=0
445310 On ch=1 n=42 v=0
445320 On ch=1 n=55 v=120
445320 On ch=1 n=43 v=120
445430 On ch=1 n=55 v=0
445430 On ch=1 n=43 v=0
445440 On ch=1 n=57 v=120
445440 On ch=1 n=45 v=120
445550 On ch=1 n=81 v=0
445550 On ch=1 n=86 v=0
445550 On ch=1 n=90 v=0
445550 On ch=1 n=78 v=0
445550 On ch=1 n=57 v=0
445550 On ch=1 n=45 v=0
445560 On ch=1 n=79 v=120
445560 On ch=1 n=81 v=120
445560 On ch=1 n=88 v=120
445560 On ch=1 n=76 v=120
445560 On ch=1 n=59 v=120
445560 On ch=1 n=47 v=120
445670 On ch=1 n=59 v=0
445670 On ch=1 n=47 v=0
445680 On ch=1 n=57 v=120
445680 On ch=1 n=45 v=120
445790 On ch=1 n=57 v=0
445790 On ch=1 n=45 v=0
445800 On ch=1 n=61 v=120
445800 On ch=1 n=49 v=120
445910 On ch=1 n=79 v=0
445910 On ch=1 n=81 v=0
445910 On ch=1 n=88 v=0
445910 On ch=1 n=76 v=0
445910 On ch=1 n=61 v=0
445910 On ch=1 n=49 v=0
445920 On ch=1 n=78 v=120
445920 On ch=1 n=81 v=120
445920 On ch=1 n=86 v=120
445920 On ch=1 n=74 v=120
445920 On ch=1 n=62 v=120
445920 On ch=1 n=62 v=120
446018 Par ch=1 c=64 v=127
446030 On ch=1 n=62 v=0
446030 On ch=1 n=62 v=0
446040 On ch=1 n=57 v=120
446040 On ch=1 n=57 v=120
446150 On ch=1 n=57 v=0
446150 On ch=1 n=57 v=0
446160 On ch=1 n=55 v=120
446160 On ch=1 n=55 v=120
446270 On ch=1 n=78 v=0
446270 On ch=1 n=81 v=0
446270 On ch=1 n=86 v=0
446270 On ch=1 n=74 v=0
446270 On ch=1 n=55 v=0
446270 On ch=1 n=55 v=0
446280 On ch=1 n=78 v=120
446280 On ch=1 n=81 v=120
446280 On ch=1 n=86 v=120
446280 On ch=1 n=74 v=120
446280 On ch=1 n=54 v=120
446280 On ch=1 n=54 v=120
446390 On ch=1 n=54 v=0
446390 On ch=1 n=54 v=0
446400 On ch=1 n=52 v=120
446400 On ch=1 n=52 v=120
446510 On ch=1 n=52 v=0
446510 On ch=1 n=52 v=0
446520 On ch=1 n=50 v=120
446520 On ch=1 n=50 v=120
446581 Par ch=1 c=64 v=0
446630 On ch=1 n=78 v=0
446630 On ch=1 n=81 v=0
446630 On ch=1 n=86 v=0
446630 On ch=1 n=74 v=0
446630 On ch=1 n=50 v=0
446630 On ch=1 n=50 v=0
446640 On ch=1 n=81 v=120
446640 On ch=1 n=88 v=120
446640 On ch=1 n=76 v=120
446640 On ch=1 n=49 v=120
446640 On ch=1 n=49 v=120
446750 On ch=1 n=49 v=0
446750 On ch=1 n=49 v=0
446760 On ch=1 n=50 v=120
446760 On ch=1 n=50 v=120
446870 On ch=1 n=50 v=0
446870 On ch=1 n=50 v=0
446880 On ch=1 n=47 v=120
446880 On ch=1 n=47 v=120
446990 On ch=1 n=81 v=0
446990 On ch=1 n=88 v=0
446990 On ch=1 n=76 v=0
446990 On ch=1 n=47 v=0
446990 On ch=1 n=47 v=0
447000 On ch=1 n=86 v=120
447000 On ch=1 n=90 v=120
447000 On ch=1 n=78 v=120
447000 On ch=1 n=45 v=120
447000 On ch=1 n=45 v=120
447110 On ch=1 n=45 v=0
447110 On ch=1 n=45 v=0
447120 On ch=1 n=47 v=120
447120 On ch=1 n=47 v=120
447230 On ch=1 n=47 v=0
447230 On ch=1 n=47 v=0
447240 On ch=1 n=44 v=120
447240 On ch=1 n=44 v=120
447350 On ch=1 n=86 v=0
447350 On ch=1 n=90 v=0
447350 On ch=1 n=78 v=0
447350 On ch=1 n=44 v=0
447350 On ch=1 n=44 v=0
447360 On ch=1 n=86 v=120
447360 On ch=1 n=90 v=120
447360 On ch=1 n=78 v=120
447463 Par ch=1 c=64 v=127
447480 On ch=1 n=45 v=120
447480 On ch=1 n=45 v=120
447590 On ch=1 n=45 v=0
447590 On ch=1 n=45 v=0
447600 On ch=1 n=47 v=120
447600 On ch=1 n=47 v=120
447710 On ch=1 n=47 v=0
447710 On ch=1 n=47 v=0
447720 On ch=1 n=49 v=120
447720 On ch=1 n=49 v=120
447830 On ch=1 n=49 v=0
447830 On ch=1 n=49 v=0
447840 On ch=1 n=50 v=120
447840 On ch=1 n=50 v=120
447950 On ch=1 n=86 v=0
447950 On ch=1 n=90 v=0
447950 On ch=1 n=78 v=0
447950 On ch=1 n=50 v=0
447950 On ch=1 n=50 v=0
447960 On ch=1 n=85 v=120
447960 On ch=1 n=88 v=120
447960 On ch=1 n=76 v=120
447960 On ch=1 n=52 v=120
447960 On ch=1 n=52 v=120
448015 Par ch=1 c=64 v=0
448070 On ch=1 n=85 v=0
448070 On ch=1 n=88 v=0
448070 On ch=1 n=76 v=0
448070 On ch=1 n=52 v=0
448070 On ch=1 n=52 v=0
448080 On ch=1 n=85 v=120
448080 On ch=1 n=88 v=120
448080 On ch=1 n=76 v=120
448080 On ch=1 n=54 v=120
448080 On ch=1 n=42 v=120
448190 On ch=1 n=54 v=0
448190 On ch=1 n=42 v=0
448200 On ch=1 n=55 v=120
448200 On ch=1 n=43 v=120
448310 On ch=1 n=85 v=0
448310 On ch=1 n=88 v=0
448310 On ch=1 n=76 v=0
448310 On ch=1 n=55 v=0
448310 On ch=1 n=43 v=0
448320 On ch=1 n=57 v=120
448320 On ch=1 n=45 v=120
448430 On ch=1 n=57 v=0
448430 On ch=1 n=45 v=0
448440 On ch=1 n=59 v=120
448440 On ch=1 n=47 v=120
448550 On ch=1 n=59 v=0
448550 On ch=1 n=47 v=0
448560 On ch=1 n=57 v=120
448560 On ch=1 n=45 v=120
448670 On ch=1 n=57 v=0
448670 On ch=1 n=45 v=0
448680 On ch=1 n=61 v=120
448680 On ch=1 n=49 v=120
448790 On ch=1 n=61 v=0
448790 On ch=1 n=49 v=0
448800 On ch=1 n=81 v=120
448800 On ch=1 n=86 v=120
448800 On ch=1 n=90 v=120
448800 On ch=1 n=78 v=120
448800 On ch=1 n=62 v=120
448800 On ch=1 n=50 v=120
448888 Par ch=1 c=64 v=127
448910 On ch=1 n=62 v=0
448910 On ch=1 n=50 v=0
448920 On ch=1 n=59 v=120
448920 On ch=1 n=47 v=120
449030 On ch=1 n=59 v=0
449030 On ch=1 n=47 v=0
449040 On ch=1 n=57 v=120
449040 On ch=1 n=45 v=120
449150 On ch=1 n=81 v=0
449150 On ch=1 n=86 v=0
449150 On ch=1 n=90 v=0
449150 On ch=1 n=78 v=0
449150 On ch=1 n=57 v=0
449150 On ch=1 n=45 v=0
449160 On ch=1 n=81 v=120
449160 On ch=1 n=86 v=120
449160 On ch=1 n=90 v=120
449160 On ch=1 n=78 v=120
449160 On ch=1 n=55 v=120
449160 On ch=1 n=43 v=120
449270 On ch=1 n=55 v=0
449270 On ch=1 n=43 v=0
449280 On ch=1 n=54 v=120
449280 On ch=1 n=42 v=120
449390 On ch=1 n=54 v=0
449390 On ch=1 n=42 v=0
449400 On ch=1 n=52 v=120
449400 On ch=1 n=40 v=120
449510 On ch=1 n=81 v=0
449510 On ch=1 n=86 v=0
449510 On ch=1 n=90 v=0
449510 On ch=1 n=78 v=0
449510 On ch=1 n=52 v=0
449510 On ch=1 n=40 v=0
449520 On ch=1 n=83 v=120
449520 On ch=1 n=86 v=120
449520 On ch=1 n=91 v=120
449520 On ch=1 n=79 v=120
449520 On ch=1 n=50 v=120
449520 On ch=1 n=38 v=120
449630 On ch=1 n=50 v=0
449630 On ch=1 n=38 v=0
449640 On ch=1 n=52 v=120
449640 On ch=1 n=40 v=120
449750 On ch=1 n=52 v=0
449750 On ch=1 n=40 v=0
449760 On ch=1 n=50 v=120
449760 On ch=1 n=38 v=120
449787 Par ch=1 c=64 v=0
449870 On ch=1 n=83 v=0
449870 On ch=1 n=86 v=0
449870 On ch=1 n=91 v=0
449870 On ch=1 n=79 v=0
449870 On ch=1 n=50 v=0
449870 On ch=1 n=38 v=0
449880 On ch=1 n=84 v=120
449880 On ch=1 n=86 v=120
449880 On ch=1 n=93 v=120
449880 On ch=1 n=81 v=120
449880 On ch=1 n=48 v=120
449880 On ch=1 n=36 v=120
449990 On ch=1 n=48 v=0
449990 On ch=1 n=36 v=0
450000 On ch=1 n=47 v=120
450000 On ch=1 n=35 v=120
450110 On ch=1 n=47 v=0
450110 On ch=1 n=35 v=0
450120 On ch=1 n=45 v=120
450120 On ch=1 n=33 v=120
450230 On ch=1 n=84 v=0
450230 On ch=1 n=86 v=0
450230 On ch=1 n=93 v=0
450230 On ch=1 n=81 v=0
450230 On ch=1 n=45 v=0
450230 On ch=1 n=33 v=0
450240 On ch=1 n=84 v=120
450240 On ch=1 n=86 v=120
450240 On ch=1 n=93 v=120
450240 On ch=1 n=81 v=120
450240 On ch=1 n=43 v=120
450240 On ch=1 n=31 v=120
450330 Par ch=1 c=64 v=127
450350 On ch=1 n=43 v=0
450350 On ch=1 n=31 v=0
450360 On ch=1 n=45 v=120
450360 On ch=1 n=33 v=120
450470 On ch=1 n=45 v=0
450470 On ch=1 n=33 v=0
450480 On ch=1 n=47 v=120
450480 On ch=1 n=35 v=120
450590 On ch=1 n=84 v=0
450590 On ch=1 n=86 v=0
450590 On ch=1 n=93 v=0
450590 On ch=1 n=81 v=0
450590 On ch=1 n=47 v=0
450590 On ch=1 n=35 v=0
450600 On ch=1 n=83 v=120
450600 On ch=1 n=86 v=120
450600 On ch=1 n=91 v=120
450600 On ch=1 n=79 v=120
450600 On ch=1 n=48 v=120
450600 On ch=1 n=36 v=120
450710 On ch=1 n=48 v=0
450710 On ch=1 n=36 v=0
450720 On ch=1 n=50 v=120
450720 On ch=1 n=38 v=120
450830 On ch=1 n=50 v=0
450830 On ch=1 n=38 v=0
450840 On ch=1 n=52 v=120
450840 On ch=1 n=40 v=120
450911 Par ch=1 c=64 v=0
450950 On ch=1 n=83 v=0
450950 On ch=1 n=86 v=0
450950 On ch=1 n=91 v=0
450950 On ch=1 n=79 v=0
450950 On ch=1 n=52 v=0
450950 On ch=1 n=40 v=0
450960 On ch=1 n=81 v=120
450960 On ch=1 n=86 v=120
450960 On ch=1 n=90 v=120
450960 On ch=1 n=78 v=120
450960 On ch=1 n=54 v=120
450960 On ch=1 n=42 v=120
451070 On ch=1 n=54 v=0
451070 On ch=1 n=42 v=0
451080 On ch=1 n=55 v=120
451080 On ch=1 n=43 v=120
451190 On ch=1 n=55 v=0
451190 On ch=1 n=43 v=0
451200 On ch=1 n=57 v=120
451200 On ch=1 n=45 v=120
451310 On ch=1 n=81 v=0
451310 On ch=1 n=86 v=0
451310 On ch=1 n=90 v=0
451310 On ch=1 n=78 v=0
451310 On ch=1 n=57 v=0
451310 On ch=1 n=45 v=0
451320 On ch=1 n=79 v=120
451320 On ch=1 n=88 v=120
451320 On ch=1 n=76 v=120
451320 On ch=1 n=59 v=120
451320 On ch=1 n=47 v=120
451430 On ch=1 n=59 v=0
451430 On ch=1 n=47 v=0
451560 On ch=1 n=55 v=120
451560 On ch=1 n=43 v=120
451670 On ch=1 n=79 v=0
451670 On ch=1 n=88 v=0
451670 On ch=1 n=76 v=0
451670 On ch=1 n=55 v=0
451670 On ch=1 n=43 v=0
451680 On ch=1 n=78 v=120
451680 On ch=1 n=86 v=120
451680 On ch=1 n=74 v=120
451680 On ch=1 n=57 v=120
451680 On ch=1 n=45 v=120
451790 On ch=1 n=57 v=0
451790 On ch=1 n=45 v=0
451795 Par ch=1 c=64 v=127
451800 On ch=1 n=67 v=120
451800 On ch=1 n=55 v=120
451910 On ch=1 n=67 v=0
451910 On ch=1 n=55 v=0
451920 On ch=1 n=66 v=120
451920 On ch=1 n=54 v=120
452030 On ch=1 n=78 v=0
452030 On ch=1 n=86 v=0
452030 On ch=1 n=74 v=0
452030 On ch=1 n=66 v=0
452030 On ch=1 n=54 v=0
452040 On ch=1 n=78 v=120
452040 On ch=1 n=81 v=120
452040 On ch=1 n=86 v=120
452040 On ch=1 n=74 v=120
452040 On ch=1 n=64 v=120
452040 On ch=1 n=52 v=120
452150 On ch=1 n=64 v=0
452150 On ch=1 n=52 v=0
452160 On ch=1 n=62 v=120
452160 On ch=1 n=50 v=120
452270 On ch=1 n=62 v=0
452270 On ch=1 n=50 v=0
452280 On ch=1 n=61 v=120
452280 On ch=1 n=49 v=120
452355 Par ch=1 c=64 v=0
452390 On ch=1 n=78 v=0
452390 On ch=1 n=81 v=0
452390 On ch=1 n=86 v=0
452390 On ch=1 n=74 v=0
452390 On ch=1 n=61 v=0
452390 On ch=1 n=49 v=0
452400 On ch=1 n=79 v=120
452400 On ch=1 n=85 v=120
452400 On ch=1 n=88 v=120
452400 On ch=1 n=76 v=120
452400 On ch=1 n=59 v=120
452400 On ch=1 n=47 v=120
452482 Par ch=1 c=64 v=127
452510 On ch=1 n=59 v=0
452510 On ch=1 n=47 v=0
452520 On ch=1 n=57 v=120
452520 On ch=1 n=45 v=120
452630 On ch=1 n=57 v=0
452630 On ch=1 n=45 v=0
452640 On ch=1 n=62 v=120
452640 On ch=1 n=50 v=120
452750 On ch=1 n=79 v=0
452750 On ch=1 n=85 v=0
452750 On ch=1 n=88 v=0
452750 On ch=1 n=76 v=0
452750 On ch=1 n=62 v=0
452750 On ch=1 n=50 v=0
452760 On ch=1 n=81 v=120
452760 On ch=1 n=86 v=120
452760 On ch=1 n=90 v=120
452760 On ch=1 n=78 v=120
452760 On ch=1 n=57 v=120
452760 On ch=1 n=45 v=120
452870 On ch=1 n=57 v=0
452870 On ch=1 n=45 v=0
452880 On ch=1 n=54 v=120
452880 On ch=1 n=42 v=120
452990 On ch=1 n=54 v=0
452990 On ch=1 n=42 v=0
453000 On ch=1 n=50 v=120
453000 On ch=1 n=38 v=120
453109 Par ch=1 c=64 v=0
453110 On ch=1 n=81 v=0
453110 On ch=1 n=86 v=0
453110 On ch=1 n=90 v=0
453110 On ch=1 n=78 v=0
453110 On ch=1 n=50 v=0
453110 On ch=1 n=38 v=0
453120 On ch=1 n=79 v=120
453120 On ch=1 n=85 v=120
453120 On ch=1 n=88 v=120
453120 On ch=1 n=76 v=120
453120 On ch=1 n=47 v=120
453120 On ch=1 n=35 v=120
453230 On ch=1 n=47 v=0
453230 On ch=1 n=35 v=0
453240 On ch=1 n=45 v=120
453240 On ch=1 n=33 v=120
453350 On ch=1 n=45 v=0
453350 On ch=1 n=33 v=0
453360 On ch=1 n=44 v=120
453360 On ch=1 n=32 v=120
453470 On ch=1 n=44 v=0
453470 On ch=1 n=32 v=0
453480 On ch=1 n=45 v=120
453480 On ch=1 n=33 v=120
453590 On ch=1 n=45 v=0
453590 On ch=1 n=33 v=0
453710 On ch=1 n=79 v=0
453710 On ch=1 n=85 v=0
453710 On ch=1 n=88 v=0
453710 On ch=1 n=76 v=0
453720 On ch=1 n=78 v=120
453720 On ch=1 n=81 v=120
453720 On ch=1 n=86 v=120
453720 On ch=1 n=74 v=120
453720 On ch=1 n=45 v=120
453720 On ch=1 n=33 v=120
453830 On ch=1 n=78 v=0
453830 On ch=1 n=81 v=0
453830 On ch=1 n=86 v=0
453830 On ch=1 n=74 v=0
453830 On ch=1 n=45 v=0
453830 On ch=1 n=33 v=0
453840 On ch=1 n=78 v=120
453840 On ch=1 n=81 v=120
453840 On ch=1 n=86 v=120
453840 On ch=1 n=74 v=120
453840 On ch=1 n=50 v=120
453840 On ch=1 n=38 v=120
453940 Par ch=1 c=64 v=127
453950 On ch=1 n=50 v=0
453950 On ch=1 n=38 v=0
453960 On ch=1 n=57 v=120
453960 On ch=1 n=45 v=120
454070 On ch=1 n=78 v=0
454070 On ch=1 n=81 v=0
454070 On ch=1 n=86 v=0
454070 On ch=1 n=74 v=0
454070 On ch=1 n=57 v=0
454070 On ch=1 n=45 v=0
454080 On ch=1 n=56 v=120
454080 On ch=1 n=44 v=120
454190 On ch=1 n=56 v=0
454190 On ch=1 n=44 v=0
454200 On ch=1 n=57 v=120
454200 On ch=1 n=45 v=120
454310 On ch=1 n=57 v=0
454310 On ch=1 n=45 v=0
454320 On ch=1 n=54 v=120
454320 On ch=1 n=42 v=120
454430 On ch=1 n=54 v=0
454430 On ch=1 n=42 v=0
454440 On ch=1 n=50 v=120
454440 On ch=1 n=38 v=120
454502 Par ch=1 c=64 v=0
454550 On ch=1 n=50 v=0
454550 On ch=1 n=38 v=0
454560 On ch=1 n=69 v=120
454560 On ch=1 n=73 v=120
454560 On ch=1 n=76 v=120
454560 On ch=1 n=64 v=120
454560 On ch=1 n=45 v=120
454560 On ch=1 n=33 v=120
454670 On ch=1 n=45 v=0
454670 On ch=1 n=33 v=0
454680 On ch=1 n=57 v=120
454680 On ch=1 n=45 v=120
454680 Par ch=1 c=64 v=127
454790 On ch=1 n=57 v=0
454790 On ch=1 n=45 v=0
454800 On ch=1 n=56 v=120
454800 On ch=1 n=44 v=120
454910 On ch=1 n=69 v=0
454910 On ch=1 n=73 v=0
454910 On ch=1 n=76 v=0
454910 On ch=1 n=64 v=0
454910 On ch=1 n=56 v=0
454910 On ch=1 n=44 v=0
454920 On ch=1 n=69 v=120
454920 On ch=1 n=73 v=120
454920 On ch=1 n=76 v=120
454920 On ch=1 n=64 v=120
454920 On ch=1 n=57 v=120
454920 On ch=1 n=45 v=120
455030 On ch=1 n=57 v=0
455030 On ch=1 n=45 v=0
455040 On ch=1 n=52 v=120
455040 On ch=1 n=40 v=120
455150 On ch=1 n=52 v=0
455150 On ch=1 n=40 v=0
455160 On ch=1 n=49 v=120
455160 On ch=1 n=37 v=120
455230 Par ch=1 c=64 v=0
455270 On ch=1 n=69 v=0
455270 On ch=1 n=73 v=0
455270 On ch=1 n=76 v=0
455270 On ch=1 n=64 v=0
455270 On ch=1 n=49 v=0
455270 On ch=1 n=37 v=0
455280 On ch=1 n=69 v=120
455280 On ch=1 n=74 v=120
455280 On ch=1 n=78 v=120
455280 On ch=1 n=66 v=120
455280 On ch=1 n=45 v=120
455280 On ch=1 n=33 v=120
455370 Par ch=1 c=64 v=127
455390 On ch=1 n=45 v=0
455390 On ch=1 n=33 v=0
455400 On ch=1 n=57 v=120
455400 On ch=1 n=45 v=120
455510 On ch=1 n=57 v=0
455510 On ch=1 n=45 v=0
455520 On ch=1 n=56 v=120
455520 On ch=1 n=44 v=120
455630 On ch=1 n=69 v=0
455630 On ch=1 n=74 v=0
455630 On ch=1 n=78 v=0
455630 On ch=1 n=66 v=0
455630 On ch=1 n=56 v=0
455630 On ch=1 n=44 v=0
455640 On ch=1 n=66 v=120
455640 On ch=1 n=69 v=120
455640 On ch=1 n=74 v=120
455640 On ch=1 n=62 v=120
455640 On ch=1 n=57 v=120
455640 On ch=1 n=45 v=120
455750 On ch=1 n=57 v=0
455750 On ch=1 n=45 v=0
455760 On ch=1 n=54 v=120
455760 On ch=1 n=42 v=120
455870 On ch=1 n=54 v=0
455870 On ch=1 n=42 v=0
455880 On ch=1 n=50 v=120
455880 On ch=1 n=38 v=120
455953 Par ch=1 c=64 v=0
455990 On ch=1 n=66 v=0
455990 On ch=1 n=69 v=0
455990 On ch=1 n=74 v=0
455990 On ch=1 n=62 v=0
455990 On ch=1 n=50 v=0
455990 On ch=1 n=38 v=0
456000 On ch=1 n=69 v=120
456000 On ch=1 n=73 v=120
456000 On ch=1 n=76 v=120
456000 On ch=1 n=64 v=120
456000 On ch=1 n=45 v=120
456000 On ch=1 n=33 v=120
456039 Par ch=1 c=64 v=127
456110 On ch=1 n=45 v=0
456110 On ch=1 n=33 v=0
456120 On ch=1 n=57 v=120
456120 On ch=1 n=45 v=120
456230 On ch=1 n=57 v=0
456230 On ch=1 n=45 v=0
456240 On ch=1 n=59 v=120
456240 On ch=1 n=47 v=120
456350 On ch=1 n=69 v=0
456350 On ch=1 n=73 v=0
456350 On ch=1 n=76 v=0
456350 On ch=1 n=64 v=0
456350 On ch=1 n=59 v=0
456350 On ch=1 n=47 v=0
456360 On ch=1 n=74 v=120
456360 On ch=1 n=78 v=120
456360 On ch=1 n=66 v=120
456360 On ch=1 n=57 v=120
456360 On ch=1 n=45 v=120
456470 On ch=1 n=57 v=0
456470 On ch=1 n=45 v=0
456480 On ch=1 n=57 v=120
456480 On ch=1 n=45 v=120
456590 On ch=1 n=74 v=0
456590 On ch=1 n=78 v=0
456590 On ch=1 n=66 v=0
456590 On ch=1 n=57 v=0
456590 On ch=1 n=45 v=0
456600 On ch=1 n=76 v=120
456600 On ch=1 n=79 v=120
456600 On ch=1 n=67 v=120
456600 On ch=1 n=57 v=120
456600 On ch=1 n=45 v=120
456627 Par ch=1 c=64 v=0
456710 On ch=1 n=76 v=0
456710 On ch=1 n=79 v=0
456710 On ch=1 n=67 v=0
456710 On ch=1 n=57 v=0
456710 On ch=1 n=45 v=0
456714 Par ch=1 c=64 v=127
456720 On ch=1 n=74 v=120
456720 On ch=1 n=78 v=120
456720 On ch=1 n=66 v=120
456720 On ch=1 n=45 v=120
456720 On ch=1 n=33 v=120
456830 On ch=1 n=45 v=0
456830 On ch=1 n=33 v=0
456840 On ch=1 n=57 v=120
456840 On ch=1 n=45 v=120
456950 On ch=1 n=57 v=0
456950 On ch=1 n=45 v=0
456960 On ch=1 n=56 v=120
456960 On ch=1 n=44 v=120
457070 On ch=1 n=74 v=0
457070 On ch=1 n=78 v=0
457070 On ch=1 n=66 v=0
457070 On ch=1 n=56 v=0
457070 On ch=1 n=44 v=0
457080 On ch=1 n=78 v=120
457080 On ch=1 n=81 v=120
457080 On ch=1 n=86 v=120
457080 On ch=1 n=74 v=120
457080 On ch=1 n=57 v=120
457080 On ch=1 n=45 v=120
457190 On ch=1 n=57 v=0
457190 On ch=1 n=45 v=0
457200 On ch=1 n=54 v=120
457200 On ch=1 n=42 v=120
457310 On ch=1 n=54 v=0
457310 On ch=1 n=42 v=0
457320 On ch=1 n=50 v=120
457320 On ch=1 n=38 v=120
457398 Par ch=1 c=64 v=0
457430 On ch=1 n=78 v=0
457430 On ch=1 n=81 v=0
457430 On ch=1 n=86 v=0
457430 On ch=1 n=74 v=0
457430 On ch=1 n=50 v=0
457430 On ch=1 n=38 v=0
457440 On ch=1 n=81 v=120
457440 On ch=1 n=85 v=120
457440 On ch=1 n=88 v=120
457440 On ch=1 n=76 v=120
457440 On ch=1 n=45 v=120
457440 On ch=1 n=33 v=120
457461 Par ch=1 c=64 v=127
457550 On ch=1 n=45 v=0
457550 On ch=1 n=33 v=0
457560 On ch=1 n=57 v=120
457560 On ch=1 n=45 v=120
457670 On ch=1 n=57 v=0
457670 On ch=1 n=45 v=0
457680 On ch=1 n=59 v=120
457680 On ch=1 n=47 v=120
457790 On ch=1 n=81 v=0
457790 On ch=1 n=85 v=0
457790 On ch=1 n=88 v=0
457790 On ch=1 n=76 v=0
457790 On ch=1 n=59 v=0
457790 On ch=1 n=47 v=0
457800 On ch=1 n=86 v=120
457800 On ch=1 n=90 v=120
457800 On ch=1 n=78 v=120
457800 On ch=1 n=57 v=120
457800 On ch=1 n=45 v=120
457910 On ch=1 n=57 v=0
457910 On ch=1 n=45 v=0
457920 On ch=1 n=57 v=120
457920 On ch=1 n=45 v=120
458030 On ch=1 n=86 v=0
458030 On ch=1 n=90 v=0
458030 On ch=1 n=78 v=0
458030 On ch=1 n=57 v=0
458030 On ch=1 n=45 v=0
458040 On ch=1 n=88 v=120
458040 On ch=1 n=91 v=120
458040 On ch=1 n=79 v=120
458040 On ch=1 n=57 v=120
458040 On ch=1 n=45 v=120
458141 Par ch=1 c=64 v=0
458150 On ch=1 n=88 v=0
458150 On ch=1 n=91 v=0
458150 On ch=1 n=79 v=0
458150 On ch=1 n=57 v=0
458150 On ch=1 n=45 v=0
458160 On ch=1 n=85 v=120
458160 On ch=1 n=90 v=120
458160 On ch=1 n=78 v=120
458160 On ch=1 n=58 v=120
458160 On ch=1 n=46 v=120
458211 Par ch=1 c=64 v=127
458270 On ch=1 n=58 v=0
458270 On ch=1 n=46 v=0
458280 On ch=1 n=61 v=120
458280 On ch=1 n=66 v=120
458280 On ch=1 n=58 v=120
458390 On ch=1 n=61 v=0
458390 On ch=1 n=66 v=0
458390 On ch=1 n=58 v=0
458400 On ch=1 n=61 v=120
458400 On ch=1 n=66 v=120
458400 On ch=1 n=58 v=120
458510 On ch=1 n=85 v=0
458510 On ch=1 n=90 v=0
458510 On ch=1 n=78 v=0
458510 On ch=1 n=61 v=0
458510 On ch=1 n=66 v=0
458510 On ch=1 n=58 v=0
458520 On ch=1 n=82 v=120
458520 On ch=1 n=85 v=120
458520 On ch=1 n=88 v=120
458520 On ch=1 n=76 v=120
458520 On ch=1 n=54 v=120
458520 On ch=1 n=42 v=120
458630 On ch=1 n=54 v=0
458630 On ch=1 n=42 v=0
458640 On ch=1 n=61 v=120
458640 On ch=1 n=64 v=120
458640 On ch=1 n=54 v=120
458750 On ch=1 n=61 v=0
458750 On ch=1 n=64 v=0
458750 On ch=1 n=54 v=0
458760 On ch=1 n=61 v=120
458760 On ch=1 n=64 v=120
458760 On ch=1 n=54 v=120
458858 Par ch=1 c=64 v=0
458870 On ch=1 n=82 v=0
458870 On ch=1 n=85 v=0
458870 On ch=1 n=88 v=0
458870 On ch=1 n=76 v=0
458870 On ch=1 n=61 v=0
458870 On ch=1 n=64 v=0
458870 On ch=1 n=54 v=0
458880 On ch=1 n=78 v=120
458880 On ch=1 n=83 v=120
458880 On ch=1 n=86 v=120
458880 On ch=1 n=74 v=120
458880 On ch=1 n=47 v=120
458880 On ch=1 n=35 v=120
458924 Par ch=1 c=64 v=127
458990 On ch=1 n=47 v=0
458990 On ch=1 n=35 v=0
459000 On ch=1 n=59 v=120
459000 On ch=1 n=62 v=120
459000 On ch=1 n=54 v=120
459110 On ch=1 n=59 v=0
459110 On ch=1 n=62 v=0
459110 On ch=1 n=54 v=0
459120 On ch=1 n=59 v=120
459120 On ch=1 n=62 v=120
459120 On ch=1 n=54 v=120
459194 Par ch=1 c=64 v=0
459230 On ch=1 n=78 v=0
459230 On ch=1 n=83 v=0
459230 On ch=1 n=86 v=0
459230 On ch=1 n=74 v=0
459230 On ch=1 n=59 v=0
459230 On ch=1 n=62 v=0
459230 On ch=1 n=54 v=0
459240 On ch=1 n=80 v=120
459240 On ch=1 n=83 v=120
459240 On ch=1 n=88 v=120
459240 On ch=1 n=76 v=120
459240 On ch=1 n=52 v=120
459240 On ch=1 n=40 v=120
459294 Par ch=1 c=64 v=127
459350 On ch=1 n=52 v=0
459350 On ch=1 n=40 v=0
459360 On ch=1 n=59 v=120
459360 On ch=1 n=64 v=120
459360 On ch=1 n=56 v=120
459470 On ch=1 n=59 v=0
459470 On ch=1 n=64 v=0
459470 On ch=1 n=56 v=0
459480 On ch=1 n=59 v=120
459480 On ch=1 n=64 v=120
459480 On ch=1 n=56 v=120
459590 On ch=1 n=80 v=0
459590 On ch=1 n=83 v=0
459590 On ch=1 n=88 v=0
459590 On ch=1 n=76 v=0
459590 On ch=1 n=59 v=0
459590 On ch=1 n=64 v=0
459590 On ch=1 n=56 v=0
459600 On ch=1 n=73 v=120
459600 On ch=1 n=76 v=120
459600 On ch=1 n=81 v=120
459600 On ch=1 n=69 v=120
459600 On ch=1 n=57 v=120
459600 On ch=1 n=45 v=120
459605 Par ch=1 c=64 v=0
459654 Par ch=1 c=64 v=127
459710 On ch=1 n=57 v=0
459710 On ch=1 n=45 v=0
459720 On ch=1 n=61 v=120
459720 On ch=1 n=64 v=120
459720 On ch=1 n=57 v=120
459830 On ch=1 n=61 v=0
459830 On ch=1 n=64 v=0
459830 On ch=1 n=57 v=0
459840 On ch=1 n=61 v=120
459840 On ch=1 n=64 v=120
459840 On ch=1 n=57 v=120
459950 On ch=1 n=73 v=0
459950 On ch=1 n=76 v=0
459950 On ch=1 n=81 v=0
459950 On ch=1 n=69 v=0
459950 On ch=1 n=61 v=0
459950 On ch=1 n=64 v=0
459950 On ch=1 n=57 v=0
459960 On ch=1 n=81 v=120
459960 On ch=1 n=86 v=120
459960 On ch=1 n=90 v=120
459960 On ch=1 n=78 v=120
459960 On ch=1 n=45 v=120
459960 On ch=1 n=33 v=120
459969 Par ch=1 c=64 v=0
460046 Par ch=1 c=64 v=127
460070 On ch=1 n=45 v=0
460070 On ch=1 n=33 v=0
460080 On ch=1 n=62 v=120
460080 On ch=1 n=66 v=120
460080 On ch=1 n=54 v=120
460190 On ch=1 n=62 v=0
460190 On ch=1 n=66 v=0
460190 On ch=1 n=54 v=0
460200 On ch=1 n=62 v=120
460200 On ch=1 n=66 v=120
460200 On ch=1 n=54 v=120
460308 Par ch=1 c=64 v=0
460310 On ch=1 n=62 v=0
460310 On ch=1 n=66 v=0
460310 On ch=1 n=54 v=0
460320 On ch=1 n=50 v=120
460320 On ch=1 n=38 v=120
460370 Par ch=1 c=64 v=127
460430 On ch=1 n=50 v=0
460430 On ch=1 n=38 v=0
460440 On ch=1 n=62 v=120
460440 On ch=1 n=50 v=120
460550 On ch=1 n=62 v=0
460550 On ch=1 n=50 v=0
460560 On ch=1 n=60 v=120
460560 On ch=1 n=48 v=120
460670 On ch=1 n=81 v=0
460670 On ch=1 n=86 v=0
460670 On ch=1 n=90 v=0
460670 On ch=1 n=78 v=0
460670 On ch=1 n=60 v=0
460670 On ch=1 n=48 v=0
460680 On ch=1 n=81 v=120
460680 On ch=1 n=86 v=120
460680 On ch=1 n=90 v=120
460680 On ch=1 n=78 v=120
460680 On ch=1 n=59 v=120
460680 On ch=1 n=47 v=120
460790 On ch=1 n=59 v=0
460790 On ch=1 n=47 v=0
460800 On ch=1 n=57 v=120
460800 On ch=1 n=45 v=120
460910 On ch=1 n=57 v=0
460910 On ch=1 n=45 v=0
460920 On ch=1 n=55 v=120
460920 On ch=1 n=43 v=120
461030 On ch=1 n=81 v=0
461030 On ch=1 n=86 v=0
461030 On ch=1 n=90 v=0
461030 On ch=1 n=78 v=0
461030 On ch=1 n=55 v=0
461030 On ch=1 n=43 v=0
461040 On ch=1 n=83 v=120
461040 On ch=1 n=86 v=120
461040 On ch=1 n=91 v=120
461040 On ch=1 n=79 v=120
461040 On ch=1 n=54 v=120
461040 On ch=1 n=42 v=120
461150 On ch=1 n=54 v=0
461150 On ch=1 n=42 v=0
461160 On ch=1 n=52 v=120
461160 On ch=1 n=40 v=120
461270 On ch=1 n=52 v=0
461270 On ch=1 n=40 v=0
461280 On ch=1 n=50 v=120
461280 On ch=1 n=38 v=120
461390 On ch=1 n=83 v=0
461390 On ch=1 n=86 v=0
461390 On ch=1 n=91 v=0
461390 On ch=1 n=79 v=0
461390 On ch=1 n=50 v=0
461390 On ch=1 n=38 v=0
461396 Par ch=1 c=64 v=0
461400 On ch=1 n=84 v=120
461400 On ch=1 n=86 v=120
461400 On ch=1 n=93 v=120
461400 On ch=1 n=81 v=120
461400 On ch=1 n=48 v=120
461400 On ch=1 n=36 v=120
461510 On ch=1 n=48 v=0
461510 On ch=1 n=36 v=0
461520 On ch=1 n=47 v=120
461520 On ch=1 n=35 v=120
461630 On ch=1 n=47 v=0
461630 On ch=1 n=35 v=0
461640 On ch=1 n=45 v=120
461640 On ch=1 n=33 v=120
461750 On ch=1 n=84 v=0
461750 On ch=1 n=86 v=0
461750 On ch=1 n=93 v=0
461750 On ch=1 n=81 v=0
461750 On ch=1 n=45 v=0
461750 On ch=1 n=33 v=0
461760 On ch=1 n=84 v=120
461760 On ch=1 n=86 v=120
461760 On ch=1 n=93 v=120
461760 On ch=1 n=81 v=120
461760 On ch=1 n=43 v=120
461760 On ch=1 n=31 v=120
461788 Par ch=1 c=64 v=127
461870 On ch=1 n=43 v=0
461870 On ch=1 n=31 v=0
461880 On ch=1 n=45 v=120
461880 On ch=1 n=33 v=120
461990 On ch=1 n=45 v=0
461990 On ch=1 n=33 v=0
462000 On ch=1 n=47 v=120
462000 On ch=1 n=35 v=120
462110 On ch=1 n=84 v=0
462110 On ch=1 n=86 v=0
462110 On ch=1 n=93 v=0
462110 On ch=1 n=81 v=0
462110 On ch=1 n=47 v=0
462110 On ch=1 n=35 v=0
462120 On ch=1 n=83 v=120
462120 On ch=1 n=86 v=120
462120 On ch=1 n=91 v=120
462120 On ch=1 n=79 v=120
462120 On ch=1 n=48 v=120
462120 On ch=1 n=36 v=120
462230 On ch=1 n=48 v=0
462230 On ch=1 n=36 v=0
462240 On ch=1 n=50 v=120
462240 On ch=1 n=38 v=120
462350 On ch=1 n=50 v=0
462350 On ch=1 n=38 v=0
462360 On ch=1 n=52 v=120
462360 On ch=1 n=40 v=120
462470 On ch=1 n=83 v=0
462470 On ch=1 n=86 v=0
462470 On ch=1 n=91 v=0
462470 On ch=1 n=79 v=0
462470 On ch=1 n=52 v=0
462470 On ch=1 n=40 v=0
462480 On ch=1 n=81 v=120
462480 On ch=1 n=86 v=120
462480 On ch=1 n=90 v=120
462480 On ch=1 n=78 v=120
462480 On ch=1 n=54 v=120
462480 On ch=1 n=42 v=120
462543 Par ch=1 c=64 v=0
462590 On ch=1 n=54 v=0
462590 On ch=1 n=42 v=0
462600 On ch=1 n=55 v=120
462600 On ch=1 n=43 v=120
462710 On ch=1 n=55 v=0
462710 On ch=1 n=43 v=0
462720 On ch=1 n=57 v=120
462720 On ch=1 n=45 v=120
462830 On ch=1 n=81 v=0
462830 On ch=1 n=86 v=0
462830 On ch=1 n=90 v=0
462830 On ch=1 n=78 v=0
462830 On ch=1 n=57 v=0
462830 On ch=1 n=45 v=0
462840 On ch=1 n=83 v=120
462840 On ch=1 n=86 v=120
462840 On ch=1 n=91 v=120
462840 On ch=1 n=79 v=120
462840 On ch=1 n=59 v=120
462840 On ch=1 n=47 v=120
462950 On ch=1 n=59 v=0
462950 On ch=1 n=47 v=0
463070 On ch=1 n=83 v=0
463070 On ch=1 n=86 v=0
463070 On ch=1 n=91 v=0
463070 On ch=1 n=79 v=0
463080 On ch=1 n=79 v=120
463080 On ch=1 n=88 v=120
463080 On ch=1 n=76 v=120
463080 On ch=1 n=55 v=120
463080 On ch=1 n=43 v=120
463190 On ch=1 n=79 v=0
463190 On ch=1 n=88 v=0
463190 On ch=1 n=76 v=0
463190 On ch=1 n=55 v=0
463190 On ch=1 n=43 v=0
463200 On ch=1 n=78 v=120
463200 On ch=1 n=86 v=120
463200 On ch=1 n=74 v=120
463200 On ch=1 n=57 v=120
463200 On ch=1 n=45 v=120
463309 Par ch=1 c=64 v=127
463310 On ch=1 n=57 v=0
463310 On ch=1 n=45 v=0
463320 On ch=1 n=67 v=120
463320 On ch=1 n=55 v=120
463430 On ch=1 n=67 v=0
463430 On ch=1 n=55 v=0
463440 On ch=1 n=66 v=120
463440 On ch=1 n=54 v=120
463550 On ch=1 n=78 v=0
463550 On ch=1 n=86 v=0
463550 On ch=1 n=74 v=0
463550 On ch=1 n=66 v=0
463550 On ch=1 n=54 v=0
463560 On ch=1 n=78 v=120
463560 On ch=1 n=86 v=120
463560 On ch=1 n=74 v=120
463560 On ch=1 n=64 v=120
463560 On ch=1 n=52 v=120
463670 On ch=1 n=64 v=0
463670 On ch=1 n=52 v=0
463680 On ch=1 n=62 v=120
463680 On ch=1 n=50 v=120
463790 On ch=1 n=62 v=0
463790 On ch=1 n=50 v=0
463800 On ch=1 n=61 v=120
463800 On ch=1 n=49 v=120
463910 On ch=1 n=78 v=0
463910 On ch=1 n=86 v=0
463910 On ch=1 n=74 v=0
463910 On ch=1 n=61 v=0
463910 On ch=1 n=49 v=0
463920 On ch=1 n=79 v=120
463920 On ch=1 n=86 v=120
463920 On ch=1 n=88 v=120
463920 On ch=1 n=76 v=120
463920 On ch=1 n=59 v=120
463920 On ch=1 n=47 v=120
463940 Par ch=1 c=64 v=0
464006 Par ch=1 c=64 v=127
464030 On ch=1 n=59 v=0
464030 On ch=1 n=47 v=0
464040 On ch=1 n=57 v=120
464040 On ch=1 n=45 v=120
464150 On ch=1 n=57 v=0
464150 On ch=1 n=45 v=0
464160 On ch=1 n=62 v=120
464160 On ch=1 n=50 v=120
464270 On ch=1 n=79 v=0
464270 On ch=1 n=86 v=0
464270 On ch=1 n=88 v=0
464270 On ch=1 n=76 v=0
464270 On ch=1 n=62 v=0
464270 On ch=1 n=50 v=0
464280 On ch=1 n=81 v=120
464280 On ch=1 n=86 v=120
464280 On ch=1 n=90 v=120
464280 On ch=1 n=78 v=120
464280 On ch=1 n=57 v=120
464280 On ch=1 n=45 v=120
464390 On ch=1 n=57 v=0
464390 On ch=1 n=45 v=0
464400 On ch=1 n=54 v=120
464400 On ch=1 n=42 v=120
464510 On ch=1 n=54 v=0
464510 On ch=1 n=42 v=0
464520 On ch=1 n=50 v=120
464520 On ch=1 n=38 v=120
464592 Par ch=1 c=64 v=0
464630 On ch=1 n=81 v=0
464630 On ch=1 n=86 v=0
464630 On ch=1 n=90 v=0
464630 On ch=1 n=78 v=0
464630 On ch=1 n=50 v=0
464630 On ch=1 n=38 v=0
464640 On ch=1 n=79 v=120
464640 On ch=1 n=85 v=120
464640 On ch=1 n=88 v=120
464640 On ch=1 n=76 v=120
464640 On ch=1 n=47 v=120
464640 On ch=1 n=35 v=120
464750 On ch=1 n=47 v=0
464750 On ch=1 n=35 v=0
464760 On ch=1 n=45 v=120
464760 On ch=1 n=33 v=120
464870 On ch=1 n=45 v=0
464870 On ch=1 n=33 v=0
464880 On ch=1 n=44 v=120
464880 On ch=1 n=32 v=120
464990 On ch=1 n=44 v=0
464990 On ch=1 n=32 v=0
465000 On ch=1 n=45 v=120
465000 On ch=1 n=33 v=120
465110 On ch=1 n=45 v=0
465110 On ch=1 n=33 v=0
465230 On ch=1 n=79 v=0
465230 On ch=1 n=85 v=0
465230 On ch=1 n=88 v=0
465230 On ch=1 n=76 v=0
465240 On ch=1 n=45 v=120
465240 On ch=1 n=33 v=120
465350 On ch=1 n=45 v=0
465350 On ch=1 n=33 v=0
465360 On ch=1 n=78 v=120
465360 On ch=1 n=81 v=120
465360 On ch=1 n=86 v=120
465360 On ch=1 n=74 v=120
465360 On ch=1 n=50 v=120
465360 On ch=1 n=38 v=120
465470 On ch=1 n=50 v=0
465470 On ch=1 n=38 v=0
465480 On ch=1 n=57 v=120
465480 On ch=1 n=45 v=120
465486 Par ch=1 c=64 v=127
465536 Par ch=1 c=64 v=0
465590 On ch=1 n=57 v=0
465590 On ch=1 n=45 v=0
465600 On ch=1 n=56 v=120
465600 On ch=1 n=44 v=120
465687 Par ch=1 c=64 v=127
465710 On ch=1 n=78 v=0
465710 On ch=1 n=81 v=0
465710 On ch=1 n=86 v=0
465710 On ch=1 n=74 v=0
465710 On ch=1 n=56 v=0
465710 On ch=1 n=44 v=0
465720 On ch=1 n=57 v=120
465720 On ch=1 n=45 v=120
465830 On ch=1 n=57 v=0
465830 On ch=1 n=45 v=0
465840 On ch=1 n=54 v=120
465840 On ch=1 n=42 v=120
465950 On ch=1 n=54 v=0
465950 On ch=1 n=42 v=0
465960 On ch=1 n=50 v=120
465960 On ch=1 n=38 v=120
466050 Par ch=1 c=64 v=0
466070 On ch=1 n=50 v=0
466070 On ch=1 n=38 v=0
466080 On ch=1 n=69 v=120
466080 On ch=1 n=73 v=120
466080 On ch=1 n=76 v=120
466080 On ch=1 n=64 v=120
466080 On ch=1 n=45 v=120
466080 On ch=1 n=33 v=120
466172 Par ch=1 c=64 v=127
466190 On ch=1 n=45 v=0
466190 On ch=1 n=33 v=0
466200 On ch=1 n=57 v=120
466200 On ch=1 n=45 v=120
466310 On ch=1 n=57 v=0
466310 On ch=1 n=45 v=0
466320 On ch=1 n=56 v=120
466320 On ch=1 n=44 v=120
466430 On ch=1 n=69 v=0
466430 On ch=1 n=73 v=0
466430 On ch=1 n=76 v=0
466430 On ch=1 n=64 v=0
466430 On ch=1 n=56 v=0
466430 On ch=1 n=44 v=0
466440 On ch=1 n=69 v=120
466440 On ch=1 n=73 v=120
466440 On ch=1 n=76 v=120
466440 On ch=1 n=64 v=120
466440 On ch=1 n=57 v=120
466440 On ch=1 n=45 v=120
466550 On ch=1 n=57 v=0
466550 On ch=1 n=45 v=0
466560 On ch=1 n=52 v=120
466560 On ch=1 n=40 v=120
466670 On ch=1 n=52 v=0
466670 On ch=1 n=40 v=0
466680 On ch=1 n=49 v=120
466680 On ch=1 n=37 v=120
466790 On ch=1 n=69 v=0
466790 On ch=1 n=73 v=0
466790 On ch=1 n=76 v=0
466790 On ch=1 n=64 v=0
466790 On ch=1 n=49 v=0
466790 On ch=1 n=37 v=0
466800 On ch=1 n=69 v=120
466800 On ch=1 n=74 v=120
466800 On ch=1 n=78 v=120
466800 On ch=1 n=66 v=120
466800 On ch=1 n=45 v=120
466800 On ch=1 n=33 v=120
466804 Par ch=1 c=64 v=0
466868 Par ch=1 c=64 v=127
466910 On ch=1 n=45 v=0
466910 On ch=1 n=33 v=0
466920 On ch=1 n=57 v=120
466920 On ch=1 n=45 v=120
467030 On ch=1 n=57 v=0
467030 On ch=1 n=45 v=0
467040 On ch=1 n=56 v=120
467040 On ch=1 n=44 v=120
467150 On ch=1 n=69 v=0
467150 On ch=1 n=74 v=0
467150 On ch=1 n=78 v=0
467150 On ch=1 n=66 v=0
467150 On ch=1 n=56 v=0
467150 On ch=1 n=44 v=0
467160 On ch=1 n=66 v=120
467160 On ch=1 n=69 v=120
467160 On ch=1 n=74 v=120
467160 On ch=1 n=62 v=120
467160 On ch=1 n=57 v=120
467160 On ch=1 n=45 v=120
467270 On ch=1 n=57 v=0
467270 On ch=1 n=45 v=0
467280 On ch=1 n=54 v=120
467280 On ch=1 n=42 v=120
467390 On ch=1 n=54 v=0
467390 On ch=1 n=42 v=0
467400 On ch=1 n=50 v=120
467400 On ch=1 n=38 v=120
467447 Par ch=1 c=64 v=0
467510 On ch=1 n=66 v=0
467510 On ch=1 n=69 v=0
467510 On ch=1 n=74 v=0
467510 On ch=1 n=62 v=0
467510 On ch=1 n=50 v=0
467510 On ch=1 n=38 v=0
467520 On ch=1 n=69 v=120
467520 On ch=1 n=73 v=120
467520 On ch=1 n=76 v=120
467520 On ch=1 n=64 v=120
467520 On ch=1 n=45 v=120
467520 On ch=1 n=33 v=120
467535 Par ch=1 c=64 v=127
467630 On ch=1 n=45 v=0
467630 On ch=1 n=33 v=0
467640 On ch=1 n=57 v=120
467640 On ch=1 n=45 v=120
467750 On ch=1 n=57 v=0
467750 On ch=1 n=45 v=0
467760 On ch=1 n=59 v=120
467760 On ch=1 n=47 v=120
467870 On ch=1 n=69 v=0
467870 On ch=1 n=73 v=0
467870 On ch=1 n=76 v=0
467870 On ch=1 n=64 v=0
467870 On ch=1 n=59 v=0
467870 On ch=1 n=47 v=0
467880 On ch=1 n=74 v=120
467880 On ch=1 n=78 v=120
467880 On ch=1 n=66 v=120
467880 On ch=1 n=57 v=120
467880 On ch=1 n=45 v=120
467990 On ch=1 n=57 v=0
467990 On ch=1 n=45 v=0
468000 On ch=1 n=57 v=120
468000 On ch=1 n=45 v=120
468110 On ch=1 n=74 v=0
468110 On ch=1 n=78 v=0
468110 On ch=1 n=66 v=0
468110 On ch=1 n=57 v=0
468110 On ch=1 n=45 v=0
468120 On ch=1 n=76 v=120
468120 On ch=1 n=79 v=120
468120 On ch=1 n=67 v=120
468120 On ch=1 n=57 v=120
468120 On ch=1 n=45 v=120
468184 Par ch=1 c=64 v=0
468230 On ch=1 n=76 v=0
468230 On ch=1 n=79 v=0
468230 On ch=1 n=67 v=0
468230 On ch=1 n=57 v=0
468230 On ch=1 n=45 v=0
468240 On ch=1 n=74 v=120
468240 On ch=1 n=78 v=120
468240 On ch=1 n=66 v=120
468240 On ch=1 n=45 v=120
468240 On ch=1 n=33 v=120
468311 Par ch=1 c=64 v=127
468350 On ch=1 n=45 v=0
468350 On ch=1 n=33 v=0
468360 On ch=1 n=57 v=120
468360 On ch=1 n=45 v=120
468470 On ch=1 n=57 v=0
468470 On ch=1 n=45 v=0
468480 On ch=1 n=56 v=120
468480 On ch=1 n=44 v=120
468590 On ch=1 n=74 v=0
468590 On ch=1 n=78 v=0
468590 On ch=1 n=66 v=0
468590 On ch=1 n=56 v=0
468590 On ch=1 n=44 v=0
468600 On ch=1 n=78 v=120
468600 On ch=1 n=81 v=120
468600 On ch=1 n=86 v=120
468600 On ch=1 n=74 v=120
468600 On ch=1 n=57 v=120
468600 On ch=1 n=45 v=120
468710 On ch=1 n=57 v=0
468710 On ch=1 n=45 v=0
468720 On ch=1 n=54 v=120
468720 On ch=1 n=42 v=120
468830 On ch=1 n=54 v=0
468830 On ch=1 n=42 v=0
468840 On ch=1 n=50 v=120
468840 On ch=1 n=38 v=120
468934 Par ch=1 c=64 v=0
468950 On ch=1 n=78 v=0
468950 On ch=1 n=81 v=0
468950 On ch=1 n=86 v=0
468950 On ch=1 n=74 v=0
468950 On ch=1 n=50 v=0
468950 On ch=1 n=38 v=0
468960 On ch=1 n=81 v=120
468960 On ch=1 n=85 v=120
468960 On ch=1 n=88 v=120
468960 On ch=1 n=76 v=120
468960 On ch=1 n=45 v=120
468960 On ch=1 n=33 v=120
468999 Par ch=1 c=64 v=127
469070 On ch=1 n=45 v=0
469070 On ch=1 n=33 v=0
469080 On ch=1 n=57 v=120
469080 On ch=1 n=45 v=120
469190 On ch=1 n=57 v=0
469190 On ch=1 n=45 v=0
469200 On ch=1 n=59 v=120
469200 On ch=1 n=47 v=120
469310 On ch=1 n=81 v=0
469310 On ch=1 n=85 v=0
469310 On ch=1 n=88 v=0
469310 On ch=1 n=76 v=0
469310 On ch=1 n=59 v=0
469310 On ch=1 n=47 v=0
469320 On ch=1 n=86 v=120
469320 On ch=1 n=90 v=120
469320 On ch=1 n=78 v=120
469320 On ch=1 n=57 v=120
469320 On ch=1 n=45 v=120
469430 On ch=1 n=57 v=0
469430 On ch=1 n=45 v=0
469440 On ch=1 n=57 v=120
469440 On ch=1 n=45 v=120
469550 On ch=1 n=86 v=0
469550 On ch=1 n=90 v=0
469550 On ch=1 n=78 v=0
469550 On ch=1 n=57 v=0
469550 On ch=1 n=45 v=0
469560 On ch=1 n=88 v=120
469560 On ch=1 n=91 v=120
469560 On ch=1 n=79 v=120
469560 On ch=1 n=57 v=120
469560 On ch=1 n=45 v=120
469670 On ch=1 n=88 v=0
469670 On ch=1 n=91 v=0
469670 On ch=1 n=79 v=0
469670 On ch=1 n=57 v=0
469670 On ch=1 n=45 v=0
469680 On ch=1 n=85 v=120
469680 On ch=1 n=90 v=120
469680 On ch=1 n=78 v=120
469680 On ch=1 n=58 v=120
469680 On ch=1 n=46 v=120
469700 Par ch=1 c=64 v=0
469768 Par ch=1 c=64 v=127
469790 On ch=1 n=58 v=0
469790 On ch=1 n=46 v=0
469800 On ch=1 n=61 v=120
469800 On ch=1 n=66 v=120
469800 On ch=1 n=58 v=120
469910 On ch=1 n=61 v=0
469910 On ch=1 n=66 v=0
469910 On ch=1 n=58 v=0
469920 On ch=1 n=61 v=120
469920 On ch=1 n=66 v=120
469920 On ch=1 n=58 v=120
470030 On ch=1 n=85 v=0
470030 On ch=1 n=90 v=0
470030 On ch=1 n=78 v=0
470030 On ch=1 n=61 v=0
470030 On ch=1 n=66 v=0
470030 On ch=1 n=58 v=0
470040 On ch=1 n=82 v=120
470040 On ch=1 n=85 v=120
470040 On ch=1 n=88 v=120
470040 On ch=1 n=76 v=120
470040 On ch=1 n=54 v=120
470040 On ch=1 n=42 v=120
470150 On ch=1 n=54 v=0
470150 On ch=1 n=42 v=0
470160 On ch=1 n=61 v=120
470160 On ch=1 n=64 v=120
470160 On ch=1 n=54 v=120
470270 On ch=1 n=61 v=0
470270 On ch=1 n=64 v=0
470270 On ch=1 n=54 v=0
470280 On ch=1 n=61 v=120
470280 On ch=1 n=64 v=120
470280 On ch=1 n=54 v=120
470390 On ch=1 n=82 v=0
470390 On ch=1 n=85 v=0
470390 On ch=1 n=88 v=0
470390 On ch=1 n=76 v=0
470390 On ch=1 n=61 v=0
470390 On ch=1 n=64 v=0
470390 On ch=1 n=54 v=0
470400 On ch=1 n=78 v=120
470400 On ch=1 n=83 v=120
470400 On ch=1 n=86 v=120
470400 On ch=1 n=74 v=120
470400 On ch=1 n=47 v=120
470400 On ch=1 n=35 v=120
470415 Par ch=1 c=64 v=0
470482 Par ch=1 c=64 v=127
470510 On ch=1 n=47 v=0
470510 On ch=1 n=35 v=0
470520 On ch=1 n=59 v=120
470520 On ch=1 n=62 v=120
470520 On ch=1 n=54 v=120
470630 On ch=1 n=59 v=0
470630 On ch=1 n=62 v=0
470630 On ch=1 n=54 v=0
470640 On ch=1 n=59 v=120
470640 On ch=1 n=62 v=120
470640 On ch=1 n=54 v=120
470750 On ch=1 n=78 v=0
470750 On ch=1 n=83 v=0
470750 On ch=1 n=86 v=0
470750 On ch=1 n=74 v=0
470750 On ch=1 n=59 v=0
470750 On ch=1 n=62 v=0
470750 On ch=1 n=54 v=0
470760 On ch=1 n=80 v=120
470760 On ch=1 n=83 v=120
470760 On ch=1 n=88 v=120
470760 On ch=1 n=76 v=120
470760 On ch=1 n=52 v=120
470760 On ch=1 n=40 v=120
470777 Par ch=1 c=64 v=0
470832 Par ch=1 c=64 v=127
470870 On ch=1 n=52 v=0
470870 On ch=1 n=40 v=0
470880 On ch=1 n=59 v=120
470880 On ch=1 n=64 v=120
470880 On ch=1 n=56 v=120
470990 On ch=1 n=59 v=0
470990 On ch=1 n=64 v=0
470990 On ch=1 n=56 v=0
471000 On ch=1 n=59 v=120
471000 On ch=1 n=64 v=120
471000 On ch=1 n=56 v=120
471110 On ch=1 n=80 v=0
471110 On ch=1 n=83 v=0
471110 On ch=1 n=88 v=0
471110 On ch=1 n=76 v=0
471110 On ch=1 n=59 v=0
471110 On ch=1 n=64 v=0
471110 On ch=1 n=56 v=0
471120 On ch=1 n=73 v=120
471120 On ch=1 n=76 v=120
471120 On ch=1 n=81 v=120
471120 On ch=1 n=69 v=120
471120 On ch=1 n=57 v=120
471120 On ch=1 n=45 v=120
471127 Par ch=1 c=64 v=0
471173 Par ch=1 c=64 v=127
471230 On ch=1 n=57 v=0
471230 On ch=1 n=45 v=0
471240 On ch=1 n=61 v=120
471240 On ch=1 n=64 v=120
471240 On ch=1 n=57 v=120
471350 On ch=1 n=61 v=0
471350 On ch=1 n=64 v=0
471350 On ch=1 n=57 v=0
471360 On ch=1 n=61 v=120
471360 On ch=1 n=64 v=120
471360 On ch=1 n=57 v=120
471470 On ch=1 n=73 v=0
471470 On ch=1 n=76 v=0
471470 On ch=1 n=81 v=0
471470 On ch=1 n=69 v=0
471470 On ch=1 n=61 v=0
471470 On ch=1 n=64 v=0
471470 On ch=1 n=57 v=0
471480 On ch=1 n=81 v=120
471480 On ch=1 n=86 v=120
471480 On ch=1 n=90 v=120
471480 On ch=1 n=78 v=120
471480 On ch=1 n=45 v=120
471480 On ch=1 n=33 v=120
471501 Par ch=1 c=64 v=0
471555 Par ch=1 c=64 v=127
471590 On ch=1 n=45 v=0
471590 On ch=1 n=33 v=0
471600 On ch=1 n=62 v=120
471600 On ch=1 n=66 v=120
471600 On ch=1 n=54 v=120
471710 On ch=1 n=62 v=0
471710 On ch=1 n=66 v=0
471710 On ch=1 n=54 v=0
471720 On ch=1 n=62 v=120
471720 On ch=1 n=66 v=120
471720 On ch=1 n=54 v=120
471830 On ch=1 n=62 v=0
471830 On ch=1 n=66 v=0
471830 On ch=1 n=54 v=0
471840 On ch=1 n=50 v=120
471840 On ch=1 n=38 v=120
471864 Par ch=1 c=64 v=0
471918 Par ch=1 c=64 v=127
471950 On ch=1 n=50 v=0
471950 On ch=1 n=38 v=0
471960 On ch=1 n=62 v=120
471960 On ch=1 n=50 v=120
472070 On ch=1 n=62 v=0
472070 On ch=1 n=50 v=0
472080 On ch=1 n=60 v=120
472080 On ch=1 n=48 v=120
472190 On ch=1 n=81 v=0
472190 On ch=1 n=86 v=0
472190 On ch=1 n=90 v=0
472190 On ch=1 n=78 v=0
472190 On ch=1 n=60 v=0
472190 On ch=1 n=48 v=0
472200 On ch=1 n=81 v=120
472200 On ch=1 n=86 v=120
472200 On ch=1 n=90 v=120
472200 On ch=1 n=78 v=120
472200 On ch=1 n=59 v=120
472200 On ch=1 n=47 v=120
472310 On ch=1 n=59 v=0
472310 On ch=1 n=47 v=0
472320 On ch=1 n=57 v=120
472320 On ch=1 n=45 v=120
472430 On ch=1 n=57 v=0
472430 On ch=1 n=45 v=0
472440 On ch=1 n=55 v=120
472440 On ch=1 n=43 v=120
472550 On ch=1 n=81 v=0
472550 On ch=1 n=86 v=0
472550 On ch=1 n=90 v=0
472550 On ch=1 n=78 v=0
472550 On ch=1 n=55 v=0
472550 On ch=1 n=43 v=0
472560 On ch=1 n=83 v=120
472560 On ch=1 n=86 v=120
472560 On ch=1 n=91 v=120
472560 On ch=1 n=79 v=120
472560 On ch=1 n=54 v=120
472560 On ch=1 n=42 v=120
472670 On ch=1 n=54 v=0
472670 On ch=1 n=42 v=0
472680 On ch=1 n=52 v=120
472680 On ch=1 n=40 v=120
472790 On ch=1 n=52 v=0
472790 On ch=1 n=40 v=0
472800 On ch=1 n=50 v=120
472800 On ch=1 n=38 v=120
472864 Par ch=1 c=64 v=0
472910 On ch=1 n=83 v=0
472910 On ch=1 n=86 v=0
472910 On ch=1 n=91 v=0
472910 On ch=1 n=79 v=0
472910 On ch=1 n=50 v=0
472910 On ch=1 n=38 v=0
472920 On ch=1 n=84 v=120
472920 On ch=1 n=86 v=120
472920 On ch=1 n=93 v=120
472920 On ch=1 n=81 v=120
472920 On ch=1 n=48 v=120
472920 On ch=1 n=36 v=120
473030 On ch=1 n=48 v=0
473030 On ch=1 n=36 v=0
473040 On ch=1 n=47 v=120
473040 On ch=1 n=35 v=120
473150 On ch=1 n=47 v=0
473150 On ch=1 n=35 v=0
473160 On ch=1 n=45 v=120
473160 On ch=1 n=33 v=120
473270 On ch=1 n=84 v=0
473270 On ch=1 n=86 v=0
473270 On ch=1 n=93 v=0
473270 On ch=1 n=81 v=0
473270 On ch=1 n=45 v=0
473270 On ch=1 n=33 v=0
473280 On ch=1 n=84 v=120
473280 On ch=1 n=86 v=120
473280 On ch=1 n=93 v=120
473280 On ch=1 n=81 v=120
473280 On ch=1 n=43 v=120
473280 On ch=1 n=31 v=120
473360 Par ch=1 c=64 v=127
473390 On ch=1 n=43 v=0
473390 On ch=1 n=31 v=0
473400 On ch=1 n=45 v=120
473400 On ch=1 n=33 v=120
473510 On ch=1 n=45 v=0
473510 On ch=1 n=33 v=0
473520 On ch=1 n=47 v=120
473520 On ch=1 n=35 v=120
473630 On ch=1 n=84 v=0
473630 On ch=1 n=86 v=0
473630 On ch=1 n=93 v=0
473630 On ch=1 n=81 v=0
473630 On ch=1 n=47 v=0
473630 On ch=1 n=35 v=0
473640 On ch=1 n=83 v=120
473640 On ch=1 n=86 v=120
473640 On ch=1 n=91 v=120
473640 On ch=1 n=79 v=120
473640 On ch=1 n=48 v=120
473640 On ch=1 n=36 v=120
473750 On ch=1 n=48 v=0
473750 On ch=1 n=36 v=0
473760 On ch=1 n=50 v=120
473760 On ch=1 n=38 v=120
473870 On ch=1 n=50 v=0
473870 On ch=1 n=38 v=0
473880 On ch=1 n=52 v=120
473880 On ch=1 n=40 v=120
473990 On ch=1 n=83 v=0
473990 On ch=1 n=86 v=0
473990 On ch=1 n=91 v=0
473990 On ch=1 n=79 v=0
473990 On ch=1 n=52 v=0
473990 On ch=1 n=40 v=0
474000 On ch=1 n=81 v=120
474000 On ch=1 n=86 v=120
474000 On ch=1 n=90 v=120
474000 On ch=1 n=78 v=120
474000 On ch=1 n=54 v=120
474000 On ch=1 n=42 v=120
474019 Par ch=1 c=64 v=0
474110 On ch=1 n=54 v=0
474110 On ch=1 n=42 v=0
474120 On ch=1 n=55 v=120
474120 On ch=1 n=43 v=120
474230 On ch=1 n=55 v=0
474230 On ch=1 n=43 v=0
474240 On ch=1 n=57 v=120
474240 On ch=1 n=45 v=120
474350 On ch=1 n=81 v=0
474350 On ch=1 n=86 v=0
474350 On ch=1 n=90 v=0
474350 On ch=1 n=78 v=0
474350 On ch=1 n=57 v=0
474350 On ch=1 n=45 v=0
474360 On ch=1 n=83 v=120
474360 On ch=1 n=86 v=120
474360 On ch=1 n=91 v=120
474360 On ch=1 n=79 v=120
474360 On ch=1 n=59 v=120
474360 On ch=1 n=47 v=120
474470 On ch=1 n=59 v=0
474470 On ch=1 n=47 v=0
474590 On ch=1 n=83 v=0
474590 On ch=1 n=86 v=0
474590 On ch=1 n=91 v=0
474590 On ch=1 n=79 v=0
474600 On ch=1 n=79 v=120
474600 On ch=1 n=88 v=120
474600 On ch=1 n=76 v=120
474600 On ch=1 n=55 v=120
474600 On ch=1 n=43 v=120
474710 On ch=1 n=79 v=0
474710 On ch=1 n=88 v=0
474710 On ch=1 n=76 v=0
474710 On ch=1 n=55 v=0
474710 On ch=1 n=43 v=0
474720 On ch=1 n=78 v=120
474720 On ch=1 n=86 v=120
474720 On ch=1 n=74 v=120
474720 On ch=1 n=57 v=120
474720 On ch=1 n=45 v=120
474817 Par ch=1 c=64 v=127
474830 On ch=1 n=57 v=0
474830 On ch=1 n=45 v=0
474840 On ch=1 n=67 v=120
474840 On ch=1 n=55 v=120
474950 On ch=1 n=67 v=0
474950 On ch=1 n=55 v=0
474960 On ch=1 n=66 v=120
474960 On ch=1 n=54 v=120
475070 On ch=1 n=78 v=0
475070 On ch=1 n=86 v=0
475070 On ch=1 n=74 v=0
475070 On ch=1 n=66 v=0
475070 On ch=1 n=54 v=0
475080 On ch=1 n=78 v=120
475080 On ch=1 n=86 v=120
475080 On ch=1 n=74 v=120
475080 On ch=1 n=64 v=120
475080 On ch=1 n=52 v=120
475190 On ch=1 n=64 v=0
475190 On ch=1 n=52 v=0
475200 On ch=1 n=62 v=120
475200 On ch=1 n=50 v=120
475310 On ch=1 n=62 v=0
475310 On ch=1 n=50 v=0
475320 On ch=1 n=61 v=120
475320 On ch=1 n=49 v=120
475423 Par ch=1 c=64 v=0
475430 On ch=1 n=78 v=0
475430 On ch=1 n=86 v=0
475430 On ch=1 n=74 v=0
475430 On ch=1 n=61 v=0
475430 On ch=1 n=49 v=0
475440 On ch=1 n=79 v=120
475440 On ch=1 n=86 v=120
475440 On ch=1 n=88 v=120
475440 On ch=1 n=76 v=120
475440 On ch=1 n=59 v=120
475440 On ch=1 n=47 v=120
475478 Par ch=1 c=64 v=127
475550 On ch=1 n=59 v=0
475550 On ch=1 n=47 v=0
475560 On ch=1 n=57 v=120
475560 On ch=1 n=45 v=120
475670 On ch=1 n=57 v=0
475670 On ch=1 n=45 v=0
475680 On ch=1 n=62 v=120
475680 On ch=1 n=50 v=120
475790 On ch=1 n=79 v=0
475790 On ch=1 n=86 v=0
475790 On ch=1 n=88 v=0
475790 On ch=1 n=76 v=0
475790 On ch=1 n=62 v=0
475790 On ch=1 n=50 v=0
475800 On ch=1 n=81 v=120
475800 On ch=1 n=86 v=120
475800 On ch=1 n=90 v=120
475800 On ch=1 n=78 v=120
475800 On ch=1 n=57 v=120
475800 On ch=1 n=45 v=120
475910 On ch=1 n=57 v=0
475910 On ch=1 n=45 v=0
475920 On ch=1 n=54 v=120
475920 On ch=1 n=42 v=120
476030 On ch=1 n=54 v=0
476030 On ch=1 n=42 v=0
476040 On ch=1 n=50 v=120
476040 On ch=1 n=38 v=120
476076 Par ch=1 c=64 v=0
476150 On ch=1 n=81 v=0
476150 On ch=1 n=86 v=0
476150 On ch=1 n=90 v=0
476150 On ch=1 n=78 v=0
476150 On ch=1 n=50 v=0
476150 On ch=1 n=38 v=0
476160 On ch=1 n=79 v=120
476160 On ch=1 n=85 v=120
476160 On ch=1 n=88 v=120
476160 On ch=1 n=76 v=120
476160 On ch=1 n=47 v=120
476160 On ch=1 n=35 v=120
476270 On ch=1 n=47 v=0
476270 On ch=1 n=35 v=0
476280 On ch=1 n=45 v=120
476280 On ch=1 n=33 v=120
476390 On ch=1 n=45 v=0
476390 On ch=1 n=33 v=0
476400 On ch=1 n=44 v=120
476400 On ch=1 n=32 v=120
476510 On ch=1 n=44 v=0
476510 On ch=1 n=32 v=0
476520 On ch=1 n=45 v=120
476520 On ch=1 n=33 v=120
476630 On ch=1 n=45 v=0
476630 On ch=1 n=33 v=0
476750 On ch=1 n=79 v=0
476750 On ch=1 n=85 v=0
476750 On ch=1 n=88 v=0
476750 On ch=1 n=76 v=0
476760 On ch=1 n=45 v=120
476760 On ch=1 n=33 v=120
476870 On ch=1 n=45 v=0
476870 On ch=1 n=33 v=0
476880 On ch=1 n=78 v=120
476880 On ch=1 n=81 v=120
476880 On ch=1 n=86 v=120
476880 On ch=1 n=74 v=120
476880 On ch=1 n=50 v=120
476880 On ch=1 n=38 v=120
476976 Par ch=1 c=64 v=127
476990 On ch=1 n=50 v=0
476990 On ch=1 n=38 v=0
477000 On ch=1 n=50 v=120
477000 On ch=1 n=38 v=120
477110 On ch=1 n=78 v=0
477110 On ch=1 n=81 v=0
477110 On ch=1 n=86 v=0
477110 On ch=1 n=74 v=0
477110 On ch=1 n=50 v=0
477110 On ch=1 n=38 v=0
477120 On ch=1 n=49 v=120
477120 On ch=1 n=37 v=120
477230 On ch=1 n=49 v=0
477230 On ch=1 n=37 v=0
477240 On ch=1 n=78 v=120
477240 On ch=1 n=81 v=120
477240 On ch=1 n=69 v=120
477240 On ch=1 n=50 v=120
477240 On ch=1 n=38 v=120
477350 On ch=1 n=50 v=0
477350 On ch=1 n=38 v=0
477360 On ch=1 n=54 v=120
477360 On ch=1 n=42 v=120
477470 On ch=1 n=78 v=0
477470 On ch=1 n=81 v=0
477470 On ch=1 n=69 v=0
477470 On ch=1 n=54 v=0
477470 On ch=1 n=42 v=0
477480 On ch=1 n=57 v=120
477480 On ch=1 n=45 v=120
477530 Par ch=1 c=64 v=0
477590 On ch=1 n=57 v=0
477590 On ch=1 n=45 v=0
477600 On ch=1 n=76 v=120
477600 On ch=1 n=79 v=120
477600 On ch=1 n=67 v=120
477600 On ch=1 n=62 v=120
477600 On ch=1 n=50 v=120
477644 Par ch=1 c=64 v=127
477710 On ch=1 n=62 v=0
477710 On ch=1 n=50 v=0
477720 On ch=1 n=50 v=120
477720 On ch=1 n=38 v=120
477830 On ch=1 n=76 v=0
477830 On ch=1 n=79 v=0
477830 On ch=1 n=67 v=0
477830 On ch=1 n=50 v=0
477830 On ch=1 n=38 v=0
477840 On ch=1 n=49 v=120
477840 On ch=1 n=37 v=120
477950 On ch=1 n=49 v=0
477950 On ch=1 n=37 v=0
477960 On ch=1 n=50 v=120
477960 On ch=1 n=38 v=120
478070 On ch=1 n=50 v=0
478070 On ch=1 n=38 v=0
478080 On ch=1 n=54 v=120
478080 On ch=1 n=42 v=120
478190 On ch=1 n=54 v=0
478190 On ch=1 n=42 v=0
478200 On ch=1 n=74 v=120
478200 On ch=1 n=78 v=120
478200 On ch=1 n=66 v=120
478200 On ch=1 n=57 v=120
478200 On ch=1 n=45 v=120
478288 Par ch=1 c=64 v=0
478310 On ch=1 n=74 v=0
478310 On ch=1 n=78 v=0
478310 On ch=1 n=66 v=0
478310 On ch=1 n=57 v=0
478310 On ch=1 n=45 v=0
478320 On ch=1 n=74 v=120
478320 On ch=1 n=78 v=120
478320 On ch=1 n=66 v=120
478320 On ch=1 n=60 v=120
478320 On ch=1 n=48 v=120
478430 On ch=1 n=60 v=0
478430 On ch=1 n=48 v=0
478440 On ch=1 n=52 v=120
478440 On ch=1 n=40 v=120
478550 On ch=1 n=74 v=0
478550 On ch=1 n=78 v=0
478550 On ch=1 n=66 v=0
478550 On ch=1 n=52 v=0
478550 On ch=1 n=40 v=0
478560 On ch=1 n=50 v=120
478560 On ch=1 n=38 v=120
478670 On ch=1 n=50 v=0
478670 On ch=1 n=38 v=0
478680 On ch=1 n=74 v=120
478680 On ch=1 n=62 v=120
478680 On ch=1 n=48 v=120
478680 On ch=1 n=36 v=120
478790 On ch=1 n=48 v=0
478790 On ch=1 n=36 v=0
478800 On ch=1 n=47 v=120
478800 On ch=1 n=35 v=120
478910 On ch=1 n=74 v=0
478910 On ch=1 n=62 v=0
478910 On ch=1 n=47 v=0
478910 On ch=1 n=35 v=0
478920 On ch=1 n=45 v=120
478920 On ch=1 n=33 v=120
479030 On ch=1 n=45 v=0
479030 On ch=1 n=33 v=0
479040 On ch=1 n=69 v=120
479040 On ch=1 n=72 v=120
479040 On ch=1 n=74 v=120
479040 On ch=1 n=78 v=120
479040 On ch=1 n=66 v=120
479040 On ch=1 n=43 v=120
479040 On ch=1 n=31 v=120
479119 Par ch=1 c=64 v=127
479150 On ch=1 n=43 v=0
479150 On ch=1 n=31 v=0
479160 On ch=1 n=47 v=120
479160 On ch=1 n=35 v=120
479270 On ch=1 n=69 v=0
479270 On ch=1 n=72 v=0
479270 On ch=1 n=74 v=0
479270 On ch=1 n=78 v=0
479270 On ch=1 n=66 v=0
479270 On ch=1 n=47 v=0
479270 On ch=1 n=35 v=0
479280 On ch=1 n=50 v=120
479280 On ch=1 n=38 v=120
479390 On ch=1 n=50 v=0
479390 On ch=1 n=38 v=0
479400 On ch=1 n=55 v=120
479400 On ch=1 n=43 v=120
479510 On ch=1 n=55 v=0
479510 On ch=1 n=43 v=0
479520 On ch=1 n=59 v=120
479520 On ch=1 n=47 v=120
479630 On ch=1 n=59 v=0
479630 On ch=1 n=47 v=0
479640 On ch=1 n=71 v=120
479640 On ch=1 n=74 v=120
479640 On ch=1 n=79 v=120
479640 On ch=1 n=67 v=120
479640 On ch=1 n=62 v=120
479640 On ch=1 n=50 v=120
479750 On ch=1 n=71 v=0
479750 On ch=1 n=74 v=0
479750 On ch=1 n=79 v=0
479750 On ch=1 n=67 v=0
479750 On ch=1 n=62 v=0
479750 On ch=1 n=50 v=0
479760 On ch=1 n=71 v=120
479760 On ch=1 n=74 v=120
479760 On ch=1 n=79 v=120
479760 On ch=1 n=67 v=120
479760 On ch=1 n=59 v=120
479760 On ch=1 n=62 v=120
479760 On ch=1 n=55 v=120
479971 Par ch=1 c=64 v=0
479990 On ch=1 n=71 v=0
479990 On ch=1 n=74 v=0
479990 On ch=1 n=79 v=0
479990 On ch=1 n=67 v=0
479990 On ch=1 n=59 v=0
479990 On ch=1 n=62 v=0
479990 On ch=1 n=55 v=0
480480 Tempo 416666
480480 TimeSig 2/4 24 8
480480 On ch=1 n=55 v=127
480480 On ch=1 n=43 v=127
480960 TimeSig 6/4 24 8
480960 On ch=1 n=31 v=127
481910 On ch=1 n=55 v=0
481910 On ch=1 n=43 v=0
481910 On ch=1 n=31 v=0
481920 On ch=1 n=55 v=127
481920 On ch=1 n=43 v=127
481920 On ch=1 n=31 v=127
482320 On ch=1 n=55 v=0
482320 On ch=1 n=43 v=0
482320 On ch=1 n=31 v=0
482400 On ch=1 n=54 v=127
482400 On ch=1 n=42 v=127
482400 On ch=1 n=30 v=127
482800 On ch=1 n=54 v=0
482800 On ch=1 n=42 v=0
482800 On ch=1 n=30 v=0
482880 On ch=1 n=50 v=127
482880 On ch=1 n=38 v=127
482880 On ch=1 n=26 v=127
483280 On ch=1 n=50 v=0
483280 On ch=1 n=38 v=0
483280 On ch=1 n=26 v=0
483360 On ch=1 n=64 v=127
483360 On ch=1 n=52 v=127
483360 On ch=1 n=40 v=127
483664 Par ch=1 c=64 v=127
484790 On ch=1 n=64 v=0
484790 On ch=1 n=52 v=0
484790 On ch=1 n=40 v=0
484800 On ch=1 n=64 v=127
484800 On ch=1 n=52 v=127
484800 On ch=1 n=40 v=127
485099 Par ch=1 c=64 v=0
485150 On ch=1 n=64 v=0
485150 On ch=1 n=52 v=0
485150 On ch=1 n=40 v=0
485280 On ch=1 n=62 v=127
485280 On ch=1 n=50 v=127
485280 On ch=1 n=38 v=127
485630 On ch=1 n=62 v=0
485630 On ch=1 n=50 v=0
485630 On ch=1 n=38 v=0
485760 On ch=1 n=59 v=127
485760 On ch=1 n=47 v=127
485760 On ch=1 n=35 v=127
486110 On ch=1 n=59 v=0
486110 On ch=1 n=47 v=0
486110 On ch=1 n=35 v=0
486240 On ch=1 n=60 v=127
486240 On ch=1 n=48 v=127
486240 On ch=1 n=36 v=127
486481 Par ch=1 c=64 v=127
486720 On ch=1 n=24 v=127
487670 On ch=1 n=60 v=0
487670 On ch=1 n=48 v=0
487670 On ch=1 n=36 v=0
487670 On ch=1 n=24 v=0
487680 On ch=1 n=60 v=127
487680 On ch=1 n=48 v=127
487680 On ch=1 n=36 v=127
487864 Par ch=1 c=64 v=0
488030 On ch=1 n=60 v=0
488030 On ch=1 n=48 v=0
488030 On ch=1 n=36 v=0
488160 On ch=1 n=59 v=127
488160 On ch=1 n=47 v=127
488160 On ch=1 n=35 v=127
488510 On ch=1 n=59 v=0
488510 On ch=1 n=47 v=0
488510 On ch=1 n=35 v=0
488640 On ch=1 n=55 v=127
488640 On ch=1 n=43 v=127
488640 On ch=1 n=31 v=127
489590 On ch=1 n=55 v=0
489590 On ch=1 n=43 v=0
489590 On ch=1 n=31 v=0
489600 On ch=1 n=64 v=127
489600 On ch=1 n=52 v=127
489600 On ch=1 n=40 v=127
489790 Par ch=1 c=64 v=127
490550 On ch=1 n=64 v=0
490550 On ch=1 n=52 v=0
490550 On ch=1 n=40 v=0
490560 On ch=1 n=64 v=127
490560 On ch=1 n=52 v=127
490560 On ch=1 n=40 v=127
490991 Par ch=1 c=64 v=0
491030 On ch=1 n=64 v=0
491030 On ch=1 n=52 v=0
491030 On ch=1 n=40 v=0
491040 On ch=1 n=62 v=127
491040 On ch=1 n=50 v=127
491040 On ch=1 n=38 v=127
491162 Par ch=1 c=64 v=127
491990 On ch=1 n=62 v=0
491990 On ch=1 n=50 v=0
491990 On ch=1 n=38 v=0
492000 On ch=1 n=79 v=127
492000 On ch=1 n=71 v=127
492000 On ch=1 n=67 v=127
492000 On ch=1 n=59 v=127
492230 On ch=1 n=79 v=0
492240 On ch=1 n=74 v=127
492240 On ch=1 n=83 v=127
492350 On ch=1 n=74 v=0
492350 On ch=1 n=71 v=0
492350 On ch=1 n=83 v=0
492360 On ch=1 n=72 v=127
492360 On ch=1 n=81 v=127
492360 On ch=1 n=69 v=127
492398 Par ch=1 c=64 v=0
492470 On ch=1 n=67 v=0
492470 On ch=1 n=59 v=0
492480 On ch=1 n=47 v=127
492480 On ch=1 n=55 v=127
492480 On ch=1 n=43 v=127
492483 Par ch=1 c=64 v=127
492710 On ch=1 n=72 v=0
492710 On ch=1 n=81 v=0
492710 On ch=1 n=69 v=0
492720 On ch=1 n=71 v=127
492720 On ch=1 n=79 v=127
492720 On ch=1 n=67 v=127
492830 On ch=1 n=71 v=0
492830 On ch=1 n=79 v=0
492830 On ch=1 n=67 v=0
492840 On ch=1 n=69 v=127
492840 On ch=1 n=78 v=127
492840 On ch=1 n=66 v=127
492950 Par ch=1 c=64 v=0
492950 On ch=1 n=69 v=0
492950 On ch=1 n=78 v=0
492950 On ch=1 n=47 v=0
492950 On ch=1 n=55 v=0
492950 On ch=1 n=66 v=0
492950 On ch=1 n=43 v=0
492960 On ch=1 n=71 v=127
492960 On ch=1 n=79 v=127
492960 On ch=1 n=67 v=127
492960 On ch=1 n=43 v=127
492960 On ch=1 n=31 v=127
493190 On ch=1 n=71 v=0
493190 On ch=1 n=79 v=0
493190 On ch=1 n=67 v=0
493190 On ch=1 n=43 v=0
493190 On ch=1 n=31 v=0
493200 On ch=1 n=69 v=127
493200 On ch=1 n=60 v=127
493200 On ch=1 n=62 v=127
493200 On ch=1 n=43 v=127
493200 On ch=1 n=31 v=127
493310 On ch=1 n=69 v=0
493310 On ch=1 n=60 v=0
493310 On ch=1 n=43 v=0
493310 On ch=1 n=31 v=0
493320 On ch=1 n=67 v=127
493320 On ch=1 n=59 v=127
493320 On ch=1 n=45 v=127
493320 On ch=1 n=33 v=127
493430 On ch=1 n=45 v=0
493430 On ch=1 n=33 v=0
493440 On ch=1 n=47 v=127
493440 On ch=1 n=35 v=127
493575 Par ch=1 c=64 v=127
493670 On ch=1 n=67 v=0
493670 On ch=1 n=59 v=0
493670 On ch=1 n=62 v=0
493670 On ch=1 n=47 v=0
493670 On ch=1 n=35 v=0
493680 On ch=1 n=72 v=127
493680 On ch=1 n=81 v=127
493680 On ch=1 n=69 v=127
493680 On ch=1 n=47 v=127
493680 On ch=1 n=35 v=127
493790 On ch=1 n=72 v=0
493790 On ch=1 n=81 v=0
493790 On ch=1 n=69 v=0
493790 On ch=1 n=47 v=0
493790 On ch=1 n=35 v=0
493800 On ch=1 n=71 v=127
493800 On ch=1 n=79 v=127
493800 On ch=1 n=67 v=127
493800 On ch=1 n=48 v=127
493800 On ch=1 n=36 v=127
493847 Par ch=1 c=64 v=0
493910 On ch=1 n=48 v=0
493910 On ch=1 n=36 v=0
493920 On ch=1 n=50 v=127
493920 On ch=1 n=38 v=127
494007 Par ch=1 c=64 v=127
494030 On ch=1 n=71 v=0
494030 On ch=1 n=79 v=0
494030 On ch=1 n=67 v=0
494040 On ch=1 n=69 v=127
494040 On ch=1 n=78 v=127
494040 On ch=1 n=66 v=127
494150 On ch=1 n=69 v=0
494150 On ch=1 n=78 v=0
494150 On ch=1 n=66 v=0
494150 On ch=1 n=50 v=0
494150 On ch=1 n=38 v=0
494160 On ch=1 n=69 v=127
494160 On ch=1 n=78 v=127
494160 On ch=1 n=66 v=127
494160 On ch=1 n=62 v=127
494160 On ch=1 n=50 v=127
494270 On ch=1 n=69 v=0
494270 On ch=1 n=78 v=0
494270 On ch=1 n=66 v=0
494270 On ch=1 n=62 v=0
494270 On ch=1 n=50 v=0
494280 On ch=1 n=76 v=127
494280 On ch=1 n=67 v=127
494280 On ch=1 n=64 v=127
494280 On ch=1 n=52 v=127
494385 Par ch=1 c=64 v=0
494390 On ch=1 n=76 v=0
494390 On ch=1 n=67 v=0
494390 On ch=1 n=64 v=0
494390 On ch=1 n=52 v=0
494400 On ch=1 n=76 v=127
494400 On ch=1 n=67 v=127
494400 On ch=1 n=62 v=127
494400 On ch=1 n=50 v=127
494471 Par ch=1 c=64 v=127
494510 On ch=1 n=76 v=0
494510 On ch=1 n=67 v=0
494520 On ch=1 n=74 v=127
494520 On ch=1 n=66 v=127
494630 On ch=1 n=74 v=0
494630 On ch=1 n=66 v=0
494630 On ch=1 n=62 v=0
494630 On ch=1 n=50 v=0
494640 On ch=1 n=74 v=127
494640 On ch=1 n=66 v=127
494640 On ch=1 n=62 v=127
494640 On ch=1 n=50 v=127
494750 On ch=1 n=74 v=0
494750 On ch=1 n=66 v=0
494750 On ch=1 n=62 v=0
494750 On ch=1 n=50 v=0
494760 On ch=1 n=78 v=127
494760 On ch=1 n=86 v=127
494760 On ch=1 n=74 v=127
494760 On ch=1 n=50 v=127
494760 On ch=1 n=38 v=127
494856 Par ch=1 c=64 v=0
494870 On ch=1 n=78 v=0
494870 On ch=1 n=86 v=0
494870 On ch=1 n=74 v=0
494880 On ch=1 n=76 v=127
494880 On ch=1 n=67 v=127
494922 Par ch=1 c=64 v=127
494990 On ch=1 n=76 v=0
494990 On ch=1 n=67 v=0
495000 On ch=1 n=79 v=127
495000 On ch=1 n=88 v=127
495000 On ch=1 n=76 v=127
495110 On ch=1 n=79 v=0
495110 On ch=1 n=88 v=0
495110 On ch=1 n=76 v=0
495110 On ch=1 n=50 v=0
495110 On ch=1 n=38 v=0
495120 On ch=1 n=79 v=127
495120 On ch=1 n=88 v=127
495120 On ch=1 n=76 v=127
495120 On ch=1 n=50 v=127
495120 On ch=1 n=38 v=127
495230 On ch=1 n=50 v=0
495230 On ch=1 n=38 v=0
495240 On ch=1 n=52 v=127
495240 On ch=1 n=40 v=127
495350 On ch=1 n=52 v=0
495350 On ch=1 n=40 v=0
495360 On ch=1 n=50 v=127
495360 On ch=1 n=38 v=127
495381 Par ch=1 c=64 v=0
495590 On ch=1 n=79 v=0
495590 On ch=1 n=88 v=0
495590 On ch=1 n=76 v=0
495590 On ch=1 n=50 v=0
495590 On ch=1 n=38 v=0
495600 On ch=1 n=79 v=127
495600 On ch=1 n=67 v=127
495600 On ch=1 n=76 v=127
495600 On ch=1 n=50 v=127
495600 On ch=1 n=38 v=127
495710 On ch=1 n=76 v=0
495710 On ch=1 n=50 v=0
495710 On ch=1 n=38 v=0
495720 On ch=1 n=74 v=127
495720 On ch=1 n=52 v=127
495720 On ch=1 n=40 v=127
495830 On ch=1 n=74 v=0
495830 On ch=1 n=52 v=0
495830 On ch=1 n=40 v=0
495840 On ch=1 n=76 v=127
495840 On ch=1 n=48 v=127
495840 On ch=1 n=36 v=127
495910 Par ch=1 c=64 v=127
496070 On ch=1 n=79 v=0
496070 On ch=1 n=67 v=0
496070 On ch=1 n=76 v=0
496070 On ch=1 n=48 v=0
496070 On ch=1 n=36 v=0
496080 On ch=1 n=79 v=127
496080 On ch=1 n=88 v=127
496080 On ch=1 n=76 v=127
496080 On ch=1 n=60 v=127
496080 On ch=1 n=48 v=127
496190 On ch=1 n=88 v=0
496190 On ch=1 n=76 v=0
496190 On ch=1 n=60 v=0
496190 On ch=1 n=48 v=0
496200 On ch=1 n=86 v=127
496200 On ch=1 n=74 v=127
496200 On ch=1 n=59 v=127
496200 On ch=1 n=47 v=127
496310 On ch=1 n=86 v=0
496310 On ch=1 n=74 v=0
496310 On ch=1 n=59 v=0
496310 On ch=1 n=47 v=0
496320 On ch=1 n=88 v=127
496320 On ch=1 n=76 v=127
496320 On ch=1 n=60 v=127
496320 On ch=1 n=48 v=127
496550 On ch=1 n=79 v=0
496550 On ch=1 n=88 v=0
496550 On ch=1 n=76 v=0
496550 On ch=1 n=60 v=0
496550 On ch=1 n=48 v=0
496560 On ch=1 n=76 v=127
496560 On ch=1 n=79 v=127
496560 On ch=1 n=67 v=127
496560 On ch=1 n=62 v=127
496560 On ch=1 n=50 v=127
496670 On ch=1 n=62 v=0
496670 On ch=1 n=50 v=0
496680 On ch=1 n=60 v=127
496680 On ch=1 n=48 v=127
496728 Par ch=1 c=64 v=0
497030 On ch=1 n=76 v=0
497030 On ch=1 n=79 v=0
497030 On ch=1 n=67 v=0
497030 On ch=1 n=60 v=0
497030 On ch=1 n=48 v=0
497040 On ch=1 n=74 v=127
497040 On ch=1 n=79 v=127
497040 On ch=1 n=67 v=127
497040 On ch=1 n=59 v=127
497040 On ch=1 n=47 v=127
497150 On ch=1 n=74 v=0
497150 On ch=1 n=79 v=0
497150 On ch=1 n=67 v=0
497150 On ch=1 n=59 v=0
497150 On ch=1 n=47 v=0
497160 On ch=1 n=72 v=127
497160 On ch=1 n=81 v=127
497160 On ch=1 n=69 v=127
497160 On ch=1 n=57 v=127
497160 On ch=1 n=45 v=127
497270 On ch=1 n=72 v=0
497270 On ch=1 n=81 v=0
497270 On ch=1 n=69 v=0
497270 On ch=1 n=57 v=0
497270 On ch=1 n=45 v=0
497280 On ch=1 n=83 v=127
497280 On ch=1 n=71 v=127
497280 On ch=1 n=55 v=127
497280 On ch=1 n=43 v=127
497510 On ch=1 n=83 v=0
497510 On ch=1 n=71 v=0
497510 On ch=1 n=55 v=0
497510 On ch=1 n=43 v=0
497520 On ch=1 n=74 v=127
497520 On ch=1 n=83 v=127
497520 On ch=1 n=71 v=127
497520 On ch=1 n=55 v=127
497520 On ch=1 n=43 v=127
497630 On ch=1 n=74 v=0
497630 On ch=1 n=83 v=0
497630 On ch=1 n=71 v=0
497630 On ch=1 n=55 v=0
497630 On ch=1 n=43 v=0
497640 On ch=1 n=72 v=127
497640 On ch=1 n=81 v=127
497640 On ch=1 n=69 v=127
497640 On ch=1 n=57 v=127
497640 On ch=1 n=45 v=127
497750 On ch=1 n=72 v=0
497750 On ch=1 n=81 v=0
497750 On ch=1 n=69 v=0
497750 On ch=1 n=57 v=0
497750 On ch=1 n=45 v=0
497760 On ch=1 n=74 v=127
497760 On ch=1 n=83 v=127
497760 On ch=1 n=71 v=127
497760 On ch=1 n=55 v=127
497760 On ch=1 n=43 v=127
497990 On ch=1 n=74 v=0
497990 On ch=1 n=83 v=0
497990 On ch=1 n=71 v=0
497990 On ch=1 n=55 v=0
497990 On ch=1 n=43 v=0
498000 On ch=1 n=72 v=127
498000 On ch=1 n=64 v=127
498000 On ch=1 n=43 v=127
498000 On ch=1 n=31 v=127
498110 On ch=1 n=72 v=0
498110 On ch=1 n=64 v=0
498110 On ch=1 n=43 v=0
498110 On ch=1 n=31 v=0
498120 On ch=1 n=71 v=127
498120 On ch=1 n=62 v=127
498120 On ch=1 n=55 v=127
498120 On ch=1 n=43 v=127
498230 On ch=1 n=62 v=0
498230 On ch=1 n=55 v=0
498230 On ch=1 n=43 v=0
498240 On ch=1 n=64 v=127
498240 On ch=1 n=72 v=127
498240 On ch=1 n=60 v=127
498240 On ch=1 n=57 v=127
498240 On ch=1 n=45 v=127
498470 On ch=1 n=71 v=0
498470 On ch=1 n=64 v=0
498470 On ch=1 n=72 v=0
498470 On ch=1 n=60 v=0
498470 On ch=1 n=57 v=0
498470 On ch=1 n=45 v=0
498480 On ch=1 n=76 v=127
498480 On ch=1 n=84 v=127
498480 On ch=1 n=72 v=127
498480 On ch=1 n=57 v=127
498480 On ch=1 n=45 v=127
498552 Par ch=1 c=64 v=127
498590 On ch=1 n=76 v=0
498590 On ch=1 n=84 v=0
498590 On ch=1 n=72 v=0
498590 On ch=1 n=57 v=0
498590 On ch=1 n=45 v=0
498600 On ch=1 n=74 v=127
498600 On ch=1 n=83 v=127
498600 On ch=1 n=71 v=127
498600 On ch=1 n=59 v=127
498600 On ch=1 n=47 v=127
498690 Par ch=1 c=64 v=0
498710 On ch=1 n=74 v=0
498710 On ch=1 n=83 v=0
498710 On ch=1 n=71 v=0
498710 On ch=1 n=59 v=0
498710 On ch=1 n=47 v=0
498720 On ch=1 n=76 v=127
498720 On ch=1 n=84 v=127
498720 On ch=1 n=72 v=127
498720 On ch=1 n=57 v=127
498720 On ch=1 n=45 v=127
498950 On ch=1 n=76 v=0
498950 On ch=1 n=84 v=0
498950 On ch=1 n=72 v=0
498950 On ch=1 n=57 v=0
498950 On ch=1 n=45 v=0
498960 On ch=1 n=72 v=127
498960 On ch=1 n=64 v=127
498960 On ch=1 n=45 v=127
498960 On ch=1 n=33 v=127
499070 On ch=1 n=72 v=0
499070 On ch=1 n=64 v=0
499070 On ch=1 n=45 v=0
499070 On ch=1 n=33 v=0
499080 On ch=1 n=71 v=127
499080 On ch=1 n=62 v=127
499080 On ch=1 n=47 v=127
499080 On ch=1 n=35 v=127
499190 On ch=1 n=71 v=0
499190 On ch=1 n=62 v=0
499190 On ch=1 n=47 v=0
499190 On ch=1 n=35 v=0
499200 On ch=1 n=72 v=127
499200 On ch=1 n=60 v=127
499200 On ch=1 n=45 v=127
499200 On ch=1 n=33 v=127
499430 On ch=1 n=72 v=0
499430 On ch=1 n=60 v=0
499430 On ch=1 n=45 v=0
499430 On ch=1 n=33 v=0
499440 On ch=1 n=74 v=127
499440 On ch=1 n=69 v=127
499440 On ch=1 n=64 v=127
499440 On ch=1 n=59 v=127
499440 On ch=1 n=47 v=127
499550 On ch=1 n=74 v=0
499550 On ch=1 n=59 v=0
499550 On ch=1 n=47 v=0
499560 On ch=1 n=72 v=127
499560 On ch=1 n=57 v=127
499560 On ch=1 n=45 v=127
499670 On ch=1 n=69 v=0
499670 On ch=1 n=64 v=0
499670 On ch=1 n=57 v=0
499670 On ch=1 n=45 v=0
499680 On ch=1 n=66 v=127
499680 On ch=1 n=63 v=127
499680 On ch=1 n=59 v=127
499680 On ch=1 n=47 v=127
499791 Par ch=1 c=64 v=127
499910 On ch=1 n=72 v=0
499910 On ch=1 n=66 v=0
499910 On ch=1 n=63 v=0
499910 On ch=1 n=59 v=0
499910 On ch=1 n=47 v=0
499920 On ch=1 n=71 v=127
499920 On ch=1 n=63 v=127
499920 On ch=1 n=60 v=127
499920 On ch=1 n=48 v=127
500030 On ch=1 n=71 v=0
500030 On ch=1 n=63 v=0
500030 On ch=1 n=60 v=0
500030 On ch=1 n=48 v=0
500040 On ch=1 n=75 v=127
500040 On ch=1 n=83 v=127
500040 On ch=1 n=71 v=127
500040 On ch=1 n=59 v=127
500040 On ch=1 n=47 v=127
500134 Par ch=1 c=64 v=0
500150 On ch=1 n=75 v=0
500150 On ch=1 n=83 v=0
500150 On ch=1 n=71 v=0
500150 On ch=1 n=59 v=0
500150 On ch=1 n=47 v=0
500160 On ch=1 n=76 v=127
500160 On ch=1 n=79 v=127
500160 On ch=1 n=67 v=127
500160 On ch=1 n=60 v=127
500160 On ch=1 n=48 v=127
500230 Par ch=1 c=64 v=127
500390 On ch=1 n=76 v=0
500390 On ch=1 n=79 v=0
500390 On ch=1 n=67 v=0
500390 On ch=1 n=60 v=0
500390 On ch=1 n=48 v=0
500400 On ch=1 n=76 v=127
500400 On ch=1 n=67 v=127
500400 On ch=1 n=48 v=127
500400 On ch=1 n=36 v=127
500510 On ch=1 n=76 v=0
500510 On ch=1 n=48 v=0
500510 On ch=1 n=36 v=0
500520 On ch=1 n=79 v=127
500520 On ch=1 n=76 v=127
500520 On ch=1 n=47 v=127
500520 On ch=1 n=35 v=127
500630 On ch=1 n=47 v=0
500630 On ch=1 n=35 v=0
500640 On ch=1 n=48 v=127
500640 On ch=1 n=36 v=127
500870 On ch=1 n=79 v=0
500870 On ch=1 n=67 v=0
500870 On ch=1 n=76 v=0
500870 On ch=1 n=48 v=0
500870 On ch=1 n=36 v=0
500880 On ch=1 n=76 v=127
500880 On ch=1 n=67 v=127
500880 On ch=1 n=60 v=127
500880 On ch=1 n=48 v=127
500990 On ch=1 n=76 v=0
500990 On ch=1 n=67 v=0
500990 On ch=1 n=60 v=0
500990 On ch=1 n=48 v=0
501000 On ch=1 n=79 v=127
501000 On ch=1 n=88 v=127
501000 On ch=1 n=76 v=127
501000 On ch=1 n=59 v=127
501000 On ch=1 n=47 v=127
501110 On ch=1 n=59 v=0
501110 On ch=1 n=47 v=0
501120 On ch=1 n=60 v=127
501120 On ch=1 n=48 v=127
501249 Par ch=1 c=64 v=0
501350 On ch=1 n=79 v=0
501350 On ch=1 n=88 v=0
501350 On ch=1 n=76 v=0
501350 On ch=1 n=60 v=0
501350 On ch=1 n=48 v=0
501360 On ch=1 n=76 v=127
501360 On ch=1 n=67 v=127
501360 On ch=1 n=48 v=127
501360 On ch=1 n=36 v=127
501470 On ch=1 n=76 v=0
501470 On ch=1 n=67 v=0
501470 On ch=1 n=48 v=0
501470 On ch=1 n=36 v=0
501480 On ch=1 n=79 v=127
501480 On ch=1 n=88 v=127
501480 On ch=1 n=76 v=127
501480 On ch=1 n=47 v=127
501480 On ch=1 n=35 v=127
501590 On ch=1 n=47 v=0
501590 On ch=1 n=35 v=0
501600 On ch=1 n=48 v=127
501600 On ch=1 n=36 v=127
501830 On ch=1 n=79 v=0
501830 On ch=1 n=88 v=0
501830 On ch=1 n=76 v=0
501830 On ch=1 n=48 v=0
501830 On ch=1 n=36 v=0
501840 On ch=1 n=76 v=127
501840 On ch=1 n=64 v=127
501840 On ch=1 n=67 v=127
501840 On ch=1 n=60 v=127
501840 On ch=1 n=48 v=127
501950 On ch=1 n=76 v=0
501950 On ch=1 n=64 v=0
501950 On ch=1 n=60 v=0
501950 On ch=1 n=48 v=0
501960 On ch=1 n=74 v=127
501960 On ch=1 n=62 v=127
501960 On ch=1 n=59 v=127
501960 On ch=1 n=47 v=127
502070 On ch=1 n=74 v=0
502070 On ch=1 n=62 v=0
502070 On ch=1 n=67 v=0
502070 On ch=1 n=59 v=0
502070 On ch=1 n=47 v=0
502080 On ch=1 n=67 v=127
502080 On ch=1 n=76 v=127
502080 On ch=1 n=64 v=127
502080 On ch=1 n=60 v=127
502080 On ch=1 n=48 v=127
502310 On ch=1 n=67 v=0
502310 On ch=1 n=76 v=0
502310 On ch=1 n=64 v=0
502310 On ch=1 n=60 v=0
502310 On ch=1 n=48 v=0
502320 On ch=1 n=78 v=127
502320 On ch=1 n=69 v=127
502320 On ch=1 n=48 v=127
502320 On ch=1 n=36 v=127
502430 On ch=1 n=78 v=0
502430 On ch=1 n=69 v=0
502430 On ch=1 n=48 v=0
502430 On ch=1 n=36 v=0
502440 On ch=1 n=76 v=127
502440 On ch=1 n=67 v=127
502440 On ch=1 n=60 v=127
502440 On ch=1 n=48 v=127
502550 On ch=1 n=76 v=0
502550 On ch=1 n=67 v=0
502550 On ch=1 n=60 v=0
502550 On ch=1 n=48 v=0
502560 On ch=1 n=69 v=127
502560 On ch=1 n=74 v=127
502560 On ch=1 n=66 v=127
502560 On ch=1 n=54 v=127
502560 On ch=1 n=57 v=127
502560 On ch=1 n=62 v=127
502560 On ch=1 n=50 v=127
502663 Par ch=1 c=64 v=127
503608 Par ch=1 c=64 v=0
503990 On ch=1 n=66 v=0
503990 On ch=1 n=69 v=0
503990 On ch=1 n=74 v=0
503990 On ch=1 n=50 v=0
503990 On ch=1 n=54 v=0
503990 On ch=1 n=57 v=0
503990 On ch=1 n=62 v=0
504000 On ch=1 n=60 v=127
504000 On ch=1 n=48 v=127
504470 On ch=1 n=60 v=0
504470 On ch=1 n=48 v=0
504480 On ch=1 n=62 v=127
504480 On ch=1 n=50 v=127
505190 On ch=1 n=62 v=0
505190 On ch=1 n=50 v=0
505200 On ch=1 n=60 v=127
505200 On ch=1 n=48 v=127
505430 On ch=1 n=60 v=0
505430 On ch=1 n=48 v=0
505920 On ch=1 n=65 v=127
505920 On ch=1 n=53 v=127
506074 Par ch=1 c=64 v=127
506630 On ch=1 n=65 v=0
506630 On ch=1 n=53 v=0
506640 On ch=1 n=65 v=127
506640 On ch=1 n=53 v=127
506870 On ch=1 n=65 v=0
506870 On ch=1 n=53 v=0
506880 On ch=1 n=65 v=127
506880 On ch=1 n=53 v=127
507830 On ch=1 n=65 v=0
507830 On ch=1 n=53 v=0
507840 On ch=1 n=65 v=127
507840 On ch=1 n=53 v=127
508310 On ch=1 n=65 v=0
508310 On ch=1 n=53 v=0
508320 On ch=1 n=65 v=127
508320 On ch=1 n=53 v=127
509173 Par ch=1 c=64 v=0
509270 On ch=1 n=65 v=0
509270 On ch=1 n=53 v=0
509280 On ch=1 n=62 v=127
509280 On ch=1 n=50 v=127
509760 On ch=1 n=62 v=127
510710 On ch=1 n=50 v=0
510710 On ch=1 n=62 v=0
510720 On ch=1 n=60 v=127
510720 On ch=1 n=48 v=127
511190 On ch=1 n=60 v=0
511190 On ch=1 n=48 v=0
511200 On ch=1 n=60 v=127
511200 On ch=1 n=48 v=127
511670 On ch=1 n=60 v=0
511670 On ch=1 n=48 v=0
511680 On ch=1 n=57 v=127
511680 On ch=1 n=45 v=127
512150 On ch=1 n=57 v=0
512150 On ch=1 n=45 v=0
512160 On ch=1 n=55 v=127
512160 On ch=1 n=43 v=127
512630 On ch=1 n=55 v=0
512630 On ch=1 n=43 v=0
512640 On ch=1 n=65 v=127
512640 On ch=1 n=53 v=127
513590 On ch=1 n=65 v=0
513590 On ch=1 n=53 v=0
513600 On ch=1 n=64 v=127
513600 On ch=1 n=52 v=127
514070 On ch=1 n=64 v=0
514070 On ch=1 n=52 v=0
514080 On ch=1 n=64 v=127
514080 On ch=1 n=52 v=127
514430 On ch=1 n=64 v=0
514430 On ch=1 n=52 v=0
514560 On ch=1 n=62 v=127
514560 On ch=1 n=50 v=127
514910 On ch=1 n=62 v=0
514910 On ch=1 n=50 v=0
515040 On ch=1 n=69 v=127
515040 On ch=1 n=72 v=127
515040 On ch=1 n=60 v=127
515040 On ch=1 n=53 v=127
515040 On ch=1 n=41 v=127
515208 Par ch=1 c=64 v=127
515270 On ch=1 n=69 v=0
515270 On ch=1 n=72 v=0
515270 On ch=1 n=60 v=0
515280 On ch=1 n=65 v=127
515390 On ch=1 n=65 v=0
515400 On ch=1 n=69 v=127
515400 On ch=1 n=72 v=127
515400 On ch=1 n=60 v=127
515510 On ch=1 n=53 v=0
515510 On ch=1 n=41 v=0
515520 On ch=1 n=53 v=127
515520 On ch=1 n=41 v=127
515750 On ch=1 n=69 v=0
515750 On ch=1 n=72 v=0
515750 On ch=1 n=60 v=0
515750 On ch=1 n=53 v=0
515750 On ch=1 n=41 v=0
515760 On ch=1 n=65 v=127
515760 On ch=1 n=55 v=127
515760 On ch=1 n=43 v=127
515870 On ch=1 n=65 v=0
515870 On ch=1 n=55 v=0
515870 On ch=1 n=43 v=0
515880 On ch=1 n=69 v=127
515880 On ch=1 n=72 v=127
515880 On ch=1 n=60 v=127
515880 On ch=1 n=53 v=127
515880 On ch=1 n=41 v=127
515990 On ch=1 n=69 v=0
515990 On ch=1 n=72 v=0
515990 On ch=1 n=60 v=0
516000 On ch=1 n=70 v=127
516000 On ch=1 n=74 v=127
516000 On ch=1 n=62 v=127
516105 Par ch=1 c=64 v=0
516224 Par ch=1 c=64 v=127
516230 On ch=1 n=70 v=0
516230 On ch=1 n=74 v=0
516230 On ch=1 n=62 v=0
516230 On ch=1 n=53 v=0
516230 On ch=1 n=41 v=0
516240 On ch=1 n=65 v=127
516240 On ch=1 n=55 v=127
516240 On ch=1 n=43 v=127
516350 On ch=1 n=65 v=0
516350 On ch=1 n=55 v=0
516350 On ch=1 n=43 v=0
516360 On ch=1 n=70 v=127
516360 On ch=1 n=74 v=127
516360 On ch=1 n=62 v=127
516360 On ch=1 n=53 v=127
516360 On ch=1 n=41 v=127
516710 On ch=1 n=70 v=0
516710 On ch=1 n=74 v=0
516710 On ch=1 n=62 v=0
516710 On ch=1 n=53 v=0
516710 On ch=1 n=41 v=0
516720 On ch=1 n=65 v=127
516720 On ch=1 n=55 v=127
516720 On ch=1 n=43 v=127
516830 On ch=1 n=65 v=0
516830 On ch=1 n=55 v=0
516830 On ch=1 n=43 v=0
516840 On ch=1 n=69 v=127
516840 On ch=1 n=72 v=127
516840 On ch=1 n=60 v=127
516840 On ch=1 n=53 v=127
516840 On ch=1 n=41 v=127
516950 On ch=1 n=69 v=0
516950 On ch=1 n=60 v=0
516950 On ch=1 n=53 v=0
516950 On ch=1 n=41 v=0
516960 On ch=1 n=65 v=127
516960 On ch=1 n=57 v=127
516960 On ch=1 n=45 v=127
516960 Par ch=1 c=64 v=0
517145 Par ch=1 c=64 v=127
517190 On ch=1 n=65 v=0
517190 On ch=1 n=72 v=0
517190 On ch=1 n=57 v=0
517190 On ch=1 n=45 v=0
517200 On ch=1 n=65 v=127
517200 On ch=1 n=60 v=127
517200 On ch=1 n=58 v=127
517200 On ch=1 n=46 v=127
517310 On ch=1 n=65 v=0
517310 On ch=1 n=60 v=0
517310 On ch=1 n=58 v=0
517310 On ch=1 n=46 v=0
517320 On ch=1 n=72 v=127
517320 On ch=1 n=65 v=127
517320 On ch=1 n=57 v=127
517320 On ch=1 n=45 v=127
517430 On ch=1 n=72 v=0
517430 On ch=1 n=57 v=0
517430 On ch=1 n=45 v=0
517440 On ch=1 n=74 v=127
517440 On ch=1 n=58 v=127
517440 On ch=1 n=46 v=127
517481 Par ch=1 c=64 v=0
517588 Par ch=1 c=64 v=127
517670 On ch=1 n=74 v=0
517670 On ch=1 n=65 v=0
517670 On ch=1 n=58 v=0
517670 On ch=1 n=46 v=0
517680 On ch=1 n=74 v=127
517680 On ch=1 n=65 v=127
517680 On ch=1 n=60 v=127
517680 On ch=1 n=48 v=127
517790 On ch=1 n=74 v=0
517790 On ch=1 n=65 v=0
517790 On ch=1 n=60 v=0
517790 On ch=1 n=48 v=0
517800 On ch=1 n=77 v=127
517800 On ch=1 n=74 v=127
517800 On ch=1 n=58 v=127
517800 On ch=1 n=46 v=127
518150 On ch=1 n=77 v=0
518150 On ch=1 n=74 v=0
518150 On ch=1 n=58 v=0
518150 On ch=1 n=46 v=0
518160 On ch=1 n=77 v=127
518160 On ch=1 n=74 v=127
518160 On ch=1 n=60 v=127
518160 On ch=1 n=48 v=127
518270 On ch=1 n=77 v=0
518270 On ch=1 n=60 v=0
518270 On ch=1 n=48 v=0
518280 On ch=1 n=82 v=127
518280 On ch=1 n=58 v=127
518280 On ch=1 n=46 v=127
518630 On ch=1 n=82 v=0
518630 On ch=1 n=74 v=0
518630 On ch=1 n=58 v=0
518630 On ch=1 n=46 v=0
518640 On ch=1 n=74 v=127
518640 On ch=1 n=82 v=127
518640 On ch=1 n=70 v=127
518640 On ch=1 n=76 v=127
518640 On ch=1 n=60 v=127
518640 On ch=1 n=48 v=127
518750 On ch=1 n=74 v=0
518750 On ch=1 n=82 v=0
518750 On ch=1 n=70 v=0
518750 On ch=1 n=60 v=0
518750 On ch=1 n=48 v=0
518760 On ch=1 n=77 v=127
518760 On ch=1 n=86 v=127
518760 On ch=1 n=74 v=127
518760 On ch=1 n=58 v=127
518760 On ch=1 n=46 v=127
518870 On ch=1 n=76 v=0
519007 Par ch=1 c=64 v=0
519072 Par ch=1 c=64 v=127
519110 On ch=1 n=77 v=0
519110 On ch=1 n=86 v=0
519110 On ch=1 n=74 v=0
519110 On ch=1 n=58 v=0
519110 On ch=1 n=46 v=0
519120 On ch=1 n=77 v=127
519120 On ch=1 n=86 v=127
519120 On ch=1 n=74 v=127
519120 On ch=1 n=60 v=127
519120 On ch=1 n=48 v=127
519230 On ch=1 n=77 v=0
519230 On ch=1 n=86 v=0
519230 On ch=1 n=74 v=0
519230 On ch=1 n=60 v=0
519230 On ch=1 n=48 v=0
519240 On ch=1 n=86 v=127
519240 On ch=1 n=89 v=127
519240 On ch=1 n=77 v=127
519240 On ch=1 n=58 v=127
519240 On ch=1 n=46 v=127
519590 On ch=1 n=86 v=0
519590 On ch=1 n=89 v=0
519590 On ch=1 n=77 v=0
519590 On ch=1 n=58 v=0
519590 On ch=1 n=46 v=0
519600 On ch=1 n=74 v=127
519600 On ch=1 n=77 v=127
519600 On ch=1 n=65 v=127
519600 On ch=1 n=60 v=127
519600 On ch=1 n=48 v=127
519710 On ch=1 n=74 v=0
519710 On ch=1 n=77 v=0
519710 On ch=1 n=65 v=0
519710 On ch=1 n=60 v=0
519710 On ch=1 n=48 v=0
519720 On ch=1 n=86 v=127
519720 On ch=1 n=89 v=127
519720 On ch=1 n=77 v=127
519720 On ch=1 n=58 v=127
519720 On ch=1 n=46 v=127
520070 On ch=1 n=86 v=0
520070 On ch=1 n=89 v=0
520070 On ch=1 n=77 v=0
520070 On ch=1 n=58 v=0
520070 On ch=1 n=46 v=0
520080 On ch=1 n=74 v=127
520080 On ch=1 n=77 v=127
520080 On ch=1 n=65 v=127
520080 On ch=1 n=60 v=127
520080 On ch=1 n=48 v=127
520190 On ch=1 n=74 v=0
520190 On ch=1 n=77 v=0
520190 On ch=1 n=65 v=0
520190 On ch=1 n=60 v=0
520190 On ch=1 n=48 v=0
520200 On ch=1 n=86 v=127
520200 On ch=1 n=89 v=127
520200 On ch=1 n=77 v=127
520200 On ch=1 n=58 v=127
520200 On ch=1 n=46 v=127
520550 On ch=1 n=86 v=0
520550 On ch=1 n=89 v=0
520550 On ch=1 n=77 v=0
520550 On ch=1 n=58 v=0
520550 On ch=1 n=46 v=0
520560 On ch=1 n=74 v=127
520560 On ch=1 n=77 v=127
520560 On ch=1 n=65 v=127
520560 On ch=1 n=60 v=127
520560 On ch=1 n=48 v=127
520670 On ch=1 n=74 v=0
520670 On ch=1 n=77 v=0
520670 On ch=1 n=65 v=0
520670 On ch=1 n=60 v=0
520670 On ch=1 n=48 v=0
520680 On ch=1 n=86 v=127
520680 On ch=1 n=89 v=127
520680 On ch=1 n=77 v=127
520680 On ch=1 n=58 v=127
520680 On ch=1 n=46 v=127
521030 On ch=1 n=86 v=0
521030 On ch=1 n=89 v=0
521030 On ch=1 n=77 v=0
521030 On ch=1 n=58 v=0
521030 On ch=1 n=46 v=0
521040 On ch=1 n=74 v=127
521040 On ch=1 n=77 v=127
521040 On ch=1 n=65 v=127
521040 On ch=1 n=60 v=127
521040 On ch=1 n=48 v=127
521150 On ch=1 n=74 v=0
521150 On ch=1 n=77 v=0
521150 On ch=1 n=65 v=0
521150 On ch=1 n=60 v=0
521150 On ch=1 n=48 v=0
521160 On ch=1 n=86 v=127
521160 On ch=1 n=89 v=127
521160 On ch=1 n=77 v=127
521160 On ch=1 n=58 v=127
521160 On ch=1 n=46 v=127
521510 On ch=1 n=86 v=0
521510 On ch=1 n=89 v=0
521510 On ch=1 n=77 v=0
521510 On ch=1 n=58 v=0
521510 On ch=1 n=46 v=0
521520 On ch=1 n=74 v=127
521520 On ch=1 n=77 v=127
521520 On ch=1 n=65 v=127
521520 On ch=1 n=60 v=127
521520 On ch=1 n=48 v=127
521630 On ch=1 n=74 v=0
521630 On ch=1 n=77 v=0
521630 On ch=1 n=65 v=0
521630 On ch=1 n=60 v=0
521630 On ch=1 n=48 v=0
521640 On ch=1 n=86 v=127
521640 On ch=1 n=89 v=127
521640 On ch=1 n=77 v=127
521640 On ch=1 n=58 v=127
521640 On ch=1 n=46 v=127
521670 Par ch=1 c=64 v=0
521750 On ch=1 n=86 v=0
521750 On ch=1 n=89 v=0
521750 On ch=1 n=77 v=0
521750 On ch=1 n=58 v=0
521750 On ch=1 n=46 v=0
521760 On ch=1 n=77 v=127
521760 On ch=1 n=86 v=127
521760 On ch=1 n=74 v=127
521760 On ch=1 n=58 v=127
521760 On ch=1 n=46 v=127
521906 Par ch=1 c=64 v=127
521990 On ch=1 n=77 v=0
521990 On ch=1 n=86 v=0
521990 On ch=1 n=74 v=0
521990 On ch=1 n=58 v=0
521990 On ch=1 n=46 v=0
522000 On ch=1 n=79 v=127
522000 On ch=1 n=88 v=127
522000 On ch=1 n=76 v=127
522000 On ch=1 n=46 v=127
522000 On ch=1 n=34 v=127
522110 On ch=1 n=79 v=0
522110 On ch=1 n=88 v=0
522110 On ch=1 n=76 v=0
522110 On ch=1 n=46 v=0
522110 On ch=1 n=34 v=0
522120 On ch=1 n=77 v=127
522120 On ch=1 n=86 v=127
522120 On ch=1 n=74 v=127
522120 On ch=1 n=58 v=127
522120 On ch=1 n=46 v=127
522230 On ch=1 n=77 v=0
522230 On ch=1 n=86 v=0
522230 On ch=1 n=74 v=0
522230 On ch=1 n=58 v=0
522230 On ch=1 n=46 v=0
522240 On ch=1 n=76 v=127
522240 On ch=1 n=84 v=127
522240 On ch=1 n=72 v=127
522240 On ch=1 n=60 v=127
522240 On ch=1 n=48 v=127
522403 Par ch=1 c=64 v=0
522470 On ch=1 n=76 v=0
522470 On ch=1 n=84 v=0
522470 On ch=1 n=72 v=0
522470 On ch=1 n=60 v=0
522470 On ch=1 n=48 v=0
522480 On ch=1 n=77 v=127
522480 On ch=1 n=86 v=127
522480 On ch=1 n=74 v=127
522480 On ch=1 n=48 v=127
522480 On ch=1 n=36 v=127
522590 On ch=1 n=77 v=0
522590 On ch=1 n=86 v=0
522590 On ch=1 n=74 v=0
522590 On ch=1 n=48 v=0
522590 On ch=1 n=36 v=0
522600 On ch=1 n=76 v=127
522600 On ch=1 n=84 v=127
522600 On ch=1 n=72 v=127
522600 On ch=1 n=60 v=127
522600 On ch=1 n=48 v=127
522666 Par ch=1 c=64 v=127
522950 On ch=1 n=76 v=0
522950 On ch=1 n=84 v=0
522950 On ch=1 n=72 v=0
522950 On ch=1 n=60 v=0
522950 On ch=1 n=48 v=0
522960 On ch=1 n=77 v=127
522960 On ch=1 n=86 v=127
522960 On ch=1 n=74 v=127
522960 On ch=1 n=48 v=127
522960 On ch=1 n=36 v=127
523070 On ch=1 n=77 v=0
523070 On ch=1 n=86 v=0
523070 On ch=1 n=74 v=0
523070 On ch=1 n=48 v=0
523070 On ch=1 n=36 v=0
523080 On ch=1 n=76 v=127
523080 On ch=1 n=84 v=127
523080 On ch=1 n=72 v=127
523080 On ch=1 n=60 v=127
523080 On ch=1 n=48 v=127
523190 On ch=1 n=76 v=0
523190 On ch=1 n=60 v=0
523190 On ch=1 n=48 v=0
523200 On ch=1 n=81 v=127
523200 On ch=1 n=77 v=127
523200 On ch=1 n=60 v=127
523200 On ch=1 n=65 v=127
523200 On ch=1 n=69 v=127
523200 On ch=1 n=57 v=127
523339 Par ch=1 c=64 v=0
523430 On ch=1 n=84 v=0
523430 On ch=1 n=72 v=0
523434 Par ch=1 c=64 v=127
523440 On ch=1 n=86 v=127
523440 On ch=1 n=74 v=127
523550 On ch=1 n=86 v=0
523550 On ch=1 n=74 v=0
523560 On ch=1 n=84 v=127
523560 On ch=1 n=72 v=127
523670 On ch=1 n=81 v=0
523670 On ch=1 n=77 v=0
523670 On ch=1 n=60 v=0
523670 On ch=1 n=65 v=0
523670 On ch=1 n=69 v=0
523670 On ch=1 n=57 v=0
523680 On ch=1 n=79 v=127
523680 On ch=1 n=76 v=127
523680 On ch=1 n=60 v=127
523680 On ch=1 n=64 v=127
523680 On ch=1 n=67 v=127
523680 On ch=1 n=55 v=127
523772 Par ch=1 c=64 v=0
523835 Par ch=1 c=64 v=127
523910 On ch=1 n=84 v=0
523910 On ch=1 n=72 v=0
523920 On ch=1 n=86 v=127
523920 On ch=1 n=74 v=127
524030 On ch=1 n=86 v=0
524030 On ch=1 n=74 v=0
524040 On ch=1 n=88 v=127
524040 On ch=1 n=76 v=127
524128 Par ch=1 c=64 v=0
524150 On ch=1 n=79 v=0
524150 On ch=1 n=88 v=0
524150 On ch=1 n=76 v=0
524150 On ch=1 n=76 v=0
524150 On ch=1 n=60 v=0
524150 On ch=1 n=64 v=0
524150 On ch=1 n=67 v=0
524150 On ch=1 n=55 v=0
524160 On ch=1 n=81 v=127
524160 On ch=1 n=89 v=127
524160 On ch=1 n=77 v=127
524160 On ch=1 n=60 v=127
524160 On ch=1 n=48 v=127
524208 Par ch=1 c=64 v=127
524390 On ch=1 n=81 v=0
524390 On ch=1 n=89 v=0
524390 On ch=1 n=77 v=0
524390 On ch=1 n=60 v=0
524390 On ch=1 n=48 v=0
524400 On ch=1 n=72 v=127
524400 On ch=1 n=77 v=127
524400 On ch=1 n=69 v=127
524400 On ch=1 n=62 v=127
524400 On ch=1 n=50 v=127
524510 On ch=1 n=72 v=0
524510 On ch=1 n=77 v=0
524510 On ch=1 n=69 v=0
524510 On ch=1 n=62 v=0
524510 On ch=1 n=50 v=0
524520 On ch=1 n=81 v=127
524520 On ch=1 n=89 v=127
524520 On ch=1 n=77 v=127
524520 On ch=1 n=60 v=127
524520 On ch=1 n=48 v=127
524623 Par ch=1 c=64 v=0
524679 Par ch=1 c=64 v=127
524870 On ch=1 n=81 v=0
524870 On ch=1 n=89 v=0
524870 On ch=1 n=77 v=0
524870 On ch=1 n=60 v=0
524870 On ch=1 n=48 v=0
524880 On ch=1 n=77 v=127
524880 On ch=1 n=71 v=127
524880 On ch=1 n=62 v=127
524880 On ch=1 n=50 v=127
524990 On ch=1 n=77 v=0
524990 On ch=1 n=71 v=0
524990 On ch=1 n=62 v=0
524990 On ch=1 n=50 v=0
525000 On ch=1 n=86 v=127
525000 On ch=1 n=89 v=127
525000 On ch=1 n=77 v=127
525000 On ch=1 n=60 v=127
525000 On ch=1 n=48 v=127
525110 On ch=1 n=86 v=0
525110 On ch=1 n=89 v=0
525110 On ch=1 n=77 v=0
525110 On ch=1 n=60 v=0
525110 On ch=1 n=48 v=0
525120 On ch=1 n=84 v=127
525120 On ch=1 n=88 v=127
525120 On ch=1 n=76 v=127
525120 On ch=1 n=64 v=127
525120 On ch=1 n=52 v=127
525143 Par ch=1 c=64 v=0
525196 Par ch=1 c=64 v=127
525350 On ch=1 n=84 v=0
525350 On ch=1 n=88 v=0
525350 On ch=1 n=76 v=0
525350 On ch=1 n=64 v=0
525350 On ch=1 n=52 v=0
525360 On ch=1 n=76 v=127
525360 On ch=1 n=72 v=127
525360 On ch=1 n=65 v=127
525360 On ch=1 n=53 v=127
525470 On ch=1 n=76 v=0
525470 On ch=1 n=72 v=0
525470 On ch=1 n=65 v=0
525470 On ch=1 n=53 v=0
525480 On ch=1 n=84 v=127
525480 On ch=1 n=88 v=127
525480 On ch=1 n=76 v=127
525480 On ch=1 n=64 v=127
525480 On ch=1 n=52 v=127
525548 Par ch=1 c=64 v=0
525590 On ch=1 n=64 v=0
525590 On ch=1 n=52 v=0
525600 On ch=1 n=67 v=127
525600 On ch=1 n=55 v=127
525830 On ch=1 n=84 v=0
525830 On ch=1 n=88 v=0
525830 On ch=1 n=76 v=0
525830 On ch=1 n=67 v=0
525830 On ch=1 n=55 v=0
525840 On ch=1 n=76 v=127
525840 On ch=1 n=72 v=127
525840 On ch=1 n=69 v=127
525840 On ch=1 n=57 v=127
525950 On ch=1 n=76 v=0
525950 On ch=1 n=72 v=0
525950 On ch=1 n=69 v=0
525950 On ch=1 n=57 v=0
525960 On ch=1 n=84 v=127
525960 On ch=1 n=88 v=127
525960 On ch=1 n=76 v=127
525960 On ch=1 n=67 v=127
525960 On ch=1 n=55 v=127
526070 On ch=1 n=84 v=0
526070 On ch=1 n=88 v=0
526070 On ch=1 n=76 v=0
526070 On ch=1 n=67 v=0
526070 On ch=1 n=55 v=0
526080 On ch=1 n=83 v=127
526080 On ch=1 n=86 v=127
526080 On ch=1 n=74 v=127
526080 On ch=1 n=67 v=127
526080 On ch=1 n=55 v=127
526310 On ch=1 n=83 v=0
526310 On ch=1 n=86 v=0
526310 On ch=1 n=74 v=0
526310 On ch=1 n=67 v=0
526310 On ch=1 n=55 v=0
526555 Par ch=1 c=64 v=127
526560 On ch=1 n=74 v=45
526560 On ch=1 n=70 v=45
526560 On ch=1 n=62 v=45
526560 On ch=1 n=55 v=45
526560 On ch=1 n=43 v=45
527030 On ch=1 n=55 v=0
527030 On ch=1 n=43 v=0
527040 On ch=1 n=58 v=45
527040 On ch=1 n=43 v=45
527520 Tempo 500000
527750 On ch=1 n=62 v=0
527750 On ch=1 n=70 v=0
527750 On ch=1 n=58 v=0
527760 On ch=1 n=62 v=45
527760 On ch=1 n=58 v=45
527990 On ch=1 n=74 v=0
527990 On ch=1 n=62 v=0
527990 On ch=1 n=43 v=0
527990 On ch=1 n=58 v=0
528000 On ch=1 n=74 v=45
528000 On ch=1 n=62 v=45
528000 On ch=1 n=59 v=45
528000 On ch=1 n=43 v=45
528055 Par ch=1 c=64 v=0
528228 Par ch=1 c=64 v=127
528230 On ch=1 n=74 v=0
528240 On ch=1 n=67 v=45
528470 On ch=1 n=67 v=0
528470 On ch=1 n=62 v=0
528470 On ch=1 n=59 v=0
528470 On ch=1 n=43 v=0
528480 On ch=1 n=62 v=45
528480 On ch=1 n=64 v=45
528480 On ch=1 n=55 v=45
528480 On ch=1 n=48 v=45
528480 On ch=1 n=36 v=45
528786 Par ch=1 c=64 v=0
528838 Par ch=1 c=64 v=127
528950 On ch=1 n=62 v=0
528960 On ch=1 n=60 v=45
529430 On ch=1 n=60 v=0
529430 On ch=1 n=64 v=0
529430 On ch=1 n=55 v=0
529430 On ch=1 n=48 v=0
529430 On ch=1 n=36 v=0
529440 On ch=1 n=64 v=45
529440 On ch=1 n=55 v=45
529440 On ch=1 n=60 v=45
529440 On ch=1 n=48 v=45
529440 On ch=1 n=36 v=45
529551 Par ch=1 c=64 v=0
529910 On ch=1 n=55 v=0
529910 On ch=1 n=60 v=0
529910 On ch=1 n=48 v=0
529910 On ch=1 n=36 v=0
529920 On ch=1 n=60 v=45
529920 On ch=1 n=57 v=45
529920 On ch=1 n=45 v=45
530390 On ch=1 n=64 v=0
530390 On ch=1 n=60 v=0
530390 On ch=1 n=57 v=0
530390 On ch=1 n=45 v=0
530400 On ch=1 n=62 v=45
530400 On ch=1 n=66 v=45
530400 On ch=1 n=60 v=45
530400 On ch=1 n=57 v=45
530400 On ch=1 n=45 v=45
531110 On ch=1 n=62 v=0
531110 On ch=1 n=66 v=0
531110 On ch=1 n=60 v=0
531110 On ch=1 n=57 v=0
531110 On ch=1 n=45 v=0
531120 On ch=1 n=62 v=45
531120 On ch=1 n=67 v=45
531120 On ch=1 n=58 v=45
531120 On ch=1 n=55 v=45
531120 On ch=1 n=43 v=45
531350 On ch=1 n=62 v=0
531350 On ch=1 n=67 v=0
531350 On ch=1 n=58 v=0
531350 On ch=1 n=55 v=0
531350 On ch=1 n=43 v=0
531360 On ch=1 n=62 v=45
531360 On ch=1 n=67 v=45
531360 On ch=1 n=58 v=45
531360 On ch=1 n=55 v=45
531360 On ch=1 n=43 v=45
531710 On ch=1 n=62 v=0
531710 On ch=1 n=67 v=0
531710 On ch=1 n=58 v=0
531710 On ch=1 n=55 v=0
531710 On ch=1 n=43 v=0
531840 On ch=1 n=62 v=45
531840 On ch=1 n=66 v=45
531840 On ch=1 n=69 v=45
531840 On ch=1 n=57 v=45
531840 On ch=1 n=50 v=45
531840 On ch=1 n=38 v=45
531993 Par ch=1 c=64 v=127
532190 On ch=1 n=62 v=0
532190 On ch=1 n=66 v=0
532190 On ch=1 n=69 v=0
532190 On ch=1 n=57 v=0
532190 On ch=1 n=50 v=0
532190 On ch=1 n=38 v=0
532320 On ch=1 n=70 v=45
532320 On ch=1 n=74 v=45
532320 On ch=1 n=62 v=45
532320 On ch=1 n=58 v=45
532320 On ch=1 n=43 v=45
532670 On ch=1 n=62 v=0
532790 On ch=1 n=58 v=0
532790 On ch=1 n=43 v=0
532800 On ch=1 n=58 v=45
532800 On ch=1 n=62 v=45
532800 On ch=1 n=55 v=45
533208 Par ch=1 c=64 v=0
533990 On ch=1 n=70 v=0
533990 On ch=1 n=74 v=0
533990 On ch=1 n=55 v=0
533990 On ch=1 n=58 v=0
533990 On ch=1 n=62 v=0
534000 On ch=1 n=62 v=45
534000 On ch=1 n=67 v=45
534000 On ch=1 n=59 v=45
534000 On ch=1 n=55 v=45
534000 On ch=1 n=43 v=45
534230 On ch=1 n=62 v=0
534230 On ch=1 n=67 v=0
534230 On ch=1 n=59 v=0
534230 On ch=1 n=55 v=0
534230 On ch=1 n=43 v=0
534240 On ch=1 n=64 v=45
534240 On ch=1 n=55 v=45
534240 On ch=1 n=48 v=45
534240 On ch=1 n=36 v=45
534590 On ch=1 n=64 v=0
534590 On ch=1 n=55 v=0
534590 On ch=1 n=48 v=0
534590 On ch=1 n=36 v=0
534720 On ch=1 n=64 v=45
534720 On ch=1 n=55 v=45
534720 On ch=1 n=48 v=45
534720 On ch=1 n=36 v=45
535070 On ch=1 n=64 v=0
535070 On ch=1 n=55 v=0
535070 On ch=1 n=48 v=0
535070 On ch=1 n=36 v=0
535200 On ch=1 n=64 v=45
535200 On ch=1 n=60 v=45
535680 On ch=1 n=48 v=45
535680 On ch=1 n=52 v=45
535680 On ch=1 n=45 v=45
536150 On ch=1 n=64 v=0
536150 On ch=1 n=60 v=0
536150 On ch=1 n=48 v=0
536150 On ch=1 n=52 v=0
536150 On ch=1 n=45 v=0
536160 On ch=1 n=60 v=45
536160 On ch=1 n=62 v=45
536160 On ch=1 n=66 v=45
536160 On ch=1 n=57 v=45
536160 On ch=1 n=50 v=45
536160 On ch=1 n=54 v=45
536160 On ch=1 n=45 v=45
536870 On ch=1 n=60 v=0
536870 On ch=1 n=62 v=0
536870 On ch=1 n=66 v=0
536870 On ch=1 n=57 v=0
536870 On ch=1 n=50 v=0
536870 On ch=1 n=54 v=0
536870 On ch=1 n=45 v=0
536880 On ch=1 n=62 v=45
536880 On ch=1 n=67 v=45
536880 On ch=1 n=58 v=45
536880 On ch=1 n=50 v=45
536880 On ch=1 n=55 v=45
536880 On ch=1 n=43 v=45
537110 On ch=1 n=62 v=0
537110 On ch=1 n=67 v=0
537110 On ch=1 n=58 v=0
537110 On ch=1 n=50 v=0
537110 On ch=1 n=55 v=0
537110 On ch=1 n=43 v=0
537120 On ch=1 n=62 v=45
537120 On ch=1 n=67 v=45
537120 On ch=1 n=58 v=45
537120 On ch=1 n=50 v=45
537120 On ch=1 n=38 v=45
537470 On ch=1 n=62 v=0
537470 On ch=1 n=67 v=0
537470 On ch=1 n=58 v=0
537470 On ch=1 n=50 v=0
537470 On ch=1 n=38 v=0
537600 On ch=1 n=66 v=45
537600 On ch=1 n=69 v=45
537600 On ch=1 n=62 v=45
537600 On ch=1 n=54 v=45
537600 On ch=1 n=57 v=45
537600 On ch=1 n=50 v=45
537950 On ch=1 n=66 v=0
537950 On ch=1 n=69 v=0
537950 On ch=1 n=62 v=0
537950 On ch=1 n=54 v=0
537950 On ch=1 n=57 v=0
537950 On ch=1 n=50 v=0
538080 On ch=1 n=62 v=45
538080 On ch=1 n=67 v=45
538080 On ch=1 n=70 v=45
538080 On ch=1 n=58 v=45
538080 On ch=1 n=50 v=45
538080 On ch=1 n=55 v=45
538080 On ch=1 n=43 v=45
538299 Par ch=1 c=64 v=127
539030 On ch=1 n=62 v=0
539030 On ch=1 n=67 v=0
539030 On ch=1 n=70 v=0
539030 On ch=1 n=58 v=0
539030 On ch=1 n=50 v=0
539030 On ch=1 n=55 v=0
539030 On ch=1 n=43 v=0
539040 On ch=1 n=62 v=45
539040 On ch=1 n=67 v=45
539040 On ch=1 n=70 v=45
539040 On ch=1 n=58 v=45
539040 On ch=1 n=50 v=45
539040 On ch=1 n=55 v=45
539040 On ch=1 n=43 v=45
539750 On ch=1 n=62 v=0
539750 On ch=1 n=67 v=0
539750 On ch=1 n=70 v=0
539750 On ch=1 n=58 v=0
539750 On ch=1 n=50 v=0
539750 On ch=1 n=55 v=0
539750 On ch=1 n=43 v=0
539760 On ch=1 n=62 v=61
539760 On ch=1 n=67 v=61
539760 On ch=1 n=70 v=61
539760 On ch=1 n=58 v=61
539760 On ch=1 n=50 v=65
539760 On ch=1 n=55 v=65
539760 On ch=1 n=43 v=65
539989 Par ch=1 c=64 v=0
539990 On ch=1 n=62 v=0
539990 On ch=1 n=67 v=0
539990 On ch=1 n=70 v=0
539990 On ch=1 n=58 v=0
539990 On ch=1 n=50 v=0
539990 On ch=1 n=55 v=0
539990 On ch=1 n=43 v=0
540000 On ch=1 n=69 v=63
540000 On ch=1 n=72 v=63
540000 On ch=1 n=65 v=63
540000 On ch=1 n=60 v=66
540000 On ch=1 n=57 v=72
540000 On ch=1 n=41 v=72
540162 Par ch=1 c=64 v=127
540470 On ch=1 n=60 v=0
540470 On ch=1 n=57 v=0
540470 On ch=1 n=41 v=0
540480 On ch=1 n=57 v=86
540480 On ch=1 n=60 v=86
540480 On ch=1 n=53 v=86
540950 On ch=1 n=69 v=0
540950 On ch=1 n=72 v=0
540950 On ch=1 n=65 v=0
540950 On ch=1 n=57 v=0
540950 On ch=1 n=60 v=0
540950 On ch=1 n=53 v=0
540960 On ch=1 n=65 v=93
540960 On ch=1 n=69 v=93
540960 On ch=1 n=72 v=93
540960 On ch=1 n=60 v=93
540960 On ch=1 n=53 v=100
540960 On ch=1 n=41 v=100
541407 Par ch=1 c=64 v=0
541430 On ch=1 n=65 v=0
541430 On ch=1 n=69 v=0
541430 On ch=1 n=72 v=0
541430 On ch=1 n=60 v=0
541430 On ch=1 n=53 v=0
541430 On ch=1 n=41 v=0
541440 On ch=1 n=65 v=98
541440 On ch=1 n=70 v=98
541440 On ch=1 n=74 v=98
541440 On ch=1 n=62 v=98
541440 On ch=1 n=46 v=90
541440 On ch=1 n=34 v=90
541531 Par ch=1 c=64 v=127
541910 On ch=1 n=65 v=0
541910 On ch=1 n=70 v=0
541910 On ch=1 n=74 v=0
541910 On ch=1 n=62 v=0
541910 On ch=1 n=46 v=0
541910 On ch=1 n=34 v=0
541920 On ch=1 n=65 v=109
541920 On ch=1 n=70 v=109
541920 On ch=1 n=74 v=109
541920 On ch=1 n=62 v=109
541920 On ch=1 n=58 v=105
542272 Par ch=1 c=64 v=0
542369 Par ch=1 c=64 v=127
542390 On ch=1 n=65 v=0
542390 On ch=1 n=70 v=0
542390 On ch=1 n=74 v=0
542390 On ch=1 n=62 v=0
542390 On ch=1 n=58 v=0
542400 On ch=1 n=67 v=120
542400 On ch=1 n=72 v=120
542400 On ch=1 n=76 v=120
542400 On ch=1 n=64 v=120
542400 On ch=1 n=48 v=120
542400 On ch=1 n=36 v=120
542591 Par ch=1 c=64 v=0
542684 Par ch=1 c=64 v=127
542870 On ch=1 n=48 v=0
542870 On ch=1 n=36 v=0
542880 On ch=1 n=52 v=127
542880 On ch=1 n=55 v=127
542880 On ch=1 n=60 v=127
542880 On ch=1 n=48 v=127
542968 Par ch=1 c=64 v=0
543227 Par ch=1 c=64 v=127
543489 Par ch=1 c=64 v=0
543830 On ch=1 n=64 v=0
543830 On ch=1 n=67 v=0
543830 On ch=1 n=72 v=0
543830 On ch=1 n=76 v=0
543830 On ch=1 n=52 v=0
543830 On ch=1 n=55 v=0
543830 On ch=1 n=60 v=0
543830 On ch=1 n=48 v=0
543840 On ch=1 n=48 v=63
543840 On ch=1 n=36 v=63
544057 Par ch=1 c=64 v=127
544320 On ch=1 n=60 v=63
544320 On ch=1 n=64 v=63
544320 On ch=1 n=67 v=63
544320 On ch=1 n=55 v=63
545270 On ch=1 n=36 v=0
545270 On ch=1 n=48 v=0
545270 On ch=1 n=60 v=0
545270 On ch=1 n=64 v=0
545270 On ch=1 n=67 v=0
545270 On ch=1 n=55 v=0
545280 On ch=1 n=60 v=72
545280 On ch=1 n=64 v=72
545280 On ch=1 n=67 v=72
545280 On ch=1 n=55 v=72
545280 On ch=1 n=48 v=63
545280 On ch=1 n=36 v=63
545750 On ch=1 n=60 v=0
545750 On ch=1 n=64 v=0
545750 On ch=1 n=67 v=0
545750 On ch=1 n=55 v=0
545750 On ch=1 n=48 v=0
545750 On ch=1 n=36 v=0
545760 On ch=1 n=67 v=77
545760 On ch=1 n=72 v=77
545760 On ch=1 n=76 v=77
545760 On ch=1 n=64 v=77
545760 On ch=1 n=52 v=68
545760 On ch=1 n=55 v=68
545760 On ch=1 n=60 v=68
545760 On ch=1 n=48 v=68
546710 On ch=1 n=67 v=0
546710 On ch=1 n=72 v=0
546710 On ch=1 n=76 v=0
546710 On ch=1 n=64 v=0
546710 On ch=1 n=52 v=0
546710 On ch=1 n=55 v=0
546710 On ch=1 n=60 v=0
546710 On ch=1 n=48 v=0
546720 On ch=1 n=67 v=86
546720 On ch=1 n=72 v=86
546720 On ch=1 n=76 v=86
546720 On ch=1 n=64 v=86
546720 On ch=1 n=52 v=80
546720 On ch=1 n=55 v=80
546720 On ch=1 n=60 v=80
546720 On ch=1 n=48 v=80
547001 Par ch=1 c=64 v=0
547190 On ch=1 n=67 v=0
547190 On ch=1 n=72 v=0
547190 On ch=1 n=76 v=0
547190 On ch=1 n=64 v=0
547190 On ch=1 n=52 v=0
547190 On ch=1 n=55 v=0
547190 On ch=1 n=60 v=0
547190 On ch=1 n=48 v=0
547200 On ch=1 n=69 v=91
547200 On ch=1 n=77 v=91
547200 On ch=1 n=65 v=91
547200 On ch=1 n=53 v=85
547200 On ch=1 n=57 v=85
547200 On ch=1 n=60 v=85
547200 On ch=1 n=48 v=85
547310 Par ch=1 c=64 v=127
547670 On ch=1 n=53 v=0
547670 On ch=1 n=57 v=0
547670 On ch=1 n=60 v=0
547670 On ch=1 n=48 v=0
547680 On ch=1 n=53 v=91
547680 On ch=1 n=41 v=91
548150 On ch=1 n=69 v=0
548150 On ch=1 n=77 v=0
548150 On ch=1 n=65 v=0
548150 On ch=1 n=53 v=0
548150 On ch=1 n=41 v=0
548160 On ch=1 n=77 v=101
548160 On ch=1 n=69 v=101
548160 On ch=1 n=65 v=97
548160 On ch=1 n=53 v=97
548493 Par ch=1 c=64 v=0
548630 On ch=1 n=77 v=0
548630 On ch=1 n=69 v=0
548630 On ch=1 n=65 v=0
548630 On ch=1 n=53 v=0
548640 On ch=1 n=69 v=105
548640 On ch=1 n=74 v=105
548640 On ch=1 n=78 v=105
548640 On ch=1 n=66 v=105
548640 On ch=1 n=54 v=103
548640 On ch=1 n=57 v=103
548640 On ch=1 n=62 v=103
548640 On ch=1 n=50 v=103
548758 Par ch=1 c=64 v=127
549994 Par ch=1 c=64 v=0
550070 On ch=1 n=66 v=0
550070 On ch=1 n=69 v=0
550070 On ch=1 n=74 v=0
550070 On ch=1 n=78 v=0
550070 On ch=1 n=50 v=0
550070 On ch=1 n=54 v=0
550070 On ch=1 n=57 v=0
550070 On ch=1 n=62 v=0
550560 On ch=1 n=87 v=127
550560 On ch=1 n=91 v=127
550560 On ch=1 n=79 v=127
550560 On ch=1 n=67 v=127
550560 On ch=1 n=75 v=127
550560 On ch=1 n=63 v=127
551270 On ch=1 n=87 v=0
551270 On ch=1 n=91 v=0
551270 On ch=1 n=79 v=0
551270 On ch=1 n=67 v=0
551270 On ch=1 n=75 v=0
551270 On ch=1 n=63 v=0
551280 On ch=1 n=82 v=127
551280 On ch=1 n=87 v=127
551280 On ch=1 n=91 v=127
551280 On ch=1 n=79 v=127
551280 On ch=1 n=67 v=127
551280 On ch=1 n=70 v=127
551280 On ch=1 n=75 v=127
551280 On ch=1 n=63 v=127
551510 On ch=1 n=82 v=0
551510 On ch=1 n=87 v=0
551510 On ch=1 n=91 v=0
551510 On ch=1 n=79 v=0
551510 On ch=1 n=67 v=0
551510 On ch=1 n=70 v=0
551510 On ch=1 n=75 v=0
551510 On ch=1 n=63 v=0
551520 On ch=1 n=82 v=127
551520 On ch=1 n=87 v=127
551520 On ch=1 n=91 v=127
551520 On ch=1 n=79 v=127
551520 On ch=1 n=67 v=127
551520 On ch=1 n=70 v=127
551520 On ch=1 n=75 v=127
551520 On ch=1 n=63 v=127
551562 Par ch=1 c=64 v=127
552470 On ch=1 n=82 v=0
552470 On ch=1 n=87 v=0
552470 On ch=1 n=91 v=0
552470 On ch=1 n=79 v=0
552470 On ch=1 n=67 v=0
552470 On ch=1 n=70 v=0
552470 On ch=1 n=75 v=0
552470 On ch=1 n=63 v=0
552480 On ch=1 n=82 v=127
552480 On ch=1 n=87 v=127
552480 On ch=1 n=91 v=127
552480 On ch=1 n=79 v=127
552480 On ch=1 n=67 v=127
552480 On ch=1 n=70 v=127
552480 On ch=1 n=75 v=127
552480 On ch=1 n=63 v=127
552950 On ch=1 n=82 v=0
552950 On ch=1 n=87 v=0
552950 On ch=1 n=91 v=0
552950 On ch=1 n=79 v=0
552950 On ch=1 n=67 v=0
552950 On ch=1 n=70 v=0
552950 On ch=1 n=75 v=0
552950 On ch=1 n=63 v=0
552960 On ch=1 n=82 v=127
552960 On ch=1 n=87 v=127
552960 On ch=1 n=91 v=127
552960 On ch=1 n=79 v=127
552960 On ch=1 n=67 v=127
552960 On ch=1 n=70 v=127
552960 On ch=1 n=75 v=127
552960 On ch=1 n=63 v=127
553430 On ch=1 n=82 v=0
553430 On ch=1 n=87 v=0
553430 On ch=1 n=91 v=0
553430 On ch=1 n=79 v=0
553430 On ch=1 n=67 v=0
553430 On ch=1 n=70 v=0
553430 On ch=1 n=75 v=0
553430 On ch=1 n=63 v=0
553440 On ch=1 n=82 v=127
553440 On ch=1 n=87 v=127
553440 On ch=1 n=91 v=127
553440 On ch=1 n=79 v=127
553440 On ch=1 n=67 v=127
553440 On ch=1 n=70 v=127
553440 On ch=1 n=75 v=127
553440 On ch=1 n=63 v=127
554390 On ch=1 n=82 v=0
554390 On ch=1 n=87 v=0
554390 On ch=1 n=91 v=0
554390 On ch=1 n=79 v=0
554390 On ch=1 n=67 v=0
554390 On ch=1 n=70 v=0
554390 On ch=1 n=75 v=0
554390 On ch=1 n=63 v=0
554400 On ch=1 n=82 v=127
554400 On ch=1 n=87 v=127
554400 On ch=1 n=91 v=127
554400 On ch=1 n=79 v=127
554400 On ch=1 n=67 v=127
554400 On ch=1 n=70 v=127
554400 On ch=1 n=75 v=127
554400 On ch=1 n=63 v=127
555350 On ch=1 n=82 v=0
555350 On ch=1 n=87 v=0
555350 On ch=1 n=91 v=0
555350 On ch=1 n=79 v=0
555350 On ch=1 n=67 v=0
555350 On ch=1 n=70 v=0
555350 On ch=1 n=75 v=0
555350 On ch=1 n=63 v=0
555360 On ch=1 n=82 v=127
555360 On ch=1 n=87 v=127
555360 On ch=1 n=91 v=127
555360 On ch=1 n=79 v=127
555360 On ch=1 n=67 v=127
555360 On ch=1 n=70 v=127
555360 On ch=1 n=75 v=127
555360 On ch=1 n=63 v=127
555830 On ch=1 n=82 v=0
555830 On ch=1 n=87 v=0
555830 On ch=1 n=91 v=0
555830 On ch=1 n=79 v=0
555830 On ch=1 n=67 v=0
555830 On ch=1 n=70 v=0
555830 On ch=1 n=75 v=0
555830 On ch=1 n=63 v=0
555854 Par ch=1 c=64 v=0
556320 On ch=1 n=79 v=45
556320 On ch=1 n=67 v=45
556320 On ch=1 n=70 v=45
556320 On ch=1 n=73 v=45
556320 On ch=1 n=64 v=45
556576 Par ch=1 c=64 v=127
557760 On ch=1 n=82 v=45
558230 On ch=1 n=64 v=0
558230 On ch=1 n=67 v=0
558230 On ch=1 n=70 v=0
558230 On ch=1 n=73 v=0
558240 On ch=1 n=85 v=45
558240 On ch=1 n=67 v=45
558240 On ch=1 n=70 v=45
558240 On ch=1 n=73 v=45
558240 On ch=1 n=64 v=45
558710 On ch=1 n=79 v=0
558710 On ch=1 n=82 v=0
558710 On ch=1 n=85 v=0
558720 On ch=1 n=82 v=45
558720 On ch=1 n=85 v=45
558720 On ch=1 n=88 v=45
558720 On ch=1 n=79 v=45
559190 On ch=1 n=85 v=0
559190 On ch=1 n=67 v=0
559190 On ch=1 n=70 v=0
559190 On ch=1 n=73 v=0
559190 On ch=1 n=64 v=0
559190 On ch=1 n=88 v=0
559200 On ch=1 n=91 v=45
559200 On ch=1 n=67 v=45
559200 On ch=1 n=70 v=45
559200 On ch=1 n=73 v=45
559200 On ch=1 n=64 v=45
559670 On ch=1 n=82 v=0
559670 On ch=1 n=91 v=0
559670 On ch=1 n=79 v=0
559680 On ch=1 n=82 v=45
559680 On ch=1 n=85 v=45
559680 On ch=1 n=91 v=45
559680 On ch=1 n=79 v=45
560630 On ch=1 n=64 v=0
560630 On ch=1 n=67 v=0
560630 On ch=1 n=70 v=0
560630 On ch=1 n=73 v=0
560630 On ch=1 n=82 v=0
560630 On ch=1 n=85 v=0
560630 On ch=1 n=91 v=0
560630 On ch=1 n=79 v=0
560640 On ch=1 n=82 v=45
560640 On ch=1 n=85 v=45
560640 On ch=1 n=88 v=45
560640 On ch=1 n=91 v=45
560640 On ch=1 n=79 v=45
560640 On ch=1 n=45 v=45
560690 On ch=1 n=45 v=0
560700 On ch=1 n=57 v=45
560750 On ch=1 n=57 v=0
560760 On ch=1 n=45 v=45
560790 On ch=1 n=82 v=0
560790 On ch=1 n=85 v=0
560790 On ch=1 n=88 v=0
560790 On ch=1 n=91 v=0
560790 On ch=1 n=79 v=0
560800 On ch=1 n=82 v=45
560800 On ch=1 n=85 v=45
560800 On ch=1 n=88 v=45
560800 On ch=1 n=91 v=45
560800 On ch=1 n=79 v=45
560810 On ch=1 n=45 v=0
560820 On ch=1 n=57 v=45
560870 On ch=1 n=57 v=0
560880 On ch=1 n=45 v=45
560930 On ch=1 n=45 v=0
560940 On ch=1 n=57 v=45
560950 On ch=1 n=82 v=0
560950 On ch=1 n=85 v=0
560950 On ch=1 n=88 v=0
560950 On ch=1 n=91 v=0
560950 On ch=1 n=79 v=0
560960 On ch=1 n=82 v=45
560960 On ch=1 n=85 v=45
560960 On ch=1 n=88 v=45
560960 On ch=1 n=91 v=45
560960 On ch=1 n=79 v=45
560990 On ch=1 n=57 v=0
561000 On ch=1 n=45 v=45
561050 On ch=1 n=45 v=0
561060 On ch=1 n=57 v=45
561110 On ch=1 n=82 v=0
561110 On ch=1 n=85 v=0
561110 On ch=1 n=88 v=0
561110 On ch=1 n=91 v=0
561110 On ch=1 n=79 v=0
561110 On ch=1 n=57 v=0
561120 On ch=1 n=82 v=45
561120 On ch=1 n=85 v=45
561120 On ch=1 n=88 v=45
561120 On ch=1 n=91 v=45
561120 On ch=1 n=79 v=45
561120 On ch=1 n=45 v=45
561170 On ch=1 n=45 v=0
561180 On ch=1 n=57 v=45
561230 On ch=1 n=57 v=0
561240 On ch=1 n=45 v=45
561270 On ch=1 n=82 v=0
561270 On ch=1 n=85 v=0
561270 On ch=1 n=88 v=0
561270 On ch=1 n=91 v=0
561270 On ch=1 n=79 v=0
561280 On ch=1 n=82 v=45
561280 On ch=1 n=85 v=45
561280 On ch=1 n=88 v=45
561280 On ch=1 n=91 v=45
561280 On ch=1 n=79 v=45
561290 On ch=1 n=45 v=0
561300 On ch=1 n=57 v=45
561350 On ch=1 n=57 v=0
561360 On ch=1 n=45 v=45
561410 On ch=1 n=45 v=0
561420 On ch=1 n=57 v=45
561430 On ch=1 n=82 v=0
561430 On ch=1 n=85 v=0
561430 On ch=1 n=88 v=0
561430 On ch=1 n=91 v=0
561430 On ch=1 n=79 v=0
561440 On ch=1 n=82 v=45
561440 On ch=1 n=85 v=45
561440 On ch=1 n=88 v=45
561440 On ch=1 n=91 v=45
561440 On ch=1 n=79 v=45
561470 On ch=1 n=57 v=0
561480 On ch=1 n=45 v=45
561530 On ch=1 n=45 v=0
561540 On ch=1 n=57 v=45
561590 On ch=1 n=82 v=0
561590 On ch=1 n=85 v=0
561590 On ch=1 n=88 v=0
561590 On ch=1 n=91 v=0
561590 On ch=1 n=79 v=0
561590 On ch=1 n=57 v=0
561600 On ch=1 n=82 v=45
561600 On ch=1 n=85 v=45
561600 On ch=1 n=88 v=45
561600 On ch=1 n=91 v=45
561600 On ch=1 n=79 v=45
561600 On ch=1 n=45 v=45
561650 On ch=1 n=45 v=0
561660 On ch=1 n=57 v=45
561710 On ch=1 n=57 v=0
561720 On ch=1 n=45 v=45
561750 On ch=1 n=82 v=0
561750 On ch=1 n=85 v=0
561750 On ch=1 n=88 v=0
561750 On ch=1 n=91 v=0
561750 On ch=1 n=79 v=0
561760 On ch=1 n=82 v=45
561760 On ch=1 n=85 v=45
561760 On ch=1 n=88 v=45
561760 On ch=1 n=91 v=45
561760 On ch=1 n=79 v=45
561770 On ch=1 n=45 v=0
561780 On ch=1 n=57 v=45
561830 On ch=1 n=57 v=0
561840 On ch=1 n=45 v=45
561890 On ch=1 n=45 v=0
561900 On ch=1 n=57 v=45
561910 On ch=1 n=82 v=0
561910 On ch=1 n=85 v=0
561910 On ch=1 n=88 v=0
561910 On ch=1 n=91 v=0
561910 On ch=1 n=79 v=0
561920 On ch=1 n=82 v=45
561920 On ch=1 n=85 v=45
561920 On ch=1 n=88 v=45
561920 On ch=1 n=91 v=45
561920 On ch=1 n=79 v=45
561950 On ch=1 n=57 v=0
561960 On ch=1 n=45 v=45
562010 On ch=1 n=45 v=0
562020 On ch=1 n=57 v=45
562070 On ch=1 n=82 v=0
562070 On ch=1 n=85 v=0
562070 On ch=1 n=88 v=0
562070 On ch=1 n=91 v=0
562070 On ch=1 n=79 v=0
562070 On ch=1 n=57 v=0
562080 On ch=1 n=82 v=45
562080 On ch=1 n=85 v=45
562080 On ch=1 n=88 v=45
562080 On ch=1 n=91 v=45
562080 On ch=1 n=79 v=45
562080 On ch=1 n=45 v=45
562080 On ch=1 n=57 v=45
562080 On ch=1 n=61 v=45
562130 On ch=1 n=45 v=0
562140 On ch=1 n=57 v=45
562190 On ch=1 n=57 v=0
562200 On ch=1 n=45 v=45
562230 On ch=1 n=82 v=0
562230 On ch=1 n=85 v=0
562230 On ch=1 n=88 v=0
562230 On ch=1 n=91 v=0
562230 On ch=1 n=79 v=0
562240 On ch=1 n=82 v=45
562240 On ch=1 n=85 v=45
562240 On ch=1 n=88 v=45
562240 On ch=1 n=91 v=45
562240 On ch=1 n=79 v=45
562250 On ch=1 n=45 v=0
562260 On ch=1 n=57 v=45
562310 On ch=1 n=57 v=0
562320 On ch=1 n=45 v=45
562370 On ch=1 n=45 v=0
562380 On ch=1 n=57 v=45
562390 On ch=1 n=82 v=0
562390 On ch=1 n=85 v=0
562390 On ch=1 n=88 v=0
562390 On ch=1 n=91 v=0
562390 On ch=1 n=79 v=0
562400 On ch=1 n=82 v=45
562400 On ch=1 n=85 v=45
562400 On ch=1 n=88 v=45
562400 On ch=1 n=91 v=45
562400 On ch=1 n=79 v=45
562430 On ch=1 n=57 v=0
562440 On ch=1 n=45 v=45
562490 On ch=1 n=45 v=0
562500 On ch=1 n=57 v=45
562550 On ch=1 n=82 v=0
562550 On ch=1 n=85 v=0
562550 On ch=1 n=88 v=0
562550 On ch=1 n=91 v=0
562550 On ch=1 n=79 v=0
562550 On ch=1 n=57 v=0
562560 On ch=1 n=82 v=45
562560 On ch=1 n=85 v=45
562560 On ch=1 n=88 v=45
562560 On ch=1 n=91 v=45
562560 On ch=1 n=79 v=45
562560 On ch=1 n=45 v=45
562610 On ch=1 n=45 v=0
562620 On ch=1 n=57 v=45
562670 On ch=1 n=57 v=0
562680 On ch=1 n=45 v=45
562710 On ch=1 n=82 v=0
562710 On ch=1 n=85 v=0
562710 On ch=1 n=88 v=0
562710 On ch=1 n=91 v=0
562710 On ch=1 n=79 v=0
562720 On ch=1 n=82 v=45
562720 On ch=1 n=85 v=45
562720 On ch=1 n=88 v=45
562720 On ch=1 n=91 v=45
562720 On ch=1 n=79 v=45
562730 On ch=1 n=45 v=0
562740 On ch=1 n=57 v=45
562780 On ch=1 n=57 v=0
562780 On ch=1 n=61 v=0
562790 On ch=1 n=57 v=0
562800 On ch=1 n=45 v=45
562800 On ch=1 n=61 v=45
562800 On ch=1 n=57 v=45
562850 On ch=1 n=45 v=0
562860 On ch=1 n=57 v=45
562870 On ch=1 n=82 v=0
562870 On ch=1 n=85 v=0
562870 On ch=1 n=88 v=0
562870 On ch=1 n=91 v=0
562870 On ch=1 n=79 v=0
562880 On ch=1 n=82 v=45
562880 On ch=1 n=85 v=45
562880 On ch=1 n=88 v=45
562880 On ch=1 n=91 v=45
562880 On ch=1 n=79 v=45
562910 On ch=1 n=57 v=0
562920 On ch=1 n=45 v=45
562970 On ch=1 n=45 v=0
562980 On ch=1 n=57 v=45
563030 On ch=1 n=82 v=0
563030 On ch=1 n=85 v=0
563030 On ch=1 n=88 v=0
563030 On ch=1 n=91 v=0
563030 On ch=1 n=79 v=0
563030 On ch=1 n=57 v=0
563030 On ch=1 n=61 v=0
563030 On ch=1 n=57 v=0
563040 On ch=1 n=82 v=45
563040 On ch=1 n=85 v=45
563040 On ch=1 n=88 v=45
563040 On ch=1 n=91 v=45
563040 On ch=1 n=79 v=45
563040 On ch=1 n=45 v=45
563040 On ch=1 n=57 v=45
563040 On ch=1 n=61 v=45
563090 On ch=1 n=45 v=0
563100 On ch=1 n=57 v=45
563150 On ch=1 n=57 v=0
563160 On ch=1 n=45 v=45
563190 On ch=1 n=82 v=0
563190 On ch=1 n=85 v=0
563190 On ch=1 n=88 v=0
563190 On ch=1 n=91 v=0
563190 On ch=1 n=79 v=0
563200 On ch=1 n=82 v=45
563200 On ch=1 n=85 v=45
563200 On ch=1 n=88 v=45
563200 On ch=1 n=91 v=45
563200 On ch=1 n=79 v=45
563210 On ch=1 n=45 v=0
563220 On ch=1 n=57 v=45
563270 On ch=1 n=57 v=0
563280 On ch=1 n=45 v=45
563330 On ch=1 n=45 v=0
563340 On ch=1 n=57 v=45
563350 On ch=1 n=82 v=0
563350 On ch=1 n=85 v=0
563350 On ch=1 n=88 v=0
563350 On ch=1 n=91 v=0
563350 On ch=1 n=79 v=0
563360 On ch=1 n=82 v=45
563360 On ch=1 n=85 v=45
563360 On ch=1 n=88 v=45
563360 On ch=1 n=91 v=45
563360 On ch=1 n=79 v=45
563390 On ch=1 n=57 v=0
563400 On ch=1 n=45 v=45
563450 On ch=1 n=45 v=0
563460 On ch=1 n=57 v=45
563510 On ch=1 n=82 v=0
563510 On ch=1 n=85 v=0
563510 On ch=1 n=88 v=0
563510 On ch=1 n=91 v=0
563510 On ch=1 n=79 v=0
563510 On ch=1 n=57 v=0
563520 On ch=1 n=82 v=45
563520 On ch=1 n=85 v=45
563520 On ch=1 n=88 v=45
563520 On ch=1 n=91 v=45
563520 On ch=1 n=79 v=45
563520 On ch=1 n=45 v=45
563570 On ch=1 n=45 v=0
563580 On ch=1 n=57 v=45
563630 On ch=1 n=57 v=0
563640 On ch=1 n=45 v=45
563670 On ch=1 n=82 v=0
563670 On ch=1 n=85 v=0
563670 On ch=1 n=88 v=0
563670 On ch=1 n=91 v=0
563670 On ch=1 n=79 v=0
563680 On ch=1 n=82 v=45
563680 On ch=1 n=85 v=45
563680 On ch=1 n=88 v=45
563680 On ch=1 n=91 v=45
563680 On ch=1 n=79 v=45
563690 On ch=1 n=45 v=0
563700 On ch=1 n=57 v=45
563750 On ch=1 n=57 v=0
563760 On ch=1 n=45 v=45
563810 On ch=1 n=45 v=0
563820 On ch=1 n=57 v=45
563830 On ch=1 n=82 v=0
563830 On ch=1 n=85 v=0
563830 On ch=1 n=88 v=0
563830 On ch=1 n=91 v=0
563830 On ch=1 n=79 v=0
563840 On ch=1 n=82 v=45
563840 On ch=1 n=85 v=45
563840 On ch=1 n=88 v=45
563840 On ch=1 n=91 v=45
563840 On ch=1 n=79 v=45
563870 On ch=1 n=57 v=0
563880 On ch=1 n=45 v=45
563930 On ch=1 n=45 v=0
563940 On ch=1 n=57 v=45
563990 On ch=1 n=82 v=0
563990 On ch=1 n=85 v=0
563990 On ch=1 n=88 v=0
563990 On ch=1 n=91 v=0
563990 On ch=1 n=79 v=0
563990 On ch=1 n=57 v=0
563990 On ch=1 n=57 v=0
563990 On ch=1 n=61 v=0
564000 On ch=1 n=82 v=45
564000 On ch=1 n=85 v=45
564000 On ch=1 n=88 v=45
564000 On ch=1 n=91 v=45
564000 On ch=1 n=79 v=45
564000 On ch=1 n=45 v=45
564000 On ch=1 n=61 v=45
564000 On ch=1 n=57 v=45
564050 On ch=1 n=45 v=0
564060 On ch=1 n=57 v=45
564110 On ch=1 n=57 v=0
564120 On ch=1 n=45 v=45
564150 On ch=1 n=82 v=0
564150 On ch=1 n=85 v=0
564150 On ch=1 n=88 v=0
564150 On ch=1 n=91 v=0
564150 On ch=1 n=79 v=0
564160 On ch=1 n=82 v=45
564160 On ch=1 n=85 v=45
564160 On ch=1 n=88 v=45
564160 On ch=1 n=91 v=45
564160 On ch=1 n=79 v=45
564170 On ch=1 n=45 v=0
564180 On ch=1 n=57 v=45
564230 On ch=1 n=57 v=0
564240 On ch=1 n=45 v=45
564290 On ch=1 n=45 v=0
564300 On ch=1 n=57 v=45
564310 On ch=1 n=82 v=0
564310 On ch=1 n=85 v=0
564310 On ch=1 n=88 v=0
564310 On ch=1 n=91 v=0
564310 On ch=1 n=79 v=0
564320 On ch=1 n=82 v=45
564320 On ch=1 n=85 v=45
564320 On ch=1 n=88 v=45
564320 On ch=1 n=91 v=45
564320 On ch=1 n=79 v=45
564350 On ch=1 n=57 v=0
564360 On ch=1 n=45 v=45
564410 On ch=1 n=45 v=0
564420 On ch=1 n=57 v=45
564470 On ch=1 n=82 v=0
564470 On ch=1 n=85 v=0
564470 On ch=1 n=88 v=0
564470 On ch=1 n=91 v=0
564470 On ch=1 n=79 v=0
564470 On ch=1 n=57 v=0
564470 On ch=1 n=61 v=0
564470 On ch=1 n=57 v=0
564480 On ch=1 n=82 v=45
564480 On ch=1 n=85 v=45
564480 On ch=1 n=88 v=45
564480 On ch=1 n=91 v=45
564480 On ch=1 n=79 v=45
564480 On ch=1 n=45 v=45
564480 On ch=1 n=57 v=45
564480 On ch=1 n=61 v=45
564530 On ch=1 n=45 v=0
564540 On ch=1 n=57 v=45
564590 On ch=1 n=57 v=0
564600 On ch=1 n=45 v=45
564630 On ch=1 n=82 v=0
564630 On ch=1 n=85 v=0
564630 On ch=1 n=88 v=0
564630 On ch=1 n=91 v=0
564630 On ch=1 n=79 v=0
564640 On ch=1 n=82 v=45
564640 On ch=1 n=85 v=45
564640 On ch=1 n=88 v=45
564640 On ch=1 n=91 v=45
564640 On ch=1 n=79 v=45
564650 On ch=1 n=45 v=0
564660 On ch=1 n=57 v=45
564710 On ch=1 n=57 v=0
564720 On ch=1 n=45 v=45
564770 On ch=1 n=45 v=0
564780 On ch=1 n=57 v=45
564790 On ch=1 n=82 v=0
564790 On ch=1 n=85 v=0
564790 On ch=1 n=88 v=0
564790 On ch=1 n=91 v=0
564790 On ch=1 n=79 v=0
564800 On ch=1 n=82 v=45
564800 On ch=1 n=85 v=45
564800 On ch=1 n=88 v=45
564800 On ch=1 n=91 v=45
564800 On ch=1 n=79 v=45
564830 On ch=1 n=57 v=0
564840 On ch=1 n=45 v=45
564890 On ch=1 n=45 v=0
564900 On ch=1 n=57 v=45
564950 On ch=1 n=82 v=0
564950 On ch=1 n=85 v=0
564950 On ch=1 n=88 v=0
564950 On ch=1 n=91 v=0
564950 On ch=1 n=79 v=0
564950 On ch=1 n=57 v=0
564950 On ch=1 n=57 v=0
564950 On ch=1 n=61 v=0
564960 On ch=1 n=82 v=45
564960 On ch=1 n=85 v=45
564960 On ch=1 n=88 v=45
564960 On ch=1 n=91 v=45
564960 On ch=1 n=79 v=45
564960 On ch=1 n=45 v=45
564960 On ch=1 n=61 v=45
564960 On ch=1 n=57 v=45
565010 On ch=1 n=45 v=0
565020 On ch=1 n=57 v=45
565070 On ch=1 n=57 v=0
565080 On ch=1 n=45 v=45
565110 On ch=1 n=82 v=0
565110 On ch=1 n=85 v=0
565110 On ch=1 n=88 v=0
565110 On ch=1 n=91 v=0
565110 On ch=1 n=79 v=0
565120 On ch=1 n=82 v=45
565120 On ch=1 n=85 v=45
565120 On ch=1 n=88 v=45
565120 On ch=1 n=91 v=45
565120 On ch=1 n=79 v=45
565130 On ch=1 n=45 v=0
565140 On ch=1 n=57 v=45
565190 On ch=1 n=57 v=0
565200 On ch=1 n=45 v=45
565250 On ch=1 n=45 v=0
565260 On ch=1 n=57 v=45
565270 On ch=1 n=82 v=0
565270 On ch=1 n=85 v=0
565270 On ch=1 n=88 v=0
565270 On ch=1 n=91 v=0
565270 On ch=1 n=79 v=0
565280 On ch=1 n=82 v=45
565280 On ch=1 n=85 v=45
565280 On ch=1 n=88 v=45
565280 On ch=1 n=91 v=45
565280 On ch=1 n=79 v=45
565310 On ch=1 n=57 v=0
565320 On ch=1 n=45 v=45
565370 On ch=1 n=45 v=0
565380 On ch=1 n=57 v=45
565430 On ch=1 n=82 v=0
565430 On ch=1 n=85 v=0
565430 On ch=1 n=88 v=0
565430 On ch=1 n=91 v=0
565430 On ch=1 n=79 v=0
565430 On ch=1 n=57 v=0
565440 On ch=1 n=82 v=45
565440 On ch=1 n=85 v=45
565440 On ch=1 n=88 v=45
565440 On ch=1 n=91 v=45
565440 On ch=1 n=79 v=45
565440 On ch=1 n=45 v=45
565490 On ch=1 n=45 v=0
565500 On ch=1 n=57 v=45
565550 On ch=1 n=57 v=0
565560 On ch=1 n=45 v=45
565590 On ch=1 n=82 v=0
565590 On ch=1 n=85 v=0
565590 On ch=1 n=88 v=0
565590 On ch=1 n=91 v=0
565590 On ch=1 n=79 v=0
565600 On ch=1 n=82 v=45
565600 On ch=1 n=85 v=45
565600 On ch=1 n=88 v=45
565600 On ch=1 n=91 v=45
565600 On ch=1 n=79 v=45
565610 On ch=1 n=45 v=0
565620 On ch=1 n=57 v=45
565670 On ch=1 n=57 v=0
565680 On ch=1 n=45 v=45
565730 On ch=1 n=45 v=0
565740 On ch=1 n=57 v=45
565750 On ch=1 n=82 v=0
565750 On ch=1 n=85 v=0
565750 On ch=1 n=88 v=0
565750 On ch=1 n=91 v=0
565750 On ch=1 n=79 v=0
565760 On ch=1 n=82 v=45
565760 On ch=1 n=85 v=45
565760 On ch=1 n=88 v=45
565760 On ch=1 n=91 v=45
565760 On ch=1 n=79 v=45
565790 On ch=1 n=57 v=0
565800 On ch=1 n=45 v=45
565850 On ch=1 n=45 v=0
565860 On ch=1 n=57 v=45
565910 On ch=1 n=82 v=0
565910 On ch=1 n=85 v=0
565910 On ch=1 n=88 v=0
565910 On ch=1 n=91 v=0
565910 On ch=1 n=79 v=0
565910 On ch=1 n=57 v=0
565910 On ch=1 n=61 v=0
565910 On ch=1 n=57 v=0
565920 On ch=1 n=82 v=45
565920 On ch=1 n=85 v=45
565920 On ch=1 n=88 v=45
565920 On ch=1 n=91 v=45
565920 On ch=1 n=79 v=45
565920 On ch=1 n=45 v=45
565920 On ch=1 n=57 v=45
565920 On ch=1 n=61 v=45
565970 On ch=1 n=45 v=0
565980 On ch=1 n=57 v=45
566030 On ch=1 n=57 v=0
566040 On ch=1 n=45 v=45
566070 On ch=1 n=82 v=0
566070 On ch=1 n=85 v=0
566070 On ch=1 n=88 v=0
566070 On ch=1 n=91 v=0
566070 On ch=1 n=79 v=0
566080 On ch=1 n=82 v=45
566080 On ch=1 n=85 v=45
566080 On ch=1 n=88 v=45
566080 On ch=1 n=91 v=45
566080 On ch=1 n=79 v=45
566090 On ch=1 n=45 v=0
566100 On ch=1 n=57 v=45
566150 On ch=1 n=57 v=0
566160 On ch=1 n=45 v=45
566210 On ch=1 n=45 v=0
566220 On ch=1 n=57 v=45
566230 On ch=1 n=82 v=0
566230 On ch=1 n=85 v=0
566230 On ch=1 n=88 v=0
566230 On ch=1 n=91 v=0
566230 On ch=1 n=79 v=0
566240 On ch=1 n=82 v=45
566240 On ch=1 n=85 v=45
566240 On ch=1 n=88 v=45
566240 On ch=1 n=91 v=45
566240 On ch=1 n=79 v=45
566270 On ch=1 n=57 v=0
566280 On ch=1 n=45 v=45
566330 On ch=1 n=45 v=0
566340 On ch=1 n=57 v=45
566390 On ch=1 n=82 v=0
566390 On ch=1 n=85 v=0
566390 On ch=1 n=88 v=0
566390 On ch=1 n=91 v=0
566390 On ch=1 n=79 v=0
566390 On ch=1 n=57 v=0
566400 On ch=1 n=82 v=45
566400 On ch=1 n=85 v=45
566400 On ch=1 n=88 v=45
566400 On ch=1 n=91 v=45
566400 On ch=1 n=79 v=45
566400 On ch=1 n=45 v=45
566450 On ch=1 n=45 v=0
566460 On ch=1 n=57 v=45
566510 On ch=1 n=57 v=0
566520 On ch=1 n=45 v=45
566550 On ch=1 n=82 v=0
566550 On ch=1 n=85 v=0
566550 On ch=1 n=88 v=0
566550 On ch=1 n=91 v=0
566550 On ch=1 n=79 v=0
566560 On ch=1 n=82 v=45
566560 On ch=1 n=85 v=45
566560 On ch=1 n=88 v=45
566560 On ch=1 n=91 v=45
566560 On ch=1 n=79 v=45
566570 On ch=1 n=45 v=0
566580 On ch=1 n=57 v=45
566630 On ch=1 n=57 v=0
566640 On ch=1 n=45 v=45
566690 On ch=1 n=45 v=0
566700 On ch=1 n=57 v=45
566710 On ch=1 n=82 v=0
566710 On ch=1 n=85 v=0
566710 On ch=1 n=88 v=0
566710 On ch=1 n=91 v=0
566710 On ch=1 n=79 v=0
566720 On ch=1 n=82 v=45
566720 On ch=1 n=85 v=45
566720 On ch=1 n=88 v=45
566720 On ch=1 n=91 v=45
566720 On ch=1 n=79 v=45
566750 On ch=1 n=57 v=0
566760 On ch=1 n=45 v=45
566810 On ch=1 n=45 v=0
566820 On ch=1 n=57 v=45
566870 On ch=1 n=82 v=0
566870 On ch=1 n=85 v=0
566870 On ch=1 n=88 v=0
566870 On ch=1 n=91 v=0
566870 On ch=1 n=79 v=0
566870 On ch=1 n=57 v=0
566870 On ch=1 n=57 v=0
566870 On ch=1 n=61 v=0
566880 On ch=1 n=82 v=45
566880 On ch=1 n=85 v=45
566880 On ch=1 n=88 v=45
566880 On ch=1 n=91 v=45
566880 On ch=1 n=79 v=45
566880 On ch=1 n=45 v=45
566880 On ch=1 n=61 v=45
566880 On ch=1 n=57 v=45
566930 On ch=1 n=45 v=0
566940 On ch=1 n=57 v=45
566990 On ch=1 n=57 v=0
567000 On ch=1 n=45 v=45
567030 On ch=1 n=82 v=0
567030 On ch=1 n=85 v=0
567030 On ch=1 n=88 v=0
567030 On ch=1 n=91 v=0
567030 On ch=1 n=79 v=0
567040 On ch=1 n=82 v=45
567040 On ch=1 n=85 v=45
567040 On ch=1 n=88 v=45
567040 On ch=1 n=91 v=45
567040 On ch=1 n=79 v=45
567050 On ch=1 n=45 v=0
567060 On ch=1 n=57 v=45
567110 On ch=1 n=57 v=0
567120 On ch=1 n=45 v=45
567170 On ch=1 n=45 v=0
567180 On ch=1 n=57 v=45
567190 On ch=1 n=82 v=0
567190 On ch=1 n=85 v=0
567190 On ch=1 n=88 v=0
567190 On ch=1 n=91 v=0
567190 On ch=1 n=79 v=0
567200 On ch=1 n=82 v=45
567200 On ch=1 n=85 v=45
567200 On ch=1 n=88 v=45
567200 On ch=1 n=91 v=45
567200 On ch=1 n=79 v=45
567230 On ch=1 n=57 v=0
567240 On ch=1 n=45 v=45
567290 On ch=1 n=45 v=0
567300 On ch=1 n=57 v=45
567350 On ch=1 n=82 v=0
567350 On ch=1 n=85 v=0
567350 On ch=1 n=88 v=0
567350 On ch=1 n=91 v=0
567350 On ch=1 n=79 v=0
567350 On ch=1 n=57 v=0
567350 On ch=1 n=61 v=0
567350 On ch=1 n=57 v=0
568800 Par ch=1 c=64 v=0
568800 Tempo 238095
568800 TimeSig 3/4 24 8
568800 On ch=1 n=74 v=120
569520 TimeSig 6/4 24 8
569520 On ch=1 n=90 v=120
569520 On ch=1 n=78 v=120
569630 On ch=1 n=90 v=0
569640 On ch=1 n=81 v=120
569750 On ch=1 n=81 v=0
569760 On ch=1 n=83 v=120
569870 On ch=1 n=83 v=0
569880 On ch=1 n=85 v=120
569990 On ch=1 n=85 v=0
569990 On ch=1 n=78 v=0
570000 On ch=1 n=86 v=120
570000 On ch=1 n=78 v=120
570110 On ch=1 n=86 v=0
570120 On ch=1 n=88 v=120
570230 On ch=1 n=74 v=0
570230 On ch=1 n=88 v=0
570230 On ch=1 n=78 v=0
570240 On ch=1 n=90 v=120
570240 On ch=1 n=79 v=120
570240 On ch=1 n=74 v=120
570350 On ch=1 n=90 v=0
570360 On ch=1 n=88 v=120
570470 On ch=1 n=88 v=0
570480 On ch=1 n=86 v=120
570590 On ch=1 n=86 v=0
570600 On ch=1 n=88 v=120
570710 On ch=1 n=88 v=0
570710 On ch=1 n=79 v=0
570720 On ch=1 n=90 v=120
570720 On ch=1 n=81 v=120
570830 On ch=1 n=90 v=0
570840 On ch=1 n=91 v=120
570950 On ch=1 n=91 v=0
570950 On ch=1 n=81 v=0
570950 On ch=1 n=74 v=0
570960 On ch=1 n=93 v=120
570960 On ch=1 n=81 v=120
570960 On ch=1 n=73 v=120
571070 On ch=1 n=93 v=0
571080 On ch=1 n=95 v=120
571190 On ch=1 n=95 v=0
571200 On ch=1 n=93 v=120
571310 On ch=1 n=93 v=0
571320 On ch=1 n=91 v=120
571430 On ch=1 n=91 v=0
571430 On ch=1 n=81 v=0
571440 On ch=1 n=93 v=120
571440 On ch=1 n=79 v=120
571550 On ch=1 n=93 v=0
571560 On ch=1 n=91 v=120
571670 On ch=1 n=91 v=0
571670 On ch=1 n=79 v=0
571670 On ch=1 n=73 v=0
571680 On ch=1 n=90 v=120
571680 On ch=1 n=78 v=120
571680 On ch=1 n=69 v=120
571790 On ch=1 n=90 v=0
571800 On ch=1 n=91 v=120
571910 On ch=1 n=91 v=0
571920 On ch=1 n=90 v=120
572030 On ch=1 n=90 v=0
572040 On ch=1 n=88 v=120
572150 On ch=1 n=88 v=0
572150 On ch=1 n=78 v=0
572160 On ch=1 n=90 v=120
572160 On ch=1 n=76 v=120
572270 On ch=1 n=90 v=0
572280 On ch=1 n=88 v=120
572390 On ch=1 n=88 v=0
572390 On ch=1 n=76 v=0
572390 On ch=1 n=69 v=0
572400 On ch=1 n=86 v=120
572400 On ch=1 n=74 v=120
572400 On ch=1 n=71 v=120
572510 On ch=1 n=86 v=0
572520 On ch=1 n=78 v=120
572539 Par ch=1 c=64 v=127
572630 On ch=1 n=78 v=0
572640 On ch=1 n=79 v=120
572750 On ch=1 n=79 v=0
572760 On ch=1 n=81 v=120
572870 On ch=1 n=81 v=0
572870 On ch=1 n=74 v=0
572880 On ch=1 n=83 v=120
572880 On ch=1 n=74 v=120
572990 On ch=1 n=83 v=0
573000 On ch=1 n=85 v=120
573110 On ch=1 n=85 v=0
573110 On ch=1 n=74 v=0
573110 On ch=1 n=71 v=0
573120 On ch=1 n=86 v=120
573120 On ch=1 n=76 v=120
573120 On ch=1 n=71 v=120
573230 On ch=1 n=86 v=0
573240 On ch=1 n=85 v=120
573350 On ch=1 n=85 v=0
573360 On ch=1 n=83 v=120
573470 On ch=1 n=83 v=0
573480 On ch=1 n=85 v=120
573590 On ch=1 n=85 v=0
573590 On ch=1 n=76 v=0
573600 On ch=1 n=86 v=120
573600 On ch=1 n=78 v=120
573710 On ch=1 n=86 v=0
573720 On ch=1 n=88 v=120
573802 Par ch=1 c=64 v=0
573830 On ch=1 n=88 v=0
573830 On ch=1 n=78 v=0
573830 On ch=1 n=71 v=0
573840 On ch=1 n=90 v=120
573840 On ch=1 n=78 v=120
573840 On ch=1 n=69 v=120
573950 On ch=1 n=90 v=0
573960 On ch=1 n=91 v=120
573977 Par ch=1 c=64 v=127
574070 On ch=1 n=91 v=0
574080 On ch=1 n=90 v=120
574190 On ch=1 n=90 v=0
574200 On ch=1 n=88 v=120
574310 On ch=1 n=88 v=0
574310 On ch=1 n=78 v=0
574320 On ch=1 n=90 v=120
574320 On ch=1 n=76 v=120
574430 On ch=1 n=90 v=0
574440 On ch=1 n=88 v=120
574550 On ch=1 n=88 v=0
574550 On ch=1 n=76 v=0
574550 On ch=1 n=69 v=0
574560 On ch=1 n=86 v=120
574560 On ch=1 n=74 v=120
574560 On ch=1 n=66 v=120
574670 On ch=1 n=86 v=0
574680 On ch=1 n=88 v=120
574790 On ch=1 n=88 v=0
574800 On ch=1 n=86 v=120
574910 On ch=1 n=86 v=0
574920 On ch=1 n=85 v=120
575030 On ch=1 n=85 v=0
575030 On ch=1 n=74 v=0
575040 On ch=1 n=86 v=120
575040 On ch=1 n=73 v=120
575150 On ch=1 n=86 v=0
575160 On ch=1 n=85 v=120
575270 On ch=1 n=85 v=0
575270 On ch=1 n=73 v=0
575270 On ch=1 n=66 v=0
575280 On ch=1 n=83 v=120
575280 On ch=1 n=71 v=120
575280 On ch=1 n=67 v=120
575306 Par ch=1 c=64 v=0
575390 On ch=1 n=83 v=0
575400 On ch=1 n=74 v=120
575443 Par ch=1 c=64 v=127
575510 On ch=1 n=74 v=0
575520 On ch=1 n=76 v=120
575630 On ch=1 n=76 v=0
575640 On ch=1 n=78 v=120
575750 On ch=1 n=78 v=0
575750 On ch=1 n=71 v=0
575760 On ch=1 n=79 v=120
575760 On ch=1 n=71 v=120
575870 On ch=1 n=79 v=0
575880 On ch=1 n=81 v=120
575990 On ch=1 n=81 v=0
575990 On ch=1 n=71 v=0
575990 On ch=1 n=67 v=0
576000 On ch=1 n=83 v=120
576000 On ch=1 n=73 v=120
576000 On ch=1 n=67 v=120
576110 On ch=1 n=83 v=0
576120 On ch=1 n=81 v=120
576230 On ch=1 n=81 v=0
576240 On ch=1 n=79 v=120
576350 On ch=1 n=79 v=0
576360 On ch=1 n=81 v=120
576470 On ch=1 n=81 v=0
576470 On ch=1 n=73 v=0
576480 On ch=1 n=83 v=120
576480 On ch=1 n=74 v=120
576590 On ch=1 n=83 v=0
576600 On ch=1 n=85 v=120
576638 Par ch=1 c=64 v=0
576710 On ch=1 n=85 v=0
576710 On ch=1 n=74 v=0
576710 On ch=1 n=67 v=0
576720 On ch=1 n=86 v=120
576720 On ch=1 n=74 v=120
576720 On ch=1 n=66 v=120
576756 Par ch=1 c=64 v=127
576830 On ch=1 n=86 v=0
576840 On ch=1 n=88 v=120
576950 On ch=1 n=88 v=0
576960 On ch=1 n=86 v=120
577070 On ch=1 n=86 v=0
577080 On ch=1 n=85 v=120
577190 On ch=1 n=85 v=0
577190 On ch=1 n=74 v=0
577200 On ch=1 n=86 v=120
577200 On ch=1 n=73 v=120
577310 On ch=1 n=86 v=0
577320 On ch=1 n=85 v=120
577430 On ch=1 n=85 v=0
577430 On ch=1 n=73 v=0
577430 On ch=1 n=66 v=0
577440 On ch=1 n=83 v=120
577440 On ch=1 n=71 v=120
577440 On ch=1 n=62 v=120
577550 On ch=1 n=83 v=0
577560 On ch=1 n=85 v=120
577670 On ch=1 n=85 v=0
577680 On ch=1 n=83 v=120
577790 On ch=1 n=83 v=0
577800 On ch=1 n=81 v=120
577910 On ch=1 n=81 v=0
577910 On ch=1 n=71 v=0
577920 On ch=1 n=83 v=120
577920 On ch=1 n=69 v=120
578030 On ch=1 n=83 v=0
578040 On ch=1 n=81 v=120
578097 Par ch=1 c=64 v=0
578150 On ch=1 n=81 v=0
578150 On ch=1 n=69 v=0
578150 On ch=1 n=62 v=0
578160 On ch=1 n=79 v=120
578160 On ch=1 n=71 v=120
578160 On ch=1 n=67 v=120
578160 On ch=1 n=59 v=120
578270 On ch=1 n=79 v=0
578280 On ch=1 n=81 v=120
578354 Par ch=1 c=64 v=127
578390 On ch=1 n=81 v=0
578400 On ch=1 n=79 v=120
578510 On ch=1 n=79 v=0
578520 On ch=1 n=78 v=120
578630 On ch=1 n=78 v=0
578630 On ch=1 n=67 v=0
578640 On ch=1 n=79 v=120
578640 On ch=1 n=66 v=120
578750 On ch=1 n=79 v=0
578760 On ch=1 n=78 v=120
578870 On ch=1 n=78 v=0
578870 On ch=1 n=71 v=0
578870 On ch=1 n=66 v=0
578870 On ch=1 n=59 v=0
578880 On ch=1 n=76 v=120
578880 On ch=1 n=71 v=120
578880 On ch=1 n=64 v=120
578880 On ch=1 n=59 v=120
578990 On ch=1 n=76 v=0
579000 On ch=1 n=78 v=120
579110 On ch=1 n=78 v=0
579120 On ch=1 n=76 v=120
579230 On ch=1 n=76 v=0
579240 On ch=1 n=74 v=120
579350 On ch=1 n=74 v=0
579350 On ch=1 n=64 v=0
579360 On ch=1 n=76 v=120
579360 On ch=1 n=62 v=120
579470 On ch=1 n=76 v=0
579480 On ch=1 n=74 v=120
579501 Par ch=1 c=64 v=0
579590 On ch=1 n=74 v=0
579590 On ch=1 n=71 v=0
579590 On ch=1 n=62 v=0
579590 On ch=1 n=59 v=0
579600 On ch=1 n=81 v=120
579600 On ch=1 n=69 v=120
579600 On ch=1 n=57 v=120
579683 Par ch=1 c=64 v=127
579710 On ch=1 n=69 v=0
579720 On ch=1 n=68 v=120
579830 On ch=1 n=81 v=0
579830 On ch=1 n=68 v=0
579840 On ch=1 n=69 v=120
579950 On ch=1 n=69 v=0
579960 On ch=1 n=71 v=120
580070 On ch=1 n=71 v=0
580080 On ch=1 n=73 v=120
580190 On ch=1 n=73 v=0
580200 On ch=1 n=71 v=120
580310 On ch=1 n=71 v=0
580310 On ch=1 n=57 v=0
580320 On ch=1 n=69 v=120
580320 On ch=1 n=57 v=120
580430 On ch=1 n=69 v=0
580440 On ch=1 n=73 v=120
580550 On ch=1 n=73 v=0
580560 On ch=1 n=76 v=120
580670 On ch=1 n=76 v=0
580680 On ch=1 n=68 v=120
580790 On ch=1 n=68 v=0
580800 On ch=1 n=69 v=120
580891 Par ch=1 c=64 v=0
581030 On ch=1 n=69 v=0
581030 On ch=1 n=57 v=0
581040 On ch=1 n=69 v=120
581040 On ch=1 n=61 v=120
581040 On ch=1 n=49 v=120
581150 On ch=1 n=49 v=0
581160 On ch=1 n=40 v=120
581255 Par ch=1 c=64 v=127
581270 On ch=1 n=40 v=0
581280 On ch=1 n=42 v=120
581390 On ch=1 n=42 v=0
581400 On ch=1 n=44 v=120
581510 On ch=1 n=61 v=0
581510 On ch=1 n=44 v=0
581520 On ch=1 n=61 v=120
581520 On ch=1 n=45 v=120
581630 On ch=1 n=45 v=0
581640 On ch=1 n=47 v=120
581750 On ch=1 n=69 v=0
581750 On ch=1 n=61 v=0
581750 On ch=1 n=47 v=0
581760 On ch=1 n=69 v=120
581760 On ch=1 n=62 v=120
581760 On ch=1 n=49 v=120
581870 On ch=1 n=49 v=0
581880 On ch=1 n=47 v=120
581990 On ch=1 n=47 v=0
582000 On ch=1 n=45 v=120
582110 On ch=1 n=45 v=0
582120 On ch=1 n=47 v=120
582230 On ch=1 n=62 v=0
582230 On ch=1 n=47 v=0
582240 On ch=1 n=64 v=120
582240 On ch=1 n=49 v=120
582350 On ch=1 n=49 v=0
582360 On ch=1 n=50 v=120
582426 Par ch=1 c=64 v=0
582470 On ch=1 n=69 v=0
582470 On ch=1 n=64 v=0
582470 On ch=1 n=50 v=0
582480 On ch=1 n=68 v=120
582480 On ch=1 n=59 v=120
582480 On ch=1 n=64 v=120
582480 On ch=1 n=52 v=120
582590 On ch=1 n=52 v=0
582600 On ch=1 n=54 v=120
582651 Par ch=1 c=64 v=127
582710 On ch=1 n=54 v=0
582720 On ch=1 n=52 v=120
582830 On ch=1 n=52 v=0
582840 On ch=1 n=50 v=120
582950 On ch=1 n=64 v=0
582950 On ch=1 n=50 v=0
582960 On ch=1 n=62 v=120
582960 On ch=1 n=52 v=120
583070 On ch=1 n=52 v=0
583080 On ch=1 n=50 v=120
583190 On ch=1 n=68 v=0
583190 On ch=1 n=59 v=0
583190 On ch=1 n=62 v=0
583190 On ch=1 n=50 v=0
583200 On ch=1 n=64 v=120
583200 On ch=1 n=61 v=120
583200 On ch=1 n=57 v=120
583200 On ch=1 n=49 v=120
583310 On ch=1 n=49 v=0
583320 On ch=1 n=50 v=120
583430 On ch=1 n=50 v=0
583440 On ch=1 n=49 v=120
583550 On ch=1 n=49 v=0
583560 On ch=1 n=47 v=120
583670 On ch=1 n=61 v=0
583670 On ch=1 n=57 v=0
583670 On ch=1 n=47 v=0
583680 On ch=1 n=59 v=120
583680 On ch=1 n=56 v=120
583680 On ch=1 n=49 v=120
583790 On ch=1 n=49 v=0
583800 On ch=1 n=47 v=120
583910 On ch=1 n=64 v=0
583910 On ch=1 n=59 v=0
583910 On ch=1 n=56 v=0
583910 On ch=1 n=47 v=0
583920 On ch=1 n=66 v=120
583920 On ch=1 n=62 v=120
583920 On ch=1 n=57 v=120
583920 On ch=1 n=45 v=120
584030 On ch=1 n=45 v=0
584040 On ch=1 n=37 v=120
584150 On ch=1 n=37 v=0
584160 On ch=1 n=38 v=120
584270 On ch=1 n=38 v=0
584280 On ch=1 n=40 v=120
584390 On ch=1 n=57 v=0
584390 On ch=1 n=40 v=0
584400 On ch=1 n=57 v=120
584400 On ch=1 n=42 v=120
584510 On ch=1 n=42 v=0
584520 On ch=1 n=44 v=120
584630 On ch=1 n=66 v=0
584630 On ch=1 n=62 v=0
584630 On ch=1 n=57 v=0
584630 On ch=1 n=44 v=0
584640 On ch=1 n=74 v=120
584640 On ch=1 n=66 v=120
584640 On ch=1 n=59 v=120
584640 On ch=1 n=45 v=120
584750 On ch=1 n=45 v=0
584760 On ch=1 n=44 v=120
584870 On ch=1 n=44 v=0
584872 Par ch=1 c=64 v=0
584880 On ch=1 n=42 v=120
584990 On ch=1 n=42 v=0
585000 On ch=1 n=44 v=120
585110 On ch=1 n=59 v=0
585110 On ch=1 n=44 v=0
585120 On ch=1 n=61 v=120
585120 On ch=1 n=45 v=120
585230 On ch=1 n=45 v=0
585240 On ch=1 n=47 v=120
585350 On ch=1 n=74 v=0
585350 On ch=1 n=66 v=0
585350 On ch=1 n=61 v=0
585350 On ch=1 n=47 v=0
585360 On ch=1 n=76 v=120
585360 On ch=1 n=69 v=120
585360 On ch=1 n=61 v=120
585360 On ch=1 n=49 v=120
585470 On ch=1 n=49 v=0
585480 On ch=1 n=50 v=120
585507 Par ch=1 c=64 v=127
585590 On ch=1 n=50 v=0
585600 On ch=1 n=49 v=120
585710 On ch=1 n=49 v=0
585720 On ch=1 n=47 v=120
585830 On ch=1 n=61 v=0
585830 On ch=1 n=47 v=0
585840 On ch=1 n=59 v=120
585840 On ch=1 n=49 v=120
585950 On ch=1 n=49 v=0
585960 On ch=1 n=47 v=120
586070 On ch=1 n=76 v=0
586070 On ch=1 n=69 v=0
586070 On ch=1 n=59 v=0
586070 On ch=1 n=47 v=0
586080 On ch=1 n=61 v=120
586080 On ch=1 n=64 v=120
586080 On ch=1 n=57 v=120
586080 On ch=1 n=45 v=120
586190 On ch=1 n=45 v=0
586200 On ch=1 n=47 v=120
586310 On ch=1 n=47 v=0
586320 On ch=1 n=45 v=120
586430 On ch=1 n=45 v=0
586440 On ch=1 n=43 v=120
586550 On ch=1 n=61 v=0
586550 On ch=1 n=64 v=0
586550 On ch=1 n=57 v=0
586550 On ch=1 n=43 v=0
586560 On ch=1 n=55 v=120
586560 On ch=1 n=45 v=120
586670 On ch=1 n=45 v=0
586680 On ch=1 n=43 v=120
586790 On ch=1 n=55 v=0
586790 On ch=1 n=43 v=0
586800 On ch=1 n=66 v=120
586800 On ch=1 n=62 v=120
586800 On ch=1 n=54 v=120
586800 On ch=1 n=42 v=120
586810 Par ch=1 c=64 v=0
586910 On ch=1 n=42 v=0
586920 On ch=1 n=33 v=120
587024 Par ch=1 c=64 v=127
587030 On ch=1 n=33 v=0
587040 On ch=1 n=35 v=120
587150 On ch=1 n=35 v=0
587160 On ch=1 n=37 v=120
587270 On ch=1 n=54 v=0
587270 On ch=1 n=37 v=0
587280 On ch=1 n=54 v=120
587280 On ch=1 n=38 v=120
587390 On ch=1 n=38 v=0
587400 On ch=1 n=40 v=120
587510 On ch=1 n=66 v=0
587510 On ch=1 n=62 v=0
587510 On ch=1 n=54 v=0
587510 On ch=1 n=40 v=0
587520 On ch=1 n=66 v=120
587520 On ch=1 n=62 v=120
587520 On ch=1 n=56 v=120
587520 On ch=1 n=42 v=120
587630 On ch=1 n=42 v=0
587640 On ch=1 n=40 v=120
587750 On ch=1 n=40 v=0
587760 On ch=1 n=38 v=120
587870 On ch=1 n=38 v=0
587880 On ch=1 n=40 v=120
587990 On ch=1 n=66 v=0
587990 On ch=1 n=62 v=0
587990 On ch=1 n=56 v=0
587990 On ch=1 n=40 v=0
588000 On ch=1 n=66 v=120
588000 On ch=1 n=62 v=120
588000 On ch=1 n=57 v=120
588000 On ch=1 n=42 v=120
588110 On ch=1 n=42 v=0
588120 On ch=1 n=44 v=120
588230 On ch=1 n=66 v=0
588230 On ch=1 n=62 v=0
588230 On ch=1 n=57 v=0
588230 On ch=1 n=44 v=0
588240 On ch=1 n=66 v=120
588240 On ch=1 n=61 v=120
588240 On ch=1 n=57 v=120
588240 On ch=1 n=45 v=120
588300 Par ch=1 c=64 v=0
588350 On ch=1 n=45 v=0
588360 On ch=1 n=47 v=120
588470 On ch=1 n=47 v=0
588480 On ch=1 n=45 v=120
588486 Par ch=1 c=64 v=127
588590 On ch=1 n=45 v=0
588600 On ch=1 n=43 v=120
588710 On ch=1 n=66 v=0
588710 On ch=1 n=43 v=0
588720 On ch=1 n=64 v=120
588720 On ch=1 n=45 v=120
588830 On ch=1 n=45 v=0
588840 On ch=1 n=43 v=120
588950 On ch=1 n=64 v=0
588950 On ch=1 n=61 v=0
588950 On ch=1 n=57 v=0
588950 On ch=1 n=43 v=0
588960 On ch=1 n=69 v=120
588960 On ch=1 n=62 v=120
588960 On ch=1 n=57 v=120
588960 On ch=1 n=42 v=120
589070 On ch=1 n=42 v=0
589080 On ch=1 n=43 v=120
589190 On ch=1 n=43 v=0
589200 On ch=1 n=42 v=120
589310 On ch=1 n=42 v=0
589320 On ch=1 n=40 v=120
589430 Par ch=1 c=64 v=0
589430 On ch=1 n=69 v=0
589430 On ch=1 n=62 v=0
589430 On ch=1 n=40 v=0
589440 On ch=1 n=67 v=120
589440 On ch=1 n=42 v=120
589550 On ch=1 n=42 v=0
589560 On ch=1 n=40 v=120
589670 On ch=1 n=67 v=0
589670 On ch=1 n=40 v=0
589670 On ch=1 n=57 v=0
589680 On ch=1 n=66 v=120
589680 On ch=1 n=55 v=120
589680 On ch=1 n=38 v=120
589790 On ch=1 n=38 v=0
589800 On ch=1 n=40 v=120
589910 On ch=1 n=40 v=0
589920 On ch=1 n=38 v=120
590030 On ch=1 n=38 v=0
590040 On ch=1 n=37 v=120
590150 On ch=1 n=66 v=0
590150 On ch=1 n=37 v=0
590160 On ch=1 n=64 v=120
590160 On ch=1 n=38 v=120
590270 On ch=1 n=38 v=0
590280 On ch=1 n=37 v=120
590390 On ch=1 n=64 v=0
590390 On ch=1 n=55 v=0
590390 On ch=1 n=37 v=0
590400 On ch=1 n=62 v=120
590400 On ch=1 n=55 v=120
590400 On ch=1 n=52 v=120
590400 On ch=1 n=35 v=120
590510 On ch=1 n=35 v=0
590520 On ch=1 n=37 v=120
590630 On ch=1 n=37 v=0
590640 On ch=1 n=35 v=120
590750 On ch=1 n=35 v=0
590760 On ch=1 n=33 v=120
590870 On ch=1 n=62 v=0
590870 On ch=1 n=33 v=0
590880 On ch=1 n=61 v=120
590880 On ch=1 n=35 v=120
590990 On ch=1 n=35 v=0
591000 On ch=1 n=33 v=120
591110 On ch=1 n=61 v=0
591110 On ch=1 n=55 v=0
591110 On ch=1 n=52 v=0
591110 On ch=1 n=33 v=0
591120 On ch=1 n=64 v=120
591120 On ch=1 n=54 v=120
591120 On ch=1 n=38 v=120
591230 On ch=1 n=38 v=0
591240 On ch=1 n=33 v=120
591350 On ch=1 n=33 v=0
591360 On ch=1 n=35 v=120
591470 On ch=1 n=35 v=0
591480 On ch=1 n=37 v=120
591590 On ch=1 n=64 v=0
591590 On ch=1 n=54 v=0
591590 On ch=1 n=37 v=0
591600 On ch=1 n=62 v=120
591600 On ch=1 n=38 v=120
591710 On ch=1 n=38 v=0
591720 On ch=1 n=37 v=120
591830 On ch=1 n=62 v=0
591830 On ch=1 n=37 v=0
591840 On ch=1 n=64 v=120
591840 On ch=1 n=38 v=120
591950 On ch=1 n=38 v=0
591960 On ch=1 n=42 v=120
592070 On ch=1 n=42 v=0
592080 On ch=1 n=45 v=120
592190 On ch=1 n=45 v=0
592200 On ch=1 n=49 v=120
592310 On ch=1 n=64 v=0
592310 On ch=1 n=49 v=0
592320 On ch=1 n=66 v=120
592320 On ch=1 n=50 v=120
592550 On ch=1 n=66 v=0
592550 On ch=1 n=50 v=0
592560 On ch=1 n=78 v=120
592560 On ch=1 n=66 v=120
592560 On ch=1 n=62 v=120
592560 On ch=1 n=50 v=120
592670 On ch=1 n=78 v=0
592680 On ch=1 n=69 v=120
592790 On ch=1 n=69 v=0
592800 On ch=1 n=71 v=120
592808 Par ch=1 c=64 v=127
592910 On ch=1 n=71 v=0
592920 On ch=1 n=73 v=120
593030 On ch=1 n=73 v=0
593030 On ch=1 n=66 v=0
593040 On ch=1 n=74 v=120
593040 On ch=1 n=66 v=120
593150 On ch=1 n=74 v=0
593160 On ch=1 n=76 v=120
593270 On ch=1 n=76 v=0
593270 On ch=1 n=66 v=0
593270 On ch=1 n=62 v=0
593270 On ch=1 n=50 v=0
593280 On ch=1 n=78 v=120
593280 On ch=1 n=67 v=120
593280 On ch=1 n=62 v=120
593280 On ch=1 n=50 v=120
593390 On ch=1 n=78 v=0
593400 On ch=1 n=76 v=120
593510 On ch=1 n=76 v=0
593520 On ch=1 n=74 v=120
593630 On ch=1 n=74 v=0
593640 On ch=1 n=76 v=120
593750 On ch=1 n=76 v=0
593750 On ch=1 n=67 v=0
593760 On ch=1 n=78 v=120
593760 On ch=1 n=69 v=120
593870 On ch=1 n=78 v=0
593880 On ch=1 n=79 v=120
593990 On ch=1 n=79 v=0
593990 On ch=1 n=69 v=0
593990 On ch=1 n=62 v=0
593990 On ch=1 n=50 v=0
594000 On ch=1 n=78 v=120
594000 On ch=1 n=69 v=120
594000 On ch=1 n=61 v=120
594000 On ch=1 n=49 v=120
594077 Par ch=1 c=64 v=0
594110 On ch=1 n=78 v=0
594120 On ch=1 n=79 v=120
594230 On ch=1 n=79 v=0
594240 On ch=1 n=78 v=120
594297 Par ch=1 c=64 v=127
594350 On ch=1 n=78 v=0
594360 On ch=1 n=76 v=120
594470 On ch=1 n=76 v=0
594470 On ch=1 n=69 v=0
594480 On ch=1 n=78 v=120
594480 On ch=1 n=67 v=120
594590 On ch=1 n=78 v=0
594600 On ch=1 n=76 v=120
594710 On ch=1 n=76 v=0
594710 On ch=1 n=67 v=0
594710 On ch=1 n=61 v=0
594710 On ch=1 n=49 v=0
594720 On ch=1 n=74 v=120
594720 On ch=1 n=66 v=120
594720 On ch=1 n=57 v=120
594720 On ch=1 n=45 v=120
594830 On ch=1 n=74 v=0
594840 On ch=1 n=76 v=120
594950 On ch=1 n=76 v=0
594960 On ch=1 n=74 v=120
595070 On ch=1 n=74 v=0
595080 On ch=1 n=73 v=120
595190 On ch=1 n=73 v=0
595190 On ch=1 n=66 v=0
595200 On ch=1 n=74 v=120
595200 On ch=1 n=64 v=120
595310 On ch=1 n=74 v=0
595320 On ch=1 n=73 v=120
595430 On ch=1 n=73 v=0
595430 On ch=1 n=64 v=0
595430 On ch=1 n=57 v=0
595430 On ch=1 n=45 v=0
595438 Par ch=1 c=64 v=0
595440 On ch=1 n=74 v=120
595440 On ch=1 n=62 v=120
595440 On ch=1 n=59 v=120
595440 On ch=1 n=47 v=120
595550 On ch=1 n=74 v=0
595560 On ch=1 n=66 v=120
595564 Par ch=1 c=64 v=127
595670 On ch=1 n=66 v=0
595680 On ch=1 n=67 v=120
595790 On ch=1 n=67 v=0
595800 On ch=1 n=69 v=120
595910 On ch=1 n=69 v=0
595910 On ch=1 n=62 v=0
595920 On ch=1 n=71 v=120
595920 On ch=1 n=62 v=120
596030 On ch=1 n=71 v=0
596040 On ch=1 n=73 v=120
596150 On ch=1 n=73 v=0
596150 On ch=1 n=62 v=0
596150 On ch=1 n=59 v=0
596150 On ch=1 n=47 v=0
596160 On ch=1 n=74 v=120
596160 On ch=1 n=64 v=120
596160 On ch=1 n=59 v=120
596160 On ch=1 n=47 v=120
596270 On ch=1 n=74 v=0
596280 On ch=1 n=73 v=120
596390 On ch=1 n=73 v=0
596400 On ch=1 n=71 v=120
596510 On ch=1 n=71 v=0
596520 On ch=1 n=73 v=120
596630 On ch=1 n=73 v=0
596630 On ch=1 n=64 v=0
596640 On ch=1 n=74 v=120
596640 On ch=1 n=66 v=120
596750 On ch=1 n=74 v=0
596760 On ch=1 n=76 v=120
596870 On ch=1 n=76 v=0
596870 On ch=1 n=66 v=0
596870 On ch=1 n=59 v=0
596870 On ch=1 n=47 v=0
596880 On ch=1 n=74 v=120
596880 On ch=1 n=66 v=120
596880 On ch=1 n=57 v=120
596880 On ch=1 n=45 v=120
596935 Par ch=1 c=64 v=0
596990 On ch=1 n=74 v=0
597000 On ch=1 n=76 v=120
597060 Par ch=1 c=64 v=127
597110 On ch=1 n=76 v=0
597120 On ch=1 n=74 v=120
597230 On ch=1 n=74 v=0
597240 On ch=1 n=73 v=120
597350 On ch=1 n=73 v=0
597350 On ch=1 n=66 v=0
597360 On ch=1 n=74 v=120
597360 On ch=1 n=64 v=120
597470 On ch=1 n=74 v=0
597480 On ch=1 n=73 v=120
597590 On ch=1 n=73 v=0
597590 On ch=1 n=64 v=0
597590 On ch=1 n=57 v=0
597590 On ch=1 n=45 v=0
597600 On ch=1 n=71 v=120
597600 On ch=1 n=62 v=120
597600 On ch=1 n=54 v=120
597600 On ch=1 n=42 v=120
597710 On ch=1 n=71 v=0
597720 On ch=1 n=73 v=120
597830 On ch=1 n=73 v=0
597840 On ch=1 n=71 v=120
597950 On ch=1 n=71 v=0
597960 On ch=1 n=69 v=120
598070 On ch=1 n=69 v=0
598070 On ch=1 n=62 v=0
598080 On ch=1 n=71 v=120
598080 On ch=1 n=60 v=120
598190 On ch=1 n=71 v=0
598200 On ch=1 n=69 v=120
598310 On ch=1 n=69 v=0
598310 On ch=1 n=60 v=0
598310 On ch=1 n=54 v=0
598310 On ch=1 n=42 v=0
598320 On ch=1 n=71 v=120
598320 On ch=1 n=59 v=120
598320 On ch=1 n=55 v=120
598320 On ch=1 n=43 v=120
598334 Par ch=1 c=64 v=0
598430 On ch=1 n=71 v=0
598440 On ch=1 n=62 v=120
598453 Par ch=1 c=64 v=127
598550 On ch=1 n=62 v=0
598560 On ch=1 n=64 v=120
598670 On ch=1 n=64 v=0
598680 On ch=1 n=66 v=120
598790 On ch=1 n=66 v=0
598790 On ch=1 n=59 v=0
598800 On ch=1 n=67 v=120
598800 On ch=1 n=59 v=120
598910 On ch=1 n=67 v=0
598920 On ch=1 n=69 v=120
599030 On ch=1 n=69 v=0
599030 On ch=1 n=59 v=0
599030 On ch=1 n=55 v=0
599030 On ch=1 n=43 v=0
599040 On ch=1 n=71 v=120
599040 On ch=1 n=61 v=120
599040 On ch=1 n=55 v=120
599040 On ch=1 n=43 v=120
599150 On ch=1 n=71 v=0
599160 On ch=1 n=69 v=120
599270 On ch=1 n=69 v=0
599280 On ch=1 n=67 v=120
599390 On ch=1 n=67 v=0
599400 On ch=1 n=69 v=120
599510 On ch=1 n=69 v=0
599510 On ch=1 n=61 v=0
599520 On ch=1 n=71 v=120
599520 On ch=1 n=62 v=120
599630 On ch=1 n=71 v=0
599640 On ch=1 n=73 v=120
599750 On ch=1 n=73 v=0
599750 On ch=1 n=62 v=0
599750 On ch=1 n=55 v=0
599750 On ch=1 n=43 v=0
599760 On ch=1 n=71 v=120
599760 On ch=1 n=62 v=120
599760 On ch=1 n=54 v=120
599760 On ch=1 n=42 v=120
599773 Par ch=1 c=64 v=0
599870 On ch=1 n=71 v=0
599880 On ch=1 n=73 v=120
599881 Par ch=1 c=64 v=127
599990 On ch=1 n=73 v=0
600000 On ch=1 n=71 v=120
600110 On ch=1 n=71 v=0
600120 On ch=1 n=69 v=120
600230 On ch=1 n=69 v=0
600230 On ch=1 n=62 v=0
600240 On ch=1 n=71 v=120
600240 On ch=1 n=61 v=120
600350 On ch=1 n=71 v=0
600360 On ch=1 n=69 v=120
600470 On ch=1 n=69 v=0
600470 On ch=1 n=61 v=0
600470 On ch=1 n=54 v=0
600470 On ch=1 n=42 v=0
600480 On ch=1 n=67 v=120
600480 On ch=1 n=59 v=120
600480 On ch=1 n=50 v=120
600480 On ch=1 n=38 v=120
600590 On ch=1 n=67 v=0
600600 On ch=1 n=69 v=120
600710 On ch=1 n=69 v=0
600720 On ch=1 n=67 v=120
600830 On ch=1 n=67 v=0
600840 On ch=1 n=66 v=120
600950 On ch=1 n=66 v=0
600950 On ch=1 n=59 v=0
600960 On ch=1 n=67 v=120
600960 On ch=1 n=57 v=120
601070 On ch=1 n=67 v=0
601080 On ch=1 n=66 v=120
601107 Par ch=1 c=64 v=0
601190 On ch=1 n=66 v=0
601190 On ch=1 n=57 v=0
601190 On ch=1 n=50 v=0
601190 On ch=1 n=38 v=0
601200 On ch=1 n=64 v=120
601200 On ch=1 n=55 v=120
601200 On ch=1 n=59 v=120
601200 On ch=1 n=47 v=120
601240 Par ch=1 c=64 v=127
601310 On ch=1 n=64 v=0
601320 On ch=1 n=66 v=120
601430 On ch=1 n=66 v=0
601440 On ch=1 n=64 v=120
601550 On ch=1 n=64 v=0
601560 On ch=1 n=62 v=120
601670 On ch=1 n=62 v=0
601670 On ch=1 n=55 v=0
601680 On ch=1 n=64 v=120
601680 On ch=1 n=54 v=120
601790 On ch=1 n=64 v=0
601800 On ch=1 n=62 v=120
601910 On ch=1 n=62 v=0
601910 On ch=1 n=54 v=0
601910 On ch=1 n=59 v=0
601910 On ch=1 n=47 v=0
601920 On ch=1 n=61 v=120
601920 On ch=1 n=52 v=120
601920 On ch=1 n=59 v=120
601920 On ch=1 n=47 v=120
602030 On ch=1 n=61 v=0
602040 On ch=1 n=62 v=120
602150 On ch=1 n=62 v=0
602160 On ch=1 n=61 v=120
602270 On ch=1 n=61 v=0
602280 On ch=1 n=59 v=120
602390 On ch=1 n=59 v=0
602390 On ch=1 n=52 v=0
602400 On ch=1 n=61 v=120
602400 On ch=1 n=50 v=120
602501 Par ch=1 c=64 v=0
602510 On ch=1 n=61 v=0
602520 On ch=1 n=59 v=120
602630 On ch=1 n=59 v=0
602630 On ch=1 n=50 v=0
602630 On ch=1 n=59 v=0
602630 On ch=1 n=47 v=0
602640 On ch=1 n=66 v=120
602640 On ch=1 n=57 v=120
602640 On ch=1 n=45 v=120
602750 On ch=1 n=66 v=0
602760 On ch=1 n=64 v=120
602870 On ch=1 n=64 v=0
602880 On ch=1 n=66 v=120
602990 On ch=1 n=66 v=0
603000 On ch=1 n=68 v=120
603110 On ch=1 n=68 v=0
603110 On ch=1 n=57 v=0
603110 On ch=1 n=45 v=0
603120 On ch=1 n=69 v=120
603120 On ch=1 n=61 v=120
603120 On ch=1 n=49 v=120
603230 On ch=1 n=69 v=0
603240 On ch=1 n=68 v=120
603350 On ch=1 n=68 v=0
603360 On ch=1 n=69 v=120
603470 On ch=1 n=69 v=0
603480 On ch=1 n=73 v=120
603590 On ch=1 n=73 v=0
603600 On ch=1 n=76 v=120
603710 On ch=1 n=76 v=0
603720 On ch=1 n=80 v=120
603830 On ch=1 n=80 v=0
603830 On ch=1 n=61 v=0
603830 On ch=1 n=49 v=0
603840 On ch=1 n=81 v=120
603840 On ch=1 n=59 v=120
603840 On ch=1 n=47 v=120
604070 On ch=1 n=81 v=0
604070 On ch=1 n=59 v=0
604070 On ch=1 n=47 v=0
604080 On ch=1 n=81 v=120
604080 On ch=1 n=69 v=120
604080 On ch=1 n=73 v=120
604080 On ch=1 n=57 v=120
604080 On ch=1 n=45 v=120
604190 On ch=1 n=57 v=0
604200 On ch=1 n=52 v=120
604310 On ch=1 n=52 v=0
604320 On ch=1 n=54 v=120
604430 On ch=1 n=54 v=0
604440 On ch=1 n=56 v=120
604550 On ch=1 n=73 v=0
604550 On ch=1 n=56 v=0
604560 On ch=1 n=73 v=120
604560 On ch=1 n=57 v=120
604670 On ch=1 n=57 v=0
604680 On ch=1 n=52 v=120
604790 On ch=1 n=81 v=0
604790 On ch=1 n=69 v=0
604790 On ch=1 n=73 v=0
604790 On ch=1 n=52 v=0
604790 On ch=1 n=45 v=0
604800 On ch=1 n=81 v=120
604800 On ch=1 n=69 v=120
604800 On ch=1 n=74 v=120
604800 On ch=1 n=59 v=120
604800 On ch=1 n=47 v=120
604910 On ch=1 n=59 v=0
604920 On ch=1 n=57 v=120
605030 On ch=1 n=57 v=0
605040 On ch=1 n=59 v=120
605150 On ch=1 n=59 v=0
605160 On ch=1 n=57 v=120
605270 On ch=1 n=74 v=0
605270 On ch=1 n=57 v=0
605270 On ch=1 n=47 v=0
605280 On ch=1 n=76 v=120
605280 On ch=1 n=61 v=120
605280 On ch=1 n=49 v=120
605390 On ch=1 n=61 v=0
605400 On ch=1 n=57 v=120
605510 On ch=1 n=81 v=0
605510 On ch=1 n=69 v=0
605510 On ch=1 n=76 v=0
605510 On ch=1 n=57 v=0
605510 On ch=1 n=49 v=0
605520 On ch=1 n=80 v=120
605520 On ch=1 n=68 v=120
605520 On ch=1 n=76 v=120
605520 On ch=1 n=64 v=120
605520 On ch=1 n=52 v=120
605630 On ch=1 n=64 v=0
605640 On ch=1 n=66 v=120
605750 On ch=1 n=66 v=0
605760 On ch=1 n=64 v=120
605774 Par ch=1 c=64 v=127
605870 On ch=1 n=64 v=0
605880 On ch=1 n=62 v=120
605990 On ch=1 n=76 v=0
605990 On ch=1 n=62 v=0
606000 On ch=1 n=74 v=120
606000 On ch=1 n=64 v=120
606110 On ch=1 n=64 v=0
606120 On ch=1 n=62 v=120
606230 On ch=1 n=80 v=0
606230 On ch=1 n=68 v=0
606230 On ch=1 n=74 v=0
606230 On ch=1 n=62 v=0
606230 On ch=1 n=52 v=0
606240 On ch=1 n=76 v=120
606240 On ch=1 n=64 v=120
606240 On ch=1 n=73 v=120
606240 On ch=1 n=61 v=120
606240 On ch=1 n=52 v=120
606350 On ch=1 n=61 v=0
606360 On ch=1 n=62 v=120
606470 On ch=1 n=62 v=0
606480 On ch=1 n=61 v=120
606590 On ch=1 n=61 v=0
606600 On ch=1 n=59 v=120
606669 Par ch=1 c=64 v=0
606710 On ch=1 n=73 v=0
606710 On ch=1 n=59 v=0
606720 On ch=1 n=71 v=120
606720 On ch=1 n=61 v=120
606830 On ch=1 n=61 v=0
606840 On ch=1 n=59 v=120
606950 On ch=1 n=76 v=0
606950 On ch=1 n=64 v=0
606950 On ch=1 n=71 v=0
606950 On ch=1 n=59 v=0
606950 On ch=1 n=52 v=0
606960 On ch=1 n=78 v=120
606960 On ch=1 n=66 v=120
606960 On ch=1 n=69 v=120
606960 On ch=1 n=57 v=120
606960 On ch=1 n=52 v=120
607070 On ch=1 n=57 v=0
607080 On ch=1 n=56 v=120
607190 On ch=1 n=56 v=0
607200 On ch=1 n=54 v=120
607310 On ch=1 n=54 v=0
607320 On ch=1 n=56 v=120
607430 On ch=1 n=69 v=0
607430 On ch=1 n=56 v=0
607430 On ch=1 n=52 v=0
607440 On ch=1 n=69 v=120
607440 On ch=1 n=57 v=120
607550 On ch=1 n=57 v=0
607560 On ch=1 n=54 v=120
607670 On ch=1 n=78 v=0
607670 On ch=1 n=66 v=0
607670 On ch=1 n=69 v=0
607670 On ch=1 n=54 v=0
607680 On ch=1 n=78 v=120
607680 On ch=1 n=66 v=120
607680 On ch=1 n=71 v=120
607680 On ch=1 n=59 v=120
607680 On ch=1 n=50 v=120
607790 On ch=1 n=59 v=0
607800 On ch=1 n=57 v=120
607910 On ch=1 n=57 v=0
607920 On ch=1 n=56 v=120
608030 On ch=1 n=56 v=0
608040 On ch=1 n=57 v=120
608150 On ch=1 n=71 v=0
608150 On ch=1 n=57 v=0
608150 On ch=1 n=50 v=0
608160 On ch=1 n=73 v=120
608160 On ch=1 n=59 v=120
608270 On ch=1 n=59 v=0
608280 On ch=1 n=61 v=120
608390 On ch=1 n=78 v=0
608390 On ch=1 n=66 v=0
608390 On ch=1 n=73 v=0
608390 On ch=1 n=61 v=0
608400 On ch=1 n=76 v=120
608400 On ch=1 n=64 v=120
608400 On ch=1 n=73 v=120
608400 On ch=1 n=61 v=120
608400 On ch=1 n=45 v=120
608510 On ch=1 n=61 v=0
608520 On ch=1 n=62 v=120
608572 Par ch=1 c=64 v=127
608630 On ch=1 n=62 v=0
608640 On ch=1 n=61 v=120
608750 On ch=1 n=61 v=0
608760 On ch=1 n=59 v=120
608870 On ch=1 n=73 v=0
608870 On ch=1 n=59 v=0
608870 On ch=1 n=45 v=0
608880 On ch=1 n=71 v=120
608880 On ch=1 n=61 v=120
608990 On ch=1 n=61 v=0
609000 On ch=1 n=59 v=120
609110 On ch=1 n=76 v=0
609110 On ch=1 n=64 v=0
609110 On ch=1 n=71 v=0
609110 On ch=1 n=59 v=0
609120 On ch=1 n=73 v=120
609120 On ch=1 n=61 v=120
609120 On ch=1 n=69 v=120
609120 On ch=1 n=57 v=120
609230 On ch=1 n=57 v=0
609240 On ch=1 n=59 v=120
609350 On ch=1 n=59 v=0
609360 On ch=1 n=57 v=120
609470 On ch=1 n=57 v=0
609480 On ch=1 n=55 v=120
609590 On ch=1 n=69 v=0
609590 On ch=1 n=55 v=0
609600 On ch=1 n=67 v=120
609600 On ch=1 n=57 v=120
609710 On ch=1 n=57 v=0
609720 On ch=1 n=55 v=120
609764 Par ch=1 c=64 v=0
609830 On ch=1 n=73 v=0
609830 On ch=1 n=61 v=0
609830 On ch=1 n=67 v=0
609830 On ch=1 n=55 v=0
609840 On ch=1 n=74 v=120
609840 On ch=1 n=62 v=120
609840 On ch=1 n=66 v=120
609840 On ch=1 n=54 v=120
609840 On ch=1 n=47 v=120
609950 On ch=1 n=54 v=0
609960 On ch=1 n=52 v=120
610070 On ch=1 n=52 v=0
610080 On ch=1 n=50 v=120
610190 On ch=1 n=50 v=0
610200 On ch=1 n=52 v=120
610310 On ch=1 n=66 v=0
610310 On ch=1 n=52 v=0
610320 On ch=1 n=66 v=120
610320 On ch=1 n=54 v=120
610430 On ch=1 n=54 v=0
610440 On ch=1 n=50 v=120
610550 On ch=1 n=74 v=0
610550 On ch=1 n=62 v=0
610550 On ch=1 n=66 v=0
610550 On ch=1 n=50 v=0
610550 On ch=1 n=47 v=0
610560 On ch=1 n=74 v=120
610560 On ch=1 n=62 v=120
610560 On ch=1 n=68 v=120
610560 On ch=1 n=52 v=120
610560 On ch=1 n=40 v=120
610670 On ch=1 n=52 v=0
610680 On ch=1 n=54 v=120
610790 On ch=1 n=54 v=0
610800 On ch=1 n=56 v=120
610910 On ch=1 n=56 v=0
610920 On ch=1 n=57 v=120
611030 On ch=1 n=68 v=0
611030 On ch=1 n=57 v=0
611040 On ch=1 n=69 v=120
611040 On ch=1 n=56 v=120
611150 On ch=1 n=56 v=0
611160 On ch=1 n=54 v=120
611270 On ch=1 n=74 v=0
611270 On ch=1 n=62 v=0
611270 On ch=1 n=69 v=0
611270 On ch=1 n=54 v=0
611270 On ch=1 n=40 v=0
611280 On ch=1 n=73 v=120
611280 On ch=1 n=61 v=120
611280 On ch=1 n=69 v=120
611280 On ch=1 n=54 v=120
611390 On ch=1 n=69 v=0
611400 On ch=1 n=71 v=120
611510 On ch=1 n=71 v=0
611520 On ch=1 n=69 v=120
611630 On ch=1 n=69 v=0
611640 On ch=1 n=67 v=120
611750 On ch=1 n=67 v=0
611750 On ch=1 n=54 v=0
611760 On ch=1 n=69 v=120
611760 On ch=1 n=64 v=120
611760 On ch=1 n=52 v=120
611870 On ch=1 n=69 v=0
611880 On ch=1 n=67 v=120
611990 On ch=1 n=73 v=0
611990 On ch=1 n=61 v=0
611990 On ch=1 n=67 v=0
611990 On ch=1 n=64 v=0
611990 On ch=1 n=52 v=0
612000 On ch=1 n=69 v=120
612000 On ch=1 n=66 v=120
612000 On ch=1 n=62 v=120
612000 On ch=1 n=50 v=120
612110 On ch=1 n=66 v=0
612120 On ch=1 n=67 v=120
612230 On ch=1 n=67 v=0
612240 On ch=1 n=66 v=120
612350 On ch=1 n=66 v=0
612360 On ch=1 n=64 v=120
612470 On ch=1 n=64 v=0
612470 On ch=1 n=62 v=0
612470 On ch=1 n=50 v=0
612480 On ch=1 n=66 v=120
612480 On ch=1 n=61 v=120
612480 On ch=1 n=49 v=120
612590 On ch=1 n=66 v=0
612600 On ch=1 n=64 v=120
612710 On ch=1 n=69 v=0
612710 On ch=1 n=64 v=0
612710 On ch=1 n=61 v=0
612710 On ch=1 n=49 v=0
612720 On ch=1 n=79 v=120
612720 On ch=1 n=67 v=120
612720 On ch=1 n=74 v=120
612720 On ch=1 n=59 v=120
612720 On ch=1 n=47 v=120
612830 On ch=1 n=74 v=0
612840 On ch=1 n=76 v=120
612950 On ch=1 n=76 v=0
612950 On ch=1 n=59 v=0
612950 On ch=1 n=47 v=0
612960 On ch=1 n=74 v=120
612960 On ch=1 n=57 v=120
612960 On ch=1 n=45 v=120
613070 On ch=1 n=74 v=0
613080 On ch=1 n=73 v=120
613190 On ch=1 n=73 v=0
613200 On ch=1 n=74 v=120
613310 On ch=1 n=74 v=0
613320 On ch=1 n=73 v=120
613430 On ch=1 n=79 v=0
613430 On ch=1 n=67 v=0
613430 On ch=1 n=73 v=0
613430 On ch=1 n=57 v=0
613430 On ch=1 n=45 v=0
613440 On ch=1 n=79 v=120
613440 On ch=1 n=67 v=120
613440 On ch=1 n=71 v=120
613440 On ch=1 n=62 v=120
613440 On ch=1 n=57 v=120
613550 On ch=1 n=71 v=0
613560 On ch=1 n=73 v=120
613670 On ch=1 n=73 v=0
613680 On ch=1 n=71 v=120
613790 On ch=1 n=71 v=0
613800 On ch=1 n=69 v=120
613910 On ch=1 n=69 v=0
613910 On ch=1 n=62 v=0
613920 On ch=1 n=76 v=120
613920 On ch=1 n=71 v=120
613920 On ch=1 n=61 v=120
614030 On ch=1 n=76 v=0
614030 On ch=1 n=71 v=0
614040 On ch=1 n=69 v=120
614150 On ch=1 n=79 v=0
614150 On ch=1 n=67 v=0
614150 On ch=1 n=69 v=0
614150 On ch=1 n=57 v=0
614150 On ch=1 n=61 v=0
614160 On ch=1 n=78 v=120
614160 On ch=1 n=66 v=120
614160 On ch=1 n=73 v=120
614160 On ch=1 n=58 v=120
614160 On ch=1 n=46 v=120
614270 On ch=1 n=73 v=0
614280 On ch=1 n=74 v=120
614390 On ch=1 n=74 v=0
614400 On ch=1 n=73 v=120
614510 On ch=1 n=73 v=0
614520 On ch=1 n=71 v=120
614630 On ch=1 n=71 v=0
614640 On ch=1 n=73 v=120
614750 On ch=1 n=73 v=0
614760 On ch=1 n=71 v=120
614870 On ch=1 n=78 v=0
614870 On ch=1 n=66 v=0
614870 On ch=1 n=71 v=0
614870 On ch=1 n=58 v=0
614870 On ch=1 n=46 v=0
614880 On ch=1 n=73 v=120
614880 On ch=1 n=54 v=120
614880 On ch=1 n=42 v=120
614990 On ch=1 n=73 v=0
615000 On ch=1 n=66 v=120
615090 Par ch=1 c=64 v=127
615110 On ch=1 n=66 v=0
615120 On ch=1 n=70 v=120
615230 On ch=1 n=70 v=0
615240 On ch=1 n=71 v=120
615350 On ch=1 n=71 v=0
615360 On ch=1 n=73 v=120
615470 On ch=1 n=73 v=0
615480 On ch=1 n=66 v=120
615590 On ch=1 n=66 v=0
615590 On ch=1 n=54 v=0
615590 On ch=1 n=42 v=0
615600 On ch=1 n=61 v=120
615600 On ch=1 n=64 v=120
615600 On ch=1 n=52 v=120
615703 Par ch=1 c=64 v=0
615710 On ch=1 n=61 v=0
615720 On ch=1 n=62 v=120
615828 Par ch=1 c=64 v=127
615830 On ch=1 n=62 v=0
615840 On ch=1 n=61 v=120
615950 On ch=1 n=61 v=0
615960 On ch=1 n=59 v=120
616070 On ch=1 n=59 v=0
616080 On ch=1 n=61 v=120
616190 On ch=1 n=61 v=0
616200 On ch=1 n=59 v=120
616310 On ch=1 n=59 v=0
616310 On ch=1 n=64 v=0
616310 On ch=1 n=52 v=0
616320 On ch=1 n=66 v=120
616320 On ch=1 n=58 v=120
616320 On ch=1 n=64 v=120
616320 On ch=1 n=52 v=120
616430 On ch=1 n=58 v=0
616440 On ch=1 n=59 v=120
616550 On ch=1 n=59 v=0
616552 Par ch=1 c=64 v=0
616560 On ch=1 n=58 v=120
616670 On ch=1 n=58 v=0
616680 On ch=1 n=56 v=120
616790 On ch=1 n=56 v=0
616800 On ch=1 n=58 v=120
616910 On ch=1 n=58 v=0
616920 On ch=1 n=61 v=120
617030 On ch=1 n=66 v=0
617030 On ch=1 n=61 v=0
617030 On ch=1 n=64 v=0
617030 On ch=1 n=52 v=0
617040 On ch=1 n=66 v=120
617040 On ch=1 n=59 v=120
617040 On ch=1 n=63 v=120
617040 On ch=1 n=51 v=120
617150 On ch=1 n=59 v=0
617160 On ch=1 n=61 v=120
617270 On ch=1 n=61 v=0
617273 Par ch=1 c=64 v=127
617280 On ch=1 n=59 v=120
617390 On ch=1 n=59 v=0
617400 On ch=1 n=58 v=120
617510 On ch=1 n=58 v=0
617510 On ch=1 n=63 v=0
617510 On ch=1 n=51 v=0
617520 On ch=1 n=59 v=120
617630 On ch=1 n=59 v=0
617640 On ch=1 n=61 v=120
617750 On ch=1 n=66 v=0
617750 On ch=1 n=61 v=0
617760 On ch=1 n=83 v=120
617760 On ch=1 n=71 v=120
617760 On ch=1 n=62 v=120
617870 On ch=1 n=62 v=0
617880 On ch=1 n=64 v=120
617990 On ch=1 n=64 v=0
618000 On ch=1 n=62 v=120
618110 On ch=1 n=62 v=0
618120 On ch=1 n=61 v=120
618230 On ch=1 n=61 v=0
618240 On ch=1 n=62 v=120
618350 On ch=1 n=62 v=0
618360 On ch=1 n=66 v=120
618362 Par ch=1 c=64 v=0
618470 On ch=1 n=83 v=0
618470 On ch=1 n=71 v=0
618470 On ch=1 n=66 v=0
618480 On ch=1 n=93 v=120
618480 On ch=1 n=81 v=120
618480 On ch=1 n=66 v=120
618590 On ch=1 n=66 v=0
618598 Par ch=1 c=64 v=127
618600 On ch=1 n=67 v=120
618710 On ch=1 n=67 v=0
618720 On ch=1 n=66 v=120
618830 On ch=1 n=66 v=0
618840 On ch=1 n=64 v=120
618950 On ch=1 n=64 v=0
618960 On ch=1 n=66 v=120
619070 On ch=1 n=66 v=0
619080 On ch=1 n=63 v=120
619190 On ch=1 n=93 v=0
619190 On ch=1 n=81 v=0
619190 On ch=1 n=63 v=0
619200 On ch=1 n=93 v=120
619200 On ch=1 n=81 v=120
619200 On ch=1 n=63 v=120
619200 On ch=1 n=59 v=120
619310 On ch=1 n=63 v=0
619320 On ch=1 n=64 v=120
619430 On ch=1 n=64 v=0
619440 On ch=1 n=63 v=120
619550 On ch=1 n=63 v=0
619560 On ch=1 n=61 v=120
619670 On ch=1 n=61 v=0
619680 On ch=1 n=63 v=120
619790 On ch=1 n=63 v=0
619800 On ch=1 n=59 v=120
619910 On ch=1 n=93 v=0
619910 On ch=1 n=81 v=0
619910 On ch=1 n=59 v=0
619910 On ch=1 n=59 v=0
619920 On ch=1 n=92 v=120
619920 On ch=1 n=80 v=120
619920 On ch=1 n=59 v=120
620030 On ch=1 n=59 v=0
620040 On ch=1 n=61 v=120
620046 Par ch=1 c=64 v=0
620150 On ch=1 n=61 v=0
620160 On ch=1 n=59 v=120
620270 On ch=1 n=59 v=0
620280 On ch=1 n=58 v=120
620390 On ch=1 n=58 v=0
620400 On ch=1 n=59 v=120
620510 On ch=1 n=59 v=0
620520 On ch=1 n=61 v=120
620630 On ch=1 n=92 v=0
620630 On ch=1 n=80 v=0
620630 On ch=1 n=61 v=0
620640 On ch=1 n=91 v=120
620640 On ch=1 n=79 v=120
620640 On ch=1 n=59 v=120
620640 On ch=1 n=52 v=120
620750 On ch=1 n=59 v=0
620760 On ch=1 n=61 v=120
620870 On ch=1 n=61 v=0
620880 On ch=1 n=59 v=120
620990 On ch=1 n=59 v=0
621000 On ch=1 n=57 v=120
621110 On ch=1 n=57 v=0
621120 On ch=1 n=59 v=120
621230 On ch=1 n=59 v=0
621240 On ch=1 n=64 v=120
621350 On ch=1 n=91 v=0
621350 On ch=1 n=79 v=0
621350 On ch=1 n=64 v=0
621350 On ch=1 n=52 v=0
621360 On ch=1 n=88 v=120
621360 On ch=1 n=91 v=120
621360 On ch=1 n=79 v=120
621360 On ch=1 n=62 v=120
621360 On ch=1 n=58 v=120
621470 On ch=1 n=62 v=0
621470 On ch=1 n=58 v=0
621480 On ch=1 n=64 v=120
621590 On ch=1 n=64 v=0
621600 On ch=1 n=62 v=120
621600 On ch=1 n=58 v=120
621710 On ch=1 n=62 v=0
621710 On ch=1 n=58 v=0
621720 On ch=1 n=50 v=120
621830 On ch=1 n=50 v=0
621840 On ch=1 n=58 v=120
621950 On ch=1 n=58 v=0
621960 On ch=1 n=50 v=120
622070 On ch=1 n=88 v=0
622070 On ch=1 n=91 v=0
622070 On ch=1 n=79 v=0
622070 On ch=1 n=50 v=0
622080 On ch=1 n=76 v=120
622080 On ch=1 n=79 v=120
622080 On ch=1 n=67 v=120
622080 On ch=1 n=61 v=120
622080 On ch=1 n=57 v=120
622190 On ch=1 n=61 v=0
622190 On ch=1 n=57 v=0
622200 On ch=1 n=64 v=120
622310 On ch=1 n=64 v=0
622320 On ch=1 n=61 v=120
622320 On ch=1 n=57 v=120
622430 On ch=1 n=61 v=0
622430 On ch=1 n=57 v=0
622440 On ch=1 n=49 v=120
622550 On ch=1 n=49 v=0
622560 On ch=1 n=57 v=120
622670 On ch=1 n=57 v=0
622680 On ch=1 n=49 v=120
622790 On ch=1 n=76 v=0
622790 On ch=1 n=79 v=0
622790 On ch=1 n=67 v=0
622790 On ch=1 n=49 v=0
622800 On ch=1 n=78 v=120
622800 On ch=1 n=66 v=120
622800 On ch=1 n=76 v=120
622800 On ch=1 n=50 v=120
622910 On ch=1 n=50 v=0
622920 On ch=1 n=55 v=120
623030 On ch=1 n=55 v=0
623040 On ch=1 n=59 v=120
623150 On ch=1 n=59 v=0
623160 On ch=1 n=61 v=120
623270 On ch=1 n=76 v=0
623270 On ch=1 n=61 v=0
623280 On ch=1 n=74 v=120
623280 On ch=1 n=62 v=120
623390 On ch=1 n=62 v=0
623400 On ch=1 n=64 v=120
623510 On ch=1 n=78 v=0
623510 On ch=1 n=66 v=0
623510 On ch=1 n=74 v=0
623510 On ch=1 n=64 v=0
623520 On ch=1 n=74 v=120
623520 On ch=1 n=66 v=120
623630 On ch=1 n=66 v=0
623640 On ch=1 n=67 v=120
623750 On ch=1 n=67 v=0
623760 On ch=1 n=66 v=120
623870 On ch=1 n=66 v=0
623880 On ch=1 n=64 v=120
623990 On ch=1 n=64 v=0
624000 On ch=1 n=66 v=120
624110 On ch=1 n=66 v=0
624120 On ch=1 n=64 v=120
624230 On ch=1 n=74 v=0
624230 On ch=1 n=64 v=0
624240 On ch=1 n=90 v=120
624240 On ch=1 n=78 v=120
624240 On ch=1 n=64 v=120
624260 Par ch=1 c=64 v=127
624350 On ch=1 n=90 v=0
624350 On ch=1 n=64 v=0
624360 On ch=1 n=81 v=120
624360 On ch=1 n=66 v=120
624470 Par ch=1 c=64 v=0
624470 On ch=1 n=81 v=0
624470 On ch=1 n=66 v=0
624480 On ch=1 n=83 v=120
624480 On ch=1 n=64 v=120
624590 On ch=1 n=83 v=0
624590 On ch=1 n=64 v=0
624600 On ch=1 n=85 v=120
624600 On ch=1 n=62 v=120
624659 Par ch=1 c=64 v=127
624710 On ch=1 n=85 v=0
624710 On ch=1 n=78 v=0
624710 On ch=1 n=62 v=0
624720 On ch=1 n=86 v=120
624720 On ch=1 n=78 v=120
624720 On ch=1 n=64 v=120
624830 On ch=1 n=86 v=0
624830 On ch=1 n=64 v=0
624840 On ch=1 n=90 v=120
624840 On ch=1 n=62 v=120
624950 On ch=1 n=90 v=0
624950 On ch=1 n=78 v=0
624950 On ch=1 n=62 v=0
624960 On ch=1 n=91 v=120
624960 On ch=1 n=79 v=120
624960 On ch=1 n=74 v=120
624960 On ch=1 n=64 v=120
625070 On ch=1 n=91 v=0
625080 On ch=1 n=86 v=120
625190 On ch=1 n=86 v=0
625200 On ch=1 n=91 v=120
625310 On ch=1 n=91 v=0
625320 On ch=1 n=86 v=120
625430 On ch=1 n=86 v=0
625430 On ch=1 n=79 v=0
625430 On ch=1 n=74 v=0
625430 On ch=1 n=64 v=0
625440 On ch=1 n=93 v=120
625440 On ch=1 n=81 v=120
625440 On ch=1 n=66 v=120
625550 On ch=1 n=93 v=0
625560 On ch=1 n=86 v=120
625670 On ch=1 n=86 v=0
625670 On ch=1 n=81 v=0
625670 On ch=1 n=66 v=0
625680 On ch=1 n=93 v=120
625680 On ch=1 n=81 v=120
625680 On ch=1 n=73 v=120
625680 On ch=1 n=64 v=120
625680 On ch=1 n=69 v=120
625736 Par ch=1 c=64 v=0
625790 On ch=1 n=93 v=0
625800 On ch=1 n=95 v=120
625856 Par ch=1 c=64 v=127
625910 On ch=1 n=95 v=0
625920 On ch=1 n=93 v=120
626030 On ch=1 n=93 v=0
626040 On ch=1 n=91 v=120
626150 On ch=1 n=91 v=0
626150 On ch=1 n=81 v=0
626150 On ch=1 n=69 v=0
626160 On ch=1 n=93 v=120
626160 On ch=1 n=67 v=120
626270 On ch=1 n=93 v=0
626280 On ch=1 n=91 v=120
626390 On ch=1 n=91 v=0
626390 On ch=1 n=67 v=0
626390 On ch=1 n=73 v=0
626390 On ch=1 n=64 v=0
626400 On ch=1 n=90 v=120
626400 On ch=1 n=78 v=120
626400 On ch=1 n=69 v=120
626400 On ch=1 n=66 v=120
626400 On ch=1 n=62 v=120
626510 On ch=1 n=90 v=0
626520 On ch=1 n=91 v=120
626630 On ch=1 n=91 v=0
626640 On ch=1 n=90 v=120
626750 On ch=1 n=90 v=0
626760 On ch=1 n=88 v=120
626870 On ch=1 n=88 v=0
626870 On ch=1 n=78 v=0
626870 On ch=1 n=66 v=0
626870 On ch=1 n=62 v=0
626880 On ch=1 n=90 v=120
626880 On ch=1 n=64 v=120
626880 On ch=1 n=61 v=120
626990 On ch=1 n=90 v=0
627000 On ch=1 n=88 v=120
627110 On ch=1 n=88 v=0
627110 On ch=1 n=64 v=0
627110 On ch=1 n=69 v=0
627110 On ch=1 n=61 v=0
627120 On ch=1 n=86 v=120
627120 On ch=1 n=74 v=120
627120 On ch=1 n=71 v=120
627120 On ch=1 n=66 v=120
627120 On ch=1 n=61 v=120
627129 Par ch=1 c=64 v=0
627230 On ch=1 n=86 v=0
627240 On ch=1 n=78 v=120
627350 On ch=1 n=78 v=0
627360 On ch=1 n=83 v=120
627470 On ch=1 n=83 v=0
627480 On ch=1 n=85 v=120
627590 On ch=1 n=85 v=0
627590 On ch=1 n=74 v=0
627590 On ch=1 n=61 v=0
627600 On ch=1 n=86 v=120
627600 On ch=1 n=74 v=120
627600 On ch=1 n=59 v=120
627710 On ch=1 n=86 v=0
627720 On ch=1 n=83 v=120
627830 On ch=1 n=83 v=0
627830 On ch=1 n=74 v=0
627830 On ch=1 n=71 v=0
627830 On ch=1 n=66 v=0
627830 On ch=1 n=59 v=0
627840 On ch=1 n=88 v=120
627840 On ch=1 n=76 v=120
627840 On ch=1 n=71 v=120
627840 On ch=1 n=61 v=120
627950 On ch=1 n=88 v=0
627960 On ch=1 n=83 v=120
628070 On ch=1 n=83 v=0
628080 On ch=1 n=88 v=120
628190 On ch=1 n=88 v=0
628200 On ch=1 n=83 v=120
628310 On ch=1 n=83 v=0
628310 On ch=1 n=76 v=0
628310 On ch=1 n=61 v=0
628320 On ch=1 n=90 v=120
628320 On ch=1 n=78 v=120
628320 On ch=1 n=62 v=120
628430 On ch=1 n=90 v=0
628440 On ch=1 n=83 v=120
628550 On ch=1 n=83 v=0
628550 On ch=1 n=78 v=0
628550 On ch=1 n=71 v=0
628550 On ch=1 n=62 v=0
628560 On ch=1 n=90 v=120
628560 On ch=1 n=66 v=120
628560 On ch=1 n=69 v=120
628560 On ch=1 n=66 v=120
628560 On ch=1 n=62 v=120
628670 On ch=1 n=90 v=0
628680 On ch=1 n=91 v=120
628733 Par ch=1 c=64 v=127
628790 On ch=1 n=91 v=0
628800 On ch=1 n=90 v=120
628910 On ch=1 n=90 v=0
628920 On ch=1 n=88 v=120
629030 On ch=1 n=88 v=0
629030 On ch=1 n=66 v=0
629030 On ch=1 n=66 v=0
629030 On ch=1 n=62 v=0
629040 On ch=1 n=90 v=120
629040 On ch=1 n=64 v=120
629040 On ch=1 n=61 v=120
629150 On ch=1 n=90 v=0
629160 On ch=1 n=88 v=120
629270 On ch=1 n=88 v=0
629270 On ch=1 n=64 v=0
629270 On ch=1 n=69 v=0
629270 On ch=1 n=61 v=0
629280 On ch=1 n=86 v=120
629280 On ch=1 n=62 v=120
629280 On ch=1 n=66 v=120
629280 On ch=1 n=62 v=120
629280 On ch=1 n=59 v=120
629390 On ch=1 n=86 v=0
629400 On ch=1 n=88 v=120
629510 On ch=1 n=88 v=0
629520 On ch=1 n=86 v=120
629630 On ch=1 n=86 v=0
629640 On ch=1 n=85 v=120
629750 On ch=1 n=85 v=0
629750 On ch=1 n=62 v=0
629750 On ch=1 n=62 v=0
629750 On ch=1 n=59 v=0
629760 On ch=1 n=86 v=120
629760 On ch=1 n=61 v=120
629760 On ch=1 n=57 v=120
629870 On ch=1 n=86 v=0
629880 On ch=1 n=85 v=120
629990 On ch=1 n=85 v=0
629990 On ch=1 n=61 v=0
629990 On ch=1 n=66 v=0
629990 On ch=1 n=57 v=0
630000 On ch=1 n=83 v=120
630000 On ch=1 n=71 v=120
630000 On ch=1 n=68 v=120
630000 On ch=1 n=64 v=120
630064 Par ch=1 c=64 v=0
630110 On ch=1 n=83 v=0
630120 On ch=1 n=76 v=120
630230 On ch=1 n=76 v=0
630240 On ch=1 n=80 v=120
630350 On ch=1 n=80 v=0
630360 On ch=1 n=81 v=120
630470 On ch=1 n=81 v=0
630470 On ch=1 n=71 v=0
630470 On ch=1 n=64 v=0
630480 On ch=1 n=83 v=120
630480 On ch=1 n=71 v=120
630480 On ch=1 n=62 v=120
630590 On ch=1 n=83 v=0
630600 On ch=1 n=76 v=120
630710 On ch=1 n=76 v=0
630710 On ch=1 n=71 v=0
630710 On ch=1 n=68 v=0
630710 On ch=1 n=62 v=0
630720 On ch=1 n=85 v=120
630720 On ch=1 n=73 v=120
630720 On ch=1 n=68 v=120
630720 On ch=1 n=52 v=120
630720 On ch=1 n=61 v=120
630830 On ch=1 n=85 v=0
630840 On ch=1 n=81 v=120
630950 On ch=1 n=81 v=0
630960 On ch=1 n=83 v=120
631070 On ch=1 n=83 v=0
631080 On ch=1 n=85 v=120
631190 On ch=1 n=85 v=0
631190 On ch=1 n=73 v=0
631190 On ch=1 n=61 v=0
631200 On ch=1 n=86 v=120
631200 On ch=1 n=74 v=120
631200 On ch=1 n=59 v=120
631310 On ch=1 n=86 v=0
631320 On ch=1 n=83 v=120
631430 On ch=1 n=83 v=0
631430 On ch=1 n=74 v=0
631430 On ch=1 n=68 v=0
631430 On ch=1 n=52 v=0
631430 On ch=1 n=59 v=0
631440 On ch=1 n=86 v=120
631440 On ch=1 n=78 v=120
631440 On ch=1 n=62 v=120
631440 On ch=1 n=66 v=120
631440 On ch=1 n=59 v=120
631550 On ch=1 n=86 v=0
631560 On ch=1 n=88 v=120
631670 On ch=1 n=88 v=0
631680 On ch=1 n=86 v=120
631790 On ch=1 n=86 v=0
631800 On ch=1 n=85 v=120
631910 On ch=1 n=85 v=0
631910 On ch=1 n=78 v=0
631910 On ch=1 n=62 v=0
631910 On ch=1 n=66 v=0
631910 On ch=1 n=59 v=0
631920 On ch=1 n=86 v=120
631920 On ch=1 n=76 v=120
631920 On ch=1 n=50 v=120
631920 On ch=1 n=47 v=120
632030 On ch=1 n=86 v=0
632040 On ch=1 n=85 v=120
632150 On ch=1 n=85 v=0
632150 On ch=1 n=76 v=0
632150 On ch=1 n=50 v=0
632150 On ch=1 n=47 v=0
632160 On ch=1 n=83 v=120
632160 On ch=1 n=74 v=120
632160 On ch=1 n=52 v=120
632160 On ch=1 n=49 v=120
632270 On ch=1 n=83 v=0
632280 On ch=1 n=85 v=120
632390 On ch=1 n=85 v=0
632400 On ch=1 n=83 v=120
632510 On ch=1 n=83 v=0
632520 On ch=1 n=81 v=120
632630 On ch=1 n=81 v=0
632630 On ch=1 n=74 v=0
632630 On ch=1 n=52 v=0
632630 On ch=1 n=49 v=0
632640 On ch=1 n=83 v=120
632640 On ch=1 n=73 v=120
632640 On ch=1 n=54 v=120
632640 On ch=1 n=50 v=120
632750 On ch=1 n=83 v=0
632760 On ch=1 n=81 v=120
632870 On ch=1 n=81 v=0
632870 On ch=1 n=73 v=0
632870 On ch=1 n=54 v=0
632870 On ch=1 n=50 v=0
632880 On ch=1 n=80 v=120
632880 On ch=1 n=71 v=120
632880 On ch=1 n=56 v=120
632880 On ch=1 n=52 v=120
632990 On ch=1 n=80 v=0
633000 On ch=1 n=81 v=120
633110 On ch=1 n=81 v=0
633120 On ch=1 n=80 v=120
633230 On ch=1 n=80 v=0
633240 On ch=1 n=78 v=120
633350 On ch=1 n=78 v=0
633350 On ch=1 n=71 v=0
633350 On ch=1 n=56 v=0
633350 On ch=1 n=52 v=0
633360 On ch=1 n=80 v=120
633360 On ch=1 n=69 v=120
633360 On ch=1 n=57 v=120
633360 On ch=1 n=54 v=120
633470 On ch=1 n=80 v=0
633480 On ch=1 n=78 v=120
633590 On ch=1 n=78 v=0
633590 On ch=1 n=69 v=0
633590 On ch=1 n=57 v=0
633590 On ch=1 n=54 v=0
633600 On ch=1 n=76 v=120
633600 On ch=1 n=68 v=120
633600 On ch=1 n=59 v=120
633600 On ch=1 n=56 v=120
633710 On ch=1 n=76 v=0
633720 On ch=1 n=78 v=120
633830 On ch=1 n=78 v=0
633840 On ch=1 n=76 v=120
633950 On ch=1 n=76 v=0
633960 On ch=1 n=73 v=120
634070 On ch=1 n=73 v=0
634070 On ch=1 n=59 v=0
634070 On ch=1 n=56 v=0
634080 On ch=1 n=74 v=120
634080 On ch=1 n=64 v=120
634080 On ch=1 n=52 v=120
634190 On ch=1 n=74 v=0
634200 On ch=1 n=71 v=120
634310 On ch=1 n=71 v=0
634310 On ch=1 n=68 v=0
634310 On ch=1 n=64 v=0
634310 On ch=1 n=52 v=0
634320 On ch=1 n=69 v=120
634320 On ch=1 n=62 v=120
634320 On ch=1 n=59 v=120
634430 On ch=1 n=62 v=0
634440 On ch=1 n=64 v=120
634550 On ch=1 n=64 v=0
634560 On ch=1 n=62 v=120
634670 On ch=1 n=62 v=0
634680 On ch=1 n=64 v=120
634790 On ch=1 n=69 v=0
634790 On ch=1 n=64 v=0
634790 On ch=1 n=59 v=0
634800 On ch=1 n=61 v=120
634800 On ch=1 n=57 v=120
634910 On ch=1 n=61 v=0
634920 On ch=1 n=64 v=120
635030 On ch=1 n=64 v=0
635030 On ch=1 n=57 v=0
635040 On ch=1 n=81 v=120
635040 On ch=1 n=69 v=120
635040 On ch=1 n=62 v=120
635040 On ch=1 n=59 v=120
635150 On ch=1 n=62 v=0
635160 On ch=1 n=64 v=120
635270 On ch=1 n=64 v=0
635280 On ch=1 n=62 v=120
635390 On ch=1 n=62 v=0
635400 On ch=1 n=64 v=120
635510 On ch=1 n=64 v=0
635510 On ch=1 n=59 v=0
635520 On ch=1 n=61 v=120
635640 On ch=1 n=64 v=120
635750 On ch=1 n=61 v=0
635750 On ch=1 n=64 v=0
635760 On ch=1 n=66 v=120
635760 On ch=1 n=61 v=120
635880 On ch=1 n=59 v=120
635907 Par ch=1 c=64 v=127
635990 On ch=1 n=59 v=0
636000 On ch=1 n=57 v=120
636110 On ch=1 n=57 v=0
636120 On ch=1 n=59 v=120
636230 On ch=1 n=61 v=0
636230 On ch=1 n=59 v=0
636240 On ch=1 n=61 v=120
636360 On ch=1 n=57 v=120
636470 On ch=1 n=69 v=0
636470 On ch=1 n=81 v=0
636470 On ch=1 n=66 v=0
636470 On ch=1 n=61 v=0
636470 On ch=1 n=57 v=0
636480 On ch=1 n=81 v=120
636480 On ch=1 n=69 v=120
636480 On ch=1 n=66 v=120
636480 On ch=1 n=63 v=120
636596 Par ch=1 c=64 v=0
636600 On ch=1 n=59 v=120
636710 On ch=1 n=59 v=0
636720 On ch=1 n=61 v=120
636786 Par ch=1 c=64 v=127
636830 On ch=1 n=61 v=0
636840 On ch=1 n=62 v=120
636950 On ch=1 n=63 v=0
636950 On ch=1 n=62 v=0
636960 On ch=1 n=64 v=120
637080 On ch=1 n=62 v=120
637105 Par ch=1 c=64 v=0
637190 On ch=1 n=81 v=0
637190 On ch=1 n=69 v=0
637190 On ch=1 n=66 v=0
637190 On ch=1 n=64 v=0
637190 On ch=1 n=62 v=0
637200 On ch=1 n=80 v=120
637200 On ch=1 n=68 v=120
637200 On ch=1 n=64 v=120
637320 On ch=1 n=66 v=120
637430 On ch=1 n=66 v=0
637440 On ch=1 n=64 v=120
637550 On ch=1 n=64 v=0
637560 On ch=1 n=62 v=120
637670 On ch=1 n=62 v=0
637680 On ch=1 n=64 v=120
637790 On ch=1 n=64 v=0
637800 On ch=1 n=62 v=120
637910 On ch=1 n=80 v=0
637910 On ch=1 n=68 v=0
637910 On ch=1 n=64 v=0
637910 On ch=1 n=62 v=0
637920 On ch=1 n=76 v=120
637920 On ch=1 n=64 v=120
637920 On ch=1 n=61 v=120
637920 On ch=1 n=47 v=120
638030 On ch=1 n=61 v=0
638040 On ch=1 n=62 v=120
638126 Par ch=1 c=64 v=127
638150 On ch=1 n=62 v=0
638160 On ch=1 n=61 v=120
638270 On ch=1 n=61 v=0
638280 On ch=1 n=59 v=120
638390 On ch=1 n=59 v=0
638400 On ch=1 n=61 v=120
638510 On ch=1 n=61 v=0
638520 On ch=1 n=59 v=120
638630 On ch=1 n=76 v=0
638630 On ch=1 n=64 v=0
638630 On ch=1 n=59 v=0
638640 On ch=1 n=62 v=120
638738 Par ch=1 c=64 v=0
638760 On ch=1 n=58 v=120
638870 On ch=1 n=58 v=0
638880 On ch=1 n=59 v=120
638990 On ch=1 n=59 v=0
639000 On ch=1 n=61 v=120
639007 Par ch=1 c=64 v=127
639110 On ch=1 n=62 v=0
639110 On ch=1 n=61 v=0
639120 On ch=1 n=62 v=120
639240 On ch=1 n=59 v=120
639350 On ch=1 n=47 v=0
639350 On ch=1 n=62 v=0
639350 On ch=1 n=59 v=0
639360 On ch=1 n=64 v=120
639360 On ch=1 n=59 v=120
639360 On ch=1 n=47 v=120
639466 Par ch=1 c=64 v=0
639480 On ch=1 n=61 v=120
639590 On ch=1 n=61 v=0
639600 On ch=1 n=62 v=120
639647 Par ch=1 c=64 v=127
639710 On ch=1 n=62 v=0
639720 On ch=1 n=64 v=120
639830 On ch=1 n=64 v=0
639830 On ch=1 n=64 v=0
639840 On ch=1 n=66 v=120
639960 On ch=1 n=64 v=120
640070 On ch=1 n=66 v=0
640070 On ch=1 n=59 v=0
640070 On ch=1 n=47 v=0
640070 On ch=1 n=64 v=0
640080 On ch=1 n=66 v=120
640080 On ch=1 n=61 v=120
640080 On ch=1 n=58 v=120
640080 On ch=1 n=46 v=120
640200 On ch=1 n=67 v=120
640256 Par ch=1 c=64 v=0
640310 On ch=1 n=67 v=0
640320 On ch=1 n=66 v=120
640426 Par ch=1 c=64 v=127
640430 On ch=1 n=66 v=0
640440 On ch=1 n=64 v=120
640550 On ch=1 n=66 v=0
640550 On ch=1 n=61 v=0
640550 On ch=1 n=58 v=0
640550 On ch=1 n=46 v=0
640550 On ch=1 n=64 v=0
640560 On ch=1 n=66 v=120
640670 On ch=1 n=66 v=0
640680 On ch=1 n=64 v=120
640680 On ch=1 n=42 v=120
640730 On ch=1 n=42 v=0
640740 On ch=1 n=54 v=120
640790 On ch=1 n=64 v=0
640790 On ch=1 n=54 v=0
640800 On ch=1 n=90 v=120
640800 On ch=1 n=78 v=120
640800 On ch=1 n=62 v=120
640800 On ch=1 n=59 v=120
640883 Par ch=1 c=64 v=0
640910 On ch=1 n=62 v=0
640920 On ch=1 n=64 v=120
640973 Par ch=1 c=64 v=127
641030 On ch=1 n=64 v=0
641040 On ch=1 n=62 v=120
641150 On ch=1 n=62 v=0
641160 On ch=1 n=61 v=120
641270 On ch=1 n=61 v=0
641270 On ch=1 n=59 v=0
641280 On ch=1 n=62 v=120
641280 On ch=1 n=57 v=120
641390 On ch=1 n=62 v=0
641400 On ch=1 n=61 v=120
641449 Par ch=1 c=64 v=0
641510 On ch=1 n=61 v=0
641510 On ch=1 n=57 v=0
641520 On ch=1 n=59 v=120
641520 On ch=1 n=59 v=120
641520 On ch=1 n=50 v=120
641630 On ch=1 n=59 v=0
641640 On ch=1 n=54 v=120
641750 On ch=1 n=54 v=0
641760 On ch=1 n=56 v=120
641870 On ch=1 n=56 v=0
641880 On ch=1 n=58 v=120
641934 Par ch=1 c=64 v=127
641990 On ch=1 n=58 v=0
642000 On ch=1 n=59 v=120
642110 On ch=1 n=59 v=0
642120 On ch=1 n=54 v=120
642230 On ch=1 n=78 v=0
642230 On ch=1 n=90 v=0
642230 On ch=1 n=59 v=0
642230 On ch=1 n=54 v=0
642230 On ch=1 n=50 v=0
642240 On ch=1 n=86 v=120
642240 On ch=1 n=90 v=120
642240 On ch=1 n=78 v=120
642240 On ch=1 n=61 v=120
642240 On ch=1 n=47 v=120
642360 On ch=1 n=54 v=120
642363 Par ch=1 c=64 v=0
642470 On ch=1 n=54 v=0
642480 On ch=1 n=61 v=120
642590 On ch=1 n=61 v=0
642600 On ch=1 n=54 v=120
642710 On ch=1 n=54 v=0
642720 On ch=1 n=62 v=120
642830 On ch=1 n=62 v=0
642840 On ch=1 n=54 v=120
642950 On ch=1 n=86 v=0
642950 On ch=1 n=90 v=0
642950 On ch=1 n=78 v=0
642950 On ch=1 n=61 v=0
642950 On ch=1 n=47 v=0
642950 On ch=1 n=54 v=0
642960 On ch=1 n=85 v=120
642960 On ch=1 n=89 v=120
642960 On ch=1 n=77 v=120
642960 On ch=1 n=61 v=120
642960 On ch=1 n=49 v=120
643070 On ch=1 n=61 v=0
643080 On ch=1 n=62 v=120
643190 On ch=1 n=62 v=0
643193 Par ch=1 c=64 v=127
643200 On ch=1 n=61 v=120
643310 On ch=1 n=61 v=0
643320 On ch=1 n=59 v=120
643430 On ch=1 n=59 v=0
643440 On ch=1 n=61 v=120
643550 On ch=1 n=61 v=0
643560 On ch=1 n=59 v=120
643670 On ch=1 n=85 v=0
643670 On ch=1 n=89 v=0
643670 On ch=1 n=77 v=0
643670 On ch=1 n=59 v=0
643670 On ch=1 n=49 v=0
643680 On ch=1 n=65 v=120
643680 On ch=1 n=73 v=120
643680 On ch=1 n=61 v=120
643680 On ch=1 n=58 v=120
643680 On ch=1 n=49 v=120
643790 On ch=1 n=58 v=0
643800 On ch=1 n=59 v=120
643910 On ch=1 n=59 v=0
643920 On ch=1 n=58 v=120
644030 On ch=1 n=58 v=0
644040 On ch=1 n=56 v=120
644150 On ch=1 n=56 v=0
644160 On ch=1 n=58 v=120
644269 Par ch=1 c=64 v=0
644270 On ch=1 n=58 v=0
644280 On ch=1 n=56 v=120
644390 On ch=1 n=65 v=0
644390 On ch=1 n=73 v=0
644390 On ch=1 n=61 v=0
644390 On ch=1 n=56 v=0
644390 On ch=1 n=49 v=0
644400 On ch=1 n=73 v=120
644400 On ch=1 n=76 v=120
644400 On ch=1 n=64 v=120
644400 On ch=1 n=58 v=120
644400 On ch=1 n=42 v=120
644508 Par ch=1 c=64 v=127
644520 On ch=1 n=49 v=120
644630 On ch=1 n=49 v=0
644640 On ch=1 n=54 v=120
644750 On ch=1 n=54 v=0
644760 On ch=1 n=56 v=120
644870 On ch=1 n=58 v=0
644870 On ch=1 n=56 v=0
644880 On ch=1 n=58 v=120
645000 On ch=1 n=54 v=120
645110 On ch=1 n=73 v=0
645110 On ch=1 n=76 v=0
645110 On ch=1 n=64 v=0
645110 On ch=1 n=58 v=0
645110 On ch=1 n=42 v=0
645110 On ch=1 n=54 v=0
645120 On ch=1 n=85 v=120
645120 On ch=1 n=88 v=120
645120 On ch=1 n=76 v=120
645120 On ch=1 n=59 v=120
645240 On ch=1 n=54 v=120
645350 On ch=1 n=54 v=0
645360 On ch=1 n=59 v=120
645470 On ch=1 n=59 v=0
645480 On ch=1 n=54 v=120
645590 On ch=1 n=59 v=0
645590 On ch=1 n=54 v=0
645600 On ch=1 n=61 v=120
645706 Par ch=1 c=64 v=0
645720 On ch=1 n=54 v=120
645830 On ch=1 n=85 v=0
645830 On ch=1 n=88 v=0
645830 On ch=1 n=76 v=0
645830 On ch=1 n=61 v=0
645830 On ch=1 n=54 v=0
645840 On ch=1 n=83 v=120
645840 On ch=1 n=87 v=120
645840 On ch=1 n=75 v=120
645840 On ch=1 n=61 v=120
645840 On ch=1 n=47 v=120
645960 On ch=1 n=54 v=120
646070 On ch=1 n=54 v=0
646080 On ch=1 n=61 v=120
646190 On ch=1 n=61 v=0
646200 On ch=1 n=54 v=120
646310 On ch=1 n=54 v=0
646320 On ch=1 n=59 v=120
646430 On ch=1 n=59 v=0
646440 On ch=1 n=54 v=120
646550 On ch=1 n=83 v=0
646550 On ch=1 n=87 v=0
646550 On ch=1 n=75 v=0
646550 On ch=1 n=61 v=0
646550 On ch=1 n=47 v=0
646550 On ch=1 n=54 v=0
646560 On ch=1 n=74 v=120
646560 On ch=1 n=83 v=120
646560 On ch=1 n=71 v=120
646560 On ch=1 n=61 v=120
646560 On ch=1 n=61 v=120
646670 On ch=1 n=61 v=0
646680 On ch=1 n=54 v=120
646790 On ch=1 n=54 v=0
646800 On ch=1 n=61 v=120
646910 On ch=1 n=61 v=0
646920 On ch=1 n=54 v=120
647030 On ch=1 n=61 v=0
647030 On ch=1 n=54 v=0
647040 On ch=1 n=62 v=120
647270 On ch=1 n=74 v=0
647270 On ch=1 n=83 v=0
647270 On ch=1 n=71 v=0
647270 On ch=1 n=62 v=0
647280 On ch=1 n=62 v=120
647280 On ch=1 n=35 v=120
647390 On ch=1 n=35 v=0
647400 On ch=1 n=30 v=120
647510 On ch=1 n=30 v=0
647520 On ch=1 n=32 v=120
647630 On ch=1 n=32 v=0
647640 On ch=1 n=34 v=120
647750 On ch=1 n=62 v=0
647750 On ch=1 n=34 v=0
647760 On ch=1 n=62 v=120
647760 On ch=1 n=35 v=120
647870 On ch=1 n=35 v=0
647880 On ch=1 n=37 v=120
647990 On ch=1 n=62 v=0
647990 On ch=1 n=37 v=0
648000 On ch=1 n=71 v=120
648000 On ch=1 n=59 v=120
648000 On ch=1 n=64 v=120
648000 On ch=1 n=38 v=120
648110 On ch=1 n=38 v=0
648120 On ch=1 n=37 v=120
648230 On ch=1 n=37 v=0
648240 On ch=1 n=35 v=120
648350 On ch=1 n=35 v=0
648360 On ch=1 n=37 v=120
648470 On ch=1 n=64 v=0
648470 On ch=1 n=37 v=0
648480 On ch=1 n=66 v=120
648480 On ch=1 n=38 v=120
648590 On ch=1 n=38 v=0
648600 On ch=1 n=40 v=120
648710 On ch=1 n=71 v=0
648710 On ch=1 n=59 v=0
648710 On ch=1 n=66 v=0
648710 On ch=1 n=40 v=0
648720 On ch=1 n=70 v=120
648720 On ch=1 n=58 v=120
648720 On ch=1 n=66 v=120
648720 On ch=1 n=64 v=120
648720 On ch=1 n=42 v=120
648830 On ch=1 n=42 v=0
648840 On ch=1 n=43 v=120
648950 On ch=1 n=43 v=0
648960 On ch=1 n=42 v=120
649070 On ch=1 n=42 v=0
649080 On ch=1 n=40 v=120
649190 On ch=1 n=66 v=0
649190 On ch=1 n=64 v=0
649190 On ch=1 n=40 v=0
649200 On ch=1 n=61 v=120
649200 On ch=1 n=42 v=120
649310 On ch=1 n=42 v=0
649320 On ch=1 n=40 v=120
649430 On ch=1 n=70 v=0
649430 On ch=1 n=58 v=0
649430 On ch=1 n=61 v=0
649430 On ch=1 n=40 v=0
649440 On ch=1 n=66 v=120
649440 On ch=1 n=62 v=120
649440 On ch=1 n=59 v=120
649440 On ch=1 n=38 v=120
649550 On ch=1 n=38 v=0
649560 On ch=1 n=40 v=120
649670 On ch=1 n=40 v=0
649680 On ch=1 n=38 v=120
649790 On ch=1 n=38 v=0
649800 On ch=1 n=37 v=120
649910 On ch=1 n=62 v=0
649910 On ch=1 n=59 v=0
649910 On ch=1 n=37 v=0
649920 On ch=1 n=64 v=120
649920 On ch=1 n=57 v=120
649920 On ch=1 n=38 v=120
650030 On ch=1 n=38 v=0
650040 On ch=1 n=37 v=120
650150 On ch=1 n=66 v=0
650150 On ch=1 n=64 v=0
650150 On ch=1 n=57 v=0
650150 On ch=1 n=37 v=0
650160 On ch=1 n=70 v=120
650160 On ch=1 n=76 v=120
650160 On ch=1 n=64 v=120
650160 On ch=1 n=54 v=120
650160 On ch=1 n=49 v=120
650270 On ch=1 n=49 v=0
650280 On ch=1 n=42 v=120
650390 On ch=1 n=54 v=0
650390 On ch=1 n=42 v=0
650400 On ch=1 n=44 v=120
650510 On ch=1 n=44 v=0
650520 On ch=1 n=46 v=120
650630 On ch=1 n=46 v=0
650640 On ch=1 n=47 v=120
650750 On ch=1 n=47 v=0
650760 On ch=1 n=49 v=120
650870 On ch=1 n=70 v=0
650870 On ch=1 n=76 v=0
650870 On ch=1 n=64 v=0
650870 On ch=1 n=49 v=0
650880 On ch=1 n=71 v=120
650880 On ch=1 n=75 v=120
650880 On ch=1 n=63 v=120
650880 On ch=1 n=54 v=120
650880 On ch=1 n=51 v=120
650990 On ch=1 n=51 v=0
651000 On ch=1 n=47 v=120
651110 On ch=1 n=54 v=0
651110 On ch=1 n=47 v=0
651120 On ch=1 n=49 v=120
651230 On ch=1 n=49 v=0
651240 On ch=1 n=51 v=120
651350 On ch=1 n=71 v=0
651350 On ch=1 n=75 v=0
651350 On ch=1 n=63 v=0
651350 On ch=1 n=51 v=0
651360 On ch=1 n=70 v=120
651360 On ch=1 n=73 v=120
651360 On ch=1 n=61 v=120
651360 On ch=1 n=52 v=120
651470 On ch=1 n=52 v=0
651480 On ch=1 n=47 v=120
651590 On ch=1 n=70 v=0
651590 On ch=1 n=73 v=0
651590 On ch=1 n=61 v=0
651590 On ch=1 n=47 v=0
651600 On ch=1 n=71 v=120
651600 On ch=1 n=75 v=120
651600 On ch=1 n=63 v=120
651600 On ch=1 n=54 v=120
651710 On ch=1 n=54 v=0
651720 On ch=1 n=56 v=120
651830 On ch=1 n=56 v=0
651840 On ch=1 n=54 v=120
651950 On ch=1 n=54 v=0
651960 On ch=1 n=51 v=120
652070 On ch=1 n=51 v=0
652080 On ch=1 n=52 v=120
652190 On ch=1 n=52 v=0
652200 On ch=1 n=51 v=120
652310 On ch=1 n=71 v=0
652310 On ch=1 n=75 v=0
652310 On ch=1 n=63 v=0
652310 On ch=1 n=51 v=0
652320 On ch=1 n=75 v=120
652320 On ch=1 n=78 v=120
652320 On ch=1 n=66 v=120
652320 On ch=1 n=49 v=120
652430 On ch=1 n=49 v=0
652440 On ch=1 n=51 v=120
652550 On ch=1 n=51 v=0
652560 On ch=1 n=49 v=120
652670 On ch=1 n=49 v=0
652680 On ch=1 n=47 v=120
652790 On ch=1 n=47 v=0
652800 On ch=1 n=49 v=120
652910 On ch=1 n=49 v=0
652920 On ch=1 n=47 v=120
653030 On ch=1 n=75 v=0
653030 On ch=1 n=78 v=0
653030 On ch=1 n=66 v=0
653030 On ch=1 n=47 v=0
653040 On ch=1 n=75 v=120
653040 On ch=1 n=81 v=120
653040 On ch=1 n=69 v=120
653040 On ch=1 n=59 v=120
653040 On ch=1 n=54 v=120
653150 On ch=1 n=54 v=0
653160 On ch=1 n=47 v=120
653270 On ch=1 n=59 v=0
653270 On ch=1 n=47 v=0
653280 On ch=1 n=49 v=120
653390 On ch=1 n=49 v=0
653400 On ch=1 n=51 v=120
653510 On ch=1 n=51 v=0
653520 On ch=1 n=52 v=120
653630 On ch=1 n=52 v=0
653640 On ch=1 n=54 v=120
653750 On ch=1 n=75 v=0
653750 On ch=1 n=81 v=0
653750 On ch=1 n=69 v=0
653750 On ch=1 n=54 v=0
653760 On ch=1 n=75 v=120
653760 On ch=1 n=80 v=120
653760 On ch=1 n=68 v=120
653760 On ch=1 n=59 v=120
653760 On ch=1 n=56 v=120
653870 On ch=1 n=56 v=0
653880 On ch=1 n=47 v=120
653990 On ch=1 n=59 v=0
653990 On ch=1 n=47 v=0
654000 On ch=1 n=54 v=120
654110 On ch=1 n=54 v=0
654120 On ch=1 n=56 v=120
654230 On ch=1 n=75 v=0
654230 On ch=1 n=80 v=0
654230 On ch=1 n=68 v=0
654230 On ch=1 n=56 v=0
654240 On ch=1 n=78 v=120
654240 On ch=1 n=66 v=120
654240 On ch=1 n=57 v=120
654350 On ch=1 n=57 v=0
654360 On ch=1 n=54 v=120
654470 On ch=1 n=78 v=0
654470 On ch=1 n=66 v=0
654470 On ch=1 n=54 v=0
654480 On ch=1 n=76 v=120
654480 On ch=1 n=64 v=120
654480 On ch=1 n=71 v=120
654480 On ch=1 n=57 v=120
654590 On ch=1 n=57 v=0
654600 On ch=1 n=59 v=120
654710 On ch=1 n=59 v=0
654720 On ch=1 n=57 v=120
654830 On ch=1 n=57 v=0
654840 On ch=1 n=56 v=120
654950 On ch=1 n=76 v=0
654950 On ch=1 n=64 v=0
654950 On ch=1 n=56 v=0
654960 On ch=1 n=80 v=120
654960 On ch=1 n=68 v=120
654960 On ch=1 n=57 v=120
655070 On ch=1 n=57 v=0
655080 On ch=1 n=56 v=120
655190 On ch=1 n=80 v=0
655190 On ch=1 n=68 v=0
655190 On ch=1 n=71 v=0
655190 On ch=1 n=56 v=0
655200 On ch=1 n=81 v=120
655200 On ch=1 n=69 v=120
655200 On ch=1 n=76 v=120
655200 On ch=1 n=54 v=120
655310 On ch=1 n=54 v=0
655320 On ch=1 n=56 v=120
655430 On ch=1 n=56 v=0
655440 On ch=1 n=54 v=120
655550 On ch=1 n=54 v=0
655560 On ch=1 n=52 v=120
655670 On ch=1 n=81 v=0
655670 On ch=1 n=69 v=0
655670 On ch=1 n=52 v=0
655680 On ch=1 n=83 v=120
655680 On ch=1 n=71 v=120
655680 On ch=1 n=56 v=120
655790 On ch=1 n=56 v=0
655800 On ch=1 n=52 v=120
655910 On ch=1 n=83 v=0
655910 On ch=1 n=71 v=0
655910 On ch=1 n=76 v=0
655910 On ch=1 n=52 v=0
655920 On ch=1 n=88 v=120
655920 On ch=1 n=76 v=120
655920 On ch=1 n=80 v=120
655920 On ch=1 n=64 v=120
655920 On ch=1 n=59 v=120
656030 On ch=1 n=59 v=0
656040 On ch=1 n=52 v=120
656150 On ch=1 n=64 v=0
656150 On ch=1 n=52 v=0
656160 On ch=1 n=56 v=120
656270 On ch=1 n=56 v=0
656280 On ch=1 n=57 v=120
656390 On ch=1 n=88 v=0
656390 On ch=1 n=76 v=0
656390 On ch=1 n=57 v=0
656400 On ch=1 n=86 v=120
656400 On ch=1 n=74 v=120
656400 On ch=1 n=59 v=120
656510 On ch=1 n=59 v=0
656520 On ch=1 n=52 v=120
656630 On ch=1 n=86 v=0
656630 On ch=1 n=74 v=0
656630 On ch=1 n=80 v=0
656630 On ch=1 n=52 v=0
656640 On ch=1 n=85 v=120
656640 On ch=1 n=73 v=120
656640 On ch=1 n=80 v=120
656640 On ch=1 n=64 v=120
656760 On ch=1 n=66 v=120
656870 On ch=1 n=64 v=0
656870 On ch=1 n=66 v=0
656880 On ch=1 n=64 v=120
656990 On ch=1 n=64 v=0
657000 On ch=1 n=62 v=120
657110 On ch=1 n=85 v=0
657110 On ch=1 n=73 v=0
657110 On ch=1 n=62 v=0
657120 On ch=1 n=83 v=120
657120 On ch=1 n=71 v=120
657120 On ch=1 n=64 v=120
657230 On ch=1 n=64 v=0
657240 On ch=1 n=62 v=120
657350 On ch=1 n=83 v=0
657350 On ch=1 n=71 v=0
657350 On ch=1 n=80 v=0
657350 On ch=1 n=62 v=0
657360 On ch=1 n=81 v=120
657360 On ch=1 n=69 v=120
657360 On ch=1 n=61 v=120
657470 On ch=1 n=61 v=0
657480 On ch=1 n=64 v=120
657590 On ch=1 n=64 v=0
657600 On ch=1 n=62 v=120
657710 On ch=1 n=62 v=0
657720 On ch=1 n=61 v=120
657830 On ch=1 n=61 v=0
657840 On ch=1 n=76 v=120
657840 On ch=1 n=62 v=120
657950 On ch=1 n=62 v=0
657960 On ch=1 n=61 v=120
658070 On ch=1 n=81 v=0
658070 On ch=1 n=69 v=0
658070 On ch=1 n=76 v=0
658070 On ch=1 n=61 v=0
658080 On ch=1 n=74 v=120
658080 On ch=1 n=81 v=120
658080 On ch=1 n=69 v=120
658080 On ch=1 n=59 v=120
658190 On ch=1 n=59 v=0
658200 On ch=1 n=61 v=120
658310 On ch=1 n=61 v=0
658320 On ch=1 n=59 v=120
658430 On ch=1 n=59 v=0
658440 On ch=1 n=57 v=120
658550 On ch=1 n=74 v=0
658550 On ch=1 n=57 v=0
658560 On ch=1 n=76 v=120
658560 On ch=1 n=61 v=120
658670 On ch=1 n=61 v=0
658680 On ch=1 n=59 v=120
658790 On ch=1 n=76 v=0
658790 On ch=1 n=81 v=0
658790 On ch=1 n=69 v=0
658790 On ch=1 n=59 v=0
658800 On ch=1 n=74 v=120
658800 On ch=1 n=81 v=120
658800 On ch=1 n=69 v=120
658800 On ch=1 n=59 v=120
658910 On ch=1 n=59 v=0
658920 On ch=1 n=57 v=120
659030 On ch=1 n=57 v=0
659040 On ch=1 n=59 v=120
659150 On ch=1 n=59 v=0
659160 On ch=1 n=57 v=120
659270 On ch=1 n=74 v=0
659270 On ch=1 n=57 v=0
659280 On ch=1 n=73 v=120
659280 On ch=1 n=45 v=120
659390 On ch=1 n=45 v=0
659510 On ch=1 n=73 v=0
659510 On ch=1 n=81 v=0
659510 On ch=1 n=69 v=0
659520 On ch=1 n=81 v=120
659520 On ch=1 n=69 v=120
660230 On ch=1 n=81 v=0
660230 On ch=1 n=69 v=0
660240 On ch=1 n=81 v=127
660350 On ch=1 n=81 v=0
660360 On ch=1 n=93 v=127
660470 On ch=1 n=93 v=0
660480 On ch=1 n=81 v=127
660518 Par ch=1 c=64 v=127
660590 On ch=1 n=81 v=0
660600 On ch=1 n=93 v=127
660710 On ch=1 n=93 v=0
660720 On ch=1 n=81 v=127
660830 On ch=1 n=81 v=0
660840 On ch=1 n=93 v=127
660950 On ch=1 n=93 v=0
660960 On ch=1 n=81 v=127
660960 On ch=1 n=57 v=127
660960 On ch=1 n=45 v=127
661070 On ch=1 n=81 v=0
661080 On ch=1 n=93 v=127
661190 On ch=1 n=93 v=0
661200 On ch=1 n=81 v=127
661310 On ch=1 n=81 v=0
661320 On ch=1 n=93 v=127
661430 On ch=1 n=93 v=0
661440 On ch=1 n=81 v=127
661550 On ch=1 n=81 v=0
661560 On ch=1 n=93 v=127
661670 On ch=1 n=93 v=0
661670 On ch=1 n=57 v=0
661670 On ch=1 n=45 v=0
661680 On ch=1 n=81 v=127
661680 On ch=1 n=69 v=127
661680 On ch=1 n=57 v=127
661790 On ch=1 n=81 v=0
661800 On ch=1 n=93 v=127
661910 On ch=1 n=93 v=0
661920 On ch=1 n=81 v=127
662030 On ch=1 n=81 v=0
662040 On ch=1 n=93 v=127
662150 On ch=1 n=93 v=0
662160 On ch=1 n=81 v=127
662270 On ch=1 n=81 v=0
662280 On ch=1 n=93 v=127
662390 On ch=1 n=93 v=0
662390 On ch=1 n=69 v=0
662390 On ch=1 n=57 v=0
662400 On ch=1 n=81 v=127
662400 On ch=1 n=50 v=127
662400 On ch=1 n=38 v=127
662510 On ch=1 n=81 v=0
662520 On ch=1 n=93 v=127
662630 On ch=1 n=93 v=0
662640 On ch=1 n=81 v=127
662750 On ch=1 n=81 v=0
662760 On ch=1 n=93 v=127
662870 On ch=1 n=93 v=0
662880 On ch=1 n=81 v=127
662990 On ch=1 n=81 v=0
663000 On ch=1 n=93 v=127
663110 On ch=1 n=93 v=0
663120 On ch=1 n=81 v=127
663120 On ch=1 n=62 v=127
663120 On ch=1 n=66 v=127
663120 On ch=1 n=54 v=127
663230 On ch=1 n=81 v=0
663240 On ch=1 n=93 v=127
663350 On ch=1 n=93 v=0
663360 On ch=1 n=81 v=127
663470 On ch=1 n=81 v=0
663480 On ch=1 n=93 v=127
663590 On ch=1 n=38 v=0
663590 On ch=1 n=50 v=0
663590 On ch=1 n=93 v=0
663590 On ch=1 n=62 v=0
663590 On ch=1 n=66 v=0
663590 On ch=1 n=54 v=0
663600 On ch=1 n=81 v=127
663600 On ch=1 n=66 v=127
663600 On ch=1 n=62 v=127
663710 On ch=1 n=81 v=0
663720 On ch=1 n=93 v=127
663720 On ch=1 n=50 v=127
663830 On ch=1 n=93 v=0
663830 On ch=1 n=66 v=0
663830 On ch=1 n=62 v=0
663830 On ch=1 n=50 v=0
663840 On ch=1 n=81 v=127
663840 On ch=1 n=64 v=127
663840 On ch=1 n=67 v=127
663840 On ch=1 n=62 v=127
663950 On ch=1 n=81 v=0
663960 On ch=1 n=93 v=127
664070 On ch=1 n=93 v=0
664080 On ch=1 n=81 v=127
664190 On ch=1 n=81 v=0
664200 On ch=1 n=93 v=127
664310 On ch=1 n=93 v=0
664310 On ch=1 n=64 v=0
664310 On ch=1 n=67 v=0
664310 On ch=1 n=62 v=0
664320 On ch=1 n=81 v=127
664320 On ch=1 n=69 v=127
664320 On ch=1 n=66 v=127
664430 On ch=1 n=81 v=0
664440 On ch=1 n=93 v=127
664440 On ch=1 n=49 v=127
664550 On ch=1 n=93 v=0
664550 On ch=1 n=69 v=0
664550 On ch=1 n=66 v=0
664550 On ch=1 n=49 v=0
664556 Par ch=1 c=64 v=0
664560 On ch=1 n=81 v=127
664560 On ch=1 n=64 v=127
664560 On ch=1 n=69 v=127
664560 On ch=1 n=61 v=127
664670 On ch=1 n=81 v=0
664680 On ch=1 n=93 v=127
664703 Par ch=1 c=64 v=127
664790 On ch=1 n=93 v=0
664800 On ch=1 n=81 v=127
664910 On ch=1 n=81 v=0
664920 On ch=1 n=93 v=127
665030 On ch=1 n=93 v=0
665030 On ch=1 n=64 v=0
665030 On ch=1 n=69 v=0
665030 On ch=1 n=61 v=0
665040 On ch=1 n=81 v=127
665040 On ch=1 n=67 v=127
665150 On ch=1 n=81 v=0
665160 On ch=1 n=93 v=127
665160 On ch=1 n=45 v=127
665270 On ch=1 n=93 v=0
665270 On ch=1 n=67 v=0
665270 On ch=1 n=45 v=0
665280 On ch=1 n=81 v=127
665280 On ch=1 n=62 v=127
665280 On ch=1 n=66 v=127
665280 On ch=1 n=57 v=127
665390 On ch=1 n=81 v=0
665400 On ch=1 n=93 v=127
665510 On ch=1 n=93 v=0
665520 On ch=1 n=81 v=127
665630 On ch=1 n=81 v=0
665640 On ch=1 n=93 v=127
665750 On ch=1 n=93 v=0
665750 On ch=1 n=62 v=0
665750 On ch=1 n=66 v=0
665750 On ch=1 n=57 v=0
665760 On ch=1 n=81 v=127
665760 On ch=1 n=64 v=127
665870 On ch=1 n=81 v=0
665880 On ch=1 n=93 v=127
665990 On ch=1 n=93 v=0
665990 On ch=1 n=64 v=0
666000 On ch=1 n=81 v=127
666000 On ch=1 n=54 v=127
666000 On ch=1 n=59 v=127
666000 On ch=1 n=62 v=127
666000 On ch=1 n=47 v=127
666066 Par ch=1 c=64 v=0
666110 On ch=1 n=81 v=0
666120 On ch=1 n=93 v=127
666202 Par ch=1 c=64 v=127
666230 On ch=1 n=93 v=0
666240 On ch=1 n=81 v=127
666350 On ch=1 n=81 v=0
666360 On ch=1 n=93 v=127
666470 On ch=1 n=93 v=0
666470 On ch=1 n=54 v=0
666470 On ch=1 n=59 v=0
666470 On ch=1 n=62 v=0
666470 On ch=1 n=47 v=0
666480 On ch=1 n=81 v=127
666480 On ch=1 n=62 v=127
666480 On ch=1 n=59 v=127
666590 On ch=1 n=81 v=0
666600 On ch=1 n=93 v=127
666600 On ch=1 n=47 v=127
666710 On ch=1 n=93 v=0
666710 On ch=1 n=62 v=0
666710 On ch=1 n=59 v=0
666710 On ch=1 n=47 v=0
666720 On ch=1 n=81 v=127
666720 On ch=1 n=61 v=127
666720 On ch=1 n=64 v=127
666720 On ch=1 n=59 v=127
666830 On ch=1 n=81 v=0
666840 On ch=1 n=93 v=127
666950 On ch=1 n=93 v=0
666960 On ch=1 n=81 v=127
667070 On ch=1 n=81 v=0
667080 On ch=1 n=93 v=127
667190 On ch=1 n=93 v=0
667190 On ch=1 n=61 v=0
667190 On ch=1 n=64 v=0
667190 On ch=1 n=59 v=0
667200 On ch=1 n=81 v=127
667200 On ch=1 n=66 v=127
667200 On ch=1 n=62 v=127
667310 On ch=1 n=81 v=0
667320 On ch=1 n=93 v=127
667320 On ch=1 n=45 v=127
667382 Par ch=1 c=64 v=0
667430 On ch=1 n=93 v=0
667430 On ch=1 n=66 v=0
667430 On ch=1 n=62 v=0
667430 On ch=1 n=45 v=0
667440 On ch=1 n=81 v=127
667440 On ch=1 n=60 v=127
667440 On ch=1 n=66 v=127
667440 On ch=1 n=57 v=127
667550 On ch=1 n=81 v=0
667560 On ch=1 n=93 v=127
667563 Par ch=1 c=64 v=127
667670 On ch=1 n=93 v=0
667680 On ch=1 n=81 v=127
667790 On ch=1 n=81 v=0
667800 On ch=1 n=93 v=127
667910 On ch=1 n=93 v=0
667910 On ch=1 n=60 v=0
667910 On ch=1 n=66 v=0
667910 On ch=1 n=57 v=0
667920 On ch=1 n=81 v=127
667920 On ch=1 n=64 v=127
668030 On ch=1 n=81 v=0
668040 On ch=1 n=93 v=127
668040 On ch=1 n=42 v=127
668150 On ch=1 n=93 v=0
668150 On ch=1 n=64 v=0
668150 On ch=1 n=42 v=0
668160 On ch=1 n=81 v=127
668160 On ch=1 n=57 v=127
668160 On ch=1 n=62 v=127
668160 On ch=1 n=54 v=127
668270 On ch=1 n=81 v=0
668280 On ch=1 n=93 v=127
668390 On ch=1 n=93 v=0
668400 On ch=1 n=81 v=127
668510 On ch=1 n=81 v=0
668520 On ch=1 n=93 v=127
668630 On ch=1 n=93 v=0
668630 On ch=1 n=57 v=0
668630 On ch=1 n=62 v=0
668630 On ch=1 n=54 v=0
668640 On ch=1 n=81 v=127
668640 On ch=1 n=60 v=127
668750 On ch=1 n=81 v=0
668760 On ch=1 n=93 v=127
668789 Par ch=1 c=64 v=0
668870 On ch=1 n=93 v=0
668870 On ch=1 n=60 v=0
668880 On ch=1 n=81 v=127
668880 On ch=1 n=50 v=127
668880 On ch=1 n=55 v=127
668880 On ch=1 n=59 v=127
668880 On ch=1 n=43 v=127
668990 On ch=1 n=81 v=0
669000 On ch=1 n=93 v=127
669110 On ch=1 n=93 v=0
669112 Par ch=1 c=64 v=127
669120 On ch=1 n=81 v=127
669230 On ch=1 n=81 v=0
669240 On ch=1 n=93 v=127
669350 On ch=1 n=93 v=0
669350 On ch=1 n=50 v=0
669350 On ch=1 n=55 v=0
669350 On ch=1 n=59 v=0
669350 On ch=1 n=43 v=0
669360 On ch=1 n=81 v=127
669360 On ch=1 n=59 v=127
669360 On ch=1 n=55 v=127
669470 On ch=1 n=81 v=0
669480 On ch=1 n=93 v=127
669480 On ch=1 n=43 v=127
669590 On ch=1 n=93 v=0
669590 On ch=1 n=59 v=0
669590 On ch=1 n=55 v=0
669590 On ch=1 n=43 v=0
669600 On ch=1 n=81 v=127
669600 On ch=1 n=57 v=127
669600 On ch=1 n=60 v=127
669600 On ch=1 n=55 v=127
669710 On ch=1 n=81 v=0
669720 On ch=1 n=93 v=127
669830 On ch=1 n=93 v=0
669840 On ch=1 n=81 v=127
669950 On ch=1 n=81 v=0
669960 On ch=1 n=93 v=127
670070 On ch=1 n=93 v=0
670070 On ch=1 n=57 v=0
670070 On ch=1 n=60 v=0
670070 On ch=1 n=55 v=0
670080 On ch=1 n=81 v=127
670080 On ch=1 n=62 v=127
670080 On ch=1 n=59 v=127
670190 On ch=1 n=81 v=0
670200 On ch=1 n=93 v=127
670200 On ch=1 n=42 v=127
670310 On ch=1 n=93 v=0
670310 On ch=1 n=62 v=0
670310 On ch=1 n=59 v=0
670310 On ch=1 n=42 v=0
670320 On ch=1 n=81 v=127
670320 On ch=1 n=57 v=127
670320 On ch=1 n=62 v=127
670320 On ch=1 n=54 v=127
670343 Par ch=1 c=64 v=0
670430 On ch=1 n=81 v=0
670440 On ch=1 n=93 v=127
670531 Par ch=1 c=64 v=127
670550 On ch=1 n=93 v=0
670560 On ch=1 n=81 v=127
670670 On ch=1 n=81 v=0
670680 On ch=1 n=93 v=127
670790 On ch=1 n=93 v=0
670790 On ch=1 n=57 v=0
670790 On ch=1 n=62 v=0
670790 On ch=1 n=54 v=0
670800 On ch=1 n=81 v=127
670800 On ch=1 n=66 v=127
670800 On ch=1 n=62 v=127
670910 On ch=1 n=81 v=0
670920 On ch=1 n=93 v=127
670920 On ch=1 n=50 v=127
671030 On ch=1 n=93 v=0
671030 On ch=1 n=66 v=0
671030 On ch=1 n=62 v=0
671030 On ch=1 n=50 v=0
671040 On ch=1 n=81 v=127
671040 On ch=1 n=64 v=127
671040 On ch=1 n=67 v=127
671040 On ch=1 n=62 v=127
671150 On ch=1 n=81 v=0
671160 On ch=1 n=93 v=127
671270 On ch=1 n=93 v=0
671280 On ch=1 n=81 v=127
671390 On ch=1 n=81 v=0
671400 On ch=1 n=93 v=127
671510 On ch=1 n=93 v=0
671510 On ch=1 n=64 v=0
671510 On ch=1 n=67 v=0
671510 On ch=1 n=62 v=0
671520 On ch=1 n=81 v=127
671520 On ch=1 n=69 v=127
671520 On ch=1 n=66 v=127
671623 Par ch=1 c=64 v=0
671630 On ch=1 n=81 v=0
671640 On ch=1 n=93 v=127
671640 On ch=1 n=52 v=127
671740 Par ch=1 c=64 v=127
671750 On ch=1 n=93 v=0
671750 On ch=1 n=69 v=0
671750 On ch=1 n=66 v=0
671750 On ch=1 n=52 v=0
671760 On ch=1 n=81 v=127
671760 On ch=1 n=67 v=127
671760 On ch=1 n=64 v=127
671870 On ch=1 n=81 v=0
671880 On ch=1 n=93 v=127
671990 On ch=1 n=93 v=0
672000 On ch=1 n=81 v=127
672110 On ch=1 n=81 v=0
672120 On ch=1 n=93 v=127
672230 On ch=1 n=93 v=0
672230 On ch=1 n=67 v=0
672230 On ch=1 n=64 v=0
672240 On ch=1 n=81 v=127
672240 On ch=1 n=66 v=127
672240 On ch=1 n=62 v=127
672350 On ch=1 n=81 v=0
672360 On ch=1 n=93 v=127
672360 On ch=1 n=52 v=127
672470 On ch=1 n=93 v=0
672470 On ch=1 n=66 v=0
672470 On ch=1 n=62 v=0
672470 On ch=1 n=52 v=0
672480 On ch=1 n=81 v=127
672480 On ch=1 n=67 v=127
672480 On ch=1 n=64 v=127
672590 On ch=1 n=81 v=0
672600 On ch=1 n=93 v=127
672710 On ch=1 n=93 v=0
672720 On ch=1 n=81 v=127
672830 On ch=1 n=81 v=0
672840 On ch=1 n=93 v=127
672950 On ch=1 n=93 v=0
672950 On ch=1 n=67 v=0
672950 On ch=1 n=64 v=0
672960 On ch=1 n=81 v=127
672960 On ch=1 n=69 v=127
672960 On ch=1 n=66 v=127
673070 On ch=1 n=81 v=0
673080 On ch=1 n=93 v=127
673080 On ch=1 n=52 v=127
673190 On ch=1 n=93 v=0
673190 On ch=1 n=69 v=0
673190 On ch=1 n=66 v=0
673190 On ch=1 n=52 v=0
673200 On ch=1 n=81 v=127
673200 On ch=1 n=71 v=127
673200 On ch=1 n=67 v=127
673200 On ch=1 n=64 v=127
673214 Par ch=1 c=64 v=0
673310 On ch=1 n=81 v=0
673320 On ch=1 n=93 v=127
673405 Par ch=1 c=64 v=127
673430 On ch=1 n=93 v=0
673440 On ch=1 n=81 v=127
673550 On ch=1 n=81 v=0
673560 On ch=1 n=93 v=127
673670 On ch=1 n=93 v=0
673670 On ch=1 n=71 v=0
673670 On ch=1 n=67 v=0
673680 On ch=1 n=81 v=127
673680 On ch=1 n=69 v=127
673680 On ch=1 n=66 v=127
673790 On ch=1 n=81 v=0
673800 On ch=1 n=93 v=127
673910 On ch=1 n=93 v=0
673910 On ch=1 n=69 v=0
673910 On ch=1 n=66 v=0
673910 On ch=1 n=64 v=0
673920 On ch=1 n=81 v=127
673920 On ch=1 n=71 v=127
673920 On ch=1 n=67 v=127
673920 On ch=1 n=64 v=127
674030 On ch=1 n=81 v=0
674040 On ch=1 n=93 v=127
674150 On ch=1 n=93 v=0
674160 On ch=1 n=81 v=127
674270 On ch=1 n=81 v=0
674280 On ch=1 n=93 v=127
674390 On ch=1 n=93 v=0
674390 On ch=1 n=71 v=0
674400 On ch=1 n=81 v=127
674400 On ch=1 n=73 v=127
674510 On ch=1 n=81 v=0
674520 On ch=1 n=93 v=127
674630 On ch=1 n=93 v=0
674640 On ch=1 n=81 v=127
674707 Par ch=1 c=64 v=0
674750 On ch=1 n=81 v=0
674760 On ch=1 n=93 v=127
674838 Par ch=1 c=64 v=127
674870 On ch=1 n=93 v=0
674880 On ch=1 n=81 v=127
674990 On ch=1 n=81 v=0
675000 On ch=1 n=93 v=127
675110 On ch=1 n=93 v=0
675110 On ch=1 n=73 v=0
675120 On ch=1 n=81 v=127
675120 On ch=1 n=69 v=127
675230 On ch=1 n=81 v=0
675240 On ch=1 n=93 v=127
675240 On ch=1 n=52 v=127
675350 On ch=1 n=64 v=0
675350 On ch=1 n=67 v=0
675350 On ch=1 n=93 v=0
675350 On ch=1 n=69 v=0
675350 On ch=1 n=52 v=0
675360 On ch=1 n=81 v=127
675360 On ch=1 n=71 v=127
675360 On ch=1 n=67 v=127
675360 On ch=1 n=64 v=127
675470 On ch=1 n=81 v=0
675480 On ch=1 n=93 v=127
675590 On ch=1 n=93 v=0
675600 On ch=1 n=81 v=127
675710 On ch=1 n=81 v=0
675720 On ch=1 n=93 v=127
675830 On ch=1 n=93 v=0
675830 On ch=1 n=71 v=0
675840 On ch=1 n=81 v=127
675840 On ch=1 n=73 v=127
675950 On ch=1 n=81 v=0
675960 On ch=1 n=93 v=127
675960 On ch=1 n=50 v=127
675986 Par ch=1 c=64 v=0
676070 On ch=1 n=93 v=0
676070 On ch=1 n=73 v=0
676070 On ch=1 n=67 v=0
676070 On ch=1 n=64 v=0
676070 On ch=1 n=50 v=0
676080 On ch=1 n=81 v=127
676080 On ch=1 n=66 v=127
676080 On ch=1 n=74 v=127
676080 On ch=1 n=62 v=127
676190 On ch=1 n=81 v=0
676200 On ch=1 n=93 v=127
676227 Par ch=1 c=64 v=127
676310 On ch=1 n=93 v=0
676320 On ch=1 n=81 v=127
676430 On ch=1 n=81 v=0
676440 On ch=1 n=93 v=127
676550 On ch=1 n=93 v=0
676550 On ch=1 n=66 v=0
676550 On ch=1 n=74 v=0
676550 On ch=1 n=62 v=0
676560 On ch=1 n=81 v=127
676560 On ch=1 n=66 v=127
676560 On ch=1 n=74 v=127
676560 On ch=1 n=62 v=127
676670 On ch=1 n=81 v=0
676680 On ch=1 n=93 v=127
676790 On ch=1 n=93 v=0
676790 On ch=1 n=66 v=0
676790 On ch=1 n=74 v=0
676790 On ch=1 n=62 v=0
676800 On ch=1 n=66 v=127
676800 On ch=1 n=74 v=127
676800 On ch=1 n=62 v=127
677203 Par ch=1 c=64 v=0
677510 On ch=1 n=66 v=0
677510 On ch=1 n=74 v=0
677510 On ch=1 n=62 v=0
677520 On ch=1 n=42 v=47
677545 Par ch=1 c=64 v=127
677760 On ch=1 n=66 v=47
677760 On ch=1 n=54 v=47
677990 On ch=1 n=42 v=0
677990 On ch=1 n=66 v=0
677990 On ch=1 n=54 v=0
678000 On ch=1 n=66 v=47
678000 On ch=1 n=54 v=47
678230 On ch=1 n=66 v=0
678230 On ch=1 n=54 v=0
678240 On ch=1 n=66 v=47
678240 On ch=1 n=54 v=47
678470 On ch=1 n=66 v=0
678470 On ch=1 n=54 v=0
678480 On ch=1 n=66 v=47
678480 On ch=1 n=54 v=47
678710 On ch=1 n=66 v=0
678710 On ch=1 n=54 v=0
678720 On ch=1 n=66 v=47
678720 On ch=1 n=54 v=47
678720 On ch=1 n=42 v=47
678819 Par ch=1 c=64 v=0
678950 On ch=1 n=66 v=0
678950 On ch=1 n=54 v=0
678950 On ch=1 n=42 v=0
678958 Par ch=1 c=64 v=127
678960 On ch=1 n=48 v=47
678960 On ch=1 n=36 v=47
679200 On ch=1 n=60 v=47
679430 On ch=1 n=48 v=0
679430 On ch=1 n=36 v=0
679430 On ch=1 n=60 v=0
679440 On ch=1 n=60 v=47
679670 On ch=1 n=60 v=0
679680 On ch=1 n=60 v=47
679910 On ch=1 n=60 v=0
679920 On ch=1 n=60 v=47
680150 On ch=1 n=60 v=0
680160 On ch=1 n=60 v=47
680160 On ch=1 n=48 v=47
680160 On ch=1 n=36 v=47
680359 Par ch=1 c=64 v=0
680390 On ch=1 n=60 v=0
680390 On ch=1 n=48 v=0
680390 On ch=1 n=36 v=0
680400 On ch=1 n=45 v=47
680640 On ch=1 n=69 v=47
680640 On ch=1 n=57 v=47
680667 Par ch=1 c=64 v=127
680870 On ch=1 n=45 v=0
680870 On ch=1 n=69 v=0
680870 On ch=1 n=57 v=0
680880 On ch=1 n=69 v=47
680880 On ch=1 n=57 v=47
681110 On ch=1 n=69 v=0
681110 On ch=1 n=57 v=0
681120 On ch=1 n=69 v=47
681120 On ch=1 n=57 v=47
681350 On ch=1 n=69 v=0
681350 On ch=1 n=57 v=0
681360 On ch=1 n=69 v=47
681360 On ch=1 n=57 v=47
681590 On ch=1 n=69 v=0
681590 On ch=1 n=57 v=0
681600 On ch=1 n=69 v=47
681600 On ch=1 n=57 v=47
681600 On ch=1 n=45 v=47
681618 Par ch=1 c=64 v=0
681830 On ch=1 n=69 v=0
681830 On ch=1 n=57 v=0
681830 On ch=1 n=45 v=0
681840 On ch=1 n=46 v=47
682030 Par ch=1 c=64 v=127
682080 On ch=1 n=70 v=47
682080 On ch=1 n=58 v=47
682310 On ch=1 n=46 v=0
682310 On ch=1 n=70 v=0
682310 On ch=1 n=58 v=0
682320 On ch=1 n=70 v=47
682320 On ch=1 n=58 v=47
682550 On ch=1 n=70 v=0
682550 On ch=1 n=58 v=0
682560 On ch=1 n=70 v=47
682560 On ch=1 n=58 v=47
682790 On ch=1 n=70 v=0
682790 On ch=1 n=58 v=0
682800 On ch=1 n=70 v=47
682800 On ch=1 n=58 v=47
683030 On ch=1 n=70 v=0
683030 On ch=1 n=58 v=0
683040 On ch=1 n=70 v=47
683040 On ch=1 n=58 v=47
683040 On ch=1 n=46 v=47
683045 Par ch=1 c=64 v=0
683270 On ch=1 n=70 v=0
683270 On ch=1 n=58 v=0
683270 On ch=1 n=46 v=0
683280 On ch=1 n=52 v=47
683280 On ch=1 n=40 v=47
683486 Par ch=1 c=64 v=127
683520 On ch=1 n=64 v=47
683750 On ch=1 n=52 v=0
683750 On ch=1 n=40 v=0
683750 On ch=1 n=64 v=0
683760 On ch=1 n=64 v=47
683990 On ch=1 n=64 v=0
684000 On ch=1 n=64 v=47
684230 On ch=1 n=64 v=0
684240 On ch=1 n=64 v=47
684304 Par ch=1 c=64 v=0
684470 On ch=1 n=64 v=0
684480 On ch=1 n=64 v=47
684480 On ch=1 n=52 v=47
684480 On ch=1 n=40 v=47
684710 On ch=1 n=64 v=0
684710 On ch=1 n=52 v=0
684710 On ch=1 n=40 v=0
684720 On ch=1 n=49 v=47
684960 On ch=1 n=73 v=47
684960 On ch=1 n=61 v=47
684982 Par ch=1 c=64 v=127
685190 On ch=1 n=49 v=0
685190 On ch=1 n=73 v=0
685190 On ch=1 n=61 v=0
685200 On ch=1 n=73 v=47
685200 On ch=1 n=61 v=47
685430 On ch=1 n=73 v=0
685430 On ch=1 n=61 v=0
685440 On ch=1 n=73 v=47
685440 On ch=1 n=61 v=47
685670 On ch=1 n=73 v=0
685670 On ch=1 n=61 v=0
685680 On ch=1 n=73 v=47
685680 On ch=1 n=61 v=47
685847 Par ch=1 c=64 v=0
685910 On ch=1 n=73 v=0
685910 On ch=1 n=61 v=0
685920 On ch=1 n=73 v=47
685920 On ch=1 n=61 v=47
685920 On ch=1 n=49 v=47
686150 On ch=1 n=73 v=0
686150 On ch=1 n=61 v=0
686150 On ch=1 n=49 v=0
686160 On ch=1 n=50 v=47
686275 Par ch=1 c=64 v=127
686400 On ch=1 n=74 v=47
686400 On ch=1 n=62 v=47
686630 On ch=1 n=50 v=0
686630 On ch=1 n=74 v=0
686630 On ch=1 n=62 v=0
686640 On ch=1 n=74 v=47
686640 On ch=1 n=62 v=47
686870 On ch=1 n=74 v=0
686870 On ch=1 n=62 v=0
686880 On ch=1 n=74 v=47
686880 On ch=1 n=62 v=47
687110 On ch=1 n=74 v=0
687110 On ch=1 n=62 v=0
687120 On ch=1 n=74 v=47
687120 On ch=1 n=62 v=47
687350 On ch=1 n=74 v=0
687350 On ch=1 n=62 v=0
687360 On ch=1 n=74 v=47
687360 On ch=1 n=62 v=47
687360 On ch=1 n=50 v=47
687414 Par ch=1 c=64 v=0
687590 On ch=1 n=74 v=0
687590 On ch=1 n=62 v=0
687590 On ch=1 n=50 v=0
687600 On ch=1 n=51 v=47
687706 Par ch=1 c=64 v=127
687840 On ch=1 n=75 v=47
687840 On ch=1 n=63 v=47
688070 On ch=1 n=75 v=0
688070 On ch=1 n=63 v=0
688080 On ch=1 n=75 v=47
688080 On ch=1 n=63 v=47
688310 On ch=1 n=75 v=0
688310 On ch=1 n=63 v=0
688320 On ch=1 n=75 v=47
688320 On ch=1 n=63 v=47
688550 On ch=1 n=75 v=0
688550 On ch=1 n=63 v=0
688560 On ch=1 n=75 v=47
688560 On ch=1 n=63 v=47
688790 On ch=1 n=75 v=0
688790 On ch=1 n=63 v=0
688800 On ch=1 n=75 v=47
688800 On ch=1 n=63 v=47
689030 On ch=1 n=51 v=0
689030 On ch=1 n=75 v=0
689030 On ch=1 n=63 v=0
689040 On ch=1 n=43 v=47
689040 On ch=1 n=31 v=47
689086 Par ch=1 c=64 v=0
689280 On ch=1 n=67 v=47
689280 On ch=1 n=55 v=47
689346 Par ch=1 c=64 v=127
689510 On ch=1 n=43 v=0
689510 On ch=1 n=31 v=0
689510 On ch=1 n=67 v=0
689510 On ch=1 n=55 v=0
689520 On ch=1 n=67 v=47
689520 On ch=1 n=55 v=47
689697 Par ch=1 c=64 v=0
689750 On ch=1 n=67 v=0
689750 On ch=1 n=55 v=0
689760 On ch=1 n=67 v=47
689760 On ch=1 n=55 v=47
689990 On ch=1 n=67 v=0
689990 On ch=1 n=55 v=0
690000 On ch=1 n=67 v=47
690000 On ch=1 n=55 v=47
690230 On ch=1 n=67 v=0
690230 On ch=1 n=55 v=0
690240 On ch=1 n=67 v=47
690240 On ch=1 n=55 v=47
690240 On ch=1 n=43 v=47
690240 On ch=1 n=31 v=47
690470 On ch=1 n=67 v=0
690470 On ch=1 n=55 v=0
690470 On ch=1 n=43 v=0
690470 On ch=1 n=31 v=0
690480 On ch=1 n=52 v=47
690480 On ch=1 n=40 v=47
690720 On ch=1 n=76 v=47
690720 On ch=1 n=64 v=47
690786 Par ch=1 c=64 v=127
690950 On ch=1 n=52 v=0
690950 On ch=1 n=40 v=0
690950 On ch=1 n=76 v=0
690950 On ch=1 n=64 v=0
690960 On ch=1 n=76 v=47
690960 On ch=1 n=64 v=47
691190 On ch=1 n=76 v=0
691190 On ch=1 n=64 v=0
691200 On ch=1 n=76 v=47
691200 On ch=1 n=64 v=47
691430 On ch=1 n=76 v=0
691430 On ch=1 n=64 v=0
691440 On ch=1 n=76 v=47
691440 On ch=1 n=64 v=47
691670 On ch=1 n=76 v=0
691670 On ch=1 n=64 v=0
691680 On ch=1 n=76 v=47
691680 On ch=1 n=64 v=47
691680 On ch=1 n=52 v=47
691680 On ch=1 n=40 v=47
691714 Par ch=1 c=64 v=0
691910 On ch=1 n=76 v=0
691910 On ch=1 n=64 v=0
691910 On ch=1 n=52 v=0
691910 On ch=1 n=40 v=0
691920 On ch=1 n=53 v=47
691920 On ch=1 n=41 v=47
692152 Par ch=1 c=64 v=127
692160 On ch=1 n=77 v=47
692160 On ch=1 n=65 v=47
692390 On ch=1 n=53 v=0
692390 On ch=1 n=41 v=0
692390 On ch=1 n=77 v=0
692390 On ch=1 n=65 v=0
692400 On ch=1 n=77 v=47
692400 On ch=1 n=65 v=47
692630 On ch=1 n=77 v=0
692630 On ch=1 n=65 v=0
692640 On ch=1 n=77 v=47
692640 On ch=1 n=65 v=47
692870 On ch=1 n=77 v=0
692870 On ch=1 n=65 v=0
692880 On ch=1 n=77 v=47
692880 On ch=1 n=65 v=47
693088 Par ch=1 c=64 v=0
693110 On ch=1 n=77 v=0
693110 On ch=1 n=65 v=0
693120 On ch=1 n=77 v=47
693120 On ch=1 n=65 v=47
693120 On ch=1 n=53 v=47
693120 On ch=1 n=41 v=47
693350 On ch=1 n=77 v=0
693350 On ch=1 n=65 v=0
693350 On ch=1 n=53 v=0
693350 On ch=1 n=41 v=0
693360 On ch=1 n=54 v=47
693360 On ch=1 n=42 v=47
693580 Par ch=1 c=64 v=127
693600 On ch=1 n=78 v=47
693600 On ch=1 n=66 v=47
693830 On ch=1 n=54 v=0
693830 On ch=1 n=42 v=0
693830 On ch=1 n=78 v=0
693830 On ch=1 n=66 v=0
693840 On ch=1 n=78 v=47
693840 On ch=1 n=66 v=47
694070 On ch=1 n=78 v=0
694070 On ch=1 n=66 v=0
694080 On ch=1 n=78 v=47
694080 On ch=1 n=66 v=47
694310 On ch=1 n=78 v=0
694310 On ch=1 n=66 v=0
694320 On ch=1 n=78 v=47
694320 On ch=1 n=66 v=47
694550 On ch=1 n=78 v=0
694550 On ch=1 n=66 v=0
694560 On ch=1 n=78 v=47
694560 On ch=1 n=66 v=47
694560 On ch=1 n=54 v=47
694560 On ch=1 n=42 v=47
694667 Par ch=1 c=64 v=0
694790 On ch=1 n=78 v=0
694790 On ch=1 n=66 v=0
694790 On ch=1 n=54 v=0
694790 On ch=1 n=42 v=0
694800 On ch=1 n=46 v=47
694800 On ch=1 n=34 v=47
695040 On ch=1 n=70 v=47
695040 On ch=1 n=58 v=90
695056 Par ch=1 c=64 v=127
695270 On ch=1 n=46 v=0
695270 On ch=1 n=34 v=0
695270 On ch=1 n=70 v=0
695270 On ch=1 n=58 v=0
695280 On ch=1 n=70 v=49
695280 On ch=1 n=58 v=90
695510 On ch=1 n=70 v=0
695510 On ch=1 n=58 v=0
695520 On ch=1 n=70 v=52
695520 On ch=1 n=58 v=90
695750 On ch=1 n=70 v=0
695750 On ch=1 n=58 v=0
695760 On ch=1 n=70 v=55
695760 On ch=1 n=58 v=90
695990 On ch=1 n=70 v=0
695990 On ch=1 n=58 v=0
696000 On ch=1 n=70 v=57
696000 On ch=1 n=58 v=90
696000 On ch=1 n=46 v=59
696000 On ch=1 n=34 v=59
696230 On ch=1 n=70 v=0
696230 On ch=1 n=58 v=0
696230 On ch=1 n=46 v=0
696230 On ch=1 n=34 v=0
696240 On ch=1 n=55 v=62
696240 On ch=1 n=43 v=62
696263 Par ch=1 c=64 v=0
696480 On ch=1 n=79 v=63
696480 On ch=1 n=67 v=90
696580 Par ch=1 c=64 v=127
696710 On ch=1 n=55 v=0
696710 On ch=1 n=43 v=0
696710 On ch=1 n=79 v=0
696710 On ch=1 n=67 v=0
696720 On ch=1 n=79 v=65
696720 On ch=1 n=67 v=90
696950 On ch=1 n=79 v=0
696950 On ch=1 n=67 v=0
696960 On ch=1 n=79 v=68
696960 On ch=1 n=67 v=90
697190 On ch=1 n=79 v=0
697190 On ch=1 n=67 v=0
697200 On ch=1 n=79 v=71
697200 On ch=1 n=67 v=90
697430 On ch=1 n=79 v=0
697430 On ch=1 n=67 v=0
697440 On ch=1 n=79 v=73
697440 On ch=1 n=67 v=90
697440 On ch=1 n=55 v=74
697440 On ch=1 n=43 v=74
697652 Par ch=1 c=64 v=0
697670 On ch=1 n=79 v=0
697670 On ch=1 n=67 v=0
697670 On ch=1 n=55 v=0
697670 On ch=1 n=43 v=0
697680 On ch=1 n=56 v=77
697680 On ch=1 n=44 v=77
697888 Par ch=1 c=64 v=127
697920 On ch=1 n=80 v=79
697920 On ch=1 n=68 v=90
698150 On ch=1 n=56 v=0
698150 On ch=1 n=44 v=0
698150 On ch=1 n=80 v=0
698150 On ch=1 n=68 v=0
698160 On ch=1 n=80 v=81
698160 On ch=1 n=68 v=90
698390 On ch=1 n=80 v=0
698390 On ch=1 n=68 v=0
698400 On ch=1 n=80 v=84
698400 On ch=1 n=68 v=90
698630 On ch=1 n=80 v=0
698630 On ch=1 n=68 v=0
698640 On ch=1 n=80 v=87
698640 On ch=1 n=68 v=90
698870 On ch=1 n=80 v=0
698870 On ch=1 n=68 v=0
698880 On ch=1 n=80 v=90
698880 On ch=1 n=68 v=90
698880 On ch=1 n=56 v=90
698880 On ch=1 n=44 v=90
699068 Par ch=1 c=64 v=0
699110 On ch=1 n=80 v=0
699110 On ch=1 n=68 v=0
699110 On ch=1 n=56 v=0
699110 On ch=1 n=44 v=0
699120 On ch=1 n=81 v=90
699120 On ch=1 n=69 v=90
699120 On ch=1 n=57 v=90
699120 On ch=1 n=45 v=90
699350 On ch=1 n=81 v=0
699350 On ch=1 n=69 v=0
699350 On ch=1 n=57 v=0
699350 On ch=1 n=45 v=0
699840 On ch=1 n=69 v=90
699840 On ch=1 n=73 v=90
699840 On ch=1 n=76 v=90
699840 On ch=1 n=64 v=90
699840 On ch=1 n=52 v=90
699840 On ch=1 n=57 v=90
699840 On ch=1 n=61 v=90
699840 On ch=1 n=45 v=90
700115 Par ch=1 c=64 v=127
701270 On ch=1 n=64 v=0
701270 On ch=1 n=69 v=0
701270 On ch=1 n=73 v=0
701270 On ch=1 n=76 v=0
701270 On ch=1 n=45 v=0
701270 On ch=1 n=52 v=0
701270 On ch=1 n=57 v=0
701270 On ch=1 n=61 v=0
701280 On ch=1 n=69 v=90
701280 On ch=1 n=73 v=90
701280 On ch=1 n=76 v=90
701280 On ch=1 n=64 v=90
701280 On ch=1 n=52 v=90
701280 On ch=1 n=57 v=90
701280 On ch=1 n=61 v=90
701280 On ch=1 n=45 v=90
701990 On ch=1 n=69 v=0
701990 On ch=1 n=73 v=0
701990 On ch=1 n=76 v=0
701990 On ch=1 n=64 v=0
701990 On ch=1 n=52 v=0
701990 On ch=1 n=57 v=0
701990 On ch=1 n=61 v=0
701990 On ch=1 n=45 v=0
702000 On ch=1 n=64 v=90
702000 On ch=1 n=45 v=90
702000 On ch=1 n=52 v=90
702000 On ch=1 n=56 v=90
702000 On ch=1 n=59 v=90
702000 On ch=1 n=62 v=90
702000 On ch=1 n=33 v=90
702277 Par ch=1 c=64 v=0
702470 Par ch=1 c=64 v=127
702710 On ch=1 n=64 v=0
702710 On ch=1 n=45 v=0
702710 On ch=1 n=52 v=0
702710 On ch=1 n=56 v=0
702710 On ch=1 n=59 v=0
702710 On ch=1 n=62 v=0
702710 On ch=1 n=33 v=0
702720 On ch=1 n=64 v=90
702720 On ch=1 n=45 v=90
702720 On ch=1 n=52 v=90
702720 On ch=1 n=56 v=90
702720 On ch=1 n=59 v=90
702720 On ch=1 n=62 v=90
702720 On ch=1 n=33 v=90
703430 On ch=1 n=64 v=0
703430 On ch=1 n=45 v=0
703430 On ch=1 n=52 v=0
703430 On ch=1 n=56 v=0
703430 On ch=1 n=59 v=0
703430 On ch=1 n=62 v=0
703430 On ch=1 n=33 v=0
703440 On ch=1 n=88 v=90
703440 On ch=1 n=80 v=90
703440 On ch=1 n=76 v=90
703440 On ch=1 n=71 v=90
703440 On ch=1 n=62 v=90
703440 On ch=1 n=56 v=90
703440 On ch=1 n=52 v=90
703440 On ch=1 n=45 v=90
704150 On ch=1 n=88 v=0
704150 On ch=1 n=80 v=0
704150 On ch=1 n=76 v=0
704150 On ch=1 n=71 v=0
704150 On ch=1 n=62 v=0
704150 On ch=1 n=56 v=0
704150 On ch=1 n=52 v=0
704150 On ch=1 n=45 v=0
704160 On ch=1 n=88 v=90
704160 On ch=1 n=80 v=90
704160 On ch=1 n=76 v=90
704160 On ch=1 n=71 v=90
704160 On ch=1 n=62 v=90
704160 On ch=1 n=56 v=90
704160 On ch=1 n=52 v=90
704160 On ch=1 n=45 v=90
704595 Par ch=1 c=64 v=0
704870 On ch=1 n=88 v=0
704870 On ch=1 n=80 v=0
704870 On ch=1 n=76 v=0
704870 On ch=1 n=71 v=0
704870 On ch=1 n=62 v=0
704870 On ch=1 n=56 v=0
704870 On ch=1 n=52 v=0
704870 On ch=1 n=45 v=0
704880 On ch=1 n=69 v=50
704880 On ch=1 n=73 v=50
704880 On ch=1 n=76 v=50
704880 On ch=1 n=64 v=50
704880 On ch=1 n=52 v=50
704880 On ch=1 n=57 v=50
704880 On ch=1 n=61 v=50
704880 On ch=1 n=45 v=50
705233 Par ch=1 c=64 v=127
705590 On ch=1 n=69 v=0
705590 On ch=1 n=73 v=0
705590 On ch=1 n=76 v=0
705590 On ch=1 n=64 v=0
705590 On ch=1 n=52 v=0
705590 On ch=1 n=57 v=0
705590 On ch=1 n=61 v=0
705590 On ch=1 n=45 v=0
705600 On ch=1 n=69 v=50
705600 On ch=1 n=73 v=50
705600 On ch=1 n=76 v=50
705600 On ch=1 n=64 v=50
705600 On ch=1 n=52 v=50
705600 On ch=1 n=57 v=50
705600 On ch=1 n=61 v=50
705600 On ch=1 n=45 v=50
707030 On ch=1 n=64 v=0
707030 On ch=1 n=69 v=0
707030 On ch=1 n=73 v=0
707030 On ch=1 n=76 v=0
707030 On ch=1 n=45 v=0
707030 On ch=1 n=52 v=0
707030 On ch=1 n=57 v=0
707030 On ch=1 n=61 v=0
707040 On ch=1 n=69 v=50
707040 On ch=1 n=73 v=50
707040 On ch=1 n=76 v=50
707040 On ch=1 n=64 v=50
707040 On ch=1 n=52 v=50
707040 On ch=1 n=57 v=50
707040 On ch=1 n=61 v=50
707040 On ch=1 n=45 v=50
707750 Par ch=1 c=64 v=0
707750 On ch=1 n=69 v=0
707750 On ch=1 n=73 v=0
707750 On ch=1 n=76 v=0
707750 On ch=1 n=64 v=0
707750 On ch=1 n=52 v=0
707750 On ch=1 n=57 v=0
707750 On ch=1 n=61 v=0
707750 On ch=1 n=45 v=0
707760 On ch=1 n=71 v=50
707760 On ch=1 n=80 v=50
707760 On ch=1 n=68 v=50
707760 On ch=1 n=52 v=50
707760 On ch=1 n=56 v=50
707760 On ch=1 n=62 v=50
707760 On ch=1 n=64 v=50
707760 On ch=1 n=45 v=50
707954 Par ch=1 c=64 v=127
708230 On ch=1 n=71 v=0
708230 On ch=1 n=80 v=0
708230 On ch=1 n=68 v=0
708240 On ch=1 n=73 v=50
708240 On ch=1 n=81 v=50
708240 On ch=1 n=69 v=50
708470 On ch=1 n=73 v=0
708470 On ch=1 n=81 v=0
708470 On ch=1 n=69 v=0
708470 On ch=1 n=52 v=0
708470 On ch=1 n=56 v=0
708470 On ch=1 n=62 v=0
708470 On ch=1 n=64 v=0
708470 On ch=1 n=45 v=0
708480 On ch=1 n=74 v=50
708480 On ch=1 n=83 v=50
708480 On ch=1 n=71 v=50
708480 On ch=1 n=52 v=50
708480 On ch=1 n=56 v=50
708480 On ch=1 n=62 v=50
708480 On ch=1 n=64 v=50
708480 On ch=1 n=45 v=50
708950 On ch=1 n=74 v=0
708950 On ch=1 n=83 v=0
708950 On ch=1 n=71 v=0
708960 On ch=1 n=76 v=50
708960 On ch=1 n=85 v=50
708960 On ch=1 n=73 v=50
709172 Par ch=1 c=64 v=0
709190 On ch=1 n=76 v=0
709190 On ch=1 n=85 v=0
709190 On ch=1 n=73 v=0
709190 On ch=1 n=52 v=0
709190 On ch=1 n=56 v=0
709190 On ch=1 n=62 v=0
709190 On ch=1 n=64 v=0
709190 On ch=1 n=45 v=0
709200 On ch=1 n=78 v=50
709200 On ch=1 n=86 v=50
709200 On ch=1 n=74 v=50
709200 On ch=1 n=52 v=50
709200 On ch=1 n=56 v=50
709200 On ch=1 n=62 v=50
709200 On ch=1 n=64 v=50
709200 On ch=1 n=45 v=50
709472 Par ch=1 c=64 v=127
709670 On ch=1 n=78 v=0
709670 On ch=1 n=86 v=0
709670 On ch=1 n=74 v=0
709680 On ch=1 n=80 v=50
709680 On ch=1 n=88 v=50
709680 On ch=1 n=76 v=50
709910 On ch=1 n=80 v=0
709910 On ch=1 n=88 v=0
709910 On ch=1 n=76 v=0
709910 On ch=1 n=52 v=0
709910 On ch=1 n=56 v=0
709910 On ch=1 n=62 v=0
709910 On ch=1 n=64 v=0
709910 On ch=1 n=45 v=0
709920 On ch=1 n=81 v=50
709920 On ch=1 n=90 v=50
709920 On ch=1 n=78 v=50
709920 On ch=1 n=52 v=50
709920 On ch=1 n=56 v=50
709920 On ch=1 n=62 v=50
709920 On ch=1 n=64 v=50
709920 On ch=1 n=45 v=50
710390 On ch=1 n=81 v=0
710390 On ch=1 n=90 v=0
710390 On ch=1 n=78 v=0
710400 On ch=1 n=83 v=50
710400 On ch=1 n=92 v=50
710400 On ch=1 n=80 v=50
710630 On ch=1 n=83 v=0
710630 On ch=1 n=92 v=0
710630 On ch=1 n=80 v=0
710630 On ch=1 n=52 v=0
710630 On ch=1 n=56 v=0
710630 On ch=1 n=62 v=0
710630 On ch=1 n=64 v=0
710630 On ch=1 n=45 v=0
710640 On ch=1 n=85 v=50
710640 On ch=1 n=93 v=50
710640 On ch=1 n=81 v=50
710640 On ch=1 n=61 v=50
710640 On ch=1 n=57 v=50
710640 On ch=1 n=52 v=50
710640 On ch=1 n=45 v=50
710683 Par ch=1 c=64 v=0
710833 Par ch=1 c=64 v=127
710870 On ch=1 n=85 v=0
710870 On ch=1 n=93 v=0
710870 On ch=1 n=81 v=0
711110 On ch=1 n=61 v=0
711110 On ch=1 n=57 v=0
711120 On ch=1 n=62 v=50
711120 On ch=1 n=59 v=50
711350 On ch=1 n=62 v=0
711350 On ch=1 n=59 v=0
711350 On ch=1 n=52 v=0
711350 On ch=1 n=45 v=0
711360 On ch=1 n=64 v=50
711360 On ch=1 n=61 v=50
711360 On ch=1 n=52 v=50
711360 On ch=1 n=57 v=50
711360 On ch=1 n=45 v=50
711830 On ch=1 n=64 v=0
711830 On ch=1 n=61 v=0
711840 On ch=1 n=66 v=50
711840 On ch=1 n=62 v=50
712061 Par ch=1 c=64 v=0
712070 On ch=1 n=66 v=0
712070 On ch=1 n=62 v=0
712070 On ch=1 n=52 v=0
712070 On ch=1 n=57 v=0
712070 On ch=1 n=45 v=0
712080 On ch=1 n=68 v=50
712080 On ch=1 n=64 v=50
712080 On ch=1 n=52 v=50
712080 On ch=1 n=57 v=50
712080 On ch=1 n=61 v=50
712080 On ch=1 n=45 v=50
712550 On ch=1 n=68 v=0
712550 On ch=1 n=64 v=0
712560 On ch=1 n=69 v=50
712560 On ch=1 n=66 v=50
712790 On ch=1 n=69 v=0
712790 On ch=1 n=66 v=0
712790 On ch=1 n=52 v=0
712790 On ch=1 n=57 v=0
712790 On ch=1 n=61 v=0
712790 On ch=1 n=45 v=0
712800 On ch=1 n=71 v=50
712800 On ch=1 n=68 v=50
712800 On ch=1 n=52 v=50
712800 On ch=1 n=57 v=50
712800 On ch=1 n=61 v=50
712800 On ch=1 n=45 v=50
713270 On ch=1 n=71 v=0
713270 On ch=1 n=68 v=0
713280 On ch=1 n=73 v=50
713280 On ch=1 n=69 v=50
713510 On ch=1 n=73 v=0
713510 On ch=1 n=69 v=0
713510 On ch=1 n=52 v=0
713510 On ch=1 n=57 v=0
713510 On ch=1 n=61 v=0
713510 On ch=1 n=45 v=0
713520 On ch=1 n=71 v=50
713520 On ch=1 n=74 v=50
713520 On ch=1 n=62 v=50
713520 On ch=1 n=52 v=50
713520 On ch=1 n=56 v=50
713520 On ch=1 n=59 v=50
713520 On ch=1 n=45 v=50
713815 Par ch=1 c=64 v=127
713990 On ch=1 n=71 v=0
713990 On ch=1 n=74 v=0
713990 On ch=1 n=62 v=0
714000 On ch=1 n=73 v=50
714000 On ch=1 n=76 v=50
714000 On ch=1 n=64 v=50
714230 On ch=1 n=73 v=0
714230 On ch=1 n=76 v=0
714230 On ch=1 n=64 v=0
714230 On ch=1 n=52 v=0
714230 On ch=1 n=56 v=0
714230 On ch=1 n=59 v=0
714230 On ch=1 n=45 v=0
714240 On ch=1 n=74 v=50
714240 On ch=1 n=78 v=50
714240 On ch=1 n=66 v=50
714240 On ch=1 n=52 v=50
714240 On ch=1 n=56 v=50
714240 On ch=1 n=59 v=50
714240 On ch=1 n=45 v=50
714710 On ch=1 n=74 v=0
714710 On ch=1 n=78 v=0
714710 On ch=1 n=66 v=0
714720 On ch=1 n=76 v=50
714720 On ch=1 n=80 v=50
714720 On ch=1 n=68 v=50
714950 On ch=1 n=76 v=0
714950 On ch=1 n=80 v=0
714950 On ch=1 n=68 v=0
714950 On ch=1 n=52 v=0
714950 On ch=1 n=56 v=0
714950 On ch=1 n=59 v=0
714950 On ch=1 n=45 v=0
714960 On ch=1 n=78 v=50
714960 On ch=1 n=81 v=50
714960 On ch=1 n=69 v=50
714960 On ch=1 n=52 v=50
714960 On ch=1 n=56 v=50
714960 On ch=1 n=62 v=50
714960 On ch=1 n=64 v=50
714960 On ch=1 n=45 v=50
715009 Par ch=1 c=64 v=0
715210 Par ch=1 c=64 v=127
715430 On ch=1 n=78 v=0
715430 On ch=1 n=81 v=0
715430 On ch=1 n=69 v=0
715440 On ch=1 n=80 v=50
715440 On ch=1 n=83 v=50
715440 On ch=1 n=71 v=50
715670 On ch=1 n=80 v=0
715670 On ch=1 n=83 v=0
715670 On ch=1 n=71 v=0
715670 On ch=1 n=52 v=0
715670 On ch=1 n=56 v=0
715670 On ch=1 n=62 v=0
715670 On ch=1 n=64 v=0
715670 On ch=1 n=45 v=0
715680 On ch=1 n=81 v=50
715680 On ch=1 n=85 v=50
715680 On ch=1 n=73 v=50
715680 On ch=1 n=52 v=50
715680 On ch=1 n=56 v=50
715680 On ch=1 n=62 v=50
715680 On ch=1 n=64 v=50
715680 On ch=1 n=45 v=50
716150 On ch=1 n=81 v=0
716150 On ch=1 n=85 v=0
716150 On ch=1 n=73 v=0
716160 On ch=1 n=83 v=50
716160 On ch=1 n=86 v=50
716160 On ch=1 n=74 v=50
716390 On ch=1 n=83 v=0
716390 On ch=1 n=86 v=0
716390 On ch=1 n=74 v=0
716390 On ch=1 n=52 v=0
716390 On ch=1 n=56 v=0
716390 On ch=1 n=62 v=0
716390 On ch=1 n=64 v=0
716390 On ch=1 n=45 v=0
716400 On ch=1 n=76 v=50
716400 On ch=1 n=85 v=50
716400 On ch=1 n=73 v=50
716400 On ch=1 n=52 v=50
716400 On ch=1 n=57 v=50
716400 On ch=1 n=61 v=50
716400 On ch=1 n=45 v=50
716500 Par ch=1 c=64 v=0
716615 Par ch=1 c=64 v=127
716870 On ch=1 n=76 v=0
716870 On ch=1 n=85 v=0
716870 On ch=1 n=73 v=0
716880 On ch=1 n=74 v=50
716880 On ch=1 n=83 v=50
716880 On ch=1 n=71 v=50
717110 On ch=1 n=74 v=0
717110 On ch=1 n=83 v=0
717110 On ch=1 n=71 v=0
717110 On ch=1 n=52 v=0
717110 On ch=1 n=57 v=0
717110 On ch=1 n=61 v=0
717110 On ch=1 n=45 v=0
717120 On ch=1 n=73 v=50
717120 On ch=1 n=81 v=50
717120 On ch=1 n=69 v=50
717120 On ch=1 n=52 v=50
717120 On ch=1 n=57 v=50
717120 On ch=1 n=61 v=50
717120 On ch=1 n=45 v=50
717590 On ch=1 n=73 v=0
717590 On ch=1 n=81 v=0
717590 On ch=1 n=69 v=0
717600 On ch=1 n=74 v=50
717600 On ch=1 n=83 v=50
717600 On ch=1 n=71 v=50
717830 On ch=1 n=74 v=0
717830 On ch=1 n=83 v=0
717830 On ch=1 n=71 v=0
717830 On ch=1 n=52 v=0
717830 On ch=1 n=57 v=0
717830 On ch=1 n=61 v=0
717830 On ch=1 n=45 v=0
717840 On ch=1 n=76 v=50
717840 On ch=1 n=85 v=50
717840 On ch=1 n=73 v=50
717840 On ch=1 n=52 v=50
717840 On ch=1 n=57 v=50
717840 On ch=1 n=61 v=50
717840 On ch=1 n=45 v=50
717870 Par ch=1 c=64 v=0
718055 Par ch=1 c=64 v=127
718070 On ch=1 n=85 v=0
718070 On ch=1 n=73 v=0
718080 On ch=1 n=83 v=50
718080 On ch=1 n=71 v=50
718310 On ch=1 n=76 v=0
718310 On ch=1 n=83 v=0
718310 On ch=1 n=71 v=0
718320 On ch=1 n=85 v=50
718320 On ch=1 n=73 v=50
718390 Par ch=1 c=64 v=0
718440 On ch=1 n=38 v=50
718550 On ch=1 n=85 v=0
718550 On ch=1 n=73 v=0
718550 On ch=1 n=38 v=0
718550 On ch=1 n=52 v=0
718550 On ch=1 n=57 v=0
718550 On ch=1 n=61 v=0
718550 On ch=1 n=45 v=0
718560 On ch=1 n=78 v=50
718560 On ch=1 n=86 v=50
718560 On ch=1 n=74 v=50
718560 On ch=1 n=57 v=50
718560 On ch=1 n=60 v=50
718560 On ch=1 n=50 v=50
718790 On ch=1 n=86 v=0
718790 On ch=1 n=74 v=0
718800 On ch=1 n=88 v=50
718800 On ch=1 n=76 v=50
719030 On ch=1 n=78 v=0
719030 On ch=1 n=88 v=0
719030 On ch=1 n=76 v=0
719040 On ch=1 n=90 v=50
719040 On ch=1 n=78 v=50
719270 On ch=1 n=90 v=0
719270 On ch=1 n=78 v=0
719270 On ch=1 n=57 v=0
719270 On ch=1 n=60 v=0
719270 On ch=1 n=50 v=0
719280 On ch=1 n=91 v=50
719280 On ch=1 n=79 v=50
719280 On ch=1 n=50 v=50
719280 On ch=1 n=55 v=50
719280 On ch=1 n=59 v=50
719280 On ch=1 n=43 v=50
719510 On ch=1 n=91 v=0
719510 On ch=1 n=79 v=0
719520 On ch=1 n=67 v=50
719538 Par ch=1 c=64 v=127
719750 On ch=1 n=67 v=0
719760 On ch=1 n=69 v=50
719990 On ch=1 n=69 v=0
719990 On ch=1 n=50 v=0
719990 On ch=1 n=55 v=0
719990 On ch=1 n=59 v=0
719990 On ch=1 n=43 v=0
720000 On ch=1 n=62 v=50
720000 On ch=1 n=71 v=50
720000 On ch=1 n=67 v=50
720000 On ch=1 n=50 v=50
720000 On ch=1 n=55 v=50
720000 On ch=1 n=59 v=50
720000 On ch=1 n=43 v=50
720470 On ch=1 n=71 v=0
720470 On ch=1 n=67 v=0
720480 On ch=1 n=72 v=50
720480 On ch=1 n=69 v=50
720696 Par ch=1 c=64 v=0
720710 On ch=1 n=62 v=0
720710 On ch=1 n=72 v=0
720710 On ch=1 n=69 v=0
720710 On ch=1 n=50 v=0
720710 On ch=1 n=55 v=0
720710 On ch=1 n=59 v=0
720710 On ch=1 n=43 v=0
720720 On ch=1 n=62 v=50
720720 On ch=1 n=74 v=50
720720 On ch=1 n=71 v=50
720720 On ch=1 n=50 v=50
720720 On ch=1 n=55 v=50
720720 On ch=1 n=59 v=50
720720 On ch=1 n=43 v=50
721190 On ch=1 n=74 v=0
721190 On ch=1 n=71 v=0
721200 On ch=1 n=76 v=50
721200 On ch=1 n=72 v=50
721430 On ch=1 n=62 v=0
721430 On ch=1 n=76 v=0
721430 On ch=1 n=72 v=0
721430 On ch=1 n=50 v=0
721430 On ch=1 n=55 v=0
721430 On ch=1 n=59 v=0
721430 On ch=1 n=43 v=0
721440 On ch=1 n=78 v=50
721440 On ch=1 n=74 v=50
721440 On ch=1 n=50 v=50
721440 On ch=1 n=55 v=50
721440 On ch=1 n=59 v=50
721440 On ch=1 n=43 v=50
721910 On ch=1 n=78 v=0
721910 On ch=1 n=74 v=0
721920 On ch=1 n=79 v=50
721920 On ch=1 n=76 v=50
722150 On ch=1 n=79 v=0
722150 On ch=1 n=76 v=0
722150 On ch=1 n=50 v=0
722150 On ch=1 n=55 v=0
722150 On ch=1 n=59 v=0
722150 On ch=1 n=43 v=0
722160 On ch=1 n=81 v=50
722160 On ch=1 n=78 v=50
722160 On ch=1 n=50 v=50
722160 On ch=1 n=55 v=50
722160 On ch=1 n=59 v=50
722160 On ch=1 n=43 v=50
722630 On ch=1 n=81 v=0
722630 On ch=1 n=78 v=0
722640 On ch=1 n=83 v=50
722640 On ch=1 n=79 v=50
722870 On ch=1 n=83 v=0
722870 On ch=1 n=79 v=0
722880 On ch=1 n=84 v=50
722880 On ch=1 n=81 v=50
723350 On ch=1 n=84 v=0
723350 On ch=1 n=81 v=0
723360 On ch=1 n=86 v=50
723360 On ch=1 n=83 v=50
724310 On ch=1 n=43 v=0
724310 On ch=1 n=50 v=0
724310 On ch=1 n=55 v=0
724310 On ch=1 n=59 v=0
724310 On ch=1 n=86 v=0
724310 On ch=1 n=83 v=0
724320 On ch=1 n=83 v=45
724320 On ch=1 n=86 v=45
724320 On ch=1 n=91 v=45
724320 On ch=1 n=79 v=45
724320 On ch=1 n=50 v=45
724320 On ch=1 n=55 v=45
724320 On ch=1 n=59 v=45
724320 On ch=1 n=43 v=45
725030 On ch=1 n=83 v=0
725030 On ch=1 n=86 v=0
725030 On ch=1 n=91 v=0
725030 On ch=1 n=79 v=0
725030 On ch=1 n=50 v=0
725030 On ch=1 n=55 v=0
725030 On ch=1 n=59 v=0
725030 On ch=1 n=43 v=0
725040 TimeSig 4/4 24 8
725040 On ch=1 n=83 v=47
725150 On ch=1 n=83 v=0
725160 On ch=1 n=85 v=47
725270 On ch=1 n=85 v=0
725280 On ch=1 n=86 v=47
725390 On ch=1 n=86 v=0
725400 On ch=1 n=86 v=47
725510 On ch=1 n=86 v=0
725520 On ch=1 n=86 v=47
725520 On ch=1 n=71 v=47
725520 On ch=1 n=67 v=47
725630 On ch=1 n=86 v=0
725630 On ch=1 n=71 v=0
725630 On ch=1 n=67 v=0
725640 On ch=1 n=85 v=47
725640 On ch=1 n=72 v=47
725640 On ch=1 n=69 v=47
725750 On ch=1 n=85 v=0
725750 On ch=1 n=72 v=0
725750 On ch=1 n=69 v=0
725760 On ch=1 n=83 v=47
725760 On ch=1 n=74 v=47
725760 On ch=1 n=71 v=47
725870 On ch=1 n=83 v=0
725870 On ch=1 n=74 v=0
725870 On ch=1 n=71 v=0
725880 On ch=1 n=81 v=47
725880 On ch=1 n=74 v=47
725880 On ch=1 n=71 v=47
725990 On ch=1 n=81 v=0
725990 On ch=1 n=74 v=0
725990 On ch=1 n=71 v=0
726000 TimeSig 4/4 24 8
726000 On ch=1 n=79 v=47
726000 On ch=1 n=74 v=47
726000 On ch=1 n=71 v=47
726110 On ch=1 n=79 v=0
726110 On ch=1 n=74 v=0
726110 On ch=1 n=71 v=0
726120 On ch=1 n=81 v=47
726120 On ch=1 n=72 v=47
726120 On ch=1 n=69 v=47
726230 On ch=1 n=81 v=0
726230 On ch=1 n=72 v=0
726230 On ch=1 n=69 v=0
726240 On ch=1 n=83 v=47
726240 On ch=1 n=71 v=47
726240 On ch=1 n=67 v=47
726350 On ch=1 n=83 v=0
726350 On ch=1 n=71 v=0
726350 On ch=1 n=67 v=0
726360 On ch=1 n=83 v=47
726360 On ch=1 n=69 v=47
726360 On ch=1 n=66 v=47
726470 On ch=1 n=83 v=0
726470 On ch=1 n=69 v=0
726470 On ch=1 n=66 v=0
726480 On ch=1 n=83 v=47
726480 On ch=1 n=67 v=47
726480 On ch=1 n=64 v=47
726590 On ch=1 n=83 v=0
726590 On ch=1 n=67 v=0
726590 On ch=1 n=64 v=0
726600 On ch=1 n=81 v=47
726600 On ch=1 n=69 v=47
726600 On ch=1 n=66 v=47
726710 On ch=1 n=81 v=0
726710 On ch=1 n=69 v=0
726710 On ch=1 n=66 v=0
726720 On ch=1 n=79 v=47
726720 On ch=1 n=71 v=47
726720 On ch=1 n=67 v=47
726830 On ch=1 n=79 v=0
726830 On ch=1 n=71 v=0
726830 On ch=1 n=67 v=0
726840 On ch=1 n=78 v=47
726840 On ch=1 n=71 v=47
726840 On ch=1 n=67 v=47
726950 On ch=1 n=78 v=0
726950 On ch=1 n=71 v=0
726950 On ch=1 n=67 v=0
726960 TimeSig 4/4 24 8
726960 On ch=1 n=76 v=47
726960 On ch=1 n=71 v=47
726960 On ch=1 n=67 v=47
727070 On ch=1 n=76 v=0
727070 On ch=1 n=71 v=0
727070 On ch=1 n=67 v=0
727080 On ch=1 n=78 v=47
727080 On ch=1 n=69 v=47
727080 On ch=1 n=66 v=47
727190 On ch=1 n=78 v=0
727190 On ch=1 n=69 v=0
727190 On ch=1 n=66 v=0
727200 On ch=1 n=79 v=47
727200 On ch=1 n=67 v=47
727200 On ch=1 n=64 v=47
727310 On ch=1 n=79 v=0
727310 On ch=1 n=67 v=0
727310 On ch=1 n=64 v=0
727320 On ch=1 n=79 v=47
727320 On ch=1 n=66 v=47
727320 On ch=1 n=62 v=47
727430 On ch=1 n=79 v=0
727430 On ch=1 n=66 v=0
727430 On ch=1 n=62 v=0
727440 On ch=1 n=79 v=47
727440 On ch=1 n=64 v=47
727440 On ch=1 n=61 v=47
727440 On ch=1 n=57 v=47
727550 On ch=1 n=79 v=0
727550 On ch=1 n=64 v=0
727550 On ch=1 n=61 v=0
727560 On ch=1 n=78 v=47
727560 On ch=1 n=66 v=47
727560 On ch=1 n=62 v=47
727670 On ch=1 n=78 v=0
727670 On ch=1 n=66 v=0
727670 On ch=1 n=62 v=0
727670 On ch=1 n=57 v=0
727680 On ch=1 n=76 v=47
727680 On ch=1 n=67 v=47
727680 On ch=1 n=64 v=47
727790 On ch=1 n=76 v=0
727790 On ch=1 n=67 v=0
727790 On ch=1 n=64 v=0
727800 On ch=1 n=74 v=47
727910 On ch=1 n=74 v=0
727920 TimeSig 4/4 24 8
727920 On ch=1 n=73 v=47
727920 On ch=1 n=64 v=47
727920 On ch=1 n=57 v=47
728030 On ch=1 n=73 v=0
728030 On ch=1 n=64 v=0
728030 On ch=1 n=57 v=0
728040 On ch=1 n=74 v=47
728040 On ch=1 n=66 v=47
728040 On ch=1 n=55 v=47
728150 On ch=1 n=74 v=0
728150 On ch=1 n=66 v=0
728150 On ch=1 n=55 v=0
728160 On ch=1 n=76 v=47
728160 On ch=1 n=67 v=47
728160 On ch=1 n=54 v=47
728270 On ch=1 n=76 v=0
728270 On ch=1 n=67 v=0
728270 On ch=1 n=54 v=0
728280 On ch=1 n=78 v=47
728280 On ch=1 n=69 v=47
728280 On ch=1 n=52 v=47
728390 On ch=1 n=78 v=0
728390 On ch=1 n=69 v=0
728390 On ch=1 n=52 v=0
728400 On ch=1 n=79 v=47
728400 On ch=1 n=71 v=47
728400 On ch=1 n=50 v=47
728510 On ch=1 n=79 v=0
728510 On ch=1 n=71 v=0
728510 On ch=1 n=50 v=0
728520 On ch=1 n=81 v=47
728520 On ch=1 n=73 v=47
728520 On ch=1 n=49 v=47
728630 On ch=1 n=81 v=0
728630 On ch=1 n=73 v=0
728630 On ch=1 n=49 v=0
728640 On ch=1 n=83 v=47
728640 On ch=1 n=74 v=47
728640 On ch=1 n=47 v=47
728750 On ch=1 n=83 v=0
728750 On ch=1 n=74 v=0
728750 On ch=1 n=47 v=0
728760 On ch=1 n=85 v=47
728760 On ch=1 n=76 v=47
728760 On ch=1 n=45 v=47
728870 On ch=1 n=85 v=0
728870 On ch=1 n=76 v=0
728870 On ch=1 n=45 v=0
728880 TimeSig 4/4 24 8
728880 On ch=1 n=86 v=47
728880 On ch=1 n=74 v=47
728880 On ch=1 n=54 v=47
728880 On ch=1 n=50 v=47
729110 On ch=1 n=86 v=0
729110 On ch=1 n=74 v=0
729470 On ch=1 n=54 v=0
729470 On ch=1 n=50 v=0
729480 On ch=1 n=55 v=47
729480 On ch=1 n=52 v=47
729590 On ch=1 n=55 v=0
729590 On ch=1 n=52 v=0
729600 On ch=1 n=57 v=47
729600 On ch=1 n=54 v=47
729710 On ch=1 n=57 v=0
729710 On ch=1 n=54 v=0
729720 On ch=1 n=54 v=47
729720 On ch=1 n=50 v=47
729830 On ch=1 n=54 v=0
729830 On ch=1 n=50 v=0
729840 TimeSig 4/4 24 8
729840 On ch=1 n=69 v=47
729840 On ch=1 n=55 v=47
729840 On ch=1 n=52 v=47
730070 On ch=1 n=55 v=0
730070 On ch=1 n=52 v=0
730080 On ch=1 n=52 v=47
730080 On ch=1 n=55 v=47
730080 On ch=1 n=50 v=47
730310 On ch=1 n=52 v=0
730310 On ch=1 n=55 v=0
730310 On ch=1 n=50 v=0
730320 On ch=1 n=52 v=47
730320 On ch=1 n=55 v=47
730320 On ch=1 n=50 v=47
730430 On ch=1 n=69 v=0
730440 On ch=1 n=71 v=47
730550 On ch=1 n=71 v=0
730550 On ch=1 n=52 v=0
730550 On ch=1 n=55 v=0
730550 On ch=1 n=50 v=0
730560 On ch=1 n=73 v=47
730560 On ch=1 n=52 v=47
730560 On ch=1 n=55 v=47
730560 On ch=1 n=50 v=47
730670 On ch=1 n=73 v=0
730680 On ch=1 n=69 v=47
730790 On ch=1 n=69 v=0
730790 On ch=1 n=52 v=0
730790 On ch=1 n=55 v=0
730790 On ch=1 n=50 v=0
730800 TimeSig 4/4 24 8
730800 On ch=1 n=74 v=47
730800 On ch=1 n=66 v=47
730800 On ch=1 n=52 v=47
730800 On ch=1 n=55 v=47
730800 On ch=1 n=50 v=47
731150 On ch=1 n=52 v=0
731150 On ch=1 n=55 v=0
731150 On ch=1 n=50 v=0
731160 On ch=1 n=54 v=47
731160 On ch=1 n=50 v=47
731270 On ch=1 n=54 v=0
731270 On ch=1 n=50 v=0
731280 On ch=1 n=54 v=47
731280 On ch=1 n=50 v=47
731390 On ch=1 n=74 v=0
731390 On ch=1 n=66 v=0
731400 On ch=1 n=76 v=47
731400 On ch=1 n=67 v=47
731510 On ch=1 n=76 v=0
731510 On ch=1 n=67 v=0
731510 On ch=1 n=54 v=0
731510 On ch=1 n=50 v=0
731520 On ch=1 n=78 v=47
731520 On ch=1 n=69 v=47
731630 On ch=1 n=78 v=0
731630 On ch=1 n=69 v=0
731640 On ch=1 n=74 v=47
731640 On ch=1 n=66 v=47
731750 On ch=1 n=74 v=0
731750 On ch=1 n=66 v=0
731760 TimeSig 4/4 24 8
731760 On ch=1 n=81 v=47
731760 On ch=1 n=76 v=47
731760 On ch=1 n=67 v=47
731990 On ch=1 n=76 v=0
731990 On ch=1 n=67 v=0
732000 On ch=1 n=76 v=47
732000 On ch=1 n=67 v=47
732000 On ch=1 n=62 v=47
732230 On ch=1 n=76 v=0
732230 On ch=1 n=67 v=0
732230 On ch=1 n=62 v=0
732240 On ch=1 n=76 v=47
732240 On ch=1 n=67 v=47
732240 On ch=1 n=62 v=47
732350 On ch=1 n=81 v=0
732360 On ch=1 n=83 v=47
732470 On ch=1 n=83 v=0
732470 On ch=1 n=76 v=0
732470 On ch=1 n=67 v=0
732470 On ch=1 n=62 v=0
732480 On ch=1 n=85 v=47
732480 On ch=1 n=76 v=47
732480 On ch=1 n=67 v=47
732480 On ch=1 n=62 v=47
732590 On ch=1 n=85 v=0
732600 On ch=1 n=81 v=47
732710 On ch=1 n=81 v=0
732710 On ch=1 n=76 v=0
732710 On ch=1 n=67 v=0
732710 On ch=1 n=62 v=0
732720 TimeSig 4/4 24 8
732720 On ch=1 n=86 v=47
732720 On ch=1 n=67 v=47
732720 On ch=1 n=62 v=47
732950 On ch=1 n=86 v=0
733070 On ch=1 n=67 v=0
733080 On ch=1 n=66 v=47
733190 On ch=1 n=66 v=0
733200 On ch=1 n=66 v=47
733310 On ch=1 n=66 v=0
733310 On ch=1 n=62 v=0
733320 On ch=1 n=67 v=47
733320 On ch=1 n=64 v=47
733430 On ch=1 n=67 v=0
733430 On ch=1 n=64 v=0
733440 On ch=1 n=69 v=47
733440 On ch=1 n=66 v=47
733550 On ch=1 n=69 v=0
733550 On ch=1 n=66 v=0
733560 On ch=1 n=66 v=47
733560 On ch=1 n=62 v=47
733670 On ch=1 n=66 v=0
733670 On ch=1 n=62 v=0
733680 TimeSig 4/4 24 8
733680 On ch=1 n=81 v=47
733680 On ch=1 n=69 v=47
733680 On ch=1 n=67 v=47
733680 On ch=1 n=64 v=47
733910 On ch=1 n=67 v=0
733910 On ch=1 n=64 v=0
733920 On ch=1 n=64 v=47
733920 On ch=1 n=67 v=47
733920 On ch=1 n=62 v=47
734150 On ch=1 n=64 v=0
734150 On ch=1 n=67 v=0
734150 On ch=1 n=62 v=0
734160 On ch=1 n=64 v=47
734160 On ch=1 n=67 v=47
734160 On ch=1 n=62 v=47
734270 On ch=1 n=81 v=0
734270 On ch=1 n=69 v=0
734280 On ch=1 n=83 v=47
734280 On ch=1 n=71 v=47
734390 On ch=1 n=83 v=0
734390 On ch=1 n=71 v=0
734390 On ch=1 n=64 v=0
734390 On ch=1 n=67 v=0
734390 On ch=1 n=62 v=0
734400 On ch=1 n=85 v=47
734400 On ch=1 n=73 v=47
734400 On ch=1 n=64 v=47
734400 On ch=1 n=67 v=47
734400 On ch=1 n=62 v=47
734510 On ch=1 n=85 v=0
734510 On ch=1 n=73 v=0
734520 On ch=1 n=81 v=47
734520 On ch=1 n=69 v=47
734630 On ch=1 n=81 v=0
734630 On ch=1 n=69 v=0
734630 On ch=1 n=64 v=0
734630 On ch=1 n=67 v=0
734630 On ch=1 n=62 v=0
734640 TimeSig 4/4 24 8
734640 On ch=1 n=86 v=47
734640 On ch=1 n=74 v=47
734640 On ch=1 n=66 v=47
734640 On ch=1 n=62 v=47
734750 On ch=1 n=86 v=0
734750 On ch=1 n=74 v=0
734760 On ch=1 n=88 v=47
734760 On ch=1 n=76 v=47
734870 On ch=1 n=88 v=0
734870 On ch=1 n=76 v=0
734870 On ch=1 n=66 v=0
734870 On ch=1 n=62 v=0
734880 On ch=1 n=90 v=47
734880 On ch=1 n=78 v=47
734990 On ch=1 n=90 v=0
734990 On ch=1 n=78 v=0
735000 On ch=1 n=90 v=47
735000 On ch=1 n=78 v=47
735110 On ch=1 n=90 v=0
735110 On ch=1 n=78 v=0
735120 On ch=1 n=90 v=47
735120 On ch=1 n=78 v=47
735120 On ch=1 n=62 v=47
735120 On ch=1 n=50 v=47
735230 On ch=1 n=90 v=0
735230 On ch=1 n=78 v=0
735230 On ch=1 n=62 v=0
735230 On ch=1 n=50 v=0
735240 On ch=1 n=88 v=47
735240 On ch=1 n=76 v=47
735240 On ch=1 n=64 v=47
735240 On ch=1 n=52 v=47
735350 On ch=1 n=88 v=0
735350 On ch=1 n=76 v=0
735350 On ch=1 n=64 v=0
735350 On ch=1 n=52 v=0
735360 On ch=1 n=86 v=47
735360 On ch=1 n=74 v=47
735360 On ch=1 n=66 v=47
735360 On ch=1 n=54 v=47
735470 On ch=1 n=86 v=0
735470 On ch=1 n=74 v=0
735470 On ch=1 n=66 v=0
735470 On ch=1 n=54 v=0
735480 On ch=1 n=85 v=47
735480 On ch=1 n=73 v=47
735480 On ch=1 n=66 v=47
735480 On ch=1 n=54 v=47
735590 On ch=1 n=85 v=0
735590 On ch=1 n=73 v=0
735590 On ch=1 n=66 v=0
735590 On ch=1 n=54 v=0
735600 TimeSig 4/4 24 8
735600 On ch=1 n=83 v=47
735600 On ch=1 n=71 v=47
735600 On ch=1 n=66 v=47
735600 On ch=1 n=54 v=47
735710 On ch=1 n=83 v=0
735710 On ch=1 n=71 v=0
735710 On ch=1 n=66 v=0
735710 On ch=1 n=54 v=0
735720 On ch=1 n=85 v=47
735720 On ch=1 n=73 v=47
735720 On ch=1 n=64 v=47
735720 On ch=1 n=52 v=47
735830 On ch=1 n=85 v=0
735830 On ch=1 n=73 v=0
735830 On ch=1 n=64 v=0
735830 On ch=1 n=52 v=0
735840 On ch=1 n=86 v=47
735840 On ch=1 n=74 v=47
735840 On ch=1 n=62 v=47
735840 On ch=1 n=50 v=47
735950 On ch=1 n=86 v=0
735950 On ch=1 n=74 v=0
735950 On ch=1 n=62 v=0
735950 On ch=1 n=50 v=0
735960 On ch=1 n=86 v=47
735960 On ch=1 n=74 v=47
735960 On ch=1 n=61 v=47
735960 On ch=1 n=49 v=47
736070 On ch=1 n=86 v=0
736070 On ch=1 n=74 v=0
736070 On ch=1 n=61 v=0
736070 On ch=1 n=49 v=0
736080 On ch=1 n=86 v=47
736080 On ch=1 n=74 v=47
736080 On ch=1 n=59 v=47
736080 On ch=1 n=47 v=47
736190 On ch=1 n=86 v=0
736190 On ch=1 n=74 v=0
736190 On ch=1 n=59 v=0
736190 On ch=1 n=47 v=0
736200 On ch=1 n=85 v=47
736200 On ch=1 n=73 v=47
736200 On ch=1 n=61 v=47
736200 On ch=1 n=49 v=47
736310 On ch=1 n=85 v=0
736310 On ch=1 n=73 v=0
736310 On ch=1 n=61 v=0
736310 On ch=1 n=49 v=0
736320 On ch=1 n=83 v=47
736320 On ch=1 n=71 v=47
736320 On ch=1 n=62 v=47
736320 On ch=1 n=50 v=47
736430 On ch=1 n=83 v=0
736430 On ch=1 n=71 v=0
736430 On ch=1 n=62 v=0
736430 On ch=1 n=50 v=0
736440 On ch=1 n=81 v=47
736440 On ch=1 n=69 v=47
736440 On ch=1 n=62 v=47
736440 On ch=1 n=50 v=47
736550 On ch=1 n=81 v=0
736550 On ch=1 n=69 v=0
736550 On ch=1 n=62 v=0
736550 On ch=1 n=50 v=0
736560 TimeSig 4/4 24 8
736560 On ch=1 n=80 v=47
736560 On ch=1 n=68 v=47
736560 On ch=1 n=62 v=47
736560 On ch=1 n=50 v=47
736670 On ch=1 n=80 v=0
736670 On ch=1 n=68 v=0
736670 On ch=1 n=62 v=0
736670 On ch=1 n=50 v=0
736680 On ch=1 n=81 v=47
736680 On ch=1 n=69 v=47
736680 On ch=1 n=61 v=47
736680 On ch=1 n=49 v=47
736790 On ch=1 n=81 v=0
736790 On ch=1 n=69 v=0
736790 On ch=1 n=61 v=0
736790 On ch=1 n=49 v=0
736800 On ch=1 n=83 v=47
736800 On ch=1 n=71 v=47
736800 On ch=1 n=59 v=47
736800 On ch=1 n=47 v=47
736910 On ch=1 n=83 v=0
736910 On ch=1 n=71 v=0
736910 On ch=1 n=59 v=0
736910 On ch=1 n=47 v=0
736920 On ch=1 n=83 v=47
736920 On ch=1 n=71 v=47
736920 On ch=1 n=57 v=47
736920 On ch=1 n=45 v=47
737030 On ch=1 n=83 v=0
737030 On ch=1 n=71 v=0
737030 On ch=1 n=57 v=0
737030 On ch=1 n=45 v=0
737040 On ch=1 n=83 v=47
737040 On ch=1 n=71 v=47
737040 On ch=1 n=56 v=47
737040 On ch=1 n=44 v=47
737150 On ch=1 n=83 v=0
737150 On ch=1 n=71 v=0
737150 On ch=1 n=56 v=0
737150 On ch=1 n=44 v=0
737160 On ch=1 n=81 v=47
737160 On ch=1 n=69 v=47
737160 On ch=1 n=57 v=47
737160 On ch=1 n=45 v=47
737270 On ch=1 n=81 v=0
737270 On ch=1 n=69 v=0
737270 On ch=1 n=57 v=0
737270 On ch=1 n=45 v=0
737280 On ch=1 n=80 v=47
737280 On ch=1 n=68 v=47
737280 On ch=1 n=59 v=47
737280 On ch=1 n=47 v=47
737390 On ch=1 n=80 v=0
737390 On ch=1 n=68 v=0
737390 On ch=1 n=59 v=0
737390 On ch=1 n=47 v=0
737400 On ch=1 n=78 v=47
737400 On ch=1 n=66 v=47
737400 On ch=1 n=59 v=47
737400 On ch=1 n=47 v=47
737510 On ch=1 n=78 v=0
737510 On ch=1 n=66 v=0
737510 On ch=1 n=59 v=0
737510 On ch=1 n=47 v=0
737520 TimeSig 4/4 24 8
737520 On ch=1 n=80 v=47
737520 On ch=1 n=68 v=47
737520 On ch=1 n=59 v=47
737520 On ch=1 n=47 v=47
737630 On ch=1 n=80 v=0
737630 On ch=1 n=68 v=0
737630 On ch=1 n=59 v=0
737630 On ch=1 n=47 v=0
737640 On ch=1 n=81 v=47
737640 On ch=1 n=69 v=47
737640 On ch=1 n=57 v=47
737640 On ch=1 n=45 v=47
737750 On ch=1 n=81 v=0
737750 On ch=1 n=69 v=0
737750 On ch=1 n=57 v=0
737750 On ch=1 n=45 v=0
737760 On ch=1 n=83 v=47
737760 On ch=1 n=71 v=47
737760 On ch=1 n=56 v=47
737760 On ch=1 n=44 v=47
737870 On ch=1 n=83 v=0
737870 On ch=1 n=71 v=0
737870 On ch=1 n=56 v=0
737870 On ch=1 n=44 v=0
737880 On ch=1 n=85 v=47
737880 On ch=1 n=73 v=47
737880 On ch=1 n=54 v=47
737880 On ch=1 n=42 v=47
737990 On ch=1 n=85 v=0
737990 On ch=1 n=73 v=0
737990 On ch=1 n=54 v=0
737990 On ch=1 n=42 v=0
738000 On ch=1 n=86 v=47
738000 On ch=1 n=74 v=47
738000 On ch=1 n=52 v=47
738000 On ch=1 n=40 v=47
738110 On ch=1 n=86 v=0
738110 On ch=1 n=74 v=0
738110 On ch=1 n=52 v=0
738110 On ch=1 n=40 v=0
738120 On ch=1 n=88 v=47
738120 On ch=1 n=76 v=47
738120 On ch=1 n=50 v=47
738120 On ch=1 n=38 v=47
738230 On ch=1 n=88 v=0
738230 On ch=1 n=76 v=0
738230 On ch=1 n=50 v=0
738230 On ch=1 n=38 v=0
738240 On ch=1 n=90 v=47
738240 On ch=1 n=78 v=47
738240 On ch=1 n=49 v=47
738240 On ch=1 n=37 v=47
738350 On ch=1 n=90 v=0
738350 On ch=1 n=78 v=0
738350 On ch=1 n=49 v=0
738350 On ch=1 n=37 v=0
738360 On ch=1 n=92 v=47
738360 On ch=1 n=80 v=47
738360 On ch=1 n=47 v=47
738360 On ch=1 n=35 v=47
738470 On ch=1 n=92 v=0
738470 On ch=1 n=80 v=0
738470 On ch=1 n=47 v=0
738470 On ch=1 n=35 v=0
738480 TimeSig 4/4 24 8
738480 On ch=1 n=93 v=47
738480 On ch=1 n=81 v=47
738480 On ch=1 n=45 v=47
738480 On ch=1 n=33 v=47
738710 On ch=1 n=93 v=0
738710 On ch=1 n=81 v=0
738710 On ch=1 n=45 v=0
738710 On ch=1 n=33 v=0
738720 On ch=1 n=73 v=47
738720 On ch=1 n=69 v=47
739070 On ch=1 n=73 v=0
739070 On ch=1 n=69 v=0
739080 On ch=1 n=74 v=47
739080 On ch=1 n=71 v=47
739190 On ch=1 n=74 v=0
739190 On ch=1 n=71 v=0
739200 On ch=1 n=76 v=47
739200 On ch=1 n=73 v=47
739310 On ch=1 n=76 v=0
739310 On ch=1 n=73 v=0
739320 On ch=1 n=73 v=47
739320 On ch=1 n=69 v=47
739430 On ch=1 n=73 v=0
739430 On ch=1 n=69 v=0
739440 TimeSig 4/4 24 8
739440 On ch=1 n=76 v=47
739440 On ch=1 n=74 v=47
739440 On ch=1 n=71 v=47
739670 On ch=1 n=74 v=0
739670 On ch=1 n=71 v=0
739680 On ch=1 n=71 v=47
739680 On ch=1 n=74 v=47
739680 On ch=1 n=69 v=47
739910 On ch=1 n=71 v=0
739910 On ch=1 n=74 v=0
739910 On ch=1 n=69 v=0
739920 On ch=1 n=71 v=47
739920 On ch=1 n=74 v=47
739920 On ch=1 n=69 v=47
740030 On ch=1 n=76 v=0
740040 On ch=1 n=78 v=47
740150 On ch=1 n=78 v=0
740150 On ch=1 n=71 v=0
740150 On ch=1 n=74 v=0
740150 On ch=1 n=69 v=0
740160 On ch=1 n=80 v=47
740160 On ch=1 n=71 v=47
740160 On ch=1 n=74 v=47
740160 On ch=1 n=69 v=47
740270 On ch=1 n=80 v=0
740280 On ch=1 n=76 v=47
740390 On ch=1 n=76 v=0
740390 On ch=1 n=71 v=0
740390 On ch=1 n=74 v=0
740390 On ch=1 n=69 v=0
740400 TimeSig 4/4 24 8
740400 On ch=1 n=81 v=47
740400 On ch=1 n=74 v=47
740400 On ch=1 n=71 v=47
740400 On ch=1 n=61 v=47
740400 On ch=1 n=57 v=47
740630 On ch=1 n=81 v=0
740750 On ch=1 n=74 v=0
740750 On ch=1 n=71 v=0
740760 On ch=1 n=73 v=47
740760 On ch=1 n=69 v=47
740870 On ch=1 n=73 v=0
740870 On ch=1 n=69 v=0
740880 On ch=1 n=73 v=47
740880 On ch=1 n=69 v=47
740990 On ch=1 n=61 v=0
740990 On ch=1 n=57 v=0
741000 On ch=1 n=62 v=47
741000 On ch=1 n=59 v=47
741110 On ch=1 n=73 v=0
741110 On ch=1 n=69 v=0
741110 On ch=1 n=62 v=0
741110 On ch=1 n=59 v=0
741120 On ch=1 n=64 v=47
741120 On ch=1 n=61 v=47
741230 On ch=1 n=64 v=0
741230 On ch=1 n=61 v=0
741240 On ch=1 n=61 v=47
741240 On ch=1 n=57 v=47
741350 On ch=1 n=61 v=0
741350 On ch=1 n=57 v=0
741360 TimeSig 4/4 24 8
741360 On ch=1 n=64 v=47
741360 On ch=1 n=62 v=47
741360 On ch=1 n=59 v=47
741590 On ch=1 n=62 v=0
741590 On ch=1 n=59 v=0
741600 On ch=1 n=59 v=47
741600 On ch=1 n=62 v=47
741600 On ch=1 n=57 v=47
741830 On ch=1 n=59 v=0
741830 On ch=1 n=62 v=0
741830 On ch=1 n=57 v=0
741840 On ch=1 n=59 v=47
741840 On ch=1 n=62 v=47
741840 On ch=1 n=57 v=47
741950 On ch=1 n=64 v=0
741960 On ch=1 n=66 v=47
742070 On ch=1 n=66 v=0
742070 On ch=1 n=59 v=0
742070 On ch=1 n=62 v=0
742070 On ch=1 n=57 v=0
742080 On ch=1 n=68 v=47
742080 On ch=1 n=59 v=47
742080 On ch=1 n=62 v=47
742080 On ch=1 n=57 v=47
742190 On ch=1 n=68 v=0
742200 On ch=1 n=64 v=47
742310 On ch=1 n=64 v=0
742310 On ch=1 n=59 v=0
742310 On ch=1 n=62 v=0
742310 On ch=1 n=57 v=0
742320 TimeSig 4/4 24 8
742320 On ch=1 n=73 v=47
742320 On ch=1 n=69 v=47
742320 On ch=1 n=62 v=47
742320 On ch=1 n=59 v=47
742320 On ch=1 n=57 v=47
742550 On ch=1 n=57 v=0
742670 On ch=1 n=62 v=0
742670 On ch=1 n=59 v=0
742680 On ch=1 n=61 v=47
742680 On ch=1 n=57 v=47
742790 On ch=1 n=61 v=0
742790 On ch=1 n=57 v=0
742800 On ch=1 n=61 v=47
742800 On ch=1 n=57 v=47
742910 On ch=1 n=73 v=0
742910 On ch=1 n=69 v=0
742920 On ch=1 n=74 v=47
742920 On ch=1 n=71 v=47
743030 On ch=1 n=74 v=0
743030 On ch=1 n=71 v=0
743030 On ch=1 n=61 v=0
743030 On ch=1 n=57 v=0
743040 On ch=1 n=76 v=47
743040 On ch=1 n=73 v=47
743150 On ch=1 n=76 v=0
743150 On ch=1 n=73 v=0
743160 On ch=1 n=73 v=47
743160 On ch=1 n=69 v=47
743270 On ch=1 n=73 v=0
743270 On ch=1 n=69 v=0
743280 TimeSig 4/4 24 8
743280 On ch=1 n=81 v=47
743280 On ch=1 n=74 v=47
743280 On ch=1 n=71 v=47
743280 On ch=1 n=45 v=47
743390 On ch=1 n=45 v=0
743400 On ch=1 n=57 v=47
743510 On ch=1 n=74 v=0
743510 On ch=1 n=71 v=0
743510 On ch=1 n=57 v=0
743520 On ch=1 n=74 v=47
743520 On ch=1 n=71 v=47
743520 On ch=1 n=45 v=47
743630 On ch=1 n=45 v=0
743640 On ch=1 n=57 v=47
743750 On ch=1 n=74 v=0
743750 On ch=1 n=71 v=0
743750 On ch=1 n=57 v=0
743760 On ch=1 n=76 v=47
743760 On ch=1 n=73 v=47
743760 On ch=1 n=45 v=47
743870 On ch=1 n=81 v=0
743870 On ch=1 n=45 v=0
743880 On ch=1 n=83 v=47
743880 On ch=1 n=57 v=47
743990 On ch=1 n=83 v=0
743990 On ch=1 n=76 v=0
743990 On ch=1 n=73 v=0
743990 On ch=1 n=57 v=0
744000 On ch=1 n=85 v=47
744000 On ch=1 n=73 v=47
744110 On ch=1 n=85 v=0
744120 On ch=1 n=81 v=47
744230 On ch=1 n=81 v=0
744230 On ch=1 n=73 v=0
744240 TimeSig 4/4 24 8
744240 On ch=1 n=88 v=47
744240 On ch=1 n=76 v=47
744240 On ch=1 n=67 v=47
744470 On ch=1 n=88 v=0
744470 On ch=1 n=76 v=0
744470 On ch=1 n=67 v=0
744480 On ch=1 n=73 v=47
744480 On ch=1 n=76 v=47
744480 On ch=1 n=67 v=47
744710 On ch=1 n=73 v=0
744710 On ch=1 n=76 v=0
744710 On ch=1 n=67 v=0
744720 On ch=1 n=69 v=47
744720 On ch=1 n=74 v=47
744720 On ch=1 n=66 v=47
744720 On ch=1 n=57 v=47
744720 On ch=1 n=45 v=47
744950 On ch=1 n=69 v=0
744950 On ch=1 n=74 v=0
744950 On ch=1 n=66 v=0
744950 On ch=1 n=57 v=0
744950 On ch=1 n=45 v=0
744960 On ch=1 n=69 v=47
744960 On ch=1 n=74 v=47
744960 On ch=1 n=66 v=47
745190 On ch=1 n=69 v=0
745190 On ch=1 n=74 v=0
745190 On ch=1 n=66 v=0
745200 TimeSig 4/4 24 8
745200 On ch=1 n=73 v=47
745200 On ch=1 n=79 v=47
745200 On ch=1 n=69 v=47
745200 On ch=1 n=64 v=47
745200 On ch=1 n=57 v=47
745430 On ch=1 n=73 v=0
745430 On ch=1 n=79 v=0
745430 On ch=1 n=69 v=0
745430 On ch=1 n=64 v=0
745430 On ch=1 n=57 v=0
745440 On ch=1 n=73 v=47
745440 On ch=1 n=79 v=47
745440 On ch=1 n=69 v=47
745440 On ch=1 n=64 v=47
745670 On ch=1 n=73 v=0
745670 On ch=1 n=79 v=0
745670 On ch=1 n=69 v=0
745670 On ch=1 n=64 v=0
745680 On ch=1 n=74 v=47
745680 On ch=1 n=78 v=47
745680 On ch=1 n=69 v=47
745680 On ch=1 n=62 v=47
745680 On ch=1 n=57 v=47
745910 On ch=1 n=74 v=0
745910 On ch=1 n=78 v=0
745910 On ch=1 n=69 v=0
745910 On ch=1 n=62 v=0
745910 On ch=1 n=57 v=0
745920 On ch=1 n=74 v=47
745920 On ch=1 n=78 v=47
745920 On ch=1 n=69 v=47
745920 On ch=1 n=62 v=47
746150 On ch=1 n=74 v=0
746150 On ch=1 n=78 v=0
746150 On ch=1 n=69 v=0
746150 On ch=1 n=62 v=0
746160 TimeSig 4/4 24 8
746160 On ch=1 n=78 v=47
746160 On ch=1 n=74 v=47
746160 On ch=1 n=69 v=47
746160 On ch=1 n=67 v=47
746160 On ch=1 n=57 v=47
746390 On ch=1 n=78 v=0
746390 On ch=1 n=74 v=0
746390 On ch=1 n=67 v=0
746390 On ch=1 n=57 v=0
746400 On ch=1 n=76 v=47
746400 On ch=1 n=73 v=47
746400 On ch=1 n=67 v=47
746630 On ch=1 n=76 v=0
746630 On ch=1 n=73 v=0
746630 On ch=1 n=69 v=0
746630 On ch=1 n=67 v=0
746640 On ch=1 n=74 v=47
746640 On ch=1 n=69 v=47
746640 On ch=1 n=66 v=47
746640 On ch=1 n=57 v=47
746870 On ch=1 n=74 v=0
746870 On ch=1 n=69 v=0
746870 On ch=1 n=66 v=0
746870 On ch=1 n=57 v=0
746880 On ch=1 n=74 v=47
746880 On ch=1 n=81 v=47
746880 On ch=1 n=69 v=47
746880 On ch=1 n=66 v=47
747110 On ch=1 n=74 v=0
747110 On ch=1 n=81 v=0
747110 On ch=1 n=69 v=0
747110 On ch=1 n=66 v=0
747120 TimeSig 4/4 24 8
747120 On ch=1 n=81 v=47
747120 On ch=1 n=69 v=47
747120 On ch=1 n=66 v=47
747120 On ch=1 n=57 v=47
747350 On ch=1 n=81 v=0
747350 On ch=1 n=69 v=0
747350 On ch=1 n=66 v=0
747350 On ch=1 n=57 v=0
747360 On ch=1 n=79 v=47
747360 On ch=1 n=73 v=47
747360 On ch=1 n=64 v=47
747590 On ch=1 n=79 v=0
747590 On ch=1 n=73 v=0
747590 On ch=1 n=64 v=0
747600 On ch=1 n=79 v=47
747600 On ch=1 n=69 v=47
747600 On ch=1 n=62 v=47
747600 On ch=1 n=57 v=47
747830 On ch=1 n=79 v=0
747830 On ch=1 n=69 v=0
747830 On ch=1 n=62 v=0
747830 On ch=1 n=57 v=0
747840 On ch=1 n=78 v=47
747840 On ch=1 n=74 v=47
747840 On ch=1 n=69 v=47
748070 On ch=1 n=78 v=0
748070 On ch=1 n=74 v=0
748070 On ch=1 n=69 v=0
748080 TimeSig 4/4 24 8
748080 On ch=1 n=69 v=47
748080 On ch=1 n=61 v=47
748080 On ch=1 n=57 v=47
748080 On ch=1 n=52 v=47
748310 On ch=1 n=69 v=0
748310 On ch=1 n=61 v=0
748310 On ch=1 n=52 v=0
748320 On ch=1 n=73 v=47
748320 On ch=1 n=67 v=47
748320 On ch=1 n=52 v=47
748550 On ch=1 n=73 v=0
748550 On ch=1 n=67 v=0
748550 On ch=1 n=57 v=0
748550 On ch=1 n=52 v=0
748560 On ch=1 n=74 v=48
748560 On ch=1 n=67 v=48
748560 On ch=1 n=57 v=48
748560 On ch=1 n=50 v=48
748790 On ch=1 n=74 v=0
748790 On ch=1 n=67 v=0
748790 On ch=1 n=50 v=0
748800 On ch=1 n=78 v=49
748800 On ch=1 n=66 v=49
748800 On ch=1 n=50 v=49
749030 On ch=1 n=78 v=0
749030 On ch=1 n=66 v=0
749030 On ch=1 n=57 v=0
749030 On ch=1 n=50 v=0
749040 TimeSig 4/4 24 8
749040 On ch=1 n=81 v=49
749040 On ch=1 n=69 v=49
749040 On ch=1 n=64 v=49
749040 On ch=1 n=55 v=49
749270 On ch=1 n=81 v=0
749270 On ch=1 n=64 v=0
749270 On ch=1 n=55 v=0
749280 On ch=1 n=73 v=50
749280 On ch=1 n=64 v=50
749280 On ch=1 n=55 v=50
749510 On ch=1 n=73 v=0
749510 On ch=1 n=69 v=0
749510 On ch=1 n=64 v=0
749510 On ch=1 n=55 v=0
749520 On ch=1 n=74 v=51
749520 On ch=1 n=69 v=51
749520 On ch=1 n=62 v=51
749520 On ch=1 n=54 v=51
749750 On ch=1 n=74 v=0
749750 On ch=1 n=62 v=0
749750 On ch=1 n=54 v=0
749760 On ch=1 n=78 v=52
749760 On ch=1 n=62 v=52
749760 On ch=1 n=54 v=52
749990 On ch=1 n=78 v=0
749990 On ch=1 n=69 v=0
749990 On ch=1 n=62 v=0
749990 On ch=1 n=54 v=0
750000 TimeSig 4/4 24 8
750000 On ch=1 n=69 v=52
750000 On ch=1 n=67 v=52
750000 On ch=1 n=57 v=52
750000 On ch=1 n=54 v=52
750230 On ch=1 n=69 v=0
750230 On ch=1 n=67 v=0
750230 On ch=1 n=57 v=0
750230 On ch=1 n=54 v=0
750240 On ch=1 n=73 v=53
750240 On ch=1 n=67 v=53
750240 On ch=1 n=52 v=53
750470 On ch=1 n=73 v=0
750470 On ch=1 n=67 v=0
750470 On ch=1 n=52 v=0
750480 On ch=1 n=74 v=54
750480 On ch=1 n=66 v=54
750480 On ch=1 n=50 v=54
750710 On ch=1 n=74 v=0
750710 On ch=1 n=66 v=0
750710 On ch=1 n=50 v=0
750720 On ch=1 n=78 v=54
750720 On ch=1 n=66 v=54
750720 On ch=1 n=57 v=54
750950 On ch=1 n=78 v=0
750950 On ch=1 n=66 v=0
750950 On ch=1 n=57 v=0
750960 TimeSig 4/4 24 8
750960 On ch=1 n=81 v=55
750960 On ch=1 n=69 v=55
750960 On ch=1 n=66 v=55
750960 On ch=1 n=57 v=55
751190 On ch=1 n=81 v=0
751190 On ch=1 n=69 v=0
751190 On ch=1 n=66 v=0
751190 On ch=1 n=57 v=0
751200 On ch=1 n=73 v=56
751200 On ch=1 n=64 v=56
751200 On ch=1 n=55 v=56
751430 On ch=1 n=73 v=0
751430 On ch=1 n=64 v=0
751430 On ch=1 n=55 v=0
751440 On ch=1 n=74 v=57
751440 On ch=1 n=69 v=57
751440 On ch=1 n=62 v=57
751440 On ch=1 n=55 v=57
751670 On ch=1 n=74 v=0
751670 On ch=1 n=69 v=0
751670 On ch=1 n=62 v=0
751670 On ch=1 n=55 v=0
751680 On ch=1 n=78 v=57
751680 On ch=1 n=69 v=57
751680 On ch=1 n=57 v=57
751680 On ch=1 n=54 v=57
751910 On ch=1 n=78 v=0
751910 On ch=1 n=69 v=0
751910 On ch=1 n=57 v=0
751910 On ch=1 n=54 v=0
751920 TimeSig 4/4 24 8
751920 On ch=1 n=78 v=58
751920 On ch=1 n=69 v=58
751920 On ch=1 n=57 v=58
751920 On ch=1 n=45 v=58
752150 On ch=1 n=78 v=0
752150 On ch=1 n=69 v=0
752150 On ch=1 n=45 v=0
752160 On ch=1 n=76 v=59
752160 On ch=1 n=67 v=59
752160 On ch=1 n=49 v=59
752390 On ch=1 n=76 v=0
752390 On ch=1 n=67 v=0
752390 On ch=1 n=57 v=0
752390 On ch=1 n=49 v=0
752400 On ch=1 n=76 v=60
752400 On ch=1 n=67 v=60
752400 On ch=1 n=57 v=60
752400 On ch=1 n=50 v=60
752630 On ch=1 n=76 v=0
752630 On ch=1 n=67 v=0
752630 On ch=1 n=50 v=0
752640 On ch=1 n=74 v=60
752640 On ch=1 n=66 v=60
752640 On ch=1 n=54 v=60
752870 On ch=1 n=74 v=0
752870 On ch=1 n=66 v=0
752870 On ch=1 n=57 v=0
752870 On ch=1 n=54 v=0
752880 TimeSig 4/4 24 8
752880 On ch=1 n=69 v=61
752880 On ch=1 n=67 v=61
752880 On ch=1 n=64 v=61
752880 On ch=1 n=57 v=61
753110 On ch=1 n=69 v=0
753110 On ch=1 n=67 v=0
753110 On ch=1 n=64 v=0
753110 On ch=1 n=57 v=0
753120 On ch=1 n=64 v=62
753120 On ch=1 n=49 v=62
753350 On ch=1 n=64 v=0
753350 On ch=1 n=49 v=0
753360 On ch=1 n=69 v=62
753360 On ch=1 n=66 v=62
753360 On ch=1 n=62 v=62
753360 On ch=1 n=50 v=62
753590 On ch=1 n=69 v=0
753590 On ch=1 n=66 v=0
753590 On ch=1 n=62 v=0
753590 On ch=1 n=50 v=0
753600 On ch=1 n=74 v=63
753600 On ch=1 n=62 v=63
753600 On ch=1 n=54 v=63
753830 On ch=1 n=74 v=0
753830 On ch=1 n=62 v=0
753830 On ch=1 n=54 v=0
753840 TimeSig 4/4 24 8
753840 On ch=1 n=76 v=64
753840 On ch=1 n=69 v=64
753840 On ch=1 n=67 v=64
753840 On ch=1 n=45 v=64
754070 On ch=1 n=76 v=0
754070 On ch=1 n=69 v=0
754070 On ch=1 n=67 v=0
754070 On ch=1 n=45 v=0
754080 On ch=1 n=78 v=65
754080 On ch=1 n=67 v=65
754080 On ch=1 n=49 v=65
754190 On ch=1 n=78 v=0
754200 On ch=1 n=76 v=65
754310 On ch=1 n=76 v=0
754310 On ch=1 n=67 v=0
754310 On ch=1 n=49 v=0
754320 On ch=1 n=74 v=65
754320 On ch=1 n=69 v=65
754320 On ch=1 n=66 v=65
754320 On ch=1 n=50 v=65
754550 On ch=1 n=74 v=0
754550 On ch=1 n=69 v=0
754550 On ch=1 n=66 v=0
754550 On ch=1 n=50 v=0
754560 On ch=1 n=76 v=66
754560 On ch=1 n=66 v=66
754560 On ch=1 n=54 v=66
754670 On ch=1 n=76 v=0
754680 On ch=1 n=74 v=66
754790 On ch=1 n=74 v=0
754790 On ch=1 n=66 v=0
754790 On ch=1 n=54 v=0
754800 TimeSig 4/4 24 8
754800 On ch=1 n=79 v=67
754800 On ch=1 n=69 v=67
754800 On ch=1 n=66 v=67
754800 On ch=1 n=57 v=67
755030 On ch=1 n=79 v=0
755030 On ch=1 n=69 v=0
755030 On ch=1 n=66 v=0
755030 On ch=1 n=57 v=0
755040 On ch=1 n=81 v=67
755040 On ch=1 n=64 v=67
755040 On ch=1 n=61 v=67
755150 On ch=1 n=81 v=0
755160 On ch=1 n=79 v=68
755270 On ch=1 n=79 v=0
755270 On ch=1 n=64 v=0
755270 On ch=1 n=61 v=0
755280 On ch=1 n=78 v=68
755280 On ch=1 n=69 v=68
755280 On ch=1 n=64 v=68
755280 On ch=1 n=50 v=68
755510 On ch=1 n=78 v=0
755510 On ch=1 n=69 v=0
755510 On ch=1 n=64 v=0
755510 On ch=1 n=50 v=0
755520 On ch=1 n=79 v=69
755520 On ch=1 n=62 v=69
755520 On ch=1 n=54 v=69
755630 On ch=1 n=79 v=0
755640 On ch=1 n=78 v=69
755750 On ch=1 n=78 v=0
755750 On ch=1 n=62 v=0
755750 On ch=1 n=54 v=0
755760 TimeSig 4/4 24 8
755760 On ch=1 n=69 v=70
755760 On ch=1 n=61 v=70
755760 On ch=1 n=52 v=70
755760 On ch=1 n=40 v=70
755990 On ch=1 n=69 v=0
755990 On ch=1 n=61 v=0
755990 On ch=1 n=52 v=0
755990 On ch=1 n=40 v=0
756000 On ch=1 n=73 v=70
756000 On ch=1 n=67 v=70
756000 On ch=1 n=52 v=70
756000 On ch=1 n=40 v=70
756230 On ch=1 n=73 v=0
756230 On ch=1 n=67 v=0
756230 On ch=1 n=52 v=0
756230 On ch=1 n=40 v=0
756240 On ch=1 n=69 v=71
756240 On ch=1 n=74 v=71
756240 On ch=1 n=67 v=71
756240 On ch=1 n=50 v=71
756240 On ch=1 n=38 v=71
756470 On ch=1 n=69 v=0
756470 On ch=1 n=74 v=0
756470 On ch=1 n=67 v=0
756470 On ch=1 n=50 v=0
756470 On ch=1 n=38 v=0
756480 On ch=1 n=78 v=72
756480 On ch=1 n=66 v=72
756480 On ch=1 n=50 v=72
756480 On ch=1 n=38 v=72
756710 On ch=1 n=78 v=0
756710 On ch=1 n=66 v=0
756710 On ch=1 n=50 v=0
756710 On ch=1 n=38 v=0
756720 TimeSig 4/4 24 8
756720 On ch=1 n=81 v=73
756720 On ch=1 n=69 v=73
756720 On ch=1 n=55 v=73
756720 On ch=1 n=43 v=73
756950 On ch=1 n=81 v=0
756950 On ch=1 n=69 v=0
756950 On ch=1 n=55 v=0
756950 On ch=1 n=43 v=0
756960 On ch=1 n=73 v=73
756960 On ch=1 n=69 v=73
756960 On ch=1 n=64 v=73
756960 On ch=1 n=55 v=73
756960 On ch=1 n=43 v=73
757190 On ch=1 n=73 v=0
757190 On ch=1 n=69 v=0
757190 On ch=1 n=64 v=0
757190 On ch=1 n=55 v=0
757190 On ch=1 n=43 v=0
757200 On ch=1 n=74 v=74
757200 On ch=1 n=69 v=74
757200 On ch=1 n=62 v=74
757200 On ch=1 n=54 v=74
757200 On ch=1 n=42 v=74
757430 On ch=1 n=74 v=0
757430 On ch=1 n=69 v=0
757430 On ch=1 n=62 v=0
757430 On ch=1 n=54 v=0
757430 On ch=1 n=42 v=0
757440 On ch=1 n=78 v=75
757440 On ch=1 n=66 v=75
757440 On ch=1 n=54 v=75
757440 On ch=1 n=42 v=75
757670 On ch=1 n=78 v=0
757670 On ch=1 n=66 v=0
757670 On ch=1 n=54 v=0
757670 On ch=1 n=42 v=0
757680 TimeSig 4/4 24 8
757680 On ch=1 n=81 v=75
757680 On ch=1 n=69 v=75
757680 On ch=1 n=54 v=75
757680 On ch=1 n=42 v=75
757910 On ch=1 n=81 v=0
757910 On ch=1 n=69 v=0
757910 On ch=1 n=54 v=0
757910 On ch=1 n=42 v=0
757920 On ch=1 n=79 v=76
757920 On ch=1 n=73 v=76
757920 On ch=1 n=67 v=76
757920 On ch=1 n=52 v=76
757920 On ch=1 n=40 v=76
758150 On ch=1 n=79 v=0
758150 On ch=1 n=73 v=0
758150 On ch=1 n=67 v=0
758150 On ch=1 n=52 v=0
758150 On ch=1 n=40 v=0
758160 On ch=1 n=81 v=77
758160 On ch=1 n=69 v=77
758160 On ch=1 n=50 v=77
758160 On ch=1 n=38 v=77
758390 On ch=1 n=81 v=0
758390 On ch=1 n=69 v=0
758390 On ch=1 n=50 v=0
758390 On ch=1 n=38 v=0
758400 On ch=1 n=78 v=78
758400 On ch=1 n=74 v=78
758400 On ch=1 n=66 v=78
758400 On ch=1 n=57 v=78
758400 On ch=1 n=45 v=78
758630 On ch=1 n=78 v=0
758630 On ch=1 n=74 v=0
758630 On ch=1 n=66 v=0
758630 On ch=1 n=57 v=0
758630 On ch=1 n=45 v=0
758640 TimeSig 4/4 24 8
758640 On ch=1 n=81 v=78
758640 On ch=1 n=57 v=78
758640 On ch=1 n=45 v=78
758870 On ch=1 n=81 v=0
758870 On ch=1 n=57 v=0
758870 On ch=1 n=45 v=0
758880 On ch=1 n=73 v=79
758880 On ch=1 n=76 v=79
758880 On ch=1 n=64 v=79
758880 On ch=1 n=55 v=79
758880 On ch=1 n=43 v=79
759110 On ch=1 n=73 v=0
759110 On ch=1 n=55 v=0
759110 On ch=1 n=43 v=0
759120 On ch=1 n=69 v=80
759120 On ch=1 n=55 v=80
759120 On ch=1 n=43 v=80
759230 On ch=1 n=76 v=0
759230 On ch=1 n=64 v=0
759240 On ch=1 n=74 v=80
759240 On ch=1 n=62 v=80
759350 On ch=1 n=69 v=0
759350 On ch=1 n=74 v=0
759350 On ch=1 n=62 v=0
759350 On ch=1 n=55 v=0
759350 On ch=1 n=43 v=0
759360 On ch=1 n=74 v=80
759360 On ch=1 n=81 v=80
759360 On ch=1 n=69 v=80
759360 On ch=1 n=54 v=80
759360 On ch=1 n=42 v=80
759590 On ch=1 n=74 v=0
759590 On ch=1 n=81 v=0
759590 On ch=1 n=69 v=0
759590 On ch=1 n=54 v=0
759590 On ch=1 n=42 v=0
759600 TimeSig 4/4 24 8
759600 On ch=1 n=81 v=81
759600 On ch=1 n=69 v=81
759600 On ch=1 n=54 v=81
759600 On ch=1 n=42 v=81
759830 On ch=1 n=81 v=0
759830 On ch=1 n=69 v=0
759830 On ch=1 n=54 v=0
759830 On ch=1 n=42 v=0
759840 On ch=1 n=79 v=82
759840 On ch=1 n=73 v=82
759840 On ch=1 n=67 v=82
759840 On ch=1 n=52 v=82
759840 On ch=1 n=40 v=82
760070 On ch=1 n=79 v=0
760070 On ch=1 n=73 v=0
760070 On ch=1 n=67 v=0
760070 On ch=1 n=52 v=0
760070 On ch=1 n=40 v=0
760080 On ch=1 n=81 v=83
760080 On ch=1 n=69 v=83
760080 On ch=1 n=50 v=83
760080 On ch=1 n=38 v=83
760310 On ch=1 n=81 v=0
760310 On ch=1 n=69 v=0
760310 On ch=1 n=50 v=0
760310 On ch=1 n=38 v=0
760320 On ch=1 n=78 v=83
760320 On ch=1 n=74 v=83
760320 On ch=1 n=66 v=83
760320 On ch=1 n=57 v=83
760320 On ch=1 n=45 v=83
760550 On ch=1 n=78 v=0
760550 On ch=1 n=74 v=0
760550 On ch=1 n=66 v=0
760550 On ch=1 n=57 v=0
760550 On ch=1 n=45 v=0
760560 TimeSig 4/4 24 8
760560 On ch=1 n=81 v=84
760560 On ch=1 n=57 v=84
760560 On ch=1 n=45 v=84
760790 On ch=1 n=81 v=0
760790 On ch=1 n=57 v=0
760790 On ch=1 n=45 v=0
760800 On ch=1 n=73 v=85
760800 On ch=1 n=76 v=85
760800 On ch=1 n=64 v=85
760800 On ch=1 n=55 v=85
760800 On ch=1 n=43 v=85
761030 On ch=1 n=73 v=0
761030 On ch=1 n=55 v=0
761030 On ch=1 n=43 v=0
761040 On ch=1 n=69 v=86
761040 On ch=1 n=55 v=86
761040 On ch=1 n=43 v=86
761150 On ch=1 n=76 v=0
761150 On ch=1 n=64 v=0
761160 On ch=1 n=74 v=86
761160 On ch=1 n=62 v=86
761270 On ch=1 n=69 v=0
761270 On ch=1 n=74 v=0
761270 On ch=1 n=62 v=0
761270 On ch=1 n=55 v=0
761270 On ch=1 n=43 v=0
761280 On ch=1 n=81 v=86
761280 On ch=1 n=69 v=86
761280 On ch=1 n=54 v=86
761280 On ch=1 n=42 v=86
761510 On ch=1 n=54 v=0
761510 On ch=1 n=42 v=0
761520 TimeSig 4/4 24 8
761520 On ch=1 n=57 v=87
761520 On ch=1 n=45 v=87
761750 On ch=1 n=81 v=0
761750 On ch=1 n=69 v=0
761750 On ch=1 n=57 v=0
761750 On ch=1 n=45 v=0
761760 On ch=1 n=76 v=88
761760 On ch=1 n=79 v=88
761760 On ch=1 n=67 v=88
761760 On ch=1 n=33 v=88
761870 On ch=1 n=33 v=0
761880 On ch=1 n=45 v=88
761990 On ch=1 n=76 v=0
761990 On ch=1 n=79 v=0
761990 On ch=1 n=67 v=0
761990 On ch=1 n=45 v=0
762000 On ch=1 n=76 v=88
762000 On ch=1 n=79 v=88
762000 On ch=1 n=67 v=88
762000 On ch=1 n=35 v=88
762110 On ch=1 n=35 v=0
762120 On ch=1 n=47 v=89
762230 On ch=1 n=76 v=0
762230 On ch=1 n=79 v=0
762230 On ch=1 n=67 v=0
762230 On ch=1 n=47 v=0
762240 On ch=1 n=33 v=89
762350 On ch=1 n=33 v=0
762360 On ch=1 n=45 v=90
762470 On ch=1 n=45 v=0
762480 TimeSig 4/4 24 8
762480 On ch=1 n=50 v=100
762480 On ch=1 n=38 v=100
762590 On ch=1 n=50 v=0
762590 On ch=1 n=38 v=0
762600 On ch=1 n=62 v=100
762710 On ch=1 n=62 v=0
762720 On ch=1 n=49 v=100
762720 On ch=1 n=37 v=100
762830 On ch=1 n=49 v=0
762830 On ch=1 n=37 v=0
762840 On ch=1 n=61 v=100
762950 On ch=1 n=61 v=0
762960 On ch=1 n=54 v=100
762960 On ch=1 n=42 v=100
763070 On ch=1 n=54 v=0
763070 On ch=1 n=42 v=0
763080 On ch=1 n=66 v=100
763190 On ch=1 n=66 v=0
763200 On ch=1 n=52 v=100
763200 On ch=1 n=40 v=100
763310 On ch=1 n=52 v=0
763310 On ch=1 n=40 v=0
763320 On ch=1 n=64 v=100
763430 On ch=1 n=64 v=0
763440 TimeSig 4/4 24 8
763440 On ch=1 n=57 v=100
763440 On ch=1 n=45 v=100
763550 On ch=1 n=57 v=0
763550 On ch=1 n=45 v=0
763560 On ch=1 n=69 v=100
763670 On ch=1 n=69 v=0
763680 On ch=1 n=55 v=100
763680 On ch=1 n=43 v=100
763790 On ch=1 n=55 v=0
763790 On ch=1 n=43 v=0
763800 On ch=1 n=67 v=100
763910 On ch=1 n=67 v=0
763920 On ch=1 n=55 v=100
763920 On ch=1 n=43 v=100
764030 On ch=1 n=55 v=0
764030 On ch=1 n=43 v=0
764040 On ch=1 n=67 v=100
764150 On ch=1 n=67 v=0
764160 On ch=1 n=55 v=100
764160 On ch=1 n=43 v=100
764270 On ch=1 n=55 v=0
764270 On ch=1 n=43 v=0
764280 On ch=1 n=79 v=100
764280 On ch=1 n=67 v=100
764390 On ch=1 n=79 v=0
764390 On ch=1 n=67 v=0
764400 TimeSig 4/4 24 8
764400 On ch=1 n=62 v=100
764400 On ch=1 n=50 v=100
764510 On ch=1 n=62 v=0
764510 On ch=1 n=50 v=0
764520 On ch=1 n=86 v=100
764520 On ch=1 n=74 v=100
764630 On ch=1 n=86 v=0
764630 On ch=1 n=74 v=0
764640 On ch=1 n=61 v=100
764640 On ch=1 n=49 v=100
764750 On ch=1 n=61 v=0
764750 On ch=1 n=49 v=0
764760 On ch=1 n=85 v=100
764760 On ch=1 n=73 v=100
764870 On ch=1 n=85 v=0
764870 On ch=1 n=73 v=0
764880 On ch=1 n=66 v=100
764880 On ch=1 n=54 v=100
764990 On ch=1 n=66 v=0
764990 On ch=1 n=54 v=0
765000 On ch=1 n=90 v=100
765000 On ch=1 n=78 v=100
765110 On ch=1 n=90 v=0
765110 On ch=1 n=78 v=0
765120 On ch=1 n=64 v=100
765120 On ch=1 n=52 v=100
765230 On ch=1 n=64 v=0
765230 On ch=1 n=52 v=0
765240 On ch=1 n=88 v=100
765240 On ch=1 n=76 v=100
765350 On ch=1 n=88 v=0
765350 On ch=1 n=76 v=0
765360 TimeSig 4/4 24 8
765360 On ch=1 n=69 v=100
765360 On ch=1 n=57 v=100
765470 On ch=1 n=69 v=0
765470 On ch=1 n=57 v=0
765480 On ch=1 n=93 v=100
765480 On ch=1 n=81 v=100
765590 On ch=1 n=93 v=0
765590 On ch=1 n=81 v=0
765600 On ch=1 n=67 v=100
765600 On ch=1 n=55 v=100
765710 On ch=1 n=67 v=0
765710 On ch=1 n=55 v=0
765720 On ch=1 n=91 v=100
765720 On ch=1 n=79 v=100
765830 On ch=1 n=91 v=0
765830 On ch=1 n=79 v=0
765840 On ch=1 n=85 v=50
765840 On ch=1 n=88 v=50
765840 On ch=1 n=91 v=50
765840 On ch=1 n=79 v=50
765840 On ch=1 n=33 v=50
765950 On ch=1 n=33 v=0
765960 On ch=1 n=45 v=50
766070 On ch=1 n=45 v=0
766080 On ch=1 n=49 v=50
766190 On ch=1 n=49 v=0
766200 On ch=1 n=52 v=50
766310 On ch=1 n=52 v=0
766320 TimeSig 4/4 24 8
766320 On ch=1 n=57 v=50
766430 On ch=1 n=57 v=0
766440 On ch=1 n=61 v=50
766550 On ch=1 n=85 v=0
766550 On ch=1 n=88 v=0
766550 On ch=1 n=91 v=0
766550 On ch=1 n=79 v=0
766550 On ch=1 n=61 v=0
766560 On ch=1 n=86 v=120
766560 On ch=1 n=90 v=120
766560 On ch=1 n=78 v=120
766560 On ch=1 n=54 v=120
766560 On ch=1 n=57 v=120
766560 On ch=1 n=62 v=120
766560 On ch=1 n=50 v=120
766670 On ch=1 n=54 v=0
766670 On ch=1 n=57 v=0
766670 On ch=1 n=62 v=0
766670 On ch=1 n=50 v=0
766680 On ch=1 n=54 v=120
766680 On ch=1 n=57 v=120
766680 On ch=1 n=62 v=120
766680 On ch=1 n=50 v=120
766790 On ch=1 n=54 v=0
766790 On ch=1 n=57 v=0
766790 On ch=1 n=62 v=0
766790 On ch=1 n=50 v=0
766800 On ch=1 n=54 v=120
766800 On ch=1 n=57 v=120
766800 On ch=1 n=62 v=120
766800 On ch=1 n=50 v=120
766848 Par ch=1 c=64 v=127
767030 On ch=1 n=54 v=0
767030 On ch=1 n=57 v=0
767030 On ch=1 n=62 v=0
767030 On ch=1 n=50 v=0
767040 On ch=1 n=54 v=120
767040 On ch=1 n=57 v=120
767040 On ch=1 n=62 v=120
767040 On ch=1 n=50 v=120
767150 On ch=1 n=86 v=0
767150 On ch=1 n=90 v=0
767150 On ch=1 n=78 v=0
767160 On ch=1 n=90 v=120
767160 On ch=1 n=78 v=120
767270 On ch=1 n=90 v=0
767270 On ch=1 n=78 v=0
767270 On ch=1 n=54 v=0
767270 On ch=1 n=57 v=0
767270 On ch=1 n=62 v=0
767270 On ch=1 n=50 v=0
767280 TimeSig 4/4 24 8
767280 On ch=1 n=74 v=120
767280 On ch=1 n=62 v=120
767280 On ch=1 n=90 v=120
767280 On ch=1 n=78 v=120
767510 On ch=1 n=74 v=0
767510 On ch=1 n=62 v=0
767510 On ch=1 n=90 v=0
767510 On ch=1 n=78 v=0
767520 On ch=1 n=71 v=120
767520 On ch=1 n=59 v=120
767520 On ch=1 n=86 v=120
767520 On ch=1 n=74 v=120
767621 Par ch=1 c=64 v=0
767750 On ch=1 n=71 v=0
767750 On ch=1 n=59 v=0
767750 On ch=1 n=86 v=0
767750 On ch=1 n=74 v=0
767760 On ch=1 n=66 v=120
767760 On ch=1 n=71 v=120
767760 On ch=1 n=74 v=120
767760 On ch=1 n=62 v=120
767760 On ch=1 n=50 v=120
767760 On ch=1 n=54 v=120
767760 On ch=1 n=59 v=120
767760 On ch=1 n=47 v=120
768022 Par ch=1 c=64 v=127
768110 On ch=1 n=66 v=0
768110 On ch=1 n=71 v=0
768110 On ch=1 n=74 v=0
768110 On ch=1 n=62 v=0
768110 On ch=1 n=50 v=0
768110 On ch=1 n=54 v=0
768110 On ch=1 n=59 v=0
768110 On ch=1 n=47 v=0
768120 On ch=1 n=71 v=120
768120 On ch=1 n=59 v=120
768120 On ch=1 n=86 v=120
768120 On ch=1 n=74 v=120
768202 Par ch=1 c=64 v=0
768230 On ch=1 n=71 v=0
768230 On ch=1 n=59 v=0
768230 On ch=1 n=86 v=0
768230 On ch=1 n=74 v=0
768240 TimeSig 4/4 24 8
768240 On ch=1 n=71 v=120
768240 On ch=1 n=59 v=120
768240 On ch=1 n=86 v=120
768240 On ch=1 n=74 v=120
768470 On ch=1 n=71 v=0
768470 On ch=1 n=59 v=0
768470 On ch=1 n=86 v=0
768470 On ch=1 n=74 v=0
768480 On ch=1 n=67 v=120
768480 On ch=1 n=55 v=120
768480 On ch=1 n=83 v=120
768480 On ch=1 n=71 v=120
768655 Par ch=1 c=64 v=127
768710 On ch=1 n=67 v=0
768710 On ch=1 n=55 v=0
768710 On ch=1 n=83 v=0
768710 On ch=1 n=71 v=0
768720 On ch=1 n=59 v=120
768720 On ch=1 n=64 v=120
768720 On ch=1 n=67 v=120
768720 On ch=1 n=55 v=120
768720 On ch=1 n=43 v=120
768720 On ch=1 n=47 v=120
768720 On ch=1 n=52 v=120
768720 On ch=1 n=40 v=120
769070 On ch=1 n=59 v=0
769070 On ch=1 n=64 v=0
769070 On ch=1 n=67 v=0
769070 On ch=1 n=55 v=0
769070 On ch=1 n=43 v=0
769070 On ch=1 n=47 v=0
769070 On ch=1 n=52 v=0
769070 On ch=1 n=40 v=0
769080 On ch=1 n=83 v=120
769080 On ch=1 n=71 v=120
769080 On ch=1 n=67 v=120
769080 On ch=1 n=55 v=120
769190 On ch=1 n=83 v=0
769190 On ch=1 n=71 v=0
769190 On ch=1 n=67 v=0
769190 On ch=1 n=55 v=0
769200 TimeSig 4/4 24 8
769200 On ch=1 n=83 v=120
769200 On ch=1 n=71 v=120
769200 On ch=1 n=67 v=120
769200 On ch=1 n=55 v=120
769389 Par ch=1 c=64 v=0
769430 On ch=1 n=83 v=0
769430 On ch=1 n=71 v=0
769430 On ch=1 n=67 v=0
769430 On ch=1 n=55 v=0
769440 On ch=1 n=79 v=120
769440 On ch=1 n=67 v=120
769440 On ch=1 n=64 v=120
769440 On ch=1 n=52 v=120
769670 On ch=1 n=79 v=0
769670 On ch=1 n=67 v=0
769670 On ch=1 n=64 v=0
769670 On ch=1 n=52 v=0
769680 On ch=1 n=59 v=120
769680 On ch=1 n=64 v=120
769680 On ch=1 n=67 v=120
769680 On ch=1 n=55 v=120
769680 On ch=1 n=43 v=120
769680 On ch=1 n=47 v=120
769680 On ch=1 n=52 v=120
769680 On ch=1 n=40 v=120
769809 Par ch=1 c=64 v=127
770030 On ch=1 n=59 v=0
770030 On ch=1 n=64 v=0
770030 On ch=1 n=67 v=0
770030 On ch=1 n=55 v=0
770030 On ch=1 n=43 v=0
770030 On ch=1 n=47 v=0
770030 On ch=1 n=52 v=0
770030 On ch=1 n=40 v=0
770040 On ch=1 n=59 v=120
770040 On ch=1 n=64 v=120
770040 On ch=1 n=67 v=120
770040 On ch=1 n=55 v=120
770040 On ch=1 n=52 v=120
770040 On ch=1 n=40 v=120
770150 On ch=1 n=59 v=0
770150 On ch=1 n=64 v=0
770150 On ch=1 n=67 v=0
770150 On ch=1 n=55 v=0
770150 On ch=1 n=52 v=0
770150 On ch=1 n=40 v=0
770160 TimeSig 4/4 24 8
770160 Tempo 909090
770160 On ch=1 n=61 v=120
770160 On ch=1 n=64 v=120
770160 On ch=1 n=67 v=120
770160 On ch=1 n=55 v=120
770160 On ch=1 n=45 v=120
770160 On ch=1 n=33 v=120
770232 Par ch=1 c=64 v=0
770390 On ch=1 n=61 v=0
770390 On ch=1 n=64 v=0
770390 On ch=1 n=67 v=0
770390 On ch=1 n=55 v=0
770390 On ch=1 n=45 v=0
770390 On ch=1 n=33 v=0
770400 On ch=1 n=64 v=50
770400 On ch=1 n=67 v=50
770400 On ch=1 n=57 v=50
770537 Par ch=1 c=64 v=127
770630 On ch=1 n=64 v=0
770630 On ch=1 n=67 v=0
770630 On ch=1 n=57 v=0
770640 On ch=1 n=64 v=50
770640 On ch=1 n=67 v=50
770640 On ch=1 n=57 v=50
770760 On ch=1 n=88 v=50
770760 On ch=1 n=76 v=50
770870 On ch=1 n=64 v=0
770870 On ch=1 n=67 v=0
770870 On ch=1 n=57 v=0
770880 On ch=1 n=64 v=50
770880 On ch=1 n=67 v=50
770880 On ch=1 n=57 v=50
770990 On ch=1 n=88 v=0
770990 On ch=1 n=76 v=0
771000 On ch=1 n=85 v=50
771000 On ch=1 n=73 v=50
771050 On ch=1 n=85 v=0
771050 On ch=1 n=73 v=0
771060 On ch=1 n=79 v=50
771110 On ch=1 n=64 v=0
771110 On ch=1 n=67 v=0
771110 On ch=1 n=57 v=0
771110 On ch=1 n=79 v=0
771120 TimeSig 4/4 24 8
771120 On ch=1 n=79 v=50
771120 On ch=1 n=76 v=50
771120 On ch=1 n=67 v=50
771120 On ch=1 n=64 v=50
771120 On ch=1 n=59 v=50
771230 On ch=1 n=79 v=0
771230 On ch=1 n=76 v=0
771230 On ch=1 n=67 v=0
771230 On ch=1 n=64 v=0
771240 On ch=1 n=78 v=50
771240 On ch=1 n=74 v=50
771240 On ch=1 n=66 v=50
771240 On ch=1 n=62 v=50
771257 Par ch=1 c=64 v=0
771310 Par ch=1 c=64 v=127
771350 On ch=1 n=78 v=0
771350 On ch=1 n=74 v=0
771350 On ch=1 n=66 v=0
771350 On ch=1 n=62 v=0
771350 On ch=1 n=59 v=0
771360 On ch=1 n=78 v=50
771360 On ch=1 n=74 v=50
771360 On ch=1 n=66 v=50
771360 On ch=1 n=62 v=50
771360 On ch=1 n=59 v=50
771458 Par ch=1 c=64 v=0
771487 Par ch=1 c=64 v=127
771590 On ch=1 n=78 v=0
771590 On ch=1 n=74 v=0
771590 On ch=1 n=66 v=0
771590 On ch=1 n=62 v=0
771590 On ch=1 n=59 v=0
771600 On ch=1 n=66 v=50
771600 On ch=1 n=62 v=50
771600 On ch=1 n=59 v=50
771720 On ch=1 n=86 v=50
771720 On ch=1 n=74 v=50
771780 On ch=1 n=47 v=50
771830 On ch=1 n=66 v=0
771830 On ch=1 n=62 v=0
771830 On ch=1 n=59 v=0
771830 On ch=1 n=47 v=0
771840 On ch=1 n=66 v=50
771840 On ch=1 n=62 v=50
771840 On ch=1 n=59 v=50
771856 Par ch=1 c=64 v=0
771885 Par ch=1 c=64 v=127
771890 On ch=1 n=86 v=0
771890 On ch=1 n=74 v=0
771900 On ch=1 n=85 v=50
771900 On ch=1 n=73 v=50
771950 On ch=1 n=85 v=0
771950 On ch=1 n=73 v=0
771960 On ch=1 n=86 v=50
771960 On ch=1 n=74 v=50
772010 On ch=1 n=86 v=0
772010 On ch=1 n=74 v=0
772020 On ch=1 n=78 v=50
772070 On ch=1 n=66 v=0
772070 On ch=1 n=62 v=0
772070 On ch=1 n=59 v=0
772070 On ch=1 n=78 v=0
772080 TimeSig 4/4 24 8
772080 On ch=1 n=76 v=50
772080 On ch=1 n=71 v=50
772080 On ch=1 n=67 v=50
772080 On ch=1 n=55 v=50
772080 On ch=1 n=43 v=50
772296 Par ch=1 c=64 v=0
772310 On ch=1 n=55 v=0
772310 On ch=1 n=43 v=0
772320 On ch=1 n=59 v=50
772320 On ch=1 n=64 v=50
772320 On ch=1 n=55 v=50
772321 Par ch=1 c=64 v=127
772430 On ch=1 n=76 v=0
772440 On ch=1 n=78 v=50
772470 On ch=1 n=78 v=0
772480 On ch=1 n=76 v=50
772510 On ch=1 n=76 v=0
772520 On ch=1 n=75 v=50
772550 On ch=1 n=75 v=0
772550 On ch=1 n=59 v=0
772550 On ch=1 n=64 v=0
772550 On ch=1 n=55 v=0
772560 On ch=1 n=76 v=50
772564 Par ch=1 c=64 v=0
772670 On ch=1 n=76 v=0
772670 On ch=1 n=71 v=0
772670 On ch=1 n=67 v=0
772680 On ch=1 n=78 v=50
772680 On ch=1 n=69 v=50
772790 On ch=1 n=78 v=0
772790 On ch=1 n=69 v=0
772800 On ch=1 n=79 v=50
772800 On ch=1 n=71 v=50
772800 On ch=1 n=59 v=50
772800 On ch=1 n=64 v=50
772800 On ch=1 n=55 v=50
772910 On ch=1 n=79 v=0
772910 On ch=1 n=71 v=0
772920 On ch=1 n=76 v=50
772920 On ch=1 n=67 v=50
773030 On ch=1 n=76 v=0
773030 On ch=1 n=67 v=0
773030 On ch=1 n=59 v=0
773030 On ch=1 n=64 v=0
773030 On ch=1 n=55 v=0
773040 TimeSig 4/4 24 8
773040 On ch=1 n=76 v=50
773040 On ch=1 n=67 v=50
773040 On ch=1 n=57 v=50
773040 On ch=1 n=45 v=50
773150 On ch=1 n=76 v=0
773150 On ch=1 n=67 v=0
773160 On ch=1 n=74 v=50
773160 On ch=1 n=66 v=50
773270 On ch=1 n=74 v=0
773270 On ch=1 n=66 v=0
773270 On ch=1 n=57 v=0
773270 On ch=1 n=45 v=0
773280 On ch=1 n=74 v=50
773280 On ch=1 n=66 v=50
773280 On ch=1 n=57 v=50
773280 On ch=1 n=57 v=50
773390 On ch=1 n=57 v=0
773400 On ch=1 n=62 v=50
773510 On ch=1 n=74 v=0
773510 On ch=1 n=66 v=0
773510 On ch=1 n=57 v=0
773510 On ch=1 n=62 v=0
773520 On ch=1 n=74 v=50
773520 On ch=1 n=69 v=50
773520 On ch=1 n=66 v=50
773520 On ch=1 n=62 v=50
773520 On ch=1 n=57 v=50
773750 On ch=1 n=74 v=0
773750 On ch=1 n=69 v=0
773750 On ch=1 n=66 v=0
773750 On ch=1 n=62 v=0
773750 On ch=1 n=57 v=0
773760 On ch=1 n=76 v=50
773760 On ch=1 n=69 v=50
773760 On ch=1 n=64 v=50
773760 On ch=1 n=61 v=50
773760 On ch=1 n=57 v=50
773990 On ch=1 n=76 v=0
773990 On ch=1 n=69 v=0
773990 On ch=1 n=64 v=0
773990 On ch=1 n=61 v=0
773990 On ch=1 n=57 v=0
774000 TimeSig 4/4 24 8
774000 Tempo 250000
774000 On ch=1 n=76 v=50
774000 On ch=1 n=69 v=50
774000 On ch=1 n=55 v=50
774230 On ch=1 n=76 v=0
774230 On ch=1 n=69 v=0
774230 On ch=1 n=55 v=0
774240 On ch=1 n=76 v=50
774240 On ch=1 n=69 v=50
774240 On ch=1 n=64 v=50
774240 On ch=1 n=61 v=50
774470 On ch=1 n=76 v=0
774470 On ch=1 n=69 v=0
774470 On ch=1 n=64 v=0
774470 On ch=1 n=61 v=0
774480 On ch=1 n=74 v=50
774480 On ch=1 n=69 v=50
774480 On ch=1 n=54 v=50
774710 On ch=1 n=74 v=0
774710 On ch=1 n=69 v=0
774710 On ch=1 n=54 v=0
774720 On ch=1 n=76 v=50
774720 On ch=1 n=62 v=50
774720 On ch=1 n=57 v=50
774830 On ch=1 n=76 v=0
774840 On ch=1 n=78 v=50
774950 On ch=1 n=78 v=0
774950 On ch=1 n=62 v=0
774950 On ch=1 n=57 v=0
774960 TimeSig 4/4 24 8
774960 On ch=1 n=73 v=50
774960 On ch=1 n=79 v=50
774960 On ch=1 n=69 v=50
774960 On ch=1 n=52 v=50
775190 On ch=1 n=73 v=0
775190 On ch=1 n=79 v=0
775190 On ch=1 n=69 v=0
775190 On ch=1 n=52 v=0
775200 On ch=1 n=76 v=50
775200 On ch=1 n=79 v=50
775200 On ch=1 n=69 v=50
775200 On ch=1 n=61 v=50
775200 On ch=1 n=57 v=50
775430 On ch=1 n=76 v=0
775430 On ch=1 n=79 v=0
775430 On ch=1 n=69 v=0
775430 On ch=1 n=61 v=0
775430 On ch=1 n=57 v=0
775440 On ch=1 n=78 v=50
775440 On ch=1 n=69 v=50
775440 On ch=1 n=50 v=50
775670 On ch=1 n=78 v=0
775670 On ch=1 n=69 v=0
775670 On ch=1 n=50 v=0
775680 On ch=1 n=78 v=50
775680 On ch=1 n=74 v=50
775680 On ch=1 n=62 v=50
775680 On ch=1 n=57 v=50
775910 On ch=1 n=78 v=0
775910 On ch=1 n=74 v=0
775910 On ch=1 n=62 v=0
775910 On ch=1 n=57 v=0
775920 TimeSig 4/4 24 8
775920 On ch=1 n=78 v=50
775920 On ch=1 n=69 v=50
775920 On ch=1 n=57 v=50
775920 On ch=1 n=45 v=50
776150 On ch=1 n=78 v=0
776150 On ch=1 n=69 v=0
776150 On ch=1 n=57 v=0
776150 On ch=1 n=45 v=0
776160 On ch=1 n=76 v=50
776160 On ch=1 n=67 v=50
776160 On ch=1 n=61 v=50
776160 On ch=1 n=49 v=50
776390 On ch=1 n=76 v=0
776390 On ch=1 n=67 v=0
776390 On ch=1 n=61 v=0
776390 On ch=1 n=49 v=0
776400 On ch=1 n=74 v=50
776400 On ch=1 n=66 v=50
776400 On ch=1 n=62 v=50
776400 On ch=1 n=50 v=50
776630 On ch=1 n=74 v=0
776630 On ch=1 n=66 v=0
776630 On ch=1 n=62 v=0
776630 On ch=1 n=50 v=0
776640 On ch=1 n=81 v=50
776640 On ch=1 n=74 v=50
776640 On ch=1 n=66 v=50
776640 On ch=1 n=54 v=50
776870 On ch=1 n=81 v=0
776870 On ch=1 n=74 v=0
776870 On ch=1 n=66 v=0
776870 On ch=1 n=54 v=0
776880 TimeSig 4/4 24 8
776880 On ch=1 n=81 v=50
776880 On ch=1 n=78 v=50
776880 On ch=1 n=69 v=50
776880 On ch=1 n=57 v=50
777110 On ch=1 n=81 v=0
777110 On ch=1 n=78 v=0
777110 On ch=1 n=69 v=0
777110 On ch=1 n=57 v=0
777120 On ch=1 n=79 v=50
777120 On ch=1 n=76 v=50
777120 On ch=1 n=61 v=50
777120 On ch=1 n=49 v=50
777350 On ch=1 n=79 v=0
777350 On ch=1 n=76 v=0
777350 On ch=1 n=61 v=0
777350 On ch=1 n=49 v=0
777360 On ch=1 n=79 v=50
777360 On ch=1 n=76 v=50
777360 On ch=1 n=62 v=50
777360 On ch=1 n=50 v=50
777590 On ch=1 n=79 v=0
777590 On ch=1 n=76 v=0
777590 On ch=1 n=62 v=0
777590 On ch=1 n=50 v=0
777600 On ch=1 n=78 v=50
777600 On ch=1 n=74 v=50
777600 On ch=1 n=66 v=50
777600 On ch=1 n=54 v=50
777830 On ch=1 n=78 v=0
777830 On ch=1 n=74 v=0
777830 On ch=1 n=66 v=0
777830 On ch=1 n=54 v=0
777840 TimeSig 4/4 24 8
777840 On ch=1 n=81 v=47
777840 On ch=1 n=69 v=47
777840 On ch=1 n=61 v=47
777840 On ch=1 n=64 v=47
777840 On ch=1 n=55 v=47
778070 On ch=1 n=81 v=0
778070 On ch=1 n=69 v=0
778070 On ch=1 n=61 v=0
778070 On ch=1 n=64 v=0
778070 On ch=1 n=55 v=0
778080 On ch=1 n=85 v=49
778080 On ch=1 n=73 v=49
778080 On ch=1 n=61 v=49
778080 On ch=1 n=64 v=49
778080 On ch=1 n=55 v=49
778310 On ch=1 n=85 v=0
778310 On ch=1 n=73 v=0
778310 On ch=1 n=61 v=0
778310 On ch=1 n=64 v=0
778310 On ch=1 n=55 v=0
778320 On ch=1 n=86 v=52
778320 On ch=1 n=74 v=52
778320 On ch=1 n=57 v=52
778320 On ch=1 n=62 v=52
778320 On ch=1 n=54 v=52
778550 On ch=1 n=86 v=0
778550 On ch=1 n=74 v=0
778550 On ch=1 n=57 v=0
778550 On ch=1 n=62 v=0
778550 On ch=1 n=54 v=0
778560 On ch=1 n=90 v=55
778560 On ch=1 n=78 v=55
778560 On ch=1 n=57 v=55
778560 On ch=1 n=62 v=55
778560 On ch=1 n=54 v=55
778790 On ch=1 n=90 v=0
778790 On ch=1 n=78 v=0
778790 On ch=1 n=57 v=0
778790 On ch=1 n=62 v=0
778790 On ch=1 n=54 v=0
778800 TimeSig 4/4 24 8
778800 On ch=1 n=93 v=58
778800 On ch=1 n=81 v=58
778800 On ch=1 n=64 v=58
778800 On ch=1 n=67 v=58
778800 On ch=1 n=57 v=58
779030 On ch=1 n=93 v=0
779030 On ch=1 n=81 v=0
779030 On ch=1 n=64 v=0
779030 On ch=1 n=67 v=0
779030 On ch=1 n=57 v=0
779040 On ch=1 n=85 v=61
779040 On ch=1 n=73 v=61
779040 On ch=1 n=64 v=61
779040 On ch=1 n=67 v=61
779040 On ch=1 n=57 v=61
779270 On ch=1 n=85 v=0
779270 On ch=1 n=73 v=0
779270 On ch=1 n=64 v=0
779270 On ch=1 n=67 v=0
779270 On ch=1 n=57 v=0
779280 On ch=1 n=86 v=64
779280 On ch=1 n=74 v=64
779280 On ch=1 n=62 v=64
779280 On ch=1 n=66 v=64
779280 On ch=1 n=57 v=64
779510 On ch=1 n=86 v=0
779510 On ch=1 n=74 v=0
779510 On ch=1 n=62 v=0
779510 On ch=1 n=66 v=0
779510 On ch=1 n=57 v=0
779520 On ch=1 n=90 v=67
779520 On ch=1 n=78 v=67
779520 On ch=1 n=62 v=67
779520 On ch=1 n=66 v=67
779520 On ch=1 n=57 v=67
779750 On ch=1 n=90 v=0
779750 On ch=1 n=78 v=0
779750 On ch=1 n=62 v=0
779750 On ch=1 n=66 v=0
779750 On ch=1 n=57 v=0
779760 TimeSig 4/4 24 8
779760 On ch=1 n=90 v=69
779760 On ch=1 n=81 v=69
779760 On ch=1 n=78 v=69
779760 On ch=1 n=57 v=69
779760 On ch=1 n=45 v=69
779990 On ch=1 n=90 v=0
779990 On ch=1 n=81 v=0
779990 On ch=1 n=78 v=0
779990 On ch=1 n=57 v=0
779990 On ch=1 n=45 v=0
780000 On ch=1 n=88 v=72
780000 On ch=1 n=79 v=72
780000 On ch=1 n=76 v=72
780000 On ch=1 n=61 v=72
780000 On ch=1 n=49 v=72
780230 On ch=1 n=88 v=0
780230 On ch=1 n=79 v=0
780230 On ch=1 n=76 v=0
780230 On ch=1 n=61 v=0
780230 On ch=1 n=49 v=0
780240 On ch=1 n=86 v=75
780240 On ch=1 n=78 v=75
780240 On ch=1 n=74 v=75
780240 On ch=1 n=62 v=75
780240 On ch=1 n=50 v=75
780470 On ch=1 n=86 v=0
780470 On ch=1 n=78 v=0
780470 On ch=1 n=74 v=0
780470 On ch=1 n=62 v=0
780470 On ch=1 n=50 v=0
780480 On ch=1 n=93 v=78
780480 On ch=1 n=81 v=78
780480 On ch=1 n=66 v=78
780480 On ch=1 n=54 v=78
780710 On ch=1 n=93 v=0
780710 On ch=1 n=81 v=0
780710 On ch=1 n=66 v=0
780710 On ch=1 n=54 v=0
780720 TimeSig 4/4 24 8
780720 On ch=1 n=93 v=81
780720 On ch=1 n=90 v=81
780720 On ch=1 n=81 v=81
780720 On ch=1 n=69 v=81
780720 On ch=1 n=57 v=81
780950 On ch=1 n=93 v=0
780950 On ch=1 n=90 v=0
780950 On ch=1 n=81 v=0
780950 On ch=1 n=69 v=0
780950 On ch=1 n=57 v=0
780960 On ch=1 n=91 v=84
780960 On ch=1 n=88 v=84
780960 On ch=1 n=79 v=84
780960 On ch=1 n=61 v=84
780960 On ch=1 n=49 v=84
781190 On ch=1 n=91 v=0
781190 On ch=1 n=88 v=0
781190 On ch=1 n=79 v=0
781190 On ch=1 n=61 v=0
781190 On ch=1 n=49 v=0
781200 On ch=1 n=91 v=87
781200 On ch=1 n=88 v=87
781200 On ch=1 n=79 v=87
781200 On ch=1 n=62 v=87
781200 On ch=1 n=50 v=87
781430 On ch=1 n=91 v=0
781430 On ch=1 n=88 v=0
781430 On ch=1 n=79 v=0
781430 On ch=1 n=62 v=0
781430 On ch=1 n=50 v=0
781440 On ch=1 n=90 v=90
781440 On ch=1 n=86 v=90
781440 On ch=1 n=78 v=90
781440 On ch=1 n=66 v=90
781440 On ch=1 n=54 v=90
781670 On ch=1 n=90 v=0
781670 On ch=1 n=86 v=0
781670 On ch=1 n=78 v=0
781670 On ch=1 n=66 v=0
781670 On ch=1 n=54 v=0
781680 TimeSig 4/4 24 8
781680 On ch=1 n=85 v=90
781680 On ch=1 n=88 v=90
781680 On ch=1 n=76 v=90
781680 On ch=1 n=69 v=90
781680 On ch=1 n=57 v=90
781910 On ch=1 n=85 v=0
781910 On ch=1 n=88 v=0
781910 On ch=1 n=76 v=0
781910 On ch=1 n=69 v=0
781910 On ch=1 n=57 v=0
781920 On ch=1 n=45 v=90
781920 On ch=1 n=33 v=90
782030 On ch=1 n=45 v=0
782030 On ch=1 n=33 v=0
782040 On ch=1 n=69 v=90
782040 On ch=1 n=57 v=90
782150 On ch=1 n=69 v=0
782150 On ch=1 n=57 v=0
782160 On ch=1 n=47 v=90
782160 On ch=1 n=35 v=90
782270 On ch=1 n=47 v=0
782270 On ch=1 n=35 v=0
782280 On ch=1 n=71 v=90
782280 On ch=1 n=59 v=90
782390 On ch=1 n=71 v=0
782390 On ch=1 n=59 v=0
782400 On ch=1 n=45 v=90
782400 On ch=1 n=33 v=90
782510 On ch=1 n=45 v=0
782510 On ch=1 n=33 v=0
782520 On ch=1 n=69 v=90
782520 On ch=1 n=57 v=90
782630 On ch=1 n=69 v=0
782630 On ch=1 n=57 v=0
782640 TimeSig 4/4 24 8
782640 On ch=1 n=50 v=90
782640 On ch=1 n=38 v=90
782750 On ch=1 n=50 v=0
782750 On ch=1 n=38 v=0
782760 On ch=1 n=74 v=90
782760 On ch=1 n=62 v=90
782870 On ch=1 n=74 v=0
782870 On ch=1 n=62 v=0
782880 On ch=1 n=49 v=90
782880 On ch=1 n=37 v=90
782990 On ch=1 n=49 v=0
782990 On ch=1 n=37 v=0
783000 On ch=1 n=73 v=90
783000 On ch=1 n=61 v=90
783110 On ch=1 n=73 v=0
783110 On ch=1 n=61 v=0
783120 On ch=1 n=54 v=90
783120 On ch=1 n=42 v=90
783230 On ch=1 n=54 v=0
783230 On ch=1 n=42 v=0
783240 On ch=1 n=78 v=90
783240 On ch=1 n=66 v=90
783350 On ch=1 n=78 v=0
783350 On ch=1 n=66 v=0
783360 On ch=1 n=52 v=90
783360 On ch=1 n=40 v=90
783470 On ch=1 n=52 v=0
783470 On ch=1 n=40 v=0
783480 On ch=1 n=76 v=90
783480 On ch=1 n=64 v=90
783590 On ch=1 n=76 v=0
783590 On ch=1 n=64 v=0
783600 TimeSig 4/4 24 8
783600 On ch=1 n=57 v=90
783600 On ch=1 n=45 v=90
783710 On ch=1 n=57 v=0
783710 On ch=1 n=45 v=0
783720 On ch=1 n=81 v=90
783720 On ch=1 n=69 v=90
783830 On ch=1 n=81 v=0
783830 On ch=1 n=69 v=0
783840 On ch=1 n=55 v=90
783840 On ch=1 n=43 v=90
783950 On ch=1 n=55 v=0
783950 On ch=1 n=43 v=0
783960 On ch=1 n=79 v=90
783960 On ch=1 n=67 v=90
784070 On ch=1 n=79 v=0
784070 On ch=1 n=67 v=0
784080 On ch=1 n=55 v=90
784080 On ch=1 n=43 v=90
784190 On ch=1 n=55 v=0
784190 On ch=1 n=43 v=0
784200 On ch=1 n=79 v=90
784200 On ch=1 n=67 v=90
784310 On ch=1 n=79 v=0
784310 On ch=1 n=67 v=0
784320 On ch=1 n=55 v=90
784320 On ch=1 n=43 v=90
784430 On ch=1 n=55 v=0
784430 On ch=1 n=43 v=0
784440 On ch=1 n=79 v=90
784440 On ch=1 n=67 v=90
784550 On ch=1 n=79 v=0
784550 On ch=1 n=67 v=0
784560 TimeSig 4/4 24 8
784560 On ch=1 n=62 v=90
784560 On ch=1 n=50 v=90
784670 On ch=1 n=62 v=0
784670 On ch=1 n=50 v=0
784680 On ch=1 n=86 v=90
784680 On ch=1 n=74 v=90
784790 On ch=1 n=86 v=0
784790 On ch=1 n=74 v=0
784800 On ch=1 n=61 v=90
784800 On ch=1 n=49 v=90
784910 On ch=1 n=61 v=0
784910 On ch=1 n=49 v=0
784920 On ch=1 n=85 v=90
784920 On ch=1 n=73 v=90
785030 On ch=1 n=85 v=0
785030 On ch=1 n=73 v=0
785040 On ch=1 n=66 v=90
785040 On ch=1 n=54 v=90
785150 On ch=1 n=66 v=0
785150 On ch=1 n=54 v=0
785160 On ch=1 n=90 v=90
785160 On ch=1 n=78 v=90
785270 On ch=1 n=90 v=0
785270 On ch=1 n=78 v=0
785280 On ch=1 n=64 v=90
785280 On ch=1 n=52 v=90
785390 On ch=1 n=64 v=0
785390 On ch=1 n=52 v=0
785400 On ch=1 n=88 v=90
785400 On ch=1 n=76 v=90
785510 On ch=1 n=88 v=0
785510 On ch=1 n=76 v=0
785520 TimeSig 4/4 24 8
785520 On ch=1 n=69 v=90
785520 On ch=1 n=57 v=90
785630 On ch=1 n=69 v=0
785630 On ch=1 n=57 v=0
785640 On ch=1 n=93 v=90
785640 On ch=1 n=81 v=90
785750 On ch=1 n=93 v=0
785750 On ch=1 n=81 v=0
785760 On ch=1 n=67 v=90
785760 On ch=1 n=55 v=90
785870 On ch=1 n=67 v=0
785870 On ch=1 n=55 v=0
785880 On ch=1 n=91 v=90
785880 On ch=1 n=79 v=90
785990 On ch=1 n=91 v=0
785990 On ch=1 n=79 v=0
786000 On ch=1 n=85 v=47
786000 On ch=1 n=88 v=47
786000 On ch=1 n=91 v=47
786000 On ch=1 n=79 v=47
786000 On ch=1 n=33 v=47
786110 On ch=1 n=33 v=0
786120 On ch=1 n=45 v=55
786230 On ch=1 n=45 v=0
786240 On ch=1 n=49 v=64
786333 Par ch=1 c=64 v=127
786350 On ch=1 n=49 v=0
786360 On ch=1 n=52 v=72
786470 On ch=1 n=52 v=0
786480 TimeSig 4/4 24 8
786480 On ch=1 n=57 v=81
786590 On ch=1 n=57 v=0
786600 On ch=1 n=61 v=90
786710 On ch=1 n=85 v=0
786710 On ch=1 n=88 v=0
786710 On ch=1 n=91 v=0
786710 On ch=1 n=79 v=0
786710 On ch=1 n=61 v=0
786720 On ch=1 n=86 v=120
786720 On ch=1 n=90 v=120
786720 On ch=1 n=78 v=120
786720 On ch=1 n=54 v=120
786720 On ch=1 n=57 v=120
786720 On ch=1 n=62 v=120
786720 On ch=1 n=50 v=120
786771 Par ch=1 c=64 v=0
786830 On ch=1 n=54 v=0
786830 On ch=1 n=57 v=0
786830 On ch=1 n=62 v=0
786830 On ch=1 n=50 v=0
786840 On ch=1 n=54 v=120
786840 On ch=1 n=57 v=120
786840 On ch=1 n=62 v=120
786840 On ch=1 n=50 v=120
786950 On ch=1 n=54 v=0
786950 On ch=1 n=57 v=0
786950 On ch=1 n=62 v=0
786950 On ch=1 n=50 v=0
786960 On ch=1 n=54 v=120
786960 On ch=1 n=57 v=120
786960 On ch=1 n=62 v=120
786960 On ch=1 n=50 v=120
787074 Par ch=1 c=64 v=127
787190 On ch=1 n=54 v=0
787190 On ch=1 n=57 v=0
787190 On ch=1 n=62 v=0
787190 On ch=1 n=50 v=0
787200 On ch=1 n=54 v=120
787200 On ch=1 n=57 v=120
787200 On ch=1 n=62 v=120
787200 On ch=1 n=50 v=120
787310 On ch=1 n=86 v=0
787310 On ch=1 n=90 v=0
787310 On ch=1 n=78 v=0
787320 On ch=1 n=90 v=120
787320 On ch=1 n=78 v=120
787430 On ch=1 n=90 v=0
787430 On ch=1 n=78 v=0
787430 On ch=1 n=54 v=0
787430 On ch=1 n=57 v=0
787430 On ch=1 n=62 v=0
787430 On ch=1 n=50 v=0
787440 TimeSig 4/4 24 8
787440 On ch=1 n=74 v=120
787440 On ch=1 n=62 v=120
787440 On ch=1 n=90 v=120
787440 On ch=1 n=78 v=120
787670 On ch=1 n=74 v=0
787670 On ch=1 n=62 v=0
787670 On ch=1 n=90 v=0
787670 On ch=1 n=78 v=0
787680 On ch=1 n=71 v=120
787680 On ch=1 n=59 v=120
787680 On ch=1 n=86 v=120
787680 On ch=1 n=74 v=120
787863 Par ch=1 c=64 v=0
787910 On ch=1 n=71 v=0
787910 On ch=1 n=59 v=0
787910 On ch=1 n=86 v=0
787910 On ch=1 n=74 v=0
787920 On ch=1 n=66 v=120
787920 On ch=1 n=71 v=120
787920 On ch=1 n=74 v=120
787920 On ch=1 n=62 v=120
787920 On ch=1 n=50 v=120
787920 On ch=1 n=54 v=120
787920 On ch=1 n=59 v=120
787920 On ch=1 n=47 v=120
788115 Par ch=1 c=64 v=127
788270 On ch=1 n=66 v=0
788270 On ch=1 n=71 v=0
788270 On ch=1 n=74 v=0
788270 On ch=1 n=62 v=0
788270 On ch=1 n=50 v=0
788270 On ch=1 n=54 v=0
788270 On ch=1 n=59 v=0
788270 On ch=1 n=47 v=0
788280 On ch=1 n=71 v=120
788280 On ch=1 n=59 v=120
788280 On ch=1 n=86 v=120
788280 On ch=1 n=74 v=120
788390 On ch=1 n=71 v=0
788390 On ch=1 n=59 v=0
788390 On ch=1 n=86 v=0
788390 On ch=1 n=74 v=0
788400 TimeSig 4/4 24 8
788400 On ch=1 n=71 v=120
788400 On ch=1 n=59 v=120
788400 On ch=1 n=86 v=120
788400 On ch=1 n=74 v=120
788630 On ch=1 n=71 v=0
788630 On ch=1 n=59 v=0
788630 On ch=1 n=86 v=0
788630 On ch=1 n=74 v=0
788640 On ch=1 n=67 v=120
788640 On ch=1 n=55 v=120
788640 On ch=1 n=83 v=120
788640 On ch=1 n=71 v=120
788688 Par ch=1 c=64 v=0
788870 On ch=1 n=67 v=0
788870 On ch=1 n=55 v=0
788870 On ch=1 n=83 v=0
788870 On ch=1 n=71 v=0
788880 On ch=1 n=59 v=120
788880 On ch=1 n=64 v=120
788880 On ch=1 n=67 v=120
788880 On ch=1 n=55 v=120
788880 On ch=1 n=43 v=120
788880 On ch=1 n=47 v=120
788880 On ch=1 n=52 v=120
788880 On ch=1 n=40 v=120
789033 Par ch=1 c=64 v=127
789230 On ch=1 n=59 v=0
789230 On ch=1 n=64 v=0
789230 On ch=1 n=67 v=0
789230 On ch=1 n=55 v=0
789230 On ch=1 n=43 v=0
789230 On ch=1 n=47 v=0
789230 On ch=1 n=52 v=0
789230 On ch=1 n=40 v=0
789240 On ch=1 n=83 v=120
789240 On ch=1 n=71 v=120
789240 On ch=1 n=67 v=120
789240 On ch=1 n=55 v=120
789350 On ch=1 n=83 v=0
789350 On ch=1 n=71 v=0
789350 On ch=1 n=67 v=0
789350 On ch=1 n=55 v=0
789360 TimeSig 4/4 24 8
789360 On ch=1 n=83 v=120
789360 On ch=1 n=71 v=120
789360 On ch=1 n=67 v=120
789360 On ch=1 n=55 v=120
789590 On ch=1 n=83 v=0
789590 On ch=1 n=71 v=0
789590 On ch=1 n=67 v=0
789590 On ch=1 n=55 v=0
789600 On ch=1 n=79 v=120
789600 On ch=1 n=67 v=120
789600 On ch=1 n=64 v=120
789600 On ch=1 n=52 v=120
789700 Par ch=1 c=64 v=0
789830 On ch=1 n=79 v=0
789830 On ch=1 n=67 v=0
789830 On ch=1 n=64 v=0
789830 On ch=1 n=52 v=0
789840 On ch=1 n=59 v=120
789840 On ch=1 n=64 v=120
789840 On ch=1 n=67 v=120
789840 On ch=1 n=55 v=120
789840 On ch=1 n=43 v=120
789840 On ch=1 n=47 v=120
789840 On ch=1 n=52 v=120
789840 On ch=1 n=40 v=120
790013 Par ch=1 c=64 v=127
790190 On ch=1 n=59 v=0
790190 On ch=1 n=64 v=0
790190 On ch=1 n=67 v=0
790190 On ch=1 n=55 v=0
790190 On ch=1 n=43 v=0
790190 On ch=1 n=47 v=0
790190 On ch=1 n=52 v=0
790190 On ch=1 n=40 v=0
790200 On ch=1 n=71 v=120
790200 On ch=1 n=76 v=120
790200 On ch=1 n=79 v=120
790200 On ch=1 n=67 v=120
790200 On ch=1 n=55 v=120
790200 On ch=1 n=59 v=120
790200 On ch=1 n=64 v=120
790200 On ch=1 n=52 v=120
790310 On ch=1 n=71 v=0
790310 On ch=1 n=76 v=0
790310 On ch=1 n=79 v=0
790310 On ch=1 n=67 v=0
790310 On ch=1 n=55 v=0
790310 On ch=1 n=59 v=0
790310 On ch=1 n=64 v=0
790310 On ch=1 n=52 v=0
790320 TimeSig 4/4 24 8
790320 On ch=1 n=71 v=120
790320 On ch=1 n=76 v=120
790320 On ch=1 n=79 v=120
790320 On ch=1 n=67 v=120
790320 On ch=1 n=55 v=120
790320 On ch=1 n=59 v=120
790320 On ch=1 n=64 v=120
790320 On ch=1 n=52 v=120
790550 On ch=1 n=71 v=0
790550 On ch=1 n=76 v=0
790550 On ch=1 n=79 v=0
790550 On ch=1 n=67 v=0
790550 On ch=1 n=55 v=0
790550 On ch=1 n=59 v=0
790550 On ch=1 n=64 v=0
790550 On ch=1 n=52 v=0
790560 On ch=1 n=71 v=120
790560 On ch=1 n=76 v=120
790560 On ch=1 n=79 v=120
790560 On ch=1 n=67 v=120
790560 On ch=1 n=55 v=120
790560 On ch=1 n=59 v=120
790560 On ch=1 n=64 v=120
790560 On ch=1 n=52 v=120
790790 Par ch=1 c=64 v=0
790790 On ch=1 n=71 v=0
790790 On ch=1 n=76 v=0
790790 On ch=1 n=79 v=0
790790 On ch=1 n=67 v=0
790790 On ch=1 n=55 v=0
790790 On ch=1 n=59 v=0
790790 On ch=1 n=64 v=0
790790 On ch=1 n=52 v=0
790800 On ch=1 n=71 v=120
790800 On ch=1 n=76 v=120
790800 On ch=1 n=80 v=120
790800 On ch=1 n=68 v=120
790800 On ch=1 n=56 v=120
790800 On ch=1 n=59 v=120
790800 On ch=1 n=64 v=120
790800 On ch=1 n=52 v=120
791009 Par ch=1 c=64 v=127
791150 On ch=1 n=71 v=0
791150 On ch=1 n=76 v=0
791150 On ch=1 n=80 v=0
791150 On ch=1 n=68 v=0
791150 On ch=1 n=56 v=0
791150 On ch=1 n=59 v=0
791150 On ch=1 n=64 v=0
791150 On ch=1 n=52 v=0
791160 On ch=1 n=71 v=120
791160 On ch=1 n=76 v=120
791160 On ch=1 n=80 v=120
791160 On ch=1 n=68 v=120
791160 On ch=1 n=56 v=120
791160 On ch=1 n=59 v=120
791160 On ch=1 n=64 v=120
791160 On ch=1 n=52 v=120
791270 On ch=1 n=71 v=0
791270 On ch=1 n=76 v=0
791270 On ch=1 n=80 v=0
791270 On ch=1 n=68 v=0
791270 On ch=1 n=56 v=0
791270 On ch=1 n=59 v=0
791270 On ch=1 n=64 v=0
791270 On ch=1 n=52 v=0
791280 TimeSig 4/4 24 8
791280 Tempo 1034482
791280 On ch=1 n=71 v=64
791280 On ch=1 n=76 v=64
791280 On ch=1 n=80 v=64
791280 On ch=1 n=68 v=64
791280 On ch=1 n=56 v=64
791280 On ch=1 n=59 v=64
791280 On ch=1 n=64 v=64
791280 On ch=1 n=52 v=64
791990 On ch=1 n=71 v=0
791990 On ch=1 n=76 v=0
791990 On ch=1 n=80 v=0
791990 On ch=1 n=68 v=0
791990 On ch=1 n=56 v=0
791990 On ch=1 n=59 v=0
791990 On ch=1 n=64 v=0
791990 On ch=1 n=52 v=0
792000 On ch=1 n=71 v=64
792000 On ch=1 n=80 v=64
792000 On ch=1 n=68 v=64
792000 On ch=1 n=59 v=64
792000 On ch=1 n=52 v=64
792230 On ch=1 n=71 v=0
792230 On ch=1 n=80 v=0
792230 On ch=1 n=68 v=0
792230 On ch=1 n=59 v=0
792230 On ch=1 n=52 v=0
792240 TimeSig 4/4 24 8
792240 On ch=1 n=71 v=64
792240 On ch=1 n=80 v=64
792240 On ch=1 n=68 v=64
792240 On ch=1 n=59 v=64
792240 On ch=1 n=52 v=64
792530 On ch=1 n=71 v=0
792530 On ch=1 n=80 v=0
792530 On ch=1 n=68 v=0
792530 On ch=1 n=59 v=0
792530 On ch=1 n=52 v=0
792540 On ch=1 n=76 v=64
792540 On ch=1 n=71 v=64
792540 On ch=1 n=64 v=64
792540 On ch=1 n=56 v=64
792548 Par ch=1 c=64 v=0
792590 On ch=1 n=76 v=0
792590 On ch=1 n=71 v=0
792590 On ch=1 n=64 v=0
792590 On ch=1 n=56 v=0
792600 On ch=1 n=76 v=64
792600 On ch=1 n=71 v=64
792600 On ch=1 n=64 v=64
792600 On ch=1 n=56 v=64
792710 On ch=1 n=76 v=0
792710 On ch=1 n=71 v=0
792710 On ch=1 n=64 v=0
792710 On ch=1 n=56 v=0
792720 On ch=1 n=71 v=64
792720 On ch=1 n=76 v=64
792720 On ch=1 n=64 v=64
792720 On ch=1 n=56 v=64
792720 On ch=1 n=44 v=64
792933 Par ch=1 c=64 v=127
792950 On ch=1 n=71 v=0
792950 On ch=1 n=76 v=0
792950 On ch=1 n=64 v=0
792950 On ch=1 n=56 v=0
792950 On ch=1 n=44 v=0
792960 On ch=1 n=76 v=64
792960 On ch=1 n=71 v=64
792960 On ch=1 n=64 v=64
792960 On ch=1 n=56 v=64
793190 On ch=1 n=76 v=0
793190 On ch=1 n=71 v=0
793190 On ch=1 n=64 v=0
793190 On ch=1 n=56 v=0
793200 TimeSig 4/4 24 8
793200 On ch=1 n=76 v=64
793200 On ch=1 n=71 v=64
793200 On ch=1 n=64 v=64
793200 On ch=1 n=56 v=64
793279 Par ch=1 c=64 v=0
793310 On ch=1 n=76 v=0
793310 On ch=1 n=64 v=0
793310 On ch=1 n=56 v=0
793320 On ch=1 n=75 v=64
793320 On ch=1 n=59 v=64
793320 On ch=1 n=54 v=64
793430 On ch=1 n=75 v=0
793430 On ch=1 n=71 v=0
793430 On ch=1 n=59 v=0
793430 On ch=1 n=54 v=0
793440 On ch=1 n=71 v=64
793440 On ch=1 n=75 v=64
793440 On ch=1 n=63 v=64
793440 On ch=1 n=54 v=64
793440 On ch=1 n=42 v=64
793518 Par ch=1 c=64 v=127
793550 On ch=1 n=71 v=0
793560 On ch=1 n=66 v=64
793670 On ch=1 n=66 v=0
793670 On ch=1 n=75 v=0
793670 On ch=1 n=63 v=0
793670 On ch=1 n=54 v=0
793670 On ch=1 n=42 v=0
793680 On ch=1 n=66 v=64
793680 On ch=1 n=75 v=64
793680 On ch=1 n=59 v=64
793680 On ch=1 n=54 v=64
793790 On ch=1 n=66 v=0
793800 On ch=1 n=63 v=64
793910 On ch=1 n=63 v=0
793910 On ch=1 n=75 v=0
793910 On ch=1 n=59 v=0
793910 On ch=1 n=54 v=0
793920 On ch=1 n=63 v=64
793920 On ch=1 n=75 v=64
793920 On ch=1 n=59 v=64
793920 On ch=1 n=54 v=64
794030 On ch=1 n=63 v=0
794040 On ch=1 n=71 v=64
794140 Par ch=1 c=64 v=0
794150 On ch=1 n=71 v=0
794150 On ch=1 n=75 v=0
794150 On ch=1 n=59 v=0
794150 On ch=1 n=54 v=0
794160 TimeSig 4/4 24 8
794160 On ch=1 n=73 v=64
794160 On ch=1 n=68 v=64
794160 On ch=1 n=64 v=64
794160 On ch=1 n=52 v=64
794177 Par ch=1 c=64 v=127
794510 On ch=1 n=73 v=0
794520 On ch=1 n=75 v=64
794550 On ch=1 n=75 v=0
794560 On ch=1 n=73 v=64
794590 On ch=1 n=73 v=0
794600 On ch=1 n=72 v=64
794630 On ch=1 n=72 v=0
794630 On ch=1 n=64 v=0
794640 On ch=1 n=73 v=64
794640 On ch=1 n=56 v=64
794710 On ch=1 n=73 v=0
794720 On ch=1 n=68 v=64
794750 On ch=1 n=68 v=0
794760 On ch=1 n=66 v=64
794790 On ch=1 n=68 v=0
794800 On ch=1 n=75 v=64
794870 On ch=1 n=66 v=0
794870 On ch=1 n=75 v=0
794880 On ch=1 n=78 v=64
794880 On ch=1 n=68 v=64
794950 On ch=1 n=78 v=0
794960 On ch=1 n=76 v=64
794990 On ch=1 n=68 v=0
795000 On ch=1 n=66 v=64
795030 On ch=1 n=76 v=0
795040 On ch=1 n=73 v=64
795041 Par ch=1 c=64 v=0
795110 On ch=1 n=73 v=0
795110 On ch=1 n=66 v=0
795110 On ch=1 n=56 v=0
795110 On ch=1 n=52 v=0
795120 TimeSig 4/4 24 8
795120 On ch=1 n=71 v=64
795120 On ch=1 n=71 v=64
795120 On ch=1 n=63 v=64
795120 On ch=1 n=54 v=64
795140 Par ch=1 c=64 v=127
795190 On ch=1 n=71 v=0
795200 On ch=1 n=73 v=64
795212 Par ch=1 c=64 v=0
795270 On ch=1 n=73 v=0
795280 On ch=1 n=70 v=64
795350 On ch=1 n=71 v=0
795350 On ch=1 n=70 v=0
795360 On ch=1 n=71 v=64
795360 On ch=1 n=71 v=64
795430 On ch=1 n=71 v=0
795440 On ch=1 n=73 v=64
795510 On ch=1 n=73 v=0
795520 On ch=1 n=75 v=64
795590 On ch=1 n=75 v=0
795600 On ch=1 n=76 v=64
795670 On ch=1 n=76 v=0
795680 On ch=1 n=77 v=64
795750 On ch=1 n=77 v=0
795760 On ch=1 n=78 v=64
795830 On ch=1 n=71 v=0
795830 On ch=1 n=78 v=0
795830 On ch=1 n=63 v=0
795830 On ch=1 n=54 v=0
795840 On ch=1 n=77 v=64
795840 On ch=1 n=71 v=64
795840 On ch=1 n=63 v=64
795840 On ch=1 n=54 v=64
795890 On ch=1 n=77 v=0
795900 On ch=1 n=78 v=64
795950 On ch=1 n=78 v=0
795960 On ch=1 n=80 v=64
796010 On ch=1 n=80 v=0
796020 On ch=1 n=78 v=64
796070 On ch=1 n=78 v=0
796070 On ch=1 n=71 v=0
796070 On ch=1 n=63 v=0
796070 On ch=1 n=54 v=0
796080 TimeSig 4/4 24 8
796080 On ch=1 n=78 v=64
796080 On ch=1 n=70 v=64
796080 On ch=1 n=61 v=64
796080 On ch=1 n=54 v=64
796150 On ch=1 n=70 v=0
796150 On ch=1 n=61 v=0
796160 On ch=1 n=71 v=64
796160 On ch=1 n=63 v=64
796190 On ch=1 n=54 v=0
796200 On ch=1 n=54 v=64
796230 On ch=1 n=71 v=0
796230 On ch=1 n=63 v=0
796240 On ch=1 n=68 v=64
796240 On ch=1 n=59 v=64
796310 On ch=1 n=68 v=0
796310 On ch=1 n=59 v=0
796310 On ch=1 n=54 v=0
796320 On ch=1 n=70 v=64
796320 On ch=1 n=61 v=64
796320 On ch=1 n=54 v=64
796390 On ch=1 n=70 v=0
796390 On ch=1 n=61 v=0
796400 On ch=1 n=71 v=64
796400 On ch=1 n=63 v=64
796470 On ch=1 n=71 v=0
796470 On ch=1 n=63 v=0
796480 On ch=1 n=73 v=64
796480 On ch=1 n=64 v=64
796550 On ch=1 n=64 v=0
796560 On ch=1 n=58 v=64
796630 On ch=1 n=73 v=0
796630 On ch=1 n=58 v=0
796640 On ch=1 n=75 v=64
796640 On ch=1 n=59 v=64
796710 On ch=1 n=75 v=0
796710 On ch=1 n=59 v=0
796720 On ch=1 n=76 v=64
796720 On ch=1 n=61 v=64
796790 On ch=1 n=78 v=0
796790 On ch=1 n=76 v=0
796790 On ch=1 n=61 v=0
796800 On ch=1 n=76 v=64
796800 On ch=1 n=68 v=64
796800 On ch=1 n=64 v=64
796850 On ch=1 n=68 v=0
796850 On ch=1 n=64 v=0
796860 On ch=1 n=66 v=64
796860 On ch=1 n=63 v=64
796910 On ch=1 n=66 v=0
796910 On ch=1 n=63 v=0
796920 On ch=1 n=68 v=64
796920 On ch=1 n=64 v=64
796970 On ch=1 n=68 v=0
796970 On ch=1 n=64 v=0
796980 On ch=1 n=70 v=64
796980 On ch=1 n=61 v=64
797030 On ch=1 n=76 v=0
797030 On ch=1 n=70 v=0
797030 On ch=1 n=61 v=0
797030 On ch=1 n=54 v=0
797040 TimeSig 4/4 24 8
797040 On ch=1 n=75 v=64
797040 On ch=1 n=71 v=64
797040 On ch=1 n=59 v=64
797040 On ch=1 n=54 v=64
797110 On ch=1 n=59 v=0
797120 On ch=1 n=61 v=64
797150 On ch=1 n=75 v=0
797150 On ch=1 n=71 v=0
797160 On ch=1 n=75 v=64
797160 On ch=1 n=71 v=64
797190 On ch=1 n=61 v=0
797200 On ch=1 n=58 v=64
797270 On ch=1 n=75 v=0
797270 On ch=1 n=71 v=0
797270 On ch=1 n=58 v=0
797270 On ch=1 n=54 v=0
797280 On ch=1 n=75 v=64
797280 On ch=1 n=71 v=64
797280 On ch=1 n=59 v=64
797350 On ch=1 n=59 v=0
797360 On ch=1 n=61 v=64
797430 On ch=1 n=61 v=0
797440 On ch=1 n=63 v=64
797510 On ch=1 n=63 v=0
797520 On ch=1 n=64 v=64
797590 On ch=1 n=64 v=0
797600 On ch=1 n=65 v=64
797670 On ch=1 n=65 v=0
797680 On ch=1 n=66 v=64
797750 On ch=1 n=66 v=0
797760 On ch=1 n=68 v=64
797810 On ch=1 n=68 v=0
797820 On ch=1 n=66 v=64
797870 On ch=1 n=66 v=0
797880 On ch=1 n=65 v=64
797930 On ch=1 n=65 v=0
797940 On ch=1 n=66 v=64
797990 On ch=1 n=75 v=0
797990 On ch=1 n=71 v=0
797990 On ch=1 n=66 v=0
798000 TimeSig 4/4 24 8
798000 On ch=1 n=42 v=64
798070 On ch=1 n=42 v=0
798080 On ch=1 n=44 v=64
798120 On ch=1 n=71 v=64
798120 On ch=1 n=75 v=64
798120 On ch=1 n=66 v=64
798150 On ch=1 n=44 v=0
798160 On ch=1 n=46 v=64
798230 On ch=1 n=46 v=0
798230 On ch=1 n=71 v=0
798230 On ch=1 n=75 v=0
798230 On ch=1 n=66 v=0
798240 On ch=1 n=71 v=64
798240 On ch=1 n=75 v=64
798240 On ch=1 n=66 v=64
798240 On ch=1 n=47 v=64
798310 On ch=1 n=47 v=0
798320 On ch=1 n=49 v=64
798390 On ch=1 n=49 v=0
798400 On ch=1 n=51 v=64
798470 On ch=1 n=51 v=0
798480 On ch=1 n=52 v=64
798550 On ch=1 n=52 v=0
798560 On ch=1 n=53 v=64
798630 On ch=1 n=53 v=0
798640 On ch=1 n=54 v=64
798710 On ch=1 n=54 v=0
798720 On ch=1 n=53 v=64
798770 On ch=1 n=53 v=0
798780 On ch=1 n=54 v=64
798830 On ch=1 n=54 v=0
798840 On ch=1 n=56 v=64
798890 On ch=1 n=56 v=0
798900 On ch=1 n=54 v=64
798950 On ch=1 n=71 v=0
798950 On ch=1 n=75 v=0
798950 On ch=1 n=66 v=0
798950 On ch=1 n=54 v=0
798960 TimeSig 4/4 24 8
798960 On ch=1 n=73 v=64
798960 On ch=1 n=70 v=64
798960 On ch=1 n=54 v=64
799030 On ch=1 n=54 v=0
799040 On ch=1 n=64 v=64
799110 On ch=1 n=64 v=0
799120 On ch=1 n=63 v=64
799190 On ch=1 n=73 v=0
799190 On ch=1 n=63 v=0
799200 On ch=1 n=78 v=64
799200 On ch=1 n=64 v=64
799270 On ch=1 n=64 v=0
799280 On ch=1 n=61 v=64
799350 On ch=1 n=61 v=0
799360 On ch=1 n=58 v=64
799430 On ch=1 n=78 v=0
799430 On ch=1 n=70 v=0
799430 On ch=1 n=58 v=0
799440 On ch=1 n=80 v=64
799440 On ch=1 n=71 v=64
799440 On ch=1 n=54 v=64
799510 On ch=1 n=54 v=0
799520 On ch=1 n=52 v=64
799560 On ch=1 n=66 v=64
799590 On ch=1 n=52 v=0
799600 On ch=1 n=49 v=64
799670 On ch=1 n=80 v=0
799670 On ch=1 n=71 v=0
799670 On ch=1 n=49 v=0
799670 On ch=1 n=66 v=0
799680 On ch=1 n=82 v=64
799680 On ch=1 n=73 v=64
799680 On ch=1 n=66 v=64
799680 On ch=1 n=42 v=64
799750 On ch=1 n=42 v=0
799760 On ch=1 n=54 v=64
799790 On ch=1 n=66 v=0
799800 On ch=1 n=64 v=64
799830 On ch=1 n=54 v=0
799840 On ch=1 n=42 v=64
799910 On ch=1 n=82 v=0
799910 On ch=1 n=73 v=0
799910 On ch=1 n=64 v=0
799910 On ch=1 n=42 v=0
799920 TimeSig 4/4 24 8
799920 On ch=1 n=83 v=64
799920 On ch=1 n=71 v=64
799920 On ch=1 n=66 v=64
799920 On ch=1 n=47 v=64
799979 Par ch=1 c=64 v=127
800150 On ch=1 n=83 v=0
800150 On ch=1 n=71 v=0
800150 On ch=1 n=66 v=0
800150 On ch=1 n=47 v=0
800160 On ch=1 n=83 v=64
800160 On ch=1 n=66 v=64
800270 On ch=1 n=83 v=0
800270 On ch=1 n=66 v=0
800280 On ch=1 n=78 v=64
800280 On ch=1 n=71 v=64
800280 On ch=1 n=63 v=64
800280 On ch=1 n=54 v=64
800280 On ch=1 n=47 v=64
800380 Par ch=1 c=64 v=0
800390 On ch=1 n=78 v=0
800390 On ch=1 n=71 v=0
800390 On ch=1 n=63 v=0
800400 On ch=1 n=78 v=64
800400 On ch=1 n=74 v=64
800400 On ch=1 n=66 v=64
800400 On ch=1 n=62 v=64
800458 Par ch=1 c=64 v=127
800630 On ch=1 n=62 v=0
800630 On ch=1 n=54 v=0
800630 On ch=1 n=47 v=0
800880 TimeSig 4/4 24 8
800929 Par ch=1 c=64 v=0
801048 Par ch=1 c=64 v=127
801240 On ch=1 n=54 v=64
801240 On ch=1 n=62 v=64
801240 On ch=1 n=45 v=64
801350 On ch=1 n=66 v=0
801360 On ch=1 n=66 v=64
801590 On ch=1 n=54 v=0
801590 On ch=1 n=62 v=0
801590 On ch=1 n=45 v=0
801830 On ch=1 n=74 v=0
801830 On ch=1 n=78 v=0
801830 On ch=1 n=66 v=0
801840 TimeSig 4/4 24 8
801840 Tempo 258620
801913 Par ch=1 c=64 v=0
802080 On ch=1 n=83 v=47
802080 On ch=1 n=71 v=47
802310 On ch=1 n=83 v=0
802310 On ch=1 n=71 v=0
802320 On ch=1 n=81 v=47
802320 On ch=1 n=69 v=47
802550 On ch=1 n=81 v=0
802550 On ch=1 n=69 v=0
802560 On ch=1 n=59 v=47
802560 On ch=1 n=47 v=47
802790 On ch=1 n=59 v=0
802790 On ch=1 n=47 v=0
802800 TimeSig 4/4 24 8
802800 On ch=1 n=57 v=47
802800 On ch=1 n=45 v=47
803030 On ch=1 n=57 v=0
803030 On ch=1 n=45 v=0
803040 On ch=1 n=83 v=47
803040 On ch=1 n=71 v=47
803270 On ch=1 n=83 v=0
803270 On ch=1 n=71 v=0
803280 On ch=1 n=81 v=47
803280 On ch=1 n=69 v=47
803510 On ch=1 n=81 v=0
803510 On ch=1 n=69 v=0
803520 On ch=1 n=59 v=47
803520 On ch=1 n=47 v=47
803750 On ch=1 n=59 v=0
803750 On ch=1 n=47 v=0
803760 TimeSig 4/4 24 8
803760 On ch=1 n=57 v=47
803760 On ch=1 n=45 v=47
803990 On ch=1 n=57 v=0
803990 On ch=1 n=45 v=0
804000 On ch=1 n=83 v=47
804000 On ch=1 n=71 v=47
804230 On ch=1 n=83 v=0
804230 On ch=1 n=71 v=0
804240 On ch=1 n=81 v=47
804240 On ch=1 n=69 v=47
804470 On ch=1 n=81 v=0
804470 On ch=1 n=69 v=0
804480 On ch=1 n=59 v=47
804480 On ch=1 n=47 v=47
804710 On ch=1 n=59 v=0
804710 On ch=1 n=47 v=0
804720 TimeSig 4/4 24 8
804720 On ch=1 n=57 v=47
804720 On ch=1 n=45 v=47
804950 On ch=1 n=57 v=0
804950 On ch=1 n=45 v=0
804960 On ch=1 n=83 v=47
804960 On ch=1 n=71 v=47
805190 On ch=1 n=83 v=0
805190 On ch=1 n=71 v=0
805200 On ch=1 n=81 v=47
805200 On ch=1 n=69 v=47
805430 On ch=1 n=81 v=0
805430 On ch=1 n=69 v=0
805440 On ch=1 n=59 v=47
805440 On ch=1 n=47 v=47
805670 On ch=1 n=59 v=0
805670 On ch=1 n=47 v=0
805680 TimeSig 4/4 24 8
805680 On ch=1 n=57 v=47
805680 On ch=1 n=45 v=47
805910 On ch=1 n=57 v=0
805910 On ch=1 n=45 v=0
805920 On ch=1 n=83 v=51
805920 On ch=1 n=71 v=51
805920 On ch=1 n=59 v=51
805920 On ch=1 n=47 v=51
806150 On ch=1 n=83 v=0
806150 On ch=1 n=71 v=0
806150 On ch=1 n=59 v=0
806150 On ch=1 n=47 v=0
806160 On ch=1 n=81 v=56
806160 On ch=1 n=69 v=56
806160 On ch=1 n=57 v=56
806160 On ch=1 n=45 v=56
806390 On ch=1 n=81 v=0
806390 On ch=1 n=69 v=0
806390 On ch=1 n=57 v=0
806390 On ch=1 n=45 v=0
806400 On ch=1 n=83 v=61
806400 On ch=1 n=71 v=61
806400 On ch=1 n=59 v=61
806400 On ch=1 n=47 v=61
806630 On ch=1 n=83 v=0
806630 On ch=1 n=71 v=0
806630 On ch=1 n=59 v=0
806630 On ch=1 n=47 v=0
806640 TimeSig 4/4 24 8
806640 On ch=1 n=81 v=65
806640 On ch=1 n=69 v=65
806640 On ch=1 n=57 v=65
806640 On ch=1 n=45 v=65
806870 On ch=1 n=81 v=0
806870 On ch=1 n=69 v=0
806870 On ch=1 n=57 v=0
806870 On ch=1 n=45 v=0
806880 On ch=1 n=83 v=70
806880 On ch=1 n=71 v=70
806880 On ch=1 n=59 v=70
806880 On ch=1 n=47 v=70
807110 On ch=1 n=83 v=0
807110 On ch=1 n=71 v=0
807110 On ch=1 n=59 v=0
807110 On ch=1 n=47 v=0
807120 On ch=1 n=81 v=75
807120 On ch=1 n=69 v=75
807120 On ch=1 n=57 v=75
807120 On ch=1 n=45 v=75
807350 On ch=1 n=81 v=0
807350 On ch=1 n=69 v=0
807350 On ch=1 n=57 v=0
807350 On ch=1 n=45 v=0
807360 On ch=1 n=83 v=79
807360 On ch=1 n=71 v=79
807360 On ch=1 n=59 v=79
807360 On ch=1 n=47 v=79
807590 On ch=1 n=83 v=0
807590 On ch=1 n=71 v=0
807590 On ch=1 n=59 v=0
807590 On ch=1 n=47 v=0
807600 TimeSig 4/4 24 8
807600 On ch=1 n=81 v=84
807600 On ch=1 n=69 v=84
807600 On ch=1 n=57 v=84
807600 On ch=1 n=45 v=84
807830 On ch=1 n=81 v=0
807830 On ch=1 n=69 v=0
807830 On ch=1 n=57 v=0
807830 On ch=1 n=45 v=0
807840 On ch=1 n=83 v=89
807840 On ch=1 n=71 v=89
807840 On ch=1 n=59 v=89
807840 On ch=1 n=47 v=89
808070 On ch=1 n=83 v=0
808070 On ch=1 n=71 v=0
808070 On ch=1 n=59 v=0
808070 On ch=1 n=47 v=0
808080 On ch=1 n=81 v=94
808080 On ch=1 n=69 v=94
808080 On ch=1 n=57 v=94
808080 On ch=1 n=45 v=94
808310 On ch=1 n=81 v=0
808310 On ch=1 n=69 v=0
808310 On ch=1 n=57 v=0
808310 On ch=1 n=45 v=0
808320 On ch=1 n=83 v=98
808320 On ch=1 n=71 v=98
808320 On ch=1 n=59 v=98
808320 On ch=1 n=47 v=98
808550 On ch=1 n=83 v=0
808550 On ch=1 n=71 v=0
808550 On ch=1 n=59 v=0
808550 On ch=1 n=47 v=0
808560 TimeSig 4/4 24 8
808560 On ch=1 n=81 v=103
808560 On ch=1 n=69 v=103
808560 On ch=1 n=57 v=103
808560 On ch=1 n=45 v=103
808790 On ch=1 n=81 v=0
808790 On ch=1 n=69 v=0
808790 On ch=1 n=57 v=0
808790 On ch=1 n=45 v=0
808800 On ch=1 n=83 v=108
808800 On ch=1 n=71 v=108
808800 On ch=1 n=59 v=108
808800 On ch=1 n=47 v=108
809030 On ch=1 n=83 v=0
809030 On ch=1 n=71 v=0
809030 On ch=1 n=59 v=0
809030 On ch=1 n=47 v=0
809040 On ch=1 n=81 v=112
809040 On ch=1 n=69 v=112
809040 On ch=1 n=57 v=112
809040 On ch=1 n=45 v=112
809270 On ch=1 n=81 v=0
809270 On ch=1 n=69 v=0
809270 On ch=1 n=57 v=0
809270 On ch=1 n=45 v=0
809280 On ch=1 n=83 v=117
809280 On ch=1 n=71 v=117
809280 On ch=1 n=59 v=117
809280 On ch=1 n=47 v=117
809390 On ch=1 n=83 v=0
809390 On ch=1 n=71 v=0
809390 On ch=1 n=59 v=0
809390 On ch=1 n=47 v=0
809400 On ch=1 n=85 v=120
809400 On ch=1 n=73 v=120
809400 On ch=1 n=61 v=120
809400 On ch=1 n=49 v=120
809510 On ch=1 n=85 v=0
809510 On ch=1 n=73 v=0
809510 On ch=1 n=61 v=0
809510 On ch=1 n=49 v=0
809520 TimeSig 4/4 24 8
809520 Tempo 227272
809520 On ch=1 n=86 v=120
809520 On ch=1 n=74 v=120
809520 On ch=1 n=62 v=120
809520 On ch=1 n=50 v=120
809750 On ch=1 n=86 v=0
809750 On ch=1 n=74 v=0
809750 On ch=1 n=62 v=0
809750 On ch=1 n=50 v=0
809760 On ch=1 n=86 v=120
809760 On ch=1 n=74 v=120
809760 On ch=1 n=62 v=120
809760 On ch=1 n=50 v=120
809990 On ch=1 n=86 v=0
809990 On ch=1 n=74 v=0
809990 On ch=1 n=62 v=0
809990 On ch=1 n=50 v=0
810000 On ch=1 n=85 v=120
810000 On ch=1 n=73 v=120
810000 On ch=1 n=61 v=120
810000 On ch=1 n=49 v=120
810230 On ch=1 n=85 v=0
810230 On ch=1 n=73 v=0
810230 On ch=1 n=61 v=0
810230 On ch=1 n=49 v=0
810240 On ch=1 n=81 v=120
810240 On ch=1 n=69 v=120
810240 On ch=1 n=57 v=120
810240 On ch=1 n=45 v=120
810470 On ch=1 n=81 v=0
810470 On ch=1 n=69 v=0
810470 On ch=1 n=57 v=0
810470 On ch=1 n=45 v=0
810480 TimeSig 4/4 24 8
810480 On ch=1 n=88 v=120
810480 On ch=1 n=76 v=120
810480 On ch=1 n=64 v=120
810480 On ch=1 n=52 v=120
810710 On ch=1 n=88 v=0
810710 On ch=1 n=76 v=0
810710 On ch=1 n=64 v=0
810710 On ch=1 n=52 v=0
810720 On ch=1 n=88 v=120
810720 On ch=1 n=76 v=120
810720 On ch=1 n=64 v=120
810720 On ch=1 n=52 v=120
810950 On ch=1 n=88 v=0
810950 On ch=1 n=76 v=0
810950 On ch=1 n=64 v=0
810950 On ch=1 n=52 v=0
810960 On ch=1 n=87 v=120
810960 On ch=1 n=75 v=120
810960 On ch=1 n=63 v=120
810960 On ch=1 n=51 v=120
811190 On ch=1 n=87 v=0
811190 On ch=1 n=75 v=0
811190 On ch=1 n=63 v=0
811190 On ch=1 n=51 v=0
811200 On ch=1 n=83 v=120
811200 On ch=1 n=71 v=120
811200 On ch=1 n=59 v=120
811200 On ch=1 n=47 v=120
811430 On ch=1 n=83 v=0
811430 On ch=1 n=71 v=0
811430 On ch=1 n=59 v=0
811430 On ch=1 n=47 v=0
811440 TimeSig 4/4 24 8
811440 On ch=1 n=88 v=120
811440 On ch=1 n=76 v=120
811440 On ch=1 n=64 v=120
811440 On ch=1 n=52 v=120
811670 On ch=1 n=88 v=0
811670 On ch=1 n=76 v=0
811670 On ch=1 n=64 v=0
811670 On ch=1 n=52 v=0
811680 On ch=1 n=90 v=120
811680 On ch=1 n=78 v=120
811680 On ch=1 n=66 v=120
811680 On ch=1 n=54 v=120
811910 On ch=1 n=90 v=0
811910 On ch=1 n=78 v=0
811910 On ch=1 n=66 v=0
811910 On ch=1 n=54 v=0
811920 On ch=1 n=91 v=120
811920 On ch=1 n=79 v=120
811920 On ch=1 n=67 v=120
811920 On ch=1 n=55 v=120
812150 On ch=1 n=91 v=0
812150 On ch=1 n=79 v=0
812150 On ch=1 n=67 v=0
812150 On ch=1 n=55 v=0
812160 On ch=1 n=92 v=120
812160 On ch=1 n=80 v=120
812160 On ch=1 n=68 v=120
812160 On ch=1 n=56 v=120
812390 On ch=1 n=92 v=0
812390 On ch=1 n=80 v=0
812390 On ch=1 n=68 v=0
812390 On ch=1 n=56 v=0
812400 TimeSig 4/4 24 8
812400 On ch=1 n=81 v=120
812400 On ch=1 n=81 v=120
812400 On ch=1 n=69 v=120
812400 On ch=1 n=57 v=120
812630 On ch=1 n=81 v=0
812630 On ch=1 n=81 v=0
812630 On ch=1 n=69 v=0
812630 On ch=1 n=57 v=0
812640 On ch=1 n=80 v=120
812640 On ch=1 n=80 v=120
812870 On ch=1 n=80 v=0
812870 On ch=1 n=80 v=0
812880 On ch=1 n=81 v=120
812880 On ch=1 n=81 v=120
812880 On ch=1 n=57 v=120
812880 On ch=1 n=45 v=120
813110 On ch=1 n=81 v=0
813110 On ch=1 n=81 v=0
813110 On ch=1 n=57 v=0
813110 On ch=1 n=45 v=0
813120 On ch=1 n=79 v=120
813120 On ch=1 n=79 v=120
813120 On ch=1 n=59 v=120
813120 On ch=1 n=47 v=120
813230 On ch=1 n=59 v=0
813230 On ch=1 n=47 v=0
813240 On ch=1 n=61 v=120
813240 On ch=1 n=49 v=120
813350 On ch=1 n=79 v=0
813350 On ch=1 n=79 v=0
813350 On ch=1 n=61 v=0
813350 On ch=1 n=49 v=0
813360 TimeSig 4/4 24 8
813360 On ch=1 n=66 v=120
813360 On ch=1 n=78 v=120
813360 On ch=1 n=62 v=120
813360 On ch=1 n=50 v=120
813590 On ch=1 n=66 v=0
813590 On ch=1 n=78 v=0
813590 On ch=1 n=62 v=0
813590 On ch=1 n=50 v=0
813600 On ch=1 n=78 v=120
813600 On ch=1 n=62 v=120
813600 On ch=1 n=50 v=120
813710 On ch=1 n=78 v=0
813720 On ch=1 n=79 v=120
813830 On ch=1 n=79 v=0
813830 On ch=1 n=62 v=0
813830 On ch=1 n=50 v=0
813840 On ch=1 n=69 v=120
813840 On ch=1 n=81 v=120
813840 On ch=1 n=61 v=120
813840 On ch=1 n=49 v=120
814070 On ch=1 n=69 v=0
814070 On ch=1 n=81 v=0
814070 On ch=1 n=61 v=0
814070 On ch=1 n=49 v=0
814080 On ch=1 n=57 v=120
814080 On ch=1 n=45 v=120
814310 On ch=1 n=57 v=0
814310 On ch=1 n=45 v=0
814320 TimeSig 4/4 24 8
814320 On ch=1 n=91 v=120
814320 On ch=1 n=79 v=120
814320 On ch=1 n=64 v=120
814320 On ch=1 n=52 v=120
814550 On ch=1 n=91 v=0
814550 On ch=1 n=79 v=0
814550 On ch=1 n=64 v=0
814550 On ch=1 n=52 v=0
814560 On ch=1 n=91 v=120
814560 On ch=1 n=64 v=120
814560 On ch=1 n=52 v=120
814670 On ch=1 n=91 v=0
814680 On ch=1 n=93 v=120
814790 On ch=1 n=93 v=0
814790 On ch=1 n=64 v=0
814790 On ch=1 n=52 v=0
814800 On ch=1 n=95 v=120
814800 On ch=1 n=83 v=120
814800 On ch=1 n=63 v=120
814800 On ch=1 n=51 v=120
815030 On ch=1 n=95 v=0
815030 On ch=1 n=83 v=0
815030 On ch=1 n=63 v=0
815030 On ch=1 n=51 v=0
815040 On ch=1 n=83 v=120
815040 On ch=1 n=59 v=120
815040 On ch=1 n=47 v=120
815150 On ch=1 n=83 v=0
815160 On ch=1 n=81 v=120
815270 On ch=1 n=81 v=0
815270 On ch=1 n=59 v=0
815270 On ch=1 n=47 v=0
815280 TimeSig 4/4 24 8
815280 On ch=1 n=91 v=120
815280 On ch=1 n=79 v=120
815280 On ch=1 n=52 v=120
815280 On ch=1 n=40 v=120
815510 On ch=1 n=91 v=0
815510 On ch=1 n=79 v=0
815510 On ch=1 n=52 v=0
815510 On ch=1 n=40 v=0
815520 On ch=1 n=79 v=120
815520 On ch=1 n=54 v=120
815520 On ch=1 n=42 v=120
815630 On ch=1 n=79 v=0
815640 On ch=1 n=78 v=120
815750 On ch=1 n=78 v=0
815750 On ch=1 n=54 v=0
815750 On ch=1 n=42 v=0
815760 On ch=1 n=88 v=120
815760 On ch=1 n=76 v=120
815760 On ch=1 n=55 v=120
815760 On ch=1 n=43 v=120
815990 On ch=1 n=88 v=0
815990 On ch=1 n=76 v=0
815990 On ch=1 n=55 v=0
815990 On ch=1 n=43 v=0
816000 On ch=1 n=76 v=120
816000 On ch=1 n=56 v=120
816000 On ch=1 n=44 v=120
816110 On ch=1 n=76 v=0
816120 On ch=1 n=74 v=120
816230 On ch=1 n=74 v=0
816230 On ch=1 n=56 v=0
816230 On ch=1 n=44 v=0
816240 TimeSig 4/4 24 8
816240 On ch=1 n=85 v=120
816240 On ch=1 n=73 v=120
816240 On ch=1 n=57 v=120
816240 On ch=1 n=45 v=120
816470 On ch=1 n=85 v=0
816470 On ch=1 n=73 v=0
816470 On ch=1 n=57 v=0
816470 On ch=1 n=45 v=0
816480 On ch=1 n=73 v=120
816480 On ch=1 n=56 v=120
816480 On ch=1 n=44 v=120
816590 On ch=1 n=73 v=0
816600 On ch=1 n=71 v=120
816710 On ch=1 n=71 v=0
816710 On ch=1 n=56 v=0
816710 On ch=1 n=44 v=0
816720 On ch=1 n=81 v=120
816720 On ch=1 n=69 v=120
816720 On ch=1 n=57 v=120
816720 On ch=1 n=45 v=120
816950 On ch=1 n=81 v=0
816950 On ch=1 n=69 v=0
816950 On ch=1 n=57 v=0
816950 On ch=1 n=45 v=0
816960 On ch=1 n=75 v=120
816960 On ch=1 n=63 v=120
816960 On ch=1 n=59 v=120
817070 On ch=1 n=59 v=0
817080 On ch=1 n=57 v=120
817190 On ch=1 n=75 v=0
817190 On ch=1 n=63 v=0
817190 On ch=1 n=57 v=0
817200 TimeSig 4/4 24 8
817200 On ch=1 n=76 v=120
817200 On ch=1 n=64 v=120
817200 On ch=1 n=55 v=120
817200 On ch=1 n=43 v=120
817430 On ch=1 n=76 v=0
817430 On ch=1 n=64 v=0
817430 On ch=1 n=55 v=0
817430 On ch=1 n=43 v=0
817440 On ch=1 n=78 v=120
817440 On ch=1 n=66 v=120
817440 On ch=1 n=55 v=120
817550 On ch=1 n=55 v=0
817560 On ch=1 n=54 v=120
817670 On ch=1 n=78 v=0
817670 On ch=1 n=66 v=0
817670 On ch=1 n=54 v=0
817680 On ch=1 n=79 v=120
817680 On ch=1 n=67 v=120
817680 On ch=1 n=52 v=120
817680 On ch=1 n=40 v=120
817910 On ch=1 n=79 v=0
817910 On ch=1 n=67 v=0
817910 On ch=1 n=52 v=0
817910 On ch=1 n=40 v=0
817920 On ch=1 n=80 v=120
817920 On ch=1 n=68 v=120
817920 On ch=1 n=52 v=120
818030 On ch=1 n=52 v=0
818040 On ch=1 n=50 v=120
818150 On ch=1 n=80 v=0
818150 On ch=1 n=68 v=0
818150 On ch=1 n=50 v=0
818160 TimeSig 4/4 24 8
818160 On ch=1 n=81 v=120
818160 On ch=1 n=69 v=120
818160 On ch=1 n=49 v=120
818160 On ch=1 n=37 v=120
818390 On ch=1 n=81 v=0
818390 On ch=1 n=69 v=0
818390 On ch=1 n=49 v=0
818390 On ch=1 n=37 v=0
818400 On ch=1 n=76 v=120
818400 On ch=1 n=80 v=120
818400 On ch=1 n=68 v=120
818400 On ch=1 n=49 v=120
818510 On ch=1 n=49 v=0
818520 On ch=1 n=47 v=120
818630 On ch=1 n=76 v=0
818630 On ch=1 n=80 v=0
818630 On ch=1 n=68 v=0
818630 On ch=1 n=47 v=0
818640 On ch=1 n=81 v=120
818640 On ch=1 n=69 v=120
818640 On ch=1 n=45 v=120
818640 On ch=1 n=33 v=120
818750 On ch=1 n=69 v=0
818760 On ch=1 n=71 v=120
818870 On ch=1 n=81 v=0
818870 On ch=1 n=71 v=0
818870 On ch=1 n=45 v=0
818870 On ch=1 n=33 v=0
818880 On ch=1 n=73 v=120
818880 On ch=1 n=57 v=120
818880 On ch=1 n=45 v=120
818990 On ch=1 n=73 v=0
819000 On ch=1 n=74 v=120
819110 On ch=1 n=74 v=0
819110 On ch=1 n=57 v=0
819110 On ch=1 n=45 v=0
819120 TimeSig 4/4 24 8
819120 On ch=1 n=69 v=120
819120 On ch=1 n=76 v=120
819120 On ch=1 n=64 v=120
819120 On ch=1 n=43 v=120
819230 On ch=1 n=43 v=0
819239 Par ch=1 c=64 v=127
819240 On ch=1 n=55 v=120
819350 On ch=1 n=55 v=0
819360 On ch=1 n=45 v=120
819470 On ch=1 n=69 v=0
819470 On ch=1 n=76 v=0
819470 On ch=1 n=64 v=0
819470 On ch=1 n=45 v=0
819480 On ch=1 n=78 v=120
819480 On ch=1 n=66 v=120
819480 On ch=1 n=57 v=120
819590 On ch=1 n=78 v=0
819590 On ch=1 n=66 v=0
819590 On ch=1 n=57 v=0
819600 On ch=1 n=69 v=120
819600 On ch=1 n=76 v=120
819600 On ch=1 n=64 v=120
819600 On ch=1 n=43 v=120
819710 On ch=1 n=43 v=0
819720 On ch=1 n=55 v=120
819727 Par ch=1 c=64 v=0
819830 On ch=1 n=69 v=0
819830 On ch=1 n=76 v=0
819830 On ch=1 n=64 v=0
819830 On ch=1 n=55 v=0
819840 On ch=1 n=69 v=120
819840 On ch=1 n=74 v=120
819840 On ch=1 n=62 v=120
819840 On ch=1 n=42 v=120
819950 On ch=1 n=42 v=0
819960 On ch=1 n=54 v=120
820035 Par ch=1 c=64 v=127
820070 On ch=1 n=69 v=0
820070 On ch=1 n=74 v=0
820070 On ch=1 n=62 v=0
820070 On ch=1 n=54 v=0
820080 TimeSig 4/4 24 8
820080 On ch=1 n=69 v=120
820080 On ch=1 n=76 v=120
820080 On ch=1 n=64 v=120
820080 On ch=1 n=43 v=120
820190 On ch=1 n=43 v=0
820200 On ch=1 n=55 v=120
820310 On ch=1 n=55 v=0
820320 On ch=1 n=45 v=120
820430 On ch=1 n=69 v=0
820430 On ch=1 n=76 v=0
820430 On ch=1 n=64 v=0
820430 On ch=1 n=45 v=0
820440 On ch=1 n=78 v=120
820440 On ch=1 n=66 v=120
820440 On ch=1 n=57 v=120
820534 Par ch=1 c=64 v=0
820550 On ch=1 n=78 v=0
820550 On ch=1 n=66 v=0
820550 On ch=1 n=57 v=0
820560 On ch=1 n=69 v=120
820560 On ch=1 n=76 v=120
820560 On ch=1 n=64 v=120
820560 On ch=1 n=43 v=120
820670 On ch=1 n=43 v=0
820680 On ch=1 n=55 v=120
820790 On ch=1 n=69 v=0
820790 On ch=1 n=76 v=0
820790 On ch=1 n=64 v=0
820790 On ch=1 n=55 v=0
820800 On ch=1 n=69 v=120
820800 On ch=1 n=74 v=120
820800 On ch=1 n=62 v=120
820800 On ch=1 n=42 v=120
820910 On ch=1 n=42 v=0
820920 On ch=1 n=54 v=120
821030 On ch=1 n=69 v=0
821030 On ch=1 n=74 v=0
821030 On ch=1 n=62 v=0
821030 On ch=1 n=54 v=0
821040 TimeSig 4/4 24 8
821040 On ch=1 n=69 v=120
821040 On ch=1 n=76 v=120
821040 On ch=1 n=64 v=120
821040 On ch=1 n=43 v=120
821111 Par ch=1 c=64 v=127
821150 On ch=1 n=43 v=0
821160 On ch=1 n=55 v=120
821270 On ch=1 n=55 v=0
821280 On ch=1 n=45 v=120
821390 On ch=1 n=69 v=0
821390 On ch=1 n=76 v=0
821390 On ch=1 n=64 v=0
821390 On ch=1 n=45 v=0
821400 On ch=1 n=78 v=120
821400 On ch=1 n=66 v=120
821400 On ch=1 n=57 v=120
821510 On ch=1 n=78 v=0
821510 On ch=1 n=66 v=0
821510 On ch=1 n=57 v=0
821520 On ch=1 n=69 v=120
821520 On ch=1 n=76 v=120
821520 On ch=1 n=64 v=120
821520 On ch=1 n=43 v=120
821593 Par ch=1 c=64 v=0
821630 On ch=1 n=43 v=0
821640 On ch=1 n=55 v=120
821750 On ch=1 n=69 v=0
821750 On ch=1 n=76 v=0
821750 On ch=1 n=64 v=0
821750 On ch=1 n=55 v=0
821760 On ch=1 n=69 v=120
821760 On ch=1 n=74 v=120
821760 On ch=1 n=62 v=120
821760 On ch=1 n=42 v=120
821870 On ch=1 n=42 v=0
821880 On ch=1 n=54 v=120
821990 On ch=1 n=69 v=0
821990 On ch=1 n=74 v=0
821990 On ch=1 n=62 v=0
821990 On ch=1 n=54 v=0
822000 TimeSig 4/4 24 8
822000 On ch=1 n=69 v=120
822000 On ch=1 n=76 v=120
822000 On ch=1 n=64 v=120
822000 On ch=1 n=43 v=120
822107 Par ch=1 c=64 v=127
822110 On ch=1 n=43 v=0
822120 On ch=1 n=55 v=120
822230 On ch=1 n=55 v=0
822240 On ch=1 n=45 v=120
822350 On ch=1 n=69 v=0
822350 On ch=1 n=76 v=0
822350 On ch=1 n=64 v=0
822350 On ch=1 n=45 v=0
822360 On ch=1 n=78 v=120
822360 On ch=1 n=66 v=120
822360 On ch=1 n=57 v=120
822470 On ch=1 n=78 v=0
822470 On ch=1 n=66 v=0
822470 On ch=1 n=57 v=0
822480 On ch=1 n=69 v=120
822480 On ch=1 n=76 v=120
822480 On ch=1 n=64 v=120
822480 On ch=1 n=43 v=120
822590 On ch=1 n=43 v=0
822600 On ch=1 n=55 v=120
822613 Par ch=1 c=64 v=0
822710 On ch=1 n=69 v=0
822710 On ch=1 n=76 v=0
822710 On ch=1 n=64 v=0
822710 On ch=1 n=55 v=0
822720 On ch=1 n=69 v=120
822720 On ch=1 n=74 v=120
822720 On ch=1 n=62 v=120
822720 On ch=1 n=42 v=120
822830 On ch=1 n=42 v=0
822840 On ch=1 n=54 v=120
822950 On ch=1 n=69 v=0
822950 On ch=1 n=74 v=0
822950 On ch=1 n=62 v=0
822950 On ch=1 n=54 v=0
822960 TimeSig 4/4 24 8
822960 On ch=1 n=69 v=120
822960 On ch=1 n=64 v=120
822960 On ch=1 n=55 v=120
823014 Par ch=1 c=64 v=127
823070 On ch=1 n=69 v=0
823080 On ch=1 n=81 v=120
823190 On ch=1 n=81 v=0
823200 On ch=1 n=81 v=120
823310 On ch=1 n=81 v=0
823310 On ch=1 n=64 v=0
823310 On ch=1 n=55 v=0
823320 On ch=1 n=93 v=120
823320 On ch=1 n=66 v=120
823320 On ch=1 n=57 v=120
823430 On ch=1 n=93 v=0
823430 On ch=1 n=66 v=0
823430 On ch=1 n=57 v=0
823440 On ch=1 n=81 v=120
823440 On ch=1 n=64 v=120
823440 On ch=1 n=55 v=120
823488 Par ch=1 c=64 v=0
823550 On ch=1 n=81 v=0
823560 On ch=1 n=81 v=120
823670 On ch=1 n=81 v=0
823670 On ch=1 n=64 v=0
823670 On ch=1 n=55 v=0
823680 On ch=1 n=69 v=120
823680 On ch=1 n=62 v=120
823680 On ch=1 n=54 v=120
823790 On ch=1 n=69 v=0
823800 On ch=1 n=81 v=120
823877 Par ch=1 c=64 v=127
823910 On ch=1 n=81 v=0
823910 On ch=1 n=62 v=0
823910 On ch=1 n=54 v=0
823920 TimeSig 4/4 24 8
823920 On ch=1 n=69 v=120
823920 On ch=1 n=64 v=120
823920 On ch=1 n=55 v=120
824030 On ch=1 n=69 v=0
824040 On ch=1 n=81 v=120
824150 On ch=1 n=81 v=0
824160 On ch=1 n=81 v=120
824270 On ch=1 n=81 v=0
824270 On ch=1 n=64 v=0
824270 On ch=1 n=55 v=0
824280 On ch=1 n=93 v=120
824280 On ch=1 n=66 v=120
824280 On ch=1 n=57 v=120
824390 On ch=1 n=93 v=0
824390 On ch=1 n=66 v=0
824390 On ch=1 n=57 v=0
824400 On ch=1 n=81 v=120
824400 On ch=1 n=64 v=120
824400 On ch=1 n=55 v=120
824454 Par ch=1 c=64 v=0
824510 On ch=1 n=81 v=0
824520 On ch=1 n=81 v=120
824630 On ch=1 n=81 v=0
824630 On ch=1 n=64 v=0
824630 On ch=1 n=55 v=0
824640 On ch=1 n=69 v=120
824640 On ch=1 n=62 v=120
824640 On ch=1 n=54 v=120
824750 On ch=1 n=69 v=0
824760 On ch=1 n=81 v=120
824870 On ch=1 n=81 v=0
824870 On ch=1 n=62 v=0
824870 On ch=1 n=54 v=0
824880 TimeSig 4/4 24 8
824880 On ch=1 n=69 v=120
824880 On ch=1 n=64 v=120
824880 On ch=1 n=55 v=120
824990 On ch=1 n=69 v=0
825000 On ch=1 n=81 v=120
825020 Par ch=1 c=64 v=127
825110 On ch=1 n=81 v=0
825120 On ch=1 n=81 v=120
825230 On ch=1 n=81 v=0
825230 On ch=1 n=64 v=0
825230 On ch=1 n=55 v=0
825240 On ch=1 n=93 v=120
825240 On ch=1 n=66 v=120
825240 On ch=1 n=57 v=120
825350 On ch=1 n=93 v=0
825350 On ch=1 n=66 v=0
825350 On ch=1 n=57 v=0
825360 On ch=1 n=81 v=120
825360 On ch=1 n=64 v=120
825360 On ch=1 n=55 v=120
825470 On ch=1 n=81 v=0
825480 On ch=1 n=81 v=120
825530 Par ch=1 c=64 v=0
825590 On ch=1 n=81 v=0
825590 On ch=1 n=64 v=0
825590 On ch=1 n=55 v=0
825600 On ch=1 n=69 v=120
825600 On ch=1 n=62 v=120
825600 On ch=1 n=54 v=120
825710 On ch=1 n=69 v=0
825720 On ch=1 n=81 v=120
825830 On ch=1 n=81 v=0
825830 On ch=1 n=62 v=0
825830 On ch=1 n=54 v=0
825840 TimeSig 4/4 24 8
825840 On ch=1 n=69 v=120
825840 On ch=1 n=64 v=120
825840 On ch=1 n=55 v=120
825950 On ch=1 n=69 v=0
825960 On ch=1 n=81 v=120
826013 Par ch=1 c=64 v=127
826070 On ch=1 n=81 v=0
826080 On ch=1 n=81 v=120
826190 On ch=1 n=81 v=0
826190 On ch=1 n=64 v=0
826190 On ch=1 n=55 v=0
826200 On ch=1 n=93 v=120
826200 On ch=1 n=66 v=120
826200 On ch=1 n=57 v=120
826310 On ch=1 n=93 v=0
826310 On ch=1 n=66 v=0
826310 On ch=1 n=57 v=0
826320 On ch=1 n=81 v=120
826320 On ch=1 n=64 v=120
826320 On ch=1 n=55 v=120
826430 On ch=1 n=81 v=0
826440 On ch=1 n=93 v=120
826468 Par ch=1 c=64 v=0
826550 On ch=1 n=93 v=0
826550 On ch=1 n=64 v=0
826550 On ch=1 n=55 v=0
826560 On ch=1 n=81 v=120
826560 On ch=1 n=62 v=120
826560 On ch=1 n=54 v=120
826670 On ch=1 n=81 v=0
826680 On ch=1 n=93 v=120
826790 On ch=1 n=93 v=0
826790 On ch=1 n=62 v=0
826790 On ch=1 n=54 v=0
826800 TimeSig 4/4 24 8
826800 On ch=1 n=85 v=120
826800 On ch=1 n=81 v=120
826800 On ch=1 n=52 v=120
826910 On ch=1 n=85 v=0
826910 On ch=1 n=81 v=0
826916 Par ch=1 c=64 v=127
826920 On ch=1 n=93 v=120
827030 On ch=1 n=93 v=0
827030 On ch=1 n=52 v=0
827040 On ch=1 n=79 v=120
827040 On ch=1 n=61 v=120
827040 On ch=1 n=67 v=120
827040 On ch=1 n=57 v=120
827150 On ch=1 n=79 v=0
827160 On ch=1 n=91 v=120
827270 On ch=1 n=91 v=0
827270 On ch=1 n=61 v=0
827270 On ch=1 n=67 v=0
827270 On ch=1 n=57 v=0
827280 On ch=1 n=86 v=120
827280 On ch=1 n=79 v=120
827280 On ch=1 n=50 v=120
827289 Par ch=1 c=64 v=0
827390 On ch=1 n=86 v=0
827390 On ch=1 n=79 v=0
827400 On ch=1 n=91 v=120
827510 On ch=1 n=91 v=0
827510 On ch=1 n=50 v=0
827520 On ch=1 n=78 v=120
827520 On ch=1 n=62 v=120
827520 On ch=1 n=66 v=120
827520 On ch=1 n=57 v=120
827630 On ch=1 n=78 v=0
827640 On ch=1 n=90 v=120
827750 On ch=1 n=90 v=0
827750 On ch=1 n=62 v=0
827750 On ch=1 n=66 v=0
827750 On ch=1 n=57 v=0
827760 TimeSig 4/4 24 8
827760 On ch=1 n=81 v=120
827760 On ch=1 n=78 v=120
827760 On ch=1 n=43 v=120
827870 On ch=1 n=81 v=0
827870 On ch=1 n=78 v=0
827880 On ch=1 n=90 v=120
827937 Par ch=1 c=64 v=127
827990 On ch=1 n=90 v=0
827990 On ch=1 n=43 v=0
828000 On ch=1 n=79 v=120
828000 On ch=1 n=76 v=120
828000 On ch=1 n=59 v=120
828000 On ch=1 n=64 v=120
828000 On ch=1 n=55 v=120
828110 On ch=1 n=79 v=0
828110 On ch=1 n=76 v=0
828120 On ch=1 n=88 v=120
828173 Par ch=1 c=64 v=0
828230 On ch=1 n=88 v=0
828230 On ch=1 n=59 v=0
828230 On ch=1 n=64 v=0
828230 On ch=1 n=55 v=0
828240 On ch=1 n=83 v=120
828240 On ch=1 n=79 v=120
828240 On ch=1 n=43 v=120
828350 On ch=1 n=83 v=0
828350 On ch=1 n=79 v=0
828360 On ch=1 n=91 v=120
828371 Par ch=1 c=64 v=127
828470 On ch=1 n=91 v=0
828470 On ch=1 n=43 v=0
828480 On ch=1 n=79 v=120
828480 On ch=1 n=76 v=120
828480 On ch=1 n=59 v=120
828480 On ch=1 n=64 v=120
828480 On ch=1 n=55 v=120
828590 On ch=1 n=79 v=0
828590 On ch=1 n=76 v=0
828600 On ch=1 n=88 v=120
828710 On ch=1 n=88 v=0
828710 On ch=1 n=59 v=0
828710 On ch=1 n=64 v=0
828710 On ch=1 n=55 v=0
828720 TimeSig 4/4 24 8
828720 On ch=1 n=79 v=120
828720 On ch=1 n=76 v=120
828720 On ch=1 n=45 v=120
828758 Par ch=1 c=64 v=0
828830 On ch=1 n=79 v=0
828830 On ch=1 n=76 v=0
828840 On ch=1 n=88 v=120
828950 On ch=1 n=88 v=0
828950 On ch=1 n=45 v=0
828960 On ch=1 n=78 v=120
828960 On ch=1 n=74 v=120
828960 On ch=1 n=57 v=120
828960 On ch=1 n=62 v=120
828960 On ch=1 n=54 v=120
828989 Par ch=1 c=64 v=127
829070 On ch=1 n=78 v=0
829070 On ch=1 n=74 v=0
829080 On ch=1 n=86 v=120
829190 On ch=1 n=86 v=0
829190 On ch=1 n=57 v=0
829190 On ch=1 n=62 v=0
829190 On ch=1 n=54 v=0
829200 On ch=1 n=81 v=120
829200 On ch=1 n=74 v=120
829200 On ch=1 n=43 v=120
829218 Par ch=1 c=64 v=0
829310 On ch=1 n=81 v=0
829310 On ch=1 n=74 v=0
829320 On ch=1 n=86 v=120
829430 On ch=1 n=86 v=0
829430 On ch=1 n=43 v=0
829440 On ch=1 n=81 v=120
829440 On ch=1 n=73 v=120
829440 On ch=1 n=57 v=120
829440 On ch=1 n=61 v=120
829440 On ch=1 n=52 v=120
829478 Par ch=1 c=64 v=127
829550 On ch=1 n=81 v=0
829550 On ch=1 n=73 v=0
829560 On ch=1 n=85 v=120
829649 Par ch=1 c=64 v=0
829670 On ch=1 n=85 v=0
829670 On ch=1 n=57 v=0
829670 On ch=1 n=61 v=0
829670 On ch=1 n=52 v=0
829680 TimeSig 4/4 24 8
829680 On ch=1 n=86 v=120
829680 On ch=1 n=83 v=120
829680 On ch=1 n=54 v=120
829680 On ch=1 n=42 v=120
829790 On ch=1 n=86 v=0
829790 On ch=1 n=83 v=0
829800 On ch=1 n=95 v=120
829910 On ch=1 n=95 v=0
829910 On ch=1 n=54 v=0
829910 On ch=1 n=42 v=0
829917 Par ch=1 c=64 v=127
829920 On ch=1 n=86 v=120
829920 On ch=1 n=83 v=120
829920 On ch=1 n=66 v=120
829920 On ch=1 n=71 v=120
829920 On ch=1 n=62 v=120
830030 On ch=1 n=86 v=0
830030 On ch=1 n=83 v=0
830040 On ch=1 n=95 v=120
830150 On ch=1 n=95 v=0
830150 On ch=1 n=66 v=0
830150 On ch=1 n=71 v=0
830150 On ch=1 n=62 v=0
830160 On ch=1 n=86 v=120
830160 On ch=1 n=81 v=120
830160 On ch=1 n=54 v=120
830252 Par ch=1 c=64 v=0
830270 On ch=1 n=86 v=0
830270 On ch=1 n=81 v=0
830280 On ch=1 n=93 v=120
830390 On ch=1 n=93 v=0
830390 On ch=1 n=54 v=0
830400 On ch=1 n=86 v=120
830400 On ch=1 n=81 v=120
830400 On ch=1 n=66 v=120
830400 On ch=1 n=69 v=120
830400 On ch=1 n=62 v=120
830477 Par ch=1 c=64 v=127
830510 On ch=1 n=86 v=0
830510 On ch=1 n=81 v=0
830520 On ch=1 n=93 v=120
830630 On ch=1 n=93 v=0
830630 On ch=1 n=66 v=0
830630 On ch=1 n=69 v=0
830630 On ch=1 n=62 v=0
830640 TimeSig 4/4 24 8
830640 On ch=1 n=83 v=120
830640 On ch=1 n=81 v=120
830640 On ch=1 n=52 v=120
830694 Par ch=1 c=64 v=0
830750 On ch=1 n=83 v=0
830750 On ch=1 n=81 v=0
830760 On ch=1 n=93 v=120
830870 On ch=1 n=93 v=0
830870 On ch=1 n=52 v=0
830880 On ch=1 n=85 v=120
830880 On ch=1 n=79 v=120
830880 On ch=1 n=61 v=120
830880 On ch=1 n=67 v=120
830880 On ch=1 n=57 v=120
830972 Par ch=1 c=64 v=127
830990 On ch=1 n=85 v=0
830990 On ch=1 n=79 v=0
831000 On ch=1 n=91 v=120
831110 On ch=1 n=91 v=0
831110 On ch=1 n=61 v=0
831110 On ch=1 n=67 v=0
831110 On ch=1 n=57 v=0
831120 On ch=1 n=88 v=120
831120 On ch=1 n=79 v=120
831120 On ch=1 n=50 v=120
831230 On ch=1 n=88 v=0
831230 On ch=1 n=79 v=0
831240 On ch=1 n=91 v=120
831282 Par ch=1 c=64 v=0
831350 On ch=1 n=91 v=0
831350 On ch=1 n=50 v=0
831360 On ch=1 n=86 v=120
831360 On ch=1 n=78 v=120
831360 On ch=1 n=62 v=120
831360 On ch=1 n=66 v=120
831360 On ch=1 n=57 v=120
831458 Par ch=1 c=64 v=127
831470 On ch=1 n=86 v=0
831470 On ch=1 n=78 v=0
831480 On ch=1 n=90 v=120
831590 On ch=1 n=90 v=0
831590 On ch=1 n=62 v=0
831590 On ch=1 n=66 v=0
831590 On ch=1 n=57 v=0
831600 TimeSig 4/4 24 8
831600 On ch=1 n=81 v=120
831600 On ch=1 n=78 v=120
831600 On ch=1 n=43 v=120
831666 Par ch=1 c=64 v=0
831710 On ch=1 n=81 v=0
831710 On ch=1 n=78 v=0
831720 On ch=1 n=90 v=120
831830 On ch=1 n=90 v=0
831830 On ch=1 n=43 v=0
831840 On ch=1 n=79 v=120
831840 On ch=1 n=76 v=120
831840 On ch=1 n=59 v=120
831840 On ch=1 n=64 v=120
831840 On ch=1 n=55 v=120
831950 On ch=1 n=79 v=0
831950 On ch=1 n=76 v=0
831958 Par ch=1 c=64 v=127
831960 On ch=1 n=88 v=120
832070 On ch=1 n=88 v=0
832070 On ch=1 n=59 v=0
832070 On ch=1 n=64 v=0
832070 On ch=1 n=55 v=0
832080 On ch=1 n=83 v=120
832080 On ch=1 n=79 v=120
832080 On ch=1 n=43 v=120
832176 Par ch=1 c=64 v=0
832190 On ch=1 n=83 v=0
832190 On ch=1 n=79 v=0
832200 On ch=1 n=91 v=120
832310 On ch=1 n=91 v=0
832310 On ch=1 n=43 v=0
832320 On ch=1 n=79 v=120
832320 On ch=1 n=76 v=120
832320 On ch=1 n=59 v=120
832320 On ch=1 n=64 v=120
832320 On ch=1 n=55 v=120
832379 Par ch=1 c=64 v=127
832430 On ch=1 n=79 v=0
832430 On ch=1 n=76 v=0
832440 On ch=1 n=88 v=120
832550 On ch=1 n=88 v=0
832550 On ch=1 n=59 v=0
832550 On ch=1 n=64 v=0
832550 On ch=1 n=55 v=0
832560 TimeSig 4/4 24 8
832560 On ch=1 n=79 v=120
832560 On ch=1 n=76 v=120
832560 On ch=1 n=45 v=120
832611 Par ch=1 c=64 v=0
832670 On ch=1 n=79 v=0
832670 On ch=1 n=76 v=0
832680 On ch=1 n=88 v=120
832790 On ch=1 n=88 v=0
832790 On ch=1 n=45 v=0
832800 On ch=1 n=78 v=120
832800 On ch=1 n=74 v=120
832800 On ch=1 n=57 v=120
832800 On ch=1 n=62 v=120
832800 On ch=1 n=54 v=120
832820 Par ch=1 c=64 v=127
832910 On ch=1 n=78 v=0
832910 On ch=1 n=74 v=0
832920 On ch=1 n=86 v=120
833030 On ch=1 n=86 v=0
833030 On ch=1 n=57 v=0
833030 On ch=1 n=62 v=0
833030 On ch=1 n=54 v=0
833040 On ch=1 n=78 v=120
833040 On ch=1 n=74 v=120
833040 On ch=1 n=45 v=120
833098 Par ch=1 c=64 v=0
833150 On ch=1 n=78 v=0
833150 On ch=1 n=74 v=0
833160 On ch=1 n=86 v=120
833270 On ch=1 n=86 v=0
833270 On ch=1 n=45 v=0
833280 On ch=1 n=76 v=120
833280 On ch=1 n=73 v=120
833280 On ch=1 n=57 v=120
833280 On ch=1 n=61 v=120
833280 On ch=1 n=52 v=120
833300 Par ch=1 c=64 v=127
833390 On ch=1 n=76 v=0
833390 On ch=1 n=73 v=0
833400 On ch=1 n=85 v=120
833453 Par ch=1 c=64 v=0
833510 On ch=1 n=85 v=0
833510 On ch=1 n=57 v=0
833510 On ch=1 n=61 v=0
833510 On ch=1 n=52 v=0
833520 TimeSig 4/4 24 8
833520 On ch=1 n=86 v=120
833520 On ch=1 n=74 v=120
833520 On ch=1 n=62 v=120
833520 On ch=1 n=50 v=120
833750 On ch=1 n=86 v=0
833750 On ch=1 n=74 v=0
833750 On ch=1 n=62 v=0
833750 On ch=1 n=50 v=0
833760 On ch=1 n=90 v=120
833760 On ch=1 n=62 v=120
833760 On ch=1 n=50 v=120
833870 On ch=1 n=90 v=0
833880 On ch=1 n=91 v=120
833990 On ch=1 n=91 v=0
833990 On ch=1 n=62 v=0
833990 On ch=1 n=50 v=0
834000 On ch=1 n=88 v=120
834000 On ch=1 n=93 v=120
834000 On ch=1 n=81 v=120
834000 On ch=1 n=61 v=120
834000 On ch=1 n=49 v=120
834230 On ch=1 n=88 v=0
834230 On ch=1 n=93 v=0
834230 On ch=1 n=81 v=0
834230 On ch=1 n=61 v=0
834230 On ch=1 n=49 v=0
834240 On ch=1 n=57 v=120
834240 On ch=1 n=45 v=120
834470 On ch=1 n=57 v=0
834470 On ch=1 n=45 v=0
834480 TimeSig 4/4 24 8
834480 On ch=1 n=78 v=120
834480 On ch=1 n=66 v=120
834480 On ch=1 n=50 v=120
834480 On ch=1 n=38 v=120
834710 On ch=1 n=78 v=0
834710 On ch=1 n=66 v=0
834710 On ch=1 n=50 v=0
834710 On ch=1 n=38 v=0
834720 On ch=1 n=78 v=120
834720 On ch=1 n=50 v=120
834720 On ch=1 n=38 v=120
834830 On ch=1 n=78 v=0
834840 On ch=1 n=79 v=120
834950 On ch=1 n=79 v=0
834950 On ch=1 n=50 v=0
834950 On ch=1 n=38 v=0
834960 On ch=1 n=76 v=120
834960 On ch=1 n=81 v=120
834960 On ch=1 n=69 v=120
834960 On ch=1 n=49 v=120
834960 On ch=1 n=37 v=120
835190 On ch=1 n=76 v=0
835190 On ch=1 n=81 v=0
835190 On ch=1 n=69 v=0
835190 On ch=1 n=49 v=0
835190 On ch=1 n=37 v=0
835200 On ch=1 n=45 v=120
835200 On ch=1 n=33 v=120
835430 On ch=1 n=45 v=0
835430 On ch=1 n=33 v=0
835440 TimeSig 4/4 24 8
835440 On ch=1 n=79 v=120
835440 On ch=1 n=67 v=120
835440 On ch=1 n=52 v=120
835440 On ch=1 n=40 v=120
835670 On ch=1 n=79 v=0
835670 On ch=1 n=67 v=0
835670 On ch=1 n=52 v=0
835670 On ch=1 n=40 v=0
835680 On ch=1 n=79 v=120
835680 On ch=1 n=52 v=120
835680 On ch=1 n=40 v=120
835790 On ch=1 n=79 v=0
835800 On ch=1 n=81 v=120
835910 On ch=1 n=81 v=0
835910 On ch=1 n=52 v=0
835910 On ch=1 n=40 v=0
835920 On ch=1 n=83 v=120
835920 On ch=1 n=71 v=120
835920 On ch=1 n=51 v=120
835920 On ch=1 n=39 v=120
836150 On ch=1 n=83 v=0
836150 On ch=1 n=71 v=0
836150 On ch=1 n=51 v=0
836150 On ch=1 n=39 v=0
836160 On ch=1 n=78 v=120
836160 On ch=1 n=47 v=120
836160 On ch=1 n=35 v=120
836270 On ch=1 n=78 v=0
836280 On ch=1 n=79 v=120
836390 On ch=1 n=79 v=0
836390 On ch=1 n=47 v=0
836390 On ch=1 n=35 v=0
836400 TimeSig 4/4 24 8
836400 On ch=1 n=75 v=120
836400 On ch=1 n=81 v=120
836400 On ch=1 n=69 v=120
836400 On ch=1 n=54 v=120
836400 On ch=1 n=59 v=120
836400 On ch=1 n=47 v=120
836630 On ch=1 n=75 v=0
836630 On ch=1 n=81 v=0
836630 On ch=1 n=69 v=0
836640 On ch=1 n=90 v=120
836750 On ch=1 n=90 v=0
836760 On ch=1 n=91 v=120
836870 On ch=1 n=91 v=0
836870 On ch=1 n=54 v=0
836870 On ch=1 n=59 v=0
836870 On ch=1 n=47 v=0
836880 On ch=1 n=93 v=120
836880 On ch=1 n=81 v=120
836880 On ch=1 n=54 v=120
836880 On ch=1 n=57 v=120
836880 On ch=1 n=63 v=120
836880 On ch=1 n=47 v=120
837110 On ch=1 n=93 v=0
837110 On ch=1 n=81 v=0
837120 On ch=1 n=78 v=120
837127 Par ch=1 c=64 v=127
837230 On ch=1 n=78 v=0
837240 On ch=1 n=79 v=120
837350 On ch=1 n=79 v=0
837350 On ch=1 n=54 v=0
837350 On ch=1 n=57 v=0
837350 On ch=1 n=63 v=0
837350 On ch=1 n=47 v=0
837360 TimeSig 4/4 24 8
837360 On ch=1 n=81 v=120
837360 On ch=1 n=69 v=120
837360 On ch=1 n=54 v=120
837360 On ch=1 n=57 v=120
837360 On ch=1 n=63 v=120
837360 On ch=1 n=47 v=120
837590 On ch=1 n=81 v=0
837590 On ch=1 n=69 v=0
837600 On ch=1 n=90 v=120
837710 On ch=1 n=90 v=0
837720 On ch=1 n=91 v=120
837830 On ch=1 n=91 v=0
837830 On ch=1 n=54 v=0
837830 On ch=1 n=57 v=0
837830 On ch=1 n=63 v=0
837830 On ch=1 n=47 v=0
837840 On ch=1 n=93 v=120
837840 On ch=1 n=81 v=120
837840 On ch=1 n=54 v=120
837840 On ch=1 n=57 v=120
837840 On ch=1 n=63 v=120
837840 On ch=1 n=47 v=120
838070 On ch=1 n=93 v=0
838070 On ch=1 n=81 v=0
838080 On ch=1 n=78 v=120
838190 On ch=1 n=78 v=0
838200 On ch=1 n=79 v=120
838310 On ch=1 n=79 v=0
838310 On ch=1 n=54 v=0
838310 On ch=1 n=57 v=0
838310 On ch=1 n=63 v=0
838310 On ch=1 n=47 v=0
838320 TimeSig 4/4 24 8
838320 On ch=1 n=81 v=120
838320 On ch=1 n=69 v=120
838320 On ch=1 n=54 v=120
838320 On ch=1 n=57 v=120
838320 On ch=1 n=63 v=120
838320 On ch=1 n=47 v=120
838389 Par ch=1 c=64 v=0
838488 Par ch=1 c=64 v=127
838550 On ch=1 n=81 v=0
838550 On ch=1 n=69 v=0
838560 On ch=1 n=90 v=120
838670 On ch=1 n=90 v=0
838680 On ch=1 n=91 v=120
838790 On ch=1 n=91 v=0
838790 On ch=1 n=54 v=0
838790 On ch=1 n=57 v=0
838790 On ch=1 n=63 v=0
838790 On ch=1 n=47 v=0
838800 On ch=1 n=93 v=120
838800 On ch=1 n=81 v=120
838800 On ch=1 n=54 v=120
838800 On ch=1 n=57 v=120
838800 On ch=1 n=63 v=120
838800 On ch=1 n=47 v=120
839030 On ch=1 n=93 v=0
839030 On ch=1 n=81 v=0
839040 On ch=1 n=83 v=120
839150 On ch=1 n=83 v=0
839160 On ch=1 n=81 v=120
839163 Par ch=1 c=64 v=0
839270 On ch=1 n=81 v=0
839270 On ch=1 n=54 v=0
839270 On ch=1 n=57 v=0
839270 On ch=1 n=63 v=0
839270 On ch=1 n=47 v=0
839280 TimeSig 4/4 24 8
839280 On ch=1 n=91 v=120
839280 On ch=1 n=79 v=120
839280 On ch=1 n=52 v=120
839280 On ch=1 n=55 v=120
839280 On ch=1 n=64 v=120
839280 On ch=1 n=48 v=120
839510 On ch=1 n=91 v=0
839510 On ch=1 n=79 v=0
839520 On ch=1 n=76 v=120
839527 Par ch=1 c=64 v=127
839630 On ch=1 n=76 v=0
839640 On ch=1 n=78 v=120
839750 On ch=1 n=78 v=0
839750 On ch=1 n=52 v=0
839750 On ch=1 n=55 v=0
839750 On ch=1 n=64 v=0
839750 On ch=1 n=48 v=0
839760 On ch=1 n=72 v=120
839760 On ch=1 n=79 v=120
839760 On ch=1 n=67 v=120
839760 On ch=1 n=52 v=120
839760 On ch=1 n=55 v=120
839760 On ch=1 n=64 v=120
839760 On ch=1 n=48 v=120
839990 On ch=1 n=72 v=0
839990 On ch=1 n=79 v=0
839990 On ch=1 n=67 v=0
840000 On ch=1 n=88 v=120
840110 On ch=1 n=88 v=0
840120 On ch=1 n=90 v=120
840230 On ch=1 n=90 v=0
840230 On ch=1 n=52 v=0
840230 On ch=1 n=55 v=0
840230 On ch=1 n=64 v=0
840230 On ch=1 n=48 v=0
840240 TimeSig 4/4 24 8
840240 On ch=1 n=84 v=120
840240 On ch=1 n=91 v=120
840240 On ch=1 n=79 v=120
840240 On ch=1 n=52 v=120
840240 On ch=1 n=55 v=120
840240 On ch=1 n=64 v=120
840240 On ch=1 n=48 v=120
840470 On ch=1 n=84 v=0
840470 On ch=1 n=91 v=0
840470 On ch=1 n=79 v=0
840480 On ch=1 n=76 v=120
840590 On ch=1 n=76 v=0
840600 On ch=1 n=78 v=120
840710 On ch=1 n=78 v=0
840710 On ch=1 n=52 v=0
840710 On ch=1 n=55 v=0
840710 On ch=1 n=64 v=0
840710 On ch=1 n=48 v=0
840720 On ch=1 n=72 v=120
840720 On ch=1 n=79 v=120
840720 On ch=1 n=67 v=120
840720 On ch=1 n=52 v=120
840720 On ch=1 n=55 v=120
840720 On ch=1 n=64 v=120
840720 On ch=1 n=48 v=120
840950 On ch=1 n=72 v=0
840950 On ch=1 n=79 v=0
840950 On ch=1 n=67 v=0
840960 On ch=1 n=81 v=120
841070 On ch=1 n=81 v=0
841080 On ch=1 n=79 v=120
841181 Par ch=1 c=64 v=0
841190 On ch=1 n=79 v=0
841190 On ch=1 n=52 v=0
841190 On ch=1 n=55 v=0
841190 On ch=1 n=64 v=0
841190 On ch=1 n=48 v=0
841200 TimeSig 4/4 24 8
841200 On ch=1 n=89 v=120
841200 On ch=1 n=77 v=120
841200 On ch=1 n=57 v=120
841200 On ch=1 n=65 v=120
841200 On ch=1 n=53 v=120
841407 Par ch=1 c=64 v=127
841430 On ch=1 n=89 v=0
841430 On ch=1 n=77 v=0
841440 On ch=1 n=86 v=120
841550 On ch=1 n=86 v=0
841560 On ch=1 n=88 v=120
841670 On ch=1 n=88 v=0
841670 On ch=1 n=57 v=0
841670 On ch=1 n=65 v=0
841670 On ch=1 n=53 v=0
841680 On ch=1 n=89 v=120
841680 On ch=1 n=77 v=120
841680 On ch=1 n=57 v=120
841680 On ch=1 n=62 v=120
841680 On ch=1 n=65 v=120
841680 On ch=1 n=50 v=120
841910 On ch=1 n=89 v=0
841910 On ch=1 n=77 v=0
841920 On ch=1 n=79 v=120
842030 On ch=1 n=79 v=0
842040 On ch=1 n=77 v=120
842056 Par ch=1 c=64 v=0
842150 On ch=1 n=77 v=0
842150 On ch=1 n=57 v=0
842150 On ch=1 n=62 v=0
842150 On ch=1 n=65 v=0
842150 On ch=1 n=50 v=0
842160 TimeSig 4/4 24 8
842160 On ch=1 n=88 v=120
842160 On ch=1 n=76 v=120
842160 On ch=1 n=61 v=120
842160 On ch=1 n=64 v=120
842160 On ch=1 n=69 v=120
842160 On ch=1 n=57 v=120
842384 Par ch=1 c=64 v=127
842390 On ch=1 n=88 v=0
842390 On ch=1 n=76 v=0
842400 On ch=1 n=76 v=120
842510 On ch=1 n=76 v=0
842520 On ch=1 n=73 v=120
842630 On ch=1 n=73 v=0
842630 On ch=1 n=61 v=0
842630 On ch=1 n=64 v=0
842630 On ch=1 n=69 v=0
842630 On ch=1 n=57 v=0
842640 On ch=1 n=81 v=120
842640 On ch=1 n=69 v=120
842640 On ch=1 n=57 v=120
842640 On ch=1 n=45 v=120
842870 On ch=1 n=81 v=0
842870 On ch=1 n=69 v=0
842880 On ch=1 n=80 v=120
842990 On ch=1 n=80 v=0
843000 On ch=1 n=81 v=120
843039 Par ch=1 c=64 v=0
843110 On ch=1 n=81 v=0
843110 On ch=1 n=57 v=0
843110 On ch=1 n=45 v=0
843120 TimeSig 4/4 24 8
843120 On ch=1 n=75 v=120
843120 On ch=1 n=81 v=120
843120 On ch=1 n=69 v=120
843120 On ch=1 n=54 v=120
843120 On ch=1 n=47 v=120
843230 On ch=1 n=54 v=0
843230 On ch=1 n=47 v=0
843240 On ch=1 n=59 v=120
843273 Par ch=1 c=64 v=127
843350 On ch=1 n=75 v=0
843350 On ch=1 n=81 v=0
843350 On ch=1 n=69 v=0
843350 On ch=1 n=59 v=0
843360 On ch=1 n=54 v=120
843360 On ch=1 n=47 v=120
843470 On ch=1 n=54 v=0
843470 On ch=1 n=47 v=0
843480 On ch=1 n=75 v=120
843480 On ch=1 n=78 v=120
843480 On ch=1 n=69 v=120
843480 On ch=1 n=59 v=120
843590 On ch=1 n=75 v=0
843590 On ch=1 n=78 v=0
843590 On ch=1 n=69 v=0
843590 On ch=1 n=59 v=0
843600 On ch=1 n=75 v=120
843600 On ch=1 n=81 v=120
843600 On ch=1 n=69 v=120
843600 On ch=1 n=54 v=120
843600 On ch=1 n=47 v=120
843710 On ch=1 n=54 v=0
843710 On ch=1 n=47 v=0
843720 On ch=1 n=59 v=120
843830 On ch=1 n=75 v=0
843830 On ch=1 n=81 v=0
843830 On ch=1 n=69 v=0
843830 On ch=1 n=59 v=0
843840 On ch=1 n=54 v=120
843840 On ch=1 n=47 v=120
843950 On ch=1 n=54 v=0
843950 On ch=1 n=47 v=0
843960 On ch=1 n=75 v=120
843960 On ch=1 n=78 v=120
843960 On ch=1 n=69 v=120
843960 On ch=1 n=59 v=120
844070 On ch=1 n=75 v=0
844070 On ch=1 n=78 v=0
844070 On ch=1 n=69 v=0
844070 On ch=1 n=59 v=0
844080 TimeSig 4/4 24 8
844080 On ch=1 n=75 v=120
844080 On ch=1 n=81 v=120
844080 On ch=1 n=69 v=120
844080 On ch=1 n=54 v=120
844080 On ch=1 n=47 v=120
844190 On ch=1 n=54 v=0
844190 On ch=1 n=47 v=0
844200 On ch=1 n=47 v=120
844310 On ch=1 n=75 v=0
844310 On ch=1 n=81 v=0
844310 On ch=1 n=69 v=0
844310 On ch=1 n=47 v=0
844320 On ch=1 n=42 v=120
844320 On ch=1 n=35 v=120
844430 On ch=1 n=42 v=0
844430 On ch=1 n=35 v=0
844440 On ch=1 n=87 v=120
844440 On ch=1 n=90 v=120
844440 On ch=1 n=81 v=120
844440 On ch=1 n=47 v=120
844550 On ch=1 n=87 v=0
844550 On ch=1 n=90 v=0
844550 On ch=1 n=81 v=0
844550 On ch=1 n=47 v=0
844560 On ch=1 n=87 v=120
844560 On ch=1 n=93 v=120
844560 On ch=1 n=81 v=120
844560 On ch=1 n=42 v=120
844560 On ch=1 n=35 v=120
844670 On ch=1 n=42 v=0
844670 On ch=1 n=35 v=0
844680 On ch=1 n=47 v=120
844790 On ch=1 n=87 v=0
844790 On ch=1 n=93 v=0
844790 On ch=1 n=81 v=0
844790 On ch=1 n=47 v=0
844800 On ch=1 n=42 v=120
844800 On ch=1 n=35 v=120
844910 On ch=1 n=42 v=0
844910 On ch=1 n=35 v=0
844920 On ch=1 n=87 v=120
844920 On ch=1 n=90 v=120
844920 On ch=1 n=81 v=120
844920 On ch=1 n=47 v=120
845030 On ch=1 n=87 v=0
845030 On ch=1 n=90 v=0
845030 On ch=1 n=81 v=0
845030 On ch=1 n=47 v=0
845040 TimeSig 4/4 24 8
845040 On ch=1 n=87 v=120
845040 On ch=1 n=93 v=120
845040 On ch=1 n=81 v=120
845040 On ch=1 n=54 v=120
845040 On ch=1 n=47 v=120
845150 On ch=1 n=54 v=0
845150 On ch=1 n=47 v=0
845160 On ch=1 n=59 v=120
845270 On ch=1 n=87 v=0
845270 On ch=1 n=93 v=0
845270 On ch=1 n=81 v=0
845270 On ch=1 n=59 v=0
845280 On ch=1 n=54 v=120
845280 On ch=1 n=47 v=120
845390 On ch=1 n=54 v=0
845390 On ch=1 n=47 v=0
845400 On ch=1 n=75 v=120
845400 On ch=1 n=78 v=120
845400 On ch=1 n=69 v=120
845400 On ch=1 n=59 v=120
845510 On ch=1 n=75 v=0
845510 On ch=1 n=78 v=0
845510 On ch=1 n=69 v=0
845510 On ch=1 n=59 v=0
845520 On ch=1 n=75 v=120
845520 On ch=1 n=81 v=120
845520 On ch=1 n=69 v=120
845520 On ch=1 n=54 v=120
845520 On ch=1 n=47 v=120
845630 On ch=1 n=54 v=0
845630 On ch=1 n=47 v=0
845640 On ch=1 n=59 v=120
845750 On ch=1 n=75 v=0
845750 On ch=1 n=81 v=0
845750 On ch=1 n=69 v=0
845750 On ch=1 n=59 v=0
845760 On ch=1 n=54 v=120
845760 On ch=1 n=47 v=120
845870 On ch=1 n=54 v=0
845870 On ch=1 n=47 v=0
845880 On ch=1 n=75 v=120
845880 On ch=1 n=78 v=120
845880 On ch=1 n=69 v=120
845880 On ch=1 n=59 v=120
845941 Par ch=1 c=64 v=0
845990 On ch=1 n=75 v=0
845990 On ch=1 n=78 v=0
845990 On ch=1 n=69 v=0
845990 On ch=1 n=59 v=0
846000 TimeSig 4/4 24 8
846000 On ch=1 n=75 v=120
846000 On ch=1 n=81 v=120
846000 On ch=1 n=69 v=120
846000 On ch=1 n=54 v=120
846000 On ch=1 n=47 v=120
846110 On ch=1 n=54 v=0
846110 On ch=1 n=47 v=0
846120 On ch=1 n=47 v=120
846195 Par ch=1 c=64 v=127
846230 On ch=1 n=75 v=0
846230 On ch=1 n=81 v=0
846230 On ch=1 n=69 v=0
846230 On ch=1 n=47 v=0
846240 On ch=1 n=42 v=120
846240 On ch=1 n=35 v=120
846350 On ch=1 n=42 v=0
846350 On ch=1 n=35 v=0
846360 On ch=1 n=87 v=120
846360 On ch=1 n=90 v=120
846360 On ch=1 n=81 v=120
846360 On ch=1 n=47 v=120
846470 On ch=1 n=87 v=0
846470 On ch=1 n=90 v=0
846470 On ch=1 n=81 v=0
846470 On ch=1 n=47 v=0
846480 On ch=1 n=87 v=120
846480 On ch=1 n=93 v=120
846480 On ch=1 n=81 v=120
846480 On ch=1 n=42 v=120
846480 On ch=1 n=35 v=120
846590 On ch=1 n=42 v=0
846590 On ch=1 n=35 v=0
846600 On ch=1 n=47 v=120
846710 On ch=1 n=87 v=0
846710 On ch=1 n=93 v=0
846710 On ch=1 n=81 v=0
846710 On ch=1 n=47 v=0
846720 On ch=1 n=42 v=120
846720 On ch=1 n=35 v=120
846830 On ch=1 n=42 v=0
846830 On ch=1 n=35 v=0
846840 On ch=1 n=87 v=120
846840 On ch=1 n=90 v=120
846840 On ch=1 n=81 v=120
846840 On ch=1 n=47 v=120
846865 Par ch=1 c=64 v=0
846950 On ch=1 n=87 v=0
846950 On ch=1 n=90 v=0
846950 On ch=1 n=81 v=0
846950 On ch=1 n=47 v=0
846960 TimeSig 4/4 24 8
846960 On ch=1 n=88 v=120
846960 On ch=1 n=91 v=120
846960 On ch=1 n=79 v=120
846960 On ch=1 n=52 v=120
846960 On ch=1 n=48 v=120
847070 On ch=1 n=52 v=0
847070 On ch=1 n=48 v=0
847080 On ch=1 n=60 v=120
847190 On ch=1 n=88 v=0
847190 On ch=1 n=91 v=0
847190 On ch=1 n=79 v=0
847190 On ch=1 n=60 v=0
847200 On ch=1 n=52 v=120
847200 On ch=1 n=48 v=120
847243 Par ch=1 c=64 v=127
847310 On ch=1 n=52 v=0
847310 On ch=1 n=48 v=0
847320 On ch=1 n=76 v=120
847320 On ch=1 n=67 v=120
847320 On ch=1 n=60 v=120
847430 On ch=1 n=76 v=0
847430 On ch=1 n=67 v=0
847430 On ch=1 n=60 v=0
847440 On ch=1 n=76 v=120
847440 On ch=1 n=79 v=120
847440 On ch=1 n=67 v=120
847440 On ch=1 n=52 v=120
847440 On ch=1 n=48 v=120
847550 On ch=1 n=52 v=0
847550 On ch=1 n=48 v=0
847560 On ch=1 n=60 v=120
847670 On ch=1 n=76 v=0
847670 On ch=1 n=79 v=0
847670 On ch=1 n=67 v=0
847670 On ch=1 n=60 v=0
847680 On ch=1 n=52 v=120
847680 On ch=1 n=48 v=120
847790 On ch=1 n=52 v=0
847790 On ch=1 n=48 v=0
847800 On ch=1 n=76 v=120
847800 On ch=1 n=67 v=120
847800 On ch=1 n=60 v=120
847910 On ch=1 n=76 v=0
847910 On ch=1 n=67 v=0
847910 On ch=1 n=60 v=0
847920 TimeSig 4/4 24 8
847920 On ch=1 n=76 v=120
847920 On ch=1 n=79 v=120
847920 On ch=1 n=67 v=120
847920 On ch=1 n=52 v=120
847920 On ch=1 n=48 v=120
848030 On ch=1 n=52 v=0
848030 On ch=1 n=48 v=0
848040 On ch=1 n=48 v=120
848150 On ch=1 n=76 v=0
848150 On ch=1 n=79 v=0
848150 On ch=1 n=67 v=0
848150 On ch=1 n=48 v=0
848160 On ch=1 n=37 v=120
848270 On ch=1 n=37 v=0
848280 On ch=1 n=88 v=120
848280 On ch=1 n=79 v=120
848280 On ch=1 n=48 v=120
848390 On ch=1 n=88 v=0
848390 On ch=1 n=79 v=0
848390 On ch=1 n=48 v=0
848400 On ch=1 n=88 v=120
848400 On ch=1 n=91 v=120
848400 On ch=1 n=79 v=120
848400 On ch=1 n=37 v=120
848510 On ch=1 n=37 v=0
848520 On ch=1 n=48 v=120
848630 On ch=1 n=88 v=0
848630 On ch=1 n=91 v=0
848630 On ch=1 n=79 v=0
848630 On ch=1 n=48 v=0
848640 On ch=1 n=37 v=120
848750 On ch=1 n=37 v=0
848760 On ch=1 n=88 v=120
848760 On ch=1 n=79 v=120
848760 On ch=1 n=48 v=120
848870 On ch=1 n=88 v=0
848870 On ch=1 n=79 v=0
848870 On ch=1 n=48 v=0
848880 TimeSig 4/4 24 8
848880 On ch=1 n=81 v=120
848880 On ch=1 n=89 v=120
848880 On ch=1 n=77 v=120
848880 On ch=1 n=41 v=120
848990 On ch=1 n=41 v=0
849000 On ch=1 n=53 v=120
849029 Par ch=1 c=64 v=0
849110 On ch=1 n=81 v=0
849110 On ch=1 n=89 v=0
849110 On ch=1 n=77 v=0
849110 On ch=1 n=53 v=0
849120 On ch=1 n=41 v=120
849225 Par ch=1 c=64 v=127
849230 On ch=1 n=41 v=0
849240 On ch=1 n=69 v=120
849240 On ch=1 n=65 v=120
849240 On ch=1 n=53 v=120
849350 On ch=1 n=69 v=0
849350 On ch=1 n=65 v=0
849350 On ch=1 n=53 v=0
849360 On ch=1 n=74 v=120
849360 On ch=1 n=77 v=120
849360 On ch=1 n=65 v=120
849360 On ch=1 n=38 v=120
849470 On ch=1 n=38 v=0
849480 On ch=1 n=50 v=120
849590 On ch=1 n=74 v=0
849590 On ch=1 n=77 v=0
849590 On ch=1 n=65 v=0
849590 On ch=1 n=50 v=0
849600 On ch=1 n=38 v=120
849710 On ch=1 n=38 v=0
849711 Par ch=1 c=64 v=0
849720 On ch=1 n=74 v=120
849720 On ch=1 n=77 v=120
849720 On ch=1 n=65 v=120
849720 On ch=1 n=50 v=120
849830 On ch=1 n=74 v=0
849830 On ch=1 n=77 v=0
849830 On ch=1 n=65 v=0
849830 On ch=1 n=50 v=0
849840 TimeSig 4/4 24 8
849840 On ch=1 n=73 v=120
849840 On ch=1 n=76 v=120
849840 On ch=1 n=64 v=120
849840 On ch=1 n=45 v=120
849950 On ch=1 n=45 v=0
849960 On ch=1 n=57 v=120
850009 Par ch=1 c=64 v=127
850070 On ch=1 n=73 v=0
850070 On ch=1 n=76 v=0
850070 On ch=1 n=64 v=0
850070 On ch=1 n=57 v=0
850080 On ch=1 n=45 v=120
850190 On ch=1 n=45 v=0
850200 On ch=1 n=69 v=120
850200 On ch=1 n=64 v=120
850200 On ch=1 n=57 v=120
850310 On ch=1 n=69 v=0
850310 On ch=1 n=64 v=0
850310 On ch=1 n=57 v=0
850320 On ch=1 n=73 v=120
850320 On ch=1 n=76 v=120
850320 On ch=1 n=64 v=120
850320 On ch=1 n=45 v=120
850430 On ch=1 n=45 v=0
850440 On ch=1 n=57 v=120
850550 On ch=1 n=73 v=0
850550 On ch=1 n=76 v=0
850550 On ch=1 n=64 v=0
850550 On ch=1 n=57 v=0
850560 On ch=1 n=69 v=120
850560 On ch=1 n=72 v=120
850560 On ch=1 n=76 v=120
850560 On ch=1 n=64 v=120
850560 On ch=1 n=48 v=120
850598 Par ch=1 c=64 v=0
850670 On ch=1 n=48 v=0
850680 On ch=1 n=60 v=120
850790 On ch=1 n=69 v=0
850790 On ch=1 n=72 v=0
850790 On ch=1 n=76 v=0
850790 On ch=1 n=64 v=0
850790 On ch=1 n=60 v=0
850800 TimeSig 4/4 24 8
850800 On ch=1 n=69 v=120
850800 On ch=1 n=74 v=120
850800 On ch=1 n=78 v=120
850800 On ch=1 n=66 v=120
850800 On ch=1 n=48 v=120
850920 On ch=1 n=60 v=120
851030 On ch=1 n=60 v=0
851040 On ch=1 n=48 v=120
851150 On ch=1 n=48 v=0
851160 On ch=1 n=60 v=120
851270 On ch=1 n=69 v=0
851270 On ch=1 n=74 v=0
851270 On ch=1 n=78 v=0
851270 On ch=1 n=66 v=0
851270 On ch=1 n=48 v=0
851270 On ch=1 n=60 v=0
851280 On ch=1 n=71 v=120
851280 On ch=1 n=74 v=120
851280 On ch=1 n=79 v=120
851280 On ch=1 n=67 v=120
851280 On ch=1 n=47 v=120
851390 On ch=1 n=71 v=0
851390 On ch=1 n=74 v=0
851390 On ch=1 n=79 v=0
851390 On ch=1 n=67 v=0
851400 On ch=1 n=62 v=120
851400 On ch=1 n=59 v=120
851459 Par ch=1 c=64 v=127
851510 On ch=1 n=62 v=0
851510 On ch=1 n=59 v=0
851510 On ch=1 n=47 v=0
851520 On ch=1 n=64 v=120
851520 On ch=1 n=55 v=120
851630 On ch=1 n=64 v=0
851640 On ch=1 n=66 v=120
851640 On ch=1 n=59 v=120
851662 Par ch=1 c=64 v=0
851750 On ch=1 n=66 v=0
851750 On ch=1 n=55 v=0
851750 On ch=1 n=59 v=0
851760 TimeSig 4/4 24 8
851760 On ch=1 n=67 v=120
851760 On ch=1 n=52 v=120
851870 On ch=1 n=67 v=0
851880 On ch=1 n=67 v=120
851880 On ch=1 n=64 v=120
851990 On ch=1 n=67 v=0
851990 On ch=1 n=52 v=0
851990 On ch=1 n=64 v=0
852000 On ch=1 n=69 v=120
852000 On ch=1 n=49 v=120
852043 Par ch=1 c=64 v=127
852110 On ch=1 n=69 v=0
852120 On ch=1 n=71 v=120
852120 On ch=1 n=61 v=120
852230 On ch=1 n=71 v=0
852230 On ch=1 n=49 v=0
852230 On ch=1 n=61 v=0
852240 On ch=1 n=73 v=120
852240 On ch=1 n=45 v=120
852350 On ch=1 n=73 v=0
852360 On ch=1 n=74 v=120
852360 On ch=1 n=71 v=120
852360 On ch=1 n=57 v=120
852470 On ch=1 n=74 v=0
852470 On ch=1 n=45 v=0
852470 On ch=1 n=71 v=0
852470 On ch=1 n=57 v=0
852480 On ch=1 n=76 v=120
852480 On ch=1 n=73 v=120
852480 On ch=1 n=43 v=120
852590 On ch=1 n=76 v=0
852590 On ch=1 n=73 v=0
852600 On ch=1 n=78 v=120
852600 On ch=1 n=74 v=120
852600 On ch=1 n=55 v=120
852710 On ch=1 n=78 v=0
852710 On ch=1 n=74 v=0
852710 On ch=1 n=43 v=0
852710 On ch=1 n=55 v=0
852720 TimeSig 4/4 24 8
852720 On ch=1 n=79 v=120
852720 On ch=1 n=76 v=120
852720 On ch=1 n=40 v=120
852830 On ch=1 n=79 v=0
852830 On ch=1 n=76 v=0
852840 On ch=1 n=81 v=120
852840 On ch=1 n=78 v=120
852840 On ch=1 n=52 v=120
852950 On ch=1 n=81 v=0
852950 On ch=1 n=78 v=0
852950 On ch=1 n=40 v=0
852950 On ch=1 n=52 v=0
852960 On ch=1 n=83 v=120
852960 On ch=1 n=79 v=120
852960 On ch=1 n=37 v=120
853070 On ch=1 n=83 v=0
853070 On ch=1 n=79 v=0
853080 On ch=1 n=85 v=120
853080 On ch=1 n=81 v=120
853080 On ch=1 n=49 v=120
853125 Par ch=1 c=64 v=0
853190 On ch=1 n=85 v=0
853190 On ch=1 n=81 v=0
853190 On ch=1 n=37 v=0
853190 On ch=1 n=49 v=0
853200 On ch=1 n=86 v=120
853200 On ch=1 n=83 v=120
853200 On ch=1 n=33 v=120
853310 On ch=1 n=86 v=0
853310 On ch=1 n=83 v=0
853320 On ch=1 n=88 v=120
853320 On ch=1 n=85 v=120
853320 On ch=1 n=45 v=120
853430 On ch=1 n=88 v=0
853430 On ch=1 n=85 v=0
853430 On ch=1 n=33 v=0
853430 On ch=1 n=45 v=0
853440 On ch=1 n=90 v=120
853440 On ch=1 n=86 v=120
853440 On ch=1 n=45 v=120
853550 On ch=1 n=90 v=0
853550 On ch=1 n=86 v=0
853560 On ch=1 n=91 v=120
853560 On ch=1 n=88 v=120
853560 On ch=1 n=57 v=120
853670 On ch=1 n=91 v=0
853670 On ch=1 n=88 v=0
853670 On ch=1 n=45 v=0
853670 On ch=1 n=57 v=0
853680 TimeSig 4/4 24 8
853680 On ch=1 n=86 v=120
853680 On ch=1 n=90 v=120
853680 On ch=1 n=78 v=120
853680 On ch=1 n=45 v=120
853800 On ch=1 n=57 v=120
853910 On ch=1 n=45 v=0
853910 On ch=1 n=57 v=0
853920 On ch=1 n=45 v=120
854040 On ch=1 n=57 v=120
854150 On ch=1 n=86 v=0
854150 On ch=1 n=90 v=0
854150 On ch=1 n=78 v=0
854150 On ch=1 n=45 v=0
854150 On ch=1 n=57 v=0
854160 On ch=1 n=85 v=120
854160 On ch=1 n=88 v=120
854160 On ch=1 n=76 v=120
854160 On ch=1 n=45 v=120
854280 On ch=1 n=57 v=120
854390 On ch=1 n=85 v=0
854390 On ch=1 n=88 v=0
854390 On ch=1 n=76 v=0
854390 On ch=1 n=45 v=0
854390 On ch=1 n=57 v=0
854400 On ch=1 n=81 v=120
854400 On ch=1 n=88 v=120
854400 On ch=1 n=76 v=120
854400 On ch=1 n=48 v=120
854520 On ch=1 n=60 v=120
854630 On ch=1 n=81 v=0
854630 On ch=1 n=88 v=0
854630 On ch=1 n=76 v=0
854630 On ch=1 n=48 v=0
854630 On ch=1 n=60 v=0
854640 TimeSig 4/4 24 8
854640 On ch=1 n=81 v=120
854640 On ch=1 n=86 v=120
854640 On ch=1 n=90 v=120
854640 On ch=1 n=78 v=120
854640 On ch=1 n=48 v=120
854760 On ch=1 n=60 v=120
854870 On ch=1 n=60 v=0
854880 On ch=1 n=48 v=120
854990 On ch=1 n=48 v=0
855000 On ch=1 n=60 v=120
855110 On ch=1 n=81 v=0
855110 On ch=1 n=86 v=0
855110 On ch=1 n=90 v=0
855110 On ch=1 n=78 v=0
855110 On ch=1 n=48 v=0
855110 On ch=1 n=60 v=0
855120 On ch=1 n=83 v=120
855120 On ch=1 n=86 v=120
855120 On ch=1 n=91 v=120
855120 On ch=1 n=79 v=120
855120 On ch=1 n=47 v=120
855230 Par ch=1 c=64 v=127
855230 On ch=1 n=83 v=0
855230 On ch=1 n=86 v=0
855230 On ch=1 n=91 v=0
855230 On ch=1 n=79 v=0
855240 On ch=1 n=62 v=120
855240 On ch=1 n=59 v=120
855350 On ch=1 n=62 v=0
855350 On ch=1 n=59 v=0
855350 On ch=1 n=47 v=0
855360 On ch=1 n=64 v=120
855360 On ch=1 n=55 v=120
855470 On ch=1 n=64 v=0
855480 On ch=1 n=66 v=120
855480 On ch=1 n=59 v=120
855583 Par ch=1 c=64 v=0
855590 On ch=1 n=66 v=0
855590 On ch=1 n=55 v=0
855590 On ch=1 n=59 v=0
855600 TimeSig 4/4 24 8
855600 On ch=1 n=67 v=120
855600 On ch=1 n=52 v=120
855710 On ch=1 n=67 v=0
855720 On ch=1 n=67 v=120
855720 On ch=1 n=64 v=120
855830 On ch=1 n=67 v=0
855830 On ch=1 n=52 v=0
855830 On ch=1 n=64 v=0
855840 On ch=1 n=69 v=120
855840 On ch=1 n=49 v=120
855860 Par ch=1 c=64 v=127
855950 On ch=1 n=69 v=0
855960 On ch=1 n=71 v=120
855960 On ch=1 n=61 v=120
856070 On ch=1 n=71 v=0
856070 On ch=1 n=49 v=0
856070 On ch=1 n=61 v=0
856080 On ch=1 n=73 v=120
856080 On ch=1 n=45 v=120
856190 On ch=1 n=73 v=0
856200 On ch=1 n=74 v=120
856200 On ch=1 n=71 v=120
856200 On ch=1 n=57 v=120
856310 On ch=1 n=74 v=0
856310 On ch=1 n=45 v=0
856310 On ch=1 n=71 v=0
856310 On ch=1 n=57 v=0
856320 On ch=1 n=76 v=120
856320 On ch=1 n=73 v=120
856320 On ch=1 n=43 v=120
856430 On ch=1 n=76 v=0
856430 On ch=1 n=73 v=0
856440 On ch=1 n=78 v=120
856440 On ch=1 n=74 v=120
856440 On ch=1 n=55 v=120
856550 On ch=1 n=78 v=0
856550 On ch=1 n=74 v=0
856550 On ch=1 n=43 v=0
856550 On ch=1 n=55 v=0
856560 TimeSig 4/4 24 8
856560 On ch=1 n=79 v=120
856560 On ch=1 n=76 v=120
856560 On ch=1 n=40 v=120
856670 On ch=1 n=79 v=0
856670 On ch=1 n=76 v=0
856680 On ch=1 n=81 v=120
856680 On ch=1 n=78 v=120
856680 On ch=1 n=52 v=120
856790 On ch=1 n=81 v=0
856790 On ch=1 n=78 v=0
856790 On ch=1 n=40 v=0
856790 On ch=1 n=52 v=0
856800 On ch=1 n=83 v=120
856800 On ch=1 n=79 v=120
856800 On ch=1 n=37 v=120
856910 On ch=1 n=83 v=0
856910 On ch=1 n=79 v=0
856920 On ch=1 n=85 v=120
856920 On ch=1 n=81 v=120
856920 On ch=1 n=49 v=120
857030 On ch=1 n=85 v=0
857030 On ch=1 n=81 v=0
857030 On ch=1 n=37 v=0
857030 On ch=1 n=49 v=0
857040 On ch=1 n=86 v=120
857040 On ch=1 n=83 v=120
857040 On ch=1 n=33 v=120
857150 On ch=1 n=86 v=0
857150 On ch=1 n=83 v=0
857160 On ch=1 n=88 v=120
857160 On ch=1 n=85 v=120
857160 On ch=1 n=45 v=120
857181 Par ch=1 c=64 v=0
857270 On ch=1 n=88 v=0
857270 On ch=1 n=85 v=0
857270 On ch=1 n=33 v=0
857270 On ch=1 n=45 v=0
857280 On ch=1 n=90 v=120
857280 On ch=1 n=86 v=120
857280 On ch=1 n=45 v=120
857390 On ch=1 n=90 v=0
857390 On ch=1 n=86 v=0
857390 On ch=1 n=45 v=0
857400 On ch=1 n=91 v=120
857400 On ch=1 n=88 v=120
857400 On ch=1 n=57 v=120
857510 On ch=1 n=91 v=0
857510 On ch=1 n=88 v=0
857510 On ch=1 n=57 v=0
857520 TimeSig 4/4 24 8
857520 On ch=1 n=90 v=120
857520 On ch=1 n=86 v=120
857520 On ch=1 n=81 v=120
857520 On ch=1 n=62 v=120
857520 On ch=1 n=66 v=120
857520 On ch=1 n=57 v=120
857630 On ch=1 n=62 v=0
857630 On ch=1 n=66 v=0
857630 On ch=1 n=57 v=0
857640 On ch=1 n=69 v=120
857750 On ch=1 n=90 v=0
857750 On ch=1 n=69 v=0
857760 On ch=1 n=91 v=120
857760 On ch=1 n=62 v=120
857760 On ch=1 n=66 v=120
857760 On ch=1 n=57 v=120
857870 On ch=1 n=91 v=0
857870 On ch=1 n=62 v=0
857870 On ch=1 n=66 v=0
857870 On ch=1 n=57 v=0
857880 On ch=1 n=90 v=120
857880 On ch=1 n=69 v=120
857990 On ch=1 n=90 v=0
857990 On ch=1 n=86 v=0
857990 On ch=1 n=81 v=0
857990 On ch=1 n=69 v=0
858000 On ch=1 n=88 v=120
858000 On ch=1 n=85 v=120
858000 On ch=1 n=81 v=120
858000 On ch=1 n=61 v=120
858000 On ch=1 n=64 v=120
858000 On ch=1 n=57 v=120
858110 On ch=1 n=61 v=0
858110 On ch=1 n=64 v=0
858110 On ch=1 n=57 v=0
858120 On ch=1 n=69 v=120
858230 On ch=1 n=88 v=0
858230 On ch=1 n=69 v=0
858240 On ch=1 n=90 v=120
858240 On ch=1 n=61 v=120
858240 On ch=1 n=64 v=120
858240 On ch=1 n=57 v=120
858350 On ch=1 n=90 v=0
858350 On ch=1 n=61 v=0
858350 On ch=1 n=64 v=0
858350 On ch=1 n=57 v=0
858360 On ch=1 n=88 v=120
858360 On ch=1 n=69 v=120
858470 On ch=1 n=88 v=0
858470 On ch=1 n=85 v=0
858470 On ch=1 n=81 v=0
858470 On ch=1 n=69 v=0
858480 TimeSig 4/4 24 8
858480 On ch=1 n=86 v=120
858480 On ch=1 n=74 v=120
858480 On ch=1 n=62 v=120
858480 On ch=1 n=62 v=120
858630 On ch=1 n=86 v=0
858630 On ch=1 n=74 v=0
858630 On ch=1 n=62 v=0
858630 On ch=1 n=62 v=0
858640 On ch=1 n=74 v=120
858640 On ch=1 n=62 v=120
858640 On ch=1 n=50 v=120
858640 On ch=1 n=50 v=120
858790 On ch=1 n=74 v=0
858790 On ch=1 n=62 v=0
858790 On ch=1 n=50 v=0
858790 On ch=1 n=50 v=0
858800 On ch=1 n=76 v=120
858800 On ch=1 n=64 v=120
858800 On ch=1 n=52 v=120
858800 On ch=1 n=52 v=120
858950 On ch=1 n=76 v=0
858950 On ch=1 n=64 v=0
858950 On ch=1 n=52 v=0
858950 On ch=1 n=52 v=0
858960 On ch=1 n=78 v=120
858960 On ch=1 n=66 v=120
858960 On ch=1 n=54 v=120
858960 On ch=1 n=54 v=120
859006 Par ch=1 c=64 v=127
859110 On ch=1 n=78 v=0
859110 On ch=1 n=66 v=0
859110 On ch=1 n=54 v=0
859110 On ch=1 n=54 v=0
859120 On ch=1 n=79 v=120
859120 On ch=1 n=67 v=120
859120 On ch=1 n=50 v=120
859120 On ch=1 n=50 v=120
859270 On ch=1 n=79 v=0
859270 On ch=1 n=67 v=0
859270 On ch=1 n=50 v=0
859270 On ch=1 n=50 v=0
859280 On ch=1 n=81 v=120
859280 On ch=1 n=69 v=120
859280 On ch=1 n=48 v=120
859280 On ch=1 n=48 v=120
859430 On ch=1 n=81 v=0
859430 On ch=1 n=69 v=0
859430 On ch=1 n=48 v=0
859430 On ch=1 n=48 v=0
859440 TimeSig 4/4 24 8
859440 On ch=1 n=83 v=120
859440 On ch=1 n=71 v=120
859440 On ch=1 n=47 v=120
859440 On ch=1 n=47 v=120
859590 On ch=1 n=83 v=0
859590 On ch=1 n=71 v=0
859590 On ch=1 n=47 v=0
859590 On ch=1 n=47 v=0
859600 On ch=1 n=83 v=120
859600 On ch=1 n=71 v=120
859600 On ch=1 n=59 v=120
859600 On ch=1 n=59 v=120
859604 Par ch=1 c=64 v=0
859750 On ch=1 n=83 v=0
859750 On ch=1 n=71 v=0
859750 On ch=1 n=59 v=0
859750 On ch=1 n=59 v=0
859760 On ch=1 n=84 v=120
859760 On ch=1 n=72 v=120
859760 On ch=1 n=60 v=120
859760 On ch=1 n=60 v=120
859910 On ch=1 n=84 v=0
859910 On ch=1 n=72 v=0
859910 On ch=1 n=60 v=0
859910 On ch=1 n=60 v=0
859920 On ch=1 n=86 v=120
859920 On ch=1 n=74 v=120
859920 On ch=1 n=62 v=120
859920 On ch=1 n=62 v=120
860070 On ch=1 n=86 v=0
860070 On ch=1 n=74 v=0
860070 On ch=1 n=62 v=0
860070 On ch=1 n=62 v=0
860080 On ch=1 n=88 v=120
860080 On ch=1 n=76 v=120
860080 On ch=1 n=59 v=120
860080 On ch=1 n=59 v=120
860230 On ch=1 n=88 v=0
860230 On ch=1 n=76 v=0
860230 On ch=1 n=59 v=0
860230 On ch=1 n=59 v=0
860240 On ch=1 n=90 v=120
860240 On ch=1 n=78 v=120
860240 On ch=1 n=57 v=120
860240 On ch=1 n=57 v=120
860390 On ch=1 n=90 v=0
860390 On ch=1 n=78 v=0
860390 On ch=1 n=57 v=0
860390 On ch=1 n=57 v=0
860400 TimeSig 4/4 24 8
860400 On ch=1 n=91 v=120
860400 On ch=1 n=79 v=120
860400 On ch=1 n=55 v=120
860400 On ch=1 n=43 v=120
860423 Par ch=1 c=64 v=127
860550 On ch=1 n=91 v=0
860550 On ch=1 n=79 v=0
860550 On ch=1 n=55 v=0
860550 On ch=1 n=43 v=0
860560 On ch=1 n=57 v=120
860560 On ch=1 n=45 v=120
860702 Par ch=1 c=64 v=0
860710 On ch=1 n=57 v=0
860710 On ch=1 n=45 v=0
860720 On ch=1 n=59 v=120
860720 On ch=1 n=47 v=120
860870 On ch=1 n=59 v=0
860870 On ch=1 n=47 v=0
860880 On ch=1 n=76 v=120
860880 On ch=1 n=64 v=120
860880 On ch=1 n=52 v=120
860880 On ch=1 n=40 v=120
861030 On ch=1 n=76 v=0
861030 On ch=1 n=64 v=0
861030 On ch=1 n=52 v=0
861030 On ch=1 n=40 v=0
861040 On ch=1 n=78 v=120
861040 On ch=1 n=66 v=120
861040 On ch=1 n=54 v=120
861040 On ch=1 n=42 v=120
861090 Par ch=1 c=64 v=127
861190 On ch=1 n=78 v=0
861190 On ch=1 n=66 v=0
861190 On ch=1 n=54 v=0
861190 On ch=1 n=42 v=0
861200 On ch=1 n=79 v=120
861200 On ch=1 n=67 v=120
861200 On ch=1 n=55 v=120
861200 On ch=1 n=43 v=120
861350 On ch=1 n=79 v=0
861350 On ch=1 n=67 v=0
861350 On ch=1 n=55 v=0
861350 On ch=1 n=43 v=0
861360 TimeSig 4/4 24 8
861360 On ch=1 n=81 v=120
861360 On ch=1 n=69 v=120
861360 On ch=1 n=57 v=120
861360 On ch=1 n=45 v=120
861510 On ch=1 n=81 v=0
861510 On ch=1 n=69 v=0
861510 On ch=1 n=57 v=0
861510 On ch=1 n=45 v=0
861520 On ch=1 n=85 v=120
861520 On ch=1 n=73 v=120
861520 On ch=1 n=61 v=120
861520 On ch=1 n=49 v=120
861670 On ch=1 n=85 v=0
861670 On ch=1 n=73 v=0
861670 On ch=1 n=61 v=0
861670 On ch=1 n=49 v=0
861680 On ch=1 n=86 v=120
861680 On ch=1 n=74 v=120
861680 On ch=1 n=62 v=120
861680 On ch=1 n=50 v=120
861830 On ch=1 n=86 v=0
861830 On ch=1 n=74 v=0
861830 On ch=1 n=62 v=0
861830 On ch=1 n=50 v=0
861840 On ch=1 n=88 v=120
861840 On ch=1 n=76 v=120
861840 On ch=1 n=64 v=120
861840 On ch=1 n=52 v=120
861990 On ch=1 n=88 v=0
861990 On ch=1 n=76 v=0
861990 On ch=1 n=64 v=0
861990 On ch=1 n=52 v=0
862000 On ch=1 n=90 v=120
862000 On ch=1 n=78 v=120
862000 On ch=1 n=66 v=120
862000 On ch=1 n=54 v=120
862010 Par ch=1 c=64 v=0
862150 On ch=1 n=90 v=0
862150 On ch=1 n=78 v=0
862150 On ch=1 n=66 v=0
862150 On ch=1 n=54 v=0
862160 On ch=1 n=91 v=120
862160 On ch=1 n=79 v=120
862160 On ch=1 n=67 v=120
862160 On ch=1 n=55 v=120
862310 On ch=1 n=91 v=0
862310 On ch=1 n=79 v=0
862310 On ch=1 n=67 v=0
862310 On ch=1 n=55 v=0
862320 TimeSig 4/4 24 8
862320 On ch=1 n=93 v=120
862320 On ch=1 n=81 v=120
862320 On ch=1 n=69 v=120
862320 On ch=1 n=57 v=120
862348 Par ch=1 c=64 v=127
862470 On ch=1 n=69 v=0
862470 On ch=1 n=57 v=0
862480 On ch=1 n=71 v=120
862480 On ch=1 n=59 v=120
862550 On ch=1 n=93 v=0
862550 On ch=1 n=81 v=0
862630 On ch=1 n=71 v=0
862630 On ch=1 n=59 v=0
862640 On ch=1 n=73 v=120
862640 On ch=1 n=61 v=120
862661 Par ch=1 c=64 v=0
862790 On ch=1 n=73 v=0
862790 On ch=1 n=61 v=0
862800 On ch=1 n=74 v=120
862800 On ch=1 n=62 v=120
862800 On ch=1 n=50 v=120
862800 On ch=1 n=38 v=120
862950 On ch=1 n=74 v=0
862950 On ch=1 n=62 v=0
862950 On ch=1 n=50 v=0
862950 On ch=1 n=38 v=0
862960 On ch=1 n=78 v=120
862960 On ch=1 n=66 v=120
862960 On ch=1 n=54 v=120
862960 On ch=1 n=42 v=120
863110 On ch=1 n=78 v=0
863110 On ch=1 n=66 v=0
863110 On ch=1 n=54 v=0
863110 On ch=1 n=42 v=0
863120 On ch=1 n=79 v=120
863120 On ch=1 n=67 v=120
863120 On ch=1 n=55 v=120
863120 On ch=1 n=43 v=120
863270 On ch=1 n=79 v=0
863270 On ch=1 n=67 v=0
863270 On ch=1 n=55 v=0
863270 On ch=1 n=43 v=0
863280 TimeSig 4/4 24 8
863280 On ch=1 n=81 v=120
863280 On ch=1 n=69 v=120
863280 On ch=1 n=57 v=120
863280 On ch=1 n=45 v=120
863430 On ch=1 n=81 v=0
863430 On ch=1 n=69 v=0
863430 On ch=1 n=57 v=0
863430 On ch=1 n=45 v=0
863440 On ch=1 n=85 v=120
863440 On ch=1 n=73 v=120
863440 On ch=1 n=61 v=120
863440 On ch=1 n=49 v=120
863590 On ch=1 n=85 v=0
863590 On ch=1 n=73 v=0
863590 On ch=1 n=61 v=0
863590 On ch=1 n=49 v=0
863600 On ch=1 n=86 v=120
863600 On ch=1 n=74 v=120
863600 On ch=1 n=62 v=120
863600 On ch=1 n=50 v=120
863750 On ch=1 n=86 v=0
863750 On ch=1 n=74 v=0
863750 On ch=1 n=62 v=0
863750 On ch=1 n=50 v=0
863760 On ch=1 n=88 v=120
863760 On ch=1 n=76 v=120
863760 On ch=1 n=64 v=120
863760 On ch=1 n=52 v=120
863910 On ch=1 n=88 v=0
863910 On ch=1 n=76 v=0
863910 On ch=1 n=64 v=0
863910 On ch=1 n=52 v=0
863920 On ch=1 n=90 v=120
863920 On ch=1 n=78 v=120
863920 On ch=1 n=66 v=120
863920 On ch=1 n=54 v=120
864070 On ch=1 n=90 v=0
864070 On ch=1 n=78 v=0
864070 On ch=1 n=66 v=0
864070 On ch=1 n=54 v=0
864080 On ch=1 n=91 v=120
864080 On ch=1 n=79 v=120
864080 On ch=1 n=67 v=120
864080 On ch=1 n=55 v=120
864230 On ch=1 n=91 v=0
864230 On ch=1 n=79 v=0
864230 On ch=1 n=67 v=0
864230 On ch=1 n=55 v=0
864240 TimeSig 4/4 24 8
864240 On ch=1 n=93 v=120
864240 On ch=1 n=81 v=120
864240 On ch=1 n=69 v=120
864240 On ch=1 n=57 v=120
864390 On ch=1 n=69 v=0
864390 On ch=1 n=57 v=0
864400 On ch=1 n=71 v=120
864400 On ch=1 n=59 v=120
864470 On ch=1 n=93 v=0
864470 On ch=1 n=81 v=0
864550 On ch=1 n=71 v=0
864550 On ch=1 n=59 v=0
864560 On ch=1 n=73 v=120
864560 On ch=1 n=61 v=120
864710 On ch=1 n=73 v=0
864710 On ch=1 n=61 v=0
864720 On ch=1 n=74 v=120
864720 On ch=1 n=62 v=120
864720 On ch=1 n=50 v=120
864720 On ch=1 n=38 v=120
864870 On ch=1 n=74 v=0
864870 On ch=1 n=62 v=0
864870 On ch=1 n=50 v=0
864870 On ch=1 n=38 v=0
864880 On ch=1 n=76 v=120
864880 On ch=1 n=64 v=120
864880 On ch=1 n=52 v=120
864880 On ch=1 n=40 v=120
865030 On ch=1 n=76 v=0
865030 On ch=1 n=64 v=0
865030 On ch=1 n=52 v=0
865030 On ch=1 n=40 v=0
865040 On ch=1 n=78 v=120
865040 On ch=1 n=66 v=120
865040 On ch=1 n=54 v=120
865040 On ch=1 n=42 v=120
865190 On ch=1 n=78 v=0
865190 On ch=1 n=66 v=0
865190 On ch=1 n=54 v=0
865190 On ch=1 n=42 v=0
865200 TimeSig 4/4 24 8
865200 On ch=1 n=81 v=120
865200 On ch=1 n=69 v=120
865200 On ch=1 n=49 v=120
865200 On ch=1 n=37 v=120
865350 On ch=1 n=49 v=0
865350 On ch=1 n=37 v=0
865360 On ch=1 n=50 v=120
865360 On ch=1 n=38 v=120
865510 On ch=1 n=50 v=0
865510 On ch=1 n=38 v=0
865520 On ch=1 n=52 v=120
865520 On ch=1 n=40 v=120
865670 On ch=1 n=81 v=0
865670 On ch=1 n=69 v=0
865670 On ch=1 n=52 v=0
865670 On ch=1 n=40 v=0
865680 On ch=1 n=69 v=120
865680 On ch=1 n=57 v=120
865680 On ch=1 n=50 v=120
865680 On ch=1 n=38 v=120
865830 On ch=1 n=50 v=0
865830 On ch=1 n=38 v=0
865840 On ch=1 n=52 v=120
865840 On ch=1 n=40 v=120
865990 On ch=1 n=52 v=0
865990 On ch=1 n=40 v=0
866000 On ch=1 n=54 v=120
866000 On ch=1 n=42 v=120
866150 On ch=1 n=69 v=0
866150 On ch=1 n=57 v=0
866150 On ch=1 n=54 v=0
866150 On ch=1 n=42 v=0
866160 TimeSig 4/4 24 8
866160 On ch=1 n=81 v=120
866160 On ch=1 n=69 v=120
866160 On ch=1 n=51 v=120
866160 On ch=1 n=39 v=120
866310 On ch=1 n=51 v=0
866310 On ch=1 n=39 v=0
866320 On ch=1 n=52 v=120
866320 On ch=1 n=40 v=120
866470 On ch=1 n=52 v=0
866470 On ch=1 n=40 v=0
866480 On ch=1 n=54 v=120
866480 On ch=1 n=42 v=120
866630 On ch=1 n=54 v=0
866630 On ch=1 n=42 v=0
866640 On ch=1 n=55 v=120
866640 On ch=1 n=43 v=120
866790 On ch=1 n=81 v=0
866790 On ch=1 n=69 v=0
866800 On ch=1 n=83 v=120
866800 On ch=1 n=71 v=120
866950 On ch=1 n=83 v=0
866950 On ch=1 n=71 v=0
866960 On ch=1 n=85 v=120
866960 On ch=1 n=73 v=120
867110 On ch=1 n=85 v=0
867110 On ch=1 n=73 v=0
867110 On ch=1 n=55 v=0
867110 On ch=1 n=43 v=0
867120 TimeSig 4/4 24 8
867120 On ch=1 n=86 v=120
867120 On ch=1 n=74 v=120
867120 On ch=1 n=54 v=120
867120 On ch=1 n=42 v=120
867270 On ch=1 n=86 v=0
867270 On ch=1 n=74 v=0
867270 On ch=1 n=54 v=0
867270 On ch=1 n=42 v=0
867280 On ch=1 n=88 v=120
867280 On ch=1 n=76 v=120
867280 On ch=1 n=52 v=120
867280 On ch=1 n=40 v=120
867430 On ch=1 n=88 v=0
867430 On ch=1 n=76 v=0
867430 On ch=1 n=52 v=0
867430 On ch=1 n=40 v=0
867440 On ch=1 n=90 v=120
867440 On ch=1 n=78 v=120
867440 On ch=1 n=50 v=120
867440 On ch=1 n=38 v=120
867590 On ch=1 n=90 v=0
867590 On ch=1 n=78 v=0
867590 On ch=1 n=50 v=0
867590 On ch=1 n=38 v=0
867600 On ch=1 n=93 v=120
867600 On ch=1 n=81 v=120
867600 On ch=1 n=50 v=120
867600 On ch=1 n=38 v=120
867750 On ch=1 n=50 v=0
867750 On ch=1 n=38 v=0
867760 On ch=1 n=52 v=120
867760 On ch=1 n=40 v=120
867830 On ch=1 n=93 v=0
867830 On ch=1 n=81 v=0
867910 On ch=1 n=52 v=0
867910 On ch=1 n=40 v=0
867920 On ch=1 n=54 v=120
867920 On ch=1 n=42 v=120
868070 On ch=1 n=54 v=0
868070 On ch=1 n=42 v=0
868080 TimeSig 4/4 24 8
868080 On ch=1 n=81 v=120
868080 On ch=1 n=69 v=120
868080 On ch=1 n=49 v=120
868080 On ch=1 n=37 v=120
868230 On ch=1 n=49 v=0
868230 On ch=1 n=37 v=0
868240 On ch=1 n=50 v=120
868240 On ch=1 n=38 v=120
868390 On ch=1 n=50 v=0
868390 On ch=1 n=38 v=0
868400 On ch=1 n=52 v=120
868400 On ch=1 n=40 v=120
868550 On ch=1 n=81 v=0
868550 On ch=1 n=69 v=0
868550 On ch=1 n=52 v=0
868550 On ch=1 n=40 v=0
868560 On ch=1 n=69 v=120
868560 On ch=1 n=57 v=120
868560 On ch=1 n=50 v=120
868560 On ch=1 n=38 v=120
868710 On ch=1 n=50 v=0
868710 On ch=1 n=38 v=0
868720 On ch=1 n=52 v=120
868720 On ch=1 n=40 v=120
868870 On ch=1 n=52 v=0
868870 On ch=1 n=40 v=0
868880 On ch=1 n=54 v=120
868880 On ch=1 n=42 v=120
869030 On ch=1 n=69 v=0
869030 On ch=1 n=57 v=0
869030 On ch=1 n=54 v=0
869030 On ch=1 n=42 v=0
869040 TimeSig 4/4 24 8
869040 On ch=1 n=81 v=120
869040 On ch=1 n=69 v=120
869040 On ch=1 n=51 v=120
869040 On ch=1 n=39 v=120
869190 On ch=1 n=51 v=0
869190 On ch=1 n=39 v=0
869200 On ch=1 n=52 v=120
869200 On ch=1 n=40 v=120
869350 On ch=1 n=52 v=0
869350 On ch=1 n=40 v=0
869360 On ch=1 n=54 v=120
869360 On ch=1 n=42 v=120
869510 On ch=1 n=54 v=0
869510 On ch=1 n=42 v=0
869520 On ch=1 n=55 v=120
869520 On ch=1 n=43 v=120
869670 On ch=1 n=81 v=0
869670 On ch=1 n=69 v=0
869680 On ch=1 n=83 v=120
869680 On ch=1 n=71 v=120
869830 On ch=1 n=83 v=0
869830 On ch=1 n=71 v=0
869840 On ch=1 n=85 v=120
869840 On ch=1 n=73 v=120
869990 On ch=1 n=85 v=0
869990 On ch=1 n=73 v=0
869990 On ch=1 n=55 v=0
869990 On ch=1 n=43 v=0
870000 TimeSig 4/4 24 8
870000 On ch=1 n=86 v=120
870000 On ch=1 n=74 v=120
870000 On ch=1 n=54 v=120
870000 On ch=1 n=42 v=120
870150 On ch=1 n=86 v=0
870150 On ch=1 n=74 v=0
870150 On ch=1 n=54 v=0
870150 On ch=1 n=42 v=0
870160 On ch=1 n=88 v=120
870160 On ch=1 n=76 v=120
870160 On ch=1 n=52 v=120
870160 On ch=1 n=40 v=120
870310 On ch=1 n=88 v=0
870310 On ch=1 n=76 v=0
870310 On ch=1 n=52 v=0
870310 On ch=1 n=40 v=0
870320 On ch=1 n=90 v=120
870320 On ch=1 n=78 v=120
870320 On ch=1 n=50 v=120
870320 On ch=1 n=38 v=120
870470 On ch=1 n=90 v=0
870470 On ch=1 n=78 v=0
870470 On ch=1 n=50 v=0
870470 On ch=1 n=38 v=0
870480 On ch=1 n=93 v=120
870480 On ch=1 n=81 v=120
870480 On ch=1 n=50 v=120
870480 On ch=1 n=38 v=120
870630 On ch=1 n=50 v=0
870630 On ch=1 n=38 v=0
870640 On ch=1 n=52 v=120
870640 On ch=1 n=40 v=120
870710 On ch=1 n=93 v=0
870710 On ch=1 n=81 v=0
870790 On ch=1 n=52 v=0
870790 On ch=1 n=40 v=0
870800 On ch=1 n=54 v=120
870800 On ch=1 n=42 v=120
870950 On ch=1 n=54 v=0
870950 On ch=1 n=42 v=0
870960 TimeSig 4/4 24 8
870960 On ch=1 n=81 v=120
870960 On ch=1 n=69 v=120
870960 On ch=1 n=49 v=120
870960 On ch=1 n=37 v=120
871110 On ch=1 n=49 v=0
871110 On ch=1 n=37 v=0
871120 On ch=1 n=50 v=120
871120 On ch=1 n=38 v=120
871270 On ch=1 n=50 v=0
871270 On ch=1 n=38 v=0
871280 On ch=1 n=52 v=120
871280 On ch=1 n=40 v=120
871430 On ch=1 n=81 v=0
871430 On ch=1 n=69 v=0
871430 On ch=1 n=52 v=0
871430 On ch=1 n=40 v=0
871440 On ch=1 n=69 v=120
871440 On ch=1 n=57 v=120
871440 On ch=1 n=50 v=120
871440 On ch=1 n=38 v=120
871590 On ch=1 n=50 v=0
871590 On ch=1 n=38 v=0
871600 On ch=1 n=52 v=120
871600 On ch=1 n=40 v=120
871750 On ch=1 n=52 v=0
871750 On ch=1 n=40 v=0
871760 On ch=1 n=54 v=120
871760 On ch=1 n=42 v=120
871910 On ch=1 n=69 v=0
871910 On ch=1 n=57 v=0
871910 On ch=1 n=54 v=0
871910 On ch=1 n=42 v=0
871920 TimeSig 4/4 24 8
871920 On ch=1 n=81 v=120
871920 On ch=1 n=69 v=120
871920 On ch=1 n=51 v=120
871920 On ch=1 n=39 v=120
872070 On ch=1 n=51 v=0
872070 On ch=1 n=39 v=0
872080 On ch=1 n=52 v=120
872080 On ch=1 n=40 v=120
872230 On ch=1 n=52 v=0
872230 On ch=1 n=40 v=0
872240 On ch=1 n=54 v=120
872240 On ch=1 n=42 v=120
872390 On ch=1 n=54 v=0
872390 On ch=1 n=42 v=0
872400 On ch=1 n=55 v=120
872400 On ch=1 n=43 v=120
872550 On ch=1 n=81 v=0
872550 On ch=1 n=69 v=0
872560 On ch=1 n=83 v=120
872560 On ch=1 n=71 v=120
872710 On ch=1 n=83 v=0
872710 On ch=1 n=71 v=0
872710 On ch=1 n=55 v=0
872710 On ch=1 n=43 v=0
872720 On ch=1 n=85 v=120
872720 On ch=1 n=73 v=120
872720 On ch=1 n=57 v=120
872720 On ch=1 n=45 v=120
872870 On ch=1 n=85 v=0
872870 On ch=1 n=73 v=0
872870 On ch=1 n=57 v=0
872870 On ch=1 n=45 v=0
872880 TimeSig 4/4 24 8
872880 On ch=1 n=86 v=120
872880 On ch=1 n=74 v=120
872880 On ch=1 n=59 v=120
872880 On ch=1 n=47 v=120
873030 On ch=1 n=86 v=0
873030 On ch=1 n=74 v=0
873030 On ch=1 n=59 v=0
873030 On ch=1 n=47 v=0
873040 On ch=1 n=88 v=120
873040 On ch=1 n=76 v=120
873040 On ch=1 n=61 v=120
873040 On ch=1 n=49 v=120
873190 On ch=1 n=88 v=0
873190 On ch=1 n=76 v=0
873190 On ch=1 n=61 v=0
873190 On ch=1 n=49 v=0
873200 On ch=1 n=90 v=120
873200 On ch=1 n=78 v=120
873200 On ch=1 n=62 v=120
873200 On ch=1 n=50 v=120
873350 On ch=1 n=90 v=0
873350 On ch=1 n=78 v=0
873350 On ch=1 n=62 v=0
873350 On ch=1 n=50 v=0
873360 On ch=1 n=91 v=120
873360 On ch=1 n=79 v=120
873360 On ch=1 n=64 v=120
873360 On ch=1 n=52 v=120
873510 On ch=1 n=91 v=0
873510 On ch=1 n=79 v=0
873510 On ch=1 n=64 v=0
873510 On ch=1 n=52 v=0
873520 On ch=1 n=91 v=120
873520 On ch=1 n=79 v=120
873520 On ch=1 n=64 v=120
873520 On ch=1 n=52 v=120
873670 On ch=1 n=91 v=0
873670 On ch=1 n=79 v=0
873670 On ch=1 n=64 v=0
873670 On ch=1 n=52 v=0
873680 On ch=1 n=91 v=120
873680 On ch=1 n=79 v=120
873680 On ch=1 n=64 v=120
873680 On ch=1 n=52 v=120
873830 On ch=1 n=91 v=0
873830 On ch=1 n=79 v=0
873830 On ch=1 n=64 v=0
873830 On ch=1 n=52 v=0
873840 TimeSig 3/4 24 8
873840 Tempo 1111111
873840 On ch=1 n=85 v=120
873840 On ch=1 n=88 v=120
873840 On ch=1 n=91 v=120
873840 On ch=1 n=79 v=120
873840 On ch=1 n=57 v=120
873840 On ch=1 n=45 v=120
873937 Par ch=1 c=64 v=127
874190 On ch=1 n=85 v=0
874190 On ch=1 n=88 v=0
874190 On ch=1 n=91 v=0
874190 On ch=1 n=79 v=0
874190 On ch=1 n=57 v=0
874190 On ch=1 n=45 v=0
874200 On ch=1 n=88 v=120
874200 On ch=1 n=91 v=120
874200 On ch=1 n=79 v=120
874200 On ch=1 n=61 v=120
874200 On ch=1 n=64 v=120
874200 On ch=1 n=67 v=120
874200 On ch=1 n=57 v=120
874310 On ch=1 n=88 v=0
874310 On ch=1 n=91 v=0
874310 On ch=1 n=79 v=0
874310 On ch=1 n=61 v=0
874310 On ch=1 n=64 v=0
874310 On ch=1 n=67 v=0
874310 On ch=1 n=57 v=0
874320 On ch=1 n=88 v=120
874320 On ch=1 n=91 v=120
874320 On ch=1 n=79 v=120
874320 On ch=1 n=61 v=120
874320 On ch=1 n=64 v=120
874320 On ch=1 n=67 v=120
874320 On ch=1 n=57 v=120
874490 On ch=1 n=88 v=0
874490 On ch=1 n=91 v=0
874490 On ch=1 n=79 v=0
874490 On ch=1 n=61 v=0
874490 On ch=1 n=64 v=0
874490 On ch=1 n=67 v=0
874490 On ch=1 n=57 v=0
874500 On ch=1 n=79 v=120
874500 On ch=1 n=88 v=120
874500 On ch=1 n=76 v=120
874500 On ch=1 n=61 v=120
874500 On ch=1 n=64 v=120
874500 On ch=1 n=67 v=120
874500 On ch=1 n=57 v=120
874550 On ch=1 n=79 v=0
874550 On ch=1 n=88 v=0
874550 On ch=1 n=76 v=0
874550 On ch=1 n=61 v=0
874550 On ch=1 n=64 v=0
874550 On ch=1 n=67 v=0
874550 On ch=1 n=57 v=0
874560 On ch=1 n=79 v=120
874560 On ch=1 n=86 v=120
874560 On ch=1 n=74 v=120
874560 On ch=1 n=61 v=120
874560 On ch=1 n=64 v=120
874560 On ch=1 n=67 v=120
874560 On ch=1 n=57 v=120
874634 Par ch=1 c=64 v=0
874730 On ch=1 n=79 v=0
874730 On ch=1 n=86 v=0
874730 On ch=1 n=74 v=0
874730 On ch=1 n=61 v=0
874730 On ch=1 n=64 v=0
874730 On ch=1 n=67 v=0
874730 On ch=1 n=57 v=0
874740 On ch=1 n=79 v=120
874740 On ch=1 n=85 v=120
874740 On ch=1 n=73 v=120
874740 On ch=1 n=61 v=120
874740 On ch=1 n=64 v=120
874740 On ch=1 n=67 v=120
874740 On ch=1 n=57 v=120
874790 On ch=1 n=79 v=0
874790 On ch=1 n=85 v=0
874790 On ch=1 n=73 v=0
874790 On ch=1 n=61 v=0
874790 On ch=1 n=64 v=0
874790 On ch=1 n=67 v=0
874790 On ch=1 n=57 v=0
874800 On ch=1 n=88 v=120
874800 On ch=1 n=85 v=120
874800 On ch=1 n=61 v=120
874800 On ch=1 n=64 v=120
874800 On ch=1 n=67 v=120
874800 On ch=1 n=57 v=120
874800 On ch=1 n=64 v=120
874851 Par ch=1 c=64 v=127
874910 On ch=1 n=61 v=0
874910 On ch=1 n=64 v=0
874910 On ch=1 n=67 v=0
874910 On ch=1 n=57 v=0
874910 On ch=1 n=64 v=0
874920 On ch=1 n=76 v=120
874920 On ch=1 n=73 v=120
875060 On ch=1 n=76 v=0
875060 On ch=1 n=73 v=0
875070 On ch=1 n=74 v=120
875070 On ch=1 n=71 v=120
875090 On ch=1 n=74 v=0
875090 On ch=1 n=71 v=0
875100 On ch=1 n=73 v=120
875100 On ch=1 n=69 v=120
875120 On ch=1 n=73 v=0
875120 On ch=1 n=69 v=0
875130 On ch=1 n=71 v=120
875130 On ch=1 n=67 v=120
875150 On ch=1 n=88 v=0
875150 On ch=1 n=85 v=0
875150 On ch=1 n=71 v=0
875150 On ch=1 n=67 v=0
875160 On ch=1 n=86 v=120
875160 On ch=1 n=90 v=120
875160 On ch=1 n=78 v=120
875160 On ch=1 n=69 v=120
875160 On ch=1 n=66 v=120
875180 On ch=1 n=69 v=0
875180 On ch=1 n=66 v=0
875190 On ch=1 n=67 v=120
875190 On ch=1 n=64 v=120
875210 On ch=1 n=86 v=0
875210 On ch=1 n=90 v=0
875210 On ch=1 n=78 v=0
875210 On ch=1 n=67 v=0
875210 On ch=1 n=64 v=0
875220 On ch=1 n=88 v=120
875220 On ch=1 n=91 v=120
875220 On ch=1 n=79 v=120
875220 On ch=1 n=66 v=120
875220 On ch=1 n=62 v=120
875232 Par ch=1 c=64 v=0
875240 On ch=1 n=66 v=0
875240 On ch=1 n=62 v=0
875250 On ch=1 n=64 v=120
875250 On ch=1 n=61 v=120
875270 On ch=1 n=88 v=0
875270 On ch=1 n=91 v=0
875270 On ch=1 n=79 v=0
875270 On ch=1 n=64 v=0
875270 On ch=1 n=61 v=0
875280 On ch=1 n=86 v=120
875280 On ch=1 n=90 v=120
875280 On ch=1 n=78 v=120
875280 On ch=1 n=62 v=120
875280 On ch=1 n=66 v=120
875280 On ch=1 n=50 v=120
875300 On ch=1 n=62 v=0
875300 On ch=1 n=66 v=0
875300 On ch=1 n=50 v=0
875310 On ch=1 n=64 v=120
875310 On ch=1 n=61 v=120
875330 On ch=1 n=64 v=0
875330 On ch=1 n=61 v=0
875340 On ch=1 n=62 v=120
875340 On ch=1 n=59 v=120
875360 On ch=1 n=62 v=0
875360 On ch=1 n=59 v=0
875370 On ch=1 n=61 v=120
875370 On ch=1 n=57 v=120
875390 On ch=1 n=61 v=0
875390 On ch=1 n=57 v=0
875400 On ch=1 n=59 v=120
875400 On ch=1 n=55 v=120
875420 On ch=1 n=59 v=0
875420 On ch=1 n=55 v=0
875430 On ch=1 n=57 v=120
875430 On ch=1 n=54 v=120
875431 Par ch=1 c=64 v=127
875450 On ch=1 n=86 v=0
875450 On ch=1 n=90 v=0
875450 On ch=1 n=78 v=0
875450 On ch=1 n=57 v=0
875450 On ch=1 n=54 v=0
875460 On ch=1 n=90 v=120
875460 On ch=1 n=86 v=120
875460 On ch=1 n=55 v=120
875460 On ch=1 n=52 v=120
875480 On ch=1 n=55 v=0
875480 On ch=1 n=52 v=0
875490 On ch=1 n=54 v=120
875490 On ch=1 n=50 v=120
875510 On ch=1 n=90 v=0
875510 On ch=1 n=86 v=0
875510 On ch=1 n=54 v=0
875510 On ch=1 n=50 v=0
875514 Par ch=1 c=64 v=0
875520 On ch=1 n=91 v=120
875520 On ch=1 n=83 v=120
875520 On ch=1 n=79 v=120
875520 On ch=1 n=50 v=120
875520 On ch=1 n=55 v=120
875520 On ch=1 n=59 v=120
875520 On ch=1 n=43 v=120
875540 On ch=1 n=83 v=0
875540 On ch=1 n=79 v=0
875550 On ch=1 n=81 v=120
875550 On ch=1 n=78 v=120
875570 On ch=1 n=81 v=0
875570 On ch=1 n=78 v=0
875570 On ch=1 n=50 v=0
875570 On ch=1 n=55 v=0
875570 On ch=1 n=59 v=0
875570 On ch=1 n=43 v=0
875578 Par ch=1 c=64 v=127
875580 On ch=1 n=79 v=120
875580 On ch=1 n=76 v=120
875580 On ch=1 n=67 v=120
875580 On ch=1 n=64 v=120
875600 On ch=1 n=79 v=0
875600 On ch=1 n=76 v=0
875600 On ch=1 n=67 v=0
875600 On ch=1 n=64 v=0
875610 On ch=1 n=78 v=120
875610 On ch=1 n=74 v=120
875610 On ch=1 n=66 v=120
875610 On ch=1 n=62 v=120
875630 On ch=1 n=78 v=0
875630 On ch=1 n=74 v=0
875630 On ch=1 n=66 v=0
875630 On ch=1 n=62 v=0
875640 On ch=1 n=76 v=120
875640 On ch=1 n=73 v=120
875640 On ch=1 n=64 v=120
875640 On ch=1 n=61 v=120
875660 On ch=1 n=76 v=0
875660 On ch=1 n=73 v=0
875660 On ch=1 n=64 v=0
875660 On ch=1 n=61 v=0
875670 On ch=1 n=74 v=120
875670 On ch=1 n=71 v=120
875670 On ch=1 n=62 v=120
875670 On ch=1 n=59 v=120
875690 On ch=1 n=74 v=0
875690 On ch=1 n=71 v=0
875690 On ch=1 n=62 v=0
875690 On ch=1 n=59 v=0
875700 On ch=1 n=73 v=120
875700 On ch=1 n=69 v=120
875700 On ch=1 n=61 v=120
875700 On ch=1 n=57 v=120
875720 On ch=1 n=73 v=0
875720 On ch=1 n=69 v=0
875720 On ch=1 n=61 v=0
875720 On ch=1 n=57 v=0
875728 Par ch=1 c=64 v=0
875730 On ch=1 n=71 v=120
875730 On ch=1 n=67 v=120
875730 On ch=1 n=59 v=120
875730 On ch=1 n=55 v=120
875750 On ch=1 n=91 v=0
875750 On ch=1 n=71 v=0
875750 On ch=1 n=67 v=0
875750 On ch=1 n=59 v=0
875750 On ch=1 n=55 v=0
875760 On ch=1 n=76 v=120
875760 On ch=1 n=79 v=120
875760 On ch=1 n=67 v=120
875760 On ch=1 n=45 v=120
875760 On ch=1 n=33 v=120
875780 On ch=1 n=76 v=0
875780 On ch=1 n=79 v=0
875780 On ch=1 n=67 v=0
875790 On ch=1 n=78 v=120
875790 On ch=1 n=74 v=120
875810 On ch=1 n=78 v=0
875810 On ch=1 n=74 v=0
875810 On ch=1 n=45 v=0
875810 On ch=1 n=33 v=0
875819 Par ch=1 c=64 v=127
875820 On ch=1 n=76 v=120
875820 On ch=1 n=73 v=120
875820 On ch=1 n=64 v=120
875820 On ch=1 n=61 v=120
875840 On ch=1 n=76 v=0
875840 On ch=1 n=73 v=0
875840 On ch=1 n=64 v=0
875840 On ch=1 n=61 v=0
875850 On ch=1 n=74 v=120
875850 On ch=1 n=71 v=120
875850 On ch=1 n=62 v=120
875850 On ch=1 n=59 v=120
875870 On ch=1 n=74 v=0
875870 On ch=1 n=71 v=0
875870 On ch=1 n=62 v=0
875870 On ch=1 n=59 v=0
875880 On ch=1 n=88 v=120
875880 On ch=1 n=73 v=120
875880 On ch=1 n=76 v=120
875880 On ch=1 n=69 v=120
875880 On ch=1 n=61 v=120
875880 On ch=1 n=64 v=120
875880 On ch=1 n=57 v=120
875900 On ch=1 n=73 v=0
875900 On ch=1 n=76 v=0
875900 On ch=1 n=69 v=0
875900 On ch=1 n=61 v=0
875900 On ch=1 n=64 v=0
875900 On ch=1 n=57 v=0
875910 On ch=1 n=71 v=120
875910 On ch=1 n=67 v=120
875910 On ch=1 n=59 v=120
875910 On ch=1 n=55 v=120
875930 On ch=1 n=71 v=0
875930 On ch=1 n=67 v=0
875930 On ch=1 n=59 v=0
875930 On ch=1 n=55 v=0
875940 On ch=1 n=69 v=120
875940 On ch=1 n=66 v=120
875940 On ch=1 n=57 v=120
875940 On ch=1 n=54 v=120
875960 On ch=1 n=69 v=0
875960 On ch=1 n=66 v=0
875960 On ch=1 n=57 v=0
875960 On ch=1 n=54 v=0
875970 On ch=1 n=67 v=120
875970 On ch=1 n=64 v=120
875970 On ch=1 n=55 v=120
875970 On ch=1 n=52 v=120
875971 Par ch=1 c=64 v=0
875990 On ch=1 n=88 v=0
875990 On ch=1 n=67 v=0
875990 On ch=1 n=64 v=0
875990 On ch=1 n=55 v=0
875990 On ch=1 n=52 v=0
876000 On ch=1 n=81 v=120
876000 On ch=1 n=69 v=120
876000 On ch=1 n=55 v=120
876000 On ch=1 n=52 v=120
876020 On ch=1 n=55 v=0
876020 On ch=1 n=52 v=0
876030 On ch=1 n=54 v=120
876030 On ch=1 n=50 v=120
876050 On ch=1 n=54 v=0
876050 On ch=1 n=50 v=0
876059 Par ch=1 c=64 v=127
876060 On ch=1 n=55 v=120
876060 On ch=1 n=52 v=120
876080 On ch=1 n=55 v=0
876080 On ch=1 n=52 v=0
876090 On ch=1 n=57 v=120
876090 On ch=1 n=54 v=120
876110 On ch=1 n=57 v=0
876110 On ch=1 n=54 v=0
876119 Par ch=1 c=64 v=0
876120 On ch=1 n=59 v=120
876120 On ch=1 n=55 v=120
876140 On ch=1 n=59 v=0
876140 On ch=1 n=55 v=0
876150 On ch=1 n=57 v=120
876150 On ch=1 n=54 v=120
876170 On ch=1 n=81 v=0
876170 On ch=1 n=69 v=0
876170 On ch=1 n=57 v=0
876170 On ch=1 n=54 v=0
876180 On ch=1 n=81 v=120
876180 On ch=1 n=69 v=120
876180 On ch=1 n=59 v=120
876180 On ch=1 n=55 v=120
876200 On ch=1 n=59 v=0
876200 On ch=1 n=55 v=0
876210 On ch=1 n=61 v=120
876210 On ch=1 n=52 v=120
876230 On ch=1 n=81 v=0
876230 On ch=1 n=69 v=0
876230 On ch=1 n=61 v=0
876230 On ch=1 n=52 v=0
876240 On ch=1 n=81 v=120
876240 On ch=1 n=69 v=120
876240 On ch=1 n=62 v=120
876240 On ch=1 n=50 v=120
876260 On ch=1 n=62 v=0
876260 On ch=1 n=50 v=0
876270 On ch=1 n=61 v=120
876270 On ch=1 n=49 v=120
876290 On ch=1 n=61 v=0
876290 On ch=1 n=49 v=0
876300 On ch=1 n=62 v=120
876300 On ch=1 n=50 v=120
876320 On ch=1 n=62 v=0
876320 On ch=1 n=50 v=0
876330 On ch=1 n=64 v=120
876330 On ch=1 n=52 v=120
876350 On ch=1 n=81 v=0
876350 On ch=1 n=69 v=0
876350 On ch=1 n=64 v=0
876350 On ch=1 n=52 v=0
876360 On ch=1 n=74 v=120
876360 On ch=1 n=62 v=120
876360 On ch=1 n=66 v=120
876360 On ch=1 n=54 v=120
876380 On ch=1 n=66 v=0
876380 On ch=1 n=54 v=0
876390 On ch=1 n=64 v=120
876390 On ch=1 n=52 v=120
876410 On ch=1 n=64 v=0
876410 On ch=1 n=52 v=0
876420 On ch=1 n=66 v=120
876420 On ch=1 n=54 v=120
876440 On ch=1 n=66 v=0
876440 On ch=1 n=54 v=0
876450 On ch=1 n=62 v=120
876450 On ch=1 n=50 v=120
876470 On ch=1 n=74 v=0
876470 On ch=1 n=62 v=0
876470 On ch=1 n=62 v=0
876470 On ch=1 n=50 v=0
876480 On ch=1 n=81 v=120
876480 On ch=1 n=69 v=120
876480 On ch=1 n=61 v=120
876480 On ch=1 n=49 v=120
876500 On ch=1 n=61 v=0
876500 On ch=1 n=49 v=0
876510 On ch=1 n=62 v=120
876510 On ch=1 n=50 v=120
876530 On ch=1 n=62 v=0
876530 On ch=1 n=50 v=0
876540 On ch=1 n=64 v=120
876540 On ch=1 n=52 v=120
876560 On ch=1 n=64 v=0
876560 On ch=1 n=52 v=0
876570 On ch=1 n=57 v=120
876570 On ch=1 n=45 v=120
876590 On ch=1 n=57 v=0
876590 On ch=1 n=45 v=0
876600 On ch=1 n=59 v=120
876600 On ch=1 n=47 v=120
876620 On ch=1 n=59 v=0
876620 On ch=1 n=47 v=0
876630 On ch=1 n=57 v=120
876630 On ch=1 n=45 v=120
876650 On ch=1 n=81 v=0
876650 On ch=1 n=69 v=0
876650 On ch=1 n=57 v=0
876650 On ch=1 n=45 v=0
876660 On ch=1 n=81 v=120
876660 On ch=1 n=69 v=120
876660 On ch=1 n=59 v=120
876660 On ch=1 n=47 v=120
876680 On ch=1 n=59 v=0
876680 On ch=1 n=47 v=0
876690 On ch=1 n=61 v=120
876690 On ch=1 n=49 v=120
876710 On ch=1 n=81 v=0
876710 On ch=1 n=69 v=0
876710 On ch=1 n=61 v=0
876710 On ch=1 n=49 v=0
876720 TimeSig 4/4 24 8
876720 Tempo 250000
876720 On ch=1 n=81 v=120
876720 On ch=1 n=69 v=120
876720 On ch=1 n=62 v=120
876720 On ch=1 n=50 v=120
876950 On ch=1 n=81 v=0
876950 On ch=1 n=69 v=0
876960 On ch=1 n=86 v=120
876960 On ch=1 n=90 v=120
876960 On ch=1 n=78 v=120
877190 On ch=1 n=86 v=0
877190 On ch=1 n=90 v=0
877190 On ch=1 n=78 v=0
877200 On ch=1 n=88 v=120
877200 On ch=1 n=91 v=120
877200 On ch=1 n=79 v=120
877430 On ch=1 n=88 v=0
877430 On ch=1 n=91 v=0
877430 On ch=1 n=62 v=0
877430 On ch=1 n=50 v=0
877430 On ch=1 n=79 v=0
877440 On ch=1 n=90 v=120
877440 On ch=1 n=93 v=120
877440 On ch=1 n=81 v=120
877440 On ch=1 n=57 v=120
877440 On ch=1 n=45 v=120
877670 On ch=1 n=90 v=0
877670 On ch=1 n=93 v=0
877670 On ch=1 n=81 v=0
877670 On ch=1 n=57 v=0
877670 On ch=1 n=45 v=0
877680 TimeSig 4/4 24 8
877680 On ch=1 n=90 v=120
877680 On ch=1 n=93 v=120
877680 On ch=1 n=81 v=120
877680 On ch=1 n=50 v=120
877680 On ch=1 n=38 v=120
877910 On ch=1 n=90 v=0
877910 On ch=1 n=93 v=0
877910 On ch=1 n=81 v=0
877920 On ch=1 n=88 v=120
877920 On ch=1 n=91 v=120
877920 On ch=1 n=79 v=120
878150 On ch=1 n=88 v=0
878150 On ch=1 n=91 v=0
878150 On ch=1 n=79 v=0
878160 On ch=1 n=86 v=120
878160 On ch=1 n=90 v=120
878160 On ch=1 n=78 v=120
878390 On ch=1 n=86 v=0
878390 On ch=1 n=90 v=0
878390 On ch=1 n=78 v=0
878390 On ch=1 n=50 v=0
878390 On ch=1 n=38 v=0
878400 On ch=1 n=85 v=120
878400 On ch=1 n=88 v=120
878400 On ch=1 n=76 v=120
878400 On ch=1 n=45 v=120
878400 On ch=1 n=33 v=120
878630 On ch=1 n=85 v=0
878630 On ch=1 n=88 v=0
878630 On ch=1 n=76 v=0
878630 On ch=1 n=45 v=0
878630 On ch=1 n=33 v=0
878640 TimeSig 4/4 24 8
878640 On ch=1 n=86 v=120
878640 On ch=1 n=90 v=120
878640 On ch=1 n=78 v=120
878640 On ch=1 n=50 v=120
878640 On ch=1 n=38 v=120
878870 On ch=1 n=86 v=0
878870 On ch=1 n=90 v=0
878870 On ch=1 n=78 v=0
878880 On ch=1 n=86 v=120
878880 On ch=1 n=90 v=120
878880 On ch=1 n=78 v=120
879110 On ch=1 n=86 v=0
879110 On ch=1 n=90 v=0
879110 On ch=1 n=78 v=0
879120 On ch=1 n=88 v=120
879120 On ch=1 n=91 v=120
879120 On ch=1 n=79 v=120
879350 On ch=1 n=88 v=0
879350 On ch=1 n=91 v=0
879350 On ch=1 n=79 v=0
879350 On ch=1 n=50 v=0
879350 On ch=1 n=38 v=0
879360 On ch=1 n=90 v=120
879360 On ch=1 n=93 v=120
879360 On ch=1 n=81 v=120
879360 On ch=1 n=57 v=120
879360 On ch=1 n=45 v=120
879590 On ch=1 n=90 v=0
879590 On ch=1 n=93 v=0
879590 On ch=1 n=81 v=0
879590 On ch=1 n=57 v=0
879590 On ch=1 n=45 v=0
879600 TimeSig 4/4 24 8
879600 On ch=1 n=90 v=120
879600 On ch=1 n=93 v=120
879600 On ch=1 n=81 v=120
879600 On ch=1 n=62 v=120
879600 On ch=1 n=50 v=120
879830 On ch=1 n=90 v=0
879830 On ch=1 n=93 v=0
879830 On ch=1 n=81 v=0
879840 On ch=1 n=88 v=120
879840 On ch=1 n=91 v=120
879840 On ch=1 n=79 v=120
880070 On ch=1 n=88 v=0
880070 On ch=1 n=91 v=0
880070 On ch=1 n=79 v=0
880080 On ch=1 n=86 v=120
880080 On ch=1 n=90 v=120
880080 On ch=1 n=78 v=120
880310 On ch=1 n=86 v=0
880310 On ch=1 n=90 v=0
880310 On ch=1 n=78 v=0
880310 On ch=1 n=62 v=0
880310 On ch=1 n=50 v=0
880320 On ch=1 n=85 v=120
880320 On ch=1 n=88 v=120
880320 On ch=1 n=76 v=120
880320 On ch=1 n=57 v=120
880320 On ch=1 n=45 v=120
880550 On ch=1 n=85 v=0
880550 On ch=1 n=88 v=0
880550 On ch=1 n=76 v=0
880550 On ch=1 n=57 v=0
880550 On ch=1 n=45 v=0
880560 TimeSig 4/4 24 8
880560 On ch=1 n=86 v=120
880560 On ch=1 n=90 v=120
880560 On ch=1 n=78 v=120
880560 On ch=1 n=50 v=120
880560 On ch=1 n=38 v=120
880790 On ch=1 n=86 v=0
880790 On ch=1 n=90 v=0
880790 On ch=1 n=78 v=0
880790 On ch=1 n=50 v=0
880790 On ch=1 n=38 v=0
880800 On ch=1 n=85 v=120
880800 On ch=1 n=88 v=120
880800 On ch=1 n=76 v=120
880800 On ch=1 n=45 v=120
880800 On ch=1 n=33 v=120
881030 On ch=1 n=85 v=0
881030 On ch=1 n=88 v=0
881030 On ch=1 n=76 v=0
881030 On ch=1 n=45 v=0
881030 On ch=1 n=33 v=0
881040 On ch=1 n=86 v=120
881040 On ch=1 n=90 v=120
881040 On ch=1 n=78 v=120
881040 On ch=1 n=50 v=120
881040 On ch=1 n=38 v=120
881270 On ch=1 n=86 v=0
881270 On ch=1 n=90 v=0
881270 On ch=1 n=78 v=0
881270 On ch=1 n=50 v=0
881270 On ch=1 n=38 v=0
881280 On ch=1 n=76 v=120
881280 On ch=1 n=85 v=120
881280 On ch=1 n=73 v=120
881280 On ch=1 n=45 v=120
881280 On ch=1 n=33 v=120
881510 On ch=1 n=76 v=0
881510 On ch=1 n=85 v=0
881510 On ch=1 n=73 v=0
881510 On ch=1 n=45 v=0
881510 On ch=1 n=33 v=0
881520 TimeSig 4/4 24 8
881520 On ch=1 n=78 v=120
881520 On ch=1 n=86 v=120
881520 On ch=1 n=74 v=120
881520 On ch=1 n=50 v=120
881520 On ch=1 n=38 v=120
881750 On ch=1 n=78 v=0
881750 On ch=1 n=86 v=0
881750 On ch=1 n=74 v=0
881750 On ch=1 n=50 v=0
881750 On ch=1 n=38 v=0
881760 On ch=1 n=76 v=120
881760 On ch=1 n=85 v=120
881760 On ch=1 n=73 v=120
881760 On ch=1 n=45 v=120
881760 On ch=1 n=33 v=120
881990 On ch=1 n=76 v=0
881990 On ch=1 n=85 v=0
881990 On ch=1 n=73 v=0
881990 On ch=1 n=45 v=0
881990 On ch=1 n=33 v=0
882000 On ch=1 n=78 v=120
882000 On ch=1 n=86 v=120
882000 On ch=1 n=74 v=120
882000 On ch=1 n=50 v=120
882000 On ch=1 n=38 v=120
882230 On ch=1 n=78 v=0
882230 On ch=1 n=86 v=0
882230 On ch=1 n=74 v=0
882230 On ch=1 n=50 v=0
882230 On ch=1 n=38 v=0
882240 On ch=1 n=85 v=120
882240 On ch=1 n=88 v=120
882240 On ch=1 n=76 v=120
882240 On ch=1 n=57 v=120
882240 On ch=1 n=45 v=120
882470 On ch=1 n=85 v=0
882470 On ch=1 n=88 v=0
882470 On ch=1 n=76 v=0
882470 On ch=1 n=57 v=0
882470 On ch=1 n=45 v=0
882480 TimeSig 4/4 24 8
882480 On ch=1 n=86 v=120
882480 On ch=1 n=90 v=120
882480 On ch=1 n=78 v=120
882480 On ch=1 n=62 v=120
882480 On ch=1 n=50 v=120
882710 On ch=1 n=86 v=0
882710 On ch=1 n=90 v=0
882710 On ch=1 n=78 v=0
882710 On ch=1 n=62 v=0
882710 On ch=1 n=50 v=0
882720 On ch=1 n=85 v=120
882720 On ch=1 n=88 v=120
882720 On ch=1 n=76 v=120
882720 On ch=1 n=57 v=120
882720 On ch=1 n=45 v=120
882950 On ch=1 n=85 v=0
882950 On ch=1 n=88 v=0
882950 On ch=1 n=76 v=0
882950 On ch=1 n=57 v=0
882950 On ch=1 n=45 v=0
882960 On ch=1 n=86 v=120
882960 On ch=1 n=90 v=120
882960 On ch=1 n=78 v=120
882960 On ch=1 n=62 v=120
882960 On ch=1 n=50 v=120
883190 On ch=1 n=86 v=0
883190 On ch=1 n=90 v=0
883190 On ch=1 n=78 v=0
883190 On ch=1 n=62 v=0
883190 On ch=1 n=50 v=0
883200 On ch=1 n=88 v=120
883200 On ch=1 n=91 v=120
883200 On ch=1 n=79 v=120
883200 On ch=1 n=57 v=120
883200 On ch=1 n=45 v=120
883430 On ch=1 n=88 v=0
883430 On ch=1 n=91 v=0
883430 On ch=1 n=79 v=0
883430 On ch=1 n=57 v=0
883430 On ch=1 n=45 v=0
883440 TimeSig 4/4 24 8
883440 On ch=1 n=88 v=120
883440 On ch=1 n=91 v=120
883440 On ch=1 n=79 v=120
883440 On ch=1 n=62 v=120
883440 On ch=1 n=50 v=120
883670 On ch=1 n=88 v=0
883670 On ch=1 n=91 v=0
883670 On ch=1 n=79 v=0
883670 On ch=1 n=62 v=0
883670 On ch=1 n=50 v=0
883680 On ch=1 n=86 v=120
883680 On ch=1 n=90 v=120
883680 On ch=1 n=78 v=120
883680 On ch=1 n=62 v=120
883680 On ch=1 n=50 v=120
883910 On ch=1 n=86 v=0
883910 On ch=1 n=90 v=0
883910 On ch=1 n=78 v=0
883910 On ch=1 n=62 v=0
883910 On ch=1 n=50 v=0
883920 On ch=1 n=88 v=120
883920 On ch=1 n=91 v=120
883920 On ch=1 n=79 v=120
883920 On ch=1 n=62 v=120
883920 On ch=1 n=50 v=120
884150 On ch=1 n=88 v=0
884150 On ch=1 n=91 v=0
884150 On ch=1 n=79 v=0
884150 On ch=1 n=62 v=0
884150 On ch=1 n=50 v=0
884160 On ch=1 n=90 v=120
884160 On ch=1 n=93 v=120
884160 On ch=1 n=81 v=120
884160 On ch=1 n=62 v=120
884160 On ch=1 n=50 v=120
884390 On ch=1 n=90 v=0
884390 On ch=1 n=93 v=0
884390 On ch=1 n=81 v=0
884390 On ch=1 n=62 v=0
884390 On ch=1 n=50 v=0
884400 TimeSig 4/4 24 8
884400 On ch=1 n=86 v=120
884400 On ch=1 n=90 v=120
884400 On ch=1 n=93 v=120
884400 On ch=1 n=81 v=120
884630 On ch=1 n=86 v=0
884630 On ch=1 n=90 v=0
884630 On ch=1 n=93 v=0
884630 On ch=1 n=81 v=0
884640 On ch=1 n=62 v=120
884640 On ch=1 n=66 v=120
884640 On ch=1 n=69 v=120
884640 On ch=1 n=57 v=120
884870 On ch=1 n=62 v=0
884870 On ch=1 n=66 v=0
884870 On ch=1 n=69 v=0
884870 On ch=1 n=57 v=0
884880 On ch=1 n=74 v=120
884880 On ch=1 n=78 v=120
884880 On ch=1 n=81 v=120
884880 On ch=1 n=69 v=120
885110 On ch=1 n=74 v=0
885110 On ch=1 n=78 v=0
885110 On ch=1 n=81 v=0
885110 On ch=1 n=69 v=0
885120 On ch=1 n=42 v=120
885120 On ch=1 n=45 v=120
885120 On ch=1 n=50 v=120
885120 On ch=1 n=38 v=120
885350 On ch=1 n=42 v=0
885350 On ch=1 n=45 v=0
885350 On ch=1 n=50 v=0
885350 On ch=1 n=38 v=0
885360 TimeSig 4/4 24 8
885360 On ch=1 n=86 v=120
885360 On ch=1 n=90 v=120
885360 On ch=1 n=93 v=120
885360 On ch=1 n=81 v=120
885590 On ch=1 n=86 v=0
885590 On ch=1 n=90 v=0
885590 On ch=1 n=93 v=0
885590 On ch=1 n=81 v=0
885600 On ch=1 n=62 v=120
885600 On ch=1 n=66 v=120
885600 On ch=1 n=69 v=120
885600 On ch=1 n=57 v=120
885830 On ch=1 n=62 v=0
885830 On ch=1 n=66 v=0
885830 On ch=1 n=69 v=0
885830 On ch=1 n=57 v=0
885840 On ch=1 n=74 v=120
885840 On ch=1 n=78 v=120
885840 On ch=1 n=81 v=120
885840 On ch=1 n=69 v=120
886070 On ch=1 n=74 v=0
886070 On ch=1 n=78 v=0
886070 On ch=1 n=81 v=0
886070 On ch=1 n=69 v=0
886080 On ch=1 n=42 v=120
886080 On ch=1 n=45 v=120
886080 On ch=1 n=50 v=120
886080 On ch=1 n=38 v=120
886310 On ch=1 n=42 v=0
886310 On ch=1 n=45 v=0
886310 On ch=1 n=50 v=0
886310 On ch=1 n=38 v=0
886320 TimeSig 4/4 24 8
886320 On ch=1 n=86 v=120
886320 On ch=1 n=90 v=120
886320 On ch=1 n=93 v=120
886320 On ch=1 n=81 v=120
886550 On ch=1 n=86 v=0
886550 On ch=1 n=90 v=0
886550 On ch=1 n=93 v=0
886550 On ch=1 n=81 v=0
886560 On ch=1 n=62 v=120
886560 On ch=1 n=66 v=120
886560 On ch=1 n=69 v=120
886560 On ch=1 n=57 v=120
886790 On ch=1 n=62 v=0
886790 On ch=1 n=66 v=0
886790 On ch=1 n=69 v=0
886790 On ch=1 n=57 v=0
886800 On ch=1 n=74 v=120
886800 On ch=1 n=78 v=120
886800 On ch=1 n=81 v=120
886800 On ch=1 n=69 v=120
887030 On ch=1 n=74 v=0
887030 On ch=1 n=78 v=0
887030 On ch=1 n=81 v=0
887030 On ch=1 n=69 v=0
887040 On ch=1 n=42 v=120
887040 On ch=1 n=45 v=120
887040 On ch=1 n=50 v=120
887040 On ch=1 n=38 v=120
887270 On ch=1 n=42 v=0
887270 On ch=1 n=45 v=0
887270 On ch=1 n=50 v=0
887270 On ch=1 n=38 v=0
887280 TimeSig 4/4 24 8
887280 On ch=1 n=86 v=120
887280 On ch=1 n=90 v=120
887280 On ch=1 n=93 v=120
887280 On ch=1 n=81 v=120
887510 On ch=1 n=86 v=0
887510 On ch=1 n=90 v=0
887510 On ch=1 n=93 v=0
887510 On ch=1 n=81 v=0
887520 On ch=1 n=62 v=120
887520 On ch=1 n=66 v=120
887520 On ch=1 n=69 v=120
887520 On ch=1 n=57 v=120
887750 On ch=1 n=62 v=0
887750 On ch=1 n=66 v=0
887750 On ch=1 n=69 v=0
887750 On ch=1 n=57 v=0
887760 On ch=1 n=74 v=120
887760 On ch=1 n=78 v=120
887760 On ch=1 n=81 v=120
887760 On ch=1 n=69 v=120
887990 On ch=1 n=74 v=0
887990 On ch=1 n=78 v=0
887990 On ch=1 n=81 v=0
887990 On ch=1 n=69 v=0
888000 On ch=1 n=42 v=120
888000 On ch=1 n=45 v=120
888000 On ch=1 n=50 v=120
888000 On ch=1 n=38 v=120
888230 On ch=1 n=42 v=0
888230 On ch=1 n=45 v=0
888230 On ch=1 n=50 v=0
888230 On ch=1 n=38 v=0
888240 TimeSig 4/4 24 8
888240 On ch=1 n=93 v=120
888240 On ch=1 n=81 v=120
888240 On ch=1 n=50 v=120
888240 On ch=1 n=38 v=120
888470 On ch=1 n=93 v=0
888470 On ch=1 n=81 v=0
888470 On ch=1 n=50 v=0
888470 On ch=1 n=38 v=0
888480 On ch=1 n=90 v=120
888480 On ch=1 n=86 v=120
888480 On ch=1 n=57 v=120
888480 On ch=1 n=54 v=120
888590 On ch=1 n=90 v=0
888590 On ch=1 n=86 v=0
888590 On ch=1 n=57 v=0
888590 On ch=1 n=54 v=0
888720 On ch=1 n=81 v=120
888720 On ch=1 n=69 v=120
888720 On ch=1 n=50 v=120
888720 On ch=1 n=38 v=120
888950 On ch=1 n=81 v=0
888950 On ch=1 n=69 v=0
888950 On ch=1 n=50 v=0
888950 On ch=1 n=38 v=0
888960 On ch=1 n=78 v=120
888960 On ch=1 n=74 v=120
888960 On ch=1 n=57 v=120
888960 On ch=1 n=54 v=120
889070 On ch=1 n=78 v=0
889070 On ch=1 n=74 v=0
889070 On ch=1 n=57 v=0
889070 On ch=1 n=54 v=0
889200 TimeSig 4/4 24 8
889200 On ch=1 n=69 v=120
889200 On ch=1 n=57 v=120
889200 On ch=1 n=50 v=120
889200 On ch=1 n=38 v=120
889430 On ch=1 n=69 v=0
889430 On ch=1 n=57 v=0
889430 On ch=1 n=50 v=0
889430 On ch=1 n=38 v=0
889440 On ch=1 n=66 v=120
889440 On ch=1 n=62 v=120
889440 On ch=1 n=57 v=120
889440 On ch=1 n=54 v=120
889550 On ch=1 n=66 v=0
889550 On ch=1 n=62 v=0
889550 On ch=1 n=57 v=0
889550 On ch=1 n=54 v=0
889680 On ch=1 n=81 v=120
889680 On ch=1 n=69 v=120
889680 On ch=1 n=50 v=120
889680 On ch=1 n=38 v=120
889910 On ch=1 n=81 v=0
889910 On ch=1 n=69 v=0
889910 On ch=1 n=50 v=0
889910 On ch=1 n=38 v=0
889920 On ch=1 n=78 v=120
889920 On ch=1 n=74 v=120
889920 On ch=1 n=57 v=120
889920 On ch=1 n=54 v=120
890030 On ch=1 n=78 v=0
890030 On ch=1 n=74 v=0
890030 On ch=1 n=57 v=0
890030 On ch=1 n=54 v=0
890160 TimeSig 4/4 24 8
890160 On ch=1 n=93 v=120
890160 On ch=1 n=81 v=120
890160 On ch=1 n=50 v=120
890160 On ch=1 n=38 v=120
890390 On ch=1 n=93 v=0
890390 On ch=1 n=81 v=0
890390 On ch=1 n=50 v=0
890390 On ch=1 n=38 v=0
890400 On ch=1 n=90 v=120
890400 On ch=1 n=86 v=120
890400 On ch=1 n=57 v=120
890400 On ch=1 n=54 v=120
890510 On ch=1 n=90 v=0
890510 On ch=1 n=86 v=0
890510 On ch=1 n=57 v=0
890510 On ch=1 n=54 v=0
890640 On ch=1 n=81 v=120
890640 On ch=1 n=69 v=120
890640 On ch=1 n=50 v=120
890640 On ch=1 n=38 v=120
890870 On ch=1 n=81 v=0
890870 On ch=1 n=69 v=0
890870 On ch=1 n=50 v=0
890870 On ch=1 n=38 v=0
890880 On ch=1 n=78 v=120
890880 On ch=1 n=74 v=120
890880 On ch=1 n=57 v=120
890880 On ch=1 n=54 v=120
890990 On ch=1 n=78 v=0
890990 On ch=1 n=74 v=0
890990 On ch=1 n=57 v=0
890990 On ch=1 n=54 v=0
891120 TimeSig 4/4 24 8
891120 On ch=1 n=69 v=120
891120 On ch=1 n=57 v=120
891120 On ch=1 n=50 v=120
891120 On ch=1 n=38 v=120
891350 On ch=1 n=69 v=0
891350 On ch=1 n=57 v=0
891350 On ch=1 n=50 v=0
891350 On ch=1 n=38 v=0
891360 On ch=1 n=66 v=120
891360 On ch=1 n=62 v=120
891360 On ch=1 n=57 v=120
891360 On ch=1 n=54 v=120
891470 On ch=1 n=66 v=0
891470 On ch=1 n=62 v=0
891470 On ch=1 n=57 v=0
891470 On ch=1 n=54 v=0
891600 On ch=1 n=81 v=120
891600 On ch=1 n=69 v=120
891600 On ch=1 n=50 v=120
891600 On ch=1 n=38 v=120
891830 On ch=1 n=81 v=0
891830 On ch=1 n=69 v=0
891830 On ch=1 n=50 v=0
891830 On ch=1 n=38 v=0
891840 On ch=1 n=78 v=120
891840 On ch=1 n=74 v=120
891840 On ch=1 n=57 v=120
891840 On ch=1 n=54 v=120
891950 On ch=1 n=78 v=0
891950 On ch=1 n=74 v=0
891950 On ch=1 n=57 v=0
891950 On ch=1 n=54 v=0
892080 TimeSig 4/4 24 8
892080 On ch=1 n=69 v=120
892080 On ch=1 n=57 v=120
892080 On ch=1 n=45 v=120
892230 On ch=1 n=69 v=0
892230 On ch=1 n=57 v=0
892230 On ch=1 n=45 v=0
892240 On ch=1 n=71 v=120
892240 On ch=1 n=59 v=120
892240 On ch=1 n=47 v=120
892390 On ch=1 n=71 v=0
892390 On ch=1 n=59 v=0
892390 On ch=1 n=47 v=0
892400 On ch=1 n=73 v=120
892400 On ch=1 n=61 v=120
892400 On ch=1 n=49 v=120
892550 On ch=1 n=73 v=0
892550 On ch=1 n=61 v=0
892550 On ch=1 n=49 v=0
892560 On ch=1 n=74 v=120
892560 On ch=1 n=62 v=120
892560 On ch=1 n=50 v=120
892560 On ch=1 n=38 v=120
892710 On ch=1 n=74 v=0
892710 On ch=1 n=62 v=0
892710 On ch=1 n=50 v=0
892710 On ch=1 n=38 v=0
892720 On ch=1 n=76 v=120
892720 On ch=1 n=64 v=120
892720 On ch=1 n=52 v=120
892720 On ch=1 n=40 v=120
892870 On ch=1 n=76 v=0
892870 On ch=1 n=64 v=0
892870 On ch=1 n=52 v=0
892870 On ch=1 n=40 v=0
892880 On ch=1 n=78 v=120
892880 On ch=1 n=66 v=120
892880 On ch=1 n=54 v=120
892880 On ch=1 n=42 v=120
893030 On ch=1 n=78 v=0
893030 On ch=1 n=66 v=0
893030 On ch=1 n=54 v=0
893030 On ch=1 n=42 v=0
893040 TimeSig 4/4 24 8
893040 On ch=1 n=79 v=120
893040 On ch=1 n=67 v=120
893040 On ch=1 n=55 v=120
893040 On ch=1 n=43 v=120
893190 On ch=1 n=79 v=0
893190 On ch=1 n=67 v=0
893190 On ch=1 n=55 v=0
893190 On ch=1 n=43 v=0
893200 On ch=1 n=78 v=120
893200 On ch=1 n=66 v=120
893200 On ch=1 n=54 v=120
893200 On ch=1 n=42 v=120
893350 On ch=1 n=78 v=0
893350 On ch=1 n=66 v=0
893350 On ch=1 n=54 v=0
893350 On ch=1 n=42 v=0
893360 On ch=1 n=79 v=120
893360 On ch=1 n=67 v=120
893360 On ch=1 n=55 v=120
893360 On ch=1 n=43 v=120
893510 On ch=1 n=79 v=0
893510 On ch=1 n=67 v=0
893510 On ch=1 n=55 v=0
893510 On ch=1 n=43 v=0
893520 On ch=1 n=81 v=120
893520 On ch=1 n=69 v=120
893520 On ch=1 n=57 v=120
893520 On ch=1 n=45 v=120
893670 On ch=1 n=81 v=0
893670 On ch=1 n=69 v=0
893670 On ch=1 n=57 v=0
893670 On ch=1 n=45 v=0
893680 On ch=1 n=83 v=120
893680 On ch=1 n=71 v=120
893680 On ch=1 n=59 v=120
893680 On ch=1 n=47 v=120
893830 On ch=1 n=83 v=0
893830 On ch=1 n=71 v=0
893830 On ch=1 n=59 v=0
893830 On ch=1 n=47 v=0
893840 On ch=1 n=85 v=120
893840 On ch=1 n=73 v=120
893840 On ch=1 n=61 v=120
893840 On ch=1 n=49 v=120
893990 On ch=1 n=85 v=0
893990 On ch=1 n=73 v=0
893990 On ch=1 n=61 v=0
893990 On ch=1 n=49 v=0
894000 TimeSig 4/4 24 8
894000 On ch=1 n=86 v=120
894000 On ch=1 n=74 v=120
894000 On ch=1 n=62 v=120
894000 On ch=1 n=50 v=120
894150 On ch=1 n=86 v=0
894150 On ch=1 n=74 v=0
894150 On ch=1 n=62 v=0
894150 On ch=1 n=50 v=0
894160 On ch=1 n=85 v=120
894160 On ch=1 n=73 v=120
894160 On ch=1 n=61 v=120
894160 On ch=1 n=49 v=120
894310 On ch=1 n=85 v=0
894310 On ch=1 n=73 v=0
894310 On ch=1 n=61 v=0
894310 On ch=1 n=49 v=0
894320 On ch=1 n=86 v=120
894320 On ch=1 n=74 v=120
894320 On ch=1 n=62 v=120
894320 On ch=1 n=50 v=120
894470 On ch=1 n=86 v=0
894470 On ch=1 n=74 v=0
894470 On ch=1 n=62 v=0
894470 On ch=1 n=50 v=0
894480 On ch=1 n=88 v=120
894480 On ch=1 n=76 v=120
894480 On ch=1 n=64 v=120
894480 On ch=1 n=52 v=120
894630 On ch=1 n=88 v=0
894630 On ch=1 n=76 v=0
894630 On ch=1 n=64 v=0
894630 On ch=1 n=52 v=0
894640 On ch=1 n=90 v=120
894640 On ch=1 n=78 v=120
894640 On ch=1 n=66 v=120
894640 On ch=1 n=54 v=120
894790 On ch=1 n=90 v=0
894790 On ch=1 n=78 v=0
894790 On ch=1 n=66 v=0
894790 On ch=1 n=54 v=0
894800 On ch=1 n=91 v=120
894800 On ch=1 n=79 v=120
894800 On ch=1 n=67 v=120
894800 On ch=1 n=55 v=120
894950 On ch=1 n=91 v=0
894950 On ch=1 n=79 v=0
894950 On ch=1 n=67 v=0
894950 On ch=1 n=55 v=0
894960 TimeSig 4/4 24 8
894960 On ch=1 n=93 v=120
894960 On ch=1 n=81 v=120
894960 On ch=1 n=69 v=120
894960 On ch=1 n=57 v=120
895190 On ch=1 n=93 v=0
895190 On ch=1 n=81 v=0
895190 On ch=1 n=69 v=0
895190 On ch=1 n=57 v=0
895200 On ch=1 n=93 v=120
895200 On ch=1 n=81 v=120
895200 On ch=1 n=69 v=120
895200 On ch=1 n=57 v=120
895430 On ch=1 n=93 v=0
895430 On ch=1 n=81 v=0
895430 On ch=1 n=69 v=0
895430 On ch=1 n=57 v=0
895440 On ch=1 n=93 v=120
895440 On ch=1 n=81 v=120
895440 On ch=1 n=69 v=120
895440 On ch=1 n=57 v=120
895670 On ch=1 n=93 v=0
895670 On ch=1 n=81 v=0
895670 On ch=1 n=69 v=0
895670 On ch=1 n=57 v=0
895680 On ch=1 n=93 v=120
895680 On ch=1 n=81 v=120
895680 On ch=1 n=69 v=120
895680 On ch=1 n=57 v=120
895910 On ch=1 n=93 v=0
895910 On ch=1 n=81 v=0
895910 On ch=1 n=69 v=0
895910 On ch=1 n=57 v=0
895920 TimeSig 4/4 24 8
895920 On ch=1 n=74 v=120
895920 On ch=1 n=62 v=120
895920 On ch=1 n=50 v=120
895920 On ch=1 n=38 v=120
896150 On ch=1 n=74 v=0
896150 On ch=1 n=62 v=0
896150 On ch=1 n=50 v=0
896150 On ch=1 n=38 v=0
